<?xml version="1.0" encoding="UTF-8" standalone="no"?>
<svg
   xmlns:dc="http://purl.org/dc/elements/1.1/"
   xmlns:cc="http://creativecommons.org/ns#"
   xmlns:rdf="http://www.w3.org/1999/02/22-rdf-syntax-ns#"
   xmlns:svg="http://www.w3.org/2000/svg"
   xmlns="http://www.w3.org/2000/svg"
   xmlns:xlink="http://www.w3.org/1999/xlink"
   xmlns:sodipodi="http://sodipodi.sourceforge.net/DTD/sodipodi-0.dtd"
   xmlns:inkscape="http://www.inkscape.org/namespaces/inkscape"
   width="50mm"
   height="50mm"
   viewBox="0 0 50 50"
   version="1.1"
   id="svg8"
   inkscape:version="1.0.1 (3bc2e813f5, 2020-09-07)"
   sodipodi:docname="12-1.svg">
  <defs
     id="defs2">
    <radialGradient
       inkscape:collect="always"
       xlink:href="#linearGradient1135"
       id="radialGradient1561-9-5-3"
       cx="41.903854"
       cy="30.091272"
       fx="41.903854"
       fy="30.091272"
       r="32.127975"
       gradientTransform="matrix(0.77813807,0,0,0.7781381,-46.238373,9.9267266)"
       gradientUnits="userSpaceOnUse" />
    <linearGradient
       inkscape:collect="always"
       id="linearGradient1135">
      <stop
         style="stop-color:#ffffff;stop-opacity:1;"
         offset="0"
         id="stop1131" />
      <stop
         style="stop-color:#ffffff;stop-opacity:0;"
         offset="1"
         id="stop1133" />
    </linearGradient>
    <radialGradient
       inkscape:collect="always"
       xlink:href="#linearGradient1135"
       id="radialGradient1561"
       cx="26.274075"
       cy="14.800471"
       fx="26.274075"
       fy="14.800471"
       r="32.127975"
       gradientTransform="matrix(0.77813809,0,0,0.77813812,-3.38236,4.41176)"
       gradientUnits="userSpaceOnUse" />
    <radialGradient
       inkscape:collect="always"
       xlink:href="#linearGradient1135"
       id="radialGradient1561-9"
       cx="54.447247"
       cy="49.531189"
       fx="54.447247"
       fy="49.531189"
       r="32.127975"
       gradientTransform="matrix(0.77813809,0,0,0.77813812,-3.3823582,4.4117597)"
       gradientUnits="userSpaceOnUse" />
  </defs>
  <sodipodi:namedview
     id="base"
     pagecolor="#ffffff"
     bordercolor="#666666"
     borderopacity="1.0"
     inkscape:pageopacity="0.0"
     inkscape:pageshadow="2"
     inkscape:zoom="0.98994949"
     inkscape:cx="2.9247058"
     inkscape:cy="154.89275"
     inkscape:document-units="mm"
     inkscape:current-layer="layer1"
     inkscape:document-rotation="0"
     showgrid="false"
     inkscape:window-width="1920"
     inkscape:window-height="1017"
     inkscape:window-x="-8"
     inkscape:window-y="-8"
     inkscape:window-maximized="1" />
  <metadata
     id="metadata5">
    <rdf:RDF>
      <cc:Work
         rdf:about="">
        <dc:format>image/svg+xml</dc:format>
        <dc:type
           rdf:resource="http://purl.org/dc/dcmitype/StillImage" />
        <dc:title />
      </cc:Work>
    </rdf:RDF>
  </metadata>
  <g
     inkscape:label="Layer 1"
     inkscape:groupmode="layer"
     id="layer1">
    <path
       id="path833"
       style="display:inline;fill:#ffffff;fill-opacity:1;stroke:#000000;stroke-width:0.27064;stroke-opacity:1;paint-order:markers fill stroke"
       d="M 42.294148,42.864656 H 7.7055615 a 24.864679,24.864679 0 0 0 17.2945505,7.000092 24.864679,24.864679 0 0 0 17.294036,-7.000092 z" />
    <path
       id="path904"
       style="display:inline;fill:#383155;fill-opacity:1;stroke:#000000;stroke-width:0.27064;stroke-opacity:1;paint-order:markers fill stroke"
       d="M 42.294666,7.1355713 H 7.7050447 A 24.864679,24.864679 0 0 0 0.1354809,25.000113 24.864679,24.864679 0 0 0 7.7055615,42.864656 H 42.294148 A 24.864679,24.864679 0 0 0 49.864747,25.000113 24.864679,24.864679 0 0 0 42.294666,7.1355713 Z" />
    <path
       id="path902"
       style="display:inline;fill:#ffffff;fill-opacity:1;stroke:#000000;stroke-width:0.27064;stroke-opacity:1;paint-order:markers fill stroke"
       d="M 24.980993,0.13548182 A 24.864679,24.864679 0 0 0 7.7050447,7.1355713 H 42.294666 a 24.864679,24.864679 0 0 0 -17.294554,-7.00008948 24.864679,24.864679 0 0 0 -0.01913,0 z" />
    <circle
       style="display:inline;fill:#ffffff;fill-opacity:1;stroke:#000000;stroke-width:0.336905;stroke-opacity:1;paint-order:markers fill stroke"
       id="path891"
       cx="25"
       cy="23.887001"
       r="9.8315487" />
    <g
       aria-label="12"
       transform="scale(0.86934871,1.1502864)"
       id="text1149"
       style="font-style:normal;font-variant:normal;font-weight:normal;font-stretch:normal;font-size:18.0465px;line-height:1.25;font-family:'Berlin Sans FB Demi';-inkscape-font-specification:'Berlin Sans FB Demi';display:inline;stroke-width:0.229406">
      <path
         d="m 26.184219,25.519319 q 0,0.167424 -0.1498,0.308412 -0.1498,0.140988 -0.326036,0.140988 -0.422964,0 -1.268894,0.0088 -0.84593,0.0088 -1.268894,0.0088 -0.326036,0 -0.317224,-0.281977 l 0.0088,-0.09693 q 0.123364,-3.366095 0.123364,-4.079848 v -2.617095 q 0,-0.24673 -0.114553,-0.24673 -0.176235,0 -0.537517,0.105742 -0.352471,0.105741 -0.537518,0.105741 -0.273165,0 -0.273165,-0.326036 0,-0.2996 -0.0088,-0.8988 -0.0088,-0.5992 -0.0088,-0.907612 0,-0.176235 0.220294,-0.264353 1.295329,-0.537518 2.035518,-1.44513 0.1498,-0.185047 0.255541,-0.185047 0.01762,0 0.105741,0.01762 0.334848,0.07049 0.99573,0.220294 0.352471,0.04406 1.030977,0.158612 0.123365,0.03525 0.123365,0.193859 0,0.05287 -0.01762,0.185047 -0.09693,0.775435 -0.09693,3.797871 0,1.013354 0.0088,3.048872 0.01762,2.035518 0.01762,3.048871 z"
         style="font-style:normal;font-variant:normal;font-weight:normal;font-stretch:normal;font-size:18.0465px;font-family:'Berlin Sans FB Demi';-inkscape-font-specification:'Berlin Sans FB Demi';stroke-width:0.229406"
         id="path844" />
      <path
         d="m 36.388245,23.457366 q 0,0.20267 -0.04406,0.608012 -0.04406,0.405341 -0.04406,0.616823 0,0.211483 -0.0088,0.669695 -0.0088,0.4494 -0.0088,0.669694 0,0.220294 -0.290788,0.220294 -0.105742,0 -0.828307,-0.167423 -0.80187,-0.176236 -2.996,-0.176236 -0.678506,0 -2.035519,0.07049 -1.357012,0.07931 -2.017894,0.07931 -0.229106,0 -0.255542,-0.220294 -0.02643,-0.2996 -0.132176,-0.889988 -0.220294,-0.898801 -0.220294,-1.030977 0,-0.193859 0.740188,-0.290788 0.863553,-0.114553 1.110283,-0.317224 0.889988,-0.749 1.824036,-1.89453 1.189588,-1.44513 1.189588,-2.167695 0,-0.625635 -0.458212,-1.0486 -0.4494,-0.431777 -1.075035,-0.431777 -0.704942,0 -1.401071,0.281977 -0.467024,0.176235 -0.978106,0.511082 -0.431777,0.273165 -0.475836,0.273165 -0.2996,0 -0.2996,-0.704941 0,-0.54633 -0.04406,-0.793059 -0.01762,-0.114553 -0.132176,-0.475836 -0.105741,-0.308411 -0.105741,-0.458211 0,-0.114553 0.1498,-0.220295 0.731376,-0.519894 1.956212,-0.819494 1.092659,-0.264353 2.123636,-0.264353 1.674236,0 2.802142,0.740188 1.330577,0.863554 1.330577,2.458483 0,2.123636 -3.216295,4.961025 2.282247,-0.114553 3.577577,-0.114553 0.264353,0 0.264353,0.326036 z"
         style="font-style:normal;font-variant:normal;font-weight:normal;font-stretch:normal;font-size:18.0465px;font-family:'Berlin Sans FB Demi';-inkscape-font-specification:'Berlin Sans FB Demi';stroke-width:0.229406"
         id="path846" />
    </g>
    <circle
       style="display:inline;opacity:0.88141;mix-blend-mode:normal;fill:url(#radialGradient1561);fill-opacity:1;stroke:none;stroke-width:0.212909;stroke-opacity:1;paint-order:markers fill stroke"
       id="path1129"
       cx="25"
       cy="25"
       r="25" />
    <circle
       style="display:inline;opacity:0.88141;mix-blend-mode:normal;fill:url(#radialGradient1561-9);fill-opacity:1;stroke:none;stroke-width:0.212909;stroke-opacity:1;paint-order:markers fill stroke"
       id="path1129-9"
       cx="25"
       cy="25"
       r="25" />
  </g>
</svg>
