<?xml version="1.0" encoding="UTF-8" standalone="no"?>
<svg
   xmlns:dc="http://purl.org/dc/elements/1.1/"
   xmlns:cc="http://creativecommons.org/ns#"
   xmlns:rdf="http://www.w3.org/1999/02/22-rdf-syntax-ns#"
   xmlns:svg="http://www.w3.org/2000/svg"
   xmlns="http://www.w3.org/2000/svg"
   xmlns:xlink="http://www.w3.org/1999/xlink"
   xmlns:sodipodi="http://sodipodi.sourceforge.net/DTD/sodipodi-0.dtd"
   xmlns:inkscape="http://www.inkscape.org/namespaces/inkscape"
   width="50mm"
   height="50mm"
   viewBox="0 0 50 50"
   version="1.1"
   id="svg8"
   inkscape:version="1.0.1 (3bc2e813f5, 2020-09-07)"
   sodipodi:docname="12-2.svg">
  <defs
     id="defs2">
    <radialGradient
       inkscape:collect="always"
       xlink:href="#linearGradient1135"
       id="radialGradient1561-9-5-3"
       cx="41.903854"
       cy="30.091272"
       fx="41.903854"
       fy="30.091272"
       r="32.127975"
       gradientTransform="matrix(0.77813807,0,0,0.7781381,-46.238373,9.9267266)"
       gradientUnits="userSpaceOnUse" />
    <linearGradient
       inkscape:collect="always"
       id="linearGradient1135">
      <stop
         style="stop-color:#ffffff;stop-opacity:1;"
         offset="0"
         id="stop1131" />
      <stop
         style="stop-color:#ffffff;stop-opacity:0;"
         offset="1"
         id="stop1133" />
    </linearGradient>
    <radialGradient
       inkscape:collect="always"
       xlink:href="#linearGradient1135"
       id="radialGradient1561-9-13"
       cx="54.447247"
       cy="49.531189"
       fx="54.447247"
       fy="49.531189"
       r="32.127975"
       gradientTransform="matrix(0.77813809,0,0,0.77813812,-3.3823566,4.4117586)"
       gradientUnits="userSpaceOnUse" />
    <radialGradient
       inkscape:collect="always"
       xlink:href="#linearGradient1135"
       id="radialGradient1561-45"
       cx="26.274075"
       cy="14.800471"
       fx="26.274075"
       fy="14.800471"
       r="32.127975"
       gradientTransform="matrix(0.77813809,0,0,0.77813812,-3.3823552,4.4117598)"
       gradientUnits="userSpaceOnUse" />
  </defs>
  <sodipodi:namedview
     id="base"
     pagecolor="#ffffff"
     bordercolor="#666666"
     borderopacity="1.0"
     inkscape:pageopacity="0.0"
     inkscape:pageshadow="2"
     inkscape:zoom="1.4"
     inkscape:cx="291.0572"
     inkscape:cy="217.43114"
     inkscape:document-units="mm"
     inkscape:current-layer="layer1"
     inkscape:document-rotation="0"
     showgrid="false"
     inkscape:window-width="1920"
     inkscape:window-height="1017"
     inkscape:window-x="-8"
     inkscape:window-y="-8"
     inkscape:window-maximized="1" />
  <metadata
     id="metadata5">
    <rdf:RDF>
      <cc:Work
         rdf:about="">
        <dc:format>image/svg+xml</dc:format>
        <dc:type
           rdf:resource="http://purl.org/dc/dcmitype/StillImage" />
        <dc:title />
      </cc:Work>
    </rdf:RDF>
  </metadata>
  <g
     inkscape:label="Layer 1"
     inkscape:groupmode="layer"
     id="layer1">
    <path
       id="path833-53"
       style="display:inline;fill:#000000;fill-opacity:1;stroke:#000000;stroke-width:0.27064;stroke-opacity:1;paint-order:markers fill stroke"
       d="m 42.295136,16.777877 -0.166915,0.334346 -0.567922,0.634587 -0.467673,0.401009 -0.701765,0.434082 -0.300757,0.133842 0.03359,0.300757 v 0.434082 l 0.06666,0.534852 -0.06666,0.968933 0.06666,0.267166 0.166916,0.06666 0.300754,-0.03359 0.300757,-0.233576 h 0.467672 l 0.06666,0.166915 -0.133323,7.851201 0.166915,0.267166 2.205032,-0.06666 0.367419,-0.167431 0.166915,-0.33383 -0.03307,-11.559502 h -0.300757 l -0.768427,-0.233578 z" />
    <path
       id="path1291"
       style="display:inline;fill:#000000;fill-opacity:1;stroke:#000000;stroke-width:0.27064;stroke-opacity:1;paint-order:markers fill stroke"
       d="m 49.741194,22.529463 -0.350882,0.810805 -0.701249,1.102773 -0.701765,1.002006 -0.701768,0.868683 -0.935342,0.200504 -0.567925,0.100254 v 0.300754 l 0.200504,0.868683 v 0.701249 l 0.100253,0.701765 0.734838,0.133326 0.73484,-0.06666 1.169437,-0.06666 0.804085,-0.10387 a 24.864678,24.864678 0 0 0 0.12609,-0.842841 24.864678,24.864678 0 0 0 0.181385,-2.005048 24.864678,24.864678 0 0 0 0.02532,-0.727088 24.864678,24.864678 0 0 0 0.0057,-0.507979 24.864678,24.864678 0 0 0 -0.123507,-2.47065 z" />
    <path
       id="path1549"
       style="display:inline;fill:#000000;fill-opacity:1;stroke:#000000;stroke-width:0.27064;stroke-opacity:1;paint-order:markers fill stroke"
       d="m 48.483907,16.830587 -0.263033,0.02842 -0.835091,0.234094 -1.035595,0.500745 -0.668176,0.635103 0.234093,1.403015 v 1.10226 l 0.300241,0.300754 0.601512,-0.534334 0.668176,-0.401008 0.768429,-0.267168 0.601515,-0.06666 0.489376,0.180351 a 24.864678,24.864678 0 0 0 -0.667145,-2.534729 24.864678,24.864678 0 0 0 -0.182417,-0.546737 24.864678,24.864678 0 0 0 -0.01188,-0.03411 z" />
    <path
       id="path1547"
       style="display:inline;fill:#ffffff;fill-opacity:1;stroke:#000000;stroke-width:0.27064;stroke-opacity:1;paint-order:markers fill stroke"
       d="m 45.788465,13.355347 a 9.8315486,9.8315486 0 0 0 -0.117822,10e-4 9.8315486,9.8315486 0 0 0 -0.135393,0.0026 9.8315486,9.8315486 0 0 0 -0.135392,0.0041 9.8315486,9.8315486 0 0 0 -0.135909,0.0062 9.8315486,9.8315486 0 0 0 -0.135392,0.0083 9.8315486,9.8315486 0 0 0 -0.134877,0.01033 9.8315486,9.8315486 0 0 0 -0.135393,0.01188 9.8315486,9.8315486 0 0 0 -0.134874,0.01344 9.8315486,9.8315486 0 0 0 -0.134876,0.0155 9.8315486,9.8315486 0 0 0 -0.134358,0.01757 9.8315486,9.8315486 0 0 0 -0.134358,0.01964 9.8315486,9.8315486 0 0 0 -0.133842,0.02119 9.8315486,9.8315486 0 0 0 -0.133327,0.02274 9.8315486,9.8315486 0 0 0 -0.133323,0.0248 9.8315486,9.8315486 0 0 0 -0.133326,0.02687 9.8315486,9.8315486 0 0 0 -0.132292,0.02842 9.8315486,9.8315486 0 0 0 -0.132292,0.03049 9.8315486,9.8315486 0 0 0 -0.131775,0.03204 9.8315486,9.8315486 0 0 0 -0.131258,0.03411 9.8315486,9.8315486 0 0 0 -0.130741,0.03566 9.8315486,9.8315486 0 0 0 -0.130225,0.03772 9.8315486,9.8315486 0 0 0 -0.129707,0.03927 9.8315486,9.8315486 0 0 0 -0.129709,0.04134 9.8315486,9.8315486 0 0 0 -0.128156,0.04289 9.8315486,9.8315486 0 0 0 -0.128159,0.04496 9.8315486,9.8315486 0 0 0 -0.12764,0.04651 9.8315486,9.8315486 0 0 0 -0.126609,0.04806 9.8315486,9.8315486 0 0 0 -0.12609,0.05013 9.8315486,9.8315486 0 0 0 -0.125574,0.05168 9.8315486,9.8315486 0 0 0 -0.124539,0.05374 9.8315486,9.8315486 0 0 0 -0.124023,0.05478 9.8315486,9.8315486 0 0 0 -0.122989,0.05684 9.8315486,9.8315486 0 0 0 -0.121957,0.05891 9.8315486,9.8315486 0 0 0 -0.121957,0.05995 9.8315486,9.8315486 0 0 0 -0.120407,0.06201 9.8315486,9.8315486 0 0 0 -0.119888,0.06356 9.8315486,9.8315486 0 0 0 -0.118856,0.06511 9.8315486,9.8315486 0 0 0 -0.117822,0.06718 9.8315486,9.8315486 0 0 0 -0.117305,0.06821 9.8315486,9.8315486 0 0 0 -0.116274,0.07028 9.8315486,9.8315486 0 0 0 -0.114721,0.07183 9.8315486,9.8315486 0 0 0 -0.114205,0.07286 9.8315486,9.8315486 0 0 0 -0.11317,0.07493 9.8315486,9.8315486 0 0 0 -0.112138,0.07648 9.8315486,9.8315486 0 0 0 -0.111104,0.07803 9.8315486,9.8315486 0 0 0 -0.109556,0.07906 9.8315486,9.8315486 0 0 0 -0.109037,0.08113 9.8315486,9.8315486 0 0 0 -0.107487,0.08268 9.8315486,9.8315486 0 0 0 -0.106969,0.08371 9.8315486,9.8315486 0 0 0 -0.104905,0.08527 9.8315486,9.8315486 0 0 0 -0.104386,0.08682 9.8315486,9.8315486 0 0 0 -0.102835,0.08837 9.8315486,9.8315486 0 0 0 -0.101804,0.08992 9.8315486,9.8315486 0 0 0 -0.100769,0.09095 9.8315486,9.8315486 0 0 0 -0.09922,0.0925 9.8315486,9.8315486 0 0 0 -0.09767,0.09353 9.8315486,9.8315486 0 0 0 -0.09663,0.09509 9.8315486,9.8315486 0 0 0 -0.0956,0.09663 9.8315486,9.8315486 0 0 0 -0.09405,0.09767 9.8315486,9.8315486 0 0 0 -0.0925,0.09922 9.8315486,9.8315486 0 0 0 -0.09095,0.100252 9.8315486,9.8315486 0 0 0 -0.08992,0.101803 9.8315486,9.8315486 0 0 0 -0.08837,0.102836 9.8315486,9.8315486 0 0 0 -0.08733,0.10387 9.8315486,9.8315486 0 0 0 -0.08527,0.105419 9.8315486,9.8315486 0 0 0 -0.08423,0.106454 9.8315486,9.8315486 0 0 0 -0.08268,0.107487 9.8315486,9.8315486 0 0 0 -0.08113,0.10852 9.8315486,9.8315486 0 0 0 -0.07958,0.109555 9.8315486,9.8315486 0 0 0 -0.07855,0.111104 9.8315486,9.8315486 0 0 0 -0.07648,0.111621 9.8315486,9.8315486 0 0 0 -0.07493,0.113171 9.8315486,9.8315486 0 0 0 -0.07338,0.114205 9.8315486,9.8315486 0 0 0 -0.07183,0.114722 9.8315486,9.8315486 0 0 0 -0.07028,0.116272 9.8315486,9.8315486 0 0 0 -0.06873,0.116789 9.8315486,9.8315486 0 0 0 -0.06718,0.117822 9.8315486,9.8315486 0 0 0 -0.06563,0.118856 9.8315486,9.8315486 0 0 0 -0.06356,0.119372 9.8315486,9.8315486 0 0 0 -0.06201,0.120923 9.8315486,9.8315486 0 0 0 -0.06046,0.12144 9.8315486,9.8315486 0 0 0 -0.05891,0.121956 9.8315486,9.8315486 0 0 0 -0.05736,0.12299 9.8315486,9.8315486 0 0 0 -0.0553,0.124023 9.8315486,9.8315486 0 0 0 -0.05374,0.124541 9.8315486,9.8315486 0 0 0 -0.05168,0.125057 9.8315486,9.8315486 0 0 0 -0.05013,0.126089 9.8315486,9.8315486 0 0 0 -0.04857,0.126609 9.8315486,9.8315486 0 0 0 -0.04703,0.12764 9.8315486,9.8315486 0 0 0 -0.04496,0.12764 9.8315486,9.8315486 0 0 0 -0.04289,0.128675 9.8315486,9.8315486 0 0 0 -0.04134,0.129191 9.8315486,9.8315486 0 0 0 -0.03979,0.129709 9.8315486,9.8315486 0 0 0 -0.03772,0.130223 9.8315486,9.8315486 0 0 0 -0.03617,0.130741 9.8315486,9.8315486 0 0 0 -0.03411,0.13126 9.8315486,9.8315486 0 0 0 -0.03256,0.131773 9.8315486,9.8315486 0 0 0 -0.03049,0.131776 9.8315486,9.8315486 0 0 0 -0.02894,0.132807 9.8315486,9.8315486 0 0 0 -0.02687,0.132811 9.8315486,9.8315486 0 0 0 -0.02532,0.133323 9.8315486,9.8315486 0 0 0 -0.02326,0.133326 9.8315486,9.8315486 0 0 0 -0.02119,0.134358 9.8315486,9.8315486 0 0 0 -0.01963,0.133842 9.8315486,9.8315486 0 0 0 -0.01757,0.134359 9.8315486,9.8315486 0 0 0 -0.01601,0.134876 9.8315486,9.8315486 0 0 0 -0.01394,0.134877 9.8315486,9.8315486 0 0 0 -0.01241,0.13539 9.8315486,9.8315486 0 0 0 -0.01035,0.134876 9.8315486,9.8315486 0 0 0 -0.0083,0.135393 9.8315486,9.8315486 0 0 0 -0.0062,0.135393 9.8315486,9.8315486 0 0 0 -0.0052,0.135908 9.8315486,9.8315486 0 0 0 -0.0026,0.135393 9.8315486,9.8315486 0 0 0 -0.0011,0.135392 9.8315486,9.8315486 0 0 0 0.0011,0.118338 9.8315486,9.8315486 0 0 0 0.0026,0.135392 9.8315486,9.8315486 0 0 0 0.0041,0.135393 9.8315486,9.8315486 0 0 0 0.0062,0.135393 9.8315486,9.8315486 0 0 0 0.0083,0.135392 9.8315486,9.8315486 0 0 0 0.01035,0.135393 9.8315486,9.8315486 0 0 0 0.01188,0.135392 9.8315486,9.8315486 0 0 0 0.01344,0.134874 9.8315486,9.8315486 0 0 0 0.01551,0.134358 9.8315486,9.8315486 0 0 0 0.01757,0.134877 9.8315486,9.8315486 0 0 0 0.01963,0.133842 9.8315486,9.8315486 0 0 0 0.02119,0.134358 9.8315486,9.8315486 0 0 0 0.02273,0.133326 9.8315486,9.8315486 0 0 0 0.02479,0.133324 9.8315486,9.8315486 0 0 0 0.02687,0.133326 9.8315486,9.8315486 0 0 0 0.02842,0.132292 9.8315486,9.8315486 0 0 0 0.03049,0.132291 9.8315486,9.8315486 0 0 0 0.03204,0.131776 9.8315486,9.8315486 0 0 0 0.03411,0.131257 9.8315486,9.8315486 0 0 0 0.03566,0.130742 9.8315486,9.8315486 0 0 0 0.03772,0.130225 9.8315486,9.8315486 0 0 0 0.03927,0.129706 9.8315486,9.8315486 0 0 0 0.04134,0.129191 9.8315486,9.8315486 0 0 0 0.04289,0.128675 9.8315486,9.8315486 0 0 0 0.04496,0.128158 9.8315486,9.8315486 0 0 0 0.04651,0.12764 9.8315486,9.8315486 0 0 0 0.04806,0.126606 9.8315486,9.8315486 0 0 0 0.05013,0.126093 9.8315486,9.8315486 0 0 0 0.05167,0.125055 9.8315486,9.8315486 0 0 0 0.05374,0.125058 9.8315486,9.8315486 0 0 0 0.05478,0.123507 9.8315486,9.8315486 0 0 0 0.05684,0.123505 9.8315486,9.8315486 0 0 0 0.05891,0.121957 9.8315486,9.8315486 0 0 0 0.05994,0.121439 9.8315486,9.8315486 0 0 0 0.06201,0.120925 9.8315486,9.8315486 0 0 0 0.06356,0.119888 9.8315486,9.8315486 0 0 0 0.06511,0.118856 9.8315486,9.8315486 0 0 0 0.06718,0.117822 9.8315486,9.8315486 0 0 0 0.06821,0.117305 9.8315486,9.8315486 0 0 0 0.07028,0.115756 9.8315486,9.8315486 0 0 0 0.07183,0.115239 9.8315486,9.8315486 0 0 0 0.07286,0.114205 9.8315486,9.8315486 0 0 0 0.07493,0.11317 9.8315486,9.8315486 0 0 0 0.07648,0.112138 9.8315486,9.8315486 0 0 0 0.07803,0.111104 9.8315486,9.8315486 0 0 0 0.07906,0.109556 9.8315486,9.8315486 0 0 0 0.08113,0.109037 9.8315486,9.8315486 0 0 0 0.08268,0.107487 9.8315486,9.8315486 0 0 0 0.08371,0.106453 9.8315486,9.8315486 0 0 0 0.08527,0.10542 9.8315486,9.8315486 0 0 0 0.08682,0.104387 9.8315486,9.8315486 0 0 0 0.08837,0.102835 9.8315486,9.8315486 0 0 0 0.08992,0.101804 9.8315486,9.8315486 0 0 0 0.09095,0.100769 9.8315486,9.8315486 0 0 0 0.0925,0.09922 9.8315486,9.8315486 0 0 0 0.09354,0.09767 9.8315486,9.8315486 0 0 0 0.09508,0.09663 9.8315486,9.8315486 0 0 0 0.09664,0.0956 9.8315486,9.8315486 0 0 0 0.09767,0.09353 9.8315486,9.8315486 0 0 0 0.09922,0.09302 9.8315486,9.8315486 0 0 0 0.100251,0.09095 9.8315486,9.8315486 0 0 0 0.101803,0.08992 9.8315486,9.8315486 0 0 0 0.102836,0.08836 9.8315486,9.8315486 0 0 0 0.10387,0.08733 9.8315486,9.8315486 0 0 0 0.105421,0.08527 9.8315486,9.8315486 0 0 0 0.106452,0.08423 9.8315486,9.8315486 0 0 0 0.107487,0.08268 9.8315486,9.8315486 0 0 0 0.108522,0.08113 9.8315486,9.8315486 0 0 0 0.109553,0.07958 9.8315486,9.8315486 0 0 0 0.111104,0.07803 9.8315486,9.8315486 0 0 0 0.11162,0.077 9.8315486,9.8315486 0 0 0 0.113172,0.07493 9.8315486,9.8315486 0 0 0 0.114205,0.07338 9.8315486,9.8315486 0 0 0 0.114721,0.07183 9.8315486,9.8315486 0 0 0 0.116274,0.07028 9.8315486,9.8315486 0 0 0 0.116787,0.06873 9.8315486,9.8315486 0 0 0 0.117824,0.06718 9.8315486,9.8315486 0 0 0 0.118853,0.06511 9.8315486,9.8315486 0 0 0 0.119891,0.06408 9.8315486,9.8315486 0 0 0 0.120407,0.06201 9.8315486,9.8315486 0 0 0 0.121438,0.06046 9.8315486,9.8315486 0 0 0 0.121957,0.05891 9.8315486,9.8315486 0 0 0 0.122989,0.05685 9.8315486,9.8315486 0 0 0 0.124024,0.05581 9.8315486,9.8315486 0 0 0 0.124542,0.05323 9.8315486,9.8315486 0 0 0 0.125055,0.05219 9.8315486,9.8315486 0 0 0 0.12609,0.05012 9.8315486,9.8315486 0 0 0 0.126608,0.04858 9.8315486,9.8315486 0 0 0 0.12764,0.04651 9.8315486,9.8315486 0 0 0 0.127641,0.04496 9.8315486,9.8315486 0 0 0 0.128675,0.04341 9.8315486,9.8315486 0 0 0 0.12919,0.04134 9.8315486,9.8315486 0 0 0 0.12971,0.03979 9.8315486,9.8315486 0 0 0 0.130225,0.03772 9.8315486,9.8315486 0 0 0 0.130741,0.03617 9.8315486,9.8315486 0 0 0 0.131257,0.03411 9.8315486,9.8315486 0 0 0 0.131776,0.03256 9.8315486,9.8315486 0 0 0 0.131773,0.03049 9.8315486,9.8315486 0 0 0 0.13281,0.02894 9.8315486,9.8315486 0 0 0 0.132808,0.02687 9.8315486,9.8315486 0 0 0 0.133326,0.02532 9.8315486,9.8315486 0 0 0 0.133324,0.02326 9.8315486,9.8315486 0 0 0 0.13436,0.02119 9.8315486,9.8315486 0 0 0 0.13384,0.01963 9.8315486,9.8315486 0 0 0 0.134361,0.01757 9.8315486,9.8315486 0 0 0 0.134874,0.01601 9.8315486,9.8315486 0 0 0 0.134876,0.01394 9.8315486,9.8315486 0 0 0 0.135393,0.01188 9.8315486,9.8315486 0 0 0 0.134874,0.01035 9.8315486,9.8315486 0 0 0 0.135392,0.0088 9.8315486,9.8315486 0 0 0 0.135393,0.0062 9.8315486,9.8315486 0 0 0 0.135908,0.0047 9.8315486,9.8315486 0 0 0 0.135393,0.0031 9.8315486,9.8315486 0 0 0 0.135393,0.0011 9.8315486,9.8315486 0 0 0 0.11834,-0.0011 9.8315486,9.8315486 0 0 0 0.13539,-0.0026 9.8315486,9.8315486 0 0 0 0.135392,-0.0041 9.8315486,9.8315486 0 0 0 0.135393,-0.0062 9.8315486,9.8315486 0 0 0 0.135393,-0.0083 9.8315486,9.8315486 0 0 0 0.135392,-0.01035 9.8315486,9.8315486 0 0 0 0.135393,-0.01188 9.8315486,9.8315486 0 0 0 0.134874,-0.01344 9.8315486,9.8315486 0 0 0 0.13436,-0.01601 9.8315486,9.8315486 0 0 0 0.134874,-0.01707 9.8315486,9.8315486 0 0 0 0.133843,-0.01963 9.8315486,9.8315486 0 0 0 0.134358,-0.02119 9.8315486,9.8315486 0 0 0 0.133326,-0.02273 9.8315486,9.8315486 0 0 0 0.133326,-0.02532 9.8315486,9.8315486 0 0 0 0.133323,-0.02635 9.8315486,9.8315486 0 0 0 0.132292,-0.02842 9.8315486,9.8315486 0 0 0 0.132292,-0.03049 9.8315486,9.8315486 0 0 0 0.131776,-0.03204 9.8315486,9.8315486 0 0 0 0.131257,-0.03411 9.8315486,9.8315486 0 0 0 0.130741,-0.03617 9.8315486,9.8315486 0 0 0 0.130225,-0.03721 9.8315486,9.8315486 0 0 0 0.09974,-0.03049 24.864678,24.864678 0 0 0 0.723471,-2.819466 24.864678,24.864678 0 0 0 0.02687,-0.14056 24.864678,24.864678 0 0 0 0.07338,-0.405659 24.864678,24.864678 0 0 0 0.02273,-0.134877 l -0.804085,0.10387 -1.169437,0.06666 -0.734841,0.06666 -0.734759,-0.133341 -0.100253,-0.701765 V 27.783877 L 45.782244,26.915195 V 26.61444 l 0.567926,-0.100253 0.935341,-0.200503 0.701768,-0.868683 0.701765,-1.002006 0.701249,-1.102773 0.350883,-0.810805 a 24.864678,24.864678 0 0 0 -0.310058,-2.15129 24.864678,24.864678 0 0 0 -0.08578,-0.432014 l -0.489376,-0.180351 -0.601514,0.06666 -0.76843,0.267168 -0.668176,0.401008 -0.601511,0.534334 -0.300242,-0.300754 v -1.10226 l -0.234092,-1.403015 0.668176,-0.635103 1.035595,-0.500745 0.835091,-0.234094 0.263033,-0.02842 a 24.864678,24.864678 0 0 0 -0.922425,-2.282032 24.864678,24.864678 0 0 0 -0.551905,-1.116727 9.8315486,9.8315486 0 0 0 -0.0036,-5.29e-4 9.8315486,9.8315486 0 0 0 -0.134358,-0.01602 9.8315486,9.8315486 0 0 0 -0.134877,-0.01395 9.8315486,9.8315486 0 0 0 -0.135389,-0.0124 9.8315486,9.8315486 0 0 0 -0.134877,-0.01033 9.8315486,9.8315486 0 0 0 -0.135393,-0.0083 9.8315486,9.8315486 0 0 0 -0.135392,-0.0067 9.8315486,9.8315486 0 0 0 -0.135909,-0.0047 9.8315486,9.8315486 0 0 0 -0.135392,-0.0026 9.8315486,9.8315486 0 0 0 -0.135909,-0.001 z m -3.493329,3.42253 0.868683,0.167431 0.768427,0.233578 h 0.300757 l 0.03307,11.559502 -0.166915,0.33383 -0.367419,0.167431 -2.205032,0.06666 -0.166915,-0.267166 0.133323,-7.851201 -0.06666,-0.166915 h -0.467672 l -0.300757,0.233576 -0.300754,0.03359 -0.166916,-0.06666 -0.06666,-0.267166 0.06666,-0.968933 -0.06666,-0.534852 V 19.0165 l -0.03359,-0.300757 0.300757,-0.133842 0.701765,-0.434082 0.467673,-0.401009 0.567922,-0.634587 z" />
    <path
       id="path1001"
       style="display:inline;fill:#fffffe;fill-opacity:1;stroke:#000000;stroke-width:0.27064;stroke-opacity:1;paint-order:markers fill stroke"
       d="M 42.293586,42.865175 H 7.7065517 A 24.864681,24.864681 0 0 0 25.00007,49.864748 24.864681,24.864681 0 0 0 42.293586,42.865175 Z" />
    <path
       id="path912"
       style="display:inline;fill:#383155;fill-opacity:1;stroke:#000000;stroke-width:0.27064;stroke-opacity:1;paint-order:markers fill stroke"
       d="M 42.293586,7.1350544 H 7.7065517 A 24.864681,24.864681 0 0 0 0.135436,25.000113 24.864681,24.864681 0 0 0 7.7065517,42.865175 H 42.293586 a 24.864681,24.864681 0 0 0 6.386174,-10.281544 9.8315486,9.8315486 0 0 1 -0.09973,0.03049 9.8315486,9.8315486 0 0 1 -0.130225,0.03721 9.8315486,9.8315486 0 0 1 -0.130741,0.03617 9.8315486,9.8315486 0 0 1 -0.131258,0.03411 9.8315486,9.8315486 0 0 1 -0.131775,0.03204 9.8315486,9.8315486 0 0 1 -0.132292,0.03049 9.8315486,9.8315486 0 0 1 -0.132292,0.02842 9.8315486,9.8315486 0 0 1 -0.133323,0.02635 9.8315486,9.8315486 0 0 1 -0.133326,0.02532 9.8315486,9.8315486 0 0 1 -0.133326,0.02273 9.8315486,9.8315486 0 0 1 -0.134359,0.02119 9.8315486,9.8315486 0 0 1 -0.133842,0.01963 9.8315486,9.8315486 0 0 1 -0.134874,0.01707 9.8315486,9.8315486 0 0 1 -0.13436,0.01601 9.8315486,9.8315486 0 0 1 -0.134874,0.01344 9.8315486,9.8315486 0 0 1 -0.135393,0.01188 9.8315486,9.8315486 0 0 1 -0.135393,0.01035 9.8315486,9.8315486 0 0 1 -0.135392,0.0083 9.8315486,9.8315486 0 0 1 -0.135393,0.0062 9.8315486,9.8315486 0 0 1 -0.135392,0.0041 9.8315486,9.8315486 0 0 1 -0.13539,0.0026 9.8315486,9.8315486 0 0 1 -0.11834,0.0011 9.8315486,9.8315486 0 0 1 -0.135393,-0.0011 9.8315486,9.8315486 0 0 1 -0.135393,-0.0031 9.8315486,9.8315486 0 0 1 -0.135908,-0.0047 9.8315486,9.8315486 0 0 1 -0.135393,-0.0062 9.8315486,9.8315486 0 0 1 -0.135392,-0.0088 9.8315486,9.8315486 0 0 1 -0.134874,-0.01035 9.8315486,9.8315486 0 0 1 -0.135393,-0.01188 9.8315486,9.8315486 0 0 1 -0.134876,-0.01394 9.8315486,9.8315486 0 0 1 -0.134874,-0.01601 9.8315486,9.8315486 0 0 1 -0.134361,-0.01757 9.8315486,9.8315486 0 0 1 -0.13384,-0.01963 9.8315486,9.8315486 0 0 1 -0.13436,-0.02119 9.8315486,9.8315486 0 0 1 -0.133324,-0.02326 9.8315486,9.8315486 0 0 1 -0.133326,-0.02532 9.8315486,9.8315486 0 0 1 -0.132808,-0.02687 9.8315486,9.8315486 0 0 1 -0.13281,-0.02894 9.8315486,9.8315486 0 0 1 -0.131773,-0.03049 9.8315486,9.8315486 0 0 1 -0.131776,-0.03256 9.8315486,9.8315486 0 0 1 -0.131257,-0.03411 9.8315486,9.8315486 0 0 1 -0.130741,-0.03617 9.8315486,9.8315486 0 0 1 -0.130225,-0.03772 9.8315486,9.8315486 0 0 1 -0.12971,-0.03979 9.8315486,9.8315486 0 0 1 -0.12919,-0.04134 9.8315486,9.8315486 0 0 1 -0.128675,-0.04341 9.8315486,9.8315486 0 0 1 -0.127641,-0.04496 9.8315486,9.8315486 0 0 1 -0.12764,-0.04651 9.8315486,9.8315486 0 0 1 -0.126608,-0.04858 9.8315486,9.8315486 0 0 1 -0.12609,-0.05013 9.8315486,9.8315486 0 0 1 -0.125055,-0.05219 9.8315486,9.8315486 0 0 1 -0.124542,-0.05323 9.8315486,9.8315486 0 0 1 -0.124024,-0.05581 9.8315486,9.8315486 0 0 1 -0.122989,-0.05685 9.8315486,9.8315486 0 0 1 -0.121957,-0.05891 9.8315486,9.8315486 0 0 1 -0.121438,-0.06046 9.8315486,9.8315486 0 0 1 -0.120407,-0.06201 9.8315486,9.8315486 0 0 1 -0.119891,-0.06408 9.8315486,9.8315486 0 0 1 -0.118853,-0.06511 9.8315486,9.8315486 0 0 1 -0.117824,-0.06718 9.8315486,9.8315486 0 0 1 -0.116787,-0.06873 9.8315486,9.8315486 0 0 1 -0.116274,-0.07028 9.8315486,9.8315486 0 0 1 -0.114721,-0.07183 9.8315486,9.8315486 0 0 1 -0.114205,-0.07338 9.8315486,9.8315486 0 0 1 -0.113172,-0.07493 9.8315486,9.8315486 0 0 1 -0.11162,-0.077 9.8315486,9.8315486 0 0 1 -0.111104,-0.07803 9.8315486,9.8315486 0 0 1 -0.109553,-0.07958 9.8315486,9.8315486 0 0 1 -0.108522,-0.08113 9.8315486,9.8315486 0 0 1 -0.107487,-0.08268 9.8315486,9.8315486 0 0 1 -0.106452,-0.08423 9.8315486,9.8315486 0 0 1 -0.105421,-0.08527 9.8315486,9.8315486 0 0 1 -0.10387,-0.08733 9.8315486,9.8315486 0 0 1 -0.102836,-0.08837 9.8315486,9.8315486 0 0 1 -0.101803,-0.08992 9.8315486,9.8315486 0 0 1 -0.100251,-0.09095 9.8315486,9.8315486 0 0 1 -0.09922,-0.09302 9.8315486,9.8315486 0 0 1 -0.09767,-0.09353 9.8315486,9.8315486 0 0 1 -0.09664,-0.0956 9.8315486,9.8315486 0 0 1 -0.09508,-0.09663 9.8315486,9.8315486 0 0 1 -0.09354,-0.09767 9.8315486,9.8315486 0 0 1 -0.0925,-0.09922 9.8315486,9.8315486 0 0 1 -0.09095,-0.10077 9.8315486,9.8315486 0 0 1 -0.08992,-0.101803 9.8315486,9.8315486 0 0 1 -0.08837,-0.102836 9.8315486,9.8315486 0 0 1 -0.08682,-0.104386 9.8315486,9.8315486 0 0 1 -0.08527,-0.10542 9.8315486,9.8315486 0 0 1 -0.08372,-0.106453 9.8315486,9.8315486 0 0 1 -0.08268,-0.107487 9.8315486,9.8315486 0 0 1 -0.08113,-0.109037 9.8315486,9.8315486 0 0 1 -0.07906,-0.109556 9.8315486,9.8315486 0 0 1 -0.07803,-0.111104 9.8315486,9.8315486 0 0 1 -0.07648,-0.112139 9.8315486,9.8315486 0 0 1 -0.07493,-0.11317 9.8315486,9.8315486 0 0 1 -0.07286,-0.114205 9.8315486,9.8315486 0 0 1 -0.07183,-0.115239 9.8315486,9.8315486 0 0 1 -0.07028,-0.115755 9.8315486,9.8315486 0 0 1 -0.06821,-0.117306 9.8315486,9.8315486 0 0 1 -0.06718,-0.117821 9.8315486,9.8315486 0 0 1 -0.06511,-0.118856 9.8315486,9.8315486 0 0 1 -0.06356,-0.119888 9.8315486,9.8315486 0 0 1 -0.06201,-0.120926 9.8315486,9.8315486 0 0 1 -0.05994,-0.121438 9.8315486,9.8315486 0 0 1 -0.05891,-0.121957 9.8315486,9.8315486 0 0 1 -0.05684,-0.123505 9.8315486,9.8315486 0 0 1 -0.05478,-0.123507 9.8315486,9.8315486 0 0 1 -0.05374,-0.125058 9.8315486,9.8315486 0 0 1 -0.05167,-0.125056 9.8315486,9.8315486 0 0 1 -0.05013,-0.126092 9.8315486,9.8315486 0 0 1 -0.04806,-0.126606 9.8315486,9.8315486 0 0 1 -0.04651,-0.12764 9.8315486,9.8315486 0 0 1 -0.04496,-0.12816 9.8315486,9.8315486 0 0 1 -0.04289,-0.128675 9.8315486,9.8315486 0 0 1 -0.04134,-0.12919 9.8315486,9.8315486 0 0 1 -0.03927,-0.129707 9.8315486,9.8315486 0 0 1 -0.03772,-0.130225 9.8315486,9.8315486 0 0 1 -0.03566,-0.130742 9.8315486,9.8315486 0 0 1 -0.03411,-0.131257 9.8315486,9.8315486 0 0 1 -0.03204,-0.131776 9.8315486,9.8315486 0 0 1 -0.03049,-0.132291 9.8315486,9.8315486 0 0 1 -0.02842,-0.132292 9.8315486,9.8315486 0 0 1 -0.02687,-0.133326 9.8315486,9.8315486 0 0 1 -0.02479,-0.133324 9.8315486,9.8315486 0 0 1 -0.02273,-0.133326 9.8315486,9.8315486 0 0 1 -0.02119,-0.134358 9.8315486,9.8315486 0 0 1 -0.01963,-0.133842 9.8315486,9.8315486 0 0 1 -0.01757,-0.134877 9.8315486,9.8315486 0 0 1 -0.01551,-0.134358 9.8315486,9.8315486 0 0 1 -0.01344,-0.134874 9.8315486,9.8315486 0 0 1 -0.01188,-0.135392 9.8315486,9.8315486 0 0 1 -0.01035,-0.135393 9.8315486,9.8315486 0 0 1 -0.0083,-0.135392 9.8315486,9.8315486 0 0 1 -0.0062,-0.135393 9.8315486,9.8315486 0 0 1 -0.0041,-0.135393 9.8315486,9.8315486 0 0 1 -0.0026,-0.135392 9.8315486,9.8315486 0 0 1 -0.0011,-0.118338 9.8315486,9.8315486 0 0 1 0.0011,-0.135392 9.8315486,9.8315486 0 0 1 0.0026,-0.135393 9.8315486,9.8315486 0 0 1 0.0052,-0.135908 9.8315486,9.8315486 0 0 1 0.0062,-0.135393 9.8315486,9.8315486 0 0 1 0.0083,-0.135393 9.8315486,9.8315486 0 0 1 0.01035,-0.134876 9.8315486,9.8315486 0 0 1 0.01241,-0.13539 9.8315486,9.8315486 0 0 1 0.01394,-0.134877 9.8315486,9.8315486 0 0 1 0.01601,-0.134876 9.8315486,9.8315486 0 0 1 0.01757,-0.134359 9.8315486,9.8315486 0 0 1 0.01963,-0.133842 9.8315486,9.8315486 0 0 1 0.02119,-0.134358 9.8315486,9.8315486 0 0 1 0.02326,-0.133326 9.8315486,9.8315486 0 0 1 0.02532,-0.133323 9.8315486,9.8315486 0 0 1 0.02687,-0.132811 9.8315486,9.8315486 0 0 1 0.02894,-0.132807 9.8315486,9.8315486 0 0 1 0.03049,-0.131776 9.8315486,9.8315486 0 0 1 0.03256,-0.131773 9.8315486,9.8315486 0 0 1 0.03411,-0.13126 9.8315486,9.8315486 0 0 1 0.03617,-0.130741 9.8315486,9.8315486 0 0 1 0.03772,-0.130223 9.8315486,9.8315486 0 0 1 0.03979,-0.129709 9.8315486,9.8315486 0 0 1 0.04134,-0.129191 9.8315486,9.8315486 0 0 1 0.04289,-0.128675 9.8315486,9.8315486 0 0 1 0.04496,-0.12764 9.8315486,9.8315486 0 0 1 0.04703,-0.12764 9.8315486,9.8315486 0 0 1 0.04857,-0.126609 9.8315486,9.8315486 0 0 1 0.05013,-0.126089 9.8315486,9.8315486 0 0 1 0.05168,-0.125057 9.8315486,9.8315486 0 0 1 0.05374,-0.124541 9.8315486,9.8315486 0 0 1 0.0553,-0.124023 9.8315486,9.8315486 0 0 1 0.05736,-0.12299 9.8315486,9.8315486 0 0 1 0.05891,-0.121956 9.8315486,9.8315486 0 0 1 0.06046,-0.12144 9.8315486,9.8315486 0 0 1 0.06201,-0.120923 9.8315486,9.8315486 0 0 1 0.06356,-0.119372 9.8315486,9.8315486 0 0 1 0.06563,-0.118856 9.8315486,9.8315486 0 0 1 0.06718,-0.117822 9.8315486,9.8315486 0 0 1 0.06873,-0.116789 9.8315486,9.8315486 0 0 1 0.07028,-0.116272 9.8315486,9.8315486 0 0 1 0.07183,-0.114722 9.8315486,9.8315486 0 0 1 0.07338,-0.114205 9.8315486,9.8315486 0 0 1 0.07493,-0.113171 9.8315486,9.8315486 0 0 1 0.07648,-0.111621 9.8315486,9.8315486 0 0 1 0.07855,-0.111104 9.8315486,9.8315486 0 0 1 0.07958,-0.109555 9.8315486,9.8315486 0 0 1 0.08113,-0.10852 9.8315486,9.8315486 0 0 1 0.08268,-0.107487 9.8315486,9.8315486 0 0 1 0.08423,-0.106454 9.8315486,9.8315486 0 0 1 0.08527,-0.105419 9.8315486,9.8315486 0 0 1 0.08733,-0.10387 9.8315486,9.8315486 0 0 1 0.08837,-0.102836 9.8315486,9.8315486 0 0 1 0.08992,-0.101803 9.8315486,9.8315486 0 0 1 0.09095,-0.100252 9.8315486,9.8315486 0 0 1 0.0925,-0.09922 9.8315486,9.8315486 0 0 1 0.09405,-0.09767 9.8315486,9.8315486 0 0 1 0.0956,-0.09664 9.8315486,9.8315486 0 0 1 0.09663,-0.09508 9.8315486,9.8315486 0 0 1 0.09767,-0.09353 9.8315486,9.8315486 0 0 1 0.09922,-0.0925 9.8315486,9.8315486 0 0 1 0.100769,-0.09095 9.8315486,9.8315486 0 0 1 0.101804,-0.08992 9.8315486,9.8315486 0 0 1 0.102835,-0.08837 9.8315486,9.8315486 0 0 1 0.104386,-0.08682 9.8315486,9.8315486 0 0 1 0.104905,-0.08527 9.8315486,9.8315486 0 0 1 0.106968,-0.08372 9.8315486,9.8315486 0 0 1 0.107487,-0.08268 9.8315486,9.8315486 0 0 1 0.109038,-0.08113 9.8315486,9.8315486 0 0 1 0.109556,-0.07906 9.8315486,9.8315486 0 0 1 0.111104,-0.07803 9.8315486,9.8315486 0 0 1 0.112138,-0.07648 9.8315486,9.8315486 0 0 1 0.11317,-0.07493 9.8315486,9.8315486 0 0 1 0.114205,-0.07286 9.8315486,9.8315486 0 0 1 0.114721,-0.07183 9.8315486,9.8315486 0 0 1 0.116274,-0.07028 9.8315486,9.8315486 0 0 1 0.117305,-0.06821 9.8315486,9.8315486 0 0 1 0.117822,-0.06718 9.8315486,9.8315486 0 0 1 0.118856,-0.06511 9.8315486,9.8315486 0 0 1 0.119888,-0.06356 9.8315486,9.8315486 0 0 1 0.120407,-0.06201 9.8315486,9.8315486 0 0 1 0.121957,-0.05994 9.8315486,9.8315486 0 0 1 0.121957,-0.05891 9.8315486,9.8315486 0 0 1 0.122989,-0.05684 9.8315486,9.8315486 0 0 1 0.124023,-0.05478 9.8315486,9.8315486 0 0 1 0.124539,-0.05374 9.8315486,9.8315486 0 0 1 0.125574,-0.05168 9.8315486,9.8315486 0 0 1 0.12609,-0.05013 9.8315486,9.8315486 0 0 1 0.126609,-0.04806 9.8315486,9.8315486 0 0 1 0.12764,-0.04651 9.8315486,9.8315486 0 0 1 0.128159,-0.04496 9.8315486,9.8315486 0 0 1 0.128156,-0.04289 9.8315486,9.8315486 0 0 1 0.129709,-0.04134 9.8315486,9.8315486 0 0 1 0.129707,-0.03927 9.8315486,9.8315486 0 0 1 0.130225,-0.03772 9.8315486,9.8315486 0 0 1 0.130741,-0.03566 9.8315486,9.8315486 0 0 1 0.131258,-0.03411 9.8315486,9.8315486 0 0 1 0.131775,-0.03204 9.8315486,9.8315486 0 0 1 0.132292,-0.03049 9.8315486,9.8315486 0 0 1 0.132292,-0.02842 9.8315486,9.8315486 0 0 1 0.133326,-0.02687 9.8315486,9.8315486 0 0 1 0.133323,-0.0248 9.8315486,9.8315486 0 0 1 0.133327,-0.02274 9.8315486,9.8315486 0 0 1 0.133842,-0.02119 9.8315486,9.8315486 0 0 1 0.134358,-0.01964 9.8315486,9.8315486 0 0 1 0.134358,-0.01757 9.8315486,9.8315486 0 0 1 0.134876,-0.0155 9.8315486,9.8315486 0 0 1 0.134874,-0.01343 9.8315486,9.8315486 0 0 1 0.135393,-0.01189 9.8315486,9.8315486 0 0 1 0.134877,-0.01033 9.8315486,9.8315486 0 0 1 0.135392,-0.0083 9.8315486,9.8315486 0 0 1 0.135909,-0.0062 9.8315486,9.8315486 0 0 1 0.135392,-0.0041 9.8315486,9.8315486 0 0 1 0.135393,-0.0026 9.8315486,9.8315486 0 0 1 0.117822,-10e-4 9.8315486,9.8315486 0 0 1 0.135908,10e-4 9.8315486,9.8315486 0 0 1 0.135393,0.0026 9.8315486,9.8315486 0 0 1 0.135908,0.0047 9.8315486,9.8315486 0 0 1 0.135393,0.0067 9.8315486,9.8315486 0 0 1 0.135392,0.0083 9.8315486,9.8315486 0 0 1 0.134877,0.01033 9.8315486,9.8315486 0 0 1 0.13539,0.0124 9.8315486,9.8315486 0 0 1 0.134877,0.01395 9.8315486,9.8315486 0 0 1 0.134358,0.01602 9.8315486,9.8315486 0 0 1 0.0036,5.29e-4 24.864681,24.864681 0 0 0 -4.715991,-6.2967736 z" />
    <path
       id="path910"
       style="display:inline;fill:#fffffe;fill-opacity:1;stroke:#000000;stroke-width:0.27064;stroke-opacity:1;paint-order:markers fill stroke"
       d="M 24.981465,0.13548156 A 24.864681,24.864681 0 0 0 7.7065517,7.1350544 H 42.293586 A 24.864681,24.864681 0 0 0 25.00007,0.13548156 a 24.864681,24.864681 0 0 0 -0.0186,0 z" />
    <circle
       style="display:inline;opacity:0.88141;mix-blend-mode:normal;fill:url(#radialGradient1561-9-13);fill-opacity:1;stroke:none;stroke-width:0.212909;stroke-opacity:1;paint-order:markers fill stroke"
       id="path1129-9-1"
       cx="25"
       cy="25"
       r="25" />
    <circle
       style="display:inline;opacity:0.88141;mix-blend-mode:normal;fill:url(#radialGradient1561-45);fill-opacity:1;stroke:none;stroke-width:0.212909;stroke-opacity:1;paint-order:markers fill stroke"
       id="path1129-80"
       cx="25"
       cy="25"
       r="25" />
  </g>
</svg>
