<?xml version="1.0" encoding="UTF-8" standalone="no"?>
<svg
   xmlns:dc="http://purl.org/dc/elements/1.1/"
   xmlns:cc="http://creativecommons.org/ns#"
   xmlns:rdf="http://www.w3.org/1999/02/22-rdf-syntax-ns#"
   xmlns:svg="http://www.w3.org/2000/svg"
   xmlns="http://www.w3.org/2000/svg"
   xmlns:xlink="http://www.w3.org/1999/xlink"
   xmlns:sodipodi="http://sodipodi.sourceforge.net/DTD/sodipodi-0.dtd"
   xmlns:inkscape="http://www.inkscape.org/namespaces/inkscape"
   width="50mm"
   height="50mm"
   viewBox="0 0 50 50"
   version="1.1"
   id="svg8"
   inkscape:version="1.0.1 (3bc2e813f5, 2020-09-07)"
   sodipodi:docname="12-3.svg">
  <defs
     id="defs2">
    <radialGradient
       inkscape:collect="always"
       xlink:href="#linearGradient1135"
       id="radialGradient1561-9-5-3"
       cx="41.903854"
       cy="30.091272"
       fx="41.903854"
       fy="30.091272"
       r="32.127975"
       gradientTransform="matrix(0.77813807,0,0,0.7781381,-46.238373,9.9267266)"
       gradientUnits="userSpaceOnUse" />
    <linearGradient
       inkscape:collect="always"
       id="linearGradient1135">
      <stop
         style="stop-color:#ffffff;stop-opacity:1;"
         offset="0"
         id="stop1131" />
      <stop
         style="stop-color:#ffffff;stop-opacity:0;"
         offset="1"
         id="stop1133" />
    </linearGradient>
    <radialGradient
       inkscape:collect="always"
       xlink:href="#linearGradient1135"
       id="radialGradient1561-9-4"
       cx="54.447247"
       cy="49.531189"
       fx="54.447247"
       fy="49.531189"
       r="32.127975"
       gradientTransform="matrix(0.7781381,0,0,0.77813812,-3.3823512,4.4117615)"
       gradientUnits="userSpaceOnUse" />
    <radialGradient
       inkscape:collect="always"
       xlink:href="#linearGradient1135"
       id="radialGradient1561-47"
       cx="26.274075"
       cy="14.800471"
       fx="26.274075"
       fy="14.800471"
       r="32.127975"
       gradientTransform="matrix(0.7781381,0,0,0.77813812,-3.3823512,4.4117615)"
       gradientUnits="userSpaceOnUse" />
  </defs>
  <sodipodi:namedview
     id="base"
     pagecolor="#ffffff"
     bordercolor="#666666"
     borderopacity="1.0"
     inkscape:pageopacity="0.0"
     inkscape:pageshadow="2"
     inkscape:zoom="0.98994949"
     inkscape:cx="2.9247058"
     inkscape:cy="154.89275"
     inkscape:document-units="mm"
     inkscape:current-layer="layer1"
     inkscape:document-rotation="0"
     showgrid="false"
     inkscape:window-width="1920"
     inkscape:window-height="1017"
     inkscape:window-x="-8"
     inkscape:window-y="-8"
     inkscape:window-maximized="1" />
  <metadata
     id="metadata5">
    <rdf:RDF>
      <cc:Work
         rdf:about="">
        <dc:format>image/svg+xml</dc:format>
        <dc:type
           rdf:resource="http://purl.org/dc/dcmitype/StillImage" />
        <dc:title></dc:title>
      </cc:Work>
    </rdf:RDF>
  </metadata>
  <g
     inkscape:label="Layer 1"
     inkscape:groupmode="layer"
     id="layer1">
    <path
       id="path833-4"
       style="display:inline;fill:#000000;fill-opacity:1;stroke:#000000;stroke-width:0.27064;stroke-opacity:1;paint-order:markers fill stroke"
       d="m 48.6947,17.463624 -0.265618,0.297139 -0.467672,0.40101 -0.701249,0.434599 -0.300755,0.133325 0.03307,0.300756 v 0.434599 l 0.06718,0.534334 -0.06718,0.968933 0.06718,0.267169 0.166915,0.06666 0.300757,-0.03307 0.300757,-0.234095 h 0.467672 l 0.06666,0.166915 -0.133842,7.851202 0.167431,0.267168 1.095542,-0.03307 a 24.864679,24.864679 0 0 0 0.06459,-0.385506 24.864679,24.864679 0 0 0 0.09818,-0.675412 24.86468,24.86468 0 0 0 0.208772,-2.958477 24.864679,24.864679 0 0 0 0.0016,-0.267684 24.864679,24.864679 0 0 0 -0.03617,-1.335317 24.86468,24.86468 0 0 0 -1.133779,-6.201173 z" />
    <path
       id="path1315"
       style="display:inline;fill:#ffffff;fill-opacity:1;stroke:#000000;stroke-width:0.27064;stroke-opacity:1;paint-order:markers fill stroke"
       d="m 47.79708,15.073072 a 9.8315487,9.8315486 0 0 0 -0.04186,0.02842 9.8315487,9.8315486 0 0 0 -0.111104,0.07803 9.8315487,9.8315486 0 0 0 -0.110072,0.07906 9.8315487,9.8315486 0 0 0 -0.108522,0.08113 9.8315487,9.8315486 0 0 0 -0.108003,0.08268 9.8315487,9.8315486 0 0 0 -0.106452,0.08372 9.8315487,9.8315486 0 0 0 -0.105421,0.08527 9.8315487,9.8315486 0 0 0 -0.10387,0.08682 9.8315487,9.8315486 0 0 0 -0.103351,0.08837 9.8315487,9.8315486 0 0 0 -0.101804,0.08992 9.8315487,9.8315486 0 0 0 -0.100253,0.09095 9.8315487,9.8315486 0 0 0 -0.09922,0.0925 9.8315487,9.8315486 0 0 0 -0.09818,0.09354 9.8315487,9.8315486 0 0 0 -0.09663,0.09508 9.8315487,9.8315486 0 0 0 -0.09509,0.09663 9.8315487,9.8315486 0 0 0 -0.09405,0.09767 9.8315487,9.8315486 0 0 0 -0.0925,0.09922 9.8315487,9.8315486 0 0 0 -0.09147,0.100253 9.8315487,9.8315486 0 0 0 -0.08992,0.101802 9.8315487,9.8315486 0 0 0 -0.08837,0.102837 9.8315487,9.8315486 0 0 0 -0.08682,0.103869 9.8315487,9.8315486 0 0 0 -0.08578,0.10542 9.8315487,9.8315486 0 0 0 -0.08423,0.106453 9.8315487,9.8315486 0 0 0 -0.08268,0.107487 9.8315487,9.8315486 0 0 0 -0.08113,0.108521 9.8315487,9.8315486 0 0 0 -0.07958,0.109554 9.8315487,9.8315486 0 0 0 -0.07803,0.111104 9.8315487,9.8315486 0 0 0 -0.07648,0.111621 9.8315487,9.8315486 0 0 0 -0.07493,0.113172 9.8315487,9.8315486 0 0 0 -0.07338,0.114205 9.8315487,9.8315486 0 0 0 -0.07235,0.114721 9.8315487,9.8315486 0 0 0 -0.07028,0.116272 9.8315487,9.8315486 0 0 0 -0.06821,0.116789 9.8315487,9.8315486 0 0 0 -0.06718,0.117822 9.8315487,9.8315486 0 0 0 -0.06563,0.118856 9.8315487,9.8315486 0 0 0 -0.06356,0.119373 9.8315487,9.8315486 0 0 0 -0.06253,0.120922 9.8315487,9.8315486 0 0 0 -0.06046,0.12144 9.8315487,9.8315486 0 0 0 -0.05839,0.121957 9.8315487,9.8315486 0 0 0 -0.05736,0.122989 9.8315487,9.8315486 0 0 0 -0.05529,0.124024 9.8315487,9.8315486 0 0 0 -0.05374,0.12454 9.8315487,9.8315486 0 0 0 -0.05168,0.125057 9.8315487,9.8315486 0 0 0 -0.05064,0.12609 9.8315487,9.8315486 0 0 0 -0.04806,0.126608 9.8315487,9.8315486 0 0 0 -0.04702,0.127641 9.8315487,9.8315486 0 0 0 -0.04496,0.12764 9.8315487,9.8315486 0 0 0 -0.04341,0.128675 9.8315487,9.8315486 0 0 0 -0.04134,0.12919 9.8315487,9.8315486 0 0 0 -0.03928,0.12971 9.8315487,9.8315486 0 0 0 -0.03824,0.130222 9.8315487,9.8315486 0 0 0 -0.03566,0.130742 9.8315487,9.8315486 0 0 0 -0.03462,0.131259 9.8315487,9.8315486 0 0 0 -0.03204,0.131773 9.8315487,9.8315486 0 0 0 -0.031,0.131776 9.8315487,9.8315486 0 0 0 -0.02842,0.132808 9.8315487,9.8315486 0 0 0 -0.02687,0.13281 9.8315487,9.8315486 0 0 0 -0.02532,0.133324 9.8315487,9.8315486 0 0 0 -0.02326,0.133326 9.8315487,9.8315486 0 0 0 -0.02119,0.134358 9.8315487,9.8315486 0 0 0 -0.01963,0.133842 9.8315487,9.8315486 0 0 0 -0.0181,0.134358 9.8315487,9.8315486 0 0 0 -0.0155,0.134877 9.8315487,9.8315486 0 0 0 -0.01394,0.134876 9.8315487,9.8315486 0 0 0 -0.01241,0.13539 9.8315487,9.8315486 0 0 0 -0.01035,0.134877 9.8315487,9.8315486 0 0 0 -0.0083,0.135392 9.8315487,9.8315486 0 0 0 -0.0067,0.135393 9.8315487,9.8315486 0 0 0 -0.0047,0.135909 9.8315487,9.8315486 0 0 0 -0.0026,0.135392 9.8315487,9.8315486 0 0 0 -0.0011,0.135393 9.8315487,9.8315486 0 0 0 5.29e-4,0.118337 9.8315487,9.8315486 0 0 0 0.0026,0.135393 9.8315487,9.8315486 0 0 0 0.0047,0.135392 9.8315487,9.8315486 0 0 0 0.0062,0.135393 9.8315487,9.8315486 0 0 0 0.0083,0.135393 9.8315487,9.8315486 0 0 0 0.0098,0.135392 9.8315487,9.8315486 0 0 0 0.01188,0.135393 9.8315487,9.8315486 0 0 0 0.01394,0.134874 9.8315487,9.8315486 0 0 0 0.0155,0.134358 9.8315487,9.8315486 0 0 0 0.01757,0.134876 9.8315487,9.8315486 0 0 0 0.01913,0.133843 9.8315487,9.8315486 0 0 0 0.02119,0.134358 9.8315487,9.8315486 0 0 0 0.02326,0.133326 9.8315487,9.8315486 0 0 0 0.02479,0.133323 9.8315487,9.8315486 0 0 0 0.02687,0.133327 9.8315487,9.8315486 0 0 0 0.02842,0.132291 9.8315487,9.8315486 0 0 0 0.03049,0.132292 9.8315487,9.8315486 0 0 0 0.03204,0.131776 9.8315487,9.8315486 0 0 0 0.03411,0.131257 9.8315487,9.8315486 0 0 0 0.03566,0.130741 9.8315487,9.8315486 0 0 0 0.03772,0.130225 9.8315487,9.8315486 0 0 0 0.03927,0.129707 9.8315487,9.8315486 0 0 0 0.04134,0.129191 9.8315487,9.8315486 0 0 0 0.04289,0.128675 9.8315487,9.8315486 0 0 0 0.04496,0.128159 9.8315487,9.8315486 0 0 0 0.04651,0.12764 9.8315487,9.8315486 0 0 0 0.04806,0.126606 9.8315487,9.8315486 0 0 0 0.05013,0.126093 9.8315487,9.8315486 0 0 0 0.05167,0.125055 9.8315487,9.8315486 0 0 0 0.05323,0.125058 9.8315487,9.8315486 0 0 0 0.0553,0.123508 9.8315487,9.8315486 0 0 0 0.05684,0.123504 9.8315487,9.8315486 0 0 0 0.05839,0.121957 9.8315487,9.8315486 0 0 0 0.06046,0.121439 9.8315487,9.8315486 0 0 0 0.06201,0.120925 9.8315487,9.8315486 0 0 0 0.06356,0.119888 9.8315487,9.8315486 0 0 0 0.06511,0.118856 9.8315487,9.8315486 0 0 0 0.06666,0.117822 9.8315487,9.8315486 0 0 0 0.06873,0.117305 9.8315487,9.8315486 0 0 0 0.07028,0.115756 9.8315487,9.8315486 0 0 0 0.07131,0.115239 9.8315487,9.8315486 0 0 0 0.07338,0.114205 9.8315487,9.8315486 0 0 0 0.07493,0.11317 9.8315487,9.8315486 0 0 0 0.07648,0.112138 9.8315487,9.8315486 0 0 0 0.07751,0.111104 9.8315487,9.8315486 0 0 0 0.07958,0.109556 9.8315487,9.8315486 0 0 0 0.08113,0.109038 9.8315487,9.8315486 0 0 0 0.08216,0.107487 9.8315487,9.8315486 0 0 0 0.08423,0.106452 9.8315487,9.8315486 0 0 0 0.08527,0.105421 9.8315487,9.8315486 0 0 0 0.08682,0.104386 9.8315487,9.8315486 0 0 0 0.08837,0.102835 9.8315487,9.8315486 0 0 0 0.0894,0.101804 9.8315487,9.8315486 0 0 0 0.09147,0.100769 9.8315487,9.8315486 0 0 0 0.09199,0.09922 9.8315487,9.8315486 0 0 0 0.09405,0.09767 9.8315487,9.8315486 0 0 0 0.09508,0.09663 9.8315487,9.8315486 0 0 0 0.09664,0.0956 9.8315487,9.8315486 0 0 0 0.09767,0.09353 9.8315487,9.8315486 0 0 0 0.09922,0.09302 9.8315487,9.8315486 0 0 0 0.100251,0.09095 9.8315487,9.8315486 0 0 0 0.101285,0.08992 9.8315487,9.8315486 0 0 0 0.102838,0.08837 9.8315487,9.8315486 0 0 0 0.104386,0.08733 9.8315487,9.8315486 0 0 0 0.104902,0.08527 9.8315487,9.8315486 0 0 0 0.106455,0.08423 9.8315487,9.8315486 0 0 0 0.107487,0.08268 9.8315487,9.8315486 0 0 0 0.109038,0.08113 9.8315487,9.8315486 0 0 0 0.109553,0.07958 9.8315487,9.8315486 0 0 0 0.111104,0.07803 9.8315487,9.8315486 0 0 0 0.111622,0.077 9.8315487,9.8315486 0 0 0 0.11317,0.07493 9.8315487,9.8315486 0 0 0 0.113689,0.07338 9.8315487,9.8315486 0 0 0 0.115237,0.07183 9.8315487,9.8315486 0 0 0 0.115755,0.07028 9.8315487,9.8315486 0 0 0 0.117306,0.06873 9.8315487,9.8315486 0 0 0 0.117824,0.06718 9.8315487,9.8315486 0 0 0 0.118853,0.06511 9.8315487,9.8315486 0 0 0 0.119375,0.06408 9.8315487,9.8315486 0 0 0 0.09198,0.04754 24.864679,24.864679 0 0 0 0.389641,-1.516703 24.864679,24.864679 0 0 0 0.202054,-0.99839 24.864679,24.864679 0 0 0 0.02429,-0.140041 l -1.095542,0.03307 -0.167431,-0.267168 0.133842,-7.851202 -0.06666,-0.166915 h -0.467673 l -0.300757,0.234095 -0.300757,0.03307 -0.166915,-0.06666 -0.06718,-0.267169 0.06718,-0.968933 -0.06718,-0.534334 v -0.434599 l -0.03307,-0.300756 0.300755,-0.133325 0.701249,-0.434599 0.467672,-0.40101 0.265618,-0.297139 a 24.86468,24.86468 0 0 0 -0.01601,-0.05064 24.86468,24.86468 0 0 0 -0.372071,-1.075386 24.864679,24.864679 0 0 0 -0.509529,-1.264523 z" />
    <path
       id="path1059"
       style="display:inline;fill:#ffffff;fill-opacity:1;stroke:#000000;stroke-width:0.27064;stroke-opacity:1;paint-order:markers fill stroke"
       d="M 42.294056,42.864657 H 7.7059885 a 24.864681,24.864681 0 0 0 17.2940345,7.000092 24.864681,24.864681 0 0 0 17.294033,-7.000092 z" />
    <path
       id="path920"
       style="display:inline;fill:#383155;fill-opacity:1;stroke:#000000;stroke-width:0.27064;stroke-opacity:1;paint-order:markers fill stroke"
       d="M 42.294575,7.1355726 H 7.7059885 A 24.864681,24.864681 0 0 0 0.1353913,25.000114 24.864681,24.864681 0 0 0 7.7059885,42.864657 H 42.294056 a 24.864681,24.864681 0 0 0 6.58151,-10.92233 9.8315487,9.8315486 0 0 1 -0.09198,-0.04754 9.8315487,9.8315486 0 0 1 -0.119375,-0.06408 9.8315487,9.8315486 0 0 1 -0.118853,-0.06511 9.8315487,9.8315486 0 0 1 -0.117824,-0.06718 9.8315487,9.8315486 0 0 1 -0.117306,-0.06873 9.8315487,9.8315486 0 0 1 -0.115755,-0.07028 9.8315487,9.8315486 0 0 1 -0.115237,-0.07183 9.8315487,9.8315486 0 0 1 -0.113689,-0.07338 9.8315487,9.8315486 0 0 1 -0.11317,-0.07493 9.8315487,9.8315486 0 0 1 -0.111622,-0.077 9.8315487,9.8315486 0 0 1 -0.111104,-0.07803 9.8315487,9.8315486 0 0 1 -0.109554,-0.07958 9.8315487,9.8315486 0 0 1 -0.109037,-0.08113 9.8315487,9.8315486 0 0 1 -0.107487,-0.08268 9.8315487,9.8315486 0 0 1 -0.106455,-0.08423 9.8315487,9.8315486 0 0 1 -0.104902,-0.08527 9.8315487,9.8315486 0 0 1 -0.104386,-0.08733 9.8315487,9.8315486 0 0 1 -0.102838,-0.08837 9.8315487,9.8315486 0 0 1 -0.101286,-0.08992 9.8315487,9.8315486 0 0 1 -0.10025,-0.09095 9.8315487,9.8315486 0 0 1 -0.09922,-0.09302 9.8315487,9.8315486 0 0 1 -0.09767,-0.09353 9.8315487,9.8315486 0 0 1 -0.09664,-0.0956 9.8315487,9.8315486 0 0 1 -0.09508,-0.09663 9.8315487,9.8315486 0 0 1 -0.09405,-0.09767 9.8315487,9.8315486 0 0 1 -0.09199,-0.09922 9.8315487,9.8315486 0 0 1 -0.09147,-0.100769 9.8315487,9.8315486 0 0 1 -0.0894,-0.101804 9.8315487,9.8315486 0 0 1 -0.08837,-0.102835 9.8315487,9.8315486 0 0 1 -0.08682,-0.104386 9.8315487,9.8315486 0 0 1 -0.08527,-0.105421 9.8315487,9.8315486 0 0 1 -0.08423,-0.106452 9.8315487,9.8315486 0 0 1 -0.08216,-0.107487 9.8315487,9.8315486 0 0 1 -0.08113,-0.109038 9.8315487,9.8315486 0 0 1 -0.07958,-0.109556 9.8315487,9.8315486 0 0 1 -0.07751,-0.111104 9.8315487,9.8315486 0 0 1 -0.07648,-0.112138 9.8315487,9.8315486 0 0 1 -0.07493,-0.11317 9.8315487,9.8315486 0 0 1 -0.07338,-0.114205 9.8315487,9.8315486 0 0 1 -0.07132,-0.115239 9.8315487,9.8315486 0 0 1 -0.07028,-0.115756 9.8315487,9.8315486 0 0 1 -0.06873,-0.117305 9.8315487,9.8315486 0 0 1 -0.06666,-0.117822 9.8315487,9.8315486 0 0 1 -0.06511,-0.118856 9.8315487,9.8315486 0 0 1 -0.06356,-0.119888 9.8315487,9.8315486 0 0 1 -0.06201,-0.120925 9.8315487,9.8315486 0 0 1 -0.06046,-0.121439 9.8315487,9.8315486 0 0 1 -0.05839,-0.121957 9.8315487,9.8315486 0 0 1 -0.05684,-0.123504 9.8315487,9.8315486 0 0 1 -0.0553,-0.123508 9.8315487,9.8315486 0 0 1 -0.05323,-0.125058 9.8315487,9.8315486 0 0 1 -0.05168,-0.125055 9.8315487,9.8315486 0 0 1 -0.05013,-0.126093 9.8315487,9.8315486 0 0 1 -0.04806,-0.126606 9.8315487,9.8315486 0 0 1 -0.04651,-0.12764 9.8315487,9.8315486 0 0 1 -0.04496,-0.128159 9.8315487,9.8315486 0 0 1 -0.04289,-0.128675 9.8315487,9.8315486 0 0 1 -0.04134,-0.129191 9.8315487,9.8315486 0 0 1 -0.03927,-0.129707 9.8315487,9.8315486 0 0 1 -0.03772,-0.130225 9.8315487,9.8315486 0 0 1 -0.03566,-0.130741 9.8315487,9.8315486 0 0 1 -0.03411,-0.131257 9.8315487,9.8315486 0 0 1 -0.03204,-0.131776 9.8315487,9.8315486 0 0 1 -0.03049,-0.132292 9.8315487,9.8315486 0 0 1 -0.02842,-0.132291 9.8315487,9.8315486 0 0 1 -0.02687,-0.133327 9.8315487,9.8315486 0 0 1 -0.02479,-0.133323 9.8315487,9.8315486 0 0 1 -0.02326,-0.133326 9.8315487,9.8315486 0 0 1 -0.02119,-0.134358 9.8315487,9.8315486 0 0 1 -0.01913,-0.133843 9.8315487,9.8315486 0 0 1 -0.01757,-0.134876 9.8315487,9.8315486 0 0 1 -0.01551,-0.134358 9.8315487,9.8315486 0 0 1 -0.01394,-0.134874 9.8315487,9.8315486 0 0 1 -0.01188,-0.135393 9.8315487,9.8315486 0 0 1 -0.0098,-0.135392 9.8315487,9.8315486 0 0 1 -0.0083,-0.135393 9.8315487,9.8315486 0 0 1 -0.0062,-0.135393 9.8315487,9.8315486 0 0 1 -0.0047,-0.135392 9.8315487,9.8315486 0 0 1 -0.0026,-0.135393 9.8315487,9.8315486 0 0 1 -5.29e-4,-0.118337 9.8315487,9.8315486 0 0 1 0.0011,-0.135393 9.8315487,9.8315486 0 0 1 0.0026,-0.135392 9.8315487,9.8315486 0 0 1 0.0047,-0.135909 9.8315487,9.8315486 0 0 1 0.0067,-0.135393 9.8315487,9.8315486 0 0 1 0.0083,-0.135392 9.8315487,9.8315486 0 0 1 0.01035,-0.134877 9.8315487,9.8315486 0 0 1 0.01241,-0.13539 9.8315487,9.8315486 0 0 1 0.01394,-0.134876 9.8315487,9.8315486 0 0 1 0.0155,-0.134877 9.8315487,9.8315486 0 0 1 0.0181,-0.134358 9.8315487,9.8315486 0 0 1 0.01963,-0.133842 9.8315487,9.8315486 0 0 1 0.02119,-0.134358 9.8315487,9.8315486 0 0 1 0.02326,-0.133326 9.8315487,9.8315486 0 0 1 0.02532,-0.133324 9.8315487,9.8315486 0 0 1 0.02687,-0.13281 9.8315487,9.8315486 0 0 1 0.02842,-0.132808 9.8315487,9.8315486 0 0 1 0.031,-0.131776 9.8315487,9.8315486 0 0 1 0.03204,-0.131773 9.8315487,9.8315486 0 0 1 0.03462,-0.131259 9.8315487,9.8315486 0 0 1 0.03566,-0.130742 9.8315487,9.8315486 0 0 1 0.03824,-0.130222 9.8315487,9.8315486 0 0 1 0.03928,-0.12971 9.8315487,9.8315486 0 0 1 0.04134,-0.12919 9.8315487,9.8315486 0 0 1 0.04341,-0.128675 9.8315487,9.8315486 0 0 1 0.04496,-0.12764 9.8315487,9.8315486 0 0 1 0.04702,-0.127641 9.8315487,9.8315486 0 0 1 0.04806,-0.126608 9.8315487,9.8315486 0 0 1 0.05064,-0.12609 9.8315487,9.8315486 0 0 1 0.05168,-0.125057 9.8315487,9.8315486 0 0 1 0.05374,-0.12454 9.8315487,9.8315486 0 0 1 0.05529,-0.124024 9.8315487,9.8315486 0 0 1 0.05736,-0.122989 9.8315487,9.8315486 0 0 1 0.05839,-0.121957 9.8315487,9.8315486 0 0 1 0.06046,-0.12144 9.8315487,9.8315486 0 0 1 0.06253,-0.120922 9.8315487,9.8315486 0 0 1 0.06356,-0.119373 9.8315487,9.8315486 0 0 1 0.06563,-0.118856 9.8315487,9.8315486 0 0 1 0.06718,-0.117822 9.8315487,9.8315486 0 0 1 0.06821,-0.116789 9.8315487,9.8315486 0 0 1 0.07028,-0.116272 9.8315487,9.8315486 0 0 1 0.07235,-0.114721 9.8315487,9.8315486 0 0 1 0.07338,-0.114205 9.8315487,9.8315486 0 0 1 0.07493,-0.113172 9.8315487,9.8315486 0 0 1 0.07648,-0.111621 9.8315487,9.8315486 0 0 1 0.07803,-0.111104 9.8315487,9.8315486 0 0 1 0.07958,-0.109554 9.8315487,9.8315486 0 0 1 0.08113,-0.108521 9.8315487,9.8315486 0 0 1 0.08268,-0.107487 9.8315487,9.8315486 0 0 1 0.08423,-0.106453 9.8315487,9.8315486 0 0 1 0.08578,-0.10542 9.8315487,9.8315486 0 0 1 0.08682,-0.103869 9.8315487,9.8315486 0 0 1 0.08837,-0.102837 9.8315487,9.8315486 0 0 1 0.08992,-0.101802 9.8315487,9.8315486 0 0 1 0.09147,-0.100253 9.8315487,9.8315486 0 0 1 0.0925,-0.09922 9.8315487,9.8315486 0 0 1 0.09405,-0.09767 9.8315487,9.8315486 0 0 1 0.09509,-0.09663 9.8315487,9.8315486 0 0 1 0.09663,-0.09508 9.8315487,9.8315486 0 0 1 0.09818,-0.09354 9.8315487,9.8315486 0 0 1 0.09922,-0.0925 9.8315487,9.8315486 0 0 1 0.100253,-0.09095 9.8315487,9.8315486 0 0 1 0.101804,-0.08992 9.8315487,9.8315486 0 0 1 0.103351,-0.08837 9.8315487,9.8315486 0 0 1 0.10387,-0.08682 9.8315487,9.8315486 0 0 1 0.105421,-0.08527 9.8315487,9.8315486 0 0 1 0.106452,-0.08372 9.8315487,9.8315486 0 0 1 0.108003,-0.08268 9.8315487,9.8315486 0 0 1 0.108522,-0.08113 9.8315487,9.8315486 0 0 1 0.110072,-0.07906 9.8315487,9.8315486 0 0 1 0.111103,-0.07803 9.8315487,9.8315486 0 0 1 0.04186,-0.02842 24.864681,24.864681 0 0 0 -5.502506,-7.9374994 z" />
    <path
       id="path918"
       style="display:inline;fill:#ffffff;fill-opacity:1;stroke:#000000;stroke-width:0.27064;stroke-opacity:1;paint-order:markers fill stroke"
       d="M 24.98142,0.13548304 A 24.864681,24.864681 0 0 0 7.7059885,7.1355726 H 42.294575 a 24.864681,24.864681 0 0 0 -17.294552,-7.00008956 24.864681,24.864681 0 0 0 -0.0186,0 z" />
    <circle
       style="display:inline;opacity:0.88141;mix-blend-mode:normal;fill:url(#radialGradient1561-9-4);fill-opacity:1;stroke:none;stroke-width:0.212909;stroke-opacity:1;paint-order:markers fill stroke"
       id="path1129-9-75"
       cx="25"
       cy="25"
       r="25" />
    <circle
       style="display:inline;opacity:0.88141;mix-blend-mode:normal;fill:url(#radialGradient1561-47);fill-opacity:1;stroke:none;stroke-width:0.212909;stroke-opacity:1;paint-order:markers fill stroke"
       id="path1129-4"
       cx="25"
       cy="25"
       r="25" />
  </g>
</svg>
