<?xml version="1.0" encoding="UTF-8" standalone="no"?>
<svg
   xmlns:dc="http://purl.org/dc/elements/1.1/"
   xmlns:cc="http://creativecommons.org/ns#"
   xmlns:rdf="http://www.w3.org/1999/02/22-rdf-syntax-ns#"
   xmlns:svg="http://www.w3.org/2000/svg"
   xmlns="http://www.w3.org/2000/svg"
   xmlns:xlink="http://www.w3.org/1999/xlink"
   xmlns:sodipodi="http://sodipodi.sourceforge.net/DTD/sodipodi-0.dtd"
   xmlns:inkscape="http://www.inkscape.org/namespaces/inkscape"
   width="50mm"
   height="50mm"
   viewBox="0 0 50 50"
   version="1.1"
   id="svg8"
   inkscape:version="1.0.1 (3bc2e813f5, 2020-09-07)"
   sodipodi:docname="12-6.svg">
  <defs
     id="defs2">
    <radialGradient
       inkscape:collect="always"
       xlink:href="#linearGradient1135"
       id="radialGradient1561-9-5-3"
       cx="41.903854"
       cy="30.091272"
       fx="41.903854"
       fy="30.091272"
       r="32.127975"
       gradientTransform="matrix(0.77813807,0,0,0.7781381,-46.238373,9.9267266)"
       gradientUnits="userSpaceOnUse" />
    <linearGradient
       inkscape:collect="always"
       id="linearGradient1135">
      <stop
         style="stop-color:#ffffff;stop-opacity:1;"
         offset="0"
         id="stop1131" />
      <stop
         style="stop-color:#ffffff;stop-opacity:0;"
         offset="1"
         id="stop1133" />
    </linearGradient>
    <radialGradient
       inkscape:collect="always"
       xlink:href="#linearGradient1135"
       id="radialGradient1561-9-6"
       cx="54.447247"
       cy="49.531189"
       fx="54.447247"
       fy="49.531189"
       r="32.127975"
       gradientTransform="matrix(0.77813809,0,0,0.77813812,-3.382365,4.4120854)"
       gradientUnits="userSpaceOnUse" />
    <radialGradient
       inkscape:collect="always"
       xlink:href="#linearGradient1135"
       id="radialGradient1561-8"
       cx="26.274075"
       cy="14.800471"
       fx="26.274075"
       fy="14.800471"
       r="32.127975"
       gradientTransform="matrix(0.77813809,0,0,0.77813812,-2.9671819,4.4120854)"
       gradientUnits="userSpaceOnUse" />
  </defs>
  <sodipodi:namedview
     id="base"
     pagecolor="#ffffff"
     bordercolor="#666666"
     borderopacity="1.0"
     inkscape:pageopacity="0.0"
     inkscape:pageshadow="2"
     inkscape:zoom="0.98994949"
     inkscape:cx="2.9247058"
     inkscape:cy="154.89275"
     inkscape:document-units="mm"
     inkscape:current-layer="layer1"
     inkscape:document-rotation="0"
     showgrid="false"
     inkscape:window-width="1920"
     inkscape:window-height="1017"
     inkscape:window-x="-8"
     inkscape:window-y="-8"
     inkscape:window-maximized="1" />
  <metadata
     id="metadata5">
    <rdf:RDF>
      <cc:Work
         rdf:about="">
        <dc:format>image/svg+xml</dc:format>
        <dc:type
           rdf:resource="http://purl.org/dc/dcmitype/StillImage" />
        <dc:title></dc:title>
      </cc:Work>
    </rdf:RDF>
  </metadata>
  <g
     inkscape:label="Layer 1"
     inkscape:groupmode="layer"
     id="layer1">
    <path
       id="path833-58"
       style="display:inline;fill:#ffffff;fill-opacity:1;stroke:#000000;stroke-width:0.27064;stroke-opacity:1;paint-order:markers fill stroke"
       d="M 0.58243723,26.248454 0.83306643,25.890335 1.534834,24.788078 2.069168,23.551977 2.2360831,22.683297 2.1027568,22.048709 1.6350846,21.447198 0.99998148,21.213102 l -0.16174773,0.0181 a 24.864677,24.864677 0 0 0 -0.14004132,1.070218 24.864678,24.864678 0 0 0 -0.0346234,0.33383 24.864677,24.864677 0 0 0 -0.0366898,0.425813 24.864677,24.864677 0 0 0 -0.0764831,1.938901 24.864677,24.864677 0 0 0 5.2917e-4,0.103351 24.864678,24.864678 0 0 0 0.0196321,0.889871 24.864677,24.864677 0 0 0 0.0118798,0.255281 z" />
    <path
       id="path1579"
       style="display:inline;fill:#000000;fill-opacity:1;stroke:#000000;stroke-width:0.27064;stroke-opacity:1;paint-order:markers fill stroke"
       d="m 1.1886002,30.593406 0.7136527,-0.0925 1.1358485,0.100253 h 1.0691839 l 0.7684294,0.300757 0.6009957,0.03307 0.033592,-0.634587 0.033589,-1.63711 0.033073,-0.668176 -0.1002533,-0.467672 H 4.6752108 l -1.2361016,0.06718 -0.6681761,0.06666 H 2.1694187 l 0.2005065,-0.367419 0.4340808,-0.53485 0.4010104,-0.600997 0.6681761,-0.835607 0.53485,-1.002006 0.4004918,-0.968929 0.3007572,-1.035595 -0.033073,-1.002522 -0.167431,-0.76843 L 4.4747042,19.676762 3.839601,19.008586 3.1719435,18.540398 2.2030102,18.27323 1.4929743,18.220519 a 24.864677,24.864677 0 0 0 -0.1772497,0.658358 24.864677,24.864677 0 0 0 -0.020664,0.0832 24.864677,24.864677 0 0 0 -0.059428,0.241845 24.864677,24.864677 0 0 0 -0.25373275,1.187524 24.864677,24.864677 0 0 0 -0.14366081,0.839742 l 0.16174773,-0.0181 0.63510313,0.234095 0.4676722,0.601512 0.1333263,0.634587 -0.1669151,0.86868 -0.534334,1.236102 -0.70176757,1.102257 -0.25062921,0.358118 a 24.864677,24.864677 0 0 0 0.11213835,1.4211 24.864677,24.864677 0 0 0 0.23615915,1.658813 24.864677,24.864677 0 0 0 0.12350748,0.647507 24.864677,24.864677 0 0 0 0.134358,0.617532 z" />
    <path
       id="path1577"
       style="display:inline;fill:#ffffff;fill-opacity:1;stroke:#000000;stroke-width:0.27064;stroke-opacity:1;paint-order:markers fill stroke"
       d="m 2.3952459,15.602076 a 24.864677,24.864677 0 0 0 -0.4743901,1.258837 24.864677,24.864677 0 0 0 -0.4278815,1.359606 l 0.7100359,0.05271 0.9689333,0.267168 0.6676575,0.468188 0.6351032,0.668176 0.4340834,0.868164 0.167431,0.76843 0.033073,1.002522 -0.3007572,1.035595 -0.4004918,0.968933 -0.53485,1.002006 -0.6681761,0.835607 -0.4010104,0.600997 -0.4340808,0.53485 -0.2005065,0.367419 h 0.6015144 l 0.6681761,-0.06666 1.2361016,-0.06718 h 0.8014996 l 0.1002533,0.467672 -0.033073,0.668176 -0.033589,1.63711 -0.033592,0.634587 -0.6009957,-0.03307 -0.7684294,-0.300757 H 3.0381014 l -1.1358485,-0.100253 -0.7136527,0.0925 a 24.864677,24.864677 0 0 0 0.1891374,0.765847 24.864677,24.864677 0 0 0 0.00516,0.01913 24.864677,24.864677 0 0 0 0.032554,0.121441 24.864677,24.864677 0 0 0 0.8878015,2.669604 9.8315486,9.8315486 0 0 0 0.1178242,-0.04134 9.8315486,9.8315486 0 0 0 0.1276403,-0.04599 9.8315486,9.8315486 0 0 0 0.1266059,-0.04857 9.8315486,9.8315486 0 0 0 0.1260924,-0.05013 9.8315486,9.8315486 0 0 0 0.1250553,-0.05168 9.8315486,9.8315486 0 0 0 0.125058,-0.05323 9.8315486,9.8315486 0 0 0 0.1235075,-0.05529 9.8315486,9.8315486 0 0 0 0.1235049,-0.05685 9.8315486,9.8315486 0 0 0 0.121957,-0.05839 9.8315486,9.8315486 0 0 0 0.1214385,-0.06046 9.8315486,9.8315486 0 0 0 0.1209251,-0.06201 9.8315486,9.8315486 0 0 0 0.119888,-0.06356 9.8315486,9.8315486 0 0 0 0.1188562,-0.06511 9.8315486,9.8315486 0 0 0 0.1178216,-0.06666 9.8315486,9.8315486 0 0 0 0.1173056,-0.06873 9.8315486,9.8315486 0 0 0 0.1157552,-0.06976 9.8315486,9.8315486 0 0 0 0.1152393,-0.07183 9.8315486,9.8315486 0 0 0 0.1142048,-0.07338 9.8315486,9.8315486 0 0 0 0.1131702,-0.07493 9.8315486,9.8315486 0 0 0 0.1121383,-0.07648 9.8315486,9.8315486 0 0 0 0.1111039,-0.07752 9.8315486,9.8315486 0 0 0 0.109556,-0.07958 9.8315486,9.8315486 0 0 0 0.1090348,-0.08113 9.8315486,9.8315486 0 0 0 0.1074896,-0.08216 9.8315486,9.8315486 0 0 0 0.1064525,-0.08423 9.8315486,9.8315486 0 0 0 0.1054205,-0.08527 9.8315486,9.8315486 0 0 0 0.1043861,-0.08682 9.8315486,9.8315486 0 0 0 0.1028356,-0.08837 9.8315486,9.8315486 0 0 0 0.1018011,-0.0894 9.8315486,9.8315486 0 0 0 0.1007692,-0.09147 9.8315486,9.8315486 0 0 0 0.099219,-0.09199 9.8315486,9.8315486 0 0 0 0.097668,-0.09405 9.8315486,9.8315486 0 0 0 0.096637,-0.09508 9.8315486,9.8315486 0 0 0 0.095602,-0.09663 9.8315486,9.8315486 0 0 0 0.093533,-0.09767 9.8315486,9.8315486 0 0 0 0.09302,-0.09922 9.8315486,9.8315486 0 0 0 0.090951,-0.100254 9.8315486,9.8315486 0 0 0 0.089916,-0.101285 9.8315486,9.8315486 0 0 0 0.088366,-0.102838 9.8315486,9.8315486 0 0 0 0.087334,-0.104386 9.8315486,9.8315486 0 0 0 0.085267,-0.104902 9.8315486,9.8315486 0 0 0 0.084233,-0.106455 9.8315486,9.8315486 0 0 0 0.082682,-0.107485 9.8315486,9.8315486 0 0 0 0.081132,-0.109037 9.8315486,9.8315486 0 0 0 0.079581,-0.109556 9.8315486,9.8315486 0 0 0 0.078031,-0.110588 9.8315486,9.8315486 0 0 0 0.076999,-0.112136 9.8315486,9.8315486 0 0 0 0.07493,-0.113173 9.8315486,9.8315486 0 0 0 0.073379,-0.113688 9.8315486,9.8315486 0 0 0 0.071832,-0.115237 9.8315486,9.8315486 0 0 0 0.070279,-0.115755 9.8315486,9.8315486 0 0 0 0.068731,-0.117306 9.8315486,9.8315486 0 0 0 0.067178,-0.117821 9.8315486,9.8315486 0 0 0 0.065114,-0.118857 9.8315486,9.8315486 0 0 0 0.064079,-0.119372 9.8315486,9.8315486 0 0 0 0.06201,-0.120406 9.8315486,9.8315486 0 0 0 0.060463,-0.121441 9.8315486,9.8315486 0 0 0 0.058909,-0.122473 9.8315486,9.8315486 0 0 0 0.056846,-0.122989 9.8315486,9.8315486 0 0 0 0.055808,-0.123508 9.8315486,9.8315486 0 0 0 0.053229,-0.124539 9.8315486,9.8315486 0 0 0 0.052192,-0.125574 9.8315486,9.8315486 0 0 0 0.050125,-0.12609 9.8315486,9.8315486 0 0 0 0.048578,-0.126608 9.8315486,9.8315486 0 0 0 0.046508,-0.127125 9.8315486,9.8315486 0 0 0 0.044958,-0.128156 9.8315486,9.8315486 0 0 0 0.043407,-0.128675 9.8315486,9.8315486 0 0 0 0.041341,-0.128674 9.8315486,9.8315486 0 0 0 0.039791,-0.129707 9.8315486,9.8315486 0 0 0 0.037724,-0.130225 9.8315486,9.8315486 0 0 0 0.036174,-0.130742 9.8315486,9.8315486 0 0 0 0.034107,-0.131259 9.8315486,9.8315486 0 0 0 0.032554,-0.131773 9.8315486,9.8315486 0 0 0 0.030491,-0.132292 9.8315486,9.8315486 0 0 0 0.028937,-0.132292 9.8315486,9.8315486 0 0 0 0.026874,-0.133326 9.8315486,9.8315486 0 0 0 0.024791,-0.133324 9.8315486,9.8315486 0 0 0 0.02376,-0.133326 9.8315486,9.8315486 0 0 0 0.021193,-0.133841 9.8315486,9.8315486 0 0 0 0.019632,-0.134358 9.8315486,9.8315486 0 0 0 0.017568,-0.13436 9.8315486,9.8315486 0 0 0 0.016007,-0.134874 9.8315486,9.8315486 0 0 0 0.013944,-0.134877 9.8315486,9.8315486 0 0 0 0.01188,-0.134874 9.8315486,9.8315486 0 0 0 0.010345,-0.135393 9.8315486,9.8315486 0 0 0 0.00878,-0.135392 9.8315486,9.8315486 0 0 0 0.00619,-0.135393 9.8315486,9.8315486 0 0 0 0.00466,-0.135392 9.8315486,9.8315486 0 0 0 0.0031,-0.135909 9.8315486,9.8315486 0 0 0 0.00106,-0.135392 9.8315486,9.8315486 0 0 0 -0.00106,-0.117822 9.8315486,9.8315486 0 0 0 -0.00265,-0.135908 9.8315486,9.8315486 0 0 0 -0.00413,-0.135393 9.8315486,9.8315486 0 0 0 -0.00619,-0.135393 9.8315486,9.8315486 0 0 0 -0.00825,-0.135392 A 9.8315486,9.8315486 0 0 0 8.9130947,24.07445 9.8315486,9.8315486 0 0 0 8.9012147,23.939576 9.8315486,9.8315486 0 0 0 8.8877737,23.8047 9.8315486,9.8315486 0 0 0 8.8717667,23.669826 9.8315486,9.8315486 0 0 0 8.8547007,23.535465 9.8315486,9.8315486 0 0 0 8.8350687,23.401107 9.8315486,9.8315486 0 0 0 8.8138757,23.267265 9.8315486,9.8315486 0 0 0 8.7911477,23.133423 9.8315486,9.8315486 0 0 0 8.7658267,23.000099 9.8315486,9.8315486 0 0 0 8.7394747,22.867289 9.8315486,9.8315486 0 0 0 8.7110507,22.734481 9.8315486,9.8315486 0 0 0 8.6805627,22.602189 9.8315486,9.8315486 0 0 0 8.6485247,22.470932 9.8315486,9.8315486 0 0 0 8.6144177,22.339157 9.8315486,9.8315486 0 0 0 8.5782437,22.208415 9.8315486,9.8315486 0 0 0 8.5410377,22.07819 9.8315486,9.8315486 0 0 0 8.5012467,21.948483 9.8315486,9.8315486 0 0 0 8.4604217,21.81929 9.8315486,9.8315486 0 0 0 8.4175297,21.690618 9.8315486,9.8315486 0 0 0 8.3725717,21.562459 9.8315486,9.8315486 0 0 0 8.3260637,21.435335 9.8315486,9.8315486 0 0 0 8.2780017,21.30821 9.8315486,9.8315486 0 0 0 8.2278767,21.182639 9.8315486,9.8315486 0 0 0 8.1762007,21.057065 9.8315486,9.8315486 0 0 0 8.1224557,20.932523 9.8315486,9.8315486 0 0 0 8.0676787,20.8085 a 9.8315486,9.8315486 0 0 0 -0.057359,-0.122989 9.8315486,9.8315486 0 0 0 -0.058396,-0.122473 9.8315486,9.8315486 0 0 0 -0.059944,-0.121441 9.8315486,9.8315486 0 0 0 -0.06201,-0.120923 9.8315486,9.8315486 0 0 0 -0.063563,-0.119372 9.8315486,9.8315486 0 0 0 -0.06563,-0.119372 9.8315486,9.8315486 0 0 0 -0.066662,-0.117822 9.8315486,9.8315486 0 0 0 -0.068212,-0.116789 9.8315486,9.8315486 0 0 0 -0.070281,-0.116271 9.8315486,9.8315486 0 0 0 -0.071829,-0.11524 9.8315486,9.8315486 0 0 0 -0.07338,-0.114204 9.8315486,9.8315486 0 0 0 -0.074414,-0.113173 9.8315486,9.8315486 0 0 0 -0.076483,-0.11162 9.8315486,9.8315486 0 0 0 -0.078031,-0.111104 9.8315486,9.8315486 0 0 0 -0.079581,-0.110072 9.8315486,9.8315486 0 0 0 -0.080616,-0.109037 9.8315486,9.8315486 0 0 0 -0.082682,-0.107487 9.8315486,9.8315486 0 0 0 -0.083714,-0.106453 9.8315486,9.8315486 0 0 0 -0.085783,-0.10542 9.8315486,9.8315486 0 0 0 -0.086818,-0.104386 9.8315486,9.8315486 0 0 0 -0.08785,-0.102836 9.8315486,9.8315486 0 0 0 -0.089916,-0.101804 9.8315486,9.8315486 0 0 0 -0.090951,-0.10025 9.8315486,9.8315486 0 0 0 -0.092501,-0.09922 9.8315486,9.8315486 0 0 0 -0.094051,-0.09819 9.8315486,9.8315486 0 0 0 -0.095086,-0.09663 9.8315486,9.8315486 0 0 0 -0.096118,-0.09509 9.8315486,9.8315486 0 0 0 -0.098184,-0.09405 9.8315486,9.8315486 0 0 0 -0.098703,-0.0925 9.8315486,9.8315486 0 0 0 -0.1002506,-0.09147 9.8315486,9.8315486 0 0 0 -0.1018038,-0.08992 9.8315486,9.8315486 0 0 0 -0.1028356,-0.08837 9.8315486,9.8315486 0 0 0 -0.1038701,-0.08682 9.8315486,9.8315486 0 0 0 -0.1054206,-0.08578 9.8315486,9.8315486 0 0 0 -0.1064524,-0.08423 9.8315486,9.8315486 0 0 0 -0.107487,-0.08268 9.8315486,9.8315486 0 0 0 -0.1085215,-0.08113 9.8315486,9.8315486 0 0 0 -0.1095534,-0.07958 9.8315486,9.8315486 0 0 0 -0.1111038,-0.07803 9.8315486,9.8315486 0 0 0 -0.1121384,-0.07648 9.8315486,9.8315486 0 0 0 -0.1126543,-0.07493 9.8315486,9.8315486 0 0 0 -0.1142047,-0.0739 9.8315486,9.8315486 0 0 0 -0.1147207,-0.07183 9.8315486,9.8315486 0 0 0 -0.1162738,-0.07028 9.8315486,9.8315486 0 0 0 -0.1167871,-0.06873 9.8315486,9.8315486 0 0 0 -0.1178242,-0.06666 9.8315486,9.8315486 0 0 0 -0.1188562,-0.06563 9.8315486,9.8315486 0 0 0 -0.119888,-0.06408 9.8315486,9.8315486 0 0 0 -0.1204065,-0.06201 9.8315486,9.8315486 0 0 0 -0.1214385,-0.06046 9.8315486,9.8315486 0 0 0 -0.121957,-0.05891 9.8315486,9.8315486 0 0 0 -0.122989,-0.05685 9.8315486,9.8315486 0 0 0 -0.1240234,-0.05529 9.8315486,9.8315486 0 0 0 -0.124542,-0.05375 9.8315486,9.8315486 0 0 0 -0.1250553,-0.05219 9.8315486,9.8315486 0 0 0 -0.1260925,-0.05013 9.8315486,9.8315486 0 0 0 -0.1266058,-0.04857 9.8315486,9.8315486 0 0 0 -0.1276403,-0.04651 9.8315486,9.8315486 0 0 0 -0.042376,-0.01497 z" />
    <path
       id="path1141"
       style="display:inline;fill:#ffffff;fill-opacity:1;stroke:#000000;stroke-width:0.27064;stroke-opacity:1;paint-order:markers fill stroke"
       d="M 42.680124,42.893432 H 8.1504494 A 24.864681,24.864681 0 0 0 25.41503,49.865097 24.864681,24.864681 0 0 0 42.680124,42.893432 Z" />
    <path
       id="path987"
       style="display:inline;fill:#383155;fill-opacity:1;stroke:#000000;stroke-width:0.27064;stroke-opacity:1;paint-order:markers fill stroke"
       d="M 42.678058,7.1054372 H 8.1519998 a 24.864681,24.864681 0 0 0 -5.7567539,8.4966388 9.8315486,9.8315486 0 0 1 0.042376,0.01497 9.8315486,9.8315486 0 0 1 0.1276403,0.04651 9.8315486,9.8315486 0 0 1 0.1266059,0.04857 9.8315486,9.8315486 0 0 1 0.1260924,0.05013 9.8315486,9.8315486 0 0 1 0.1250553,0.05219 9.8315486,9.8315486 0 0 1 0.1245421,0.05375 9.8315486,9.8315486 0 0 1 0.1240234,0.05529 9.8315486,9.8315486 0 0 1 0.1229889,0.05685 9.8315486,9.8315486 0 0 1 0.1219571,0.05891 9.8315486,9.8315486 0 0 1 0.1214384,0.06046 9.8315486,9.8315486 0 0 1 0.1204066,0.06201 9.8315486,9.8315486 0 0 1 0.119888,0.06408 9.8315486,9.8315486 0 0 1 0.1188561,0.06563 9.8315486,9.8315486 0 0 1 0.1178243,0.06666 9.8315486,9.8315486 0 0 1 0.1167871,0.06873 9.8315486,9.8315486 0 0 1 0.1162738,0.07028 9.8315486,9.8315486 0 0 1 0.1147206,0.07183 9.8315486,9.8315486 0 0 1 0.1142048,0.0739 9.8315486,9.8315486 0 0 1 0.1126543,0.07493 9.8315486,9.8315486 0 0 1 0.1121383,0.07648 9.8315486,9.8315486 0 0 1 0.1111039,0.07803 9.8315486,9.8315486 0 0 1 0.1095533,0.07958 9.8315486,9.8315486 0 0 1 0.1085215,0.08113 9.8315486,9.8315486 0 0 1 0.107487,0.08268 9.8315486,9.8315486 0 0 1 0.1064525,0.08423 9.8315486,9.8315486 0 0 1 0.1054206,0.08578 9.8315486,9.8315486 0 0 1 0.1038701,0.08682 9.8315486,9.8315486 0 0 1 0.1028356,0.08837 9.8315486,9.8315486 0 0 1 0.1018037,0.08992 9.8315486,9.8315486 0 0 1 0.1002506,0.09147 9.8315486,9.8315486 0 0 1 0.098703,0.0925 9.8315486,9.8315486 0 0 1 0.098184,0.09405 9.8315486,9.8315486 0 0 1 0.096118,0.09509 9.8315486,9.8315486 0 0 1 0.095086,0.09663 9.8315486,9.8315486 0 0 1 0.094051,0.09819 9.8315486,9.8315486 0 0 1 0.092501,0.09922 9.8315486,9.8315486 0 0 1 0.09095,0.100251 9.8315486,9.8315486 0 0 1 0.089916,0.101804 9.8315486,9.8315486 0 0 1 0.08785,0.102835 9.8315486,9.8315486 0 0 1 0.086818,0.104386 9.8315486,9.8315486 0 0 1 0.085783,0.105421 9.8315486,9.8315486 0 0 1 0.083714,0.106452 9.8315486,9.8315486 0 0 1 0.082682,0.107487 9.8315486,9.8315486 0 0 1 0.080616,0.109038 9.8315486,9.8315486 0 0 1 0.079581,0.110072 9.8315486,9.8315486 0 0 1 0.078031,0.111104 9.8315486,9.8315486 0 0 1 0.076483,0.111619 9.8315486,9.8315486 0 0 1 0.074414,0.113173 9.8315486,9.8315486 0 0 1 0.073379,0.114205 9.8315486,9.8315486 0 0 1 0.071829,0.115239 9.8315486,9.8315486 0 0 1 0.070281,0.116272 9.8315486,9.8315486 0 0 1 0.068212,0.116789 9.8315486,9.8315486 0 0 1 0.066662,0.117822 9.8315486,9.8315486 0 0 1 0.06563,0.119372 9.8315486,9.8315486 0 0 1 0.063563,0.119372 9.8315486,9.8315486 0 0 1 0.06201,0.120922 9.8315486,9.8315486 0 0 1 0.059944,0.121442 9.8315486,9.8315486 0 0 1 0.058396,0.122473 9.8315486,9.8315486 0 0 1 0.057359,0.122988 9.8315486,9.8315486 0 0 1 0.054777,0.124024 9.8315486,9.8315486 0 0 1 0.053745,0.124542 9.8315486,9.8315486 0 0 1 0.051676,0.125574 9.8315486,9.8315486 0 0 1 0.050125,0.125571 9.8315486,9.8315486 0 0 1 0.048062,0.127124 9.8315486,9.8315486 0 0 1 0.046508,0.127125 9.8315486,9.8315486 0 0 1 0.044958,0.128159 9.8315486,9.8315486 0 0 1 0.042892,0.128672 9.8315486,9.8315486 0 0 1 0.040825,0.129193 9.8315486,9.8315486 0 0 1 0.039791,0.129707 9.8315486,9.8315486 0 0 1 0.037206,0.130225 9.8315486,9.8315486 0 0 1 0.036174,0.130741 9.8315486,9.8315486 0 0 1 0.034107,0.131776 9.8315486,9.8315486 0 0 1 0.032038,0.131257 9.8315486,9.8315486 0 0 1 0.030488,0.132292 9.8315486,9.8315486 0 0 1 0.028424,0.132808 9.8315486,9.8315486 0 0 1 0.026353,0.13281 9.8315486,9.8315486 0 0 1 0.025321,0.133323 9.8315486,9.8315486 0 0 1 0.022728,0.133842 9.8315486,9.8315486 0 0 1 0.021193,0.133843 9.8315486,9.8315486 0 0 1 0.019632,0.134358 9.8315486,9.8315486 0 0 1 0.017066,0.13436 9.8315486,9.8315486 0 0 1 0.016007,0.134874 9.8315486,9.8315486 0 0 1 0.013441,0.134877 9.8315486,9.8315486 0 0 1 0.01188,0.134874 9.8315486,9.8315486 0 0 1 0.010345,0.135393 9.8315486,9.8315486 0 0 1 0.00826,0.135392 9.8315486,9.8315486 0 0 1 0.00619,0.135393 9.8315486,9.8315486 0 0 1 0.00413,0.135392 9.8315486,9.8315486 0 0 1 0.00265,0.135909 9.8315486,9.8315486 0 0 1 0.00106,0.117821 9.8315486,9.8315486 0 0 1 -0.00106,0.135393 9.8315486,9.8315486 0 0 1 -0.0031,0.135909 9.8315486,9.8315486 0 0 1 -0.00466,0.135392 9.8315486,9.8315486 0 0 1 -0.00619,0.135393 9.8315486,9.8315486 0 0 1 -0.00878,0.135392 9.8315486,9.8315486 0 0 1 -0.010345,0.135393 9.8315486,9.8315486 0 0 1 -0.01188,0.134874 9.8315486,9.8315486 0 0 1 -0.013943,0.134877 9.8315486,9.8315486 0 0 1 -0.016007,0.134874 9.8315486,9.8315486 0 0 1 -0.017568,0.13436 9.8315486,9.8315486 0 0 1 -0.019632,0.134358 9.8315486,9.8315486 0 0 1 -0.021193,0.133841 9.8315486,9.8315486 0 0 1 -0.02376,0.133326 9.8315486,9.8315486 0 0 1 -0.024791,0.133324 9.8315486,9.8315486 0 0 1 -0.026874,0.133326 9.8315486,9.8315486 0 0 1 -0.028938,0.132292 9.8315486,9.8315486 0 0 1 -0.030491,0.132291 9.8315486,9.8315486 0 0 1 -0.032554,0.131773 9.8315486,9.8315486 0 0 1 -0.034107,0.13126 9.8315486,9.8315486 0 0 1 -0.036174,0.130741 9.8315486,9.8315486 0 0 1 -0.037724,0.130226 9.8315486,9.8315486 0 0 1 -0.039791,0.129706 9.8315486,9.8315486 0 0 1 -0.041341,0.128675 9.8315486,9.8315486 0 0 1 -0.043408,0.128675 9.8315486,9.8315486 0 0 1 -0.044958,0.128156 9.8315486,9.8315486 0 0 1 -0.046508,0.127125 9.8315486,9.8315486 0 0 1 -0.048578,0.126608 9.8315486,9.8315486 0 0 1 -0.050125,0.12609 9.8315486,9.8315486 0 0 1 -0.052192,0.125574 9.8315486,9.8315486 0 0 1 -0.053229,0.124539 9.8315486,9.8315486 0 0 1 -0.055809,0.123508 9.8315486,9.8315486 0 0 1 -0.056846,0.122989 9.8315486,9.8315486 0 0 1 -0.05891,0.122473 9.8315486,9.8315486 0 0 1 -0.060462,0.121441 9.8315486,9.8315486 0 0 1 -0.06201,0.120406 9.8315486,9.8315486 0 0 1 -0.06408,0.119372 9.8315486,9.8315486 0 0 1 -0.065114,0.118856 9.8315486,9.8315486 0 0 1 -0.067178,0.117822 9.8315486,9.8315486 0 0 1 -0.068731,0.117306 9.8315486,9.8315486 0 0 1 -0.070279,0.115755 9.8315486,9.8315486 0 0 1 -0.071832,0.115237 9.8315486,9.8315486 0 0 1 -0.07338,0.113688 9.8315486,9.8315486 0 0 1 -0.07493,0.113173 9.8315486,9.8315486 0 0 1 -0.076999,0.112136 9.8315486,9.8315486 0 0 1 -0.078031,0.110588 9.8315486,9.8315486 0 0 1 -0.079581,0.109556 9.8315486,9.8315486 0 0 1 -0.081132,0.109037 9.8315486,9.8315486 0 0 1 -0.082682,0.107485 9.8315486,9.8315486 0 0 1 -0.084233,0.106455 9.8315486,9.8315486 0 0 1 -0.085267,0.104902 9.8315486,9.8315486 0 0 1 -0.087334,0.104386 9.8315486,9.8315486 0 0 1 -0.088366,0.102838 9.8315486,9.8315486 0 0 1 -0.089916,0.101285 9.8315486,9.8315486 0 0 1 -0.090951,0.100253 9.8315486,9.8315486 0 0 1 -0.09302,0.09922 9.8315486,9.8315486 0 0 1 -0.093533,0.09767 9.8315486,9.8315486 0 0 1 -0.095602,0.09663 9.8315486,9.8315486 0 0 1 -0.096636,0.09508 9.8315486,9.8315486 0 0 1 -0.097668,0.09405 9.8315486,9.8315486 0 0 1 -0.099219,0.09199 9.8315486,9.8315486 0 0 1 -0.1007692,0.09147 9.8315486,9.8315486 0 0 1 -0.1018011,0.0894 9.8315486,9.8315486 0 0 1 -0.1028356,0.08837 9.8315486,9.8315486 0 0 1 -0.1043861,0.08682 9.8315486,9.8315486 0 0 1 -0.1054206,0.08527 9.8315486,9.8315486 0 0 1 -0.1064524,0.08423 9.8315486,9.8315486 0 0 1 -0.1074897,0.08216 9.8315486,9.8315486 0 0 1 -0.1090348,0.08113 9.8315486,9.8315486 0 0 1 -0.109556,0.07958 9.8315486,9.8315486 0 0 1 -0.1111038,0.07751 9.8315486,9.8315486 0 0 1 -0.1121384,0.07648 9.8315486,9.8315486 0 0 1 -0.1131702,0.07493 9.8315486,9.8315486 0 0 1 -0.1142047,0.07338 9.8315486,9.8315486 0 0 1 -0.1152393,0.07183 9.8315486,9.8315486 0 0 1 -0.1157552,0.06976 9.8315486,9.8315486 0 0 1 -0.1173057,0.06873 9.8315486,9.8315486 0 0 1 -0.1178216,0.06666 9.8315486,9.8315486 0 0 1 -0.1188561,0.06511 9.8315486,9.8315486 0 0 1 -0.119888,0.06356 9.8315486,9.8315486 0 0 1 -0.1209252,0.06201 9.8315486,9.8315486 0 0 1 -0.1214384,0.06046 9.8315486,9.8315486 0 0 1 -0.1219571,0.05839 9.8315486,9.8315486 0 0 1 -0.1235048,0.05685 9.8315486,9.8315486 0 0 1 -0.1235075,0.05529 9.8315486,9.8315486 0 0 1 -0.125058,0.05323 9.8315486,9.8315486 0 0 1 -0.1250553,0.05168 9.8315486,9.8315486 0 0 1 -0.1260925,0.05013 9.8315486,9.8315486 0 0 1 -0.1266058,0.04857 9.8315486,9.8315486 0 0 1 -0.1276403,0.04599 9.8315486,9.8315486 0 0 1 -0.1178243,0.04134 24.864681,24.864681 0 0 0 5.8471886,8.724016 H 42.680206 A 24.864681,24.864681 0 0 0 50.279743,24.999941 24.864681,24.864681 0 0 0 42.67814,7.1054266 Z" />
    <path
       id="path985"
       style="display:inline;fill:#ffffff;fill-opacity:1;stroke:#000000;stroke-width:0.27064;stroke-opacity:1;paint-order:markers fill stroke"
       d="M 25.396425,0.13531999 A 24.864681,24.864681 0 0 0 8.1519998,7.1054372 H 42.678058 A 24.864681,24.864681 0 0 0 25.41503,0.13531999 a 24.864681,24.864681 0 0 0 -0.0186,0 z" />
    <circle
       style="display:inline;opacity:0.88141;mix-blend-mode:normal;fill:url(#radialGradient1561-9-6);fill-opacity:1;stroke:none;stroke-width:0.212909;stroke-opacity:1;paint-order:markers fill stroke"
       id="path1129-9-74"
       cx="25"
       cy="25.000324"
       r="25" />
    <circle
       style="display:inline;opacity:0.88141;mix-blend-mode:normal;fill:url(#radialGradient1561-8);fill-opacity:1;stroke:none;stroke-width:0.212909;stroke-opacity:1;paint-order:markers fill stroke"
       id="path1129-2"
       cx="25.415184"
       cy="25.000324"
       r="25" />
  </g>
</svg>
