<?xml version="1.0" encoding="UTF-8" standalone="no"?>
<svg
   xmlns:dc="http://purl.org/dc/elements/1.1/"
   xmlns:cc="http://creativecommons.org/ns#"
   xmlns:rdf="http://www.w3.org/1999/02/22-rdf-syntax-ns#"
   xmlns:svg="http://www.w3.org/2000/svg"
   xmlns="http://www.w3.org/2000/svg"
   xmlns:xlink="http://www.w3.org/1999/xlink"
   xmlns:sodipodi="http://sodipodi.sourceforge.net/DTD/sodipodi-0.dtd"
   xmlns:inkscape="http://www.inkscape.org/namespaces/inkscape"
   width="50mm"
   height="50mm"
   viewBox="0 0 50 50"
   version="1.1"
   id="svg8"
   inkscape:version="1.0.1 (3bc2e813f5, 2020-09-07)"
   sodipodi:docname="11-6.svg">
  <defs
     id="defs2">
    <radialGradient
       inkscape:collect="always"
       xlink:href="#linearGradient1135"
       id="radialGradient1561-9-5-3"
       cx="41.903854"
       cy="30.091272"
       fx="41.903854"
       fy="30.091272"
       r="32.127975"
       gradientTransform="matrix(0.77813807,0,0,0.7781381,-46.238373,9.9267266)"
       gradientUnits="userSpaceOnUse" />
    <linearGradient
       inkscape:collect="always"
       id="linearGradient1135">
      <stop
         style="stop-color:#ffffff;stop-opacity:1;"
         offset="0"
         id="stop1131" />
      <stop
         style="stop-color:#ffffff;stop-opacity:0;"
         offset="1"
         id="stop1133" />
    </linearGradient>
    <radialGradient
       inkscape:collect="always"
       xlink:href="#linearGradient1135"
       id="radialGradient1561-9-6"
       cx="54.447247"
       cy="49.531189"
       fx="54.447247"
       fy="49.531189"
       r="32.127975"
       gradientTransform="matrix(0.77813809,0,0,0.77813812,-3.382364,4.4120854)"
       gradientUnits="userSpaceOnUse" />
    <radialGradient
       inkscape:collect="always"
       xlink:href="#linearGradient1135"
       id="radialGradient1561-8"
       cx="26.274075"
       cy="14.800471"
       fx="26.274075"
       fy="14.800471"
       r="32.127975"
       gradientTransform="matrix(0.77813809,0,0,0.77813812,-2.9671809,4.4120854)"
       gradientUnits="userSpaceOnUse" />
  </defs>
  <sodipodi:namedview
     id="base"
     pagecolor="#ffffff"
     bordercolor="#666666"
     borderopacity="1.0"
     inkscape:pageopacity="0.0"
     inkscape:pageshadow="2"
     inkscape:zoom="0.98994949"
     inkscape:cx="2.9247058"
     inkscape:cy="154.89275"
     inkscape:document-units="mm"
     inkscape:current-layer="layer1"
     inkscape:document-rotation="0"
     showgrid="false"
     inkscape:window-width="1920"
     inkscape:window-height="1017"
     inkscape:window-x="-8"
     inkscape:window-y="-8"
     inkscape:window-maximized="1" />
  <metadata
     id="metadata5">
    <rdf:RDF>
      <cc:Work
         rdf:about="">
        <dc:format>image/svg+xml</dc:format>
        <dc:type
           rdf:resource="http://purl.org/dc/dcmitype/StillImage" />
        <dc:title />
      </cc:Work>
    </rdf:RDF>
  </metadata>
  <g
     inkscape:label="Layer 1"
     inkscape:groupmode="layer"
     id="layer1">
    <path
       id="path833-58"
       style="display:inline;fill:#000000;fill-opacity:1;stroke:#000000;stroke-width:0.27064;stroke-opacity:1;paint-order:markers fill stroke"
       d="m 0.62688036,23.06105 0.013944,0.05685 0.166915,0.06666 0.30075724,-0.03359 0.3007572,-0.233577 H 1.876926 l 0.066662,0.166915 -0.1333261,7.851197 0.166915,0.267168 2.2050349,-0.06666 0.3674189,-0.167434 0.1669151,-0.33383 L 4.6834728,19.07525 H 4.3827149 L 3.6142855,18.841155 2.7456055,18.67424 2.5786904,19.008586 2.010765,19.643173 1.5425768,20.044181 0.98188766,20.391447 a 24.864678,24.864678 0 0 0 -0.2837021,1.909961 24.864678,24.864678 0 0 0 -0.034623,0.33383 24.864678,24.864678 0 0 0 -0.03669,0.425812 z" />
    <path
       id="path1468"
       style="display:inline;fill:#ffffff;fill-opacity:1;stroke:#000000;stroke-width:0.27064;stroke-opacity:1;paint-order:markers fill stroke"
       d="m 2.3952469,15.602076 a 24.864677,24.864677 0 0 0 -0.47439,1.258837 24.864678,24.864678 0 0 0 -0.6051312,2.017964 24.864678,24.864678 0 0 0 -0.020664,0.0832 24.864678,24.864678 0 0 0 -0.059428,0.241845 24.864678,24.864678 0 0 0 -0.25373284,1.187524 L 1.54259,20.044181 2.0107782,19.643173 2.5787037,19.008586 2.7456188,18.67424 l 0.86868,0.166915 0.7684293,0.234093 h 0.3007572 l 0.033073,11.559499 -0.166915,0.33383 -0.367419,0.167434 -2.2050349,0.06666 -0.166915,-0.267168 0.1333262,-7.851197 -0.066662,-0.166915 H 1.4092665 l -0.3007572,0.233577 -0.30075714,0.03359 -0.1669151,-0.06666 -0.013943,-0.05685 a 24.864678,24.864678 0 0 0 -0.076483,1.938901 24.864678,24.864678 0 0 0 5.292e-4,0.103352 24.864679,24.864679 0 0 0 0.019632,0.88987 24.864678,24.864678 0 0 0 0.1240235,1.67638 24.864678,24.864678 0 0 0 0.2361591,1.658814 24.864677,24.864677 0 0 0 0.12350754,0.647506 24.864678,24.864678 0 0 0 0.3234955,1.38338 24.864678,24.864678 0 0 0 0.00516,0.01913 24.864678,24.864678 0 0 0 0.032554,0.121441 24.864677,24.864677 0 0 0 0.8878014,2.669604 9.8315486,9.8315486 0 0 0 0.1178243,-0.04134 9.8315486,9.8315486 0 0 0 0.1276403,-0.04599 9.8315486,9.8315486 0 0 0 0.1266058,-0.04857 9.8315486,9.8315486 0 0 0 0.1260925,-0.05013 9.8315486,9.8315486 0 0 0 0.1250553,-0.05168 9.8315486,9.8315486 0 0 0 0.1250579,-0.05323 9.8315486,9.8315486 0 0 0 0.1235075,-0.05529 9.8315486,9.8315486 0 0 0 0.1235049,-0.05685 9.8315486,9.8315486 0 0 0 0.121957,-0.05839 9.8315486,9.8315486 0 0 0 0.1214385,-0.06046 9.8315486,9.8315486 0 0 0 0.1209251,-0.06201 9.8315486,9.8315486 0 0 0 0.119888,-0.06356 9.8315486,9.8315486 0 0 0 0.1188562,-0.06511 9.8315486,9.8315486 0 0 0 0.1178216,-0.06666 9.8315486,9.8315486 0 0 0 0.1173056,-0.06873 9.8315486,9.8315486 0 0 0 0.1157553,-0.06976 9.8315486,9.8315486 0 0 0 0.1152392,-0.07183 9.8315486,9.8315486 0 0 0 0.1142048,-0.07338 9.8315486,9.8315486 0 0 0 0.1131702,-0.07493 9.8315486,9.8315486 0 0 0 0.1121384,-0.07648 9.8315486,9.8315486 0 0 0 0.1111038,-0.07752 9.8315486,9.8315486 0 0 0 0.109556,-0.07958 9.8315486,9.8315486 0 0 0 0.1090348,-0.08113 9.8315486,9.8315486 0 0 0 0.1074896,-0.08216 9.8315486,9.8315486 0 0 0 0.1064525,-0.08423 9.8315486,9.8315486 0 0 0 0.1054206,-0.08527 9.8315486,9.8315486 0 0 0 0.104386,-0.08682 9.8315486,9.8315486 0 0 0 0.1028356,-0.08837 9.8315486,9.8315486 0 0 0 0.1018011,-0.0894 9.8315486,9.8315486 0 0 0 0.1007692,-0.09147 9.8315486,9.8315486 0 0 0 0.099219,-0.09199 9.8315486,9.8315486 0 0 0 0.097668,-0.09405 9.8315486,9.8315486 0 0 0 0.096636,-0.09508 9.8315486,9.8315486 0 0 0 0.095602,-0.09663 9.8315486,9.8315486 0 0 0 0.093533,-0.09767 9.8315486,9.8315486 0 0 0 0.09302,-0.09922 9.8315486,9.8315486 0 0 0 0.09095,-0.100254 9.8315486,9.8315486 0 0 0 0.089916,-0.101285 9.8315486,9.8315486 0 0 0 0.088366,-0.102838 9.8315486,9.8315486 0 0 0 0.08733,-0.104386 9.8315486,9.8315486 0 0 0 0.08527,-0.104902 9.8315486,9.8315486 0 0 0 0.08423,-0.106455 9.8315486,9.8315486 0 0 0 0.08268,-0.107485 9.8315486,9.8315486 0 0 0 0.08113,-0.109037 9.8315486,9.8315486 0 0 0 0.07958,-0.109556 9.8315486,9.8315486 0 0 0 0.07803,-0.110588 9.8315486,9.8315486 0 0 0 0.077,-0.112136 9.8315486,9.8315486 0 0 0 0.07493,-0.113173 9.8315486,9.8315486 0 0 0 0.07338,-0.113688 9.8315486,9.8315486 0 0 0 0.07183,-0.115237 9.8315486,9.8315486 0 0 0 0.07028,-0.115755 9.8315486,9.8315486 0 0 0 0.06873,-0.117306 9.8315486,9.8315486 0 0 0 0.06718,-0.117821 9.8315486,9.8315486 0 0 0 0.06511,-0.118857 9.8315486,9.8315486 0 0 0 0.06408,-0.119372 9.8315486,9.8315486 0 0 0 0.06201,-0.120406 9.8315486,9.8315486 0 0 0 0.06046,-0.121441 9.8315486,9.8315486 0 0 0 0.05891,-0.122473 9.8315486,9.8315486 0 0 0 0.05685,-0.122989 9.8315486,9.8315486 0 0 0 0.05581,-0.123508 9.8315486,9.8315486 0 0 0 0.05323,-0.124539 9.8315486,9.8315486 0 0 0 0.05219,-0.125574 9.8315486,9.8315486 0 0 0 0.05013,-0.12609 9.8315486,9.8315486 0 0 0 0.04858,-0.126608 9.8315486,9.8315486 0 0 0 0.04651,-0.127125 9.8315486,9.8315486 0 0 0 0.04496,-0.128156 9.8315486,9.8315486 0 0 0 0.04341,-0.128675 9.8315486,9.8315486 0 0 0 0.04134,-0.128674 9.8315486,9.8315486 0 0 0 0.03979,-0.129707 9.8315486,9.8315486 0 0 0 0.03772,-0.130225 9.8315486,9.8315486 0 0 0 0.03617,-0.130742 9.8315486,9.8315486 0 0 0 0.03411,-0.131259 9.8315486,9.8315486 0 0 0 0.03255,-0.131773 9.8315486,9.8315486 0 0 0 0.03049,-0.132292 9.8315486,9.8315486 0 0 0 0.02894,-0.132292 9.8315486,9.8315486 0 0 0 0.02687,-0.133326 9.8315486,9.8315486 0 0 0 0.02479,-0.133324 9.8315486,9.8315486 0 0 0 0.02376,-0.133326 9.8315486,9.8315486 0 0 0 0.02119,-0.133841 9.8315486,9.8315486 0 0 0 0.01963,-0.134358 9.8315486,9.8315486 0 0 0 0.01757,-0.13436 9.8315486,9.8315486 0 0 0 0.01601,-0.134874 9.8315486,9.8315486 0 0 0 0.01394,-0.134877 9.8315486,9.8315486 0 0 0 0.01188,-0.134874 9.8315486,9.8315486 0 0 0 0.01034,-0.135393 9.8315486,9.8315486 0 0 0 0.0088,-0.135392 9.8315486,9.8315486 0 0 0 0.0062,-0.135393 9.8315486,9.8315486 0 0 0 0.0047,-0.135392 9.8315486,9.8315486 0 0 0 0.0031,-0.135909 9.8315486,9.8315486 0 0 0 0.0011,-0.135392 9.8315486,9.8315486 0 0 0 -0.0011,-0.117822 9.8315486,9.8315486 0 0 0 -0.0027,-0.135908 9.8315486,9.8315486 0 0 0 -0.0041,-0.135393 9.8315486,9.8315486 0 0 0 -0.0062,-0.135393 9.8315486,9.8315486 0 0 0 -0.0083,-0.135392 9.8315486,9.8315486 0 0 0 -0.01034,-0.135393 9.8315486,9.8315486 0 0 0 -0.01188,-0.134874 9.8315486,9.8315486 0 0 0 -0.01343,-0.134885 9.8315486,9.8315486 0 0 0 -0.01601,-0.134874 9.8315486,9.8315486 0 0 0 -0.01707,-0.134361 9.8315486,9.8315486 0 0 0 -0.01963,-0.134358 9.8315486,9.8315486 0 0 0 -0.02119,-0.133842 9.8315486,9.8315486 0 0 0 -0.02273,-0.133842 9.8315486,9.8315486 0 0 0 -0.02532,-0.133324 9.8315486,9.8315486 0 0 0 -0.02635,-0.13281 9.8315486,9.8315486 0 0 0 -0.02843,-0.132808 9.8315486,9.8315486 0 0 0 -0.03049,-0.132292 9.8315486,9.8315486 0 0 0 -0.03204,-0.131257 9.8315486,9.8315486 0 0 0 -0.03411,-0.131775 9.8315486,9.8315486 0 0 0 -0.03617,-0.130742 9.8315486,9.8315486 0 0 0 -0.03721,-0.130225 9.8315486,9.8315486 0 0 0 -0.03979,-0.129707 9.8315486,9.8315486 0 0 0 -0.04082,-0.129193 9.8315486,9.8315486 0 0 0 -0.04289,-0.128672 9.8315486,9.8315486 0 0 0 -0.04496,-0.128159 9.8315486,9.8315486 0 0 0 -0.04651,-0.127124 9.8315486,9.8315486 0 0 0 -0.04806,-0.127125 9.8315486,9.8315486 0 0 0 -0.05012,-0.125571 9.8315486,9.8315486 0 0 0 -0.05168,-0.125574 9.8315486,9.8315486 0 0 0 -0.05374,-0.124542 9.8315486,9.8315486 0 0 0 -0.05478,-0.124023 9.8315486,9.8315486 0 0 0 -0.05736,-0.122989 9.8315486,9.8315486 0 0 0 -0.0584,-0.122473 9.8315486,9.8315486 0 0 0 -0.05994,-0.121441 9.8315486,9.8315486 0 0 0 -0.06201,-0.120923 9.8315486,9.8315486 0 0 0 -0.06356,-0.119372 9.8315486,9.8315486 0 0 0 -0.06563,-0.119372 9.8315486,9.8315486 0 0 0 -0.06666,-0.117822 9.8315486,9.8315486 0 0 0 -0.06821,-0.116789 9.8315486,9.8315486 0 0 0 -0.07028,-0.116271 9.8315486,9.8315486 0 0 0 -0.07183,-0.11524 9.8315486,9.8315486 0 0 0 -0.07338,-0.114204 9.8315486,9.8315486 0 0 0 -0.07441,-0.113173 9.8315486,9.8315486 0 0 0 -0.07648,-0.11162 9.8315486,9.8315486 0 0 0 -0.07803,-0.111104 9.8315486,9.8315486 0 0 0 -0.07958,-0.110072 9.8315486,9.8315486 0 0 0 -0.08062,-0.109037 9.8315486,9.8315486 0 0 0 -0.08268,-0.107487 9.8315486,9.8315486 0 0 0 -0.08371,-0.106453 9.8315486,9.8315486 0 0 0 -0.08578,-0.10542 9.8315486,9.8315486 0 0 0 -0.08682,-0.104386 9.8315486,9.8315486 0 0 0 -0.087851,-0.102836 9.8315486,9.8315486 0 0 0 -0.089916,-0.101804 9.8315486,9.8315486 0 0 0 -0.09095,-0.10025 9.8315486,9.8315486 0 0 0 -0.092501,-0.09922 9.8315486,9.8315486 0 0 0 -0.094051,-0.09819 9.8315486,9.8315486 0 0 0 -0.095086,-0.09663 9.8315486,9.8315486 0 0 0 -0.096118,-0.09509 9.8315486,9.8315486 0 0 0 -0.098184,-0.09405 9.8315486,9.8315486 0 0 0 -0.098703,-0.0925 9.8315486,9.8315486 0 0 0 -0.1002506,-0.09147 9.8315486,9.8315486 0 0 0 -0.1018037,-0.08992 9.8315486,9.8315486 0 0 0 -0.1028356,-0.08837 9.8315486,9.8315486 0 0 0 -0.1038702,-0.08682 9.8315486,9.8315486 0 0 0 -0.1054206,-0.08578 9.8315486,9.8315486 0 0 0 -0.1064524,-0.08423 9.8315486,9.8315486 0 0 0 -0.107487,-0.08268 9.8315486,9.8315486 0 0 0 -0.1085215,-0.08113 9.8315486,9.8315486 0 0 0 -0.1095534,-0.07958 9.8315486,9.8315486 0 0 0 -0.1111038,-0.07803 9.8315486,9.8315486 0 0 0 -0.1121384,-0.07648 9.8315486,9.8315486 0 0 0 -0.1126542,-0.07493 9.8315486,9.8315486 0 0 0 -0.1142048,-0.0739 9.8315486,9.8315486 0 0 0 -0.1147207,-0.07183 9.8315486,9.8315486 0 0 0 -0.1162738,-0.07028 9.8315486,9.8315486 0 0 0 -0.1167871,-0.06873 9.8315486,9.8315486 0 0 0 -0.1178242,-0.06666 9.8315486,9.8315486 0 0 0 -0.1188561,-0.06563 9.8315486,9.8315486 0 0 0 -0.119888,-0.06408 9.8315486,9.8315486 0 0 0 -0.1204066,-0.06201 9.8315486,9.8315486 0 0 0 -0.1214385,-0.06046 9.8315486,9.8315486 0 0 0 -0.121957,-0.05891 9.8315486,9.8315486 0 0 0 -0.1229889,-0.05685 9.8315486,9.8315486 0 0 0 -0.1240235,-0.05529 9.8315486,9.8315486 0 0 0 -0.124542,-0.05375 9.8315486,9.8315486 0 0 0 -0.1250553,-0.05219 9.8315486,9.8315486 0 0 0 -0.1260925,-0.05013 9.8315486,9.8315486 0 0 0 -0.1266058,-0.04857 9.8315486,9.8315486 0 0 0 -0.1276403,-0.04651 9.8315486,9.8315486 0 0 0 -0.042376,-0.01497 z" />
    <path
       id="path1141"
       style="display:inline;fill:#ffffff;fill-opacity:1;stroke:#000000;stroke-width:0.27064;stroke-opacity:1;paint-order:markers fill stroke"
       d="M 42.680126,42.893432 H 8.1504507 a 24.864681,24.864681 0 0 0 17.2645813,6.971665 24.864681,24.864681 0 0 0 17.265094,-6.971665 z" />
    <path
       id="path987"
       style="display:inline;fill:#cf330c;fill-opacity:1;stroke:#000000;stroke-width:0.27064;stroke-opacity:1;paint-order:markers fill stroke"
       d="M 42.67806,7.1054372 H 8.1520007 a 24.864681,24.864681 0 0 0 -5.7567538,8.4966388 9.8315486,9.8315486 0 0 1 0.042376,0.01497 9.8315486,9.8315486 0 0 1 0.1276403,0.04651 9.8315486,9.8315486 0 0 1 0.1266059,0.04857 9.8315486,9.8315486 0 0 1 0.1260924,0.05013 9.8315486,9.8315486 0 0 1 0.1250553,0.05219 9.8315486,9.8315486 0 0 1 0.1245421,0.05375 9.8315486,9.8315486 0 0 1 0.1240234,0.05529 9.8315486,9.8315486 0 0 1 0.1229889,0.05685 9.8315486,9.8315486 0 0 1 0.1219571,0.05891 9.8315486,9.8315486 0 0 1 0.1214384,0.06046 9.8315486,9.8315486 0 0 1 0.1204066,0.06201 9.8315486,9.8315486 0 0 1 0.119888,0.06408 9.8315486,9.8315486 0 0 1 0.1188561,0.06563 9.8315486,9.8315486 0 0 1 0.1178243,0.06666 9.8315486,9.8315486 0 0 1 0.1167871,0.06873 9.8315486,9.8315486 0 0 1 0.1162738,0.07028 9.8315486,9.8315486 0 0 1 0.1147206,0.07183 9.8315486,9.8315486 0 0 1 0.1142048,0.0739 9.8315486,9.8315486 0 0 1 0.1126543,0.07493 9.8315486,9.8315486 0 0 1 0.1121383,0.07648 9.8315486,9.8315486 0 0 1 0.1111039,0.07803 9.8315486,9.8315486 0 0 1 0.1095533,0.07958 9.8315486,9.8315486 0 0 1 0.1085215,0.08113 9.8315486,9.8315486 0 0 1 0.107487,0.08268 9.8315486,9.8315486 0 0 1 0.1064525,0.08423 9.8315486,9.8315486 0 0 1 0.1054206,0.08578 9.8315486,9.8315486 0 0 1 0.1038701,0.08682 9.8315486,9.8315486 0 0 1 0.1028356,0.08837 9.8315486,9.8315486 0 0 1 0.1018037,0.08992 9.8315486,9.8315486 0 0 1 0.1002506,0.09147 9.8315486,9.8315486 0 0 1 0.098703,0.0925 9.8315486,9.8315486 0 0 1 0.098184,0.09405 9.8315486,9.8315486 0 0 1 0.096118,0.09509 9.8315486,9.8315486 0 0 1 0.095086,0.09663 9.8315486,9.8315486 0 0 1 0.094051,0.09819 9.8315486,9.8315486 0 0 1 0.092501,0.09922 9.8315486,9.8315486 0 0 1 0.09095,0.100251 9.8315486,9.8315486 0 0 1 0.089916,0.101804 9.8315486,9.8315486 0 0 1 0.08785,0.102835 9.8315486,9.8315486 0 0 1 0.08682,0.104386 9.8315486,9.8315486 0 0 1 0.08578,0.105421 9.8315486,9.8315486 0 0 1 0.08371,0.106452 9.8315486,9.8315486 0 0 1 0.08268,0.107487 9.8315486,9.8315486 0 0 1 0.08062,0.109038 9.8315486,9.8315486 0 0 1 0.07958,0.110072 9.8315486,9.8315486 0 0 1 0.07803,0.111104 9.8315486,9.8315486 0 0 1 0.07648,0.111619 9.8315486,9.8315486 0 0 1 0.07441,0.113173 9.8315486,9.8315486 0 0 1 0.07338,0.114205 9.8315486,9.8315486 0 0 1 0.07183,0.115239 9.8315486,9.8315486 0 0 1 0.07028,0.116272 9.8315486,9.8315486 0 0 1 0.06821,0.116789 9.8315486,9.8315486 0 0 1 0.06666,0.117822 9.8315486,9.8315486 0 0 1 0.06563,0.119372 9.8315486,9.8315486 0 0 1 0.06356,0.119372 9.8315486,9.8315486 0 0 1 0.06201,0.120922 9.8315486,9.8315486 0 0 1 0.05994,0.121442 9.8315486,9.8315486 0 0 1 0.0584,0.122473 9.8315486,9.8315486 0 0 1 0.05736,0.122988 9.8315486,9.8315486 0 0 1 0.05478,0.124024 9.8315486,9.8315486 0 0 1 0.05374,0.124542 9.8315486,9.8315486 0 0 1 0.05168,0.125574 9.8315486,9.8315486 0 0 1 0.05012,0.125571 9.8315486,9.8315486 0 0 1 0.04806,0.127124 9.8315486,9.8315486 0 0 1 0.04651,0.127125 9.8315486,9.8315486 0 0 1 0.04496,0.128159 9.8315486,9.8315486 0 0 1 0.04289,0.128672 9.8315486,9.8315486 0 0 1 0.04082,0.129193 9.8315486,9.8315486 0 0 1 0.03979,0.129707 9.8315486,9.8315486 0 0 1 0.03721,0.130225 9.8315486,9.8315486 0 0 1 0.03617,0.130741 9.8315486,9.8315486 0 0 1 0.03411,0.131776 9.8315486,9.8315486 0 0 1 0.03204,0.131257 9.8315486,9.8315486 0 0 1 0.03049,0.132292 9.8315486,9.8315486 0 0 1 0.02842,0.132808 9.8315486,9.8315486 0 0 1 0.02635,0.13281 9.8315486,9.8315486 0 0 1 0.02532,0.133323 9.8315486,9.8315486 0 0 1 0.02273,0.133842 9.8315486,9.8315486 0 0 1 0.02119,0.133843 9.8315486,9.8315486 0 0 1 0.01963,0.134358 9.8315486,9.8315486 0 0 1 0.01707,0.13436 9.8315486,9.8315486 0 0 1 0.01601,0.134874 9.8315486,9.8315486 0 0 1 0.01344,0.134877 9.8315486,9.8315486 0 0 1 0.01188,0.134874 9.8315486,9.8315486 0 0 1 0.01034,0.135393 9.8315486,9.8315486 0 0 1 0.0083,0.135392 9.8315486,9.8315486 0 0 1 0.0062,0.135393 9.8315486,9.8315486 0 0 1 0.0041,0.135392 9.8315486,9.8315486 0 0 1 0.0027,0.135909 9.8315486,9.8315486 0 0 1 0.0011,0.117821 9.8315486,9.8315486 0 0 1 -0.0011,0.135393 9.8315486,9.8315486 0 0 1 -0.0031,0.135909 9.8315486,9.8315486 0 0 1 -0.0047,0.135392 9.8315486,9.8315486 0 0 1 -0.0062,0.135393 9.8315486,9.8315486 0 0 1 -0.0088,0.135392 9.8315486,9.8315486 0 0 1 -0.01034,0.135393 9.8315486,9.8315486 0 0 1 -0.01188,0.134874 9.8315486,9.8315486 0 0 1 -0.01394,0.134877 9.8315486,9.8315486 0 0 1 -0.01601,0.134874 9.8315486,9.8315486 0 0 1 -0.01757,0.13436 9.8315486,9.8315486 0 0 1 -0.01963,0.134358 9.8315486,9.8315486 0 0 1 -0.02119,0.133841 9.8315486,9.8315486 0 0 1 -0.02376,0.133326 9.8315486,9.8315486 0 0 1 -0.02479,0.133324 9.8315486,9.8315486 0 0 1 -0.02687,0.133326 9.8315486,9.8315486 0 0 1 -0.02894,0.132292 9.8315486,9.8315486 0 0 1 -0.03049,0.132291 9.8315486,9.8315486 0 0 1 -0.03255,0.131773 9.8315486,9.8315486 0 0 1 -0.03411,0.13126 9.8315486,9.8315486 0 0 1 -0.03617,0.130741 9.8315486,9.8315486 0 0 1 -0.03772,0.130226 9.8315486,9.8315486 0 0 1 -0.03979,0.129706 9.8315486,9.8315486 0 0 1 -0.04134,0.128675 9.8315486,9.8315486 0 0 1 -0.04341,0.128675 9.8315486,9.8315486 0 0 1 -0.04496,0.128156 9.8315486,9.8315486 0 0 1 -0.04651,0.127125 9.8315486,9.8315486 0 0 1 -0.04858,0.126608 9.8315486,9.8315486 0 0 1 -0.05012,0.12609 9.8315486,9.8315486 0 0 1 -0.05219,0.125574 9.8315486,9.8315486 0 0 1 -0.05323,0.124539 9.8315486,9.8315486 0 0 1 -0.05581,0.123508 9.8315486,9.8315486 0 0 1 -0.05685,0.122989 9.8315486,9.8315486 0 0 1 -0.05891,0.122473 9.8315486,9.8315486 0 0 1 -0.06046,0.121441 9.8315486,9.8315486 0 0 1 -0.06201,0.120406 9.8315486,9.8315486 0 0 1 -0.06408,0.119372 9.8315486,9.8315486 0 0 1 -0.06511,0.118856 9.8315486,9.8315486 0 0 1 -0.06718,0.117822 9.8315486,9.8315486 0 0 1 -0.06873,0.117306 9.8315486,9.8315486 0 0 1 -0.07028,0.115755 9.8315486,9.8315486 0 0 1 -0.07183,0.115237 9.8315486,9.8315486 0 0 1 -0.07338,0.113688 9.8315486,9.8315486 0 0 1 -0.07493,0.113173 9.8315486,9.8315486 0 0 1 -0.077,0.112136 9.8315486,9.8315486 0 0 1 -0.07803,0.110588 9.8315486,9.8315486 0 0 1 -0.07958,0.109556 9.8315486,9.8315486 0 0 1 -0.08113,0.109037 9.8315486,9.8315486 0 0 1 -0.08268,0.107485 9.8315486,9.8315486 0 0 1 -0.08423,0.106455 9.8315486,9.8315486 0 0 1 -0.08527,0.104902 9.8315486,9.8315486 0 0 1 -0.08733,0.104386 9.8315486,9.8315486 0 0 1 -0.088366,0.102838 9.8315486,9.8315486 0 0 1 -0.089916,0.101285 9.8315486,9.8315486 0 0 1 -0.090951,0.100253 9.8315486,9.8315486 0 0 1 -0.09302,0.09922 9.8315486,9.8315486 0 0 1 -0.093533,0.09767 9.8315486,9.8315486 0 0 1 -0.095602,0.09663 9.8315486,9.8315486 0 0 1 -0.096636,0.09508 9.8315486,9.8315486 0 0 1 -0.097668,0.09405 9.8315486,9.8315486 0 0 1 -0.099219,0.09199 9.8315486,9.8315486 0 0 1 -0.1007692,0.09147 9.8315486,9.8315486 0 0 1 -0.1018011,0.0894 9.8315486,9.8315486 0 0 1 -0.1028356,0.08837 9.8315486,9.8315486 0 0 1 -0.1043861,0.08682 9.8315486,9.8315486 0 0 1 -0.1054206,0.08527 9.8315486,9.8315486 0 0 1 -0.1064524,0.08423 9.8315486,9.8315486 0 0 1 -0.1074897,0.08216 9.8315486,9.8315486 0 0 1 -0.1090348,0.08113 9.8315486,9.8315486 0 0 1 -0.109556,0.07958 9.8315486,9.8315486 0 0 1 -0.1111038,0.07751 9.8315486,9.8315486 0 0 1 -0.1121384,0.07648 9.8315486,9.8315486 0 0 1 -0.1131702,0.07493 9.8315486,9.8315486 0 0 1 -0.1142047,0.07338 9.8315486,9.8315486 0 0 1 -0.1152393,0.07183 9.8315486,9.8315486 0 0 1 -0.1157552,0.06976 9.8315486,9.8315486 0 0 1 -0.1173057,0.06873 9.8315486,9.8315486 0 0 1 -0.1178216,0.06666 9.8315486,9.8315486 0 0 1 -0.1188561,0.06511 9.8315486,9.8315486 0 0 1 -0.119888,0.06356 9.8315486,9.8315486 0 0 1 -0.1209252,0.06201 9.8315486,9.8315486 0 0 1 -0.1214384,0.06046 9.8315486,9.8315486 0 0 1 -0.1219571,0.05839 9.8315486,9.8315486 0 0 1 -0.1235048,0.05685 9.8315486,9.8315486 0 0 1 -0.1235075,0.05529 9.8315486,9.8315486 0 0 1 -0.125058,0.05323 9.8315486,9.8315486 0 0 1 -0.1250553,0.05168 9.8315486,9.8315486 0 0 1 -0.1260925,0.05013 9.8315486,9.8315486 0 0 1 -0.1266058,0.04857 9.8315486,9.8315486 0 0 1 -0.1276403,0.04599 9.8315486,9.8315486 0 0 1 -0.1178243,0.04134 24.864681,24.864681 0 0 0 5.847189,8.724016 H 42.680208 A 24.864681,24.864681 0 0 0 50.279745,24.999941 24.864681,24.864681 0 0 0 42.678142,7.1054266 Z" />
    <path
       id="path985"
       style="display:inline;fill:#ffffff;fill-opacity:1;stroke:#000000;stroke-width:0.27064;stroke-opacity:1;paint-order:markers fill stroke"
       d="M 25.396427,0.13531999 A 24.864681,24.864681 0 0 0 8.1520007,7.1054372 H 42.67806 a 24.864681,24.864681 0 0 0 -17.263028,-6.97011721 24.864681,24.864681 0 0 0 -0.0186,0 z" />
    <circle
       style="display:inline;opacity:0.88141;mix-blend-mode:normal;fill:url(#radialGradient1561-9-6);fill-opacity:1;stroke:none;stroke-width:0.212909;stroke-opacity:1;paint-order:markers fill stroke"
       id="path1129-9-74"
       cx="25"
       cy="25.000324"
       r="25" />
    <circle
       style="display:inline;opacity:0.88141;mix-blend-mode:normal;fill:url(#radialGradient1561-8);fill-opacity:1;stroke:none;stroke-width:0.212909;stroke-opacity:1;paint-order:markers fill stroke"
       id="path1129-2"
       cx="25.415184"
       cy="25.000324"
       r="25" />
  </g>
</svg>
