<?xml version="1.0" encoding="UTF-8" standalone="no"?>
<svg
   xmlns:dc="http://purl.org/dc/elements/1.1/"
   xmlns:cc="http://creativecommons.org/ns#"
   xmlns:rdf="http://www.w3.org/1999/02/22-rdf-syntax-ns#"
   xmlns:svg="http://www.w3.org/2000/svg"
   xmlns="http://www.w3.org/2000/svg"
   xmlns:xlink="http://www.w3.org/1999/xlink"
   xmlns:sodipodi="http://sodipodi.sourceforge.net/DTD/sodipodi-0.dtd"
   xmlns:inkscape="http://www.inkscape.org/namespaces/inkscape"
   width="50mm"
   height="50mm"
   viewBox="0 0 50 50"
   version="1.1"
   id="svg8"
   inkscape:version="1.0.1 (3bc2e813f5, 2020-09-07)"
   sodipodi:docname="11-7.svg">
  <defs
     id="defs2">
    <radialGradient
       inkscape:collect="always"
       xlink:href="#linearGradient1135"
       id="radialGradient1561-9-5-3"
       cx="41.903854"
       cy="30.091272"
       fx="41.903854"
       fy="30.091272"
       r="32.127975"
       gradientTransform="matrix(0.77813807,0,0,0.7781381,-46.238373,9.9267266)"
       gradientUnits="userSpaceOnUse" />
    <linearGradient
       inkscape:collect="always"
       id="linearGradient1135">
      <stop
         style="stop-color:#ffffff;stop-opacity:1;"
         offset="0"
         id="stop1131" />
      <stop
         style="stop-color:#ffffff;stop-opacity:0;"
         offset="1"
         id="stop1133" />
    </linearGradient>
    <radialGradient
       inkscape:collect="always"
       xlink:href="#linearGradient1135"
       id="radialGradient1561-9-67"
       cx="54.447247"
       cy="49.531189"
       fx="54.447247"
       fy="49.531189"
       r="32.127975"
       gradientTransform="matrix(0.77813809,0,0,0.77813812,-3.3823629,4.4121291)"
       gradientUnits="userSpaceOnUse" />
    <radialGradient
       inkscape:collect="always"
       xlink:href="#linearGradient1135"
       id="radialGradient1561-637"
       cx="26.274075"
       cy="14.800471"
       fx="26.274075"
       fy="14.800471"
       r="32.127975"
       gradientTransform="matrix(0.77813809,0,0,0.77813812,-3.3823629,4.4121291)"
       gradientUnits="userSpaceOnUse" />
  </defs>
  <sodipodi:namedview
     id="base"
     pagecolor="#ffffff"
     bordercolor="#666666"
     borderopacity="1.0"
     inkscape:pageopacity="0.0"
     inkscape:pageshadow="2"
     inkscape:zoom="0.98994949"
     inkscape:cx="2.9247058"
     inkscape:cy="154.89275"
     inkscape:document-units="mm"
     inkscape:current-layer="layer1"
     inkscape:document-rotation="0"
     showgrid="false"
     inkscape:window-width="1920"
     inkscape:window-height="1017"
     inkscape:window-x="-8"
     inkscape:window-y="-8"
     inkscape:window-maximized="1" />
  <metadata
     id="metadata5">
    <rdf:RDF>
      <cc:Work
         rdf:about="">
        <dc:format>image/svg+xml</dc:format>
        <dc:type
           rdf:resource="http://purl.org/dc/dcmitype/StillImage" />
        <dc:title></dc:title>
      </cc:Work>
    </rdf:RDF>
  </metadata>
  <g
     inkscape:label="Layer 1"
     inkscape:groupmode="layer"
     id="layer1">
    <path
       id="path833-77"
       style="display:inline;fill:#fffffd;fill-opacity:1;stroke:#000000;stroke-width:0.27064;stroke-opacity:1;paint-order:markers fill stroke"
       d="m 7.0460788,15.600528 a 9.8315486,9.8315486 0 0 0 -0.117822,0.0011 9.8315486,9.8315486 0 0 0 -0.135392,0.0026 9.8315486,9.8315486 0 0 0 -0.135909,0.0041 9.8315486,9.8315486 0 0 0 -0.135392,0.0062 9.8315486,9.8315486 0 0 0 -0.135393,0.0083 9.8315486,9.8315486 0 0 0 -0.135392,0.01034 9.8315486,9.8315486 0 0 0 -0.134877,0.01188 9.8315486,9.8315486 0 0 0 -0.134874,0.01344 9.8315486,9.8315486 0 0 0 -0.134877,0.0155 9.8315486,9.8315486 0 0 0 -0.134358,0.01757 9.8315486,9.8315486 0 0 0 -0.134358,0.01963 9.8315486,9.8315486 0 0 0 -0.133842,0.02119 9.8315486,9.8315486 0 0 0 -0.133842,0.02273 9.8315486,9.8315486 0 0 0 -0.133326,0.02479 9.8315486,9.8315486 0 0 0 -0.132808,0.02687 9.8315486,9.8315486 0 0 0 -0.132807,0.02842 9.8315486,9.8315486 0 0 0 -0.131776,0.03049 9.8315486,9.8315486 0 0 0 -0.131776,0.03204 9.8315486,9.8315486 0 0 0 -0.131257,0.03411 9.8315486,9.8315486 0 0 0 -0.131257,0.03566 9.8315486,9.8315486 0 0 0 -0.130226,0.03772 9.8315486,9.8315486 0 0 0 -0.129709,0.03927 9.8315486,9.8315486 0 0 0 -0.129191,0.04134 9.8315486,9.8315486 0 0 0 -0.128674,0.04289 9.8315486,9.8315486 0 0 0 -0.128157,0.04496 9.8315486,9.8315486 0 0 0 -0.127124,0.04651 9.8315486,9.8315486 0 0 0 -0.126606,0.04806 9.8315486,9.8315486 0 0 0 -0.126092,0.05013 9.8315486,9.8315486 0 0 0 -0.125574,0.05168 9.8315486,9.8315486 0 0 0 -0.12454,0.05374 9.8315486,9.8315486 0 0 0 -0.124023,0.05478 9.8315486,9.8315486 0 0 0 -0.122989,0.05685 9.8315486,9.8315486 0 0 0 -0.122473,0.05891 9.8315486,9.8315486 0 0 0 -0.121441,0.05995 9.8315486,9.8315486 0 0 0 -0.120407,0.06201 9.8315486,9.8315486 0 0 0 -0.119888,0.06356 9.8315486,9.8315486 0 0 0 -0.118856,0.06511 9.8315486,9.8315486 0 0 0 -0.11834,0.06718 9.8315486,9.8315486 0 0 0 -0.116787,0.06821 9.8315486,9.8315486 0 0 0 -0.116274,0.07028 9.8315486,9.8315486 0 0 0 -0.115236,0.07183 9.8315486,9.8315486 0 0 0 -0.114205,0.07286 9.8315486,9.8315486 0 0 0 -0.112654,0.07493 9.8315486,9.8315486 0 0 0 -0.112139,0.07648 9.8315486,9.8315486 0 0 0 -0.111104,0.07803 9.8315486,9.8315486 0 0 0 -0.03152,0.02273 24.86468,24.86468 0 0 0 -0.65732296,2.506824 24.86468,24.86468 0 0 0 -0.446484,3.171383 24.864681,24.864681 0 0 0 -0.07131,1.874822 24.864681,24.864681 0 0 0 0.460436,4.761983 24.86468,24.86468 0 0 0 0.378788,1.641242 24.86468,24.86468 0 0 0 0.72657196,2.279965 9.8315486,9.8315486 0 0 0 0.07597,0.04909 9.8315486,9.8315486 0 0 0 0.115237,0.07183 9.8315486,9.8315486 0 0 0 0.115755,0.07028 9.8315486,9.8315486 0 0 0 0.117306,0.06873 9.8315486,9.8315486 0 0 0 0.117824,0.06718 9.8315486,9.8315486 0 0 0 0.118853,0.06511 9.8315486,9.8315486 0 0 0 0.119375,0.06408 9.8315486,9.8315486 0 0 0 0.120404,0.06201 9.8315486,9.8315486 0 0 0 0.121441,0.06046 9.8315486,9.8315486 0 0 0 0.122473,0.05891 9.8315486,9.8315486 0 0 0 0.122989,0.05685 9.8315486,9.8315486 0 0 0 0.123508,0.05581 9.8315486,9.8315486 0 0 0 0.125057,0.05374 9.8315486,9.8315486 0 0 0 0.125056,0.05168 9.8315486,9.8315486 0 0 0 0.126092,0.05013 9.8315486,9.8315486 0 0 0 0.126606,0.04857 9.8315486,9.8315486 0 0 0 0.127124,0.04651 9.8315486,9.8315486 0 0 0 0.128157,0.04548 9.8315486,9.8315486 0 0 0 0.128674,0.04289 9.8315486,9.8315486 0 0 0 0.128675,0.04134 9.8315486,9.8315486 0 0 0 0.129707,0.03979 9.8315486,9.8315486 0 0 0 0.130225,0.03773 9.8315486,9.8315486 0 0 0 0.130741,0.03617 9.8315486,9.8315486 0 0 0 0.13126,0.03411 9.8315486,9.8315486 0 0 0 0.131773,0.03256 9.8315486,9.8315486 0 0 0 0.132292,0.03049 9.8315486,9.8315486 0 0 0 0.132292,0.02894 9.8315486,9.8315486 0 0 0 0.133326,0.02687 9.8315486,9.8315486 0 0 0 0.133326,0.02532 9.8315486,9.8315486 0 0 0 0.133324,0.02326 9.8315486,9.8315486 0 0 0 0.133842,0.02119 9.8315486,9.8315486 0 0 0 0.134358,0.01963 9.8315486,9.8315486 0 0 0 0.13436,0.01757 9.8315486,9.8315486 0 0 0 0.134874,0.01601 9.8315486,9.8315486 0 0 0 0.134877,0.01394 9.8315486,9.8315486 0 0 0 0.134874,0.01241 9.8315486,9.8315486 0 0 0 0.135393,0.0098 9.8315486,9.8315486 0 0 0 0.135392,0.0088 9.8315486,9.8315486 0 0 0 0.135393,0.0062 9.8315486,9.8315486 0 0 0 0.135392,0.0047 9.8315486,9.8315486 0 0 0 0.135909,0.0031 9.8315486,9.8315486 0 0 0 0.135393,0.0011 9.8315486,9.8315486 0 0 0 0.117821,-0.0011 9.8315486,9.8315486 0 0 0 0.135909,-0.0026 9.8315486,9.8315486 0 0 0 0.135392,-0.0041 9.8315486,9.8315486 0 0 0 0.135393,-0.0062 9.8315486,9.8315486 0 0 0 0.135392,-0.0083 9.8315486,9.8315486 0 0 0 0.135393,-0.01034 9.8315486,9.8315486 0 0 0 0.134874,-0.01188 9.8315486,9.8315486 0 0 0 0.134877,-0.01344 9.8315486,9.8315486 0 0 0 0.134876,-0.01601 9.8315486,9.8315486 0 0 0 0.134358,-0.01707 9.8315486,9.8315486 0 0 0 0.134358,-0.01963 9.8315486,9.8315486 0 0 0 0.133843,-0.02119 9.8315486,9.8315486 0 0 0 0.133842,-0.02273 9.8315486,9.8315486 0 0 0 0.133326,-0.02479 9.8315486,9.8315486 0 0 0 0.132807,-0.02687 9.8315486,9.8315486 0 0 0 0.132808,-0.02842 9.8315486,9.8315486 0 0 0 0.132292,-0.03049 9.8315486,9.8315486 0 0 0 0.131775,-0.03204 9.8315486,9.8315486 0 0 0 0.131258,-0.03411 9.8315486,9.8315486 0 0 0 0.130741,-0.03617 9.8315486,9.8315486 0 0 0 0.130225,-0.03721 9.8315486,9.8315486 0 0 0 0.129709,-0.03979 9.8315486,9.8315486 0 0 0 0.1291922,-0.04082 9.8315486,9.8315486 0 0 0 0.128672,-0.04289 9.8315486,9.8315486 0 0 0 0.128159,-0.04496 9.8315486,9.8315486 0 0 0 0.127124,-0.04651 9.8315486,9.8315486 0 0 0 0.127125,-0.04806 9.8315486,9.8315486 0 0 0 0.12609,-0.05013 9.8315486,9.8315486 0 0 0 0.125058,-0.05168 9.8315486,9.8315486 0 0 0 0.124539,-0.05374 9.8315486,9.8315486 0 0 0 0.124023,-0.05478 9.8315486,9.8315486 0 0 0 0.122989,-0.05685 9.8315486,9.8315486 0 0 0 0.122473,-0.05891 9.8315486,9.8315486 0 0 0 0.121441,-0.05995 9.8315486,9.8315486 0 0 0 0.120923,-0.06201 9.8315486,9.8315486 0 0 0 0.119372,-0.06356 9.8315486,9.8315486 0 0 0 0.119372,-0.06511 9.8315486,9.8315486 0 0 0 0.117824,-0.06718 9.8315486,9.8315486 0 0 0 0.116787,-0.06821 9.8315486,9.8315486 0 0 0 0.116271,-0.07028 9.8315486,9.8315486 0 0 0 0.11524,-0.07183 9.8315486,9.8315486 0 0 0 0.114205,-0.07286 9.8315486,9.8315486 0 0 0 0.113172,-0.07493 9.8315486,9.8315486 0 0 0 0.112136,-0.07648 9.8315486,9.8315486 0 0 0 0.110588,-0.07803 9.8315486,9.8315486 0 0 0 0.110072,-0.07958 9.8315486,9.8315486 0 0 0 0.109037,-0.08062 9.8315486,9.8315486 0 0 0 0.107487,-0.08268 9.8315486,9.8315486 0 0 0 0.106453,-0.08371 9.8315486,9.8315486 0 0 0 0.10542,-0.08527 9.8315486,9.8315486 0 0 0 0.104386,-0.08681 9.8315486,9.8315486 0 0 0 0.102836,-0.08837 9.8315486,9.8315486 0 0 0 0.101804,-0.08992 9.8315486,9.8315486 0 0 0 0.10025,-0.09095 9.8315486,9.8315486 0 0 0 0.09922,-0.0925 9.8315486,9.8315486 0 0 0 0.09819,-0.09354 9.8315486,9.8315486 0 0 0 0.09663,-0.0956 9.8315486,9.8315486 0 0 0 0.09509,-0.09612 9.8315486,9.8315486 0 0 0 0.09405,-0.09767 9.8315486,9.8315486 0 0 0 0.0925,-0.09922 9.8315486,9.8315486 0 0 0 0.09147,-0.100253 9.8315486,9.8315486 0 0 0 0.08992,-0.101804 9.8315486,9.8315486 0 0 0 0.08837,-0.102835 9.8315486,9.8315486 0 0 0 0.08681,-0.10387 9.8315486,9.8315486 0 0 0 0.08578,-0.105418 9.8315486,9.8315486 0 0 0 0.08423,-0.106456 9.8315486,9.8315486 0 0 0 0.08268,-0.107487 9.8315486,9.8315486 0 0 0 0.08113,-0.108518 9.8315486,9.8315486 0 0 0 0.07958,-0.109556 9.8315486,9.8315486 0 0 0 0.07803,-0.111104 9.8315486,9.8315486 0 0 0 0.07648,-0.112139 9.8315486,9.8315486 0 0 0 0.07493,-0.112654 9.8315486,9.8315486 0 0 0 0.0739,-0.114205 9.8315486,9.8315486 0 0 0 0.07183,-0.11472 9.8315486,9.8315486 0 0 0 0.07028,-0.116274 9.8315486,9.8315486 0 0 0 0.06873,-0.116787 9.8315486,9.8315486 0 0 0 0.06666,-0.117822 9.8315486,9.8315486 0 0 0 0.06563,-0.118856 9.8315486,9.8315486 0 0 0 0.06408,-0.119891 9.8315486,9.8315486 0 0 0 0.06201,-0.120406 9.8315486,9.8315486 0 0 0 0.06046,-0.121439 9.8315486,9.8315486 0 0 0 0.05891,-0.121957 9.8315486,9.8315486 0 0 0 0.05684,-0.122989 9.8315486,9.8315486 0 0 0 0.05529,-0.124023 9.8315486,9.8315486 0 0 0 0.05374,-0.124542 9.8315486,9.8315486 0 0 0 0.05219,-0.125055 9.8315486,9.8315486 0 0 0 0.05013,-0.12609 9.8315486,9.8315486 0 0 0 0.04857,-0.126609 9.8315486,9.8315486 0 0 0 0.04651,-0.12764 9.8315486,9.8315486 0 0 0 0.04496,-0.12764 9.8315486,9.8315486 0 0 0 0.04341,-0.128675 9.8315486,9.8315486 0 0 0 0.04134,-0.129191 9.8315486,9.8315486 0 0 0 0.03979,-0.129709 9.8315486,9.8315486 0 0 0 0.03772,-0.130223 9.8315486,9.8315486 0 0 0 0.03617,-0.130741 9.8315486,9.8315486 0 0 0 0.03411,-0.13126 9.8315486,9.8315486 0 0 0 0.03256,-0.131775 9.8315486,9.8315486 0 0 0 0.03049,-0.131773 9.8315486,9.8315486 0 0 0 0.02842,-0.132811 9.8315486,9.8315486 0 0 0 0.02739,-0.132807 9.8315486,9.8315486 0 0 0 0.02479,-0.133324 9.8315486,9.8315486 0 0 0 0.02326,-0.133842 9.8315486,9.8315486 0 0 0 0.0217,-0.133842 9.8315486,9.8315486 0 0 0 0.01963,-0.133842 9.8315486,9.8315486 0 0 0 0.01757,-0.134877 9.8315486,9.8315486 0 0 0 0.01601,-0.134358 9.8315486,9.8315486 0 0 0 0.01394,-0.134875 9.8315486,9.8315486 0 0 0 0.01188,-0.135393 9.8315486,9.8315486 0 0 0 0.01034,-0.134874 9.8315486,9.8315486 0 0 0 0.0078,-0.135392 9.8315486,9.8315486 0 0 0 0.0072,-0.135393 9.8315486,9.8315486 0 0 0 0.0052,-0.135909 9.8315486,9.8315486 0 0 0 0.0026,-0.135392 9.8315486,9.8315486 0 0 0 0.0011,-0.135909 9.8315486,9.8315486 0 0 0 -5.29e-4,-0.117821 9.8315486,9.8315486 0 0 0 -0.0026,-0.135393 9.8315486,9.8315486 0 0 0 -0.0052,-0.135392 9.8315486,9.8315486 0 0 0 -0.0062,-0.135909 9.8315486,9.8315486 0 0 0 -0.0078,-0.135393 9.8315486,9.8315486 0 0 0 -0.01035,-0.134876 9.8315486,9.8315486 0 0 0 -0.01188,-0.135393 9.8315486,9.8315486 0 0 0 -0.01394,-0.134874 9.8315486,9.8315486 0 0 0 -0.01551,-0.134358 9.8315486,9.8315486 0 0 0 -0.01757,-0.134876 9.8315486,9.8315486 0 0 0 -0.01913,-0.133843 9.8315486,9.8315486 0 0 0 -0.02119,-0.134358 9.8315486,9.8315486 0 0 0 -0.02326,-0.133326 9.8315486,9.8315486 0 0 0 -0.02479,-0.133323 9.8315486,9.8315486 0 0 0 -0.02687,-0.133327 9.8315486,9.8315486 0 0 0 -0.02842,-0.132291 9.8315486,9.8315486 0 0 0 -0.03049,-0.132292 9.8315486,9.8315486 0 0 0 -0.03204,-0.131776 9.8315486,9.8315486 0 0 0 -0.03411,-0.131257 9.8315486,9.8315486 0 0 0 -0.03566,-0.130741 9.8315486,9.8315486 0 0 0 -0.03772,-0.130225 9.8315486,9.8315486 0 0 0 -0.03927,-0.129707 9.8315486,9.8315486 0 0 0 -0.04134,-0.129193 9.8315486,9.8315486 0 0 0 -0.04289,-0.128673 9.8315486,9.8315486 0 0 0 -0.04444,-0.128158 9.8315486,9.8315486 0 0 0 -0.04651,-0.127641 9.8315486,9.8315486 0 0 0 -0.04858,-0.126608 9.8315486,9.8315486 0 0 0 -0.04961,-0.12609 9.8315486,9.8315486 0 0 0 -0.05219,-0.125574 9.8315486,9.8315486 0 0 0 -0.05323,-0.124539 9.8315486,9.8315486 0 0 0 -0.0553,-0.123508 9.8315486,9.8315486 0 0 0 -0.05684,-0.123505 9.8315486,9.8315486 0 0 0 -0.05839,-0.121957 9.8315486,9.8315486 0 0 0 -0.06046,-0.121957 9.8315486,9.8315486 0 0 0 -0.06201,-0.120406 9.8315486,9.8315486 0 0 0 -0.06356,-0.119888 9.8315486,9.8315486 0 0 0 -0.06511,-0.118856 9.8315486,9.8315486 0 0 0 -0.06667,-0.117822 9.8315486,9.8315486 0 0 0 -0.06873,-0.117306 9.8315486,9.8315486 0 0 0 -0.06976,-0.116273 9.8315486,9.8315486 0 0 0 -0.07183,-0.114721 9.8315486,9.8315486 0 0 0 -0.07338,-0.114205 9.8315486,9.8315486 0 0 0 -0.07493,-0.113173 9.8315486,9.8315486 0 0 0 -0.07596,-0.112135 9.8315486,9.8315486 0 0 0 -0.07803,-0.111104 9.8315486,9.8315486 0 0 0 -0.07958,-0.109556 9.8315486,9.8315486 0 0 0 -0.08113,-0.109038 9.8315486,9.8315486 0 0 0 -0.08216,-0.107487 9.8315486,9.8315486 0 0 0 -0.08423,-0.106968 9.8315486,9.8315486 0 0 0 -0.08527,-0.104905 9.8315486,9.8315486 0 0 0 -0.08682,-0.104386 9.8315486,9.8315486 0 0 0 -0.08837,-0.102835 9.8315486,9.8315486 0 0 0 -0.0894,-0.101804 9.8315486,9.8315486 0 0 0 -0.09095,-0.100769 9.8315486,9.8315486 0 0 0 -0.0925,-0.09922 9.8315486,9.8315486 0 0 0 -0.09405,-0.09767 9.8315486,9.8315486 0 0 0 -0.09508,-0.09663 9.8315486,9.8315486 0 0 0 -0.09664,-0.0956 9.8315486,9.8315486 0 0 0 -0.09767,-0.09405 9.8315486,9.8315486 0 0 0 -0.09922,-0.0925 9.8315486,9.8315486 0 0 0 -0.10025,-0.09095 9.8315486,9.8315486 0 0 0 -0.101288,-0.08992 9.8315486,9.8315486 0 0 0 -0.102836,-0.08837 9.8315486,9.8315486 0 0 0 -0.104386,-0.08733 9.8315486,9.8315486 0 0 0 -0.104902,-0.08527 9.8315486,9.8315486 0 0 0 -0.106455,-0.08423 9.8315486,9.8315486 0 0 0 -0.107487,-0.08268 9.8315486,9.8315486 0 0 0 -0.108519,-0.08113 9.8315486,9.8315486 0 0 0 -0.110072,-0.07958 9.8315486,9.8315486 0 0 0 -0.110588,-0.07803 9.8315486,9.8315486 0 0 0 -0.112138,-0.077 9.8315486,9.8315486 0 0 0 -0.11317,-0.07493 9.8315486,9.8315486 0 0 0 -0.113689,-0.07338 9.8315486,9.8315486 0 0 0 -0.115237,-0.07183 9.8315486,9.8315486 0 0 0 -0.115755,-0.07028 9.8315486,9.8315486 0 0 0 -0.11679,-0.06873 9.8315486,9.8315486 0 0 0 -0.11834,-0.06718 9.8315486,9.8315486 0 0 0 -0.118337,-0.06563 9.8315486,9.8315486 0 0 0 -0.119891,-0.06356 9.8315486,9.8315486 0 0 0 -0.120407,-0.06201 9.8315486,9.8315486 0 0 0 -0.121438,-0.06046 9.8315486,9.8315486 0 0 0 -0.122473,-0.05891 9.8315486,9.8315486 0 0 0 -0.122989,-0.05685 9.8315486,9.8315486 0 0 0 -0.123507,-0.05581 9.8315486,9.8315486 0 0 0 -0.12454,-0.05374 9.8315486,9.8315486 0 0 0 -0.125574,-0.05168 9.8315486,9.8315486 0 0 0 -0.126092,-0.05013 9.8315486,9.8315486 0 0 0 -0.126606,-0.04857 9.8315486,9.8315486 0 0 0 -0.127124,-0.04702 9.8315486,9.8315486 0 0 0 -0.128159,-0.04496 9.8315486,9.8315486 0 0 0 -0.128156,-0.04289 9.8315486,9.8315486 0 0 0 -0.1291922,-0.04134 9.8315486,9.8315486 0 0 0 -0.129709,-0.03979 9.8315486,9.8315486 0 0 0 -0.130223,-0.03772 9.8315486,9.8315486 0 0 0 -0.130741,-0.03617 9.8315486,9.8315486 0 0 0 -0.13126,-0.03411 9.8315486,9.8315486 0 0 0 -0.131776,-0.03256 9.8315486,9.8315486 0 0 0 -0.132291,-0.03049 9.8315486,9.8315486 0 0 0 -0.132292,-0.02894 9.8315486,9.8315486 0 0 0 -0.132808,-0.02687 9.8315486,9.8315486 0 0 0 -0.133323,-0.02532 9.8315486,9.8315486 0 0 0 -0.133842,-0.02326 9.8315486,9.8315486 0 0 0 -0.133842,-0.02119 9.8315486,9.8315486 0 0 0 -0.134361,-0.01963 9.8315486,9.8315486 0 0 0 -0.134358,-0.01757 9.8315486,9.8315486 0 0 0 -0.134874,-0.01601 9.8315486,9.8315486 0 0 0 -0.134877,-0.01394 9.8315486,9.8315486 0 0 0 -0.134876,-0.01241 9.8315486,9.8315486 0 0 0 -0.13539,-0.0098 9.8315486,9.8315486 0 0 0 -0.135393,-0.0088 9.8315486,9.8315486 0 0 0 -0.135393,-0.0062 9.8315486,9.8315486 0 0 0 -0.135392,-0.0047 9.8315486,9.8315486 0 0 0 -0.135393,-0.0031 9.8315486,9.8315486 0 0 0 -0.135908,-0.0011 z" />
    <path
       id="path1219"
       style="display:inline;fill:#ffffff;fill-opacity:1;stroke:#000000;stroke-width:0.27064;stroke-opacity:1;paint-order:markers fill stroke"
       d="M 42.261501,42.897049 H 7.7390598 A 24.864681,24.864681 0 0 0 25.000022,49.8651 24.864681,24.864681 0 0 0 42.261501,42.897049 Z" />
    <path
       id="path993"
       style="display:inline;fill:#cf330c;fill-opacity:1;stroke:#000000;stroke-width:0.27064;stroke-opacity:1;paint-order:markers fill stroke"
       d="M 42.260982,7.1033708 H 7.7390598 a 24.864681,24.864681 0 0 0 -6.42855,10.3440702 9.8315486,9.8315486 0 0 1 0.03152,-0.02273 9.8315486,9.8315486 0 0 1 0.111104,-0.07803 9.8315486,9.8315486 0 0 1 0.112138,-0.07648 9.8315486,9.8315486 0 0 1 0.112655,-0.07493 9.8315486,9.8315486 0 0 1 0.114205,-0.07286 9.8315486,9.8315486 0 0 1 0.115236,-0.07183 9.8315486,9.8315486 0 0 1 0.116274,-0.07028 9.8315486,9.8315486 0 0 1 0.116787,-0.06821 9.8315486,9.8315486 0 0 1 0.11834,-0.06718 9.8315486,9.8315486 0 0 1 0.118856,-0.06511 9.8315486,9.8315486 0 0 1 0.119888,-0.06356 9.8315486,9.8315486 0 0 1 0.120407,-0.06201 9.8315486,9.8315486 0 0 1 0.121441,-0.05995 9.8315486,9.8315486 0 0 1 0.122473,-0.05891 9.8315486,9.8315486 0 0 1 0.122989,-0.05685 9.8315486,9.8315486 0 0 1 0.124023,-0.05478 9.8315486,9.8315486 0 0 1 0.12454,-0.05374 9.8315486,9.8315486 0 0 1 0.125574,-0.05168 9.8315486,9.8315486 0 0 1 0.126092,-0.05013 9.8315486,9.8315486 0 0 1 0.126606,-0.04806 9.8315486,9.8315486 0 0 1 0.127124,-0.04651 9.8315486,9.8315486 0 0 1 0.128156,-0.04496 9.8315486,9.8315486 0 0 1 0.128675,-0.04289 9.8315486,9.8315486 0 0 1 0.129191,-0.04134 9.8315486,9.8315486 0 0 1 0.129709,-0.03927 9.8315486,9.8315486 0 0 1 0.130226,-0.03772 9.8315486,9.8315486 0 0 1 0.131257,-0.03565 9.8315486,9.8315486 0 0 1 0.131257,-0.03411 9.8315486,9.8315486 0 0 1 0.131776,-0.03204 9.8315486,9.8315486 0 0 1 0.131775,-0.03049 9.8315486,9.8315486 0 0 1 0.132808,-0.02842 9.8315486,9.8315486 0 0 1 0.132808,-0.02687 9.8315486,9.8315486 0 0 1 0.133326,-0.02479 9.8315486,9.8315486 0 0 1 0.133842,-0.02273 9.8315486,9.8315486 0 0 1 0.133842,-0.02119 9.8315486,9.8315486 0 0 1 0.134358,-0.01963 9.8315486,9.8315486 0 0 1 0.134358,-0.01757 9.8315486,9.8315486 0 0 1 0.134877,-0.0155 9.8315486,9.8315486 0 0 1 0.134874,-0.01344 9.8315486,9.8315486 0 0 1 0.134876,-0.01188 9.8315486,9.8315486 0 0 1 0.135393,-0.01035 9.8315486,9.8315486 0 0 1 0.135393,-0.0083 9.8315486,9.8315486 0 0 1 0.135392,-0.0062 9.8315486,9.8315486 0 0 1 0.135909,-0.0041 9.8315486,9.8315486 0 0 1 0.135392,-0.0026 9.8315486,9.8315486 0 0 1 0.117822,-0.0011 9.8315486,9.8315486 0 0 1 0.135908,0.0011 9.8315486,9.8315486 0 0 1 0.135393,0.0031 9.8315486,9.8315486 0 0 1 0.135393,0.0047 9.8315486,9.8315486 0 0 1 0.135392,0.0062 9.8315486,9.8315486 0 0 1 0.135393,0.0088 9.8315486,9.8315486 0 0 1 0.13539,0.0098 9.8315486,9.8315486 0 0 1 0.134876,0.01241 9.8315486,9.8315486 0 0 1 0.134877,0.01394 9.8315486,9.8315486 0 0 1 0.134874,0.01601 9.8315486,9.8315486 0 0 1 0.134358,0.01757 9.8315486,9.8315486 0 0 1 0.134361,0.01963 9.8315486,9.8315486 0 0 1 0.133842,0.02119 9.8315486,9.8315486 0 0 1 0.133842,0.02326 9.8315486,9.8315486 0 0 1 0.133324,0.02532 9.8315486,9.8315486 0 0 1 0.132807,0.02687 9.8315486,9.8315486 0 0 1 0.132292,0.02894 9.8315486,9.8315486 0 0 1 0.132292,0.03049 9.8315486,9.8315486 0 0 1 0.131775,0.03256 9.8315486,9.8315486 0 0 1 0.13126,0.03411 9.8315486,9.8315486 0 0 1 0.130741,0.03617 9.8315486,9.8315486 0 0 1 0.130223,0.03772 9.8315486,9.8315486 0 0 1 0.129709,0.03979 9.8315486,9.8315486 0 0 1 0.1291912,0.04134 9.8315486,9.8315486 0 0 1 0.128157,0.04289 9.8315486,9.8315486 0 0 1 0.128159,0.04496 9.8315486,9.8315486 0 0 1 0.127124,0.04702 9.8315486,9.8315486 0 0 1 0.126606,0.04857 9.8315486,9.8315486 0 0 1 0.126092,0.05013 9.8315486,9.8315486 0 0 1 0.125574,0.05168 9.8315486,9.8315486 0 0 1 0.124539,0.05374 9.8315486,9.8315486 0 0 1 0.123508,0.05581 9.8315486,9.8315486 0 0 1 0.122989,0.05685 9.8315486,9.8315486 0 0 1 0.122473,0.05891 9.8315486,9.8315486 0 0 1 0.121438,0.06046 9.8315486,9.8315486 0 0 1 0.120407,0.06201 9.8315486,9.8315486 0 0 1 0.11989,0.06356 9.8315486,9.8315486 0 0 1 0.118338,0.06563 9.8315486,9.8315486 0 0 1 0.11834,0.06718 9.8315486,9.8315486 0 0 1 0.11679,0.06873 9.8315486,9.8315486 0 0 1 0.115755,0.07028 9.8315486,9.8315486 0 0 1 0.115237,0.07183 9.8315486,9.8315486 0 0 1 0.113689,0.07338 9.8315486,9.8315486 0 0 1 0.11317,0.07493 9.8315486,9.8315486 0 0 1 0.112138,0.077 9.8315486,9.8315486 0 0 1 0.110588,0.07803 9.8315486,9.8315486 0 0 1 0.110072,0.07958 9.8315486,9.8315486 0 0 1 0.108519,0.08113 9.8315486,9.8315486 0 0 1 0.107487,0.08268 9.8315486,9.8315486 0 0 1 0.106455,0.08423 9.8315486,9.8315486 0 0 1 0.104902,0.08527 9.8315486,9.8315486 0 0 1 0.104386,0.08733 9.8315486,9.8315486 0 0 1 0.102836,0.08837 9.8315486,9.8315486 0 0 1 0.101287,0.08992 9.8315486,9.8315486 0 0 1 0.100251,0.09095 9.8315486,9.8315486 0 0 1 0.09922,0.0925 9.8315486,9.8315486 0 0 1 0.09767,0.09405 9.8315486,9.8315486 0 0 1 0.09664,0.0956 9.8315486,9.8315486 0 0 1 0.09508,0.09663 9.8315486,9.8315486 0 0 1 0.09405,0.09767 9.8315486,9.8315486 0 0 1 0.0925,0.09922 9.8315486,9.8315486 0 0 1 0.09095,0.100769 9.8315486,9.8315486 0 0 1 0.0894,0.101803 9.8315486,9.8315486 0 0 1 0.08837,0.102836 9.8315486,9.8315486 0 0 1 0.08681,0.104386 9.8315486,9.8315486 0 0 1 0.08527,0.104905 9.8315486,9.8315486 0 0 1 0.08423,0.106968 9.8315486,9.8315486 0 0 1 0.08216,0.107487 9.8315486,9.8315486 0 0 1 0.08113,0.109038 9.8315486,9.8315486 0 0 1 0.07958,0.109556 9.8315486,9.8315486 0 0 1 0.07803,0.111103 9.8315486,9.8315486 0 0 1 0.07596,0.112136 9.8315486,9.8315486 0 0 1 0.07493,0.113173 9.8315486,9.8315486 0 0 1 0.07338,0.114205 9.8315486,9.8315486 0 0 1 0.07183,0.11472 9.8315486,9.8315486 0 0 1 0.06976,0.116274 9.8315486,9.8315486 0 0 1 0.06873,0.117306 9.8315486,9.8315486 0 0 1 0.06666,0.117822 9.8315486,9.8315486 0 0 1 0.06511,0.118856 9.8315486,9.8315486 0 0 1 0.06356,0.119888 9.8315486,9.8315486 0 0 1 0.06201,0.120406 9.8315486,9.8315486 0 0 1 0.06046,0.121957 9.8315486,9.8315486 0 0 1 0.05839,0.121957 9.8315486,9.8315486 0 0 1 0.05684,0.123505 9.8315486,9.8315486 0 0 1 0.05529,0.123508 9.8315486,9.8315486 0 0 1 0.05323,0.124539 9.8315486,9.8315486 0 0 1 0.05219,0.125574 9.8315486,9.8315486 0 0 1 0.04961,0.12609 9.8315486,9.8315486 0 0 1 0.04858,0.126608 9.8315486,9.8315486 0 0 1 0.04651,0.127641 9.8315486,9.8315486 0 0 1 0.04444,0.128158 9.8315486,9.8315486 0 0 1 0.04289,0.128673 9.8315486,9.8315486 0 0 1 0.04134,0.129193 9.8315486,9.8315486 0 0 1 0.03927,0.129707 9.8315486,9.8315486 0 0 1 0.03772,0.130225 9.8315486,9.8315486 0 0 1 0.03566,0.130741 9.8315486,9.8315486 0 0 1 0.03411,0.131257 9.8315486,9.8315486 0 0 1 0.03204,0.131776 9.8315486,9.8315486 0 0 1 0.03049,0.132292 9.8315486,9.8315486 0 0 1 0.02843,0.132291 9.8315486,9.8315486 0 0 1 0.02687,0.133327 9.8315486,9.8315486 0 0 1 0.02479,0.133323 9.8315486,9.8315486 0 0 1 0.02326,0.133326 9.8315486,9.8315486 0 0 1 0.02119,0.134358 9.8315486,9.8315486 0 0 1 0.01913,0.133842 9.8315486,9.8315486 0 0 1 0.01757,0.134877 9.8315486,9.8315486 0 0 1 0.0155,0.134358 9.8315486,9.8315486 0 0 1 0.01394,0.134874 9.8315486,9.8315486 0 0 1 0.01188,0.135393 9.8315486,9.8315486 0 0 1 0.0098,0.134876 9.8315486,9.8315486 0 0 1 0.0083,0.135393 9.8315486,9.8315486 0 0 1 0.0062,0.135908 9.8315486,9.8315486 0 0 1 0.0047,0.135393 9.8315486,9.8315486 0 0 1 0.0031,0.135393 9.8315486,9.8315486 0 0 1 5.3e-4,0.117821 9.8315486,9.8315486 0 0 1 -0.0011,0.135909 9.8315486,9.8315486 0 0 1 -0.0031,0.135392 9.8315486,9.8315486 0 0 1 -0.0047,0.135909 9.8315486,9.8315486 0 0 1 -0.0072,0.135392 9.8315486,9.8315486 0 0 1 -0.0078,0.135393 9.8315486,9.8315486 0 0 1 -0.01035,0.134874 9.8315486,9.8315486 0 0 1 -0.01188,0.135393 9.8315486,9.8315486 0 0 1 -0.01394,0.134875 9.8315486,9.8315486 0 0 1 -0.01601,0.134358 9.8315486,9.8315486 0 0 1 -0.01757,0.134877 9.8315486,9.8315486 0 0 1 -0.01963,0.133842 9.8315486,9.8315486 0 0 1 -0.0217,0.133842 9.8315486,9.8315486 0 0 1 -0.02326,0.133842 9.8315486,9.8315486 0 0 1 -0.02479,0.133324 9.8315486,9.8315486 0 0 1 -0.02739,0.132807 9.8315486,9.8315486 0 0 1 -0.02842,0.13281 9.8315486,9.8315486 0 0 1 -0.03049,0.131774 9.8315486,9.8315486 0 0 1 -0.03256,0.131775 9.8315486,9.8315486 0 0 1 -0.03411,0.13126 9.8315486,9.8315486 0 0 1 -0.03617,0.130741 9.8315486,9.8315486 0 0 1 -0.03772,0.130223 9.8315486,9.8315486 0 0 1 -0.03979,0.129709 9.8315486,9.8315486 0 0 1 -0.04134,0.129191 9.8315486,9.8315486 0 0 1 -0.04341,0.128675 9.8315486,9.8315486 0 0 1 -0.04496,0.12764 9.8315486,9.8315486 0 0 1 -0.04651,0.12764 9.8315486,9.8315486 0 0 1 -0.04857,0.126609 9.8315486,9.8315486 0 0 1 -0.05013,0.12609 9.8315486,9.8315486 0 0 1 -0.05219,0.125055 9.8315486,9.8315486 0 0 1 -0.05374,0.124542 9.8315486,9.8315486 0 0 1 -0.05529,0.124023 9.8315486,9.8315486 0 0 1 -0.05684,0.122989 9.8315486,9.8315486 0 0 1 -0.05891,0.121957 9.8315486,9.8315486 0 0 1 -0.06046,0.121439 9.8315486,9.8315486 0 0 1 -0.06201,0.120406 9.8315486,9.8315486 0 0 1 -0.06408,0.119891 9.8315486,9.8315486 0 0 1 -0.06563,0.118856 9.8315486,9.8315486 0 0 1 -0.06666,0.117822 9.8315486,9.8315486 0 0 1 -0.06873,0.116787 9.8315486,9.8315486 0 0 1 -0.07028,0.116274 9.8315486,9.8315486 0 0 1 -0.07183,0.11472 9.8315486,9.8315486 0 0 1 -0.0739,0.114205 9.8315486,9.8315486 0 0 1 -0.07493,0.112654 9.8315486,9.8315486 0 0 1 -0.07648,0.112139 9.8315486,9.8315486 0 0 1 -0.07803,0.111104 9.8315486,9.8315486 0 0 1 -0.07958,0.109556 9.8315486,9.8315486 0 0 1 -0.08113,0.108518 9.8315486,9.8315486 0 0 1 -0.08268,0.107487 9.8315486,9.8315486 0 0 1 -0.08423,0.106455 9.8315486,9.8315486 0 0 1 -0.08578,0.105418 9.8315486,9.8315486 0 0 1 -0.08681,0.103871 9.8315486,9.8315486 0 0 1 -0.08837,0.102835 9.8315486,9.8315486 0 0 1 -0.08992,0.101804 9.8315486,9.8315486 0 0 1 -0.09147,0.100253 9.8315486,9.8315486 0 0 1 -0.0925,0.09922 9.8315486,9.8315486 0 0 1 -0.09405,0.09767 9.8315486,9.8315486 0 0 1 -0.09509,0.09612 9.8315486,9.8315486 0 0 1 -0.09663,0.0956 9.8315486,9.8315486 0 0 1 -0.09819,0.09354 9.8315486,9.8315486 0 0 1 -0.09922,0.0925 9.8315486,9.8315486 0 0 1 -0.100251,0.09095 9.8315486,9.8315486 0 0 1 -0.101804,0.08992 9.8315486,9.8315486 0 0 1 -0.102835,0.08837 9.8315486,9.8315486 0 0 1 -0.104386,0.08682 9.8315486,9.8315486 0 0 1 -0.105421,0.08527 9.8315486,9.8315486 0 0 1 -0.106452,0.08371 9.8315486,9.8315486 0 0 1 -0.107487,0.08268 9.8315486,9.8315486 0 0 1 -0.109038,0.08062 9.8315486,9.8315486 0 0 1 -0.110072,0.07958 9.8315486,9.8315486 0 0 1 -0.110588,0.07803 9.8315486,9.8315486 0 0 1 -0.112135,0.07648 9.8315486,9.8315486 0 0 1 -0.113173,0.07493 9.8315486,9.8315486 0 0 1 -0.114205,0.07286 9.8315486,9.8315486 0 0 1 -0.115239,0.07183 9.8315486,9.8315486 0 0 1 -0.116271,0.07028 9.8315486,9.8315486 0 0 1 -0.116787,0.06821 9.8315486,9.8315486 0 0 1 -0.117825,0.06718 9.8315486,9.8315486 0 0 1 -0.119372,0.06511 9.8315486,9.8315486 0 0 1 -0.119372,0.06356 9.8315486,9.8315486 0 0 1 -0.120922,0.06201 9.8315486,9.8315486 0 0 1 -0.121441,0.05995 9.8315486,9.8315486 0 0 1 -0.122473,0.05891 9.8315486,9.8315486 0 0 1 -0.122989,0.05685 9.8315486,9.8315486 0 0 1 -0.124024,0.05478 9.8315486,9.8315486 0 0 1 -0.124539,0.05374 9.8315486,9.8315486 0 0 1 -0.125058,0.05168 9.8315486,9.8315486 0 0 1 -0.12609,0.05013 9.8315486,9.8315486 0 0 1 -0.127124,0.04806 9.8315486,9.8315486 0 0 1 -0.127125,0.04651 9.8315486,9.8315486 0 0 1 -0.128159,0.04496 9.8315486,9.8315486 0 0 1 -0.128672,0.04289 9.8315486,9.8315486 0 0 1 -0.1291912,0.04082 9.8315486,9.8315486 0 0 1 -0.129709,0.03979 9.8315486,9.8315486 0 0 1 -0.130226,0.03721 9.8315486,9.8315486 0 0 1 -0.130741,0.03617 9.8315486,9.8315486 0 0 1 -0.131257,0.03411 9.8315486,9.8315486 0 0 1 -0.131776,0.03204 9.8315486,9.8315486 0 0 1 -0.132291,0.03049 9.8315486,9.8315486 0 0 1 -0.132808,0.02842 9.8315486,9.8315486 0 0 1 -0.132807,0.02687 9.8315486,9.8315486 0 0 1 -0.133327,0.02479 9.8315486,9.8315486 0 0 1 -0.133842,0.02273 9.8315486,9.8315486 0 0 1 -0.133842,0.02119 9.8315486,9.8315486 0 0 1 -0.134358,0.01963 9.8315486,9.8315486 0 0 1 -0.134358,0.01706 9.8315486,9.8315486 0 0 1 -0.134877,0.01601 9.8315486,9.8315486 0 0 1 -0.134876,0.01344 9.8315486,9.8315486 0 0 1 -0.134874,0.01188 9.8315486,9.8315486 0 0 1 -0.135393,0.01035 9.8315486,9.8315486 0 0 1 -0.135392,0.0083 9.8315486,9.8315486 0 0 1 -0.135393,0.0062 9.8315486,9.8315486 0 0 1 -0.135393,0.0041 9.8315486,9.8315486 0 0 1 -0.135908,0.0026 9.8315486,9.8315486 0 0 1 -0.117822,0.0011 9.8315486,9.8315486 0 0 1 -0.135392,-0.0011 9.8315486,9.8315486 0 0 1 -0.135909,-0.0031 9.8315486,9.8315486 0 0 1 -0.135392,-0.0047 9.8315486,9.8315486 0 0 1 -0.135393,-0.0062 9.8315486,9.8315486 0 0 1 -0.135393,-0.0088 9.8315486,9.8315486 0 0 1 -0.135392,-0.0098 9.8315486,9.8315486 0 0 1 -0.134874,-0.01241 9.8315486,9.8315486 0 0 1 -0.134877,-0.01394 9.8315486,9.8315486 0 0 1 -0.134874,-0.01601 9.8315486,9.8315486 0 0 1 -0.134304,-0.01758 9.8315486,9.8315486 0 0 1 -0.134359,-0.01963 9.8315486,9.8315486 0 0 1 -0.133842,-0.02119 9.8315486,9.8315486 0 0 1 -0.133323,-0.02326 9.8315486,9.8315486 0 0 1 -0.133326,-0.02532 9.8315486,9.8315486 0 0 1 -0.133327,-0.02687 9.8315486,9.8315486 0 0 1 -0.132291,-0.02894 9.8315486,9.8315486 0 0 1 -0.132292,-0.03049 9.8315486,9.8315486 0 0 1 -0.131773,-0.03256 9.8315486,9.8315486 0 0 1 -0.13126,-0.03411 9.8315486,9.8315486 0 0 1 -0.130741,-0.03617 9.8315486,9.8315486 0 0 1 -0.130225,-0.03772 9.8315486,9.8315486 0 0 1 -0.129707,-0.03979 9.8315486,9.8315486 0 0 1 -0.128675,-0.04134 9.8315486,9.8315486 0 0 1 -0.128675,-0.04289 9.8315486,9.8315486 0 0 1 -0.128156,-0.04548 9.8315486,9.8315486 0 0 1 -0.127124,-0.04651 9.8315486,9.8315486 0 0 1 -0.126606,-0.04857 9.8315486,9.8315486 0 0 1 -0.126092,-0.05013 9.8315486,9.8315486 0 0 1 -0.125056,-0.05168 9.8315486,9.8315486 0 0 1 -0.125058,-0.05374 9.8315486,9.8315486 0 0 1 -0.123507,-0.05581 9.8315486,9.8315486 0 0 1 -0.122989,-0.05685 9.8315486,9.8315486 0 0 1 -0.122473,-0.05891 9.8315486,9.8315486 0 0 1 -0.121441,-0.06046 9.8315486,9.8315486 0 0 1 -0.120404,-0.06201 9.8315486,9.8315486 0 0 1 -0.119375,-0.06408 9.8315486,9.8315486 0 0 1 -0.118853,-0.06511 9.8315486,9.8315486 0 0 1 -0.117825,-0.06718 9.8315486,9.8315486 0 0 1 -0.117305,-0.06873 9.8315486,9.8315486 0 0 1 -0.115755,-0.07028 9.8315486,9.8315486 0 0 1 -0.115237,-0.07183 9.8315486,9.8315486 0 0 1 -0.07597,-0.04909 24.864681,24.864681 0 0 0 6.037874,9.213389 H 42.261506 A 24.864681,24.864681 0 0 0 49.864657,25.000478 24.864681,24.864681 0 0 0 42.260987,7.1033788 Z" />
    <path
       id="path991"
       style="display:inline;fill:#ffffff;fill-opacity:1;stroke:#000000;stroke-width:0.27064;stroke-opacity:1;paint-order:markers fill stroke"
       d="M 24.981419,0.13531999 A 24.864681,24.864681 0 0 0 7.7390598,7.1033708 H 42.260982 a 24.864681,24.864681 0 0 0 -17.26096,-6.96805081 24.864681,24.864681 0 0 0 -0.0186,0 z" />
    <g
       aria-label="11"
       transform="matrix(0.86934868,0,0,1.1502864,-127,-62.999845)"
       id="text1149-7"
       style="font-style:normal;font-variant:normal;font-weight:normal;font-stretch:normal;font-size:18.0465px;line-height:1.25;font-family:'Berlin Sans FB Demi';-inkscape-font-specification:'Berlin Sans FB Demi';display:inline;stroke-width:0.229406">
      <path
         d="m 152.86963,82.138635 q 0,0.167424 -0.1498,0.308412 -0.1498,0.140989 -0.32604,0.140989 -0.42296,0 -1.26889,0.0088 -0.84593,0.0088 -1.2689,0.0088 -0.32603,0 -0.31722,-0.281976 l 0.009,-0.09693 q 0.12337,-3.366095 0.12337,-4.079848 V 75.52981 q 0,-0.246729 -0.11456,-0.246729 -0.17623,0 -0.53751,0.105741 -0.35247,0.105741 -0.53752,0.105741 -0.27317,0 -0.27317,-0.326035 0,-0.2996 -0.009,-0.898801 -0.009,-0.5992 -0.009,-0.907612 0,-0.176235 0.22029,-0.264353 1.29533,-0.537518 2.03552,-1.44513 0.1498,-0.185047 0.25554,-0.185047 0.0176,0 0.10574,0.01762 0.33485,0.07049 0.99573,0.220294 0.35248,0.04406 1.03098,0.158612 0.12337,0.03525 0.12337,0.193859 0,0.05287 -0.0176,0.185047 -0.0969,0.775435 -0.0969,3.797872 0,1.013353 0.009,3.048871 0.0176,2.035518 0.0176,3.048871 z"
         style="font-style:normal;font-variant:normal;font-weight:normal;font-stretch:normal;font-size:18.0465px;font-family:'Berlin Sans FB Demi';-inkscape-font-specification:'Berlin Sans FB Demi';stroke-width:0.229406"
         id="path922" />
      <path
         d="m 158.67658,82.138635 q 0,0.167424 -0.1498,0.308412 -0.1498,0.140989 -0.32603,0.140989 -0.42297,0 -1.2689,0.0088 -0.84593,0.0088 -1.26889,0.0088 -0.32604,0 -0.31723,-0.281976 l 0.009,-0.09693 q 0.12336,-3.366095 0.12336,-4.079848 V 75.52981 q 0,-0.246729 -0.11455,-0.246729 -0.17624,0 -0.53752,0.105741 -0.35247,0.105741 -0.53752,0.105741 -0.27316,0 -0.27316,-0.326035 0,-0.2996 -0.009,-0.898801 -0.009,-0.5992 -0.009,-0.907612 0,-0.176235 0.2203,-0.264353 1.29533,-0.537518 2.03552,-1.44513 0.1498,-0.185047 0.25554,-0.185047 0.0176,0 0.10574,0.01762 0.33485,0.07049 0.99573,0.220294 0.35247,0.04406 1.03098,0.158612 0.12336,0.03525 0.12336,0.193859 0,0.05287 -0.0176,0.185047 -0.0969,0.775435 -0.0969,3.797872 0,1.013353 0.009,3.048871 0.0176,2.035518 0.0176,3.048871 z"
         style="font-style:normal;font-variant:normal;font-weight:normal;font-stretch:normal;font-size:18.0465px;font-family:'Berlin Sans FB Demi';-inkscape-font-specification:'Berlin Sans FB Demi';stroke-width:0.229406"
         id="path924" />
    </g>
    <circle
       style="display:inline;opacity:0.88141;mix-blend-mode:normal;fill:url(#radialGradient1561-9-67);fill-opacity:1;stroke:none;stroke-width:0.212909;stroke-opacity:1;paint-order:markers fill stroke"
       id="path1129-9-5"
       cx="25"
       cy="25.000372"
       r="25" />
    <circle
       style="display:inline;opacity:0.88141;mix-blend-mode:normal;fill:url(#radialGradient1561-637);fill-opacity:1;stroke:none;stroke-width:0.212909;stroke-opacity:1;paint-order:markers fill stroke"
       id="path1129-41"
       cx="25"
       cy="25.000372"
       r="25" />
  </g>
</svg>
