<?xml version="1.0" encoding="UTF-8" standalone="no"?>
<svg
   xmlns:dc="http://purl.org/dc/elements/1.1/"
   xmlns:cc="http://creativecommons.org/ns#"
   xmlns:rdf="http://www.w3.org/1999/02/22-rdf-syntax-ns#"
   xmlns:svg="http://www.w3.org/2000/svg"
   xmlns="http://www.w3.org/2000/svg"
   xmlns:xlink="http://www.w3.org/1999/xlink"
   xmlns:sodipodi="http://sodipodi.sourceforge.net/DTD/sodipodi-0.dtd"
   xmlns:inkscape="http://www.inkscape.org/namespaces/inkscape"
   width="50mm"
   height="50mm"
   viewBox="0 0 50 50"
   version="1.1"
   id="svg8"
   inkscape:version="1.0.1 (3bc2e813f5, 2020-09-07)"
   sodipodi:docname="Koule-1.6.svg">
  <defs
     id="defs2">
    <radialGradient
       inkscape:collect="always"
       xlink:href="#linearGradient1135"
       id="radialGradient1561-9-6"
       cx="54.447247"
       cy="49.531189"
       fx="54.447247"
       fy="49.531189"
       r="32.127975"
       gradientTransform="matrix(0.77813809,0,0,0.77813812,-3.3823635,4.4119413)"
       gradientUnits="userSpaceOnUse" />
    <linearGradient
       inkscape:collect="always"
       id="linearGradient1135">
      <stop
         style="stop-color:#ffffff;stop-opacity:1;"
         offset="0"
         id="stop1131" />
      <stop
         style="stop-color:#ffffff;stop-opacity:0;"
         offset="1"
         id="stop1133" />
    </linearGradient>
    <radialGradient
       inkscape:collect="always"
       xlink:href="#linearGradient1135"
       id="radialGradient1561-8"
       cx="26.274075"
       cy="14.800471"
       fx="26.274075"
       fy="14.800471"
       r="32.127975"
       gradientTransform="matrix(0.77813809,0,0,0.77813812,-2.9671804,4.4119413)"
       gradientUnits="userSpaceOnUse" />
  </defs>
  <sodipodi:namedview
     id="base"
     pagecolor="#ffffff"
     bordercolor="#666666"
     borderopacity="1.0"
     inkscape:pageopacity="0.0"
     inkscape:pageshadow="2"
     inkscape:zoom="0.7"
     inkscape:cx="235.50402"
     inkscape:cy="272.30746"
     inkscape:document-units="mm"
     inkscape:current-layer="layer1"
     inkscape:document-rotation="0"
     showgrid="false"
     inkscape:window-width="1920"
     inkscape:window-height="1017"
     inkscape:window-x="-8"
     inkscape:window-y="-8"
     inkscape:window-maximized="1" />
  <metadata
     id="metadata5">
    <rdf:RDF>
      <cc:Work
         rdf:about="">
        <dc:format>image/svg+xml</dc:format>
        <dc:type
           rdf:resource="http://purl.org/dc/dcmitype/StillImage" />
        <dc:title></dc:title>
      </cc:Work>
    </rdf:RDF>
  </metadata>
  <g
     inkscape:label="Layer 1"
     inkscape:groupmode="layer"
     id="layer1">
    <path
       id="path833-58"
       style="display:inline;fill:#000000;fill-opacity:1;stroke:#000000;stroke-width:0.27064;stroke-opacity:1;paint-order:markers fill stroke"
       d="m 1.3777392,31.359263 1.9807582,-0.03772 V 19.227705 L 1.3157262,18.878889 a 24.864681,24.864681 0 0 0 -0.7653284,6.121072 24.864681,24.864681 0 0 0 0.8273414,6.359302 z" />
    <path
       id="path1161"
       style="display:inline;fill:#ffffff;fill-opacity:1;stroke:#000000;stroke-width:0.27064;stroke-opacity:1;paint-order:markers fill stroke"
       d="m 2.3952474,15.602086 a 24.864681,24.864681 0 0 0 -1.0795212,3.276803 l 2.0427712,0.348816 v 12.093833 l -1.9807582,0.03772 a 24.864681,24.864681 0 0 0 0.9255231,2.810163 9.8315486,9.8315486 0 0 0 0.1178243,-0.04134 9.8315486,9.8315486 0 0 0 0.1276403,-0.04599 9.8315486,9.8315486 0 0 0 0.1266058,-0.04858 9.8315486,9.8315486 0 0 0 0.1260925,-0.05013 9.8315486,9.8315486 0 0 0 0.1250553,-0.05167 9.8315486,9.8315486 0 0 0 0.1250579,-0.05323 9.8315486,9.8315486 0 0 0 0.1235075,-0.0553 9.8315486,9.8315486 0 0 0 0.1235049,-0.05684 9.8315486,9.8315486 0 0 0 0.121957,-0.0584 9.8315486,9.8315486 0 0 0 0.1214385,-0.06046 9.8315486,9.8315486 0 0 0 0.1209252,-0.06201 9.8315486,9.8315486 0 0 0 0.119888,-0.06356 9.8315486,9.8315486 0 0 0 0.1188561,-0.06511 9.8315486,9.8315486 0 0 0 0.1178216,-0.06666 9.8315486,9.8315486 0 0 0 0.1173057,-0.06873 9.8315486,9.8315486 0 0 0 0.1157552,-0.06976 9.8315486,9.8315486 0 0 0 0.1152392,-0.07183 9.8315486,9.8315486 0 0 0 0.1142048,-0.07338 9.8315486,9.8315486 0 0 0 0.1131702,-0.07493 9.8315486,9.8315486 0 0 0 0.1121384,-0.07648 9.8315486,9.8315486 0 0 0 0.1111038,-0.07752 9.8315486,9.8315486 0 0 0 0.109556,-0.07958 9.8315486,9.8315486 0 0 0 0.1090345,-0.08113 9.8315486,9.8315486 0 0 0 0.10749,-0.08217 9.8315486,9.8315486 0 0 0 0.106452,-0.08423 9.8315486,9.8315486 0 0 0 0.105421,-0.08526 9.8315486,9.8315486 0 0 0 0.104386,-0.08682 9.8315486,9.8315486 0 0 0 0.102836,-0.08836 9.8315486,9.8315486 0 0 0 0.101801,-0.0894 9.8315486,9.8315486 0 0 0 0.100769,-0.09147 9.8315486,9.8315486 0 0 0 0.09922,-0.09199 9.8315486,9.8315486 0 0 0 0.09767,-0.09405 9.8315486,9.8315486 0 0 0 0.09664,-0.09508 9.8315486,9.8315486 0 0 0 0.0956,-0.09664 9.8315486,9.8315486 0 0 0 0.09353,-0.09767 9.8315486,9.8315486 0 0 0 0.09302,-0.09922 9.8315486,9.8315486 0 0 0 0.09095,-0.100253 9.8315486,9.8315486 0 0 0 0.08992,-0.101285 9.8315486,9.8315486 0 0 0 0.08837,-0.102836 9.8315486,9.8315486 0 0 0 0.08733,-0.104386 9.8315486,9.8315486 0 0 0 0.08527,-0.104905 9.8315486,9.8315486 0 0 0 0.08423,-0.106452 9.8315486,9.8315486 0 0 0 0.08268,-0.107487 9.8315486,9.8315486 0 0 0 0.08113,-0.109038 9.8315486,9.8315486 0 0 0 0.07958,-0.109553 9.8315486,9.8315486 0 0 0 0.07803,-0.110588 9.8315486,9.8315486 0 0 0 0.077,-0.112138 A 9.8315486,9.8315486 0 0 0 7.3412,30.25235 9.8315486,9.8315486 0 0 0 7.41458,30.138661 9.8315486,9.8315486 0 0 0 7.48641,30.023421 9.8315486,9.8315486 0 0 0 7.55669,29.907666 9.8315486,9.8315486 0 0 0 7.62542,29.790361 9.8315486,9.8315486 0 0 0 7.6926,29.672539 9.8315486,9.8315486 0 0 0 7.75771,29.553683 9.8315486,9.8315486 0 0 0 7.82179,29.434311 9.8315486,9.8315486 0 0 0 7.8838,29.313904 9.8315486,9.8315486 0 0 0 7.94426,29.192466 9.8315486,9.8315486 0 0 0 8.00317,29.069993 9.8315486,9.8315486 0 0 0 8.06002,28.947001 9.8315486,9.8315486 0 0 0 8.11583,28.823496 9.8315486,9.8315486 0 0 0 8.16906,28.698954 9.8315486,9.8315486 0 0 0 8.22125,28.57338 9.8315486,9.8315486 0 0 0 8.27138,28.447291 9.8315486,9.8315486 0 0 0 8.31996,28.320685 9.8315486,9.8315486 0 0 0 8.36647,28.19356 9.8315486,9.8315486 0 0 0 8.41143,28.065402 9.8315486,9.8315486 0 0 0 8.45484,27.936727 9.8315486,9.8315486 0 0 0 8.49618,27.808055 9.8315486,9.8315486 0 0 0 8.53597,27.678345 9.8315486,9.8315486 0 0 0 8.57369,27.54812 9.8315486,9.8315486 0 0 0 8.60986,27.417379 9.8315486,9.8315486 0 0 0 8.64397,27.286122 9.8315486,9.8315486 0 0 0 8.67652,27.154346 9.8315486,9.8315486 0 0 0 8.70701,27.022054 9.8315486,9.8315486 0 0 0 8.73595,26.889763 9.8315486,9.8315486 0 0 0 8.76282,26.756439 9.8315486,9.8315486 0 0 0 8.78761,26.623113 9.8315486,9.8315486 0 0 0 8.81137,26.489787 9.8315486,9.8315486 0 0 0 8.83256,26.355946 9.8315486,9.8315486 0 0 0 8.85219,26.221588 9.8315486,9.8315486 0 0 0 8.86976,26.08723 9.8315486,9.8315486 0 0 0 8.88577,25.952353 9.8315486,9.8315486 0 0 0 8.89971,25.817479 9.8315486,9.8315486 0 0 0 8.91159,25.682602 9.8315486,9.8315486 0 0 0 8.92194,25.54721 a 9.8315486,9.8315486 0 0 0 0.0088,-0.13539 9.8315486,9.8315486 0 0 0 0.0062,-0.135393 9.8315486,9.8315486 0 0 0 0.0047,-0.135392 9.8315486,9.8315486 0 0 0 0.0031,-0.135909 9.8315486,9.8315486 0 0 0 0.0011,-0.135392 9.8315486,9.8315486 0 0 0 -0.0011,-0.117825 9.8315486,9.8315486 0 0 0 -0.0026,-0.135908 9.8315486,9.8315486 0 0 0 -0.0041,-0.135393 9.8315486,9.8315486 0 0 0 -0.0062,-0.135392 9.8315486,9.8315486 0 0 0 -0.0083,-0.13539 A 9.8315486,9.8315486 0 0 0 8.9132,24.074433 9.8315486,9.8315486 0 0 0 8.90132,23.939557 9.8315486,9.8315486 0 0 0 8.88788,23.804683 9.8315486,9.8315486 0 0 0 8.87187,23.669806 9.8315486,9.8315486 0 0 0 8.8548,23.535448 9.8315486,9.8315486 0 0 0 8.83517,23.40109 9.8315486,9.8315486 0 0 0 8.81398,23.267248 9.8315486,9.8315486 0 0 0 8.79125,23.133406 9.8315486,9.8315486 0 0 0 8.76593,23.000079 9.8315486,9.8315486 0 0 0 8.73958,22.867272 9.8315486,9.8315486 0 0 0 8.71116,22.734462 9.8315486,9.8315486 0 0 0 8.68067,22.60217 9.8315486,9.8315486 0 0 0 8.64863,22.470913 9.8315486,9.8315486 0 0 0 8.61452,22.339137 9.8315486,9.8315486 0 0 0 8.57835,22.208396 9.8315486,9.8315486 0 0 0 8.54114,22.078173 9.8315486,9.8315486 0 0 0 8.50135,21.948464 9.8315486,9.8315486 0 0 0 8.46053,21.819273 9.8315486,9.8315486 0 0 0 8.41764,21.690598 9.8315486,9.8315486 0 0 0 8.37268,21.562442 9.8315486,9.8315486 0 0 0 8.32617,21.435318 9.8315486,9.8315486 0 0 0 8.27811,21.308193 9.8315486,9.8315486 0 0 0 8.22799,21.182619 9.8315486,9.8315486 0 0 0 8.17631,21.057046 9.8315486,9.8315486 0 0 0 8.12257,20.932506 9.8315486,9.8315486 0 0 0 8.06779,20.808483 9.8315486,9.8315486 0 0 0 8.01043,20.685491 9.8315486,9.8315486 0 0 0 7.95203,20.563018 9.8315486,9.8315486 0 0 0 7.89209,20.44158 9.8315486,9.8315486 0 0 0 7.83008,20.320657 9.8315486,9.8315486 0 0 0 7.76652,20.201285 9.8315486,9.8315486 0 0 0 7.70089,20.08191 9.8315486,9.8315486 0 0 0 7.63423,19.964089 9.8315486,9.8315486 0 0 0 7.56602,19.847299 9.8315486,9.8315486 0 0 0 7.49574,19.731028 9.8315486,9.8315486 0 0 0 7.42391,19.615789 9.8315486,9.8315486 0 0 0 7.35053,19.501584 9.8315486,9.8315486 0 0 0 7.27612,19.388414 9.8315486,9.8315486 0 0 0 7.19964,19.276794 9.8315486,9.8315486 0 0 0 7.12161,19.165687 9.8315486,9.8315486 0 0 0 7.04203,19.055618 9.8315486,9.8315486 0 0 0 6.96141,18.946581 9.8315486,9.8315486 0 0 0 6.87873,18.839094 9.8315486,9.8315486 0 0 0 6.79502,18.732639 9.8315486,9.8315486 0 0 0 6.70924,18.627221 9.8315486,9.8315486 0 0 0 6.62242,18.522835 9.8315486,9.8315486 0 0 0 6.53457,18.419996 9.8315486,9.8315486 0 0 0 6.44465,18.318195 9.8315486,9.8315486 0 0 0 6.3537,18.217942 9.8315486,9.8315486 0 0 0 6.2612,18.118722 9.8315486,9.8315486 0 0 0 6.16715,18.020542 9.8315486,9.8315486 0 0 0 6.07206,17.923902 9.8315486,9.8315486 0 0 0 5.97594,17.828822 9.8315486,9.8315486 0 0 0 5.87776,17.734772 9.8315486,9.8315486 0 0 0 5.77906,17.642272 9.8315486,9.8315486 0 0 0 5.678809,17.550802 9.8315486,9.8315486 0 0 0 5.577006,17.460882 9.8315486,9.8315486 0 0 0 5.47417,17.372512 9.8315486,9.8315486 0 0 0 5.3703,17.285692 9.8315486,9.8315486 0 0 0 5.264879,17.199912 9.8315486,9.8315486 0 0 0 5.158427,17.115682 9.8315486,9.8315486 0 0 0 5.05094,17.033002 a 9.8315486,9.8315486 0 0 0 -0.1085217,-0.08113 9.8315486,9.8315486 0 0 0 -0.1095534,-0.07958 9.8315486,9.8315486 0 0 0 -0.1111038,-0.07803 9.8315486,9.8315486 0 0 0 -0.1121383,-0.07648 9.8315486,9.8315486 0 0 0 -0.1126543,-0.07493 9.8315486,9.8315486 0 0 0 -0.1142048,-0.0739 9.8315486,9.8315486 0 0 0 -0.1148397,-0.07183 9.8315486,9.8315486 0 0 0 -0.1162738,-0.07028 9.8315486,9.8315486 0 0 0 -0.116787,-0.06873 9.8315486,9.8315486 0 0 0 -0.1178243,-0.06666 9.8315486,9.8315486 0 0 0 -0.1188561,-0.06563 9.8315486,9.8315486 0 0 0 -0.119888,-0.06408 9.8315486,9.8315486 0 0 0 -0.1204066,-0.06201 9.8315486,9.8315486 0 0 0 -0.1214385,-0.06046 9.8315486,9.8315486 0 0 0 -0.121957,-0.05891 9.8315486,9.8315486 0 0 0 -0.1229889,-0.05684 9.8315486,9.8315486 0 0 0 -0.1240235,-0.0553 9.8315486,9.8315486 0 0 0 -0.124542,-0.05374 9.8315486,9.8315486 0 0 0 -0.1250553,-0.05219 9.8315486,9.8315486 0 0 0 -0.1260925,-0.05013 9.8315486,9.8315486 0 0 0 -0.1266058,-0.04858 9.8315486,9.8315486 0 0 0 -0.1276403,-0.04651 9.8315486,9.8315486 0 0 0 -0.042376,-0.01498 z" />
    <path
       id="path1141"
       style="display:inline;fill:#e6b242;fill-opacity:1;stroke:#000000;stroke-width:0.27064;stroke-opacity:1;paint-order:markers fill stroke"
       d="M 25.396427,0.13533009 A 24.864681,24.864681 0 0 0 2.3952474,15.602086 a 9.8315486,9.8315486 0 0 1 0.042376,0.01497 9.8315486,9.8315486 0 0 1 0.1276403,0.04651 9.8315486,9.8315486 0 0 1 0.1266059,0.04858 9.8315486,9.8315486 0 0 1 0.1260924,0.05012 9.8315486,9.8315486 0 0 1 0.1250553,0.0522 9.8315486,9.8315486 0 0 1 0.1245421,0.05374 9.8315486,9.8315486 0 0 1 0.1240234,0.05529 9.8315486,9.8315486 0 0 1 0.1229889,0.05684 9.8315486,9.8315486 0 0 1 0.1219571,0.05891 9.8315486,9.8315486 0 0 1 0.1214384,0.06046 9.8315486,9.8315486 0 0 1 0.1204066,0.06201 9.8315486,9.8315486 0 0 1 0.119888,0.06408 9.8315486,9.8315486 0 0 1 0.1188561,0.06563 9.8315486,9.8315486 0 0 1 0.1178243,0.06666 9.8315486,9.8315486 0 0 1 0.1167871,0.06873 9.8315486,9.8315486 0 0 1 0.1162738,0.07028 9.8315486,9.8315486 0 0 1 0.1147206,0.07183 9.8315486,9.8315486 0 0 1 0.1142048,0.0739 9.8315486,9.8315486 0 0 1 0.1126543,0.07493 9.8315486,9.8315486 0 0 1 0.1121383,0.07648 9.8315486,9.8315486 0 0 1 0.1111039,0.07803 9.8315486,9.8315486 0 0 1 0.1095533,0.07958 9.8315486,9.8315486 0 0 1 0.1085217,0.08113 9.8315486,9.8315486 0 0 1 0.107487,0.08268 9.8315486,9.8315486 0 0 1 0.106452,0.08423 9.8315486,9.8315486 0 0 1 0.105421,0.08578 9.8315486,9.8315486 0 0 1 0.10387,0.08682 9.8315486,9.8315486 0 0 1 0.102836,0.08836 9.8315486,9.8315486 0 0 1 0.101803,0.08992 9.8315486,9.8315486 0 0 1 0.100251,0.09147 9.8315486,9.8315486 0 0 1 0.0987,0.0925 9.8315486,9.8315486 0 0 1 0.09818,0.09405 9.8315486,9.8315486 0 0 1 0.09612,0.09508 9.8315486,9.8315486 0 0 1 0.09509,0.09664 9.8315486,9.8315486 0 0 1 0.09405,0.09819 9.8315486,9.8315486 0 0 1 0.0925,0.09922 9.8315486,9.8315486 0 0 1 0.09095,0.100254 9.8315486,9.8315486 0 0 1 0.08992,0.101801 9.8315486,9.8315486 0 0 1 0.08785,0.102838 9.8315486,9.8315486 0 0 1 0.08682,0.104386 9.8315486,9.8315486 0 0 1 0.08578,0.105418 9.8315486,9.8315486 0 0 1 0.08371,0.106455 9.8315486,9.8315486 0 0 1 0.08268,0.107487 9.8315486,9.8315486 0 0 1 0.08062,0.109038 9.8315486,9.8315486 0 0 1 0.07958,0.110069 9.8315486,9.8315486 0 0 1 0.07803,0.111106 9.8315486,9.8315486 0 0 1 0.07648,0.11162 9.8315486,9.8315486 0 0 1 0.07441,0.11317 9.8315486,9.8315486 0 0 1 0.07338,0.114205 9.8315486,9.8315486 0 0 1 0.07183,0.115239 9.8315486,9.8315486 0 0 1 0.07028,0.116272 9.8315486,9.8315486 0 0 1 0.06821,0.116789 9.8315486,9.8315486 0 0 1 0.06666,0.117822 9.8315486,9.8315486 0 0 1 0.06563,0.119375 9.8315486,9.8315486 0 0 1 0.06356,0.119372 9.8315486,9.8315486 0 0 1 0.06201,0.120922 9.8315486,9.8315486 0 0 1 0.05994,0.121439 9.8315486,9.8315486 0 0 1 0.0584,0.122473 9.8315486,9.8315486 0 0 1 0.05736,0.122991 9.8315486,9.8315486 0 0 1 0.05478,0.124024 9.8315486,9.8315486 0 0 1 0.05374,0.124539 9.8315486,9.8315486 0 0 1 0.05168,0.125574 9.8315486,9.8315486 0 0 1 0.05012,0.125574 9.8315486,9.8315486 0 0 1 0.04806,0.127124 9.8315486,9.8315486 0 0 1 0.04651,0.127124 9.8315486,9.8315486 0 0 1 0.04496,0.128157 9.8315486,9.8315486 0 0 1 0.04289,0.128674 9.8315486,9.8315486 0 0 1 0.04082,0.129191 9.8315486,9.8315486 0 0 1 0.03979,0.12971 9.8315486,9.8315486 0 0 1 0.03721,0.130222 9.8315486,9.8315486 0 0 1 0.03617,0.130741 9.8315486,9.8315486 0 0 1 0.03411,0.131776 9.8315486,9.8315486 0 0 1 0.03204,0.131257 9.8315486,9.8315486 0 0 1 0.03049,0.132292 9.8315486,9.8315486 0 0 1 0.02842,0.13281 9.8315486,9.8315486 0 0 1 0.02635,0.132808 9.8315486,9.8315486 0 0 1 0.02532,0.133326 9.8315486,9.8315486 0 0 1 0.02273,0.133842 9.8315486,9.8315486 0 0 1 0.02119,0.133842 9.8315486,9.8315486 0 0 1 0.01963,0.134358 9.8315486,9.8315486 0 0 1 0.01707,0.134358 9.8315486,9.8315486 0 0 1 0.01601,0.134877 9.8315486,9.8315486 0 0 1 0.01344,0.134874 9.8315486,9.8315486 0 0 1 0.01188,0.134877 9.8315486,9.8315486 0 0 1 0.01034,0.135392 9.8315486,9.8315486 0 0 1 0.0083,0.13539 9.8315486,9.8315486 0 0 1 0.0062,0.135393 9.8315486,9.8315486 0 0 1 0.0041,0.135392 9.8315486,9.8315486 0 0 1 0.0027,0.135909 9.8315486,9.8315486 0 0 1 0.0011,0.117824 A 9.8315486,9.8315486 0 0 1 8.9448,25.005101 9.8315486,9.8315486 0 0 1 8.9417,25.141009 9.8315486,9.8315486 0 0 1 8.937,25.276402 9.8315486,9.8315486 0 0 1 8.9308,25.411794 9.8315486,9.8315486 0 0 1 8.922,25.547184 9.8315486,9.8315486 0 0 1 8.91166,25.682577 9.8315486,9.8315486 0 0 1 8.89978,25.817454 9.8315486,9.8315486 0 0 1 8.88584,25.952328 9.8315486,9.8315486 0 0 1 8.86983,26.087204 9.8315486,9.8315486 0 0 1 8.85226,26.221562 9.8315486,9.8315486 0 0 1 8.83263,26.35592 9.8315486,9.8315486 0 0 1 8.81144,26.489761 9.8315486,9.8315486 0 0 1 8.78768,26.623087 9.8315486,9.8315486 0 0 1 8.76289,26.756413 9.8315486,9.8315486 0 0 1 8.73602,26.889737 9.8315486,9.8315486 0 0 1 8.70708,27.022029 9.8315486,9.8315486 0 0 1 8.67659,27.15432 9.8315486,9.8315486 0 0 1 8.64404,27.286096 9.8315486,9.8315486 0 0 1 8.60993,27.417353 9.8315486,9.8315486 0 0 1 8.57376,27.548094 9.8315486,9.8315486 0 0 1 8.53604,27.67832 9.8315486,9.8315486 0 0 1 8.49625,27.808029 9.8315486,9.8315486 0 0 1 8.45491,27.936701 9.8315486,9.8315486 0 0 1 8.4115,28.065376 9.8315486,9.8315486 0 0 1 8.36654,28.193535 9.8315486,9.8315486 0 0 1 8.32003,28.320659 9.8315486,9.8315486 0 0 1 8.27145,28.447265 9.8315486,9.8315486 0 0 1 8.22132,28.573355 9.8315486,9.8315486 0 0 1 8.16913,28.698929 9.8315486,9.8315486 0 0 1 8.1159,28.823471 9.8315486,9.8315486 0 0 1 8.06009,28.946976 9.8315486,9.8315486 0 0 1 8.00324,29.069967 9.8315486,9.8315486 0 0 1 7.94433,29.19244 a 9.8315486,9.8315486 0 0 1 -0.06046,0.121439 9.8315486,9.8315486 0 0 1 -0.06201,0.120406 9.8315486,9.8315486 0 0 1 -0.06408,0.119372 9.8315486,9.8315486 0 0 1 -0.06511,0.118856 9.8315486,9.8315486 0 0 1 -0.06718,0.117822 9.8315486,9.8315486 0 0 1 -0.06873,0.117306 9.8315486,9.8315486 0 0 1 -0.07028,0.115755 9.8315486,9.8315486 0 0 1 -0.07183,0.115239 9.8315486,9.8315486 0 0 1 -0.07338,0.113689 9.8315486,9.8315486 0 0 1 -0.07493,0.11317 9.8315486,9.8315486 0 0 1 -0.077,0.112139 9.8315486,9.8315486 0 0 1 -0.07803,0.110587 9.8315486,9.8315486 0 0 1 -0.07958,0.109554 9.8315486,9.8315486 0 0 1 -0.08113,0.109037 9.8315486,9.8315486 0 0 1 -0.08268,0.107487 9.8315486,9.8315486 0 0 1 -0.08423,0.106453 9.8315486,9.8315486 0 0 1 -0.08527,0.104904 9.8315486,9.8315486 0 0 1 -0.08733,0.104386 9.8315486,9.8315486 0 0 1 -0.08837,0.102836 9.8315486,9.8315486 0 0 1 -0.08992,0.101285 9.8315486,9.8315486 0 0 1 -0.09095,0.100253 9.8315486,9.8315486 0 0 1 -0.09302,0.09922 9.8315486,9.8315486 0 0 1 -0.09353,0.09767 9.8315486,9.8315486 0 0 1 -0.0956,0.09664 9.8315486,9.8315486 0 0 1 -0.09664,0.09508 9.8315486,9.8315486 0 0 1 -0.09767,0.09405 9.8315486,9.8315486 0 0 1 -0.09922,0.09199 9.8315486,9.8315486 0 0 1 -0.100769,0.09147 9.8315486,9.8315486 0 0 1 -0.101801,0.0894 9.8315486,9.8315486 0 0 1 -0.102836,0.08837 9.8315486,9.8315486 0 0 1 -0.104386,0.08682 9.8315486,9.8315486 0 0 1 -0.105421,0.08526 9.8315486,9.8315486 0 0 1 -0.106452,0.08423 9.8315486,9.8315486 0 0 1 -0.10749,0.08217 9.8315486,9.8315486 0 0 1 -0.1090346,0.08113 9.8315486,9.8315486 0 0 1 -0.109556,0.07958 9.8315486,9.8315486 0 0 1 -0.1111038,0.07751 9.8315486,9.8315486 0 0 1 -0.1121384,0.07648 9.8315486,9.8315486 0 0 1 -0.1131702,0.07493 9.8315486,9.8315486 0 0 1 -0.1142047,0.07338 9.8315486,9.8315486 0 0 1 -0.1152393,0.07183 9.8315486,9.8315486 0 0 1 -0.1157552,0.06976 9.8315486,9.8315486 0 0 1 -0.1173057,0.06873 9.8315486,9.8315486 0 0 1 -0.1178216,0.06666 9.8315486,9.8315486 0 0 1 -0.1188561,0.06511 9.8315486,9.8315486 0 0 1 -0.119888,0.06356 9.8315486,9.8315486 0 0 1 -0.1209252,0.06201 9.8315486,9.8315486 0 0 1 -0.1214384,0.06046 9.8315486,9.8315486 0 0 1 -0.1219571,0.0584 9.8315486,9.8315486 0 0 1 -0.1235048,0.05684 9.8315486,9.8315486 0 0 1 -0.1235075,0.0553 9.8315486,9.8315486 0 0 1 -0.125058,0.05323 9.8315486,9.8315486 0 0 1 -0.1250553,0.05168 9.8315486,9.8315486 0 0 1 -0.1260925,0.05012 9.8315486,9.8315486 0 0 1 -0.1266058,0.04858 9.8315486,9.8315486 0 0 1 -0.1276403,0.04599 9.8315486,9.8315486 0 0 1 -0.1178243,0.04134 A 24.864681,24.864681 0 0 0 25.415098,49.865099 24.864681,24.864681 0 0 0 50.279729,24.999951 24.864681,24.864681 0 0 0 25.415098,0.13531999 a 24.864681,24.864681 0 0 0 -0.0186,0 z" />
    <circle
       style="display:inline;opacity:0.88141;mix-blend-mode:normal;fill:url(#radialGradient1561-9-6);fill-opacity:1;stroke:none;stroke-width:0.212909;stroke-opacity:1;paint-order:markers fill stroke"
       id="path1129-9-74"
       cx="25"
       cy="25.000183"
       r="25" />
    <circle
       style="display:inline;opacity:0.88141;mix-blend-mode:normal;fill:url(#radialGradient1561-8);fill-opacity:1;stroke:none;stroke-width:0.212909;stroke-opacity:1;paint-order:markers fill stroke"
       id="path1129-2"
       cx="25.415184"
       cy="25.000183"
       r="25" />
  </g>
</svg>
