<?xml version="1.0" encoding="UTF-8" standalone="no"?>
<svg
   xmlns:dc="http://purl.org/dc/elements/1.1/"
   xmlns:cc="http://creativecommons.org/ns#"
   xmlns:rdf="http://www.w3.org/1999/02/22-rdf-syntax-ns#"
   xmlns:svg="http://www.w3.org/2000/svg"
   xmlns="http://www.w3.org/2000/svg"
   xmlns:xlink="http://www.w3.org/1999/xlink"
   xmlns:sodipodi="http://sodipodi.sourceforge.net/DTD/sodipodi-0.dtd"
   xmlns:inkscape="http://www.inkscape.org/namespaces/inkscape"
   width="50mm"
   height="50mm"
   viewBox="0 0 50 50"
   version="1.1"
   id="svg8"
   inkscape:version="1.0.1 (3bc2e813f5, 2020-09-07)"
   sodipodi:docname="9-6.svg">
  <defs
     id="defs2">
    <radialGradient
       inkscape:collect="always"
       xlink:href="#linearGradient1135"
       id="radialGradient1561-9-5-3"
       cx="41.903854"
       cy="30.091272"
       fx="41.903854"
       fy="30.091272"
       r="32.127975"
       gradientTransform="matrix(0.77813807,0,0,0.7781381,-46.238373,9.9267266)"
       gradientUnits="userSpaceOnUse" />
    <linearGradient
       inkscape:collect="always"
       id="linearGradient1135">
      <stop
         style="stop-color:#ffffff;stop-opacity:1;"
         offset="0"
         id="stop1131" />
      <stop
         style="stop-color:#ffffff;stop-opacity:0;"
         offset="1"
         id="stop1133" />
    </linearGradient>
    <radialGradient
       inkscape:collect="always"
       xlink:href="#linearGradient1135"
       id="radialGradient1561-9-6"
       cx="54.447247"
       cy="49.531189"
       fx="54.447247"
       fy="49.531189"
       r="32.127975"
       gradientTransform="matrix(0.77813809,0,0,0.77813812,-3.3823633,4.4120854)"
       gradientUnits="userSpaceOnUse" />
    <radialGradient
       inkscape:collect="always"
       xlink:href="#linearGradient1135"
       id="radialGradient1561-8"
       cx="26.274075"
       cy="14.800471"
       fx="26.274075"
       fy="14.800471"
       r="32.127975"
       gradientTransform="matrix(0.77813809,0,0,0.77813812,-2.9671802,4.4120854)"
       gradientUnits="userSpaceOnUse" />
  </defs>
  <sodipodi:namedview
     id="base"
     pagecolor="#ffffff"
     bordercolor="#666666"
     borderopacity="1.0"
     inkscape:pageopacity="0.0"
     inkscape:pageshadow="2"
     inkscape:zoom="0.98994949"
     inkscape:cx="2.9247058"
     inkscape:cy="154.89275"
     inkscape:document-units="mm"
     inkscape:current-layer="layer1"
     inkscape:document-rotation="0"
     showgrid="false"
     inkscape:window-width="1920"
     inkscape:window-height="1017"
     inkscape:window-x="-8"
     inkscape:window-y="-8"
     inkscape:window-maximized="1" />
  <metadata
     id="metadata5">
    <rdf:RDF>
      <cc:Work
         rdf:about="">
        <dc:format>image/svg+xml</dc:format>
        <dc:type
           rdf:resource="http://purl.org/dc/dcmitype/StillImage" />
        <dc:title></dc:title>
      </cc:Work>
    </rdf:RDF>
  </metadata>
  <g
     inkscape:label="Layer 1"
     inkscape:groupmode="layer"
     id="layer1">
    <path
       id="path833-58"
       style="display:inline;fill:#ffffff;fill-opacity:1;stroke:#000000;stroke-width:0.27064;stroke-opacity:1;paint-order:markers fill stroke"
       d="M 0.66357081,22.635238 1.4371675,22.303474 2.0510829,21.642016 c 0,0 0.047199,-1.039358 0,-1.22835 C 2.0038419,20.224683 1.6257863,19.516049 1.6257863,19.516049 L 1.2356291,19.203923 a 24.86468,24.86468 0 0 0 -0.57205829,3.431315 z" />
    <path
       id="path1185"
       style="display:inline;fill:#ffffff;fill-opacity:1;stroke:#000000;stroke-width:0.27064;stroke-opacity:1;paint-order:markers fill stroke"
       d="m 0.57055391,25.993173 0.1576123,-0.0987 0.56689099,-0.708486 v -0.330729 l -0.74414069,0.248047 a 24.86468,24.86468 0 0 0 0.019632,0.88987 z" />
    <path
       id="path1183"
       style="display:inline;fill:#000000;fill-opacity:1;stroke:#000000;stroke-width:0.27064;stroke-opacity:1;paint-order:markers fill stroke"
       d="M 0.93073651,29.328367 1.4371675,29.201761 2.334785,28.63487 3.6101614,27.642682 4.4607545,26.745062 5.0276454,25.941495 5.452942,24.99685 5.6420767,24.146257 5.8306955,23.15407 5.8782385,22.25645 5.7836711,21.122668 5.452942,20.13048 4.9806184,19.09075 4.1770497,18.051538 3.0908134,17.295512 2.0040558,16.870216 l -0.083198,-0.0093 a 24.86468,24.86468 0 0 0 -0.6051312,2.017964 24.86468,24.86468 0 0 0 -0.080097,0.325046 l 0.3901572,0.312126 c 0,0 0.3780552,0.708634 0.4252966,0.897618 0.047199,0.188992 0,1.228349 0,1.228349 L 1.437168,22.303478 0.66357131,22.635241 a 24.86468,24.86468 0 0 0 -0.1131729,2.364714 24.86468,24.86468 0 0 0 5.292e-4,0.103351 L 1.2950677,24.855245 v 0.33073 l -0.56689099,0.708485 -0.1576122,0.0987 a 24.86468,24.86468 0 0 0 0.3601825,3.335193 z" />
    <path
       id="path1181"
       style="display:inline;fill:#000000;fill-opacity:1;stroke:#000000;stroke-width:0.27064;stroke-opacity:1;paint-order:markers fill stroke"
       d="m 1.4154611,31.499813 h 3.2168598 v -1.52394 H 1.054244 a 24.864679,24.864679 0 0 0 0.3234954,1.38338 24.864679,24.864679 0 0 0 0.037722,0.14056 z" />
    <path
       id="path1204"
       style="display:inline;fill:#ffffff;fill-opacity:1;stroke:#000000;stroke-width:0.27064;stroke-opacity:1;paint-order:markers fill stroke"
       d="m 2.3952476,15.602076 a 24.864679,24.864679 0 0 0 -0.47439,1.258837 l 0.083198,0.0093 1.0867576,0.425297 1.0862363,0.756025 0.8035687,1.039212 0.4723236,1.039731 0.3307291,0.992187 0.094567,1.133782 -0.047543,0.89762 -0.1886188,0.992188 -0.1891347,0.850593 -0.4252966,0.944645 -0.5668909,0.803567 -0.8505931,0.89762 -1.2753764,0.992187 -0.8976175,0.566891 -0.50643099,0.126606 a 24.864679,24.864679 0 0 0 0.12350809,0.64752 h 3.5780769 v 1.523939 H 1.4154611 a 24.864679,24.864679 0 0 0 0.8878014,2.669604 9.8315486,9.8315486 0 0 0 0.1178243,-0.04134 9.8315486,9.8315486 0 0 0 0.1276403,-0.04599 9.8315486,9.8315486 0 0 0 0.1266058,-0.04857 9.8315486,9.8315486 0 0 0 0.1260925,-0.05013 9.8315486,9.8315486 0 0 0 0.1250553,-0.05168 9.8315486,9.8315486 0 0 0 0.1250579,-0.05323 9.8315486,9.8315486 0 0 0 0.1235075,-0.05529 9.8315486,9.8315486 0 0 0 0.1235049,-0.05685 9.8315486,9.8315486 0 0 0 0.121957,-0.05839 9.8315486,9.8315486 0 0 0 0.1214385,-0.06046 9.8315486,9.8315486 0 0 0 0.1209252,-0.06201 9.8315486,9.8315486 0 0 0 0.119888,-0.06356 9.8315486,9.8315486 0 0 0 0.1188561,-0.06511 9.8315486,9.8315486 0 0 0 0.1178216,-0.06666 9.8315486,9.8315486 0 0 0 0.1173057,-0.06873 9.8315486,9.8315486 0 0 0 0.1157552,-0.06976 9.8315486,9.8315486 0 0 0 0.1152392,-0.07183 9.8315486,9.8315486 0 0 0 0.1142048,-0.07338 9.8315486,9.8315486 0 0 0 0.1131702,-0.07493 9.8315486,9.8315486 0 0 0 0.1121384,-0.07648 9.8315486,9.8315486 0 0 0 0.1111038,-0.07752 9.8315486,9.8315486 0 0 0 0.109556,-0.07958 9.8315486,9.8315486 0 0 0 0.1090348,-0.08113 9.8315486,9.8315486 0 0 0 0.1074896,-0.08216 9.8315486,9.8315486 0 0 0 0.1064525,-0.08423 9.8315486,9.8315486 0 0 0 0.1054206,-0.08527 9.8315486,9.8315486 0 0 0 0.104386,-0.08682 9.8315486,9.8315486 0 0 0 0.1028357,-0.08837 9.8315486,9.8315486 0 0 0 0.101801,-0.0894 9.8315486,9.8315486 0 0 0 0.1007692,-0.09147 9.8315486,9.8315486 0 0 0 0.099219,-0.09199 9.8315486,9.8315486 0 0 0 0.097668,-0.09405 9.8315486,9.8315486 0 0 0 0.096636,-0.09508 9.8315486,9.8315486 0 0 0 0.095602,-0.09663 9.8315486,9.8315486 0 0 0 0.093533,-0.09767 9.8315486,9.8315486 0 0 0 0.09302,-0.09922 9.8315486,9.8315486 0 0 0 0.09095,-0.100254 9.8315486,9.8315486 0 0 0 0.089916,-0.101285 9.8315486,9.8315486 0 0 0 0.088366,-0.102838 9.8315486,9.8315486 0 0 0 0.087334,-0.104386 9.8315486,9.8315486 0 0 0 0.085267,-0.104902 9.8315486,9.8315486 0 0 0 0.084233,-0.106455 9.8315486,9.8315486 0 0 0 0.082682,-0.107485 9.8315486,9.8315486 0 0 0 0.081132,-0.109037 9.8315486,9.8315486 0 0 0 0.079581,-0.109556 9.8315486,9.8315486 0 0 0 0.078031,-0.110588 9.8315486,9.8315486 0 0 0 0.076999,-0.112136 9.8315486,9.8315486 0 0 0 0.07493,-0.113173 9.8315486,9.8315486 0 0 0 0.07338,-0.113688 9.8315486,9.8315486 0 0 0 0.071832,-0.115237 9.8315486,9.8315486 0 0 0 0.070279,-0.115755 9.8315486,9.8315486 0 0 0 0.068731,-0.117306 9.8315486,9.8315486 0 0 0 0.067178,-0.117821 9.8315486,9.8315486 0 0 0 0.065114,-0.118857 9.8315486,9.8315486 0 0 0 0.064079,-0.119372 9.8315486,9.8315486 0 0 0 0.06201,-0.120406 9.8315486,9.8315486 0 0 0 0.060463,-0.121441 9.8315486,9.8315486 0 0 0 0.058909,-0.122473 9.8315486,9.8315486 0 0 0 0.056846,-0.122989 9.8315486,9.8315486 0 0 0 0.055809,-0.123508 9.8315486,9.8315486 0 0 0 0.053229,-0.124539 9.8315486,9.8315486 0 0 0 0.052192,-0.125574 9.8315486,9.8315486 0 0 0 0.050125,-0.12609 9.8315486,9.8315486 0 0 0 0.048577,-0.126608 9.8315486,9.8315486 0 0 0 0.046508,-0.127125 9.8315486,9.8315486 0 0 0 0.044958,-0.128156 9.8315486,9.8315486 0 0 0 0.043408,-0.128675 9.8315486,9.8315486 0 0 0 0.041341,-0.128674 9.8315486,9.8315486 0 0 0 0.039791,-0.129707 9.8315486,9.8315486 0 0 0 0.037724,-0.130225 9.8315486,9.8315486 0 0 0 0.036174,-0.130742 9.8315486,9.8315486 0 0 0 0.034108,-0.131259 9.8315486,9.8315486 0 0 0 0.032554,-0.131773 9.8315486,9.8315486 0 0 0 0.030491,-0.132292 9.8315486,9.8315486 0 0 0 0.028937,-0.132292 9.8315486,9.8315486 0 0 0 0.026874,-0.133326 9.8315486,9.8315486 0 0 0 0.024792,-0.133324 9.8315486,9.8315486 0 0 0 0.023759,-0.133326 9.8315486,9.8315486 0 0 0 0.021193,-0.133841 9.8315486,9.8315486 0 0 0 0.019632,-0.134358 9.8315486,9.8315486 0 0 0 0.017568,-0.13436 9.8315486,9.8315486 0 0 0 0.016007,-0.134874 9.8315486,9.8315486 0 0 0 0.013943,-0.134877 9.8315486,9.8315486 0 0 0 0.01188,-0.134874 9.8315486,9.8315486 0 0 0 0.010345,-0.135393 9.8315486,9.8315486 0 0 0 0.00878,-0.135392 9.8315486,9.8315486 0 0 0 0.00619,-0.135393 9.8315486,9.8315486 0 0 0 0.00466,-0.135392 9.8315486,9.8315486 0 0 0 0.0031,-0.135909 9.8315486,9.8315486 0 0 0 0.00106,-0.135392 9.8315486,9.8315486 0 0 0 -0.00106,-0.117822 9.8315486,9.8315486 0 0 0 -0.00265,-0.135908 9.8315486,9.8315486 0 0 0 -0.00413,-0.135393 9.8315486,9.8315486 0 0 0 -0.00619,-0.135393 9.8315486,9.8315486 0 0 0 -0.00825,-0.135392 9.8315486,9.8315486 0 0 0 -0.010345,-0.135393 9.8315486,9.8315486 0 0 0 -0.01188,-0.134874 9.8315486,9.8315486 0 0 0 -0.013441,-0.134876 9.8315486,9.8315486 0 0 0 -0.016007,-0.134874 9.8315486,9.8315486 0 0 0 -0.017066,-0.134361 9.8315486,9.8315486 0 0 0 -0.019632,-0.134358 9.8315486,9.8315486 0 0 0 -0.021193,-0.133842 9.8315486,9.8315486 0 0 0 -0.022728,-0.133842 9.8315486,9.8315486 0 0 0 -0.025321,-0.133324 9.8315486,9.8315486 0 0 0 -0.026352,-0.13281 9.8315486,9.8315486 0 0 0 -0.028424,-0.132808 9.8315486,9.8315486 0 0 0 -0.030488,-0.132292 9.8315486,9.8315486 0 0 0 -0.032038,-0.131257 9.8315486,9.8315486 0 0 0 -0.034107,-0.131775 9.8315486,9.8315486 0 0 0 -0.036174,-0.130742 9.8315486,9.8315486 0 0 0 -0.037206,-0.130225 9.8315486,9.8315486 0 0 0 -0.039791,-0.129707 9.8315486,9.8315486 0 0 0 -0.040825,-0.129193 9.8315486,9.8315486 0 0 0 -0.042892,-0.128672 9.8315486,9.8315486 0 0 0 -0.044958,-0.128159 9.8315486,9.8315486 0 0 0 -0.046508,-0.127124 9.8315486,9.8315486 0 0 0 -0.048062,-0.127125 9.8315486,9.8315486 0 0 0 -0.050125,-0.125571 9.8315486,9.8315486 0 0 0 -0.051676,-0.125574 9.8315486,9.8315486 0 0 0 -0.053745,-0.124542 9.8315486,9.8315486 0 0 0 -0.054777,-0.124023 9.8315486,9.8315486 0 0 0 -0.057359,-0.122989 9.8315486,9.8315486 0 0 0 -0.058396,-0.122473 9.8315486,9.8315486 0 0 0 -0.059944,-0.121441 9.8315486,9.8315486 0 0 0 -0.06201,-0.120923 9.8315486,9.8315486 0 0 0 -0.063563,-0.119372 9.8315486,9.8315486 0 0 0 -0.06563,-0.119372 9.8315486,9.8315486 0 0 0 -0.066662,-0.117822 9.8315486,9.8315486 0 0 0 -0.068212,-0.116789 9.8315486,9.8315486 0 0 0 -0.070281,-0.116271 9.8315486,9.8315486 0 0 0 -0.071829,-0.11524 9.8315486,9.8315486 0 0 0 -0.07338,-0.114204 9.8315486,9.8315486 0 0 0 -0.074414,-0.113173 9.8315486,9.8315486 0 0 0 -0.076483,-0.11162 9.8315486,9.8315486 0 0 0 -0.078031,-0.111104 9.8315486,9.8315486 0 0 0 -0.079581,-0.110072 9.8315486,9.8315486 0 0 0 -0.080616,-0.109037 9.8315486,9.8315486 0 0 0 -0.082682,-0.107487 9.8315486,9.8315486 0 0 0 -0.083714,-0.106453 9.8315486,9.8315486 0 0 0 -0.085783,-0.10542 9.8315486,9.8315486 0 0 0 -0.086818,-0.104386 9.8315486,9.8315486 0 0 0 -0.08785,-0.102836 9.8315486,9.8315486 0 0 0 -0.089916,-0.101804 9.8315486,9.8315486 0 0 0 -0.09095,-0.10025 9.8315486,9.8315486 0 0 0 -0.092501,-0.09922 9.8315486,9.8315486 0 0 0 -0.094051,-0.09819 9.8315486,9.8315486 0 0 0 -0.095086,-0.09663 9.8315486,9.8315486 0 0 0 -0.096118,-0.09509 9.8315486,9.8315486 0 0 0 -0.098184,-0.09405 9.8315486,9.8315486 0 0 0 -0.098703,-0.0925 9.8315486,9.8315486 0 0 0 -0.1002506,-0.09147 9.8315486,9.8315486 0 0 0 -0.1018037,-0.08992 9.8315486,9.8315486 0 0 0 -0.1028356,-0.08837 9.8315486,9.8315486 0 0 0 -0.1038702,-0.08682 9.8315486,9.8315486 0 0 0 -0.1054205,-0.08578 9.8315486,9.8315486 0 0 0 -0.1064525,-0.08423 9.8315486,9.8315486 0 0 0 -0.107487,-0.08268 9.8315486,9.8315486 0 0 0 -0.1085215,-0.08113 9.8315486,9.8315486 0 0 0 -0.1095534,-0.07958 9.8315486,9.8315486 0 0 0 -0.1111038,-0.07803 9.8315486,9.8315486 0 0 0 -0.1121383,-0.07648 9.8315486,9.8315486 0 0 0 -0.1126543,-0.07493 9.8315486,9.8315486 0 0 0 -0.1142048,-0.0739 9.8315486,9.8315486 0 0 0 -0.1147207,-0.07183 9.8315486,9.8315486 0 0 0 -0.1162738,-0.07028 9.8315486,9.8315486 0 0 0 -0.116787,-0.06873 9.8315486,9.8315486 0 0 0 -0.1178243,-0.06666 9.8315486,9.8315486 0 0 0 -0.1188561,-0.06563 9.8315486,9.8315486 0 0 0 -0.119888,-0.06408 9.8315486,9.8315486 0 0 0 -0.1204066,-0.06201 9.8315486,9.8315486 0 0 0 -0.1214385,-0.06046 9.8315486,9.8315486 0 0 0 -0.121957,-0.05891 9.8315486,9.8315486 0 0 0 -0.1229889,-0.05685 9.8315486,9.8315486 0 0 0 -0.1240235,-0.05529 9.8315486,9.8315486 0 0 0 -0.124542,-0.05375 9.8315486,9.8315486 0 0 0 -0.1250553,-0.05219 9.8315486,9.8315486 0 0 0 -0.1260925,-0.05013 9.8315486,9.8315486 0 0 0 -0.1266058,-0.04857 9.8315486,9.8315486 0 0 0 -0.1276403,-0.04651 9.8315486,9.8315486 0 0 0 -0.042376,-0.01497 z" />
    <path
       id="path1141"
       style="display:inline;fill:#ffffff;fill-opacity:1;stroke:#000000;stroke-width:0.27064;stroke-opacity:1;paint-order:markers fill stroke"
       d="M 42.680126,42.893432 H 8.1504511 a 24.864681,24.864681 0 0 0 17.2645809,6.971665 24.864681,24.864681 0 0 0 17.265094,-6.971665 z" />
    <path
       id="path987"
       style="display:inline;fill:#e6b242;fill-opacity:1;stroke:#000000;stroke-width:0.27064;stroke-opacity:1;paint-order:markers fill stroke"
       d="M 42.67806,7.1054372 H 8.1520015 a 24.864681,24.864681 0 0 0 -5.7567539,8.4966388 9.8315486,9.8315486 0 0 1 0.042376,0.01497 9.8315486,9.8315486 0 0 1 0.1276403,0.04651 9.8315486,9.8315486 0 0 1 0.1266059,0.04857 9.8315486,9.8315486 0 0 1 0.1260924,0.05013 9.8315486,9.8315486 0 0 1 0.1250553,0.05219 9.8315486,9.8315486 0 0 1 0.1245421,0.05375 9.8315486,9.8315486 0 0 1 0.1240234,0.05529 9.8315486,9.8315486 0 0 1 0.1229889,0.05685 9.8315486,9.8315486 0 0 1 0.1219571,0.05891 9.8315486,9.8315486 0 0 1 0.1214384,0.06046 9.8315486,9.8315486 0 0 1 0.1204066,0.06201 9.8315486,9.8315486 0 0 1 0.119888,0.06408 9.8315486,9.8315486 0 0 1 0.1188561,0.06563 9.8315486,9.8315486 0 0 1 0.1178243,0.06666 9.8315486,9.8315486 0 0 1 0.1167871,0.06873 9.8315486,9.8315486 0 0 1 0.1162738,0.07028 9.8315486,9.8315486 0 0 1 0.1147206,0.07183 9.8315486,9.8315486 0 0 1 0.1142048,0.0739 9.8315486,9.8315486 0 0 1 0.1126543,0.07493 9.8315486,9.8315486 0 0 1 0.1121383,0.07648 9.8315486,9.8315486 0 0 1 0.1111039,0.07803 9.8315486,9.8315486 0 0 1 0.1095533,0.07958 9.8315486,9.8315486 0 0 1 0.1085215,0.08113 9.8315486,9.8315486 0 0 1 0.107487,0.08268 9.8315486,9.8315486 0 0 1 0.1064525,0.08423 9.8315486,9.8315486 0 0 1 0.1054206,0.08578 9.8315486,9.8315486 0 0 1 0.1038701,0.08682 9.8315486,9.8315486 0 0 1 0.1028356,0.08837 9.8315486,9.8315486 0 0 1 0.1018037,0.08992 9.8315486,9.8315486 0 0 1 0.1002506,0.09147 9.8315486,9.8315486 0 0 1 0.098703,0.0925 9.8315486,9.8315486 0 0 1 0.098184,0.09405 9.8315486,9.8315486 0 0 1 0.096118,0.09509 9.8315486,9.8315486 0 0 1 0.095086,0.09663 9.8315486,9.8315486 0 0 1 0.094051,0.09819 9.8315486,9.8315486 0 0 1 0.092501,0.09922 9.8315486,9.8315486 0 0 1 0.09095,0.100251 9.8315486,9.8315486 0 0 1 0.089916,0.101804 9.8315486,9.8315486 0 0 1 0.08785,0.102835 9.8315486,9.8315486 0 0 1 0.086818,0.104386 9.8315486,9.8315486 0 0 1 0.085783,0.105421 9.8315486,9.8315486 0 0 1 0.083714,0.106452 9.8315486,9.8315486 0 0 1 0.082682,0.107487 9.8315486,9.8315486 0 0 1 0.080616,0.109038 9.8315486,9.8315486 0 0 1 0.079581,0.110072 9.8315486,9.8315486 0 0 1 0.078031,0.111104 9.8315486,9.8315486 0 0 1 0.076483,0.111619 9.8315486,9.8315486 0 0 1 0.074414,0.113173 9.8315486,9.8315486 0 0 1 0.073379,0.114205 9.8315486,9.8315486 0 0 1 0.071829,0.115239 9.8315486,9.8315486 0 0 1 0.070281,0.116272 9.8315486,9.8315486 0 0 1 0.068212,0.116789 9.8315486,9.8315486 0 0 1 0.066662,0.117822 9.8315486,9.8315486 0 0 1 0.06563,0.119372 9.8315486,9.8315486 0 0 1 0.063563,0.119372 9.8315486,9.8315486 0 0 1 0.06201,0.120922 9.8315486,9.8315486 0 0 1 0.059944,0.121442 9.8315486,9.8315486 0 0 1 0.058396,0.122473 9.8315486,9.8315486 0 0 1 0.057359,0.122988 9.8315486,9.8315486 0 0 1 0.054777,0.124024 9.8315486,9.8315486 0 0 1 0.053745,0.124542 9.8315486,9.8315486 0 0 1 0.051676,0.125574 9.8315486,9.8315486 0 0 1 0.050125,0.125571 9.8315486,9.8315486 0 0 1 0.048062,0.127124 9.8315486,9.8315486 0 0 1 0.046508,0.127125 9.8315486,9.8315486 0 0 1 0.044958,0.128159 9.8315486,9.8315486 0 0 1 0.042892,0.128672 9.8315486,9.8315486 0 0 1 0.040825,0.129193 9.8315486,9.8315486 0 0 1 0.039791,0.129707 9.8315486,9.8315486 0 0 1 0.037206,0.130225 9.8315486,9.8315486 0 0 1 0.036174,0.130741 9.8315486,9.8315486 0 0 1 0.034107,0.131776 9.8315486,9.8315486 0 0 1 0.032038,0.131257 9.8315486,9.8315486 0 0 1 0.030488,0.132292 9.8315486,9.8315486 0 0 1 0.028424,0.132808 9.8315486,9.8315486 0 0 1 0.026353,0.13281 9.8315486,9.8315486 0 0 1 0.025321,0.133323 9.8315486,9.8315486 0 0 1 0.022728,0.133842 9.8315486,9.8315486 0 0 1 0.021193,0.133843 9.8315486,9.8315486 0 0 1 0.019632,0.134358 9.8315486,9.8315486 0 0 1 0.017066,0.13436 9.8315486,9.8315486 0 0 1 0.016007,0.134874 9.8315486,9.8315486 0 0 1 0.013441,0.134877 9.8315486,9.8315486 0 0 1 0.01188,0.134874 9.8315486,9.8315486 0 0 1 0.010345,0.135393 9.8315486,9.8315486 0 0 1 0.00826,0.135392 9.8315486,9.8315486 0 0 1 0.00619,0.135393 9.8315486,9.8315486 0 0 1 0.00413,0.135392 9.8315486,9.8315486 0 0 1 0.00265,0.135909 9.8315486,9.8315486 0 0 1 0.00106,0.117821 9.8315486,9.8315486 0 0 1 -0.00106,0.135393 9.8315486,9.8315486 0 0 1 -0.0031,0.135909 9.8315486,9.8315486 0 0 1 -0.00466,0.135392 9.8315486,9.8315486 0 0 1 -0.00619,0.135393 9.8315486,9.8315486 0 0 1 -0.00878,0.135392 9.8315486,9.8315486 0 0 1 -0.010345,0.135393 9.8315486,9.8315486 0 0 1 -0.01188,0.134874 9.8315486,9.8315486 0 0 1 -0.013943,0.134877 9.8315486,9.8315486 0 0 1 -0.016007,0.134874 9.8315486,9.8315486 0 0 1 -0.017568,0.13436 9.8315486,9.8315486 0 0 1 -0.019632,0.134358 9.8315486,9.8315486 0 0 1 -0.021193,0.133841 9.8315486,9.8315486 0 0 1 -0.02376,0.133326 9.8315486,9.8315486 0 0 1 -0.024791,0.133324 9.8315486,9.8315486 0 0 1 -0.026874,0.133326 9.8315486,9.8315486 0 0 1 -0.028938,0.132292 9.8315486,9.8315486 0 0 1 -0.030491,0.132291 9.8315486,9.8315486 0 0 1 -0.032554,0.131773 9.8315486,9.8315486 0 0 1 -0.034107,0.13126 9.8315486,9.8315486 0 0 1 -0.036174,0.130741 9.8315486,9.8315486 0 0 1 -0.037724,0.130226 9.8315486,9.8315486 0 0 1 -0.039791,0.129706 9.8315486,9.8315486 0 0 1 -0.041341,0.128675 9.8315486,9.8315486 0 0 1 -0.043408,0.128675 9.8315486,9.8315486 0 0 1 -0.044958,0.128156 9.8315486,9.8315486 0 0 1 -0.046508,0.127125 9.8315486,9.8315486 0 0 1 -0.048578,0.126608 9.8315486,9.8315486 0 0 1 -0.050125,0.12609 9.8315486,9.8315486 0 0 1 -0.052192,0.125574 9.8315486,9.8315486 0 0 1 -0.053229,0.124539 9.8315486,9.8315486 0 0 1 -0.055809,0.123508 9.8315486,9.8315486 0 0 1 -0.056846,0.122989 9.8315486,9.8315486 0 0 1 -0.05891,0.122473 9.8315486,9.8315486 0 0 1 -0.060462,0.121441 9.8315486,9.8315486 0 0 1 -0.06201,0.120406 9.8315486,9.8315486 0 0 1 -0.06408,0.119372 9.8315486,9.8315486 0 0 1 -0.065114,0.118856 9.8315486,9.8315486 0 0 1 -0.067178,0.117822 9.8315486,9.8315486 0 0 1 -0.068731,0.117306 9.8315486,9.8315486 0 0 1 -0.070279,0.115755 9.8315486,9.8315486 0 0 1 -0.071832,0.115237 9.8315486,9.8315486 0 0 1 -0.07338,0.113688 9.8315486,9.8315486 0 0 1 -0.07493,0.113173 9.8315486,9.8315486 0 0 1 -0.076999,0.112136 9.8315486,9.8315486 0 0 1 -0.078031,0.110588 9.8315486,9.8315486 0 0 1 -0.079581,0.109556 9.8315486,9.8315486 0 0 1 -0.081132,0.109037 9.8315486,9.8315486 0 0 1 -0.082682,0.107485 9.8315486,9.8315486 0 0 1 -0.084233,0.106455 9.8315486,9.8315486 0 0 1 -0.085267,0.104902 9.8315486,9.8315486 0 0 1 -0.087334,0.104386 9.8315486,9.8315486 0 0 1 -0.088366,0.102838 9.8315486,9.8315486 0 0 1 -0.089916,0.101285 9.8315486,9.8315486 0 0 1 -0.090951,0.100253 9.8315486,9.8315486 0 0 1 -0.09302,0.09922 9.8315486,9.8315486 0 0 1 -0.093533,0.09767 9.8315486,9.8315486 0 0 1 -0.095602,0.09663 9.8315486,9.8315486 0 0 1 -0.096636,0.09508 9.8315486,9.8315486 0 0 1 -0.097668,0.09405 9.8315486,9.8315486 0 0 1 -0.099219,0.09199 9.8315486,9.8315486 0 0 1 -0.1007692,0.09147 9.8315486,9.8315486 0 0 1 -0.1018011,0.0894 9.8315486,9.8315486 0 0 1 -0.1028356,0.08837 9.8315486,9.8315486 0 0 1 -0.1043861,0.08682 9.8315486,9.8315486 0 0 1 -0.1054206,0.08527 9.8315486,9.8315486 0 0 1 -0.1064524,0.08423 9.8315486,9.8315486 0 0 1 -0.1074897,0.08216 9.8315486,9.8315486 0 0 1 -0.1090348,0.08113 9.8315486,9.8315486 0 0 1 -0.109556,0.07958 9.8315486,9.8315486 0 0 1 -0.1111038,0.07751 9.8315486,9.8315486 0 0 1 -0.1121384,0.07648 9.8315486,9.8315486 0 0 1 -0.1131702,0.07493 9.8315486,9.8315486 0 0 1 -0.1142047,0.07338 9.8315486,9.8315486 0 0 1 -0.1152393,0.07183 9.8315486,9.8315486 0 0 1 -0.1157552,0.06976 9.8315486,9.8315486 0 0 1 -0.1173057,0.06873 9.8315486,9.8315486 0 0 1 -0.1178216,0.06666 9.8315486,9.8315486 0 0 1 -0.1188561,0.06511 9.8315486,9.8315486 0 0 1 -0.119888,0.06356 9.8315486,9.8315486 0 0 1 -0.1209252,0.06201 9.8315486,9.8315486 0 0 1 -0.1214384,0.06046 9.8315486,9.8315486 0 0 1 -0.1219571,0.05839 9.8315486,9.8315486 0 0 1 -0.1235048,0.05685 9.8315486,9.8315486 0 0 1 -0.1235075,0.05529 9.8315486,9.8315486 0 0 1 -0.125058,0.05323 9.8315486,9.8315486 0 0 1 -0.1250553,0.05168 9.8315486,9.8315486 0 0 1 -0.1260925,0.05013 9.8315486,9.8315486 0 0 1 -0.1266058,0.04857 9.8315486,9.8315486 0 0 1 -0.1276403,0.04599 9.8315486,9.8315486 0 0 1 -0.1178243,0.04134 24.864681,24.864681 0 0 0 5.8471886,8.724016 H 42.680208 A 24.864681,24.864681 0 0 0 50.279745,24.999941 24.864681,24.864681 0 0 0 42.678142,7.1054266 Z" />
    <path
       id="path985"
       style="display:inline;fill:#ffffff;fill-opacity:1;stroke:#000000;stroke-width:0.27064;stroke-opacity:1;paint-order:markers fill stroke"
       d="M 25.396427,0.13531999 A 24.864681,24.864681 0 0 0 8.1520015,7.1054372 H 42.67806 a 24.864681,24.864681 0 0 0 -17.263028,-6.97011721 24.864681,24.864681 0 0 0 -0.0186,0 z" />
    <circle
       style="display:inline;opacity:0.88141;mix-blend-mode:normal;fill:url(#radialGradient1561-9-6);fill-opacity:1;stroke:none;stroke-width:0.212909;stroke-opacity:1;paint-order:markers fill stroke"
       id="path1129-9-74"
       cx="25"
       cy="25.000324"
       r="25" />
    <circle
       style="display:inline;opacity:0.88141;mix-blend-mode:normal;fill:url(#radialGradient1561-8);fill-opacity:1;stroke:none;stroke-width:0.212909;stroke-opacity:1;paint-order:markers fill stroke"
       id="path1129-2"
       cx="25.415184"
       cy="25.000324"
       r="25" />
  </g>
</svg>
