<?xml version="1.0" encoding="UTF-8" standalone="no"?>
<svg
   xmlns:dc="http://purl.org/dc/elements/1.1/"
   xmlns:cc="http://creativecommons.org/ns#"
   xmlns:rdf="http://www.w3.org/1999/02/22-rdf-syntax-ns#"
   xmlns:svg="http://www.w3.org/2000/svg"
   xmlns="http://www.w3.org/2000/svg"
   xmlns:xlink="http://www.w3.org/1999/xlink"
   xmlns:sodipodi="http://sodipodi.sourceforge.net/DTD/sodipodi-0.dtd"
   xmlns:inkscape="http://www.inkscape.org/namespaces/inkscape"
   width="50mm"
   height="50mm"
   viewBox="0 0 50 50"
   version="1.1"
   id="svg8"
   inkscape:version="1.0.1 (3bc2e813f5, 2020-09-07)"
   sodipodi:docname="9-7.svg">
  <defs
     id="defs2">
    <radialGradient
       inkscape:collect="always"
       xlink:href="#linearGradient1135"
       id="radialGradient1561-9-5-3"
       cx="41.903854"
       cy="30.091272"
       fx="41.903854"
       fy="30.091272"
       r="32.127975"
       gradientTransform="matrix(0.77813807,0,0,0.7781381,-46.238373,9.9267266)"
       gradientUnits="userSpaceOnUse" />
    <linearGradient
       inkscape:collect="always"
       id="linearGradient1135">
      <stop
         style="stop-color:#ffffff;stop-opacity:1;"
         offset="0"
         id="stop1131" />
      <stop
         style="stop-color:#ffffff;stop-opacity:0;"
         offset="1"
         id="stop1133" />
    </linearGradient>
    <radialGradient
       inkscape:collect="always"
       xlink:href="#linearGradient1135"
       id="radialGradient1561-9-67"
       cx="54.447247"
       cy="49.531189"
       fx="54.447247"
       fy="49.531189"
       r="32.127975"
       gradientTransform="matrix(0.77813809,0,0,0.77813812,-3.3823613,4.412129)"
       gradientUnits="userSpaceOnUse" />
    <radialGradient
       inkscape:collect="always"
       xlink:href="#linearGradient1135"
       id="radialGradient1561-637"
       cx="26.274075"
       cy="14.800471"
       fx="26.274075"
       fy="14.800471"
       r="32.127975"
       gradientTransform="matrix(0.77813809,0,0,0.77813812,-3.3823613,4.412129)"
       gradientUnits="userSpaceOnUse" />
  </defs>
  <sodipodi:namedview
     id="base"
     pagecolor="#ffffff"
     bordercolor="#666666"
     borderopacity="1.0"
     inkscape:pageopacity="0.0"
     inkscape:pageshadow="2"
     inkscape:zoom="0.98994949"
     inkscape:cx="2.9247058"
     inkscape:cy="154.89275"
     inkscape:document-units="mm"
     inkscape:current-layer="layer1"
     inkscape:document-rotation="0"
     showgrid="false"
     inkscape:window-width="1920"
     inkscape:window-height="1017"
     inkscape:window-x="-8"
     inkscape:window-y="-8"
     inkscape:window-maximized="1" />
  <metadata
     id="metadata5">
    <rdf:RDF>
      <cc:Work
         rdf:about="">
        <dc:format>image/svg+xml</dc:format>
        <dc:type
           rdf:resource="http://purl.org/dc/dcmitype/StillImage" />
        <dc:title></dc:title>
      </cc:Work>
    </rdf:RDF>
  </metadata>
  <g
     inkscape:label="Layer 1"
     inkscape:groupmode="layer"
     id="layer1">
    <path
       id="path833-77"
       style="display:inline;fill:#fffffd;fill-opacity:1;stroke:#000000;stroke-width:0.27064;stroke-opacity:1;paint-order:markers fill stroke"
       d="m 1.7011897,33.683816 a 9.8315486,9.8315486 0 0 0 0.076,0.04909 9.8315486,9.8315486 0 0 0 0.11524,0.07183 9.8315486,9.8315486 0 0 0 0.11575,0.07028 9.8315486,9.8315486 0 0 0 0.11731,0.06873 9.8315486,9.8315486 0 0 0 0.11782,0.06718 9.8315486,9.8315486 0 0 0 0.11886,0.06511 9.8315486,9.8315486 0 0 0 0.11937,0.06408 9.8315486,9.8315486 0 0 0 0.12041,0.06201 9.8315486,9.8315486 0 0 0 0.12144,0.06046 9.8315486,9.8315486 0 0 0 0.12247,0.05891 9.8315486,9.8315486 0 0 0 0.122991,0.05684 9.8315486,9.8315486 0 0 0 0.123509,0.05581 9.8315486,9.8315486 0 0 0 0.12505,0.05375 9.8315486,9.8315486 0 0 0 0.12506,0.05168 9.8315486,9.8315486 0 0 0 0.12609,0.05012 9.8315486,9.8315486 0 0 0 0.12661,0.04858 9.8315486,9.8315486 0 0 0 0.12712,0.04651 9.8315486,9.8315486 0 0 0 0.12816,0.04547 9.8315486,9.8315486 0 0 0 0.12867,0.04289 9.8315486,9.8315486 0 0 0 0.12868,0.04134 9.8315486,9.8315486 0 0 0 0.1297,0.03979 9.8315486,9.8315486 0 0 0 0.13023,0.03772 9.8315486,9.8315486 0 0 0 0.130741,0.03617 9.8315486,9.8315486 0 0 0 0.131259,0.0341 9.8315486,9.8315486 0 0 0 0.13177,0.03256 9.8315486,9.8315486 0 0 0 0.1323,0.03049 9.8315486,9.8315486 0 0 0 0.13229,0.02894 9.8315486,9.8315486 0 0 0 0.13332,0.02687 9.8315486,9.8315486 0 0 0 0.13333,0.02532 9.8315486,9.8315486 0 0 0 0.133321,0.02326 9.8315486,9.8315486 0 0 0 0.133849,0.02119 9.8315486,9.8315486 0 0 0 0.13435,0.01963 9.8315486,9.8315486 0 0 0 0.13436,0.01757 9.8315486,9.8315486 0 0 0 0.13488,0.01603 9.8315486,9.8315486 0 0 0 0.13487,0.01394 9.8315486,9.8315486 0 0 0 0.13488,0.01241 9.8315486,9.8315486 0 0 0 0.135391,0.0098 9.8315486,9.8315486 0 0 0 0.135389,0.0088 9.8315486,9.8315486 0 0 0 0.1354,0.0062 9.8315486,9.8315486 0 0 0 0.13539,0.0046 9.8315486,9.8315486 0 0 0 0.13591,0.0031 9.8315486,9.8315486 0 0 0 0.13539,0.0011 9.8315486,9.8315486 0 0 0 0.11782,-0.0011 9.8315486,9.8315486 0 0 0 0.1359105,-0.0026 9.8315486,9.8315486 0 0 0 0.1353899,-0.0041 9.8315486,9.8315486 0 0 0 0.1354,-0.0062 9.8315486,9.8315486 0 0 0 0.13539,-0.0083 9.8315486,9.8315486 0 0 0 0.1353899,-0.01034 9.8315486,9.8315486 0 0 0 0.13487,-0.01188 9.8315486,9.8315486 0 0 0 0.1348801,-0.01344 9.8315486,9.8315486 0 0 0 0.1348801,-0.01601 9.8315486,9.8315486 0 0 0 0.1343599,-0.01704 9.8315486,9.8315486 0 0 0 0.1343499,-0.01963 9.8315486,9.8315486 0 0 0 0.13385,-0.02119 9.8315486,9.8315486 0 0 0 0.13384,-0.02273 9.8315486,9.8315486 0 0 0 0.1333202,-0.02482 9.8315486,9.8315486 0 0 0 0.1328099,-0.02687 9.8315486,9.8315486 0 0 0 0.13281,-0.02842 9.8315486,9.8315486 0 0 0 0.1322901,-0.03049 9.8315486,9.8315486 0 0 0 0.13178,-0.03204 9.8315486,9.8315486 0 0 0 0.13125,-0.03411 9.8315486,9.8315486 0 0 0 0.1307499,-0.03617 9.8315486,9.8315486 0 0 0 0.13022,-0.03721 9.8315486,9.8315486 0 0 0 0.1297101,-0.03979 9.8315486,9.8315486 0 0 0 0.1291898,-0.04082 9.8315486,9.8315486 0 0 0 0.12867,-0.04289 9.8315486,9.8315486 0 0 0 0.12816,-0.04496 9.8315486,9.8315486 0 0 0 0.12713,-0.04651 9.8315486,9.8315486 0 0 0 0.12712,-0.04806 9.8315486,9.8315486 0 0 0 0.12609,-0.05013 9.8315486,9.8315486 0 0 0 0.12506,-0.05168 9.8315486,9.8315486 0 0 0 0.12454,-0.05374 9.8315486,9.8315486 0 0 0 0.12402,-0.05478 9.8315486,9.8315486 0 0 0 0.12299,-0.05684 9.8315486,9.8315486 0 0 0 0.12247,-0.05891 9.8315486,9.8315486 0 0 0 0.12144,-0.05994 9.8315486,9.8315486 0 0 0 0.12093,-0.06201 9.8315486,9.8315486 0 0 0 0.11937,-0.06356 9.8315486,9.8315486 0 0 0 0.11937,-0.06511 9.8315486,9.8315486 0 0 0 0.11782,-0.06718 9.8315486,9.8315486 0 0 0 0.11679,-0.06821 9.8315486,9.8315486 0 0 0 0.11627,-0.07028 9.8315486,9.8315486 0 0 0 0.11524,-0.07183 9.8315486,9.8315486 0 0 0 0.11421,-0.07286 9.8315486,9.8315486 0 0 0 0.11317,-0.07493 9.8315486,9.8315486 0 0 0 0.11214,-0.07648 9.8315486,9.8315486 0 0 0 0.11058,-0.07803 9.8315486,9.8315486 0 0 0 0.11008,-0.07958 9.8315486,9.8315486 0 0 0 0.10903,-0.08062 9.8315486,9.8315486 0 0 0 0.10749,-0.08268 9.8315486,9.8315486 0 0 0 0.10645,-0.08372 9.8315486,9.8315486 0 0 0 0.10542,-0.08527 9.8315486,9.8315486 0 0 0 0.10439,-0.08682 9.8315486,9.8315486 0 0 0 0.10283,-0.08837 9.8315486,9.8315486 0 0 0 0.10181,-0.08992 9.8315486,9.8315486 0 0 0 0.10025,-0.09095 9.8315486,9.8315486 0 0 0 0.0992,-0.0925 9.8315486,9.8315486 0 0 0 0.0982,-0.09354 9.8315486,9.8315486 0 0 0 0.0966,-0.0956 9.8315486,9.8315486 0 0 0 0.0951,-0.09612 9.8315486,9.8315486 0 0 0 0.0941,-0.09767 9.8315486,9.8315486 0 0 0 0.0925,-0.09922 9.8315486,9.8315486 0 0 0 0.0915,-0.100253 9.8315486,9.8315486 0 0 0 0.0899,-0.101801 9.8315486,9.8315486 0 0 0 0.0884,-0.102836 9.8315486,9.8315486 0 0 0 0.0868,-0.10387 9.8315486,9.8315486 0 0 0 0.0858,-0.105421 9.8315486,9.8315486 0 0 0 0.0842,-0.106452 9.8315486,9.8315486 0 0 0 0.0827,-0.107487 9.8315486,9.8315486 0 0 0 0.0811,-0.108522 9.8315486,9.8315486 0 0 0 0.0796,-0.109553 9.8315486,9.8315486 0 0 0 0.078,-0.111104 9.8315486,9.8315486 0 0 0 0.0765,-0.112138 9.8315486,9.8315486 0 0 0 0.0749,-0.112655 9.8315486,9.8315486 0 0 0 0.0739,-0.114204 9.8315486,9.8315486 0 0 0 0.0718,-0.114724 9.8315486,9.8315486 0 0 0 0.0703,-0.116271 9.8315486,9.8315486 0 0 0 0.0687,-0.116789 9.8315486,9.8315486 0 0 0 0.0667,-0.117822 9.8315486,9.8315486 0 0 0 0.0656,-0.118856 9.8315486,9.8315486 0 0 0 0.0641,-0.119888 9.8315486,9.8315486 0 0 0 0.062,-0.120407 9.8315486,9.8315486 0 0 0 0.0605,-0.121441 9.8315486,9.8315486 0 0 0 0.0589,-0.121954 9.8315486,9.8315486 0 0 0 0.0568,-0.122992 9.8315486,9.8315486 0 0 0 0.0553,-0.124023 9.8315486,9.8315486 0 0 0 0.0537,-0.12454 9.8315486,9.8315486 0 0 0 0.0522,-0.125058 9.8315486,9.8315486 0 0 0 0.0501,-0.126089 9.8315486,9.8315486 0 0 0 0.0486,-0.126606 9.8315486,9.8315486 0 0 0 0.0465,-0.127643 9.8315486,9.8315486 0 0 0 0.045,-0.12764 9.8315486,9.8315486 0 0 0 0.0434,-0.128675 9.8315486,9.8315486 0 0 0 0.0413,-0.129191 9.8315486,9.8315486 0 0 0 0.0398,-0.129707 9.8315486,9.8315486 0 0 0 0.0377,-0.130225 9.8315486,9.8315486 0 0 0 0.0362,-0.130741 9.8315486,9.8315486 0 0 0 0.0341,-0.131257 9.8315486,9.8315486 0 0 0 0.0326,-0.131776 9.8315486,9.8315486 0 0 0 0.0305,-0.131776 9.8315486,9.8315486 0 0 0 0.0284,-0.132807 9.8315486,9.8315486 0 0 0 0.0274,-0.132808 9.8315486,9.8315486 0 0 0 0.0248,-0.133326 9.8315486,9.8315486 0 0 0 0.0232,-0.133842 9.8315486,9.8315486 0 0 0 0.0217,-0.133842 9.8315486,9.8315486 0 0 0 0.0196,-0.133843 9.8315486,9.8315486 0 0 0 0.0176,-0.134874 9.8315486,9.8315486 0 0 0 0.016,-0.13436 9.8315486,9.8315486 0 0 0 0.014,-0.134875 9.8315486,9.8315486 0 0 0 0.0119,-0.135392 9.8315486,9.8315486 0 0 0 0.0103,-0.134877 9.8315486,9.8315486 0 0 0 0.008,-0.13539 9.8315486,9.8315486 0 0 0 0.007,-0.135391 9.8315486,9.8315486 0 0 0 0.005,-0.135913 9.8315486,9.8315486 0 0 0 0.003,-0.13539 9.8315486,9.8315486 0 0 0 10e-4,-0.135911 9.8315486,9.8315486 0 0 0 -5.29e-4,-0.117821 9.8315486,9.8315486 0 0 0 -0.003,-0.135393 9.8315486,9.8315486 0 0 0 -0.005,-0.135392 9.8315486,9.8315486 0 0 0 -0.006,-0.135909 9.8315486,9.8315486 0 0 0 -0.008,-0.135393 9.8315486,9.8315486 0 0 0 -0.01,-0.134874 9.8315486,9.8315486 0 0 0 -0.0119,-0.135392 9.8315486,9.8315486 0 0 0 -0.014,-0.134877 9.8315486,9.8315486 0 0 0 -0.0155,-0.134358 9.8315486,9.8315486 0 0 0 -0.0176,-0.134876 9.8315486,9.8315486 0 0 0 -0.0191,-0.13384 9.8315486,9.8315486 0 0 0 -0.0212,-0.134361 9.8315486,9.8315486 0 0 0 -0.0233,-0.133323 9.8315486,9.8315486 0 0 0 -0.0248,-0.133326 9.8315486,9.8315486 0 0 0 -0.0269,-0.133327 9.8315486,9.8315486 0 0 0 -0.0284,-0.132291 9.8315486,9.8315486 0 0 0 -0.0305,-0.132292 9.8315486,9.8315486 0 0 0 -0.032,-0.131773 9.8315486,9.8315486 0 0 0 -0.0341,-0.13126 9.8315486,9.8315486 0 0 0 -0.0357,-0.130741 9.8315486,9.8315486 0 0 0 -0.0377,-0.130223 9.8315486,9.8315486 0 0 0 -0.0393,-0.129709 9.8315486,9.8315486 0 0 0 -0.0413,-0.129191 9.8315486,9.8315486 0 0 0 -0.0429,-0.128675 9.8315486,9.8315486 0 0 0 -0.0444,-0.128156 9.8315486,9.8315486 0 0 0 -0.0465,-0.127643 9.8315486,9.8315486 0 0 0 -0.0486,-0.126605 9.8315486,9.8315486 0 0 0 -0.0496,-0.12609 9.8315486,9.8315486 0 0 0 -0.0522,-0.125574 9.8315486,9.8315486 0 0 0 -0.0532,-0.124542 9.8315486,9.8315486 0 0 0 -0.0553,-0.123505 9.8315486,9.8315486 0 0 0 -0.0568,-0.123508 9.8315486,9.8315486 0 0 0 -0.0584,-0.121957 9.8315486,9.8315486 0 0 0 -0.0605,-0.121954 9.8315486,9.8315486 0 0 0 -0.062,-0.120407 9.8315486,9.8315486 0 0 0 -0.0636,-0.11989 9.8315486,9.8315486 0 0 0 -0.0651,-0.118856 9.8315486,9.8315486 0 0 0 -0.0667,-0.117822 9.8315486,9.8315486 0 0 0 -0.0687,-0.117306 9.8315486,9.8315486 0 0 0 -0.0698,-0.116271 9.8315486,9.8315486 0 0 0 -0.0718,-0.114723 9.8315486,9.8315486 0 0 0 -0.0734,-0.114205 9.8315486,9.8315486 0 0 0 -0.0749,-0.11317 9.8315486,9.8315486 0 0 0 -0.076,-0.112138 9.8315486,9.8315486 0 0 0 -0.078,-0.111104 9.8315486,9.8315486 0 0 0 -0.0796,-0.109554 9.8315486,9.8315486 0 0 0 -0.0811,-0.109037 9.8315486,9.8315486 0 0 0 -0.0822,-0.107487 9.8315486,9.8315486 0 0 0 -0.0842,-0.106971 9.8315486,9.8315486 0 0 0 -0.0853,-0.104902 9.8315486,9.8315486 0 0 0 -0.0868,-0.104386 9.8315486,9.8315486 0 0 0 -0.0884,-0.102838 9.8315486,9.8315486 0 0 0 -0.0894,-0.101801 9.8315486,9.8315486 0 0 0 -0.0909,-0.10077 9.8315486,9.8315486 0 0 0 -0.0925,-0.09922 9.8315486,9.8315486 0 0 0 -0.0941,-0.09767 9.8315486,9.8315486 0 0 0 -0.0951,-0.09664 9.8315486,9.8315486 0 0 0 -0.0966,-0.0956 9.8315486,9.8315486 0 0 0 -0.0977,-0.09405 9.8315486,9.8315486 0 0 0 -0.0992,-0.0925 9.8315486,9.8315486 0 0 0 -0.10025,-0.09095 9.8315486,9.8315486 0 0 0 -0.10129,-0.08992 9.8315486,9.8315486 0 0 0 -0.10284,-0.08837 9.8315486,9.8315486 0 0 0 -0.10438,-0.08733 9.8315486,9.8315486 0 0 0 -0.1049,-0.08526 9.8315486,9.8315486 0 0 0 -0.10646,-0.08423 9.8315486,9.8315486 0 0 0 -0.10749,-0.08268 9.8315486,9.8315486 0 0 0 -0.10851,-0.08113 9.8315486,9.8315486 0 0 0 -0.11008,-0.07958 9.8315486,9.8315486 0 0 0 -0.11058,-0.07803 9.8315486,9.8315486 0 0 0 -0.11214,-0.077 9.8315486,9.8315486 0 0 0 -0.11317,-0.07493 9.8315486,9.8315486 0 0 0 -0.11369,-0.07338 9.8315486,9.8315486 0 0 0 -0.11524,-0.07183 9.8315486,9.8315486 0 0 0 -0.11575,-0.07028 9.8315486,9.8315486 0 0 0 -0.11679,-0.06873 9.8315486,9.8315486 0 0 0 -0.11834,-0.06718 9.8315486,9.8315486 0 0 0 -0.11834,-0.06563 9.8315486,9.8315486 0 0 0 -0.11989,-0.06356 9.8315486,9.8315486 0 0 0 -0.12041,-0.06201 9.8315486,9.8315486 0 0 0 -0.12144,-0.06046 9.8315486,9.8315486 0 0 0 -0.12247,-0.05891 9.8315486,9.8315486 0 0 0 -0.12299,-0.05684 9.8315486,9.8315486 0 0 0 -0.12351,-0.05581 9.8315486,9.8315486 0 0 0 -0.12454,-0.05374 9.8315486,9.8315486 0 0 0 -0.12557,-0.05168 9.8315486,9.8315486 0 0 0 -0.12609,-0.05013 9.8315486,9.8315486 0 0 0 -0.12661,-0.04858 9.8315486,9.8315486 0 0 0 -0.12712,-0.04702 9.8315486,9.8315486 0 0 0 -0.12816,-0.04496 9.8315486,9.8315486 0 0 0 -0.12816,-0.04289 9.8315486,9.8315486 0 0 0 -0.12919,-0.04134 9.8315486,9.8315486 0 0 0 -0.1297098,-0.03979 9.8315486,9.8315486 0 0 0 -0.13022,-0.03772 9.8315486,9.8315486 0 0 0 -0.1307402,-0.03617 9.8315486,9.8315486 0 0 0 -0.13126,-0.0341 9.8315486,9.8315486 0 0 0 -0.13178,-0.03256 9.8315486,9.8315486 0 0 0 -0.1322898,-0.03049 9.8315486,9.8315486 0 0 0 -0.1322901,-0.02894 9.8315486,9.8315486 0 0 0 -0.13281,-0.02687 9.8315486,9.8315486 0 0 0 -0.1333201,-0.02532 9.8315486,9.8315486 0 0 0 -0.13384,-0.02325 9.8315486,9.8315486 0 0 0 -0.13385,-0.02119 9.8315486,9.8315486 0 0 0 -0.13436,-0.01963 9.8315486,9.8315486 0 0 0 -0.1343498,-0.01757 9.8315486,9.8315486 0 0 0 -0.1348801,-0.01602 9.8315486,9.8315486 0 0 0 -0.13487,-0.01395 9.8315486,9.8315486 0 0 0 -0.1348801,-0.0124 9.8315486,9.8315486 0 0 0 -0.13539,-0.0098 9.8315486,9.8315486 0 0 0 -0.1353899,-0.0088 9.8315486,9.8315486 0 0 0 -0.1354,-0.0062 9.8315486,9.8315486 0 0 0 -0.1353899,-0.0046 9.8315486,9.8315486 0 0 0 -0.1353905,-0.0031 9.8315486,9.8315486 0 0 0 -0.13591,-10e-4 9.8315486,9.8315486 0 0 0 -0.11782,10e-4 9.8315486,9.8315486 0 0 0 -0.135389,0.0026 9.8315486,9.8315486 0 0 0 -0.135911,0.0041 9.8315486,9.8315486 0 0 0 -0.1354,0.0062 9.8315486,9.8315486 0 0 0 -0.13539,0.0083 9.8315486,9.8315486 0 0 0 -0.13539,0.01033 9.8315486,9.8315486 0 0 0 -0.13488,0.01188 9.8315486,9.8315486 0 0 0 -0.13487,0.01344 9.8315486,9.8315486 0 0 0 -0.13488,0.0155 9.8315486,9.8315486 0 0 0 -0.13436,0.01757 9.8315486,9.8315486 0 0 0 -0.13435,0.01964 9.8315486,9.8315486 0 0 0 -0.133849,0.02119 9.8315486,9.8315486 0 0 0 -0.13384,0.02274 9.8315486,9.8315486 0 0 0 -0.133321,0.0248 9.8315486,9.8315486 0 0 0 -0.13281,0.02687 9.8315486,9.8315486 0 0 0 -0.13281,0.02842 9.8315486,9.8315486 0 0 0 -0.13178,0.03049 9.8315486,9.8315486 0 0 0 -0.13177,0.03204 9.8315486,9.8315486 0 0 0 -0.131259,0.0341 9.8315486,9.8315486 0 0 0 -0.131261,0.03566 9.8315486,9.8315486 0 0 0 -0.13022,0.03772 9.8315486,9.8315486 0 0 0 -0.12971,0.03927 9.8315486,9.8315486 0 0 0 -0.12919,0.04134 9.8315486,9.8315486 0 0 0 -0.12868,0.04289 9.8315486,9.8315486 0 0 0 -0.12815,0.04496 9.8315486,9.8315486 0 0 0 -0.12713,0.04651 9.8315486,9.8315486 0 0 0 -0.1266,0.04806 9.8315486,9.8315486 0 0 0 -0.12609,0.05012 9.8315486,9.8315486 0 0 0 -0.12558,0.05168 9.8315486,9.8315486 0 0 0 -0.12454,0.05375 9.8315486,9.8315486 0 0 0 -0.12402,0.05478 9.8315486,9.8315486 0 0 0 -0.12299,0.05684 9.8315486,9.8315486 0 0 0 -0.12247,0.05891 9.8315486,9.8315486 0 0 0 -0.12144,0.05994 9.8315486,9.8315486 0 0 0 -0.12041,0.06201 9.8315486,9.8315486 0 0 0 -0.11989,0.06356 9.8315486,9.8315486 0 0 0 -0.11885,0.06511 9.8315486,9.8315486 0 0 0 -0.11834,0.06718 9.8315486,9.8315486 0 0 0 -0.11679,0.06821 9.8315486,9.8315486 0 0 0 -0.11628,0.07028 9.8315486,9.8315486 0 0 0 -0.11523,0.07183 9.8315486,9.8315486 0 0 0 -0.11421,0.07286 9.8315486,9.8315486 0 0 0 -0.11265,0.07493 9.8315486,9.8315486 0 0 0 -0.11214,0.07648 9.8315486,9.8315486 0 0 0 -0.1111,0.07803 9.8315486,9.8315486 0 0 0 -0.0315,0.02274 24.864681,24.864681 0 0 0 -1.17512005,7.553026 24.864681,24.864681 0 0 0 1.56580005,8.68319 z" />
    <path
       id="path1219"
       style="display:inline;fill:#ffffff;fill-opacity:1;stroke:#000000;stroke-width:0.27064;stroke-opacity:1;paint-order:markers fill stroke"
       d="M 42.261502,42.897049 H 7.7390612 A 24.864681,24.864681 0 0 0 25.000023,49.8651 24.864681,24.864681 0 0 0 42.261502,42.897049 Z" />
    <path
       id="path993"
       style="display:inline;fill:#e6b242;fill-opacity:1;stroke:#000000;stroke-width:0.27064;stroke-opacity:1;paint-order:markers fill stroke"
       d="M 42.260983,7.103371 H 7.7390612 a 24.864681,24.864681 0 0 0 -6.4285495,10.34407 9.8315486,9.8315486 0 0 1 0.03153,-0.02273 9.8315486,9.8315486 0 0 1 0.111104,-0.07803 9.8315486,9.8315486 0 0 1 0.112138,-0.07648 9.8315486,9.8315486 0 0 1 0.112654,-0.07493 9.8315486,9.8315486 0 0 1 0.114205,-0.07286 9.8315486,9.8315486 0 0 1 0.115237,-0.07183 9.8315486,9.8315486 0 0 1 0.116274,-0.07028 9.8315486,9.8315486 0 0 1 0.116787,-0.06821 9.8315486,9.8315486 0 0 1 0.11834,-0.06718 9.8315486,9.8315486 0 0 1 0.118856,-0.06511 9.8315486,9.8315486 0 0 1 0.119888,-0.06356 9.8315486,9.8315486 0 0 1 0.120407,-0.06201 9.8315486,9.8315486 0 0 1 0.121441,-0.05995 9.8315486,9.8315486 0 0 1 0.122473,-0.05891 9.8315486,9.8315486 0 0 1 0.122989,-0.05685 9.8315486,9.8315486 0 0 1 0.124023,-0.05478 9.8315486,9.8315486 0 0 1 0.124539,-0.05374 9.8315486,9.8315486 0 0 1 0.125574,-0.05168 9.8315486,9.8315486 0 0 1 0.126093,-0.05013 9.8315486,9.8315486 0 0 1 0.126606,-0.04806 9.8315486,9.8315486 0 0 1 0.127124,-0.04651 9.8315486,9.8315486 0 0 1 0.128156,-0.04496 9.8315486,9.8315486 0 0 1 0.128675,-0.04289 9.8315486,9.8315486 0 0 1 0.129191,-0.04134 9.8315486,9.8315486 0 0 1 0.129709,-0.03927 9.8315486,9.8315486 0 0 1 0.130225,-0.03772 9.8315486,9.8315486 0 0 1 0.131258,-0.03565 9.8315486,9.8315486 0 0 1 0.131257,-0.03411 9.8315486,9.8315486 0 0 1 0.131775,-0.03204 9.8315486,9.8315486 0 0 1 0.131776,-0.03049 9.8315486,9.8315486 0 0 1 0.132808,-0.02842 9.8315486,9.8315486 0 0 1 0.132807,-0.02687 9.8315486,9.8315486 0 0 1 0.133327,-0.02479 9.8315486,9.8315486 0 0 1 0.133842,-0.02273 9.8315486,9.8315486 0 0 1 0.133842,-0.02119 9.8315486,9.8315486 0 0 1 0.134358,-0.01963 9.8315486,9.8315486 0 0 1 0.134358,-0.01757 9.8315486,9.8315486 0 0 1 0.134877,-0.0155 9.8315486,9.8315486 0 0 1 0.134874,-0.01344 9.8315486,9.8315486 0 0 1 0.134876,-0.01188 9.8315486,9.8315486 0 0 1 0.135393,-0.01035 9.8315486,9.8315486 0 0 1 0.135392,-0.0083 9.8315486,9.8315486 0 0 1 0.135393,-0.0062 9.8315486,9.8315486 0 0 1 0.135908,-0.0041 9.8315486,9.8315486 0 0 1 0.135393,-0.0026 9.8315486,9.8315486 0 0 1 0.117822,-0.0011 9.8315486,9.8315486 0 0 1 0.135908,0.0011 9.8315486,9.8315486 0 0 1 0.1353927,0.0031 9.8315486,9.8315486 0 0 1 0.1353926,0.0047 9.8315486,9.8315486 0 0 1 0.1353926,0.0062 9.8315486,9.8315486 0 0 1 0.1353925,0.0088 9.8315486,9.8315486 0 0 1 0.13539,0.0098 9.8315486,9.8315486 0 0 1 0.1348766,0.01241 9.8315486,9.8315486 0 0 1 0.1348767,0.01394 9.8315486,9.8315486 0 0 1 0.134874,0.01601 9.8315486,9.8315486 0 0 1 0.134358,0.01757 9.8315486,9.8315486 0 0 1 0.1343607,0.01963 9.8315486,9.8315486 0 0 1 0.1338422,0.02119 9.8315486,9.8315486 0 0 1 0.1338421,0.02326 9.8315486,9.8315486 0 0 1 0.1333235,0.02532 9.8315486,9.8315486 0 0 1 0.1328076,0.02687 9.8315486,9.8315486 0 0 1 0.1322917,0.02894 9.8315486,9.8315486 0 0 1 0.1322917,0.03049 9.8315486,9.8315486 0 0 1 0.1317757,0.03256 9.8315486,9.8315486 0 0 1 0.1312598,0.03411 9.8315486,9.8315486 0 0 1 0.1307412,0.03617 9.8315486,9.8315486 0 0 1 0.1302226,0.03772 9.8315486,9.8315486 0 0 1 0.1297094,0.03979 9.8315486,9.8315486 0 0 1 0.1291904,0.04134 9.8315486,9.8315486 0 0 1 0.128157,0.04289 9.8315486,9.8315486 0 0 1 0.128159,0.04496 9.8315486,9.8315486 0 0 1 0.127124,0.04702 9.8315486,9.8315486 0 0 1 0.126606,0.04857 9.8315486,9.8315486 0 0 1 0.126092,0.05013 9.8315486,9.8315486 0 0 1 0.125574,0.05168 9.8315486,9.8315486 0 0 1 0.124539,0.05374 9.8315486,9.8315486 0 0 1 0.123508,0.05581 9.8315486,9.8315486 0 0 1 0.122989,0.05685 9.8315486,9.8315486 0 0 1 0.122473,0.05891 9.8315486,9.8315486 0 0 1 0.121438,0.06046 9.8315486,9.8315486 0 0 1 0.120407,0.06201 9.8315486,9.8315486 0 0 1 0.11989,0.06356 9.8315486,9.8315486 0 0 1 0.118338,0.06563 9.8315486,9.8315486 0 0 1 0.11834,0.06718 9.8315486,9.8315486 0 0 1 0.11679,0.06873 9.8315486,9.8315486 0 0 1 0.115755,0.07028 9.8315486,9.8315486 0 0 1 0.115237,0.07183 9.8315486,9.8315486 0 0 1 0.113689,0.07338 9.8315486,9.8315486 0 0 1 0.11317,0.07493 9.8315486,9.8315486 0 0 1 0.112138,0.077 9.8315486,9.8315486 0 0 1 0.110588,0.07803 9.8315486,9.8315486 0 0 1 0.110072,0.07958 9.8315486,9.8315486 0 0 1 0.108519,0.08113 9.8315486,9.8315486 0 0 1 0.107487,0.08268 9.8315486,9.8315486 0 0 1 0.106455,0.08423 9.8315486,9.8315486 0 0 1 0.104902,0.08527 9.8315486,9.8315486 0 0 1 0.104386,0.08733 9.8315486,9.8315486 0 0 1 0.102836,0.08837 9.8315486,9.8315486 0 0 1 0.101287,0.08992 9.8315486,9.8315486 0 0 1 0.100251,0.09095 9.8315486,9.8315486 0 0 1 0.09922,0.0925 9.8315486,9.8315486 0 0 1 0.09767,0.09405 9.8315486,9.8315486 0 0 1 0.09664,0.0956 9.8315486,9.8315486 0 0 1 0.09508,0.09663 9.8315486,9.8315486 0 0 1 0.09405,0.09767 9.8315486,9.8315486 0 0 1 0.0925,0.09922 9.8315486,9.8315486 0 0 1 0.09095,0.100769 9.8315486,9.8315486 0 0 1 0.0894,0.101803 9.8315486,9.8315486 0 0 1 0.08837,0.102836 9.8315486,9.8315486 0 0 1 0.08681,0.104386 9.8315486,9.8315486 0 0 1 0.08527,0.104905 9.8315486,9.8315486 0 0 1 0.08423,0.106968 9.8315486,9.8315486 0 0 1 0.08216,0.107487 9.8315486,9.8315486 0 0 1 0.08113,0.109038 9.8315486,9.8315486 0 0 1 0.07958,0.109556 9.8315486,9.8315486 0 0 1 0.07803,0.111103 9.8315486,9.8315486 0 0 1 0.07596,0.112136 9.8315486,9.8315486 0 0 1 0.07493,0.113173 9.8315486,9.8315486 0 0 1 0.07338,0.114205 9.8315486,9.8315486 0 0 1 0.07183,0.11472 9.8315486,9.8315486 0 0 1 0.06976,0.116274 9.8315486,9.8315486 0 0 1 0.06873,0.117306 9.8315486,9.8315486 0 0 1 0.06666,0.117822 9.8315486,9.8315486 0 0 1 0.06511,0.118856 9.8315486,9.8315486 0 0 1 0.06356,0.119888 9.8315486,9.8315486 0 0 1 0.06201,0.120406 9.8315486,9.8315486 0 0 1 0.06046,0.121957 9.8315486,9.8315486 0 0 1 0.05839,0.121957 9.8315486,9.8315486 0 0 1 0.05684,0.123505 9.8315486,9.8315486 0 0 1 0.05529,0.123508 9.8315486,9.8315486 0 0 1 0.05323,0.124539 9.8315486,9.8315486 0 0 1 0.05219,0.125574 9.8315486,9.8315486 0 0 1 0.04961,0.12609 9.8315486,9.8315486 0 0 1 0.04858,0.126608 9.8315486,9.8315486 0 0 1 0.04651,0.127641 9.8315486,9.8315486 0 0 1 0.04444,0.128158 9.8315486,9.8315486 0 0 1 0.04289,0.128673 9.8315486,9.8315486 0 0 1 0.04134,0.129193 9.8315486,9.8315486 0 0 1 0.03927,0.129707 9.8315486,9.8315486 0 0 1 0.03772,0.130225 9.8315486,9.8315486 0 0 1 0.03566,0.130741 9.8315486,9.8315486 0 0 1 0.03411,0.131257 9.8315486,9.8315486 0 0 1 0.03204,0.131776 9.8315486,9.8315486 0 0 1 0.03049,0.132292 9.8315486,9.8315486 0 0 1 0.02843,0.132291 9.8315486,9.8315486 0 0 1 0.02687,0.133327 9.8315486,9.8315486 0 0 1 0.02479,0.133323 9.8315486,9.8315486 0 0 1 0.02326,0.133326 9.8315486,9.8315486 0 0 1 0.02119,0.134358 9.8315486,9.8315486 0 0 1 0.01913,0.133842 9.8315486,9.8315486 0 0 1 0.01757,0.134877 9.8315486,9.8315486 0 0 1 0.0155,0.134358 9.8315486,9.8315486 0 0 1 0.01394,0.134874 9.8315486,9.8315486 0 0 1 0.01188,0.135393 9.8315486,9.8315486 0 0 1 0.0098,0.134876 9.8315486,9.8315486 0 0 1 0.0083,0.135393 9.8315486,9.8315486 0 0 1 0.0062,0.135908 9.8315486,9.8315486 0 0 1 0.0047,0.135393 9.8315486,9.8315486 0 0 1 0.0031,0.135393 9.8315486,9.8315486 0 0 1 5.3e-4,0.117821 9.8315486,9.8315486 0 0 1 -0.0011,0.135909 9.8315486,9.8315486 0 0 1 -0.0031,0.135392 9.8315486,9.8315486 0 0 1 -0.0047,0.135909 9.8315486,9.8315486 0 0 1 -0.0072,0.135392 9.8315486,9.8315486 0 0 1 -0.0078,0.135393 9.8315486,9.8315486 0 0 1 -0.01035,0.134874 9.8315486,9.8315486 0 0 1 -0.01188,0.135393 9.8315486,9.8315486 0 0 1 -0.01394,0.134875 9.8315486,9.8315486 0 0 1 -0.01601,0.134358 9.8315486,9.8315486 0 0 1 -0.01757,0.134877 9.8315486,9.8315486 0 0 1 -0.01963,0.133842 9.8315486,9.8315486 0 0 1 -0.0217,0.133842 9.8315486,9.8315486 0 0 1 -0.02326,0.133842 9.8315486,9.8315486 0 0 1 -0.02479,0.133324 9.8315486,9.8315486 0 0 1 -0.02739,0.132807 9.8315486,9.8315486 0 0 1 -0.02842,0.13281 9.8315486,9.8315486 0 0 1 -0.03049,0.131774 9.8315486,9.8315486 0 0 1 -0.03256,0.131775 9.8315486,9.8315486 0 0 1 -0.03411,0.13126 9.8315486,9.8315486 0 0 1 -0.03617,0.130741 9.8315486,9.8315486 0 0 1 -0.03772,0.130223 9.8315486,9.8315486 0 0 1 -0.03979,0.129709 9.8315486,9.8315486 0 0 1 -0.04134,0.129191 9.8315486,9.8315486 0 0 1 -0.04341,0.128675 9.8315486,9.8315486 0 0 1 -0.04496,0.12764 9.8315486,9.8315486 0 0 1 -0.04651,0.12764 9.8315486,9.8315486 0 0 1 -0.04857,0.126609 9.8315486,9.8315486 0 0 1 -0.05013,0.12609 9.8315486,9.8315486 0 0 1 -0.05219,0.125055 9.8315486,9.8315486 0 0 1 -0.05374,0.124542 9.8315486,9.8315486 0 0 1 -0.05529,0.124023 9.8315486,9.8315486 0 0 1 -0.05684,0.122989 9.8315486,9.8315486 0 0 1 -0.05891,0.121957 9.8315486,9.8315486 0 0 1 -0.06046,0.121439 9.8315486,9.8315486 0 0 1 -0.06201,0.120406 9.8315486,9.8315486 0 0 1 -0.06408,0.119891 9.8315486,9.8315486 0 0 1 -0.06563,0.118856 9.8315486,9.8315486 0 0 1 -0.06666,0.117822 9.8315486,9.8315486 0 0 1 -0.06873,0.116787 9.8315486,9.8315486 0 0 1 -0.07028,0.116274 9.8315486,9.8315486 0 0 1 -0.07183,0.11472 9.8315486,9.8315486 0 0 1 -0.0739,0.114205 9.8315486,9.8315486 0 0 1 -0.07493,0.112654 9.8315486,9.8315486 0 0 1 -0.07648,0.112139 9.8315486,9.8315486 0 0 1 -0.07803,0.111104 9.8315486,9.8315486 0 0 1 -0.07958,0.109556 9.8315486,9.8315486 0 0 1 -0.08113,0.108518 9.8315486,9.8315486 0 0 1 -0.08268,0.107487 9.8315486,9.8315486 0 0 1 -0.08423,0.106455 9.8315486,9.8315486 0 0 1 -0.08578,0.105418 9.8315486,9.8315486 0 0 1 -0.08681,0.103871 9.8315486,9.8315486 0 0 1 -0.08837,0.102835 9.8315486,9.8315486 0 0 1 -0.08992,0.101804 9.8315486,9.8315486 0 0 1 -0.09147,0.100253 9.8315486,9.8315486 0 0 1 -0.0925,0.09922 9.8315486,9.8315486 0 0 1 -0.09405,0.09767 9.8315486,9.8315486 0 0 1 -0.09509,0.09612 9.8315486,9.8315486 0 0 1 -0.09663,0.0956 9.8315486,9.8315486 0 0 1 -0.09819,0.09354 9.8315486,9.8315486 0 0 1 -0.09922,0.0925 9.8315486,9.8315486 0 0 1 -0.100251,0.09095 9.8315486,9.8315486 0 0 1 -0.101804,0.08992 9.8315486,9.8315486 0 0 1 -0.102835,0.08837 9.8315486,9.8315486 0 0 1 -0.104386,0.08682 9.8315486,9.8315486 0 0 1 -0.105421,0.08527 9.8315486,9.8315486 0 0 1 -0.106452,0.08371 9.8315486,9.8315486 0 0 1 -0.107487,0.08268 9.8315486,9.8315486 0 0 1 -0.109038,0.08062 9.8315486,9.8315486 0 0 1 -0.110072,0.07958 9.8315486,9.8315486 0 0 1 -0.110588,0.07803 9.8315486,9.8315486 0 0 1 -0.112135,0.07648 9.8315486,9.8315486 0 0 1 -0.113173,0.07493 9.8315486,9.8315486 0 0 1 -0.114205,0.07286 9.8315486,9.8315486 0 0 1 -0.115239,0.07183 9.8315486,9.8315486 0 0 1 -0.116271,0.07028 9.8315486,9.8315486 0 0 1 -0.116787,0.06821 9.8315486,9.8315486 0 0 1 -0.117825,0.06718 9.8315486,9.8315486 0 0 1 -0.119372,0.06511 9.8315486,9.8315486 0 0 1 -0.119372,0.06356 9.8315486,9.8315486 0 0 1 -0.120922,0.06201 9.8315486,9.8315486 0 0 1 -0.121441,0.05995 9.8315486,9.8315486 0 0 1 -0.122473,0.05891 9.8315486,9.8315486 0 0 1 -0.122989,0.05685 9.8315486,9.8315486 0 0 1 -0.124024,0.05478 9.8315486,9.8315486 0 0 1 -0.124539,0.05374 9.8315486,9.8315486 0 0 1 -0.125058,0.05168 9.8315486,9.8315486 0 0 1 -0.12609,0.05013 9.8315486,9.8315486 0 0 1 -0.127124,0.04806 9.8315486,9.8315486 0 0 1 -0.127125,0.04651 9.8315486,9.8315486 0 0 1 -0.128159,0.04496 9.8315486,9.8315486 0 0 1 -0.128672,0.04289 9.8315486,9.8315486 0 0 1 -0.1291905,0.04082 9.8315486,9.8315486 0 0 1 -0.1297094,0.03979 9.8315486,9.8315486 0 0 1 -0.1302253,0.03721 9.8315486,9.8315486 0 0 1 -0.1307412,0.03617 9.8315486,9.8315486 0 0 1 -0.1312571,0.03411 9.8315486,9.8315486 0 0 1 -0.1317757,0.03204 9.8315486,9.8315486 0 0 1 -0.1322917,0.03049 9.8315486,9.8315486 0 0 1 -0.1328076,0.02842 9.8315486,9.8315486 0 0 1 -0.1328076,0.02687 9.8315486,9.8315486 0 0 1 -0.1333262,0.02479 9.8315486,9.8315486 0 0 1 -0.1338421,0.02273 9.8315486,9.8315486 0 0 1 -0.1338421,0.02119 9.8315486,9.8315486 0 0 1 -0.1343581,0.01963 9.8315486,9.8315486 0 0 1 -0.1343581,0.01706 9.8315486,9.8315486 0 0 1 -0.1348766,0.01601 9.8315486,9.8315486 0 0 1 -0.1348767,0.01344 9.8315486,9.8315486 0 0 1 -0.134874,0.01188 9.8315486,9.8315486 0 0 1 -0.1353925,0.01035 9.8315486,9.8315486 0 0 1 -0.1353926,0.0083 9.8315486,9.8315486 0 0 1 -0.1353926,0.0062 9.8315486,9.8315486 0 0 1 -0.1353926,0.0041 9.8315486,9.8315486 0 0 1 -0.135908,0.0026 9.8315486,9.8315486 0 0 1 -0.117822,0.0011 9.8315486,9.8315486 0 0 1 -0.135393,-0.0011 9.8315486,9.8315486 0 0 1 -0.135908,-0.0031 9.8315486,9.8315486 0 0 1 -0.135393,-0.0047 9.8315486,9.8315486 0 0 1 -0.135392,-0.0062 9.8315486,9.8315486 0 0 1 -0.135393,-0.0088 9.8315486,9.8315486 0 0 1 -0.135393,-0.0098 9.8315486,9.8315486 0 0 1 -0.134874,-0.01241 9.8315486,9.8315486 0 0 1 -0.134876,-0.01394 9.8315486,9.8315486 0 0 1 -0.134874,-0.01601 9.8315486,9.8315486 0 0 1 -0.134305,-0.01758 9.8315486,9.8315486 0 0 1 -0.134358,-0.01963 9.8315486,9.8315486 0 0 1 -0.133842,-0.02119 9.8315486,9.8315486 0 0 1 -0.133323,-0.02326 9.8315486,9.8315486 0 0 1 -0.133327,-0.02532 9.8315486,9.8315486 0 0 1 -0.133326,-0.02687 9.8315486,9.8315486 0 0 1 -0.132292,-0.02894 9.8315486,9.8315486 0 0 1 -0.132291,-0.03049 9.8315486,9.8315486 0 0 1 -0.131773,-0.03256 9.8315486,9.8315486 0 0 1 -0.13126,-0.03411 9.8315486,9.8315486 0 0 1 -0.130741,-0.03617 9.8315486,9.8315486 0 0 1 -0.130226,-0.03773 9.8315486,9.8315486 0 0 1 -0.129706,-0.03979 9.8315486,9.8315486 0 0 1 -0.128675,-0.04134 9.8315486,9.8315486 0 0 1 -0.128675,-0.04289 9.8315486,9.8315486 0 0 1 -0.128156,-0.04548 9.8315486,9.8315486 0 0 1 -0.127124,-0.04651 9.8315486,9.8315486 0 0 1 -0.126606,-0.04857 9.8315486,9.8315486 0 0 1 -0.126093,-0.05013 9.8315486,9.8315486 0 0 1 -0.125055,-0.05168 9.8315486,9.8315486 0 0 1 -0.125058,-0.05374 9.8315486,9.8315486 0 0 1 -0.123507,-0.05581 9.8315486,9.8315486 0 0 1 -0.122989,-0.05685 9.8315486,9.8315486 0 0 1 -0.122473,-0.05891 9.8315486,9.8315486 0 0 1 -0.121442,-0.06046 9.8315486,9.8315486 0 0 1 -0.120403,-0.06201 9.8315486,9.8315486 0 0 1 -0.119375,-0.06408 9.8315486,9.8315486 0 0 1 -0.118854,-0.06511 9.8315486,9.8315486 0 0 1 -0.117824,-0.06718 9.8315486,9.8315486 0 0 1 -0.117306,-0.06873 9.8315486,9.8315486 0 0 1 -0.115755,-0.07028 9.8315486,9.8315486 0 0 1 -0.115236,-0.07183 9.8315486,9.8315486 0 0 1 -0.07597,-0.04909 24.864681,24.864681 0 0 0 6.0378738,9.213389 H 42.261507 A 24.864681,24.864681 0 0 0 49.864658,25.000468 24.864681,24.864681 0 0 0 42.260988,7.103369 Z" />
    <path
       id="path991"
       style="display:inline;fill:#ffffff;fill-opacity:1;stroke:#000000;stroke-width:0.27064;stroke-opacity:1;paint-order:markers fill stroke"
       d="M 24.98142,0.13531999 A 24.864681,24.864681 0 0 0 7.7390612,7.103371 H 42.260983 a 24.864681,24.864681 0 0 0 -17.26096,-6.96805101 24.864681,24.864681 0 0 0 -0.0186,0 z" />
    <text
       xml:space="preserve"
       style="font-style:normal;font-variant:normal;font-weight:normal;font-stretch:normal;font-size:20.8139px;line-height:1.25;font-family:'Berlin Sans FB Demi';-inkscape-font-specification:'Berlin Sans FB Demi';display:inline;stroke-width:0.264583"
       x="1.0893555"
       y="29.851065"
       id="text1149-1"><tspan
         sodipodi:role="line"
         id="tspan1147-2"
         x="1.0893555"
         y="29.851065"
         style="font-style:normal;font-variant:normal;font-weight:normal;font-stretch:normal;font-size:20.8139px;font-family:'Berlin Sans FB Demi';-inkscape-font-specification:'Berlin Sans FB Demi';stroke-width:0.264583">9</tspan></text>
    <rect
       style="display:inline;opacity:1;fill:#000101;fill-opacity:1;stroke:#000000;stroke-width:0.260045;stroke-opacity:1;paint-order:markers fill stroke"
       id="rect1007-3-5"
       width="9.0833836"
       height="1.5238602"
       x="2.2618866"
       y="31.015753" />
    <circle
       style="display:inline;opacity:0.88141;mix-blend-mode:normal;fill:url(#radialGradient1561-9-67);fill-opacity:1;stroke:none;stroke-width:0.212909;stroke-opacity:1;paint-order:markers fill stroke"
       id="path1129-9-5"
       cx="25"
       cy="25.000372"
       r="25" />
    <circle
       style="display:inline;opacity:0.88141;mix-blend-mode:normal;fill:url(#radialGradient1561-637);fill-opacity:1;stroke:none;stroke-width:0.212909;stroke-opacity:1;paint-order:markers fill stroke"
       id="path1129-41"
       cx="25"
       cy="25.000372"
       r="25" />
  </g>
</svg>
