<?xml version="1.0" encoding="UTF-8" standalone="no"?>
<svg
   xmlns:dc="http://purl.org/dc/elements/1.1/"
   xmlns:cc="http://creativecommons.org/ns#"
   xmlns:rdf="http://www.w3.org/1999/02/22-rdf-syntax-ns#"
   xmlns:svg="http://www.w3.org/2000/svg"
   xmlns="http://www.w3.org/2000/svg"
   xmlns:xlink="http://www.w3.org/1999/xlink"
   xmlns:sodipodi="http://sodipodi.sourceforge.net/DTD/sodipodi-0.dtd"
   xmlns:inkscape="http://www.inkscape.org/namespaces/inkscape"
   width="50mm"
   height="50mm"
   viewBox="0 0 50 50"
   version="1.1"
   id="svg8"
   inkscape:version="1.0.1 (3bc2e813f5, 2020-09-07)"
   sodipodi:docname="14-1.svg">
  <defs
     id="defs2">
    <radialGradient
       inkscape:collect="always"
       xlink:href="#linearGradient1135"
       id="radialGradient1561"
       cx="26.274075"
       cy="14.800471"
       fx="26.274075"
       fy="14.800471"
       r="32.127975"
       gradientTransform="matrix(0.77813809,0,0,0.77813812,-3.38236,4.4117604)"
       gradientUnits="userSpaceOnUse" />
    <linearGradient
       inkscape:collect="always"
       id="linearGradient1135">
      <stop
         style="stop-color:#ffffff;stop-opacity:1;"
         offset="0"
         id="stop1131" />
      <stop
         style="stop-color:#ffffff;stop-opacity:0;"
         offset="1"
         id="stop1133" />
    </linearGradient>
    <radialGradient
       inkscape:collect="always"
       xlink:href="#linearGradient1135"
       id="radialGradient1561-9"
       cx="54.447247"
       cy="49.531189"
       fx="54.447247"
       fy="49.531189"
       r="32.127975"
       gradientTransform="matrix(0.77813809,0,0,0.77813812,-3.3823592,4.4117589)"
       gradientUnits="userSpaceOnUse" />
  </defs>
  <sodipodi:namedview
     id="base"
     pagecolor="#ffffff"
     bordercolor="#666666"
     borderopacity="1.0"
     inkscape:pageopacity="0.0"
     inkscape:pageshadow="2"
     inkscape:zoom="0.98994949"
     inkscape:cx="110.401"
     inkscape:cy="81.792621"
     inkscape:document-units="mm"
     inkscape:current-layer="layer1"
     inkscape:document-rotation="0"
     showgrid="false"
     inkscape:window-width="1920"
     inkscape:window-height="1017"
     inkscape:window-x="-8"
     inkscape:window-y="-8"
     inkscape:window-maximized="1" />
  <metadata
     id="metadata5">
    <rdf:RDF>
      <cc:Work
         rdf:about="">
        <dc:format>image/svg+xml</dc:format>
        <dc:type
           rdf:resource="http://purl.org/dc/dcmitype/StillImage" />
        <dc:title />
      </cc:Work>
    </rdf:RDF>
  </metadata>
  <g
     inkscape:label="Layer 1"
     inkscape:groupmode="layer"
     id="layer1">
    <path
       id="path833"
       style="display:inline;fill:#ffffff;fill-opacity:1;stroke:#000000;stroke-width:0.27064;stroke-opacity:1;paint-order:markers fill stroke"
       d="M 42.294148,42.864655 H 7.7055616 a 24.864679,24.864679 0 0 0 17.2945504,7.000092 24.864679,24.864679 0 0 0 17.294036,-7.000092 z" />
    <path
       id="path904"
       style="display:inline;fill:#164d2b;fill-opacity:1;stroke:#000000;stroke-width:0.27064;stroke-opacity:1;paint-order:markers fill stroke"
       d="M 42.294666,7.135571 H 7.7050448 A 24.864679,24.864679 0 0 0 0.13548105,25.000112 24.864679,24.864679 0 0 0 7.7055616,42.864655 H 42.294148 A 24.864679,24.864679 0 0 0 49.864747,25.000112 24.864679,24.864679 0 0 0 42.294666,7.135571 Z" />
    <path
       id="path902"
       style="display:inline;fill:#ffffff;fill-opacity:1;stroke:#000000;stroke-width:0.27064;stroke-opacity:1;paint-order:markers fill stroke"
       d="M 24.980993,0.13548136 A 24.864679,24.864679 0 0 0 7.7050448,7.135571 H 42.294666 a 24.864679,24.864679 0 0 0 -17.294554,-7.00008964 24.864679,24.864679 0 0 0 -0.01913,0 z" />
    <circle
       style="display:inline;fill:#ffffff;fill-opacity:1;stroke:#000000;stroke-width:0.336905;stroke-opacity:1;paint-order:markers fill stroke"
       id="path891"
       cx="25"
       cy="23.887001"
       r="9.8315487" />
    <g
       aria-label="14"
       transform="scale(0.86934871,1.1502864)"
       id="text1149"
       style="font-style:normal;font-variant:normal;font-weight:normal;font-stretch:normal;font-size:18.0465px;line-height:1.25;font-family:'Berlin Sans FB Demi';-inkscape-font-specification:'Berlin Sans FB Demi';display:inline;stroke-width:0.229406">
      <path
         d="m 26.184217,25.519319 q 0,0.167424 -0.1498,0.308412 -0.1498,0.140988 -0.326035,0.140988 -0.422965,0 -1.268895,0.0088 -0.84593,0.0088 -1.268894,0.0088 -0.326036,0 -0.317224,-0.281977 l 0.0088,-0.09693 q 0.123365,-3.366095 0.123365,-4.079848 v -2.617095 q 0,-0.24673 -0.114553,-0.24673 -0.176236,0 -0.537518,0.105742 -0.352471,0.105741 -0.537518,0.105741 -0.273165,0 -0.273165,-0.326036 0,-0.2996 -0.0088,-0.8988 -0.0088,-0.5992 -0.0088,-0.907612 0,-0.176235 0.220294,-0.264353 1.29533,-0.537518 2.035518,-1.44513 0.1498,-0.185047 0.255541,-0.185047 0.01762,0 0.105741,0.01762 0.334848,0.07049 0.99573,0.220294 0.352471,0.04406 1.030977,0.158612 0.123365,0.03525 0.123365,0.193859 0,0.05287 -0.01762,0.185047 -0.09693,0.775435 -0.09693,3.797871 0,1.013354 0.0088,3.048872 0.01762,2.035518 0.01762,3.048871 z"
         style="font-style:normal;font-variant:normal;font-weight:normal;font-stretch:normal;font-size:18.0465px;font-family:'Berlin Sans FB Demi';-inkscape-font-specification:'Berlin Sans FB Demi';stroke-width:0.229406"
         id="path843" />
      <path
         d="m 36.828832,23.986072 q 0,0.132176 -0.220295,0.176235 -0.158611,0.02644 -0.440588,0.0088 -0.396529,-0.02643 -0.334847,-0.02643 -0.343659,0 -0.343659,0.343659 0,0.211482 0.02643,0.643259 0.02644,0.422964 0.02644,0.634447 0,0.308412 -0.273165,0.308412 -3.04006,0 -3.198672,-0.07931 -0.158612,-0.07049 -0.158612,-0.185047 0,-0.132177 0.105742,-0.652071 0.114553,-0.519894 0.114553,-0.757812 0,-0.290788 -0.326036,-0.290788 -0.590388,0 -1.771165,0.03525 -1.171965,0.03525 -1.762353,0.03525 -0.704942,0 -0.704942,-0.555142 0,-0.281976 -0.0088,-0.837117 -0.0088,-0.563954 -0.0088,-0.84593 0,-0.264353 0.273165,-0.555141 1.286518,-1.374636 1.876906,-2.202942 0.281976,-0.39653 1.912153,-3.092931 0.211483,-0.405341 0.687318,-1.110282 0.123365,-0.1498 0.264353,-0.1498 0.211483,0 1.304142,0.317223 1.101471,0.317224 1.498,0.317224 0.281977,0 0.281977,0.361282 0,0.343659 -0.07931,1.039789 -0.07931,0.687318 -0.07931,1.039788 v 3.709754 q 0.167424,0 0.581577,-0.05287 0.370094,-0.05287 0.572764,-0.05287 0.167424,0 0.167424,0.202671 0,0.185047 -0.02643,0.555141 -0.01762,0.370094 -0.01762,0.563953 0,0.193859 0.02644,0.581577 0.03525,0.378906 0.03525,0.572765 z m -4.353013,-5.569037 q 0,-0.05287 -0.06168,-0.05287 -0.07931,0 -0.158612,0.114553 -0.563953,0.907612 -1.127906,1.815224 -0.678506,1.048601 -1.321765,1.683048 0.484647,0 2.467295,-0.123365 0.01762,-0.35247 0.123365,-1.735918 0.07931,-1.092659 0.07931,-1.700671 z"
         style="font-style:normal;font-variant:normal;font-weight:normal;font-stretch:normal;font-size:18.0465px;font-family:'Berlin Sans FB Demi';-inkscape-font-specification:'Berlin Sans FB Demi';stroke-width:0.229406"
         id="path845" />
    </g>
    <circle
       style="display:inline;opacity:0.88141;mix-blend-mode:normal;fill:url(#radialGradient1561);fill-opacity:1;stroke:none;stroke-width:0.212909;stroke-opacity:1;paint-order:markers fill stroke"
       id="path1129"
       cx="25"
       cy="25"
       r="25" />
    <circle
       style="display:inline;opacity:0.88141;mix-blend-mode:normal;fill:url(#radialGradient1561-9);fill-opacity:1;stroke:none;stroke-width:0.212909;stroke-opacity:1;paint-order:markers fill stroke"
       id="path1129-9"
       cx="25"
       cy="25"
       r="25" />
  </g>
</svg>
