<?xml version="1.0" encoding="UTF-8" standalone="no"?>
<svg
   xmlns:dc="http://purl.org/dc/elements/1.1/"
   xmlns:cc="http://creativecommons.org/ns#"
   xmlns:rdf="http://www.w3.org/1999/02/22-rdf-syntax-ns#"
   xmlns:svg="http://www.w3.org/2000/svg"
   xmlns="http://www.w3.org/2000/svg"
   xmlns:xlink="http://www.w3.org/1999/xlink"
   xmlns:sodipodi="http://sodipodi.sourceforge.net/DTD/sodipodi-0.dtd"
   xmlns:inkscape="http://www.inkscape.org/namespaces/inkscape"
   width="50mm"
   height="50mm"
   viewBox="0 0 50 50"
   version="1.1"
   id="svg8"
   inkscape:version="1.0.1 (3bc2e813f5, 2020-09-07)"
   sodipodi:docname="14-6.svg">
  <defs
     id="defs2">
    <radialGradient
       inkscape:collect="always"
       xlink:href="#linearGradient1135"
       id="radialGradient1561-9-6"
       cx="54.447247"
       cy="49.531189"
       fx="54.447247"
       fy="49.531189"
       r="32.127975"
       gradientTransform="matrix(0.77813809,0,0,0.77813812,-3.3823649,4.4120853)"
       gradientUnits="userSpaceOnUse" />
    <linearGradient
       inkscape:collect="always"
       id="linearGradient1135">
      <stop
         style="stop-color:#ffffff;stop-opacity:1;"
         offset="0"
         id="stop1131" />
      <stop
         style="stop-color:#ffffff;stop-opacity:0;"
         offset="1"
         id="stop1133" />
    </linearGradient>
    <radialGradient
       inkscape:collect="always"
       xlink:href="#linearGradient1135"
       id="radialGradient1561-8"
       cx="26.274075"
       cy="14.800471"
       fx="26.274075"
       fy="14.800471"
       r="32.127975"
       gradientTransform="matrix(0.77813809,0,0,0.77813812,-2.9671818,4.4120853)"
       gradientUnits="userSpaceOnUse" />
  </defs>
  <sodipodi:namedview
     id="base"
     pagecolor="#ffffff"
     bordercolor="#666666"
     borderopacity="1.0"
     inkscape:pageopacity="0.0"
     inkscape:pageshadow="2"
     inkscape:zoom="0.7"
     inkscape:cx="237.87095"
     inkscape:cy="149.48217"
     inkscape:document-units="mm"
     inkscape:current-layer="layer1"
     inkscape:document-rotation="0"
     showgrid="false"
     inkscape:window-width="1920"
     inkscape:window-height="1017"
     inkscape:window-x="-8"
     inkscape:window-y="-8"
     inkscape:window-maximized="1" />
  <metadata
     id="metadata5">
    <rdf:RDF>
      <cc:Work
         rdf:about="">
        <dc:format>image/svg+xml</dc:format>
        <dc:type
           rdf:resource="http://purl.org/dc/dcmitype/StillImage" />
        <dc:title></dc:title>
      </cc:Work>
    </rdf:RDF>
  </metadata>
  <g
     inkscape:label="Layer 1"
     inkscape:groupmode="layer"
     id="layer1">
    <path
       id="path833-58"
       style="display:inline;fill:#ffffff;fill-opacity:1;stroke:#000000;stroke-width:0.27064;stroke-opacity:1;paint-order:markers fill stroke"
       d="M 0.56538244,25.839175 3.0019277,25.777685 3.0355167,24.641836 3.1021787,22.77115 3.1357697,21.635302 3.0355164,20.899948 2.9021929,21.100452 2.6014357,21.367618 1.9999213,22.603719 1.231492,24.207756 0.55091494,25.07592 a 24.864676,24.864676 0 0 0 0,0.02739 24.864677,24.864677 0 0 0 0.014473,0.735872 z" />
    <path
       id="path1736"
       style="display:inline;fill:#000000;fill-opacity:1;stroke:#000000;stroke-width:0.27064;stroke-opacity:1;paint-order:markers fill stroke"
       d="m 0.82428254,28.674661 1.04179676,0.0098 0.2676843,0.299722 -0.1338422,0.76843 -0.066662,1.00304 0.166915,0.133842 2.6727045,0.09974 0.3338304,-0.30023 -0.066664,-1.069184 0.033591,-0.635103 0.2671657,-0.199988 h 0.3338301 l 0.5348525,-0.133842 -0.066664,-1.20251 0.066664,-1.403532 -0.2005065,-0.367418 -0.9353418,0.166915 -0.06718,-2.806031 c 0,0 0.1002533,-2.438665 0.1002533,-2.639116 0,-0.200453 0.1002506,-0.968933 0.1002506,-0.968933 L 5.006456,18.79516 4.0380386,18.56158 3.0355165,18.160573 l -0.701765,-0.133842 -0.3338301,0.567922 -0.5679255,1.403533 -0.53433386,1.20251 -0.0806132,0.177768 a 24.864676,24.864676 0 0 0 -0.013441,0.08992 24.864676,24.864676 0 0 0 -0.1054179,0.833025 24.864676,24.864676 0 0 0 -0.034623,0.33383 24.864676,24.864676 0 0 0 -0.03669,0.425813 24.864676,24.864676 0 0 0 -0.031522,0.454236 24.864676,24.864676 0 0 0 -0.044961,1.484665 24.864676,24.864676 0 0 0 5.291e-4,0.07596 l 0.68057706,-0.868164 0.7684294,-1.604036 0.6015143,-1.236102 0.3007572,-0.267166 0.1333236,-0.200503 0.1002532,0.735353 -0.033591,1.135849 -0.066662,1.870686 -0.033589,1.135848 -2.43654526,0.06149 a 24.864677,24.864677 0 0 0 0.00516,0.153998 24.864676,24.864676 0 0 0 5.292e-4,0.0078 24.864676,24.864676 0 0 0 0.011377,0.247531 24.864676,24.864676 0 0 0 0.1121384,1.421099 24.864676,24.864676 0 0 0 0.058394,0.491961 24.864676,24.864676 0 0 0 0.071313,0.513147 z" />
    <path
       id="path1734"
       style="display:inline;fill:#ffffff;fill-opacity:1;stroke:#000000;stroke-width:0.27064;stroke-opacity:1;paint-order:markers fill stroke"
       d="m 2.395246,15.602076 a 24.864676,24.864676 0 0 0 -0.47439,1.258837 24.864676,24.864676 0 0 0 -0.4278815,1.359606 24.864676,24.864676 0 0 0 -0.1126543,0.409795 24.864676,24.864676 0 0 0 -0.064595,0.248563 24.864676,24.864676 0 0 0 -0.020664,0.0832 24.864676,24.864676 0 0 0 -0.059428,0.241845 24.864676,24.864676 0 0 0 -0.25373276,1.187524 24.864676,24.864676 0 0 0 -0.1436608,0.839742 24.864676,24.864676 0 0 0 -0.021193,0.147278 l 0.080613,-0.177768 0.53433396,-1.20251 0.5679255,-1.403533 0.3338301,-0.567923 0.701765,0.133842 1.0025221,0.401008 0.9684173,0.23358 0.2005039,0.635103 c 0,0 -0.1002506,0.768479 -0.1002506,0.968933 0,0.200451 -0.1002533,2.639116 -0.1002533,2.639116 l 0.06718,2.80603 0.9353419,-0.166915 0.2005065,0.367419 -0.066664,1.403531 0.066664,1.20251 -0.5348526,0.133843 h -0.33383 l -0.2671657,0.199988 -0.033591,0.635103 0.066664,1.069184 -0.3338301,0.300241 -2.6727044,-0.09974 -0.1669151,-0.133842 0.066662,-1.003041 0.1338421,-0.768429 -0.2676842,-0.299723 -1.04179686,-0.0098 a 24.864676,24.864676 0 0 0 0.1064525,0.653706 24.864676,24.864676 0 0 0 0.12350736,0.647507 24.864676,24.864676 0 0 0 0.1343581,0.617532 24.864676,24.864676 0 0 0 0.1632982,0.66611 24.864676,24.864676 0 0 0 0.02585,0.09974 24.864676,24.864676 0 0 0 0.00516,0.01913 24.864676,24.864676 0 0 0 0.032554,0.121441 24.864676,24.864676 0 0 0 0.8878014,2.669603 9.8315486,9.8315486 0 0 0 0.1178243,-0.04134 9.8315486,9.8315486 0 0 0 0.1276403,-0.04599 9.8315486,9.8315486 0 0 0 0.1266058,-0.04857 9.8315486,9.8315486 0 0 0 0.1260925,-0.05013 9.8315486,9.8315486 0 0 0 0.1250553,-0.05168 9.8315486,9.8315486 0 0 0 0.1250579,-0.05323 9.8315486,9.8315486 0 0 0 0.1235075,-0.05529 9.8315486,9.8315486 0 0 0 0.1235049,-0.05684 9.8315486,9.8315486 0 0 0 0.121957,-0.05839 9.8315486,9.8315486 0 0 0 0.1214385,-0.06046 9.8315486,9.8315486 0 0 0 0.1209252,-0.06201 9.8315486,9.8315486 0 0 0 0.119888,-0.06356 9.8315486,9.8315486 0 0 0 0.1188561,-0.06511 9.8315486,9.8315486 0 0 0 0.1178216,-0.06666 9.8315486,9.8315486 0 0 0 0.1173057,-0.06873 9.8315486,9.8315486 0 0 0 0.1157552,-0.06976 9.8315486,9.8315486 0 0 0 0.1152392,-0.07183 9.8315486,9.8315486 0 0 0 0.1142048,-0.07338 9.8315486,9.8315486 0 0 0 0.1131702,-0.07493 9.8315486,9.8315486 0 0 0 0.1121384,-0.07648 9.8315486,9.8315486 0 0 0 0.1111038,-0.07751 9.8315486,9.8315486 0 0 0 0.109556,-0.07958 9.8315486,9.8315486 0 0 0 0.1090348,-0.08114 9.8315486,9.8315486 0 0 0 0.1074896,-0.08216 9.8315486,9.8315486 0 0 0 0.1064525,-0.08423 9.8315486,9.8315486 0 0 0 0.1054206,-0.08527 9.8315486,9.8315486 0 0 0 0.104386,-0.08682 9.8315486,9.8315486 0 0 0 0.1028357,-0.08837 9.8315486,9.8315486 0 0 0 0.101801,-0.0894 9.8315486,9.8315486 0 0 0 0.1007692,-0.09147 9.8315486,9.8315486 0 0 0 0.099219,-0.09199 9.8315486,9.8315486 0 0 0 0.097668,-0.09405 9.8315486,9.8315486 0 0 0 0.096636,-0.09508 9.8315486,9.8315486 0 0 0 0.095602,-0.09663 9.8315486,9.8315486 0 0 0 0.093533,-0.09767 9.8315486,9.8315486 0 0 0 0.09302,-0.09922 9.8315486,9.8315486 0 0 0 0.09095,-0.100253 9.8315486,9.8315486 0 0 0 0.089916,-0.101285 9.8315486,9.8315486 0 0 0 0.088366,-0.102838 9.8315486,9.8315486 0 0 0 0.087334,-0.104386 9.8315486,9.8315486 0 0 0 0.085267,-0.104902 9.8315486,9.8315486 0 0 0 0.084233,-0.106456 9.8315486,9.8315486 0 0 0 0.082682,-0.107484 9.8315486,9.8315486 0 0 0 0.081132,-0.109037 9.8315486,9.8315486 0 0 0 0.079581,-0.109556 9.8315486,9.8315486 0 0 0 0.078031,-0.110588 9.8315486,9.8315486 0 0 0 0.076999,-0.112136 9.8315486,9.8315486 0 0 0 0.07493,-0.113173 9.8315486,9.8315486 0 0 0 0.07338,-0.113689 9.8315486,9.8315486 0 0 0 0.071832,-0.115236 9.8315486,9.8315486 0 0 0 0.070279,-0.115756 9.8315486,9.8315486 0 0 0 0.068731,-0.117305 9.8315486,9.8315486 0 0 0 0.067178,-0.117822 9.8315486,9.8315486 0 0 0 0.065114,-0.118856 9.8315486,9.8315486 0 0 0 0.064079,-0.119372 9.8315486,9.8315486 0 0 0 0.06201,-0.120407 9.8315486,9.8315486 0 0 0 0.060463,-0.121441 9.8315486,9.8315486 0 0 0 0.058909,-0.122473 9.8315486,9.8315486 0 0 0 0.056846,-0.122989 9.8315486,9.8315486 0 0 0 0.055809,-0.123507 9.8315486,9.8315486 0 0 0 0.053229,-0.124539 9.8315486,9.8315486 0 0 0 0.052192,-0.125574 9.8315486,9.8315486 0 0 0 0.050125,-0.12609 9.8315486,9.8315486 0 0 0 0.048577,-0.126609 9.8315486,9.8315486 0 0 0 0.046508,-0.127124 9.8315486,9.8315486 0 0 0 0.044958,-0.128156 9.8315486,9.8315486 0 0 0 0.043408,-0.128675 9.8315486,9.8315486 0 0 0 0.041341,-0.128675 9.8315486,9.8315486 0 0 0 0.039791,-0.129706 9.8315486,9.8315486 0 0 0 0.037724,-0.130226 9.8315486,9.8315486 0 0 0 0.036174,-0.130741 9.8315486,9.8315486 0 0 0 0.034108,-0.13126 9.8315486,9.8315486 0 0 0 0.032554,-0.131773 9.8315486,9.8315486 0 0 0 0.030491,-0.132291 9.8315486,9.8315486 0 0 0 0.028937,-0.132292 9.8315486,9.8315486 0 0 0 0.026874,-0.133326 9.8315486,9.8315486 0 0 0 0.02479,-0.133324 9.8315486,9.8315486 0 0 0 0.02376,-0.133326 9.8315486,9.8315486 0 0 0 0.02119,-0.133841 9.8315486,9.8315486 0 0 0 0.01963,-0.134358 9.8315486,9.8315486 0 0 0 0.01757,-0.134361 9.8315486,9.8315486 0 0 0 0.01601,-0.134874 9.8315486,9.8315486 0 0 0 0.01394,-0.134876 9.8315486,9.8315486 0 0 0 0.01188,-0.134874 9.8315486,9.8315486 0 0 0 0.01034,-0.135393 9.8315486,9.8315486 0 0 0 0.0088,-0.135392 9.8315486,9.8315486 0 0 0 0.0062,-0.135393 9.8315486,9.8315486 0 0 0 0.0047,-0.135393 9.8315486,9.8315486 0 0 0 0.0031,-0.135908 9.8315486,9.8315486 0 0 0 0.0011,-0.135393 9.8315486,9.8315486 0 0 0 -0.0011,-0.117821 9.8315486,9.8315486 0 0 0 -0.0027,-0.135909 9.8315486,9.8315486 0 0 0 -0.0041,-0.135392 9.8315486,9.8315486 0 0 0 -0.0062,-0.135393 9.8315486,9.8315486 0 0 0 -0.0083,-0.135393 9.8315486,9.8315486 0 0 0 -0.01035,-0.135425 9.8315486,9.8315486 0 0 0 -0.01188,-0.134874 9.8315486,9.8315486 0 0 0 -0.01344,-0.134877 9.8315486,9.8315486 0 0 0 -0.01601,-0.134874 9.8315486,9.8315486 0 0 0 -0.01707,-0.134361 9.8315486,9.8315486 0 0 0 -0.01963,-0.134358 9.8315486,9.8315486 0 0 0 -0.02119,-0.133842 9.8315486,9.8315486 0 0 0 -0.02273,-0.133842 9.8315486,9.8315486 0 0 0 -0.02532,-0.133323 9.8315486,9.8315486 0 0 0 -0.026328,-0.132811 9.8315486,9.8315486 0 0 0 -0.028424,-0.132807 9.8315486,9.8315486 0 0 0 -0.030488,-0.132292 9.8315486,9.8315486 0 0 0 -0.032038,-0.131257 9.8315486,9.8315486 0 0 0 -0.034107,-0.131776 9.8315486,9.8315486 0 0 0 -0.036174,-0.130741 9.8315486,9.8315486 0 0 0 -0.037206,-0.130225 9.8315486,9.8315486 0 0 0 -0.039791,-0.129707 9.8315486,9.8315486 0 0 0 -0.040825,-0.129193 9.8315486,9.8315486 0 0 0 -0.042892,-0.128673 9.8315486,9.8315486 0 0 0 -0.044958,-0.128158 9.8315486,9.8315486 0 0 0 -0.046508,-0.127125 9.8315486,9.8315486 0 0 0 -0.048062,-0.127124 9.8315486,9.8315486 0 0 0 -0.050125,-0.125571 9.8315486,9.8315486 0 0 0 -0.051676,-0.125574 9.8315486,9.8315486 0 0 0 -0.053745,-0.124542 9.8315486,9.8315486 0 0 0 -0.054777,-0.124024 9.8315486,9.8315486 0 0 0 -0.057359,-0.122989 9.8315486,9.8315486 0 0 0 -0.058396,-0.122473 9.8315486,9.8315486 0 0 0 -0.059944,-0.121441 9.8315486,9.8315486 0 0 0 -0.06201,-0.120922 9.8315486,9.8315486 0 0 0 -0.063563,-0.119372 9.8315486,9.8315486 0 0 0 -0.06563,-0.119372 9.8315486,9.8315486 0 0 0 -0.066662,-0.117822 9.8315486,9.8315486 0 0 0 -0.068212,-0.11679 9.8315486,9.8315486 0 0 0 -0.070281,-0.116271 9.8315486,9.8315486 0 0 0 -0.071829,-0.115239 9.8315486,9.8315486 0 0 0 -0.07338,-0.114205 A 9.8315486,9.8315486 0 0 0 7.2760043,19.388419 9.8315486,9.8315486 0 0 0 7.1995213,19.2768 9.8315486,9.8315486 0 0 0 7.1214903,19.165696 9.8315486,9.8315486 0 0 0 7.0419093,19.055624 9.8315486,9.8315486 0 0 0 6.9612933,18.946586 9.8315486,9.8315486 0 0 0 6.8786113,18.839099 9.8315486,9.8315486 0 0 0 6.7948973,18.732647 9.8315486,9.8315486 0 0 0 6.7091143,18.627226 9.8315486,9.8315486 0 0 0 6.6222963,18.52284 9.8315486,9.8315486 0 0 0 6.5344463,18.420005 9.8315486,9.8315486 0 0 0 6.4445303,18.318201 9.8315486,9.8315486 0 0 0 6.3535803,18.21795 9.8315486,9.8315486 0 0 0 6.2610793,18.11873 9.8315486,9.8315486 0 0 0 6.1670283,18.02054 9.8315486,9.8315486 0 0 0 6.0719423,17.92391 9.8315486,9.8315486 0 0 0 5.9758243,17.82882 9.8315486,9.8315486 0 0 0 5.8776403,17.73477 9.8315486,9.8315486 0 0 0 5.7789373,17.64227 9.8315486,9.8315486 0 0 0 5.6786867,17.5508 9.8315486,9.8315486 0 0 0 5.576883,17.46088 9.8315486,9.8315486 0 0 0 5.4740474,17.37251 9.8315486,9.8315486 0 0 0 5.3701772,17.28569 9.8315486,9.8315486 0 0 0 5.2647567,17.19991 9.8315486,9.8315486 0 0 0 5.1583042,17.11568 9.8315486,9.8315486 0 0 0 5.0508172,17.033 9.8315486,9.8315486 0 0 0 4.9422957,16.95187 9.8315486,9.8315486 0 0 0 4.8327423,16.87229 9.8315486,9.8315486 0 0 0 4.7216385,16.79426 9.8315486,9.8315486 0 0 0 4.6095002,16.71778 9.8315486,9.8315486 0 0 0 4.4968459,16.64285 9.8315486,9.8315486 0 0 0 4.3826411,16.56895 9.8315486,9.8315486 0 0 0 4.2679204,16.49712 9.8315486,9.8315486 0 0 0 4.1516466,16.42684 9.8315486,9.8315486 0 0 0 4.0348596,16.35811 9.8315486,9.8315486 0 0 0 3.9170353,16.29145 9.8315486,9.8315486 0 0 0 3.7981792,16.22582 9.8315486,9.8315486 0 0 0 3.6782912,16.16174 9.8315486,9.8315486 0 0 0 3.5578846,16.09973 9.8315486,9.8315486 0 0 0 3.4364461,16.03927 9.8315486,9.8315486 0 0 0 3.3144891,15.98036 9.8315486,9.8315486 0 0 0 3.1915002,15.92351 9.8315486,9.8315486 0 0 0 3.0674767,15.86822 9.8315486,9.8315486 0 0 0 2.9429347,15.81447 9.8315486,9.8315486 0 0 0 2.8178794,15.76228 9.8315486,9.8315486 0 0 0 2.6917869,15.71215 9.8315486,9.8315486 0 0 0 2.5651811,15.66357 9.8315486,9.8315486 0 0 0 2.4375408,15.61706 9.8315486,9.8315486 0 0 0 2.3951648,15.60208 Z" />
    <path
       id="path1141"
       style="display:inline;fill:#ffffff;fill-opacity:1;stroke:#000000;stroke-width:0.27064;stroke-opacity:1;paint-order:markers fill stroke"
       d="M 42.680124,42.893432 H 8.1504495 A 24.864681,24.864681 0 0 0 25.41503,49.865097 24.864681,24.864681 0 0 0 42.680124,42.893432 Z" />
    <path
       id="path987"
       style="display:inline;fill:#164d2b;fill-opacity:1;stroke:#000000;stroke-width:0.27064;stroke-opacity:1;paint-order:markers fill stroke"
       d="M 42.678058,7.1054371 H 8.1519999 a 24.864681,24.864681 0 0 0 -5.7567539,8.4966389 9.8315486,9.8315486 0 0 1 0.042376,0.01497 9.8315486,9.8315486 0 0 1 0.1276403,0.04651 9.8315486,9.8315486 0 0 1 0.1266059,0.04857 9.8315486,9.8315486 0 0 1 0.1260924,0.05013 9.8315486,9.8315486 0 0 1 0.1250553,0.05219 9.8315486,9.8315486 0 0 1 0.1245421,0.05375 9.8315486,9.8315486 0 0 1 0.1240234,0.05529 9.8315486,9.8315486 0 0 1 0.1229889,0.05685 9.8315486,9.8315486 0 0 1 0.1219571,0.05891 9.8315486,9.8315486 0 0 1 0.1214384,0.06046 9.8315486,9.8315486 0 0 1 0.1204066,0.06201 9.8315486,9.8315486 0 0 1 0.119888,0.06408 9.8315486,9.8315486 0 0 1 0.1188561,0.06563 9.8315486,9.8315486 0 0 1 0.1178243,0.06666 9.8315486,9.8315486 0 0 1 0.1167871,0.06873 9.8315486,9.8315486 0 0 1 0.1162738,0.07028 9.8315486,9.8315486 0 0 1 0.1147206,0.07183 9.8315486,9.8315486 0 0 1 0.1142048,0.0739 9.8315486,9.8315486 0 0 1 0.1126543,0.07493 9.8315486,9.8315486 0 0 1 0.1121383,0.07648 9.8315486,9.8315486 0 0 1 0.1111039,0.07803 9.8315486,9.8315486 0 0 1 0.1095533,0.07958 9.8315486,9.8315486 0 0 1 0.1085215,0.08113 9.8315486,9.8315486 0 0 1 0.107487,0.08268 9.8315486,9.8315486 0 0 1 0.1064525,0.08423 9.8315486,9.8315486 0 0 1 0.1054206,0.08578 9.8315486,9.8315486 0 0 1 0.1038701,0.08682 9.8315486,9.8315486 0 0 1 0.1028356,0.08837 9.8315486,9.8315486 0 0 1 0.1018037,0.08992 9.8315486,9.8315486 0 0 1 0.1002506,0.09147 9.8315486,9.8315486 0 0 1 0.098703,0.0925 9.8315486,9.8315486 0 0 1 0.098184,0.09405 9.8315486,9.8315486 0 0 1 0.096118,0.09509 9.8315486,9.8315486 0 0 1 0.095086,0.09663 9.8315486,9.8315486 0 0 1 0.094051,0.09819 9.8315486,9.8315486 0 0 1 0.092501,0.09922 9.8315486,9.8315486 0 0 1 0.09095,0.100251 9.8315486,9.8315486 0 0 1 0.089916,0.101804 9.8315486,9.8315486 0 0 1 0.08785,0.102835 9.8315486,9.8315486 0 0 1 0.086818,0.104386 9.8315486,9.8315486 0 0 1 0.085783,0.105421 9.8315486,9.8315486 0 0 1 0.083714,0.106452 9.8315486,9.8315486 0 0 1 0.082682,0.107487 9.8315486,9.8315486 0 0 1 0.080616,0.109038 9.8315486,9.8315486 0 0 1 0.079581,0.110072 9.8315486,9.8315486 0 0 1 0.078031,0.111104 9.8315486,9.8315486 0 0 1 0.076483,0.111619 9.8315486,9.8315486 0 0 1 0.074414,0.113173 9.8315486,9.8315486 0 0 1 0.073379,0.114205 9.8315486,9.8315486 0 0 1 0.071829,0.115239 9.8315486,9.8315486 0 0 1 0.070281,0.116272 9.8315486,9.8315486 0 0 1 0.068212,0.116789 9.8315486,9.8315486 0 0 1 0.066662,0.117822 9.8315486,9.8315486 0 0 1 0.06563,0.119372 9.8315486,9.8315486 0 0 1 0.063563,0.119372 9.8315486,9.8315486 0 0 1 0.06201,0.120922 9.8315486,9.8315486 0 0 1 0.059944,0.121442 9.8315486,9.8315486 0 0 1 0.058396,0.122473 9.8315486,9.8315486 0 0 1 0.057359,0.122988 9.8315486,9.8315486 0 0 1 0.054777,0.124024 9.8315486,9.8315486 0 0 1 0.053745,0.124542 9.8315486,9.8315486 0 0 1 0.051676,0.125574 9.8315486,9.8315486 0 0 1 0.050125,0.125571 9.8315486,9.8315486 0 0 1 0.048062,0.127124 9.8315486,9.8315486 0 0 1 0.046508,0.127125 9.8315486,9.8315486 0 0 1 0.044958,0.128159 9.8315486,9.8315486 0 0 1 0.042892,0.128672 9.8315486,9.8315486 0 0 1 0.040825,0.129193 9.8315486,9.8315486 0 0 1 0.039791,0.129707 9.8315486,9.8315486 0 0 1 0.037206,0.130225 9.8315486,9.8315486 0 0 1 0.036174,0.130741 9.8315486,9.8315486 0 0 1 0.034107,0.131776 9.8315486,9.8315486 0 0 1 0.032038,0.131257 9.8315486,9.8315486 0 0 1 0.030488,0.132292 9.8315486,9.8315486 0 0 1 0.028424,0.132808 9.8315486,9.8315486 0 0 1 0.026353,0.13281 9.8315486,9.8315486 0 0 1 0.02532,0.133323 9.8315486,9.8315486 0 0 1 0.02273,0.133842 9.8315486,9.8315486 0 0 1 0.02119,0.133843 9.8315486,9.8315486 0 0 1 0.01963,0.134358 9.8315486,9.8315486 0 0 1 0.01707,0.13436 9.8315486,9.8315486 0 0 1 0.01601,0.134874 9.8315486,9.8315486 0 0 1 0.01344,0.134877 9.8315486,9.8315486 0 0 1 0.01188,0.134874 9.8315486,9.8315486 0 0 1 0.01035,0.135393 9.8315486,9.8315486 0 0 1 0.0083,0.135392 9.8315486,9.8315486 0 0 1 0.0062,0.135393 9.8315486,9.8315486 0 0 1 0.0041,0.135392 9.8315486,9.8315486 0 0 1 0.0026,0.135909 9.8315486,9.8315486 0 0 1 0.0011,0.117821 9.8315486,9.8315486 0 0 1 -0.0011,0.135393 9.8315486,9.8315486 0 0 1 -0.0031,0.135909 9.8315486,9.8315486 0 0 1 -0.0047,0.135392 9.8315486,9.8315486 0 0 1 -0.0062,0.135393 9.8315486,9.8315486 0 0 1 -0.0088,0.135392 9.8315486,9.8315486 0 0 1 -0.01035,0.135393 9.8315486,9.8315486 0 0 1 -0.01188,0.134874 9.8315486,9.8315486 0 0 1 -0.01394,0.134877 9.8315486,9.8315486 0 0 1 -0.01601,0.134874 9.8315486,9.8315486 0 0 1 -0.01757,0.13436 9.8315486,9.8315486 0 0 1 -0.01963,0.134358 9.8315486,9.8315486 0 0 1 -0.02119,0.133841 9.8315486,9.8315486 0 0 1 -0.02376,0.133326 9.8315486,9.8315486 0 0 1 -0.02479,0.133324 9.8315486,9.8315486 0 0 1 -0.026874,0.133326 9.8315486,9.8315486 0 0 1 -0.028938,0.132292 9.8315486,9.8315486 0 0 1 -0.030491,0.132291 9.8315486,9.8315486 0 0 1 -0.032554,0.131773 9.8315486,9.8315486 0 0 1 -0.034107,0.13126 9.8315486,9.8315486 0 0 1 -0.036174,0.130741 9.8315486,9.8315486 0 0 1 -0.037724,0.130226 9.8315486,9.8315486 0 0 1 -0.039791,0.129706 9.8315486,9.8315486 0 0 1 -0.041341,0.128675 9.8315486,9.8315486 0 0 1 -0.043408,0.128675 9.8315486,9.8315486 0 0 1 -0.044958,0.128156 9.8315486,9.8315486 0 0 1 -0.046508,0.127125 9.8315486,9.8315486 0 0 1 -0.048578,0.126608 9.8315486,9.8315486 0 0 1 -0.050125,0.12609 9.8315486,9.8315486 0 0 1 -0.052192,0.125574 9.8315486,9.8315486 0 0 1 -0.053229,0.124539 9.8315486,9.8315486 0 0 1 -0.055809,0.123508 9.8315486,9.8315486 0 0 1 -0.056846,0.122989 9.8315486,9.8315486 0 0 1 -0.05891,0.122473 9.8315486,9.8315486 0 0 1 -0.060462,0.121441 9.8315486,9.8315486 0 0 1 -0.06201,0.120406 9.8315486,9.8315486 0 0 1 -0.06408,0.119372 9.8315486,9.8315486 0 0 1 -0.065114,0.118856 9.8315486,9.8315486 0 0 1 -0.067178,0.117822 9.8315486,9.8315486 0 0 1 -0.068731,0.117306 9.8315486,9.8315486 0 0 1 -0.070279,0.115755 9.8315486,9.8315486 0 0 1 -0.071832,0.115237 9.8315486,9.8315486 0 0 1 -0.07338,0.113688 9.8315486,9.8315486 0 0 1 -0.07493,0.113173 9.8315486,9.8315486 0 0 1 -0.076999,0.112136 9.8315486,9.8315486 0 0 1 -0.078031,0.110588 9.8315486,9.8315486 0 0 1 -0.079581,0.109556 9.8315486,9.8315486 0 0 1 -0.081132,0.109037 9.8315486,9.8315486 0 0 1 -0.082682,0.107485 9.8315486,9.8315486 0 0 1 -0.084233,0.106455 9.8315486,9.8315486 0 0 1 -0.085267,0.104902 9.8315486,9.8315486 0 0 1 -0.087334,0.104386 9.8315486,9.8315486 0 0 1 -0.088366,0.102838 9.8315486,9.8315486 0 0 1 -0.089916,0.101285 9.8315486,9.8315486 0 0 1 -0.090951,0.100253 9.8315486,9.8315486 0 0 1 -0.09302,0.09922 9.8315486,9.8315486 0 0 1 -0.093533,0.09767 9.8315486,9.8315486 0 0 1 -0.095602,0.09663 9.8315486,9.8315486 0 0 1 -0.096636,0.09508 9.8315486,9.8315486 0 0 1 -0.097668,0.09405 9.8315486,9.8315486 0 0 1 -0.099219,0.09199 9.8315486,9.8315486 0 0 1 -0.1007692,0.09147 9.8315486,9.8315486 0 0 1 -0.1018011,0.0894 9.8315486,9.8315486 0 0 1 -0.1028356,0.08837 9.8315486,9.8315486 0 0 1 -0.1043861,0.08682 9.8315486,9.8315486 0 0 1 -0.1054206,0.08527 9.8315486,9.8315486 0 0 1 -0.1064524,0.08423 9.8315486,9.8315486 0 0 1 -0.1074897,0.08216 9.8315486,9.8315486 0 0 1 -0.1090348,0.08113 9.8315486,9.8315486 0 0 1 -0.109556,0.07958 9.8315486,9.8315486 0 0 1 -0.1111038,0.07751 9.8315486,9.8315486 0 0 1 -0.1121384,0.07648 9.8315486,9.8315486 0 0 1 -0.1131702,0.07493 9.8315486,9.8315486 0 0 1 -0.1142047,0.07338 9.8315486,9.8315486 0 0 1 -0.1152393,0.07183 9.8315486,9.8315486 0 0 1 -0.1157552,0.06976 9.8315486,9.8315486 0 0 1 -0.1173057,0.06873 9.8315486,9.8315486 0 0 1 -0.1178216,0.06666 9.8315486,9.8315486 0 0 1 -0.1188561,0.06511 9.8315486,9.8315486 0 0 1 -0.119888,0.06356 9.8315486,9.8315486 0 0 1 -0.1209252,0.06201 9.8315486,9.8315486 0 0 1 -0.1214384,0.06046 9.8315486,9.8315486 0 0 1 -0.1219571,0.05839 9.8315486,9.8315486 0 0 1 -0.1235048,0.05685 9.8315486,9.8315486 0 0 1 -0.1235075,0.05529 9.8315486,9.8315486 0 0 1 -0.125058,0.05323 9.8315486,9.8315486 0 0 1 -0.1250553,0.05168 9.8315486,9.8315486 0 0 1 -0.1260925,0.05013 9.8315486,9.8315486 0 0 1 -0.1266058,0.04857 9.8315486,9.8315486 0 0 1 -0.1276403,0.04599 9.8315486,9.8315486 0 0 1 -0.1178243,0.04134 24.864681,24.864681 0 0 0 5.8471886,8.724016 H 42.680206 A 24.864681,24.864681 0 0 0 50.279743,24.999941 24.864681,24.864681 0 0 0 42.67814,7.1054265 Z" />
    <path
       id="path985"
       style="display:inline;fill:#ffffff;fill-opacity:1;stroke:#000000;stroke-width:0.27064;stroke-opacity:1;paint-order:markers fill stroke"
       d="M 25.396425,0.13531999 A 24.864681,24.864681 0 0 0 8.1519999,7.1054371 H 42.678058 A 24.864681,24.864681 0 0 0 25.41503,0.13531999 a 24.864681,24.864681 0 0 0 -0.0186,0 z" />
    <circle
       style="display:inline;opacity:0.88141;mix-blend-mode:normal;fill:url(#radialGradient1561-9-6);fill-opacity:1;stroke:none;stroke-width:0.212909;stroke-opacity:1;paint-order:markers fill stroke"
       id="path1129-9-74"
       cx="25"
       cy="25.000324"
       r="25" />
    <circle
       style="display:inline;opacity:0.88141;mix-blend-mode:normal;fill:url(#radialGradient1561-8);fill-opacity:1;stroke:none;stroke-width:0.212909;stroke-opacity:1;paint-order:markers fill stroke"
       id="path1129-2"
       cx="25.415184"
       cy="25.000324"
       r="25" />
  </g>
</svg>
