<?xml version="1.0" encoding="UTF-8" standalone="no"?>
<svg
   xmlns:dc="http://purl.org/dc/elements/1.1/"
   xmlns:cc="http://creativecommons.org/ns#"
   xmlns:rdf="http://www.w3.org/1999/02/22-rdf-syntax-ns#"
   xmlns:svg="http://www.w3.org/2000/svg"
   xmlns="http://www.w3.org/2000/svg"
   xmlns:xlink="http://www.w3.org/1999/xlink"
   xmlns:sodipodi="http://sodipodi.sourceforge.net/DTD/sodipodi-0.dtd"
   xmlns:inkscape="http://www.inkscape.org/namespaces/inkscape"
   width="50mm"
   height="50mm"
   viewBox="0 0 50 50"
   version="1.1"
   id="svg8"
   inkscape:version="1.0.1 (3bc2e813f5, 2020-09-07)"
   sodipodi:docname="2-3.svg">
  <defs
     id="defs2">
    <radialGradient
       inkscape:collect="always"
       xlink:href="#linearGradient1135"
       id="radialGradient1561-9-5-3"
       cx="41.704235"
       cy="24.089622"
       fx="41.704235"
       fy="24.089622"
       r="32.127975"
       gradientTransform="matrix(1.0523578,0.02552247,-0.01886637,0.77790935,-61.549199,14.906427)"
       gradientUnits="userSpaceOnUse" />
    <linearGradient
       inkscape:collect="always"
       id="linearGradient1135">
      <stop
         style="stop-color:#ffffff;stop-opacity:1;"
         offset="0"
         id="stop1131" />
      <stop
         style="stop-color:#ffffff;stop-opacity:0;"
         offset="1"
         id="stop1133" />
    </linearGradient>
    <radialGradient
       inkscape:collect="always"
       xlink:href="#linearGradient1135"
       id="radialGradient1561-47-0"
       cx="26.274075"
       cy="14.800471"
       fx="26.274075"
       fy="14.800471"
       r="32.127975"
       gradientTransform="matrix(0.77813809,0,0,0.77813812,-3.3823559,4.4117618)"
       gradientUnits="userSpaceOnUse" />
    <radialGradient
       inkscape:collect="always"
       xlink:href="#linearGradient1135"
       id="radialGradient1561-9-4"
       cx="54.447247"
       cy="49.531189"
       fx="54.447247"
       fy="49.531189"
       r="32.127975"
       gradientTransform="matrix(0.77813809,0,0,0.77813812,-3.3823559,4.4117618)"
       gradientUnits="userSpaceOnUse" />
  </defs>
  <sodipodi:namedview
     id="base"
     pagecolor="#ffffff"
     bordercolor="#666666"
     borderopacity="1.0"
     inkscape:pageopacity="0.0"
     inkscape:pageshadow="2"
     inkscape:zoom="0.98994949"
     inkscape:cx="222.59462"
     inkscape:cy="231.88183"
     inkscape:document-units="mm"
     inkscape:current-layer="layer1"
     inkscape:document-rotation="0"
     showgrid="false"
     inkscape:window-width="1920"
     inkscape:window-height="1017"
     inkscape:window-x="-8"
     inkscape:window-y="-8"
     inkscape:window-maximized="1" />
  <metadata
     id="metadata5">
    <rdf:RDF>
      <cc:Work
         rdf:about="">
        <dc:format>image/svg+xml</dc:format>
        <dc:type
           rdf:resource="http://purl.org/dc/dcmitype/StillImage" />
        <dc:title></dc:title>
      </cc:Work>
    </rdf:RDF>
  </metadata>
  <g
     inkscape:label="Layer 1"
     inkscape:groupmode="layer"
     id="layer1">
    <path
       id="path833-4"
       style="display:inline;fill:#000000;fill-opacity:1;stroke:#000000;stroke-width:0.27064;stroke-opacity:1;paint-order:markers fill stroke"
       d="m 49.863605,25.184191 -0.725535,0.725538 -0.802021,0.467672 -1.603518,0.601513 0.33383,2.405536 2.004529,-0.06666 0.407209,0.04857 a 24.864681,24.864681 0 0 0 0.385506,-4.182172 z" />
    <path
       id="path1195"
       style="display:inline;fill:#000000;fill-opacity:1;stroke:#000000;stroke-width:0.27064;stroke-opacity:1;paint-order:markers fill stroke"
       d="m 48.648694,17.320589 -1.314648,0.37052 -1.002525,0.601514 0.40101,1.403015 0.267166,1.470194 1.670701,-0.802018 0.71365,-0.22686 a 24.864681,24.864681 0 0 0 -0.705382,-2.723864 24.864681,24.864681 0 0 0 -0.02997,-0.0925 z" />
    <path
       id="path1193"
       style="display:inline;fill:#000000;fill-opacity:0;stroke:#000000;stroke-width:0.27064;stroke-opacity:1;paint-order:markers fill stroke"
       d="m 47.797066,15.073181 a 9.8315486,9.8315486 0 0 0 -0.04186,0.02842 9.8315486,9.8315486 0 0 0 -0.111104,0.07803 9.8315486,9.8315486 0 0 0 -0.110069,0.07906 9.8315486,9.8315486 0 0 0 -0.108522,0.08113 9.8315486,9.8315486 0 0 0 -0.108003,0.08268 9.8315486,9.8315486 0 0 0 -0.106455,0.08371 9.8315486,9.8315486 0 0 0 -0.105421,0.08527 9.8315486,9.8315486 0 0 0 -0.103867,0.08682 9.8315486,9.8315486 0 0 0 -0.103354,0.08837 9.8315486,9.8315486 0 0 0 -0.101801,0.08992 9.8315486,9.8315486 0 0 0 -0.100254,0.09095 9.8315486,9.8315486 0 0 0 -0.09922,0.0925 9.8315486,9.8315486 0 0 0 -0.09819,0.09353 9.8315486,9.8315486 0 0 0 -0.09664,0.09509 9.8315486,9.8315486 0 0 0 -0.09508,0.09663 9.8315486,9.8315486 0 0 0 -0.09405,0.09767 9.8315486,9.8315486 0 0 0 -0.0925,0.09922 9.8315486,9.8315486 0 0 0 -0.09147,0.100252 9.8315486,9.8315486 0 0 0 -0.08992,0.101803 9.8315486,9.8315486 0 0 0 -0.08837,0.102836 9.8315486,9.8315486 0 0 0 -0.08682,0.10387 9.8315486,9.8315486 0 0 0 -0.08578,0.105419 9.8315486,9.8315486 0 0 0 -0.08423,0.106454 9.8315486,9.8315486 0 0 0 -0.08268,0.107487 9.8315486,9.8315486 0 0 0 -0.08113,0.10852 9.8315486,9.8315486 0 0 0 -0.07958,0.109555 9.8315486,9.8315486 0 0 0 -0.07803,0.111104 9.8315486,9.8315486 0 0 0 -0.07648,0.111621 9.8315486,9.8315486 0 0 0 -0.07493,0.113171 9.8315486,9.8315486 0 0 0 -0.07338,0.114205 9.8315486,9.8315486 0 0 0 -0.07235,0.114722 9.8315486,9.8315486 0 0 0 -0.07028,0.116272 9.8315486,9.8315486 0 0 0 -0.06821,0.116789 9.8315486,9.8315486 0 0 0 -0.06718,0.117822 9.8315486,9.8315486 0 0 0 -0.06563,0.118856 9.8315486,9.8315486 0 0 0 -0.06356,0.119372 9.8315486,9.8315486 0 0 0 -0.06253,0.120923 9.8315486,9.8315486 0 0 0 -0.06046,0.12144 9.8315486,9.8315486 0 0 0 -0.05839,0.121956 9.8315486,9.8315486 0 0 0 -0.05736,0.12299 9.8315486,9.8315486 0 0 0 -0.05529,0.124023 9.8315486,9.8315486 0 0 0 -0.05374,0.124541 9.8315486,9.8315486 0 0 0 -0.05168,0.125057 9.8315486,9.8315486 0 0 0 -0.05064,0.12609 9.8315486,9.8315486 0 0 0 -0.04806,0.126607 9.8315486,9.8315486 0 0 0 -0.04703,0.127641 9.8315486,9.8315486 0 0 0 -0.04496,0.127641 9.8315486,9.8315486 0 0 0 -0.04341,0.128674 9.8315486,9.8315486 0 0 0 -0.04134,0.129191 9.8315486,9.8315486 0 0 0 -0.03927,0.129708 9.8315486,9.8315486 0 0 0 -0.03824,0.130225 9.8315486,9.8315486 0 0 0 -0.03566,0.130741 9.8315486,9.8315486 0 0 0 -0.03462,0.131258 9.8315486,9.8315486 0 0 0 -0.03204,0.131775 9.8315486,9.8315486 0 0 0 -0.03101,0.131775 9.8315486,9.8315486 0 0 0 -0.02842,0.132808 9.8315486,9.8315486 0 0 0 -0.02687,0.132809 9.8315486,9.8315486 0 0 0 -0.02532,0.133325 9.8315486,9.8315486 0 0 0 -0.02326,0.133326 9.8315486,9.8315486 0 0 0 -0.02119,0.134358 9.8315486,9.8315486 0 0 0 -0.01963,0.133842 9.8315486,9.8315486 0 0 0 -0.0181,0.134358 9.8315486,9.8315486 0 0 0 -0.0155,0.134877 9.8315486,9.8315486 0 0 0 -0.01394,0.134874 9.8315486,9.8315486 0 0 0 -0.01241,0.135392 9.8315486,9.8315486 0 0 0 -0.01035,0.134877 9.8315486,9.8315486 0 0 0 -0.0078,0.135393 9.8315486,9.8315486 0 0 0 -0.0072,0.135392 9.8315486,9.8315486 0 0 0 -0.0047,0.135909 9.8315486,9.8315486 0 0 0 -0.0031,0.135392 9.8315486,9.8315486 0 0 0 -0.0011,0.13539 9.8315486,9.8315486 0 0 0 5.29e-4,0.11834 9.8315486,9.8315486 0 0 0 0.0031,0.135393 9.8315486,9.8315486 0 0 0 0.0047,0.135393 9.8315486,9.8315486 0 0 0 0.0062,0.135392 9.8315486,9.8315486 0 0 0 0.0078,0.135393 9.8315486,9.8315486 0 0 0 0.01035,0.13539 9.8315486,9.8315486 0 0 0 0.01188,0.135392 9.8315486,9.8315486 0 0 0 0.01394,0.134877 9.8315486,9.8315486 0 0 0 0.0155,0.134358 9.8315486,9.8315486 0 0 0 0.01757,0.134877 9.8315486,9.8315486 0 0 0 0.01913,0.133842 9.8315486,9.8315486 0 0 0 0.02119,0.134358 9.8315486,9.8315486 0 0 0 0.02326,0.133323 9.8315486,9.8315486 0 0 0 0.02479,0.133326 9.8315486,9.8315486 0 0 0 0.02687,0.133327 9.8315486,9.8315486 0 0 0 0.02842,0.132291 9.8315486,9.8315486 0 0 0 0.03049,0.132292 9.8315486,9.8315486 0 0 0 0.03204,0.131773 9.8315486,9.8315486 0 0 0 0.03411,0.13126 9.8315486,9.8315486 0 0 0 0.03514,0.130741 9.8315486,9.8315486 0 0 0 0.03772,0.130225 9.8315486,9.8315486 0 0 0 0.03927,0.129707 9.8315486,9.8315486 0 0 0 0.04134,0.129191 9.8315486,9.8315486 0 0 0 0.04289,0.128675 9.8315486,9.8315486 0 0 0 0.04548,0.128155 9.8315486,9.8315486 0 0 0 0.04599,0.127643 9.8315486,9.8315486 0 0 0 0.04858,0.126606 9.8315486,9.8315486 0 0 0 0.05013,0.12609 9.8315486,9.8315486 0 0 0 0.05168,0.125058 9.8315486,9.8315486 0 0 0 0.05323,0.125057 9.8315486,9.8315486 0 0 0 0.05529,0.123505 9.8315486,9.8315486 0 0 0 0.05633,0.123508 9.8315486,9.8315486 0 0 0 0.05839,0.121957 9.8315486,9.8315486 0 0 0 0.06098,0.121438 9.8315486,9.8315486 0 0 0 0.06201,0.120923 9.8315486,9.8315486 0 0 0 0.06356,0.11989 9.8315486,9.8315486 0 0 0 0.06511,0.118857 9.8315486,9.8315486 0 0 0 0.06666,0.117821 9.8315486,9.8315486 0 0 0 0.06873,0.117306 9.8315486,9.8315486 0 0 0 0.07028,0.115755 9.8315486,9.8315486 0 0 0 0.07131,0.115239 9.8315486,9.8315486 0 0 0 0.07338,0.114205 9.8315486,9.8315486 0 0 0 0.07493,0.11317 9.8315486,9.8315486 0 0 0 0.07648,0.112139 9.8315486,9.8315486 0 0 0 0.07751,0.111104 9.8315486,9.8315486 0 0 0 0.07958,0.109553 9.8315486,9.8315486 0 0 0 0.08113,0.109037 9.8315486,9.8315486 0 0 0 0.08217,0.107487 9.8315486,9.8315486 0 0 0 0.08423,0.106455 9.8315486,9.8315486 0 0 0 0.08526,0.105421 9.8315486,9.8315486 0 0 0 0.08682,0.104386 9.8315486,9.8315486 0 0 0 0.08837,0.102836 9.8315486,9.8315486 0 0 0 0.0894,0.101801 9.8315486,9.8315486 0 0 0 0.09147,0.100769 9.8315486,9.8315486 0 0 0 0.09198,0.09922 9.8315486,9.8315486 0 0 0 0.09405,0.09767 9.8315486,9.8315486 0 0 0 0.09509,0.09664 9.8315486,9.8315486 0 0 0 0.09663,0.0956 9.8315486,9.8315486 0 0 0 0.09767,0.09353 9.8315486,9.8315486 0 0 0 0.09922,0.09302 9.8315486,9.8315486 0 0 0 0.100254,0.09095 9.8315486,9.8315486 0 0 0 0.101285,0.08992 9.8315486,9.8315486 0 0 0 0.102835,0.08837 9.8315486,9.8315486 0 0 0 0.104387,0.08733 9.8315486,9.8315486 0 0 0 0.104904,0.08527 9.8315486,9.8315486 0 0 0 0.106453,0.08423 9.8315486,9.8315486 0 0 0 0.107487,0.08268 9.8315486,9.8315486 0 0 0 0.109037,0.08113 9.8315486,9.8315486 0 0 0 0.109553,0.07958 9.8315486,9.8315486 0 0 0 0.111104,0.07803 9.8315486,9.8315486 0 0 0 0.111623,0.077 9.8315486,9.8315486 0 0 0 0.11317,0.07493 9.8315486,9.8315486 0 0 0 0.113689,0.07338 9.8315486,9.8315486 0 0 0 0.115239,0.07183 9.8315486,9.8315486 0 0 0 0.115755,0.07028 9.8315486,9.8315486 0 0 0 0.117306,0.06873 9.8315486,9.8315486 0 0 0 0.117821,0.06718 9.8315486,9.8315486 0 0 0 0.118857,0.06511 9.8315486,9.8315486 0 0 0 0.119372,0.06408 9.8315486,9.8315486 0 0 0 0.09198,0.04754 24.864681,24.864681 0 0 0 0.591695,-2.515092 24.864681,24.864681 0 0 0 0.01085,-0.06098 l -0.407209,-0.04857 -2.004529,0.06666 -0.33383,-2.405536 1.603518,-0.601513 0.802021,-0.467672 0.725535,-0.725538 a 24.864681,24.864681 0 0 0 0.0011,-0.183968 24.864681,24.864681 0 0 0 -0.480591,-4.863269 l -0.71365,0.22686 -1.670701,0.802018 -0.267166,-1.470194 -0.40101,-1.403015 1.002524,-0.601514 1.314649,-0.37052 a 24.864681,24.864681 0 0 0 -0.851628,-2.247408 z" />
    <path
       id="path1059"
       style="display:inline;fill:#1c2c71;fill-opacity:1;stroke:#000000;stroke-width:0.27064;stroke-opacity:1;paint-order:markers fill stroke"
       d="M 24.981415,0.1354845 A 24.864681,24.864681 0 0 0 0.1353847,25.000114 24.864681,24.864681 0 0 0 25.000015,49.864751 24.864681,24.864681 0 0 0 48.875566,31.942328 a 9.8315486,9.8315486 0 0 1 -0.092,-0.04754 9.8315486,9.8315486 0 0 1 -0.119369,-0.06408 9.8315486,9.8315486 0 0 1 -0.118861,-0.06511 9.8315486,9.8315486 0 0 1 -0.117819,-0.06718 9.8315486,9.8315486 0 0 1 -0.117311,-0.06873 9.8315486,9.8315486 0 0 1 -0.11575,-0.07028 9.8315486,9.8315486 0 0 1 -0.11524,-0.07183 9.8315486,9.8315486 0 0 1 -0.113691,-0.07338 9.8315486,9.8315486 0 0 1 -0.11317,-0.07493 9.8315486,9.8315486 0 0 1 -0.11162,-0.077 9.8315486,9.8315486 0 0 1 -0.111099,-0.07803 9.8315486,9.8315486 0 0 1 -0.109561,-0.07958 9.8315486,9.8315486 0 0 1 -0.109029,-0.08113 9.8315486,9.8315486 0 0 1 -0.10749,-0.08268 9.8315486,9.8315486 0 0 1 -0.10646,-0.08423 9.8315486,9.8315486 0 0 1 -0.1049,-0.08527 9.8315486,9.8315486 0 0 1 -0.10438,-0.08733 9.8315486,9.8315486 0 0 1 -0.102839,-0.08837 9.8315486,9.8315486 0 0 1 -0.10129,-0.08992 9.8315486,9.8315486 0 0 1 -0.100251,-0.09095 9.8315486,9.8315486 0 0 1 -0.0992,-0.09302 9.8315486,9.8315486 0 0 1 -0.0977,-0.09353 9.8315486,9.8315486 0 0 1 -0.0966,-0.0956 9.8315486,9.8315486 0 0 1 -0.0951,-0.09663 9.8315486,9.8315486 0 0 1 -0.0941,-0.09767 9.8315486,9.8315486 0 0 1 -0.092,-0.09922 9.8315486,9.8315486 0 0 1 -0.0915,-0.100769 9.8315486,9.8315486 0 0 1 -0.0894,-0.101804 9.8315486,9.8315486 0 0 1 -0.0884,-0.102836 9.8315486,9.8315486 0 0 1 -0.0868,-0.104386 9.8315486,9.8315486 0 0 1 -0.0853,-0.10542 9.8315486,9.8315486 0 0 1 -0.0842,-0.106453 9.8315486,9.8315486 0 0 1 -0.0822,-0.107487 9.8315486,9.8315486 0 0 1 -0.0811,-0.109037 9.8315486,9.8315486 0 0 1 -0.0796,-0.109556 9.8315486,9.8315486 0 0 1 -0.0775,-0.111104 9.8315486,9.8315486 0 0 1 -0.0765,-0.112139 9.8315486,9.8315486 0 0 1 -0.0749,-0.11317 9.8315486,9.8315486 0 0 1 -0.0734,-0.114205 9.8315486,9.8315486 0 0 1 -0.0713,-0.115239 9.8315486,9.8315486 0 0 1 -0.0703,-0.115755 9.8315486,9.8315486 0 0 1 -0.0687,-0.117306 9.8315486,9.8315486 0 0 1 -0.0667,-0.117821 9.8315486,9.8315486 0 0 1 -0.0651,-0.118856 9.8315486,9.8315486 0 0 1 -0.0636,-0.119888 9.8315486,9.8315486 0 0 1 -0.062,-0.120926 9.8315486,9.8315486 0 0 1 -0.0605,-0.121438 9.8315486,9.8315486 0 0 1 -0.0584,-0.121957 9.8315486,9.8315486 0 0 1 -0.0568,-0.123505 9.8315486,9.8315486 0 0 1 -0.0553,-0.123507 9.8315486,9.8315486 0 0 1 -0.0532,-0.125058 9.8315486,9.8315486 0 0 1 -0.0517,-0.125056 9.8315486,9.8315486 0 0 1 -0.0501,-0.126092 9.8315486,9.8315486 0 0 1 -0.0481,-0.126606 9.8315486,9.8315486 0 0 1 -0.0465,-0.12764 9.8315486,9.8315486 0 0 1 -0.045,-0.12816 9.8315486,9.8315486 0 0 1 -0.0429,-0.128674 9.8315486,9.8315486 0 0 1 -0.0413,-0.129191 9.8315486,9.8315486 0 0 1 -0.0393,-0.129708 9.8315486,9.8315486 0 0 1 -0.0377,-0.130225 9.8315486,9.8315486 0 0 1 -0.0357,-0.130741 9.8315486,9.8315486 0 0 1 -0.0341,-0.131257 9.8315486,9.8315486 0 0 1 -0.032,-0.131776 9.8315486,9.8315486 0 0 1 -0.0305,-0.132291 9.8315486,9.8315486 0 0 1 -0.0284,-0.132292 9.8315486,9.8315486 0 0 1 -0.0269,-0.133327 9.8315486,9.8315486 0 0 1 -0.02479,-0.133323 9.8315486,9.8315486 0 0 1 -0.02331,-0.133325 9.8315486,9.8315486 0 0 1 -0.02119,-0.134359 9.8315486,9.8315486 0 0 1 -0.0191,-0.133842 9.8315486,9.8315486 0 0 1 -0.0176,-0.134877 9.8315486,9.8315486 0 0 1 -0.0155,-0.134358 9.8315486,9.8315486 0 0 1 -0.01389,-0.134874 9.8315486,9.8315486 0 0 1 -0.01191,-0.135392 9.8315486,9.8315486 0 0 1 -0.01,-0.135393 9.8315486,9.8315486 0 0 1 -0.008,-0.135393 9.8315486,9.8315486 0 0 1 -0.006,-0.135393 9.8315486,9.8315486 0 0 1 -0.005,-0.135392 9.8315486,9.8315486 0 0 1 -0.003,-0.135393 9.8315486,9.8315486 0 0 1 -5.3e-4,-0.118337 9.8315486,9.8315486 0 0 1 0.0011,-0.135393 9.8315486,9.8315486 0 0 1 0.003,-0.135392 9.8315486,9.8315486 0 0 1 0.005,-0.135909 9.8315486,9.8315486 0 0 1 0.007,-0.135392 9.8315486,9.8315486 0 0 1 0.008,-0.135393 9.8315486,9.8315486 0 0 1 0.0104,-0.134877 9.8315486,9.8315486 0 0 1 0.01241,-0.13539 9.8315486,9.8315486 0 0 1 0.01389,-0.134876 9.8315486,9.8315486 0 0 1 0.0155,-0.134877 9.8315486,9.8315486 0 0 1 0.0181,-0.134357 9.8315486,9.8315486 0 0 1 0.01961,-0.133843 9.8315486,9.8315486 0 0 1 0.02119,-0.134358 9.8315486,9.8315486 0 0 1 0.0232,-0.133326 9.8315486,9.8315486 0 0 1 0.02529,-0.133324 9.8315486,9.8315486 0 0 1 0.0269,-0.13281 9.8315486,9.8315486 0 0 1 0.0284,-0.132808 9.8315486,9.8315486 0 0 1 0.031,-0.131776 9.8315486,9.8315486 0 0 1 0.032,-0.131773 9.8315486,9.8315486 0 0 1 0.0346,-0.131259 9.8315486,9.8315486 0 0 1 0.0357,-0.130742 9.8315486,9.8315486 0 0 1 0.0382,-0.130222 9.8315486,9.8315486 0 0 1 0.0393,-0.12971 9.8315486,9.8315486 0 0 1 0.0413,-0.12919 9.8315486,9.8315486 0 0 1 0.0434,-0.128675 9.8315486,9.8315486 0 0 1 0.045,-0.12764 9.8315486,9.8315486 0 0 1 0.047,-0.127641 9.8315486,9.8315486 0 0 1 0.0481,-0.126608 9.8315486,9.8315486 0 0 1 0.0506,-0.12609 9.8315486,9.8315486 0 0 1 0.0517,-0.125057 9.8315486,9.8315486 0 0 1 0.0538,-0.12454 9.8315486,9.8315486 0 0 1 0.0553,-0.124024 9.8315486,9.8315486 0 0 1 0.0574,-0.122989 9.8315486,9.8315486 0 0 1 0.0584,-0.121957 9.8315486,9.8315486 0 0 1 0.0605,-0.12144 9.8315486,9.8315486 0 0 1 0.0625,-0.120922 9.8315486,9.8315486 0 0 1 0.0636,-0.119373 9.8315486,9.8315486 0 0 1 0.0656,-0.118856 9.8315486,9.8315486 0 0 1 0.0672,-0.117822 9.8315486,9.8315486 0 0 1 0.0682,-0.116789 9.8315486,9.8315486 0 0 1 0.0703,-0.116272 9.8315486,9.8315486 0 0 1 0.0723,-0.114721 9.8315486,9.8315486 0 0 1 0.0734,-0.114205 9.8315486,9.8315486 0 0 1 0.0749,-0.113172 9.8315486,9.8315486 0 0 1 0.0765,-0.111621 9.8315486,9.8315486 0 0 1 0.078,-0.111104 9.8315486,9.8315486 0 0 1 0.0796,-0.109554 9.8315486,9.8315486 0 0 1 0.0811,-0.108521 9.8315486,9.8315486 0 0 1 0.0827,-0.107487 9.8315486,9.8315486 0 0 1 0.0842,-0.106453 9.8315486,9.8315486 0 0 1 0.0858,-0.10542 9.8315486,9.8315486 0 0 1 0.0868,-0.103869 9.8315486,9.8315486 0 0 1 0.0884,-0.102837 9.8315486,9.8315486 0 0 1 0.0899,-0.101802 9.8315486,9.8315486 0 0 1 0.0915,-0.100253 9.8315486,9.8315486 0 0 1 0.0925,-0.09922 9.8315486,9.8315486 0 0 1 0.0941,-0.09767 9.8315486,9.8315486 0 0 1 0.0951,-0.09663 9.8315486,9.8315486 0 0 1 0.0966,-0.09508 9.8315486,9.8315486 0 0 1 0.0982,-0.09354 9.8315486,9.8315486 0 0 1 0.0992,-0.0925 9.8315486,9.8315486 0 0 1 0.10025,-0.09095 9.8315486,9.8315486 0 0 1 0.101809,-0.08992 9.8315486,9.8315486 0 0 1 0.103352,-0.08837 9.8315486,9.8315486 0 0 1 0.10387,-0.08682 9.8315486,9.8315486 0 0 1 0.105418,-0.08527 9.8315486,9.8315486 0 0 1 0.10645,-0.08372 9.8315486,9.8315486 0 0 1 0.108011,-0.08268 9.8315486,9.8315486 0 0 1 0.108519,-0.08113 9.8315486,9.8315486 0 0 1 0.110072,-0.07906 9.8315486,9.8315486 0 0 1 0.111098,-0.07803 9.8315486,9.8315486 0 0 1 0.0419,-0.02842 24.864681,24.864681 0 0 0 -22.797059,-14.9375935 24.864681,24.864681 0 0 0 -0.0186,0 z" />
    <circle
       style="display:inline;opacity:0.88141;mix-blend-mode:normal;fill:url(#radialGradient1561-47-0);fill-opacity:1;stroke:none;stroke-width:0.212909;stroke-opacity:1;paint-order:markers fill stroke"
       id="path1129-4"
       cx="25"
       cy="25"
       r="25" />
    <circle
       style="display:inline;opacity:0.88141;mix-blend-mode:normal;fill:url(#radialGradient1561-9-4);fill-opacity:1;stroke:none;stroke-width:0.212909;stroke-opacity:1;paint-order:markers fill stroke"
       id="path1129-9-75"
       cx="25"
       cy="25"
       r="25" />
  </g>
</svg>
