<?xml version="1.0" encoding="UTF-8" standalone="no"?>
<svg
   xmlns:dc="http://purl.org/dc/elements/1.1/"
   xmlns:cc="http://creativecommons.org/ns#"
   xmlns:rdf="http://www.w3.org/1999/02/22-rdf-syntax-ns#"
   xmlns:svg="http://www.w3.org/2000/svg"
   xmlns="http://www.w3.org/2000/svg"
   xmlns:xlink="http://www.w3.org/1999/xlink"
   xmlns:sodipodi="http://sodipodi.sourceforge.net/DTD/sodipodi-0.dtd"
   xmlns:inkscape="http://www.inkscape.org/namespaces/inkscape"
   width="50mm"
   height="50mm"
   viewBox="0 0 50 50"
   version="1.1"
   id="svg8"
   inkscape:version="1.0.1 (3bc2e813f5, 2020-09-07)"
   sodipodi:docname="2-7.svg">
  <defs
     id="defs2">
    <radialGradient
       inkscape:collect="always"
       xlink:href="#linearGradient1135"
       id="radialGradient1561-9-5-3"
       cx="41.704235"
       cy="24.089622"
       fx="41.704235"
       fy="24.089622"
       r="32.127975"
       gradientTransform="matrix(1.0523578,0.02552247,-0.01886637,0.77790935,-61.549199,14.906427)"
       gradientUnits="userSpaceOnUse" />
    <linearGradient
       inkscape:collect="always"
       id="linearGradient1135">
      <stop
         style="stop-color:#ffffff;stop-opacity:1;"
         offset="0"
         id="stop1131" />
      <stop
         style="stop-color:#ffffff;stop-opacity:0;"
         offset="1"
         id="stop1133" />
    </linearGradient>
    <radialGradient
       inkscape:collect="always"
       xlink:href="#linearGradient1135"
       id="radialGradient1561-637"
       cx="26.274075"
       cy="14.800471"
       fx="26.274075"
       fy="14.800471"
       r="32.127975"
       gradientTransform="matrix(0.77813809,0,0,0.77813812,-3.3823664,4.4120049)"
       gradientUnits="userSpaceOnUse" />
    <radialGradient
       inkscape:collect="always"
       xlink:href="#linearGradient1135"
       id="radialGradient1561-9-67"
       cx="54.447247"
       cy="49.531189"
       fx="54.447247"
       fy="49.531189"
       r="32.127975"
       gradientTransform="matrix(0.77813809,0,0,0.77813812,-3.3823664,4.4120049)"
       gradientUnits="userSpaceOnUse" />
  </defs>
  <sodipodi:namedview
     id="base"
     pagecolor="#ffffff"
     bordercolor="#666666"
     borderopacity="1.0"
     inkscape:pageopacity="0.0"
     inkscape:pageshadow="2"
     inkscape:zoom="0.98994949"
     inkscape:cx="222.59462"
     inkscape:cy="231.88183"
     inkscape:document-units="mm"
     inkscape:current-layer="layer1"
     inkscape:document-rotation="0"
     showgrid="false"
     inkscape:window-width="1920"
     inkscape:window-height="1017"
     inkscape:window-x="-8"
     inkscape:window-y="-8"
     inkscape:window-maximized="1" />
  <metadata
     id="metadata5">
    <rdf:RDF>
      <cc:Work
         rdf:about="">
        <dc:format>image/svg+xml</dc:format>
        <dc:type
           rdf:resource="http://purl.org/dc/dcmitype/StillImage" />
        <dc:title></dc:title>
      </cc:Work>
    </rdf:RDF>
  </metadata>
  <g
     inkscape:label="Layer 1"
     inkscape:groupmode="layer"
     id="layer1">
    <path
       id="path833-77"
       style="display:inline;fill:#fffffd;fill-opacity:1;stroke:#000000;stroke-width:0.27064;stroke-opacity:1;paint-order:markers fill stroke"
       d="m 1.7011843,33.683689 a 9.8315486,9.8315486 0 0 0 0.076,0.04909 9.8315486,9.8315486 0 0 0 0.11524,0.07183 9.8315486,9.8315486 0 0 0 0.11575,0.07028 9.8315486,9.8315486 0 0 0 0.11731,0.06873 9.8315486,9.8315486 0 0 0 0.11782,0.06718 9.8315486,9.8315486 0 0 0 0.11885,0.06511 9.8315486,9.8315486 0 0 0 0.11938,0.06408 9.8315486,9.8315486 0 0 0 0.1204,0.06201 9.8315486,9.8315486 0 0 0 0.1214399,0.06046 9.8315486,9.8315486 0 0 0 0.1224801,0.05891 9.8315486,9.8315486 0 0 0 0.12299,0.05684 9.8315486,9.8315486 0 0 0 0.1235001,0.05581 9.8315486,9.8315486 0 0 0 0.1250598,0.05374 9.8315486,9.8315486 0 0 0 0.1250601,0.05168 9.8315486,9.8315486 0 0 0 0.1260901,0.05013 9.8315486,9.8315486 0 0 0 0.12661,0.04858 9.8315486,9.8315486 0 0 0 0.1271198,0.04651 9.8315486,9.8315486 0 0 0 0.1281602,0.04547 9.8315486,9.8315486 0 0 0 0.1286698,0.04289 9.8315486,9.8315486 0 0 0 0.1286801,0.04134 9.8315486,9.8315486 0 0 0 0.1297001,0.03979 9.8315486,9.8315486 0 0 0 0.13023,0.03772 9.8315486,9.8315486 0 0 0 0.1307399,0.03617 9.8315486,9.8315486 0 0 0 0.1312601,0.03411 9.8315486,9.8315486 0 0 0 0.1317699,0.03256 9.8315486,9.8315486 0 0 0 0.1322901,0.03049 9.8315486,9.8315486 0 0 0 0.1322996,0.02894 9.8315486,9.8315486 0 0 0 0.13332,0.02687 9.8315486,9.8315486 0 0 0 0.13333,0.02532 9.8315486,9.8315486 0 0 0 0.13332,0.02326 9.8315486,9.8315486 0 0 0 0.13384,0.02119 9.8315486,9.8315486 0 0 0 0.13436,0.01963 9.8315486,9.8315486 0 0 0 0.13436,0.01757 9.8315486,9.8315486 0 0 0 0.13488,0.01601 9.8315486,9.8315486 0 0 0 0.13487,0.01394 9.8315486,9.8315486 0 0 0 0.13488,0.01241 9.8315486,9.8315486 0 0 0 0.13539,0.0098 9.8315486,9.8315486 0 0 0 0.13539,0.0088 9.8315486,9.8315486 0 0 0 0.13539,0.0062 9.8315486,9.8315486 0 0 0 0.1354,0.0047 9.8315486,9.8315486 0 0 0 0.13591,0.0031 9.8315486,9.8315486 0 0 0 0.13539,0.0011 9.8315486,9.8315486 0 0 0 0.11782,-0.0011 9.8315486,9.8315486 0 0 0 0.13591,-0.0026 9.8315486,9.8315486 0 0 0 0.13539,-0.0041 9.8315486,9.8315486 0 0 0 0.13539,-0.0062 9.8315486,9.8315486 0 0 0 0.1354,-0.0083 9.8315486,9.8315486 0 0 0 0.13539,-0.01035 9.8315486,9.8315486 0 0 0 0.13487,-0.01188 9.8315486,9.8315486 0 0 0 0.13488,-0.01344 9.8315486,9.8315486 0 0 0 0.13488,-0.01601 9.8315486,9.8315486 0 0 0 0.13435,-0.01707 9.8315486,9.8315486 0 0 0 0.13436,-0.01963 9.8315486,9.8315486 0 0 0 0.13384,-0.02119 9.8315486,9.8315486 0 0 0 0.13385,-0.02273 9.8315486,9.8315486 0 0 0 0.13332,-0.02479 9.8315486,9.8315486 0 0 0 0.13281,-0.02687 9.8315486,9.8315486 0 0 0 0.13281,-0.02842 9.8315486,9.8315486 0 0 0 0.13229,-0.03049 9.8315486,9.8315486 0 0 0 0.13178,-0.03204 9.8315486,9.8315486 0 0 0 0.13125,-0.03411 9.8315486,9.8315486 0 0 0 0.13074,-0.03617 9.8315486,9.8315486 0 0 0 0.13023,-0.03721 9.8315486,9.8315486 0 0 0 0.12971,-0.03979 9.8315486,9.8315486 0 0 0 0.12919,-0.04082 9.8315486,9.8315486 0 0 0 0.12867,-0.04289 9.8315486,9.8315486 0 0 0 0.12816,-0.04496 9.8315486,9.8315486 0 0 0 0.12712,-0.04651 9.8315486,9.8315486 0 0 0 0.12713,-0.04806 9.8315486,9.8315486 0 0 0 0.12609,-0.05013 9.8315486,9.8315486 0 0 0 0.12506,-0.05168 9.8315486,9.8315486 0 0 0 0.12454,-0.05374 9.8315486,9.8315486 0 0 0 0.12402,-0.05478 9.8315486,9.8315486 0 0 0 0.12299,-0.05684 9.8315486,9.8315486 0 0 0 0.12247,-0.05891 9.8315486,9.8315486 0 0 0 0.12144,-0.05994 9.8315486,9.8315486 0 0 0 0.12092,-0.06201 9.8315486,9.8315486 0 0 0 0.11938,-0.06356 9.8315486,9.8315486 0 0 0 0.11937,-0.06511 9.8315486,9.8315486 0 0 0 0.11782,-0.06718 9.8315486,9.8315486 0 0 0 0.11679,-0.06821 9.8315486,9.8315486 0 0 0 0.11627,-0.07028 9.8315486,9.8315486 0 0 0 0.11524,-0.07183 9.8315486,9.8315486 0 0 0 0.11421,-0.07286 9.8315486,9.8315486 0 0 0 0.11317,-0.07493 9.8315486,9.8315486 0 0 0 0.11213,-0.07648 9.8315486,9.8315486 0 0 0 0.11059,-0.07803 9.8315486,9.8315486 0 0 0 0.11007,-0.07958 9.8315486,9.8315486 0 0 0 0.10904,-0.08062 9.8315486,9.8315486 0 0 0 0.10749,-0.08268 9.8315486,9.8315486 0 0 0 0.10645,-0.08372 9.8315486,9.8315486 0 0 0 0.10542,-0.08527 9.8315486,9.8315486 0 0 0 0.10439,-0.08682 9.8315486,9.8315486 0 0 0 0.10283,-0.08837 9.8315486,9.8315486 0 0 0 0.10181,-0.08992 9.8315486,9.8315486 0 0 0 0.10025,-0.09095 9.8315486,9.8315486 0 0 0 0.0992,-0.0925 9.8315486,9.8315486 0 0 0 0.0982,-0.09354 9.8315486,9.8315486 0 0 0 0.0966,-0.0956 9.8315486,9.8315486 0 0 0 0.0951,-0.09612 9.8315486,9.8315486 0 0 0 0.094,-0.09767 9.8315486,9.8315486 0 0 0 0.0925,-0.09922 9.8315486,9.8315486 0 0 0 0.0915,-0.100253 9.8315486,9.8315486 0 0 0 0.0899,-0.101801 9.8315486,9.8315486 0 0 0 0.0884,-0.102836 9.8315486,9.8315486 0 0 0 0.0868,-0.10387 9.8315486,9.8315486 0 0 0 0.0858,-0.105421 9.8315486,9.8315486 0 0 0 0.0842,-0.106452 9.8315486,9.8315486 0 0 0 0.0827,-0.107487 9.8315486,9.8315486 0 0 0 0.0811,-0.108521 9.8315486,9.8315486 0 0 0 0.0796,-0.109554 9.8315486,9.8315486 0 0 0 0.078,-0.111104 9.8315486,9.8315486 0 0 0 0.0765,-0.112138 9.8315486,9.8315486 0 0 0 0.0749,-0.112654 9.8315486,9.8315486 0 0 0 0.0739,-0.114205 9.8315486,9.8315486 0 0 0 0.0718,-0.114723 9.8315486,9.8315486 0 0 0 0.0703,-0.116272 9.8315486,9.8315486 0 0 0 0.0687,-0.116789 9.8315486,9.8315486 0 0 0 0.0667,-0.117822 9.8315486,9.8315486 0 0 0 0.0656,-0.118856 9.8315486,9.8315486 0 0 0 0.0641,-0.119888 9.8315486,9.8315486 0 0 0 0.062,-0.120407 9.8315486,9.8315486 0 0 0 0.0605,-0.121443 9.8315486,9.8315486 0 0 0 0.0589,-0.121952 9.8315486,9.8315486 0 0 0 0.0568,-0.122992 9.8315486,9.8315486 0 0 0 0.0553,-0.124023 9.8315486,9.8315486 0 0 0 0.0537,-0.124539 9.8315486,9.8315486 0 0 0 0.0522,-0.125058 9.8315486,9.8315486 0 0 0 0.0501,-0.12609 9.8315486,9.8315486 0 0 0 0.0486,-0.126606 9.8315486,9.8315486 0 0 0 0.0465,-0.127643 9.8315486,9.8315486 0 0 0 0.045,-0.12764 9.8315486,9.8315486 0 0 0 0.0434,-0.128675 9.8315486,9.8315486 0 0 0 0.0413,-0.129191 9.8315486,9.8315486 0 0 0 0.0398,-0.129707 9.8315486,9.8315486 0 0 0 0.0377,-0.130225 9.8315486,9.8315486 0 0 0 0.0362,-0.130741 9.8315486,9.8315486 0 0 0 0.0341,-0.131257 9.8315486,9.8315486 0 0 0 0.0326,-0.131776 9.8315486,9.8315486 0 0 0 0.0305,-0.131776 9.8315486,9.8315486 0 0 0 0.0284,-0.132807 9.8315486,9.8315486 0 0 0 0.0274,-0.132808 9.8315486,9.8315486 0 0 0 0.0248,-0.133326 9.8315486,9.8315486 0 0 0 0.0233,-0.133842 9.8315486,9.8315486 0 0 0 0.0217,-0.133842 9.8315486,9.8315486 0 0 0 0.0196,-0.133842 9.8315486,9.8315486 0 0 0 0.0176,-0.134874 9.8315486,9.8315486 0 0 0 0.016,-0.134361 9.8315486,9.8315486 0 0 0 0.0139,-0.134875 9.8315486,9.8315486 0 0 0 0.0119,-0.135392 9.8315486,9.8315486 0 0 0 0.0103,-0.134877 9.8315486,9.8315486 0 0 0 0.008,-0.13539 9.8315486,9.8315486 0 0 0 0.007,-0.135393 9.8315486,9.8315486 0 0 0 0.005,-0.135911 9.8315486,9.8315486 0 0 0 0.003,-0.13539 9.8315486,9.8315486 0 0 0 0.001,-0.135911 9.8315486,9.8315486 0 0 0 -5.29e-4,-0.117822 9.8315486,9.8315486 0 0 0 -0.003,-0.135392 9.8315486,9.8315486 0 0 0 -0.005,-0.135393 9.8315486,9.8315486 0 0 0 -0.006,-0.135908 9.8315486,9.8315486 0 0 0 -0.008,-0.135393 9.8315486,9.8315486 0 0 0 -0.01,-0.134874 9.8315486,9.8315486 0 0 0 -0.0119,-0.135392 9.8315486,9.8315486 0 0 0 -0.0139,-0.134877 9.8315486,9.8315486 0 0 0 -0.0155,-0.134358 9.8315486,9.8315486 0 0 0 -0.0176,-0.134877 9.8315486,9.8315486 0 0 0 -0.0191,-0.133839 9.8315486,9.8315486 0 0 0 -0.0212,-0.134361 9.8315486,9.8315486 0 0 0 -0.0233,-0.133323 9.8315486,9.8315486 0 0 0 -0.0248,-0.133327 9.8315486,9.8315486 0 0 0 -0.0269,-0.133326 9.8315486,9.8315486 0 0 0 -0.0284,-0.132292 9.8315486,9.8315486 0 0 0 -0.0305,-0.132291 9.8315486,9.8315486 0 0 0 -0.032,-0.131773 9.8315486,9.8315486 0 0 0 -0.0341,-0.13126 9.8315486,9.8315486 0 0 0 -0.0357,-0.130741 9.8315486,9.8315486 0 0 0 -0.0377,-0.130223 9.8315486,9.8315486 0 0 0 -0.0393,-0.129709 9.8315486,9.8315486 0 0 0 -0.0413,-0.129191 9.8315486,9.8315486 0 0 0 -0.0429,-0.128675 9.8315486,9.8315486 0 0 0 -0.0444,-0.128156 9.8315486,9.8315486 0 0 0 -0.0465,-0.127643 9.8315486,9.8315486 0 0 0 -0.0486,-0.126606 9.8315486,9.8315486 0 0 0 -0.0496,-0.12609 9.8315486,9.8315486 0 0 0 -0.0522,-0.125573 9.8315486,9.8315486 0 0 0 -0.0532,-0.124542 9.8315486,9.8315486 0 0 0 -0.0553,-0.123505 9.8315486,9.8315486 0 0 0 -0.0568,-0.123508 9.8315486,9.8315486 0 0 0 -0.0584,-0.121957 9.8315486,9.8315486 0 0 0 -0.0605,-0.121954 9.8315486,9.8315486 0 0 0 -0.062,-0.120407 9.8315486,9.8315486 0 0 0 -0.0636,-0.11989 9.8315486,9.8315486 0 0 0 -0.0651,-0.118857 9.8315486,9.8315486 0 0 0 -0.0667,-0.117821 9.8315486,9.8315486 0 0 0 -0.0687,-0.117306 9.8315486,9.8315486 0 0 0 -0.0698,-0.116271 9.8315486,9.8315486 0 0 0 -0.0718,-0.114723 9.8315486,9.8315486 0 0 0 -0.0734,-0.114205 9.8315486,9.8315486 0 0 0 -0.0749,-0.11317 9.8315486,9.8315486 0 0 0 -0.076,-0.112139 9.8315486,9.8315486 0 0 0 -0.078,-0.111104 9.8315486,9.8315486 0 0 0 -0.0796,-0.109553 9.8315486,9.8315486 0 0 0 -0.0811,-0.109037 9.8315486,9.8315486 0 0 0 -0.0822,-0.107487 9.8315486,9.8315486 0 0 0 -0.0842,-0.106971 9.8315486,9.8315486 0 0 0 -0.0853,-0.104902 9.8315486,9.8315486 0 0 0 -0.0868,-0.104386 9.8315486,9.8315486 0 0 0 -0.0884,-0.102839 9.8315486,9.8315486 0 0 0 -0.0894,-0.101801 9.8315486,9.8315486 0 0 0 -0.0909,-0.100727 9.8315486,9.8315486 0 0 0 -0.0925,-0.09922 9.8315486,9.8315486 0 0 0 -0.0941,-0.09767 9.8315486,9.8315486 0 0 0 -0.0951,-0.09664 9.8315486,9.8315486 0 0 0 -0.0966,-0.0956 9.8315486,9.8315486 0 0 0 -0.0977,-0.09405 9.8315486,9.8315486 0 0 0 -0.0992,-0.0925 9.8315486,9.8315486 0 0 0 -0.10025,-0.09095 9.8315486,9.8315486 0 0 0 -0.10129,-0.08992 9.8315486,9.8315486 0 0 0 -0.10283,-0.08837 9.8315486,9.8315486 0 0 0 -0.10439,-0.08733 9.8315486,9.8315486 0 0 0 -0.1049,-0.08526 9.8315486,9.8315486 0 0 0 -0.10646,-0.08423 9.8315486,9.8315486 0 0 0 -0.10748,-0.08268 9.8315486,9.8315486 0 0 0 -0.10852,-0.08113 9.8315486,9.8315486 0 0 0 -0.11007,-0.07958 9.8315486,9.8315486 0 0 0 -0.11059,-0.07803 9.8315486,9.8315486 0 0 0 -0.11214,-0.077 9.8315486,9.8315486 0 0 0 -0.11317,-0.07493 9.8315486,9.8315486 0 0 0 -0.11369,-0.07338 9.8315486,9.8315486 0 0 0 -0.11524,-0.07183 9.8315486,9.8315486 0 0 0 -0.11575,-0.07028 9.8315486,9.8315486 0 0 0 -0.11679,-0.06873 9.8315486,9.8315486 0 0 0 -0.11834,-0.06718 9.8315486,9.8315486 0 0 0 -0.11834,-0.06563 9.8315486,9.8315486 0 0 0 -0.11989,-0.06356 9.8315486,9.8315486 0 0 0 -0.12041,-0.06201 9.8315486,9.8315486 0 0 0 -0.12143,-0.06046 9.8315486,9.8315486 0 0 0 -0.12248,-0.05891 9.8315486,9.8315486 0 0 0 -0.12299,-0.05684 9.8315486,9.8315486 0 0 0 -0.1235,-0.05581 9.8315486,9.8315486 0 0 0 -0.12454,-0.05374 9.8315486,9.8315486 0 0 0 -0.12558,-0.05168 9.8315486,9.8315486 0 0 0 -0.12609,-0.05013 9.8315486,9.8315486 0 0 0 -0.1266,-0.04858 9.8315486,9.8315486 0 0 0 -0.12713,-0.04702 9.8315486,9.8315486 0 0 0 -0.12816,-0.04496 9.8315486,9.8315486 0 0 0 -0.12815,-0.04289 9.8315486,9.8315486 0 0 0 -0.12919,-0.04134 9.8315486,9.8315486 0 0 0 -0.12971,-0.03979 9.8315486,9.8315486 0 0 0 -0.13023,-0.03772 9.8315486,9.8315486 0 0 0 -0.13074,-0.03617 9.8315486,9.8315486 0 0 0 -0.13126,-0.0341 9.8315486,9.8315486 0 0 0 -0.13177,-0.03256 9.8315486,9.8315486 0 0 0 -0.1323,-0.03049 9.8315486,9.8315486 0 0 0 -0.13229,-0.02894 9.8315486,9.8315486 0 0 0 -0.1328,-0.02687 9.8315486,9.8315486 0 0 0 -0.13333,-0.02532 9.8315486,9.8315486 0 0 0 -0.13384,-0.02326 9.8315486,9.8315486 0 0 0 -0.13384,-0.02119 9.8315486,9.8315486 0 0 0 -0.13436,-0.01963 9.8315486,9.8315486 0 0 0 -0.13436,-0.01757 9.8315486,9.8315486 0 0 0 -0.13488,-0.01601 9.8315486,9.8315486 0 0 0 -0.13487,-0.01394 9.8315486,9.8315486 0 0 0 -0.13488,-0.01241 9.8315486,9.8315486 0 0 0 -0.13539,-0.0098 9.8315486,9.8315486 0 0 0 -0.13539,-0.0088 9.8315486,9.8315486 0 0 0 -0.13539,-0.0062 9.8315486,9.8315486 0 0 0 -0.1354,-0.0047 9.8315486,9.8315486 0 0 0 -0.13539,-0.0031 9.8315486,9.8315486 0 0 0 -0.13591,-0.0011 9.8315486,9.8315486 0 0 0 -0.11782,0.0011 9.8315486,9.8315486 0 0 0 -0.13539,0.0026 9.8315486,9.8315486 0 0 0 -0.13591,0.0041 9.8315486,9.8315486 0 0 0 -0.13539,0.0062 9.8315486,9.8315486 0 0 0 -0.1354,0.0083 9.8315486,9.8315486 0 0 0 -0.13539,0.01035 9.8315486,9.8315486 0 0 0 -0.13487,0.01188 9.8315486,9.8315486 0 0 0 -0.13488,0.01344 9.8315486,9.8315486 0 0 0 -0.13487,0.0155 9.8315486,9.8315486 0 0 0 -0.13436,0.01757 9.8315486,9.8315486 0 0 0 -0.13436,0.01963 9.8315486,9.8315486 0 0 0 -0.13384,0.02119 9.8315486,9.8315486 0 0 0 -0.13385,0.02273 9.8315486,9.8315486 0 0 0 -0.13332,0.02479 9.8315486,9.8315486 0 0 0 -0.13281,0.02687 9.8315486,9.8315486 0 0 0 -0.1328096,0.02842 9.8315486,9.8315486 0 0 0 -0.1317701,0.03049 9.8315486,9.8315486 0 0 0 -0.13178,0.03204 9.8315486,9.8315486 0 0 0 -0.1312601,0.0341 9.8315486,9.8315486 0 0 0 -0.13125,0.03566 9.8315486,9.8315486 0 0 0 -0.13023,0.03772 9.8315486,9.8315486 0 0 0 -0.1297099,0.03927 9.8315486,9.8315486 0 0 0 -0.1291899,0.04134 9.8315486,9.8315486 0 0 0 -0.1286701,0.04289 9.8315486,9.8315486 0 0 0 -0.1281599,0.04496 9.8315486,9.8315486 0 0 0 -0.1271201,0.04651 9.8315486,9.8315486 0 0 0 -0.12661,0.04806 9.8315486,9.8315486 0 0 0 -0.1260898,0.05012 9.8315486,9.8315486 0 0 0 -0.1255803,0.05168 9.8315486,9.8315486 0 0 0 -0.1245298,0.05375 9.8315486,9.8315486 0 0 0 -0.1240301,0.05478 9.8315486,9.8315486 0 0 0 -0.12299,0.05684 9.8315486,9.8315486 0 0 0 -0.12247,0.05891 9.8315486,9.8315486 0 0 0 -0.12144,0.05994 9.8315486,9.8315486 0 0 0 -0.12041,0.06201 9.8315486,9.8315486 0 0 0 -0.11989,0.06356 9.8315486,9.8315486 0 0 0 -0.11885,0.06511 9.8315486,9.8315486 0 0 0 -0.11834,0.06718 9.8315486,9.8315486 0 0 0 -0.11679,0.06821 9.8315486,9.8315486 0 0 0 -0.11627,0.07028 9.8315486,9.8315486 0 0 0 -0.11524,0.07183 9.8315486,9.8315486 0 0 0 -0.1142,0.07286 9.8315486,9.8315486 0 0 0 -0.11266,0.07493 9.8315486,9.8315486 0 0 0 -0.11214,0.07648 9.8315486,9.8315486 0 0 0 -0.1111,0.07803 9.8315486,9.8315486 0 0 0 -0.0315,0.02273 24.864681,24.864681 0 0 0 -1.17512,7.553026 24.864681,24.864681 0 0 0 1.5658,8.683193 z" />
    <path
       id="path1219"
       style="display:inline;fill:#1c2c71;fill-opacity:1;stroke:#000000;stroke-width:0.27064;stroke-opacity:1;paint-order:markers fill stroke"
       d="M 24.981414,0.13535199 A 24.864681,24.864681 0 0 0 1.3105043,17.447473 a 9.8315486,9.8315486 0 0 1 0.0315,-0.02273 9.8315486,9.8315486 0 0 1 0.11111,-0.07803 9.8315486,9.8315486 0 0 1 0.11214,-0.07648 9.8315486,9.8315486 0 0 1 0.11265,-0.07493 9.8315486,9.8315486 0 0 1 0.11421,-0.07286 9.8315486,9.8315486 0 0 1 0.11523,-0.07183 9.8315486,9.8315486 0 0 1 0.11628,-0.07028 9.8315486,9.8315486 0 0 1 0.11678,-0.06821 9.8315486,9.8315486 0 0 1 0.11834,-0.06718 9.8315486,9.8315486 0 0 1 0.11886,-0.06511 9.8315486,9.8315486 0 0 1 0.11989,-0.06356 9.8315486,9.8315486 0 0 1 0.1204,-0.06201 9.8315486,9.8315486 0 0 1 0.1214499,-0.05994 9.8315486,9.8315486 0 0 1 0.1224701,-0.05891 9.8315486,9.8315486 0 0 1 0.1229899,-0.05684 9.8315486,9.8315486 0 0 1 0.12402,-0.05478 9.8315486,9.8315486 0 0 1 0.1245402,-0.05375 9.8315486,9.8315486 0 0 1 0.1255699,-0.05168 9.8315486,9.8315486 0 0 1 0.1260999,-0.05012 9.8315486,9.8315486 0 0 1 0.1266002,-0.04806 9.8315486,9.8315486 0 0 1 0.1271299,-0.04651 9.8315486,9.8315486 0 0 1 0.1281499,-0.04496 9.8315486,9.8315486 0 0 1 0.1286801,-0.04289 9.8315486,9.8315486 0 0 1 0.12919,-0.04134 9.8315486,9.8315486 0 0 1 0.1297101,-0.03927 9.8315486,9.8315486 0 0 1 0.13022,-0.03772 9.8315486,9.8315486 0 0 1 0.13126,-0.03566 9.8315486,9.8315486 0 0 1 0.1312598,-0.0341 9.8315486,9.8315486 0 0 1 0.1317702,-0.03204 9.8315486,9.8315486 0 0 1 0.13178,-0.03049 9.8315486,9.8315486 0 0 1 0.1328096,-0.02842 9.8315486,9.8315486 0 0 1 0.1328,-0.02687 9.8315486,9.8315486 0 0 1 0.13333,-0.02479 9.8315486,9.8315486 0 0 1 0.13384,-0.02273 9.8315486,9.8315486 0 0 1 0.13384,-0.02119 9.8315486,9.8315486 0 0 1 0.13436,-0.01963 9.8315486,9.8315486 0 0 1 0.13436,-0.01757 9.8315486,9.8315486 0 0 1 0.13488,-0.0155 9.8315486,9.8315486 0 0 1 0.13487,-0.01344 9.8315486,9.8315486 0 0 1 0.13488,-0.01188 9.8315486,9.8315486 0 0 1 0.13539,-0.01035 9.8315486,9.8315486 0 0 1 0.13539,-0.0083 9.8315486,9.8315486 0 0 1 0.1354,-0.0062 9.8315486,9.8315486 0 0 1 0.1359,-0.0041 9.8315486,9.8315486 0 0 1 0.1354,-0.0026 9.8315486,9.8315486 0 0 1 0.11782,-0.0011 9.8315486,9.8315486 0 0 1 0.13591,0.0011 9.8315486,9.8315486 0 0 1 0.13539,0.0031 9.8315486,9.8315486 0 0 1 0.13539,0.0047 9.8315486,9.8315486 0 0 1 0.13539,0.0062 9.8315486,9.8315486 0 0 1 0.1354,0.0088 9.8315486,9.8315486 0 0 1 0.13539,0.0098 9.8315486,9.8315486 0 0 1 0.13487,0.01241 9.8315486,9.8315486 0 0 1 0.13488,0.01394 9.8315486,9.8315486 0 0 1 0.13487,0.01601 9.8315486,9.8315486 0 0 1 0.13436,0.01757 9.8315486,9.8315486 0 0 1 0.13436,0.01963 9.8315486,9.8315486 0 0 1 0.13385,0.02119 9.8315486,9.8315486 0 0 1 0.13384,0.02326 9.8315486,9.8315486 0 0 1 0.13332,0.02532 9.8315486,9.8315486 0 0 1 0.13281,0.02687 9.8315486,9.8315486 0 0 1 0.13229,0.02894 9.8315486,9.8315486 0 0 1 0.13229,0.03049 9.8315486,9.8315486 0 0 1 0.13178,0.03256 9.8315486,9.8315486 0 0 1 0.13126,0.0341 9.8315486,9.8315486 0 0 1 0.13074,0.03617 9.8315486,9.8315486 0 0 1 0.13022,0.03772 9.8315486,9.8315486 0 0 1 0.12971,0.03979 9.8315486,9.8315486 0 0 1 0.12919,0.04134 9.8315486,9.8315486 0 0 1 0.12816,0.04289 9.8315486,9.8315486 0 0 1 0.12816,0.04496 9.8315486,9.8315486 0 0 1 0.12712,0.04702 9.8315486,9.8315486 0 0 1 0.12661,0.04858 9.8315486,9.8315486 0 0 1 0.12609,0.05013 9.8315486,9.8315486 0 0 1 0.12557,0.05168 9.8315486,9.8315486 0 0 1 0.12454,0.05374 9.8315486,9.8315486 0 0 1 0.12351,0.05581 9.8315486,9.8315486 0 0 1 0.12299,0.05684 9.8315486,9.8315486 0 0 1 0.12247,0.05891 9.8315486,9.8315486 0 0 1 0.12144,0.06046 9.8315486,9.8315486 0 0 1 0.12041,0.06201 9.8315486,9.8315486 0 0 1 0.11989,0.06356 9.8315486,9.8315486 0 0 1 0.11833,0.06563 9.8315486,9.8315486 0 0 1 0.11834,0.06718 9.8315486,9.8315486 0 0 1 0.11679,0.06873 9.8315486,9.8315486 0 0 1 0.11576,0.07028 9.8315486,9.8315486 0 0 1 0.11524,0.07183 9.8315486,9.8315486 0 0 1 0.11369,0.07338 9.8315486,9.8315486 0 0 1 0.11317,0.07493 9.8315486,9.8315486 0 0 1 0.11213,0.077 9.8315486,9.8315486 0 0 1 0.11059,0.07803 9.8315486,9.8315486 0 0 1 0.11007,0.07958 9.8315486,9.8315486 0 0 1 0.10852,0.08113 9.8315486,9.8315486 0 0 1 0.10749,0.08268 9.8315486,9.8315486 0 0 1 0.10645,0.08423 9.8315486,9.8315486 0 0 1 0.10491,0.08526 9.8315486,9.8315486 0 0 1 0.10438,0.08733 9.8315486,9.8315486 0 0 1 0.10284,0.08837 9.8315486,9.8315486 0 0 1 0.10129,0.08992 9.8315486,9.8315486 0 0 1 0.10025,0.09095 9.8315486,9.8315486 0 0 1 0.0992,0.0925 9.8315486,9.8315486 0 0 1 0.0977,0.09405 9.8315486,9.8315486 0 0 1 0.0966,0.0956 9.8315486,9.8315486 0 0 1 0.0951,0.09664 9.8315486,9.8315486 0 0 1 0.0941,0.09767 9.8315486,9.8315486 0 0 1 0.0925,0.09922 9.8315486,9.8315486 0 0 1 0.0909,0.10077 9.8315486,9.8315486 0 0 1 0.0894,0.1018 9.8315486,9.8315486 0 0 1 0.0884,0.102839 9.8315486,9.8315486 0 0 1 0.0868,0.104387 9.8315486,9.8315486 0 0 1 0.0853,0.104902 9.8315486,9.8315486 0 0 1 0.0842,0.106971 9.8315486,9.8315486 0 0 1 0.0822,0.107487 9.8315486,9.8315486 0 0 1 0.0811,0.109036 9.8315486,9.8315486 0 0 1 0.0796,0.109555 9.8315486,9.8315486 0 0 1 0.078,0.111102 9.8315486,9.8315486 0 0 1 0.076,0.11214 9.8315486,9.8315486 0 0 1 0.0749,0.11317 9.8315486,9.8315486 0 0 1 0.0734,0.114205 9.8315486,9.8315486 0 0 1 0.0718,0.114723 9.8315486,9.8315486 0 0 1 0.0698,0.11627 9.8315486,9.8315486 0 0 1 0.0687,0.117306 9.8315486,9.8315486 0 0 1 0.0667,0.117823 9.8315486,9.8315486 0 0 1 0.0651,0.118855 9.8315486,9.8315486 0 0 1 0.0636,0.119891 9.8315486,9.8315486 0 0 1 0.062,0.120407 9.8315486,9.8315486 0 0 1 0.0605,0.121953 9.8315486,9.8315486 0 0 1 0.0584,0.121958 9.8315486,9.8315486 0 0 1 0.0568,0.123508 9.8315486,9.8315486 0 0 1 0.0553,0.123504 9.8315486,9.8315486 0 0 1 0.0532,0.124542 9.8315486,9.8315486 0 0 1 0.0522,0.125575 9.8315486,9.8315486 0 0 1 0.0496,0.126089 9.8315486,9.8315486 0 0 1 0.0486,0.126605 9.8315486,9.8315486 0 0 1 0.0465,0.127644 9.8315486,9.8315486 0 0 1 0.0445,0.128156 9.8315486,9.8315486 0 0 1 0.0429,0.128675 9.8315486,9.8315486 0 0 1 0.0413,0.129191 9.8315486,9.8315486 0 0 1 0.0393,0.129708 9.8315486,9.8315486 0 0 1 0.0377,0.130224 9.8315486,9.8315486 0 0 1 0.0357,0.130741 9.8315486,9.8315486 0 0 1 0.0341,0.13126 9.8315486,9.8315486 0 0 1 0.032,0.131772 9.8315486,9.8315486 0 0 1 0.0305,0.132293 9.8315486,9.8315486 0 0 1 0.0284,0.132291 9.8315486,9.8315486 0 0 1 0.0269,0.133325 9.8315486,9.8315486 0 0 1 0.0248,0.133328 9.8315486,9.8315486 0 0 1 0.0233,0.133322 9.8315486,9.8315486 0 0 1 0.0212,0.134362 9.8315486,9.8315486 0 0 1 0.0191,0.133839 9.8315486,9.8315486 0 0 1 0.0176,0.134877 9.8315486,9.8315486 0 0 1 0.0155,0.134358 9.8315486,9.8315486 0 0 1 0.0139,0.134877 9.8315486,9.8315486 0 0 1 0.0119,0.135392 9.8315486,9.8315486 0 0 1 0.01,0.134874 9.8315486,9.8315486 0 0 1 0.008,0.135393 9.8315486,9.8315486 0 0 1 0.006,0.135908 9.8315486,9.8315486 0 0 1 0.005,0.135393 9.8315486,9.8315486 0 0 1 0.003,0.135393 9.8315486,9.8315486 0 0 1 5.29e-4,0.117821 9.8315486,9.8315486 0 0 1 -0.001,0.135911 9.8315486,9.8315486 0 0 1 -0.003,0.13539 9.8315486,9.8315486 0 0 1 -0.005,0.135911 9.8315486,9.8315486 0 0 1 -0.007,0.135393 9.8315486,9.8315486 0 0 1 -0.008,0.135389 9.8315486,9.8315486 0 0 1 -0.0103,0.134878 9.8315486,9.8315486 0 0 1 -0.0119,0.135392 9.8315486,9.8315486 0 0 1 -0.0139,0.134872 9.8315486,9.8315486 0 0 1 -0.016,0.13436 9.8315486,9.8315486 0 0 1 -0.0176,0.134874 9.8315486,9.8315486 0 0 1 -0.0196,0.133842 9.8315486,9.8315486 0 0 1 -0.0217,0.133843 9.8315486,9.8315486 0 0 1 -0.0233,0.133842 9.8315486,9.8315486 0 0 1 -0.0248,0.133329 9.8315486,9.8315486 0 0 1 -0.0274,0.132804 9.8315486,9.8315486 0 0 1 -0.0284,0.132811 9.8315486,9.8315486 0 0 1 -0.0305,0.131773 9.8315486,9.8315486 0 0 1 -0.0326,0.131776 9.8315486,9.8315486 0 0 1 -0.0341,0.131257 9.8315486,9.8315486 0 0 1 -0.0362,0.130744 9.8315486,9.8315486 0 0 1 -0.0377,0.130225 9.8315486,9.8315486 0 0 1 -0.0398,0.129704 9.8315486,9.8315486 0 0 1 -0.0413,0.129191 9.8315486,9.8315486 0 0 1 -0.0434,0.128674 9.8315486,9.8315486 0 0 1 -0.045,0.127641 9.8315486,9.8315486 0 0 1 -0.0465,0.127643 9.8315486,9.8315486 0 0 1 -0.0486,0.126605 9.8315486,9.8315486 0 0 1 -0.0501,0.12609 9.8315486,9.8315486 0 0 1 -0.0522,0.125061 9.8315486,9.8315486 0 0 1 -0.0537,0.124537 9.8315486,9.8315486 0 0 1 -0.0553,0.124026 9.8315486,9.8315486 0 0 1 -0.0568,0.122989 9.8315486,9.8315486 0 0 1 -0.0589,0.121957 9.8315486,9.8315486 0 0 1 -0.0605,0.121441 9.8315486,9.8315486 0 0 1 -0.062,0.120404 9.8315486,9.8315486 0 0 1 -0.0641,0.119888 9.8315486,9.8315486 0 0 1 -0.0656,0.118856 9.8315486,9.8315486 0 0 1 -0.0667,0.117821 9.8315486,9.8315486 0 0 1 -0.0687,0.116793 9.8315486,9.8315486 0 0 1 -0.0703,0.116268 9.8315486,9.8315486 0 0 1 -0.0718,0.114724 9.8315486,9.8315486 0 0 1 -0.0739,0.114204 9.8315486,9.8315486 0 0 1 -0.0749,0.112655 9.8315486,9.8315486 0 0 1 -0.0765,0.112141 9.8315486,9.8315486 0 0 1 -0.078,0.111101 9.8315486,9.8315486 0 0 1 -0.0796,0.109556 9.8315486,9.8315486 0 0 1 -0.0811,0.108519 9.8315486,9.8315486 0 0 1 -0.0827,0.107487 9.8315486,9.8315486 0 0 1 -0.0842,0.106455 9.8315486,9.8315486 0 0 1 -0.0858,0.105418 9.8315486,9.8315486 0 0 1 -0.0868,0.10387 9.8315486,9.8315486 0 0 1 -0.0884,0.102835 9.8315486,9.8315486 0 0 1 -0.0899,0.101802 9.8315486,9.8315486 0 0 1 -0.0915,0.100253 9.8315486,9.8315486 0 0 1 -0.0925,0.09922 9.8315486,9.8315486 0 0 1 -0.0941,0.09767 9.8315486,9.8315486 0 0 1 -0.0951,0.09612 9.8315486,9.8315486 0 0 1 -0.0966,0.0956 9.8315486,9.8315486 0 0 1 -0.0982,0.09354 9.8315486,9.8315486 0 0 1 -0.0992,0.0925 9.8315486,9.8315486 0 0 1 -0.10025,0.09095 9.8315486,9.8315486 0 0 1 -0.1018,0.08992 9.8315486,9.8315486 0 0 1 -0.10284,0.08837 9.8315486,9.8315486 0 0 1 -0.10438,0.08682 9.8315486,9.8315486 0 0 1 -0.10542,0.08527 9.8315486,9.8315486 0 0 1 -0.10646,0.08372 9.8315486,9.8315486 0 0 1 -0.10748,0.08268 9.8315486,9.8315486 0 0 1 -0.10904,0.08062 9.8315486,9.8315486 0 0 1 -0.11007,0.07958 9.8315486,9.8315486 0 0 1 -0.11059,0.07803 9.8315486,9.8315486 0 0 1 -0.11214,0.07648 9.8315486,9.8315486 0 0 1 -0.11317,0.07493 9.8315486,9.8315486 0 0 1 -0.1142,0.07286 9.8315486,9.8315486 0 0 1 -0.11524,0.07183 9.8315486,9.8315486 0 0 1 -0.11627,0.07028 9.8315486,9.8315486 0 0 1 -0.11679,0.06821 9.8315486,9.8315486 0 0 1 -0.11783,0.06718 9.8315486,9.8315486 0 0 1 -0.11937,0.06511 9.8315486,9.8315486 0 0 1 -0.11937,0.06356 9.8315486,9.8315486 0 0 1 -0.12092,0.06201 9.8315486,9.8315486 0 0 1 -0.12144,0.05994 9.8315486,9.8315486 0 0 1 -0.12248,0.05891 9.8315486,9.8315486 0 0 1 -0.12299,0.05684 9.8315486,9.8315486 0 0 1 -0.12402,0.05478 9.8315486,9.8315486 0 0 1 -0.12454,0.05374 9.8315486,9.8315486 0 0 1 -0.12506,0.05168 9.8315486,9.8315486 0 0 1 -0.12609,0.05013 9.8315486,9.8315486 0 0 1 -0.12712,0.04806 9.8315486,9.8315486 0 0 1 -0.12712,0.04651 9.8315486,9.8315486 0 0 1 -0.12816,0.04496 9.8315486,9.8315486 0 0 1 -0.12868,0.04289 9.8315486,9.8315486 0 0 1 -0.12919,0.04082 9.8315486,9.8315486 0 0 1 -0.12971,0.03979 9.8315486,9.8315486 0 0 1 -0.13022,0.03721 9.8315486,9.8315486 0 0 1 -0.13074,0.03617 9.8315486,9.8315486 0 0 1 -0.13126,0.0341 9.8315486,9.8315486 0 0 1 -0.13178,0.03204 9.8315486,9.8315486 0 0 1 -0.13229,0.03049 9.8315486,9.8315486 0 0 1 -0.1328,0.02842 9.8315486,9.8315486 0 0 1 -0.13281,0.02687 9.8315486,9.8315486 0 0 1 -0.13333,0.02479 9.8315486,9.8315486 0 0 1 -0.13384,0.02273 9.8315486,9.8315486 0 0 1 -0.13384,0.02119 9.8315486,9.8315486 0 0 1 -0.13436,0.01963 9.8315486,9.8315486 0 0 1 -0.13436,0.01706 9.8315486,9.8315486 0 0 1 -0.13488,0.01601 9.8315486,9.8315486 0 0 1 -0.13487,0.01344 9.8315486,9.8315486 0 0 1 -0.13488,0.01188 9.8315486,9.8315486 0 0 1 -0.13539,0.01035 9.8315486,9.8315486 0 0 1 -0.135389,0.0083 9.8315486,9.8315486 0 0 1 -0.135391,0.0062 9.8315486,9.8315486 0 0 1 -0.1354,0.0041 9.8315486,9.8315486 0 0 1 -0.135899,0.0026 9.8315486,9.8315486 0 0 1 -0.117831,0.0011 9.8315486,9.8315486 0 0 1 -0.135389,-0.0011 9.8315486,9.8315486 0 0 1 -0.135911,-0.0031 9.8315486,9.8315486 0 0 1 -0.13539,-0.0047 9.8315486,9.8315486 0 0 1 -0.13539,-0.0062 9.8315486,9.8315486 0 0 1 -0.1354,-0.0088 9.8315486,9.8315486 0 0 1 -0.13539,-0.0098 9.8315486,9.8315486 0 0 1 -0.13487,-0.01241 9.8315486,9.8315486 0 0 1 -0.13488,-0.01394 9.8315486,9.8315486 0 0 1 -0.13487,-0.01601 9.8315486,9.8315486 0 0 1 -0.13436,-0.01757 9.8315486,9.8315486 0 0 1 -0.13436,-0.01963 9.8315486,9.8315486 0 0 1 -0.13384,-0.02119 9.8315486,9.8315486 0 0 1 -0.13333,-0.02326 9.8315486,9.8315486 0 0 1 -0.13332,-0.02532 9.8315486,9.8315486 0 0 1 -0.13333,-0.02687 9.8315486,9.8315486 0 0 1 -0.1322896,-0.02894 9.8315486,9.8315486 0 0 1 -0.13229,-0.03049 9.8315486,9.8315486 0 0 1 -0.13178,-0.03256 9.8315486,9.8315486 0 0 1 -0.1312601,-0.0341 9.8315486,9.8315486 0 0 1 -0.1307398,-0.03617 9.8315486,9.8315486 0 0 1 -0.13022,-0.03772 9.8315486,9.8315486 0 0 1 -0.1297101,-0.03979 9.8315486,9.8315486 0 0 1 -0.1286701,-0.04134 9.8315486,9.8315486 0 0 1 -0.1286798,-0.04289 9.8315486,9.8315486 0 0 1 -0.1281502,-0.04547 9.8315486,9.8315486 0 0 1 -0.1271299,-0.04651 9.8315486,9.8315486 0 0 1 -0.1265999,-0.04858 9.8315486,9.8315486 0 0 1 -0.1261002,-0.05013 9.8315486,9.8315486 0 0 1 -0.12505,-0.05168 9.8315486,9.8315486 0 0 1 -0.1250598,-0.05374 9.8315486,9.8315486 0 0 1 -0.1235102,-0.05581 9.8315486,9.8315486 0 0 1 -0.1229899,-0.05684 9.8315486,9.8315486 0 0 1 -0.1224701,-0.05891 9.8315486,9.8315486 0 0 1 -0.1214399,-0.06046 9.8315486,9.8315486 0 0 1 -0.12041,-0.06201 9.8315486,9.8315486 0 0 1 -0.11937,-0.06408 9.8315486,9.8315486 0 0 1 -0.11885,-0.06511 9.8315486,9.8315486 0 0 1 -0.11783,-0.06718 9.8315486,9.8315486 0 0 1 -0.1173,-0.06873 9.8315486,9.8315486 0 0 1 -0.11576,-0.07028 9.8315486,9.8315486 0 0 1 -0.11523,-0.07183 9.8315486,9.8315486 0 0 1 -0.075997,-0.04915 24.864681,24.864681 0 0 0 23.2988396,16.181435 24.864681,24.864681 0 0 0 24.86463,-24.864626 24.864681,24.864681 0 0 0 -24.86463,-24.86514701 24.864681,24.864681 0 0 0 -0.0186,0 z" />
    <text
       xml:space="preserve"
       style="font-style:normal;font-variant:normal;font-weight:normal;font-stretch:normal;font-size:20.8139px;line-height:1.25;font-family:'Berlin Sans FB Demi';-inkscape-font-specification:'Berlin Sans FB Demi';display:inline;stroke-width:0.264583"
       x="1.6658173"
       y="31.261642"
       id="text1149-1"><tspan
         sodipodi:role="line"
         id="tspan1147-2"
         x="1.6658173"
         y="31.261642"
         style="font-style:normal;font-variant:normal;font-weight:normal;font-stretch:normal;font-size:20.8139px;font-family:'Berlin Sans FB Demi';-inkscape-font-specification:'Berlin Sans FB Demi';stroke-width:0.264583">2</tspan></text>
    <circle
       style="display:inline;opacity:0.88141;mix-blend-mode:normal;fill:url(#radialGradient1561-637);fill-opacity:1;stroke:none;stroke-width:0.212909;stroke-opacity:1;paint-order:markers fill stroke"
       id="path1129-41"
       cx="25"
       cy="25.000242"
       r="25" />
    <circle
       style="display:inline;opacity:0.88141;mix-blend-mode:normal;fill:url(#radialGradient1561-9-67);fill-opacity:1;stroke:none;stroke-width:0.212909;stroke-opacity:1;paint-order:markers fill stroke"
       id="path1129-9-5"
       cx="25"
       cy="25.000242"
       r="25" />
  </g>
</svg>
