<?xml version="1.0" encoding="UTF-8" standalone="no"?>
<svg
   xmlns:dc="http://purl.org/dc/elements/1.1/"
   xmlns:cc="http://creativecommons.org/ns#"
   xmlns:rdf="http://www.w3.org/1999/02/22-rdf-syntax-ns#"
   xmlns:svg="http://www.w3.org/2000/svg"
   xmlns="http://www.w3.org/2000/svg"
   xmlns:xlink="http://www.w3.org/1999/xlink"
   xmlns:sodipodi="http://sodipodi.sourceforge.net/DTD/sodipodi-0.dtd"
   xmlns:inkscape="http://www.inkscape.org/namespaces/inkscape"
   width="50mm"
   height="50mm"
   viewBox="0 0 50 50"
   version="1.1"
   id="svg8"
   inkscape:version="1.0.1 (3bc2e813f5, 2020-09-07)"
   sodipodi:docname="5-3.svg">
  <defs
     id="defs2">
    <radialGradient
       inkscape:collect="always"
       xlink:href="#linearGradient1135"
       id="radialGradient1561-47"
       cx="26.274075"
       cy="14.800471"
       fx="26.274075"
       fy="14.800471"
       r="32.127975"
       gradientTransform="matrix(0.77813809,0,0,0.77813812,-3.3823536,4.4117547)"
       gradientUnits="userSpaceOnUse" />
    <linearGradient
       inkscape:collect="always"
       id="linearGradient1135">
      <stop
         style="stop-color:#ffffff;stop-opacity:1;"
         offset="0"
         id="stop1131" />
      <stop
         style="stop-color:#ffffff;stop-opacity:0;"
         offset="1"
         id="stop1133" />
    </linearGradient>
    <radialGradient
       inkscape:collect="always"
       xlink:href="#linearGradient1135"
       id="radialGradient1561-9-4"
       cx="54.447247"
       cy="49.531189"
       fx="54.447247"
       fy="49.531189"
       r="32.127975"
       gradientTransform="matrix(0.77813809,0,0,0.77813812,-3.3823536,4.4117547)"
       gradientUnits="userSpaceOnUse" />
  </defs>
  <sodipodi:namedview
     id="base"
     pagecolor="#ffffff"
     bordercolor="#666666"
     borderopacity="1.0"
     inkscape:pageopacity="0.0"
     inkscape:pageshadow="2"
     inkscape:zoom="0.98994949"
     inkscape:cx="2.9247058"
     inkscape:cy="154.89275"
     inkscape:document-units="mm"
     inkscape:current-layer="layer1"
     inkscape:document-rotation="0"
     showgrid="false"
     inkscape:window-width="1920"
     inkscape:window-height="1017"
     inkscape:window-x="-8"
     inkscape:window-y="-8"
     inkscape:window-maximized="1" />
  <metadata
     id="metadata5">
    <rdf:RDF>
      <cc:Work
         rdf:about="">
        <dc:format>image/svg+xml</dc:format>
        <dc:type
           rdf:resource="http://purl.org/dc/dcmitype/StillImage" />
        <dc:title></dc:title>
      </cc:Work>
    </rdf:RDF>
  </metadata>
  <g
     inkscape:label="Layer 1"
     inkscape:groupmode="layer"
     id="layer1">
    <path
       id="path833-4"
       style="display:inline;fill:#000000;fill-opacity:1;stroke:#000000;stroke-width:0.27064;stroke-opacity:1;paint-order:markers fill stroke"
       d="m 49.801081,26.774046 -0.412892,0.02326 -0.549839,-0.113686 -0.92139,-0.247014 -1.098124,-0.439248 -0.197922,0.351398 -0.175699,1.471744 0.04393,1.208196 0.812869,0.219626 1.032497,0.175699 1.106392,0.146243 a 24.864679,24.864679 0 0 0 0.02635,-0.143142 24.864679,24.864679 0 0 0 0.333828,-2.65307 z" />
    <path
       id="path1243"
       style="display:inline;fill:#000000;fill-opacity:1;stroke:#000000;stroke-width:0.27064;stroke-opacity:1;paint-order:markers fill stroke"
       d="m 48.501938,16.882662 -0.628904,-0.0021 -0.307473,0.04393 -0.307475,0.5271 -0.175701,6.21719 0.329697,0.15348 0.812353,-0.04392 1.054716,-0.131776 0.544669,-0.0646 a 24.86468,24.86468 0 0 0 -0.144177,-1.610239 24.86468,24.86468 0 0 0 -0.0031,-0.02273 24.864679,24.864679 0 0 0 -0.366384,-2.170409 24.864679,24.864679 0 0 0 -0.185521,-0.797884 24.864679,24.864679 0 0 0 -0.445965,-1.567863 24.864679,24.864679 0 0 0 -0.127643,-0.386023 24.864679,24.864679 0 0 0 -0.04909,-0.144177 z" />
    <path
       id="path1241"
       style="display:inline;fill:#ffffff;fill-opacity:1;stroke:#000000;stroke-width:0.27064;stroke-opacity:1;paint-order:markers fill stroke"
       d="m 47.797072,15.072953 a 9.8315486,9.8315486 0 0 0 -0.04186,0.02842 9.8315486,9.8315486 0 0 0 -0.111104,0.07803 9.8315486,9.8315486 0 0 0 -0.110069,0.07906 9.8315486,9.8315486 0 0 0 -0.108522,0.08113 9.8315486,9.8315486 0 0 0 -0.108003,0.08268 9.8315486,9.8315486 0 0 0 -0.106455,0.08372 9.8315486,9.8315486 0 0 0 -0.10542,0.08527 9.8315486,9.8315486 0 0 0 -0.103868,0.08682 9.8315486,9.8315486 0 0 0 -0.103354,0.08837 9.8315486,9.8315486 0 0 0 -0.101801,0.08992 9.8315486,9.8315486 0 0 0 -0.100253,0.09095 9.8315486,9.8315486 0 0 0 -0.09922,0.0925 9.8315486,9.8315486 0 0 0 -0.09818,0.09354 9.8315486,9.8315486 0 0 0 -0.09664,0.09508 9.8315486,9.8315486 0 0 0 -0.09508,0.09663 9.8315486,9.8315486 0 0 0 -0.09405,0.09767 9.8315486,9.8315486 0 0 0 -0.0925,0.09922 9.8315486,9.8315486 0 0 0 -0.09147,0.100252 9.8315486,9.8315486 0 0 0 -0.08992,0.101803 9.8315486,9.8315486 0 0 0 -0.08837,0.102836 9.8315486,9.8315486 0 0 0 -0.08682,0.10387 9.8315486,9.8315486 0 0 0 -0.08578,0.10542 9.8315486,9.8315486 0 0 0 -0.08423,0.106453 9.8315486,9.8315486 0 0 0 -0.08268,0.107487 9.8315486,9.8315486 0 0 0 -0.08113,0.108521 9.8315486,9.8315486 0 0 0 -0.07958,0.109554 9.8315486,9.8315486 0 0 0 -0.07803,0.111104 9.8315486,9.8315486 0 0 0 -0.07648,0.111621 9.8315486,9.8315486 0 0 0 -0.07493,0.113172 9.8315486,9.8315486 0 0 0 -0.07338,0.114205 9.8315486,9.8315486 0 0 0 -0.07235,0.114721 9.8315486,9.8315486 0 0 0 -0.07028,0.116272 9.8315486,9.8315486 0 0 0 -0.06821,0.116789 9.8315486,9.8315486 0 0 0 -0.06718,0.117822 9.8315486,9.8315486 0 0 0 -0.06563,0.118856 9.8315486,9.8315486 0 0 0 -0.06356,0.119372 9.8315486,9.8315486 0 0 0 -0.06253,0.120924 9.8315486,9.8315486 0 0 0 -0.06046,0.121439 9.8315486,9.8315486 0 0 0 -0.05839,0.121956 9.8315486,9.8315486 0 0 0 -0.05736,0.12299 9.8315486,9.8315486 0 0 0 -0.05529,0.124024 9.8315486,9.8315486 0 0 0 -0.05374,0.12454 9.8315486,9.8315486 0 0 0 -0.05168,0.125057 9.8315486,9.8315486 0 0 0 -0.05064,0.12609 9.8315486,9.8315486 0 0 0 -0.04806,0.126608 9.8315486,9.8315486 0 0 0 -0.04703,0.12764 9.8315486,9.8315486 0 0 0 -0.04496,0.127641 9.8315486,9.8315486 0 0 0 -0.04341,0.128674 9.8315486,9.8315486 0 0 0 -0.04134,0.129192 9.8315486,9.8315486 0 0 0 -0.03927,0.129707 9.8315486,9.8315486 0 0 0 -0.03824,0.130225 9.8315486,9.8315486 0 0 0 -0.03566,0.130741 9.8315486,9.8315486 0 0 0 -0.03462,0.131259 9.8315486,9.8315486 0 0 0 -0.03204,0.131775 9.8315486,9.8315486 0 0 0 -0.03101,0.131773 9.8315486,9.8315486 0 0 0 -0.02842,0.132811 9.8315486,9.8315486 0 0 0 -0.02687,0.132807 9.8315486,9.8315486 0 0 0 -0.02532,0.133326 9.8315486,9.8315486 0 0 0 -0.02326,0.133324 9.8315486,9.8315486 0 0 0 -0.02119,0.134358 9.8315486,9.8315486 0 0 0 -0.01963,0.133842 9.8315486,9.8315486 0 0 0 -0.0181,0.134361 9.8315486,9.8315486 0 0 0 -0.0155,0.134874 9.8315486,9.8315486 0 0 0 -0.01394,0.134877 9.8315486,9.8315486 0 0 0 -0.01241,0.135392 9.8315486,9.8315486 0 0 0 -0.01035,0.134874 9.8315486,9.8315486 0 0 0 -0.0078,0.135393 9.8315486,9.8315486 0 0 0 -0.0072,0.135392 9.8315486,9.8315486 0 0 0 -0.0047,0.135909 9.8315486,9.8315486 0 0 0 -0.0031,0.135392 9.8315486,9.8315486 0 0 0 -0.0011,0.135393 9.8315486,9.8315486 0 0 0 5.3e-4,0.118338 9.8315486,9.8315486 0 0 0 0.0031,0.135392 9.8315486,9.8315486 0 0 0 0.0047,0.135393 9.8315486,9.8315486 0 0 0 0.0062,0.135392 9.8315486,9.8315486 0 0 0 0.0078,0.135393 9.8315486,9.8315486 0 0 0 0.01035,0.135392 9.8315486,9.8315486 0 0 0 0.01188,0.135393 9.8315486,9.8315486 0 0 0 0.01394,0.134874 9.8315486,9.8315486 0 0 0 0.01551,0.134361 9.8315486,9.8315486 0 0 0 0.01757,0.134874 9.8315486,9.8315486 0 0 0 0.01913,0.133842 9.8315486,9.8315486 0 0 0 0.02119,0.134358 9.8315486,9.8315486 0 0 0 0.02326,0.133326 9.8315486,9.8315486 0 0 0 0.02479,0.133326 9.8315486,9.8315486 0 0 0 0.02687,0.133324 9.8315486,9.8315486 0 0 0 0.02842,0.132292 9.8315486,9.8315486 0 0 0 0.03049,0.132291 9.8315486,9.8315486 0 0 0 0.03204,0.131776 9.8315486,9.8315486 0 0 0 0.0341,0.131257 9.8315486,9.8315486 0 0 0 0.03514,0.130741 9.8315486,9.8315486 0 0 0 0.03772,0.130226 9.8315486,9.8315486 0 0 0 0.03927,0.129709 9.8315486,9.8315486 0 0 0 0.04134,0.129191 9.8315486,9.8315486 0 0 0 0.04289,0.128672 9.8315486,9.8315486 0 0 0 0.04496,0.128158 9.8315486,9.8315486 0 0 0 0.04651,0.12764 9.8315486,9.8315486 0 0 0 0.04858,0.126609 9.8315486,9.8315486 0 0 0 0.05013,0.12609 9.8315486,9.8315486 0 0 0 0.05168,0.125058 9.8315486,9.8315486 0 0 0 0.05323,0.125055 9.8315486,9.8315486 0 0 0 0.05529,0.123507 9.8315486,9.8315486 0 0 0 0.05633,0.123508 9.8315486,9.8315486 0 0 0 0.05839,0.121954 9.8315486,9.8315486 0 0 0 0.06098,0.121441 9.8315486,9.8315486 0 0 0 0.06149,0.120923 9.8315486,9.8315486 0 0 0 0.06408,0.119888 9.8315486,9.8315486 0 0 0 0.06511,0.118856 9.8315486,9.8315486 0 0 0 0.06666,0.117824 9.8315486,9.8315486 0 0 0 0.06873,0.117303 9.8315486,9.8315486 0 0 0 0.07028,0.115756 9.8315486,9.8315486 0 0 0 0.07131,0.115239 9.8315486,9.8315486 0 0 0 0.07338,0.114205 9.8315486,9.8315486 0 0 0 0.07493,0.113172 9.8315486,9.8315486 0 0 0 0.07648,0.112136 9.8315486,9.8315486 0 0 0 0.07751,0.111107 9.8315486,9.8315486 0 0 0 0.07958,0.109553 9.8315486,9.8315486 0 0 0 0.08113,0.109037 9.8315486,9.8315486 0 0 0 0.08217,0.107487 9.8315486,9.8315486 0 0 0 0.08423,0.106453 9.8315486,9.8315486 0 0 0 0.08526,0.10542 9.8315486,9.8315486 0 0 0 0.08682,0.104387 9.8315486,9.8315486 0 0 0 0.08837,0.102835 9.8315486,9.8315486 0 0 0 0.0894,0.101804 9.8315486,9.8315486 0 0 0 0.09147,0.100769 9.8315486,9.8315486 0 0 0 0.09198,0.09922 9.8315486,9.8315486 0 0 0 0.09405,0.09767 9.8315486,9.8315486 0 0 0 0.09509,0.09663 9.8315486,9.8315486 0 0 0 0.09663,0.0956 9.8315486,9.8315486 0 0 0 0.09767,0.09354 9.8315486,9.8315486 0 0 0 0.09922,0.09302 9.8315486,9.8315486 0 0 0 0.100253,0.09095 9.8315486,9.8315486 0 0 0 0.101285,0.08992 9.8315486,9.8315486 0 0 0 0.102836,0.08837 9.8315486,9.8315486 0 0 0 0.104386,0.08733 9.8315486,9.8315486 0 0 0 0.104904,0.08526 9.8315486,9.8315486 0 0 0 0.106453,0.08423 9.8315486,9.8315486 0 0 0 0.107487,0.08268 9.8315486,9.8315486 0 0 0 0.109037,0.08113 9.8315486,9.8315486 0 0 0 0.109554,0.07958 9.8315486,9.8315486 0 0 0 0.111104,0.07803 9.8315486,9.8315486 0 0 0 0.111622,0.077 9.8315486,9.8315486 0 0 0 0.11317,0.07493 9.8315486,9.8315486 0 0 0 0.113689,0.07338 9.8315486,9.8315486 0 0 0 0.115239,0.07183 9.8315486,9.8315486 0 0 0 0.115756,0.07028 9.8315486,9.8315486 0 0 0 0.117305,0.06873 9.8315486,9.8315486 0 0 0 0.117822,0.06718 9.8315486,9.8315486 0 0 0 0.118856,0.06511 9.8315486,9.8315486 0 0 0 0.119372,0.06408 9.8315486,9.8315486 0 0 0 0.09199,0.04754 24.864679,24.864679 0 0 0 0.53485,-2.212268 24.864679,24.864679 0 0 0 0.03049,-0.159682 l -1.106393,-0.146243 -1.032497,-0.175699 -0.812868,-0.219625 -0.04393,-1.208196 0.175699,-1.471745 0.197921,-0.351398 1.098124,0.439248 0.921391,0.247014 0.549838,0.113687 0.412893,-0.02326 a 24.864679,24.864679 0 0 0 0.0083,-0.117822 24.864679,24.864679 0 0 0 0.0031,-0.05168 24.864679,24.864679 0 0 0 0.05219,-1.604551 24.864679,24.864679 0 0 0 -0.0088,-0.658876 24.864679,24.864679 0 0 0 -0.02066,-0.544153 24.86468,24.86468 0 0 0 -0.01138,-0.214974 l -0.544669,0.0646 -1.054716,0.131776 -0.812353,0.04392 -0.329697,-0.153479 0.175701,-6.21719 0.307475,-0.5271 0.307473,-0.04392 0.628904,0.0021 a 24.864679,24.864679 0 0 0 -0.704866,-1.809709 z" />
    <path
       id="path1059"
       style="display:inline;fill:#fd682b;fill-opacity:1;stroke:#000000;stroke-width:0.27064;stroke-opacity:1;paint-order:markers fill stroke"
       d="M 24.981417,0.13547485 A 24.864681,24.864681 0 0 0 0.13538666,25.000104 24.864681,24.864681 0 0 0 25.000017,49.864745 a 24.864681,24.864681 0 0 0 23.875549,-17.92242 9.8315486,9.8315486 0 0 1 -0.092,-0.0475 9.8315486,9.8315486 0 0 1 -0.119372,-0.0641 9.8315486,9.8315486 0 0 1 -0.118859,-0.0651 9.8315486,9.8315486 0 0 1 -0.117821,-0.0672 9.8315486,9.8315486 0 0 1 -0.117309,-0.0687 9.8315486,9.8315486 0 0 1 -0.11575,-0.0703 9.8315486,9.8315486 0 0 1 -0.115239,-0.0718 9.8315486,9.8315486 0 0 1 -0.113691,-0.0734 9.8315486,9.8315486 0 0 1 -0.113171,-0.0749 9.8315486,9.8315486 0 0 1 -0.111619,-0.077 9.8315486,9.8315486 0 0 1 -0.111099,-0.078 9.8315486,9.8315486 0 0 1 -0.109561,-0.0796 9.8315486,9.8315486 0 0 1 -0.10903,-0.0811 9.8315486,9.8315486 0 0 1 -0.107489,-0.0827 9.8315486,9.8315486 0 0 1 -0.106461,-0.0842 9.8315486,9.8315486 0 0 1 -0.104899,-0.0853 9.8315486,9.8315486 0 0 1 -0.104381,-0.0873 9.8315486,9.8315486 0 0 1 -0.102841,-0.0884 9.8315486,9.8315486 0 0 1 -0.10129,-0.0899 9.8315486,9.8315486 0 0 1 -0.100248,-0.091 9.8315486,9.8315486 0 0 1 -0.0992,-0.093 9.8315486,9.8315486 0 0 1 -0.0977,-0.0935 9.8315486,9.8315486 0 0 1 -0.0966,-0.0956 9.8315486,9.8315486 0 0 1 -0.0951,-0.0966 9.8315486,9.8315486 0 0 1 -0.0941,-0.0977 9.8315486,9.8315486 0 0 1 -0.092,-0.0992 9.8315486,9.8315486 0 0 1 -0.0915,-0.100769 9.8315486,9.8315486 0 0 1 -0.0894,-0.101809 9.8315486,9.8315486 0 0 1 -0.0884,-0.10283 9.8315486,9.8315486 0 0 1 -0.0868,-0.104392 9.8315486,9.8315486 0 0 1 -0.0853,-0.105418 9.8315486,9.8315486 0 0 1 -0.0842,-0.10645 9.8315486,9.8315486 0 0 1 -0.0822,-0.107492 9.8315486,9.8315486 0 0 1 -0.0811,-0.109029 9.8315486,9.8315486 0 0 1 -0.0796,-0.109559 9.8315486,9.8315486 0 0 1 -0.0775,-0.111101 9.8315486,9.8315486 0 0 1 -0.0765,-0.112138 9.8315486,9.8315486 0 0 1 -0.0749,-0.113171 9.8315486,9.8315486 0 0 1 -0.0734,-0.11421 9.8315486,9.8315486 0 0 1 -0.0713,-0.115242 9.8315486,9.8315486 0 0 1 -0.0703,-0.11575 9.8315486,9.8315486 0 0 1 -0.0687,-0.117308 9.8315486,9.8315486 0 0 1 -0.0667,-0.117822 9.8315486,9.8315486 0 0 1 -0.0651,-0.118858 9.8315486,9.8315486 0 0 1 -0.0636,-0.11988 9.8315486,9.8315486 0 0 1 -0.062,-0.120931 9.8315486,9.8315486 0 0 1 -0.0605,-0.121441 9.8315486,9.8315486 0 0 1 -0.0584,-0.121949 9.8315486,9.8315486 0 0 1 -0.0568,-0.12351 9.8315486,9.8315486 0 0 1 -0.0553,-0.12351 9.8315486,9.8315486 0 0 1 -0.0532,-0.12505 9.8315486,9.8315486 0 0 1 -0.0517,-0.125061 9.8315486,9.8315486 0 0 1 -0.0501,-0.12609 9.8315486,9.8315486 0 0 1 -0.0481,-0.126608 9.8315486,9.8315486 0 0 1 -0.0465,-0.12764 9.8315486,9.8315486 0 0 1 -0.045,-0.128161 9.8315486,9.8315486 0 0 1 -0.0429,-0.12867 9.8315486,9.8315486 0 0 1 -0.0413,-0.12919 9.8315486,9.8315486 0 0 1 -0.0393,-0.12971 9.8315486,9.8315486 0 0 1 -0.0377,-0.13023 9.8315486,9.8315486 0 0 1 -0.0357,-0.13074 9.8315486,9.8315486 0 0 1 -0.0341,-0.13125 9.8315486,9.8315486 0 0 1 -0.032,-0.13178 9.8315486,9.8315486 0 0 1 -0.0305,-0.13229 9.8315486,9.8315486 0 0 1 -0.0284,-0.13229 9.8315486,9.8315486 0 0 1 -0.0269,-0.13333 9.8315486,9.8315486 0 0 1 -0.02479,-0.13332 9.8315486,9.8315486 0 0 1 -0.02331,-0.13333 9.8315486,9.8315486 0 0 1 -0.02119,-0.13436 9.8315486,9.8315486 0 0 1 -0.0191,-0.13384 9.8315486,9.8315486 0 0 1 -0.0176,-0.13488 9.8315486,9.8315486 0 0 1 -0.0155,-0.13435 9.8315486,9.8315486 0 0 1 -0.01389,-0.13488 9.8315486,9.8315486 0 0 1 -0.01191,-0.13539 9.8315486,9.8315486 0 0 1 -0.01,-0.13539 9.8315486,9.8315486 0 0 1 -0.008,-0.1354 9.8315486,9.8315486 0 0 1 -0.006,-0.13539 9.8315486,9.8315486 0 0 1 -0.005,-0.13539 9.8315486,9.8315486 0 0 1 -0.003,-0.13539 9.8315486,9.8315486 0 0 1 -5.29e-4,-0.11834 9.8315486,9.8315486 0 0 1 0.0011,-0.13539 9.8315486,9.8315486 0 0 1 0.003,-0.1354 9.8315486,9.8315486 0 0 1 0.005,-0.1359 9.8315486,9.8315486 0 0 1 0.007,-0.1354 9.8315486,9.8315486 0 0 1 0.008,-0.13539 9.8315486,9.8315486 0 0 1 0.0104,-0.13488 9.8315486,9.8315486 0 0 1 0.01241,-0.13539 9.8315486,9.8315486 0 0 1 0.01389,-0.13487 9.8315486,9.8315486 0 0 1 0.0155,-0.13488 9.8315486,9.8315486 0 0 1 0.0181,-0.13436 9.8315486,9.8315486 0 0 1 0.0196,-0.13384 9.8315486,9.8315486 0 0 1 0.02119,-0.13436 9.8315486,9.8315486 0 0 1 0.0232,-0.13332 9.8315486,9.8315486 0 0 1 0.02529,-0.13333 9.8315486,9.8315486 0 0 1 0.0269,-0.13281 9.8315486,9.8315486 0 0 1 0.0284,-0.13281 9.8315486,9.8315486 0 0 1 0.031,-0.13177 9.8315486,9.8315486 0 0 1 0.032,-0.13177 9.8315486,9.8315486 0 0 1 0.0346,-0.13126 9.8315486,9.8315486 0 0 1 0.0357,-0.13075 9.8315486,9.8315486 0 0 1 0.0382,-0.13022 9.8315486,9.8315486 0 0 1 0.0393,-0.12971 9.8315486,9.8315486 0 0 1 0.0413,-0.12919 9.8315486,9.8315486 0 0 1 0.0434,-0.12867 9.8315486,9.8315486 0 0 1 0.045,-0.12764 9.8315486,9.8315486 0 0 1 0.047,-0.12764 9.8315486,9.8315486 0 0 1 0.0481,-0.12661 9.8315486,9.8315486 0 0 1 0.0506,-0.12609 9.8315486,9.8315486 0 0 1 0.0517,-0.12506 9.8315486,9.8315486 0 0 1 0.0538,-0.12454 9.8315486,9.8315486 0 0 1 0.0553,-0.12402 9.8315486,9.8315486 0 0 1 0.0574,-0.12299 9.8315486,9.8315486 0 0 1 0.0584,-0.12196 9.8315486,9.8315486 0 0 1 0.0605,-0.12144 9.8315486,9.8315486 0 0 1 0.0625,-0.12092 9.8315486,9.8315486 0 0 1 0.0636,-0.11937 9.8315486,9.8315486 0 0 1 0.0656,-0.11886 9.8315486,9.8315486 0 0 1 0.0672,-0.11782 9.8315486,9.8315486 0 0 1 0.0682,-0.11679 9.8315486,9.8315486 0 0 1 0.0703,-0.11627 9.8315486,9.8315486 0 0 1 0.0723,-0.11472 9.8315486,9.8315486 0 0 1 0.0734,-0.11421 9.8315486,9.8315486 0 0 1 0.0749,-0.11317 9.8315486,9.8315486 0 0 1 0.0765,-0.11162 9.8315486,9.8315486 0 0 1 0.078,-0.11111 9.8315486,9.8315486 0 0 1 0.0796,-0.10955 9.8315486,9.8315486 0 0 1 0.0811,-0.10852 9.8315486,9.8315486 0 0 1 0.0827,-0.10749 9.8315486,9.8315486 0 0 1 0.0842,-0.10645 9.8315486,9.8315486 0 0 1 0.0858,-0.10542 9.8315486,9.8315486 0 0 1 0.0868,-0.10387 9.8315486,9.8315486 0 0 1 0.0884,-0.10284 9.8315486,9.8315486 0 0 1 0.0899,-0.1018 9.8315486,9.8315486 0 0 1 0.0915,-0.10025 9.8315486,9.8315486 0 0 1 0.0925,-0.0992 9.8315486,9.8315486 0 0 1 0.0941,-0.0977 9.8315486,9.8315486 0 0 1 0.0951,-0.0966 9.8315486,9.8315486 0 0 1 0.0966,-0.0951 9.8315486,9.8315486 0 0 1 0.0982,-0.0935 9.8315486,9.8315486 0 0 1 0.0992,-0.0925 9.8315486,9.8315486 0 0 1 0.100248,-0.0909 9.8315486,9.8315486 0 0 1 0.101812,-0.0899 9.8315486,9.8315486 0 0 1 0.103348,-0.0884 9.8315486,9.8315486 0 0 1 0.103871,-0.0868 9.8315486,9.8315486 0 0 1 0.10542,-0.0853 9.8315486,9.8315486 0 0 1 0.10645,-0.0837 9.8315486,9.8315486 0 0 1 0.108011,-0.0827 9.8315486,9.8315486 0 0 1 0.108519,-0.0811 9.8315486,9.8315486 0 0 1 0.110069,-0.0791 9.8315486,9.8315486 0 0 1 0.111101,-0.078 9.8315486,9.8315486 0 0 1 0.0419,-0.0284 24.864681,24.864681 0 0 0 -22.79706,-14.93758915 24.864681,24.864681 0 0 0 -0.0186,0 z" />
    <circle
       style="display:inline;opacity:0.88141;mix-blend-mode:normal;fill:url(#radialGradient1561-47);fill-opacity:1;stroke:none;stroke-width:0.212909;stroke-opacity:1;paint-order:markers fill stroke"
       id="path1129-4"
       cx="25"
       cy="25"
       r="25" />
    <circle
       style="display:inline;opacity:0.88141;mix-blend-mode:normal;fill:url(#radialGradient1561-9-4);fill-opacity:1;stroke:none;stroke-width:0.212909;stroke-opacity:1;paint-order:markers fill stroke"
       id="path1129-9-75"
       cx="25"
       cy="25"
       r="25" />
  </g>
</svg>
