<?xml version="1.0" encoding="UTF-8" standalone="no"?>
<svg
   xmlns:dc="http://purl.org/dc/elements/1.1/"
   xmlns:cc="http://creativecommons.org/ns#"
   xmlns:rdf="http://www.w3.org/1999/02/22-rdf-syntax-ns#"
   xmlns:svg="http://www.w3.org/2000/svg"
   xmlns="http://www.w3.org/2000/svg"
   xmlns:xlink="http://www.w3.org/1999/xlink"
   xmlns:sodipodi="http://sodipodi.sourceforge.net/DTD/sodipodi-0.dtd"
   xmlns:inkscape="http://www.inkscape.org/namespaces/inkscape"
   width="50mm"
   height="50mm"
   viewBox="0 0 50 50"
   version="1.1"
   id="svg8"
   inkscape:version="1.0.1 (3bc2e813f5, 2020-09-07)"
   sodipodi:docname="2-2.svg">
  <defs
     id="defs2">
    <radialGradient
       inkscape:collect="always"
       xlink:href="#linearGradient1135"
       id="radialGradient1561-9-5-3"
       cx="41.704235"
       cy="24.089622"
       fx="41.704235"
       fy="24.089622"
       r="32.127975"
       gradientTransform="matrix(1.0523578,0.02552247,-0.01886637,0.77790935,-61.549199,14.906427)"
       gradientUnits="userSpaceOnUse" />
    <linearGradient
       inkscape:collect="always"
       id="linearGradient1135">
      <stop
         style="stop-color:#ffffff;stop-opacity:1;"
         offset="0"
         id="stop1131" />
      <stop
         style="stop-color:#ffffff;stop-opacity:0;"
         offset="1"
         id="stop1133" />
    </linearGradient>
    <radialGradient
       inkscape:collect="always"
       xlink:href="#linearGradient1135"
       id="radialGradient1561-45"
       cx="26.274075"
       cy="14.800471"
       fx="26.274075"
       fy="14.800471"
       r="32.127975"
       gradientTransform="matrix(0.77813809,0,0,0.77813812,-3.3823622,4.4117605)"
       gradientUnits="userSpaceOnUse" />
    <radialGradient
       inkscape:collect="always"
       xlink:href="#linearGradient1135"
       id="radialGradient1561-9-13"
       cx="54.447247"
       cy="49.531189"
       fx="54.447247"
       fy="49.531189"
       r="32.127975"
       gradientTransform="matrix(0.77813809,0,0,0.77813812,-3.3823622,4.4117605)"
       gradientUnits="userSpaceOnUse" />
  </defs>
  <sodipodi:namedview
     id="base"
     pagecolor="#ffffff"
     bordercolor="#666666"
     borderopacity="1.0"
     inkscape:pageopacity="0.0"
     inkscape:pageshadow="2"
     inkscape:zoom="0.98994949"
     inkscape:cx="222.59462"
     inkscape:cy="231.88183"
     inkscape:document-units="mm"
     inkscape:current-layer="layer1"
     inkscape:document-rotation="0"
     showgrid="false"
     inkscape:window-width="1920"
     inkscape:window-height="1017"
     inkscape:window-x="-8"
     inkscape:window-y="-8"
     inkscape:window-maximized="1" />
  <metadata
     id="metadata5">
    <rdf:RDF>
      <cc:Work
         rdf:about="">
        <dc:format>image/svg+xml</dc:format>
        <dc:type
           rdf:resource="http://purl.org/dc/dcmitype/StillImage" />
        <dc:title></dc:title>
      </cc:Work>
    </rdf:RDF>
  </metadata>
  <g
     inkscape:label="Layer 1"
     inkscape:groupmode="layer"
     id="layer1">
    <path
       id="path833-53"
       style="display:inline;fill:#ffffff;fill-opacity:1;stroke:#000000;stroke-width:0.27064;stroke-opacity:1;paint-order:markers fill stroke"
       d="m 49.845056,24.030774 -1.809192,1.863969 0.53485,0.06666 1.278991,-0.109553 a 24.864681,24.864681 0 0 0 0.01447,-0.851628 24.864681,24.864681 0 0 0 -0.01913,-0.969449 z" />
    <path
       id="path1172"
       style="display:inline;fill:#000000;fill-opacity:1;stroke:#000000;stroke-width:0.27064;stroke-opacity:1;paint-order:markers fill stroke"
       d="m 48.503018,16.886507 -0.400492,-0.145728 -2.538865,-0.06666 -2.60604,0.734838 -1.002006,0.601514 0.401008,1.403015 0.267168,1.470195 1.670182,-0.802018 1.470195,-0.467672 1.26969,0.401009 0.668176,0.868681 -0.133842,1.536857 -1.403017,1.804024 -1.40353,1.403014 -0.801502,0.467672 -1.60352,0.601514 0.33383,2.405539 2.004528,-0.06718 1.670701,0.200504 2.605524,-0.200504 0.556556,0.03979 a 24.864681,24.864681 0 0 0 0.321943,-3.223058 l -1.278991,0.109553 -0.53485,-0.06666 1.809192,-1.863969 a 24.864681,24.864681 0 0 0 -1.342038,-7.14427 z" />
    <path
       id="path1170"
       style="display:inline;fill:#ffffff;fill-opacity:1;stroke:#000000;stroke-width:0.27064;stroke-opacity:1;paint-order:markers fill stroke"
       d="m 45.787938,13.355456 a 9.8315486,9.8315486 0 0 0 -0.117822,10e-4 9.8315486,9.8315486 0 0 0 -0.135392,0.0026 9.8315486,9.8315486 0 0 0 -0.135393,0.0041 9.8315486,9.8315486 0 0 0 -0.135909,0.0062 9.8315486,9.8315486 0 0 0 -0.135392,0.0083 9.8315486,9.8315486 0 0 0 -0.134874,0.01033 9.8315486,9.8315486 0 0 0 -0.135393,0.01188 9.8315486,9.8315486 0 0 0 -0.134876,0.01344 9.8315486,9.8315486 0 0 0 -0.134877,0.0155 9.8315486,9.8315486 0 0 0 -0.134358,0.01757 9.8315486,9.8315486 0 0 0 -0.134358,0.01964 9.8315486,9.8315486 0 0 0 -0.133842,0.02119 9.8315486,9.8315486 0 0 0 -0.133326,0.02274 9.8315486,9.8315486 0 0 0 -0.133324,0.0248 9.8315486,9.8315486 0 0 0 -0.133326,0.02687 9.8315486,9.8315486 0 0 0 -0.132292,0.02842 9.8315486,9.8315486 0 0 0 -0.132292,0.03049 9.8315486,9.8315486 0 0 0 -0.131773,0.03204 9.8315486,9.8315486 0 0 0 -0.131259,0.03411 9.8315486,9.8315486 0 0 0 -0.130742,0.03566 9.8315486,9.8315486 0 0 0 -0.130225,0.03772 9.8315486,9.8315486 0 0 0 -0.129707,0.03927 9.8315486,9.8315486 0 0 0 -0.129709,0.04134 9.8315486,9.8315486 0 0 0 -0.128156,0.04289 9.8315486,9.8315486 0 0 0 -0.128159,0.04496 9.8315486,9.8315486 0 0 0 -0.12764,0.04651 9.8315486,9.8315486 0 0 0 -0.126606,0.04806 9.8315486,9.8315486 0 0 0 -0.126093,0.05013 9.8315486,9.8315486 0 0 0 -0.125573,0.05168 9.8315486,9.8315486 0 0 0 -0.12454,0.05374 9.8315486,9.8315486 0 0 0 -0.124023,0.05478 9.8315486,9.8315486 0 0 0 -0.122989,0.05684 9.8315486,9.8315486 0 0 0 -0.121957,0.05891 9.8315486,9.8315486 0 0 0 -0.121957,0.05995 9.8315486,9.8315486 0 0 0 -0.120404,0.06201 9.8315486,9.8315486 0 0 0 -0.119891,0.06356 9.8315486,9.8315486 0 0 0 -0.118856,0.06511 9.8315486,9.8315486 0 0 0 -0.117822,0.06718 9.8315486,9.8315486 0 0 0 -0.117305,0.06821 9.8315486,9.8315486 0 0 0 -0.116271,0.07028 9.8315486,9.8315486 0 0 0 -0.114724,0.07183 9.8315486,9.8315486 0 0 0 -0.114204,0.07286 9.8315486,9.8315486 0 0 0 -0.113171,0.07493 9.8315486,9.8315486 0 0 0 -0.112138,0.07648 9.8315486,9.8315486 0 0 0 -0.111104,0.07803 9.8315486,9.8315486 0 0 0 -0.109556,0.07906 9.8315486,9.8315486 0 0 0 -0.109035,0.08113 9.8315486,9.8315486 0 0 0 -0.107487,0.08268 9.8315486,9.8315486 0 0 0 -0.106971,0.08372 9.8315486,9.8315486 0 0 0 -0.104904,0.08527 9.8315486,9.8315486 0 0 0 -0.104386,0.08682 9.8315486,9.8315486 0 0 0 -0.102836,0.08837 9.8315486,9.8315486 0 0 0 -0.101801,0.08992 9.8315486,9.8315486 0 0 0 -0.100769,0.09095 9.8315486,9.8315486 0 0 0 -0.09922,0.0925 9.8315486,9.8315486 0 0 0 -0.09767,0.09353 9.8315486,9.8315486 0 0 0 -0.09664,0.09508 9.8315486,9.8315486 0 0 0 -0.0956,0.09664 9.8315486,9.8315486 0 0 0 -0.09405,0.09767 9.8315486,9.8315486 0 0 0 -0.0925,0.09922 9.8315486,9.8315486 0 0 0 -0.09095,0.100252 9.8315486,9.8315486 0 0 0 -0.08992,0.101802 9.8315486,9.8315486 0 0 0 -0.08837,0.102837 9.8315486,9.8315486 0 0 0 -0.08733,0.103869 9.8315486,9.8315486 0 0 0 -0.08527,0.10542 9.8315486,9.8315486 0 0 0 -0.08423,0.106453 9.8315486,9.8315486 0 0 0 -0.08268,0.107487 9.8315486,9.8315486 0 0 0 -0.08113,0.108521 9.8315486,9.8315486 0 0 0 -0.07958,0.109554 9.8315486,9.8315486 0 0 0 -0.07855,0.111104 9.8315486,9.8315486 0 0 0 -0.07648,0.111622 9.8315486,9.8315486 0 0 0 -0.07493,0.113171 9.8315486,9.8315486 0 0 0 -0.07338,0.114205 9.8315486,9.8315486 0 0 0 -0.07183,0.114721 9.8315486,9.8315486 0 0 0 -0.07028,0.116272 9.8315486,9.8315486 0 0 0 -0.06873,0.116789 9.8315486,9.8315486 0 0 0 -0.06718,0.117822 9.8315486,9.8315486 0 0 0 -0.06511,0.118856 9.8315486,9.8315486 0 0 0 -0.06408,0.119373 9.8315486,9.8315486 0 0 0 -0.06201,0.120923 9.8315486,9.8315486 0 0 0 -0.06046,0.121439 9.8315486,9.8315486 0 0 0 -0.05891,0.121957 9.8315486,9.8315486 0 0 0 -0.05736,0.12299 9.8315486,9.8315486 0 0 0 -0.05529,0.124023 9.8315486,9.8315486 0 0 0 -0.05374,0.12454 9.8315486,9.8315486 0 0 0 -0.05168,0.125057 9.8315486,9.8315486 0 0 0 -0.05013,0.126091 9.8315486,9.8315486 0 0 0 -0.04858,0.126607 9.8315486,9.8315486 0 0 0 -0.04702,0.127641 9.8315486,9.8315486 0 0 0 -0.04496,0.127631 9.8315486,9.8315486 0 0 0 -0.04289,0.128674 9.8315486,9.8315486 0 0 0 -0.04134,0.129191 9.8315486,9.8315486 0 0 0 -0.03979,0.129708 9.8315486,9.8315486 0 0 0 -0.03772,0.130225 9.8315486,9.8315486 0 0 0 -0.03617,0.130741 9.8315486,9.8315486 0 0 0 -0.03411,0.131258 9.8315486,9.8315486 0 0 0 -0.03255,0.131775 9.8315486,9.8315486 0 0 0 -0.03049,0.131775 9.8315486,9.8315486 0 0 0 -0.02894,0.132808 9.8315486,9.8315486 0 0 0 -0.02687,0.132809 9.8315486,9.8315486 0 0 0 -0.02532,0.133325 9.8315486,9.8315486 0 0 0 -0.02326,0.133326 9.8315486,9.8315486 0 0 0 -0.02119,0.134358 9.8315486,9.8315486 0 0 0 -0.01963,0.133842 9.8315486,9.8315486 0 0 0 -0.01757,0.134358 9.8315486,9.8315486 0 0 0 -0.01601,0.134877 9.8315486,9.8315486 0 0 0 -0.01394,0.134874 9.8315486,9.8315486 0 0 0 -0.01241,0.135392 9.8315486,9.8315486 0 0 0 -0.01035,0.134877 9.8315486,9.8315486 0 0 0 -0.0078,0.135393 9.8315486,9.8315486 0 0 0 -0.0062,0.135392 9.8315486,9.8315486 0 0 0 -0.0052,0.135909 9.8315486,9.8315486 0 0 0 -0.0026,0.135392 9.8315486,9.8315486 0 0 0 -0.0011,0.13539 9.8315486,9.8315486 0 0 0 0.0011,0.11834 9.8315486,9.8315486 0 0 0 0.0026,0.135393 9.8315486,9.8315486 0 0 0 0.0041,0.135393 9.8315486,9.8315486 0 0 0 0.0062,0.135392 9.8315486,9.8315486 0 0 0 0.0078,0.135393 9.8315486,9.8315486 0 0 0 0.01035,0.13539 9.8315486,9.8315486 0 0 0 0.01188,0.135392 9.8315486,9.8315486 0 0 0 0.01344,0.134877 9.8315486,9.8315486 0 0 0 0.01551,0.134358 9.8315486,9.8315486 0 0 0 0.01757,0.134877 9.8315486,9.8315486 0 0 0 0.01963,0.133842 9.8315486,9.8315486 0 0 0 0.02119,0.134358 9.8315486,9.8315486 0 0 0 0.02273,0.133323 9.8315486,9.8315486 0 0 0 0.02479,0.133326 9.8315486,9.8315486 0 0 0 0.02687,0.133327 9.8315486,9.8315486 0 0 0 0.02842,0.132291 9.8315486,9.8315486 0 0 0 0.03049,0.132292 9.8315486,9.8315486 0 0 0 0.03204,0.131773 9.8315486,9.8315486 0 0 0 0.03411,0.13126 9.8315486,9.8315486 0 0 0 0.03566,0.130741 9.8315486,9.8315486 0 0 0 0.03773,0.130225 9.8315486,9.8315486 0 0 0 0.03927,0.129707 9.8315486,9.8315486 0 0 0 0.04134,0.129191 9.8315486,9.8315486 0 0 0 0.04289,0.128675 9.8315486,9.8315486 0 0 0 0.04496,0.128155 9.8315486,9.8315486 0 0 0 0.04651,0.127643 9.8315486,9.8315486 0 0 0 0.04806,0.126606 9.8315486,9.8315486 0 0 0 0.05012,0.12609 9.8315486,9.8315486 0 0 0 0.05168,0.125058 9.8315486,9.8315486 0 0 0 0.05374,0.125057 9.8315486,9.8315486 0 0 0 0.05478,0.123505 9.8315486,9.8315486 0 0 0 0.05684,0.123508 9.8315486,9.8315486 0 0 0 0.05891,0.121957 9.8315486,9.8315486 0 0 0 0.05994,0.121438 9.8315486,9.8315486 0 0 0 0.06201,0.120923 9.8315486,9.8315486 0 0 0 0.06356,0.119891 9.8315486,9.8315486 0 0 0 0.06511,0.118856 9.8315486,9.8315486 0 0 0 0.06718,0.117821 9.8315486,9.8315486 0 0 0 0.06821,0.117306 9.8315486,9.8315486 0 0 0 0.07028,0.115755 9.8315486,9.8315486 0 0 0 0.07183,0.115239 9.8315486,9.8315486 0 0 0 0.07286,0.114205 9.8315486,9.8315486 0 0 0 0.07493,0.11317 9.8315486,9.8315486 0 0 0 0.07648,0.112139 9.8315486,9.8315486 0 0 0 0.07803,0.111104 9.8315486,9.8315486 0 0 0 0.07907,0.109553 9.8315486,9.8315486 0 0 0 0.08113,0.109037 9.8315486,9.8315486 0 0 0 0.08268,0.107487 9.8315486,9.8315486 0 0 0 0.08371,0.106455 9.8315486,9.8315486 0 0 0 0.08527,0.105421 9.8315486,9.8315486 0 0 0 0.08682,0.104386 9.8315486,9.8315486 0 0 0 0.08837,0.102836 9.8315486,9.8315486 0 0 0 0.08992,0.101801 9.8315486,9.8315486 0 0 0 0.09095,0.100769 9.8315486,9.8315486 0 0 0 0.0925,0.09922 9.8315486,9.8315486 0 0 0 0.09354,0.09767 9.8315486,9.8315486 0 0 0 0.09508,0.09664 9.8315486,9.8315486 0 0 0 0.09664,0.0956 9.8315486,9.8315486 0 0 0 0.09767,0.09353 9.8315486,9.8315486 0 0 0 0.09922,0.09302 9.8315486,9.8315486 0 0 0 0.100251,0.09095 9.8315486,9.8315486 0 0 0 0.101803,0.08992 9.8315486,9.8315486 0 0 0 0.102836,0.08837 9.8315486,9.8315486 0 0 0 0.10387,0.08733 9.8315486,9.8315486 0 0 0 0.105421,0.08527 9.8315486,9.8315486 0 0 0 0.106452,0.08423 9.8315486,9.8315486 0 0 0 0.107487,0.08268 9.8315486,9.8315486 0 0 0 0.108522,0.08113 9.8315486,9.8315486 0 0 0 0.109553,0.07958 9.8315486,9.8315486 0 0 0 0.111104,0.07803 9.8315486,9.8315486 0 0 0 0.111622,0.077 9.8315486,9.8315486 0 0 0 0.113171,0.07493 9.8315486,9.8315486 0 0 0 0.114204,0.07338 9.8315486,9.8315486 0 0 0 0.114724,0.07183 9.8315486,9.8315486 0 0 0 0.116271,0.07028 9.8315486,9.8315486 0 0 0 0.116787,0.06873 9.8315486,9.8315486 0 0 0 0.117824,0.06718 9.8315486,9.8315486 0 0 0 0.118856,0.06511 9.8315486,9.8315486 0 0 0 0.119888,0.06408 9.8315486,9.8315486 0 0 0 0.120407,0.06201 9.8315486,9.8315486 0 0 0 0.121438,0.06046 9.8315486,9.8315486 0 0 0 0.121957,0.05891 9.8315486,9.8315486 0 0 0 0.122989,0.05684 9.8315486,9.8315486 0 0 0 0.124026,0.05581 9.8315486,9.8315486 0 0 0 0.12454,0.05323 9.8315486,9.8315486 0 0 0 0.125055,0.05219 9.8315486,9.8315486 0 0 0 0.126093,0.05013 9.8315486,9.8315486 0 0 0 0.126605,0.04858 9.8315486,9.8315486 0 0 0 0.127641,0.04651 9.8315486,9.8315486 0 0 0 0.127643,0.04496 9.8315486,9.8315486 0 0 0 0.128672,0.04341 9.8315486,9.8315486 0 0 0 0.129193,0.04134 9.8315486,9.8315486 0 0 0 0.129707,0.03979 9.8315486,9.8315486 0 0 0 0.130225,0.03772 9.8315486,9.8315486 0 0 0 0.130741,0.03617 9.8315486,9.8315486 0 0 0 0.131257,0.03411 9.8315486,9.8315486 0 0 0 0.131776,0.03256 9.8315486,9.8315486 0 0 0 0.131776,0.03049 9.8315486,9.8315486 0 0 0 0.132807,0.02894 9.8315486,9.8315486 0 0 0 0.132808,0.02687 9.8315486,9.8315486 0 0 0 0.133326,0.02532 9.8315486,9.8315486 0 0 0 0.133324,0.02326 9.8315486,9.8315486 0 0 0 0.13436,0.02119 9.8315486,9.8315486 0 0 0 0.133843,0.01963 9.8315486,9.8315486 0 0 0 0.134358,0.01757 9.8315486,9.8315486 0 0 0 0.134874,0.01603 9.8315486,9.8315486 0 0 0 0.134876,0.01394 9.8315486,9.8315486 0 0 0 0.135393,0.01188 9.8315486,9.8315486 0 0 0 0.134874,0.01035 9.8315486,9.8315486 0 0 0 0.135392,0.0088 9.8315486,9.8315486 0 0 0 0.135393,0.0062 9.8315486,9.8315486 0 0 0 0.135909,0.0047 9.8315486,9.8315486 0 0 0 0.135392,0.0031 9.8315486,9.8315486 0 0 0 0.135393,0.0011 9.8315486,9.8315486 0 0 0 0.11834,-0.0011 9.8315486,9.8315486 0 0 0 0.135393,-0.0026 9.8315486,9.8315486 0 0 0 0.135389,-0.0041 9.8315486,9.8315486 0 0 0 0.135393,-0.0062 9.8315486,9.8315486 0 0 0 0.135393,-0.0083 9.8315486,9.8315486 0 0 0 0.135392,-0.01035 9.8315486,9.8315486 0 0 0 0.135393,-0.01188 9.8315486,9.8315486 0 0 0 0.134874,-0.01344 9.8315486,9.8315486 0 0 0 0.134361,-0.01603 9.8315486,9.8315486 0 0 0 0.134874,-0.01704 9.8315486,9.8315486 0 0 0 0.133842,-0.01963 9.8315486,9.8315486 0 0 0 0.13436,-0.02119 9.8315486,9.8315486 0 0 0 0.133324,-0.02273 9.8315486,9.8315486 0 0 0 0.133326,-0.02532 9.8315486,9.8315486 0 0 0 0.133324,-0.02635 9.8315486,9.8315486 0 0 0 0.132291,-0.02842 9.8315486,9.8315486 0 0 0 0.132292,-0.03049 9.8315486,9.8315486 0 0 0 0.131776,-0.03204 9.8315486,9.8315486 0 0 0 0.131257,-0.03411 9.8315486,9.8315486 0 0 0 0.130744,-0.03617 9.8315486,9.8315486 0 0 0 0.130222,-0.03721 9.8315486,9.8315486 0 0 0 0.09974,-0.03049 24.864681,24.864681 0 0 0 0.848526,-3.50883 l -0.556556,-0.03979 -2.605524,0.200504 -1.670701,-0.200504 -2.004528,0.06718 -0.33383,-2.405538 1.60352,-0.601514 0.801502,-0.467672 1.40353,-1.403014 1.403017,-1.804025 0.133842,-1.536857 -0.668176,-0.86868 -1.26969,-0.401009 -1.470195,0.467671 -1.670182,0.802018 -0.267168,-1.470194 -0.401008,-1.403015 1.002006,-0.601514 2.60604,-0.734839 2.538865,0.06666 0.400492,0.145727 a 24.864681,24.864681 0 0 0 -1.493965,-3.454569 9.8315486,9.8315486 0 0 0 -0.0036,-5.29e-4 9.8315486,9.8315486 0 0 0 -0.134359,-0.01602 9.8315486,9.8315486 0 0 0 -0.134874,-0.01395 9.8315486,9.8315486 0 0 0 -0.135392,-0.0124 9.8315486,9.8315486 0 0 0 -0.134877,-0.01033 9.8315486,9.8315486 0 0 0 -0.135392,-0.0083 9.8315486,9.8315486 0 0 0 -0.135393,-0.0067 9.8315486,9.8315486 0 0 0 -0.135908,-0.0047 9.8315486,9.8315486 0 0 0 -0.135393,-0.0026 9.8315486,9.8315486 0 0 0 -0.135909,-10e-4 z" />
    <path
       id="path1001"
       style="display:inline;fill:#1c2c71;fill-opacity:1;stroke:#000000;stroke-width:0.27064;stroke-opacity:1;paint-order:markers fill stroke"
       d="M 24.981458,0.1354844 A 24.864681,24.864681 0 0 0 0.1354298,25.000114 24.864681,24.864681 0 0 0 25.000063,49.864751 24.864681,24.864681 0 0 0 48.679759,32.583633 a 9.8315486,9.8315486 0 0 1 -0.0997,0.03049 9.8315486,9.8315486 0 0 1 -0.13022,0.03721 9.8315486,9.8315486 0 0 1 -0.130741,0.03617 9.8315486,9.8315486 0 0 1 -0.13126,0.03411 9.8315486,9.8315486 0 0 1 -0.131781,0.03204 9.8315486,9.8315486 0 0 1 -0.132289,0.03049 9.8315486,9.8315486 0 0 1 -0.132289,0.02842 9.8315486,9.8315486 0 0 1 -0.133321,0.02635 9.8315486,9.8315486 0 0 1 -0.133329,0.02532 9.8315486,9.8315486 0 0 1 -0.133331,0.02273 9.8315486,9.8315486 0 0 1 -0.134361,0.02119 9.8315486,9.8315486 0 0 1 -0.13384,0.01963 9.8315486,9.8315486 0 0 1 -0.134868,0.01707 9.8315486,9.8315486 0 0 1 -0.134361,0.01601 9.8315486,9.8315486 0 0 1 -0.134879,0.01344 9.8315486,9.8315486 0 0 1 -0.13539,0.01188 9.8315486,9.8315486 0 0 1 -0.13539,0.01035 9.8315486,9.8315486 0 0 1 -0.13539,0.0083 9.8315486,9.8315486 0 0 1 -0.135401,0.0062 9.8315486,9.8315486 0 0 1 -0.13539,0.0041 9.8315486,9.8315486 0 0 1 -0.13539,0.0026 9.8315486,9.8315486 0 0 1 -0.11834,0.0011 9.8315486,9.8315486 0 0 1 -0.13539,-0.0011 9.8315486,9.8315486 0 0 1 -0.13539,-0.0031 9.8315486,9.8315486 0 0 1 -0.135911,-0.0047 9.8315486,9.8315486 0 0 1 -0.1354,-0.0062 9.8315486,9.8315486 0 0 1 -0.13539,-0.0088 9.8315486,9.8315486 0 0 1 -0.134869,-0.01035 9.8315486,9.8315486 0 0 1 -0.13539,-0.01188 9.8315486,9.8315486 0 0 1 -0.134879,-0.01394 9.8315486,9.8315486 0 0 1 -0.134882,-0.01601 9.8315486,9.8315486 0 0 1 -0.134358,-0.01757 9.8315486,9.8315486 0 0 1 -0.133842,-0.01963 9.8315486,9.8315486 0 0 1 -0.134358,-0.02119 9.8315486,9.8315486 0 0 1 -0.133321,-0.02326 9.8315486,9.8315486 0 0 1 -0.133329,-0.02532 9.8315486,9.8315486 0 0 1 -0.132802,-0.02687 9.8315486,9.8315486 0 0 1 -0.132808,-0.02894 9.8315486,9.8315486 0 0 1 -0.131781,-0.03049 9.8315486,9.8315486 0 0 1 -0.13177,-0.03256 9.8315486,9.8315486 0 0 1 -0.13126,-0.03411 9.8315486,9.8315486 0 0 1 -0.130741,-0.03617 9.8315486,9.8315486 0 0 1 -0.130228,-0.03772 9.8315486,9.8315486 0 0 1 -0.129712,-0.03979 9.8315486,9.8315486 0 0 1 -0.129188,-0.04134 9.8315486,9.8315486 0 0 1 -0.128673,-0.04341 9.8315486,9.8315486 0 0 1 -0.127637,-0.04496 9.8315486,9.8315486 0 0 1 -0.127641,-0.04651 9.8315486,9.8315486 0 0 1 -0.126611,-0.04858 9.8315486,9.8315486 0 0 1 -0.126089,-0.05013 9.8315486,9.8315486 0 0 1 -0.125061,-0.05219 9.8315486,9.8315486 0 0 1 -0.124539,-0.05323 9.8315486,9.8315486 0 0 1 -0.124021,-0.05581 9.8315486,9.8315486 0 0 1 -0.122989,-0.05685 9.8315486,9.8315486 0 0 1 -0.12196,-0.05891 9.8315486,9.8315486 0 0 1 -0.12143,-0.06046 9.8315486,9.8315486 0 0 1 -0.12041,-0.06201 9.8315486,9.8315486 0 0 1 -0.11989,-0.06408 9.8315486,9.8315486 0 0 1 -0.118862,-0.06511 9.8315486,9.8315486 0 0 1 -0.117819,-0.06718 9.8315486,9.8315486 0 0 1 -0.116789,-0.06873 9.8315486,9.8315486 0 0 1 -0.116271,-0.07028 9.8315486,9.8315486 0 0 1 -0.114719,-0.07183 9.8315486,9.8315486 0 0 1 -0.11421,-0.07338 9.8315486,9.8315486 0 0 1 -0.11317,-0.07493 9.8315486,9.8315486 0 0 1 -0.11162,-0.077 9.8315486,9.8315486 0 0 1 -0.111101,-0.07803 9.8315486,9.8315486 0 0 1 -0.109558,-0.07958 9.8315486,9.8315486 0 0 1 -0.108522,-0.08113 9.8315486,9.8315486 0 0 1 -0.107479,-0.08268 9.8315486,9.8315486 0 0 1 -0.10646,-0.08423 9.8315486,9.8315486 0 0 1 -0.105421,-0.08527 9.8315486,9.8315486 0 0 1 -0.10387,-0.08733 9.8315486,9.8315486 0 0 1 -0.10283,-0.08837 9.8315486,9.8315486 0 0 1 -0.101809,-0.08992 9.8315486,9.8315486 0 0 1 -0.100251,-0.09095 9.8315486,9.8315486 0 0 1 -0.0992,-0.09302 9.8315486,9.8315486 0 0 1 -0.0977,-0.09353 9.8315486,9.8315486 0 0 1 -0.0966,-0.0956 9.8315486,9.8315486 0 0 1 -0.0951,-0.09663 9.8315486,9.8315486 0 0 1 -0.0935,-0.09767 9.8315486,9.8315486 0 0 1 -0.0925,-0.09922 9.8315486,9.8315486 0 0 1 -0.0909,-0.100769 9.8315486,9.8315486 0 0 1 -0.0899,-0.101804 9.8315486,9.8315486 0 0 1 -0.0884,-0.102836 9.8315486,9.8315486 0 0 1 -0.0868,-0.104386 9.8315486,9.8315486 0 0 1 -0.0853,-0.10542 9.8315486,9.8315486 0 0 1 -0.0837,-0.106453 9.8315486,9.8315486 0 0 1 -0.0827,-0.107487 9.8315486,9.8315486 0 0 1 -0.0811,-0.109037 9.8315486,9.8315486 0 0 1 -0.0791,-0.109556 9.8315486,9.8315486 0 0 1 -0.078,-0.111104 9.8315486,9.8315486 0 0 1 -0.0765,-0.112138 9.8315486,9.8315486 0 0 1 -0.0749,-0.113171 9.8315486,9.8315486 0 0 1 -0.0729,-0.114204 9.8315486,9.8315486 0 0 1 -0.0718,-0.11524 9.8315486,9.8315486 0 0 1 -0.0703,-0.115755 9.8315486,9.8315486 0 0 1 -0.0682,-0.117306 9.8315486,9.8315486 0 0 1 -0.0672,-0.117821 9.8315486,9.8315486 0 0 1 -0.0651,-0.118856 9.8315486,9.8315486 0 0 1 -0.0636,-0.119888 9.8315486,9.8315486 0 0 1 -0.062,-0.120926 9.8315486,9.8315486 0 0 1 -0.0599,-0.121438 9.8315486,9.8315486 0 0 1 -0.0589,-0.121957 9.8315486,9.8315486 0 0 1 -0.0568,-0.123505 9.8315486,9.8315486 0 0 1 -0.0548,-0.123507 9.8315486,9.8315486 0 0 1 -0.0537,-0.125058 9.8315486,9.8315486 0 0 1 -0.0517,-0.125056 9.8315486,9.8315486 0 0 1 -0.0501,-0.126092 9.8315486,9.8315486 0 0 1 -0.0481,-0.126606 9.8315486,9.8315486 0 0 1 -0.0465,-0.12764 9.8315486,9.8315486 0 0 1 -0.045,-0.128161 9.8315486,9.8315486 0 0 1 -0.0429,-0.128674 9.8315486,9.8315486 0 0 1 -0.0413,-0.12919 9.8315486,9.8315486 0 0 1 -0.0393,-0.129708 9.8315486,9.8315486 0 0 1 -0.0377,-0.130225 9.8315486,9.8315486 0 0 1 -0.0357,-0.130742 9.8315486,9.8315486 0 0 1 -0.0341,-0.131257 9.8315486,9.8315486 0 0 1 -0.032,-0.131775 9.8315486,9.8315486 0 0 1 -0.0305,-0.132292 9.8315486,9.8315486 0 0 1 -0.0284,-0.132292 9.8315486,9.8315486 0 0 1 -0.0269,-0.133325 9.8315486,9.8315486 0 0 1 -0.02479,-0.133325 9.8315486,9.8315486 0 0 1 -0.0227,-0.133325 9.8315486,9.8315486 0 0 1 -0.02119,-0.134359 9.8315486,9.8315486 0 0 1 -0.01961,-0.133841 9.8315486,9.8315486 0 0 1 -0.0176,-0.134878 9.8315486,9.8315486 0 0 1 -0.0155,-0.134358 9.8315486,9.8315486 0 0 1 -0.01339,-0.134874 9.8315486,9.8315486 0 0 1 -0.01191,-0.135391 9.8315486,9.8315486 0 0 1 -0.0104,-0.135394 9.8315486,9.8315486 0 0 1 -0.008,-0.135392 9.8315486,9.8315486 0 0 1 -0.006,-0.135392 9.8315486,9.8315486 0 0 1 -0.004,-0.135394 9.8315486,9.8315486 0 0 1 -0.003,-0.135392 9.8315486,9.8315486 0 0 1 -0.0011,-0.118337 9.8315486,9.8315486 0 0 1 0.0011,-0.135392 9.8315486,9.8315486 0 0 1 0.003,-0.135394 9.8315486,9.8315486 0 0 1 0.005,-0.135908 9.8315486,9.8315486 0 0 1 0.006,-0.135392 9.8315486,9.8315486 0 0 1 0.008,-0.135394 9.8315486,9.8315486 0 0 1 0.0104,-0.134876 9.8315486,9.8315486 0 0 1 0.01241,-0.13539 9.8315486,9.8315486 0 0 1 0.01389,-0.134877 9.8315486,9.8315486 0 0 1 0.01601,-0.134876 9.8315486,9.8315486 0 0 1 0.0176,-0.134358 9.8315486,9.8315486 0 0 1 0.01961,-0.133843 9.8315486,9.8315486 0 0 1 0.02119,-0.134358 9.8315486,9.8315486 0 0 1 0.02331,-0.133326 9.8315486,9.8315486 0 0 1 0.02529,-0.133323 9.8315486,9.8315486 0 0 1 0.0269,-0.132811 9.8315486,9.8315486 0 0 1 0.0289,-0.132806 9.8315486,9.8315486 0 0 1 0.0305,-0.131776 9.8315486,9.8315486 0 0 1 0.0326,-0.131774 9.8315486,9.8315486 0 0 1 0.0341,-0.13126 9.8315486,9.8315486 0 0 1 0.0362,-0.130741 9.8315486,9.8315486 0 0 1 0.0377,-0.130223 9.8315486,9.8315486 0 0 1 0.0398,-0.129708 9.8315486,9.8315486 0 0 1 0.0413,-0.129192 9.8315486,9.8315486 0 0 1 0.0429,-0.128675 9.8315486,9.8315486 0 0 1 0.045,-0.12764 9.8315486,9.8315486 0 0 1 0.047,-0.12764 9.8315486,9.8315486 0 0 1 0.0486,-0.126609 9.8315486,9.8315486 0 0 1 0.0501,-0.126089 9.8315486,9.8315486 0 0 1 0.0517,-0.125057 9.8315486,9.8315486 0 0 1 0.0537,-0.12454 9.8315486,9.8315486 0 0 1 0.0553,-0.124024 9.8315486,9.8315486 0 0 1 0.0574,-0.12299 9.8315486,9.8315486 0 0 1 0.0589,-0.121956 9.8315486,9.8315486 0 0 1 0.0605,-0.12144 9.8315486,9.8315486 0 0 1 0.062,-0.120923 9.8315486,9.8315486 0 0 1 0.0636,-0.119372 9.8315486,9.8315486 0 0 1 0.0656,-0.118856 9.8315486,9.8315486 0 0 1 0.0672,-0.117822 9.8315486,9.8315486 0 0 1 0.0687,-0.116789 9.8315486,9.8315486 0 0 1 0.0703,-0.116272 9.8315486,9.8315486 0 0 1 0.0718,-0.114722 9.8315486,9.8315486 0 0 1 0.0734,-0.114205 9.8315486,9.8315486 0 0 1 0.0749,-0.113171 9.8315486,9.8315486 0 0 1 0.0765,-0.111621 9.8315486,9.8315486 0 0 1 0.0785,-0.111104 9.8315486,9.8315486 0 0 1 0.0796,-0.109555 9.8315486,9.8315486 0 0 1 0.0811,-0.108519 9.8315486,9.8315486 0 0 1 0.0827,-0.107488 9.8315486,9.8315486 0 0 1 0.0842,-0.106454 9.8315486,9.8315486 0 0 1 0.0853,-0.105419 9.8315486,9.8315486 0 0 1 0.0873,-0.10387 9.8315486,9.8315486 0 0 1 0.0884,-0.102836 9.8315486,9.8315486 0 0 1 0.0899,-0.101803 9.8315486,9.8315486 0 0 1 0.091,-0.100252 9.8315486,9.8315486 0 0 1 0.0925,-0.09922 9.8315486,9.8315486 0 0 1 0.0941,-0.09767 9.8315486,9.8315486 0 0 1 0.0956,-0.09664 9.8315486,9.8315486 0 0 1 0.0966,-0.09508 9.8315486,9.8315486 0 0 1 0.0977,-0.09353 9.8315486,9.8315486 0 0 1 0.0992,-0.0925 9.8315486,9.8315486 0 0 1 0.100772,-0.09095 9.8315486,9.8315486 0 0 1 0.101799,-0.08992 9.8315486,9.8315486 0 0 1 0.10284,-0.08837 9.8315486,9.8315486 0 0 1 0.104381,-0.08682 9.8315486,9.8315486 0 0 1 0.10491,-0.08527 9.8315486,9.8315486 0 0 1 0.106961,-0.08372 9.8315486,9.8315486 0 0 1 0.107489,-0.08268 9.8315486,9.8315486 0 0 1 0.10904,-0.08113 9.8315486,9.8315486 0 0 1 0.109559,-0.07906 9.8315486,9.8315486 0 0 1 0.111101,-0.07803 9.8315486,9.8315486 0 0 1 0.112139,-0.07648 9.8315486,9.8315486 0 0 1 0.11317,-0.07493 9.8315486,9.8315486 0 0 1 0.114199,-0.07286 9.8315486,9.8315486 0 0 1 0.114721,-0.07183 9.8315486,9.8315486 0 0 1 0.116282,-0.07028 9.8315486,9.8315486 0 0 1 0.117297,-0.06821 9.8315486,9.8315486 0 0 1 0.117822,-0.06718 9.8315486,9.8315486 0 0 1 0.118859,-0.06511 9.8315486,9.8315486 0 0 1 0.11989,-0.06356 9.8315486,9.8315486 0 0 1 0.120402,-0.06201 9.8315486,9.8315486 0 0 1 0.121959,-0.05994 9.8315486,9.8315486 0 0 1 0.12196,-0.05891 9.8315486,9.8315486 0 0 1 0.122989,-0.05684 9.8315486,9.8315486 0 0 1 0.124021,-0.05478 9.8315486,9.8315486 0 0 1 0.124539,-0.05374 9.8315486,9.8315486 0 0 1 0.125571,-0.05168 9.8315486,9.8315486 0 0 1 0.12609,-0.05013 9.8315486,9.8315486 0 0 1 0.126609,-0.04806 9.8315486,9.8315486 0 0 1 0.12764,-0.04651 9.8315486,9.8315486 0 0 1 0.128161,-0.04496 9.8315486,9.8315486 0 0 1 0.128159,-0.04289 9.8315486,9.8315486 0 0 1 0.12971,-0.04134 9.8315486,9.8315486 0 0 1 0.129701,-0.03927 9.8315486,9.8315486 0 0 1 0.130231,-0.03772 9.8315486,9.8315486 0 0 1 0.130738,-0.03566 9.8315486,9.8315486 0 0 1 0.13126,-0.03411 9.8315486,9.8315486 0 0 1 0.13177,-0.03204 9.8315486,9.8315486 0 0 1 0.1323,-0.03049 9.8315486,9.8315486 0 0 1 0.132292,-0.02842 9.8315486,9.8315486 0 0 1 0.133318,-0.02687 9.8315486,9.8315486 0 0 1 0.133331,-0.0248 9.8315486,9.8315486 0 0 1 0.133319,-0.02274 9.8315486,9.8315486 0 0 1 0.13385,-0.02119 9.8315486,9.8315486 0 0 1 0.13435,-0.01964 9.8315486,9.8315486 0 0 1 0.134361,-0.01757 9.8315486,9.8315486 0 0 1 0.134879,-0.0155 9.8315486,9.8315486 0 0 1 0.134871,-0.01343 9.8315486,9.8315486 0 0 1 0.13539,-0.01189 9.8315486,9.8315486 0 0 1 0.134879,-0.01033 9.8315486,9.8315486 0 0 1 0.13539,-0.0083 9.8315486,9.8315486 0 0 1 0.135912,-0.0062 9.8315486,9.8315486 0 0 1 0.13539,-0.0041 9.8315486,9.8315486 0 0 1 0.135397,-0.0026 9.8315486,9.8315486 0 0 1 0.117822,-0.001 9.8315486,9.8315486 0 0 1 0.135909,0.001 9.8315486,9.8315486 0 0 1 0.135389,0.0026 9.8315486,9.8315486 0 0 1 0.135912,0.0047 9.8315486,9.8315486 0 0 1 0.13539,0.0067 9.8315486,9.8315486 0 0 1 0.135389,0.0083 9.8315486,9.8315486 0 0 1 0.13488,0.01033 9.8315486,9.8315486 0 0 1 0.13539,0.0124 9.8315486,9.8315486 0 0 1 0.134882,0.01395 9.8315486,9.8315486 0 0 1 0.13435,0.01602 9.8315486,9.8315486 0 0 1 0.004,5.29e-4 24.864681,24.864681 0 0 0 -22.00951,-13.2963477 24.864681,24.864681 0 0 0 -0.0186,0 z" />
    <circle
       style="display:inline;opacity:0.88141;mix-blend-mode:normal;fill:url(#radialGradient1561-45);fill-opacity:1;stroke:none;stroke-width:0.212909;stroke-opacity:1;paint-order:markers fill stroke"
       id="path1129-80"
       cx="25"
       cy="25"
       r="25" />
    <circle
       style="display:inline;opacity:0.88141;mix-blend-mode:normal;fill:url(#radialGradient1561-9-13);fill-opacity:1;stroke:none;stroke-width:0.212909;stroke-opacity:1;paint-order:markers fill stroke"
       id="path1129-9-1"
       cx="25"
       cy="25"
       r="25" />
  </g>
</svg>
