<?xml version="1.0" encoding="UTF-8" standalone="no"?>
<svg
   xmlns:dc="http://purl.org/dc/elements/1.1/"
   xmlns:cc="http://creativecommons.org/ns#"
   xmlns:rdf="http://www.w3.org/1999/02/22-rdf-syntax-ns#"
   xmlns:svg="http://www.w3.org/2000/svg"
   xmlns="http://www.w3.org/2000/svg"
   xmlns:xlink="http://www.w3.org/1999/xlink"
   xmlns:sodipodi="http://sodipodi.sourceforge.net/DTD/sodipodi-0.dtd"
   xmlns:inkscape="http://www.inkscape.org/namespaces/inkscape"
   width="50mm"
   height="50mm"
   viewBox="0 0 50 50"
   version="1.1"
   id="svg8"
   inkscape:version="1.0.1 (3bc2e813f5, 2020-09-07)"
   sodipodi:docname="13-2.svg">
  <defs
     id="defs2">
    <radialGradient
       inkscape:collect="always"
       xlink:href="#linearGradient1135"
       id="radialGradient1561-9-5-3"
       cx="41.903854"
       cy="30.091272"
       fx="41.903854"
       fy="30.091272"
       r="32.127975"
       gradientTransform="matrix(0.77813807,0,0,0.7781381,-46.238373,9.9267266)"
       gradientUnits="userSpaceOnUse" />
    <linearGradient
       inkscape:collect="always"
       id="linearGradient1135">
      <stop
         style="stop-color:#ffffff;stop-opacity:1;"
         offset="0"
         id="stop1131" />
      <stop
         style="stop-color:#ffffff;stop-opacity:0;"
         offset="1"
         id="stop1133" />
    </linearGradient>
    <radialGradient
       inkscape:collect="always"
       xlink:href="#linearGradient1135"
       id="radialGradient1561-9-13"
       cx="54.447247"
       cy="49.531189"
       fx="54.447247"
       fy="49.531189"
       r="32.127975"
       gradientTransform="matrix(0.77813809,0,0,0.77813812,-3.3823577,4.4117575)"
       gradientUnits="userSpaceOnUse" />
    <radialGradient
       inkscape:collect="always"
       xlink:href="#linearGradient1135"
       id="radialGradient1561-45"
       cx="26.274075"
       cy="14.800471"
       fx="26.274075"
       fy="14.800471"
       r="32.127975"
       gradientTransform="matrix(0.77813809,0,0,0.77813812,-3.3823562,4.4117572)"
       gradientUnits="userSpaceOnUse" />
  </defs>
  <sodipodi:namedview
     id="base"
     pagecolor="#ffffff"
     bordercolor="#666666"
     borderopacity="1.0"
     inkscape:pageopacity="0.0"
     inkscape:pageshadow="2"
     inkscape:zoom="1.4"
     inkscape:cx="14.524629"
     inkscape:cy="85.249659"
     inkscape:document-units="mm"
     inkscape:current-layer="layer1"
     inkscape:document-rotation="0"
     showgrid="false"
     inkscape:window-width="1920"
     inkscape:window-height="1017"
     inkscape:window-x="-8"
     inkscape:window-y="-8"
     inkscape:window-maximized="1" />
  <metadata
     id="metadata5">
    <rdf:RDF>
      <cc:Work
         rdf:about="">
        <dc:format>image/svg+xml</dc:format>
        <dc:type
           rdf:resource="http://purl.org/dc/dcmitype/StillImage" />
        <dc:title />
      </cc:Work>
    </rdf:RDF>
  </metadata>
  <g
     inkscape:label="Layer 1"
     inkscape:groupmode="layer"
     id="layer1">
    <path
       id="path833-53"
       style="display:inline;fill:#000000;fill-opacity:1;stroke:#000000;stroke-width:0.27064;stroke-opacity:1;paint-order:markers fill stroke"
       d="m 42.295135,16.777876 -0.166915,0.334346 -0.567922,0.634587 -0.467673,0.401009 -0.701765,0.434082 -0.300757,0.133842 0.03359,0.300757 v 0.434082 l 0.06666,0.534852 -0.06666,0.968933 0.06666,0.267166 0.166916,0.06666 0.300754,-0.03359 0.300757,-0.233576 h 0.467672 l 0.06666,0.166915 -0.133323,7.851201 0.166915,0.267166 2.205032,-0.06666 0.367419,-0.167431 0.166915,-0.33383 L 44.233,17.178885 h -0.300757 l -0.768427,-0.233578 z" />
    <path
       id="path1291"
       style="display:inline;fill:#000000;fill-opacity:1;stroke:#000000;stroke-width:0.27064;stroke-opacity:1;paint-order:markers fill stroke"
       d="m 49.855916,25.639351 -0.198956,0.535884 -0.367419,0.300758 -0.634587,0.200504 h -0.701765 l -0.651639,-0.284221 -0.550871,-0.300758 -0.250632,-0.166915 -0.150378,0.150379 -0.25063,1.302764 -0.417546,1.319816 0.233576,0.183967 0.4346,0.166915 0.467672,0.200507 0.584462,0.150379 0.601511,0.133323 0.484209,0.05012 h 0.718302 l 0.234611,-0.01601 a 24.864678,24.864678 0 0 0 0.06305,-0.348816 24.864678,24.864678 0 0 0 0.02273,-0.134877 24.864678,24.864678 0 0 0 0.126089,-0.84284 24.864677,24.864677 0 0 0 0.181385,-2.005048 24.864678,24.864678 0 0 0 0.02222,-0.595829 z" />
    <path
       id="path1639"
       style="display:inline;fill:#000000;fill-opacity:1;stroke:#000000;stroke-width:0.27064;stroke-opacity:1;paint-order:markers fill stroke"
       d="m 48.487523,16.841438 -0.634587,0.07958 -0.618048,0.133843 -0.484209,0.166914 -0.434599,0.250631 -0.133842,0.166915 -0.04961,0.317293 0.11679,1.97094 0.150379,0.167431 0.33383,-0.117306 0.668176,-0.233577 0.701765,-0.100253 0.43408,0.100253 0.451136,0.233577 0.234096,0.31781 0.10025,0.383955 0.03307,0.334349 -0.0832,0.383955 -0.133842,0.267166 -0.33383,0.250632 -0.350883,0.03359 -1.369941,-0.183968 -0.166915,0.06718 -0.133842,0.133323 -0.11679,2.071193 0.08372,0.150378 0.21704,0.08372 h 0.517798 l 0.73484,-0.05013 0.802019,0.03359 0.634584,0.350367 0.207741,0.444934 a 24.864678,24.864678 0 0 0 0,-0.04961 24.864678,24.864678 0 0 0 -0.123508,-2.47065 24.864678,24.864678 0 0 0 -0.310057,-2.15129 24.864678,24.864678 0 0 0 -0.08578,-0.432014 24.864678,24.864678 0 0 0 -0.667145,-2.534729 24.864678,24.864678 0 0 0 -0.182417,-0.546737 24.864678,24.864678 0 0 0 -0.0083,-0.02325 z" />
    <path
       id="path1637"
       style="display:inline;fill:#ffffff;fill-opacity:1;stroke:#000000;stroke-width:0.27064;stroke-opacity:1;paint-order:markers fill stroke"
       d="m 45.788464,13.355346 a 9.8315486,9.8315486 0 0 0 -0.117822,10e-4 9.8315486,9.8315486 0 0 0 -0.135393,0.0026 9.8315486,9.8315486 0 0 0 -0.135392,0.0041 9.8315486,9.8315486 0 0 0 -0.135909,0.0062 9.8315486,9.8315486 0 0 0 -0.135392,0.0083 9.8315486,9.8315486 0 0 0 -0.134877,0.01033 9.8315486,9.8315486 0 0 0 -0.135393,0.01188 9.8315486,9.8315486 0 0 0 -0.134874,0.01344 9.8315486,9.8315486 0 0 0 -0.134876,0.0155 9.8315486,9.8315486 0 0 0 -0.134358,0.01757 9.8315486,9.8315486 0 0 0 -0.134358,0.01964 9.8315486,9.8315486 0 0 0 -0.133842,0.02119 9.8315486,9.8315486 0 0 0 -0.133327,0.02274 9.8315486,9.8315486 0 0 0 -0.133323,0.0248 9.8315486,9.8315486 0 0 0 -0.133326,0.02687 9.8315486,9.8315486 0 0 0 -0.132292,0.02842 9.8315486,9.8315486 0 0 0 -0.132292,0.03049 9.8315486,9.8315486 0 0 0 -0.131775,0.03204 9.8315486,9.8315486 0 0 0 -0.131258,0.03411 9.8315486,9.8315486 0 0 0 -0.130741,0.03566 9.8315486,9.8315486 0 0 0 -0.130225,0.03772 9.8315486,9.8315486 0 0 0 -0.129707,0.03927 9.8315486,9.8315486 0 0 0 -0.129709,0.04134 9.8315486,9.8315486 0 0 0 -0.128156,0.04289 9.8315486,9.8315486 0 0 0 -0.128159,0.04496 9.8315486,9.8315486 0 0 0 -0.12764,0.04651 9.8315486,9.8315486 0 0 0 -0.126609,0.04806 9.8315486,9.8315486 0 0 0 -0.12609,0.05013 9.8315486,9.8315486 0 0 0 -0.125574,0.05168 9.8315486,9.8315486 0 0 0 -0.124539,0.05374 9.8315486,9.8315486 0 0 0 -0.124023,0.05478 9.8315486,9.8315486 0 0 0 -0.122989,0.05684 9.8315486,9.8315486 0 0 0 -0.121957,0.05891 9.8315486,9.8315486 0 0 0 -0.121957,0.05995 9.8315486,9.8315486 0 0 0 -0.120407,0.06201 9.8315486,9.8315486 0 0 0 -0.119888,0.06356 9.8315486,9.8315486 0 0 0 -0.118856,0.06511 9.8315486,9.8315486 0 0 0 -0.117822,0.06718 9.8315486,9.8315486 0 0 0 -0.117305,0.06821 9.8315486,9.8315486 0 0 0 -0.116274,0.07028 9.8315486,9.8315486 0 0 0 -0.114721,0.07183 9.8315486,9.8315486 0 0 0 -0.114205,0.07286 9.8315486,9.8315486 0 0 0 -0.11317,0.07493 9.8315486,9.8315486 0 0 0 -0.112138,0.07648 9.8315486,9.8315486 0 0 0 -0.111104,0.07803 9.8315486,9.8315486 0 0 0 -0.109556,0.07906 9.8315486,9.8315486 0 0 0 -0.109037,0.08113 9.8315486,9.8315486 0 0 0 -0.107487,0.08268 9.8315486,9.8315486 0 0 0 -0.106969,0.08371 9.8315486,9.8315486 0 0 0 -0.104905,0.08527 9.8315486,9.8315486 0 0 0 -0.104386,0.08682 9.8315486,9.8315486 0 0 0 -0.102835,0.08837 9.8315486,9.8315486 0 0 0 -0.101804,0.08992 9.8315486,9.8315486 0 0 0 -0.100769,0.09095 9.8315486,9.8315486 0 0 0 -0.09922,0.0925 9.8315486,9.8315486 0 0 0 -0.09767,0.09353 9.8315486,9.8315486 0 0 0 -0.09663,0.09509 9.8315486,9.8315486 0 0 0 -0.0956,0.09663 9.8315486,9.8315486 0 0 0 -0.09405,0.09767 9.8315486,9.8315486 0 0 0 -0.0925,0.09922 9.8315486,9.8315486 0 0 0 -0.09095,0.100252 9.8315486,9.8315486 0 0 0 -0.08992,0.101803 9.8315486,9.8315486 0 0 0 -0.08837,0.102836 9.8315486,9.8315486 0 0 0 -0.08733,0.10387 9.8315486,9.8315486 0 0 0 -0.08527,0.105419 9.8315486,9.8315486 0 0 0 -0.08423,0.106454 9.8315486,9.8315486 0 0 0 -0.08268,0.107487 9.8315486,9.8315486 0 0 0 -0.08113,0.10852 9.8315486,9.8315486 0 0 0 -0.07958,0.109555 9.8315486,9.8315486 0 0 0 -0.07855,0.111104 9.8315486,9.8315486 0 0 0 -0.07648,0.111621 9.8315486,9.8315486 0 0 0 -0.07493,0.113171 9.8315486,9.8315486 0 0 0 -0.07338,0.114205 9.8315486,9.8315486 0 0 0 -0.07183,0.114722 9.8315486,9.8315486 0 0 0 -0.07028,0.116272 9.8315486,9.8315486 0 0 0 -0.06873,0.116789 9.8315486,9.8315486 0 0 0 -0.06718,0.117822 9.8315486,9.8315486 0 0 0 -0.06563,0.118856 9.8315486,9.8315486 0 0 0 -0.06356,0.119372 9.8315486,9.8315486 0 0 0 -0.06201,0.120923 9.8315486,9.8315486 0 0 0 -0.06046,0.12144 9.8315486,9.8315486 0 0 0 -0.05891,0.121956 9.8315486,9.8315486 0 0 0 -0.05736,0.12299 9.8315486,9.8315486 0 0 0 -0.0553,0.124023 9.8315486,9.8315486 0 0 0 -0.05374,0.124541 9.8315486,9.8315486 0 0 0 -0.05168,0.125057 9.8315486,9.8315486 0 0 0 -0.05013,0.126089 9.8315486,9.8315486 0 0 0 -0.04857,0.126609 9.8315486,9.8315486 0 0 0 -0.04703,0.12764 9.8315486,9.8315486 0 0 0 -0.04496,0.12764 9.8315486,9.8315486 0 0 0 -0.04289,0.128675 9.8315486,9.8315486 0 0 0 -0.04134,0.129191 9.8315486,9.8315486 0 0 0 -0.03979,0.129709 9.8315486,9.8315486 0 0 0 -0.03772,0.130223 9.8315486,9.8315486 0 0 0 -0.03617,0.130741 9.8315486,9.8315486 0 0 0 -0.03411,0.13126 9.8315486,9.8315486 0 0 0 -0.03256,0.131773 9.8315486,9.8315486 0 0 0 -0.03049,0.131776 9.8315486,9.8315486 0 0 0 -0.02894,0.132807 9.8315486,9.8315486 0 0 0 -0.02687,0.132811 9.8315486,9.8315486 0 0 0 -0.02532,0.133323 9.8315486,9.8315486 0 0 0 -0.02326,0.133326 9.8315486,9.8315486 0 0 0 -0.02119,0.134358 9.8315486,9.8315486 0 0 0 -0.01963,0.133842 9.8315486,9.8315486 0 0 0 -0.01757,0.134359 9.8315486,9.8315486 0 0 0 -0.01601,0.134876 9.8315486,9.8315486 0 0 0 -0.01394,0.134877 9.8315486,9.8315486 0 0 0 -0.01241,0.13539 9.8315486,9.8315486 0 0 0 -0.01035,0.134876 9.8315486,9.8315486 0 0 0 -0.0083,0.135393 9.8315486,9.8315486 0 0 0 -0.0062,0.135393 9.8315486,9.8315486 0 0 0 -0.0052,0.135908 9.8315486,9.8315486 0 0 0 -0.0026,0.135393 9.8315486,9.8315486 0 0 0 -0.0011,0.135392 9.8315486,9.8315486 0 0 0 0.0011,0.118338 9.8315486,9.8315486 0 0 0 0.0026,0.135392 9.8315486,9.8315486 0 0 0 0.0041,0.135393 9.8315486,9.8315486 0 0 0 0.0062,0.135393 9.8315486,9.8315486 0 0 0 0.0083,0.135392 9.8315486,9.8315486 0 0 0 0.01035,0.135393 9.8315486,9.8315486 0 0 0 0.01188,0.135392 9.8315486,9.8315486 0 0 0 0.01344,0.134874 9.8315486,9.8315486 0 0 0 0.01551,0.134358 9.8315486,9.8315486 0 0 0 0.01757,0.134877 9.8315486,9.8315486 0 0 0 0.01963,0.133842 9.8315486,9.8315486 0 0 0 0.02119,0.134358 9.8315486,9.8315486 0 0 0 0.02273,0.133326 9.8315486,9.8315486 0 0 0 0.02479,0.133324 9.8315486,9.8315486 0 0 0 0.02687,0.133326 9.8315486,9.8315486 0 0 0 0.02842,0.132292 9.8315486,9.8315486 0 0 0 0.03049,0.132291 9.8315486,9.8315486 0 0 0 0.03204,0.131776 9.8315486,9.8315486 0 0 0 0.03411,0.131257 9.8315486,9.8315486 0 0 0 0.03566,0.130742 9.8315486,9.8315486 0 0 0 0.03772,0.130225 9.8315486,9.8315486 0 0 0 0.03927,0.129706 9.8315486,9.8315486 0 0 0 0.04134,0.129191 9.8315486,9.8315486 0 0 0 0.04289,0.128675 9.8315486,9.8315486 0 0 0 0.04496,0.128158 9.8315486,9.8315486 0 0 0 0.04651,0.12764 9.8315486,9.8315486 0 0 0 0.04806,0.126606 9.8315486,9.8315486 0 0 0 0.05013,0.126093 9.8315486,9.8315486 0 0 0 0.05167,0.125055 9.8315486,9.8315486 0 0 0 0.05374,0.125058 9.8315486,9.8315486 0 0 0 0.05478,0.123507 9.8315486,9.8315486 0 0 0 0.05684,0.123505 9.8315486,9.8315486 0 0 0 0.05891,0.121957 9.8315486,9.8315486 0 0 0 0.05994,0.121439 9.8315486,9.8315486 0 0 0 0.06201,0.120925 9.8315486,9.8315486 0 0 0 0.06356,0.119888 9.8315486,9.8315486 0 0 0 0.06511,0.118856 9.8315486,9.8315486 0 0 0 0.06718,0.117822 9.8315486,9.8315486 0 0 0 0.06821,0.117305 9.8315486,9.8315486 0 0 0 0.07028,0.115756 9.8315486,9.8315486 0 0 0 0.07183,0.115239 9.8315486,9.8315486 0 0 0 0.07286,0.114205 9.8315486,9.8315486 0 0 0 0.07493,0.11317 9.8315486,9.8315486 0 0 0 0.07648,0.112138 9.8315486,9.8315486 0 0 0 0.07803,0.111104 9.8315486,9.8315486 0 0 0 0.07906,0.109556 9.8315486,9.8315486 0 0 0 0.08113,0.109037 9.8315486,9.8315486 0 0 0 0.08268,0.107487 9.8315486,9.8315486 0 0 0 0.08371,0.106453 9.8315486,9.8315486 0 0 0 0.08527,0.10542 9.8315486,9.8315486 0 0 0 0.08682,0.104387 9.8315486,9.8315486 0 0 0 0.08837,0.102835 9.8315486,9.8315486 0 0 0 0.08992,0.101804 9.8315486,9.8315486 0 0 0 0.09095,0.100769 9.8315486,9.8315486 0 0 0 0.0925,0.09922 9.8315486,9.8315486 0 0 0 0.09354,0.09767 9.8315486,9.8315486 0 0 0 0.09508,0.09663 9.8315486,9.8315486 0 0 0 0.09664,0.0956 9.8315486,9.8315486 0 0 0 0.09767,0.09353 9.8315486,9.8315486 0 0 0 0.09922,0.09302 9.8315486,9.8315486 0 0 0 0.100251,0.09095 9.8315486,9.8315486 0 0 0 0.101803,0.08992 9.8315486,9.8315486 0 0 0 0.102836,0.08836 9.8315486,9.8315486 0 0 0 0.10387,0.08733 9.8315486,9.8315486 0 0 0 0.105421,0.08527 9.8315486,9.8315486 0 0 0 0.106452,0.08423 9.8315486,9.8315486 0 0 0 0.107487,0.08268 9.8315486,9.8315486 0 0 0 0.108522,0.08113 9.8315486,9.8315486 0 0 0 0.109553,0.07958 9.8315486,9.8315486 0 0 0 0.111104,0.07803 9.8315486,9.8315486 0 0 0 0.11162,0.077 9.8315486,9.8315486 0 0 0 0.113172,0.07493 9.8315486,9.8315486 0 0 0 0.114205,0.07338 9.8315486,9.8315486 0 0 0 0.114721,0.07183 9.8315486,9.8315486 0 0 0 0.116274,0.07028 9.8315486,9.8315486 0 0 0 0.116787,0.06873 9.8315486,9.8315486 0 0 0 0.117824,0.06718 9.8315486,9.8315486 0 0 0 0.118853,0.06511 9.8315486,9.8315486 0 0 0 0.119891,0.06408 9.8315486,9.8315486 0 0 0 0.120407,0.06201 9.8315486,9.8315486 0 0 0 0.121438,0.06046 9.8315486,9.8315486 0 0 0 0.121957,0.05891 9.8315486,9.8315486 0 0 0 0.122989,0.05685 9.8315486,9.8315486 0 0 0 0.124024,0.05581 9.8315486,9.8315486 0 0 0 0.124542,0.05323 9.8315486,9.8315486 0 0 0 0.125055,0.05219 9.8315486,9.8315486 0 0 0 0.12609,0.05012 9.8315486,9.8315486 0 0 0 0.126608,0.04858 9.8315486,9.8315486 0 0 0 0.12764,0.04651 9.8315486,9.8315486 0 0 0 0.127641,0.04496 9.8315486,9.8315486 0 0 0 0.128675,0.04341 9.8315486,9.8315486 0 0 0 0.12919,0.04134 9.8315486,9.8315486 0 0 0 0.12971,0.03979 9.8315486,9.8315486 0 0 0 0.130225,0.03772 9.8315486,9.8315486 0 0 0 0.130741,0.03617 9.8315486,9.8315486 0 0 0 0.131257,0.03411 9.8315486,9.8315486 0 0 0 0.131776,0.03256 9.8315486,9.8315486 0 0 0 0.131773,0.03049 9.8315486,9.8315486 0 0 0 0.13281,0.02894 9.8315486,9.8315486 0 0 0 0.132808,0.02687 9.8315486,9.8315486 0 0 0 0.133326,0.02532 9.8315486,9.8315486 0 0 0 0.133324,0.02326 9.8315486,9.8315486 0 0 0 0.13436,0.02119 9.8315486,9.8315486 0 0 0 0.13384,0.01963 9.8315486,9.8315486 0 0 0 0.134361,0.01757 9.8315486,9.8315486 0 0 0 0.134874,0.01601 9.8315486,9.8315486 0 0 0 0.134876,0.01394 9.8315486,9.8315486 0 0 0 0.135393,0.01188 9.8315486,9.8315486 0 0 0 0.134874,0.01035 9.8315486,9.8315486 0 0 0 0.135392,0.0088 9.8315486,9.8315486 0 0 0 0.135393,0.0062 9.8315486,9.8315486 0 0 0 0.135908,0.0047 9.8315486,9.8315486 0 0 0 0.135393,0.0031 9.8315486,9.8315486 0 0 0 0.135393,0.0011 9.8315486,9.8315486 0 0 0 0.11834,-0.0011 9.8315486,9.8315486 0 0 0 0.13539,-0.0026 9.8315486,9.8315486 0 0 0 0.135392,-0.0041 9.8315486,9.8315486 0 0 0 0.135393,-0.0062 9.8315486,9.8315486 0 0 0 0.135393,-0.0083 9.8315486,9.8315486 0 0 0 0.135392,-0.01035 9.8315486,9.8315486 0 0 0 0.135393,-0.01188 9.8315486,9.8315486 0 0 0 0.134874,-0.01344 9.8315486,9.8315486 0 0 0 0.13436,-0.01601 9.8315486,9.8315486 0 0 0 0.134874,-0.01707 9.8315486,9.8315486 0 0 0 0.133843,-0.01963 9.8315486,9.8315486 0 0 0 0.134358,-0.02119 9.8315486,9.8315486 0 0 0 0.133326,-0.02273 9.8315486,9.8315486 0 0 0 0.133326,-0.02532 9.8315486,9.8315486 0 0 0 0.133323,-0.02635 9.8315486,9.8315486 0 0 0 0.132292,-0.02842 9.8315486,9.8315486 0 0 0 0.132292,-0.03049 9.8315486,9.8315486 0 0 0 0.131776,-0.03204 9.8315486,9.8315486 0 0 0 0.131257,-0.03411 9.8315486,9.8315486 0 0 0 0.130741,-0.03617 9.8315486,9.8315486 0 0 0 0.130225,-0.03721 9.8315486,9.8315486 0 0 0 0.09974,-0.03049 24.864677,24.864677 0 0 0 0.723471,-2.819466 24.864678,24.864678 0 0 0 0.02687,-0.14056 24.864678,24.864678 0 0 0 0.01035,-0.05684 l -0.234612,0.01601 h -0.718301 l -0.484209,-0.05012 -0.601512,-0.133324 -0.584462,-0.150378 -0.467672,-0.200507 -0.434599,-0.166915 -0.233577,-0.183967 0.417547,-1.319816 0.250629,-1.302763 0.150379,-0.150378 0.250632,0.166915 0.55087,0.300757 0.65164,0.28422 h 0.701765 l 0.634587,-0.200504 0.367419,-0.300756 0.198956,-0.535885 a 24.864678,24.864678 0 0 0 0.0031,-0.13126 24.864678,24.864678 0 0 0 0.0057,-0.458369 l -0.20774,-0.444934 -0.634585,-0.350366 -0.802018,-0.03359 -0.73484,0.05013 h -0.517798 l -0.21704,-0.08371 -0.08372,-0.150379 0.11679,-2.071192 0.133842,-0.133324 0.166915,-0.06718 1.369941,0.183967 0.350882,-0.03359 0.33383,-0.250632 0.133843,-0.267165 0.0832,-0.383956 -0.03307,-0.334348 -0.100251,-0.383956 -0.234095,-0.317809 -0.451136,-0.233577 -0.434081,-0.100253 -0.701765,0.100253 -0.668176,0.233577 -0.33383,0.117305 -0.150378,-0.167431 -0.11679,-1.970939 0.04961,-0.317294 0.133842,-0.166915 0.4346,-0.25063 0.484208,-0.166915 0.618049,-0.133842 0.634587,-0.07958 a 24.864678,24.864678 0 0 0 -0.0036,-0.01085 24.864678,24.864678 0 0 0 -0.922425,-2.282031 24.864677,24.864677 0 0 0 -0.551905,-1.116728 9.8315486,9.8315486 0 0 0 -0.0036,-5.29e-4 9.8315486,9.8315486 0 0 0 -0.134358,-0.01602 9.8315486,9.8315486 0 0 0 -0.134876,-0.01395 9.8315486,9.8315486 0 0 0 -0.13539,-0.0124 9.8315486,9.8315486 0 0 0 -0.134877,-0.01034 9.8315486,9.8315486 0 0 0 -0.135392,-0.0083 9.8315486,9.8315486 0 0 0 -0.135393,-0.0067 9.8315486,9.8315486 0 0 0 -0.135909,-0.0047 9.8315486,9.8315486 0 0 0 -0.135392,-0.0026 9.8315486,9.8315486 0 0 0 -0.135909,-0.001 z m -3.493329,3.42253 0.868683,0.167431 0.768427,0.233578 h 0.300757 l 0.03307,11.559502 -0.166915,0.33383 -0.367419,0.167431 -2.205032,0.06666 -0.166915,-0.267166 0.133323,-7.851201 -0.06666,-0.166915 h -0.467672 l -0.300757,0.233576 -0.300754,0.03359 -0.166916,-0.06666 -0.06666,-0.267166 0.06666,-0.968933 -0.06666,-0.534852 v -0.434082 l -0.03359,-0.300757 0.300757,-0.133842 0.701765,-0.434082 0.467673,-0.401009 0.567922,-0.634587 z" />
    <path
       id="path1001"
       style="display:inline;fill:#fffffe;fill-opacity:1;stroke:#000000;stroke-width:0.27064;stroke-opacity:1;paint-order:markers fill stroke"
       d="M 42.293585,42.865174 H 7.7065507 a 24.864681,24.864681 0 0 0 17.2935183,6.999573 24.864681,24.864681 0 0 0 17.293516,-6.999573 z" />
    <path
       id="path912"
       style="display:inline;fill:#fd682b;fill-opacity:1;stroke:#000000;stroke-width:0.27064;stroke-opacity:1;paint-order:markers fill stroke"
       d="M 42.293585,7.1350543 H 7.7065507 A 24.864681,24.864681 0 0 0 0.13543511,25.000112 24.864681,24.864681 0 0 0 7.7065507,42.865174 H 42.293585 a 24.864681,24.864681 0 0 0 6.386174,-10.281544 9.8315486,9.8315486 0 0 1 -0.09973,0.03049 9.8315486,9.8315486 0 0 1 -0.130225,0.03721 9.8315486,9.8315486 0 0 1 -0.130741,0.03617 9.8315486,9.8315486 0 0 1 -0.131258,0.03411 9.8315486,9.8315486 0 0 1 -0.131775,0.03204 9.8315486,9.8315486 0 0 1 -0.132292,0.03049 9.8315486,9.8315486 0 0 1 -0.132292,0.02842 9.8315486,9.8315486 0 0 1 -0.133323,0.02635 9.8315486,9.8315486 0 0 1 -0.133326,0.02532 9.8315486,9.8315486 0 0 1 -0.133326,0.02273 9.8315486,9.8315486 0 0 1 -0.134359,0.02119 9.8315486,9.8315486 0 0 1 -0.133842,0.01963 9.8315486,9.8315486 0 0 1 -0.134874,0.01707 9.8315486,9.8315486 0 0 1 -0.13436,0.01601 9.8315486,9.8315486 0 0 1 -0.134874,0.01344 9.8315486,9.8315486 0 0 1 -0.135393,0.01188 9.8315486,9.8315486 0 0 1 -0.135393,0.01035 9.8315486,9.8315486 0 0 1 -0.135392,0.0083 9.8315486,9.8315486 0 0 1 -0.135393,0.0062 9.8315486,9.8315486 0 0 1 -0.135392,0.0041 9.8315486,9.8315486 0 0 1 -0.13539,0.0026 9.8315486,9.8315486 0 0 1 -0.11834,0.0011 9.8315486,9.8315486 0 0 1 -0.135393,-0.0011 9.8315486,9.8315486 0 0 1 -0.135393,-0.0031 9.8315486,9.8315486 0 0 1 -0.135908,-0.0047 9.8315486,9.8315486 0 0 1 -0.135393,-0.0062 9.8315486,9.8315486 0 0 1 -0.135392,-0.0088 9.8315486,9.8315486 0 0 1 -0.134874,-0.01035 9.8315486,9.8315486 0 0 1 -0.135393,-0.01188 9.8315486,9.8315486 0 0 1 -0.134876,-0.01394 9.8315486,9.8315486 0 0 1 -0.134874,-0.01601 9.8315486,9.8315486 0 0 1 -0.134361,-0.01757 9.8315486,9.8315486 0 0 1 -0.13384,-0.01963 9.8315486,9.8315486 0 0 1 -0.13436,-0.02119 9.8315486,9.8315486 0 0 1 -0.133324,-0.02326 9.8315486,9.8315486 0 0 1 -0.133326,-0.02532 9.8315486,9.8315486 0 0 1 -0.132808,-0.02687 9.8315486,9.8315486 0 0 1 -0.13281,-0.02894 9.8315486,9.8315486 0 0 1 -0.131773,-0.03049 9.8315486,9.8315486 0 0 1 -0.131776,-0.03256 9.8315486,9.8315486 0 0 1 -0.131257,-0.03411 9.8315486,9.8315486 0 0 1 -0.130741,-0.03617 9.8315486,9.8315486 0 0 1 -0.130225,-0.03772 9.8315486,9.8315486 0 0 1 -0.12971,-0.03979 9.8315486,9.8315486 0 0 1 -0.12919,-0.04134 9.8315486,9.8315486 0 0 1 -0.128675,-0.04341 9.8315486,9.8315486 0 0 1 -0.127641,-0.04496 9.8315486,9.8315486 0 0 1 -0.12764,-0.04651 9.8315486,9.8315486 0 0 1 -0.126608,-0.04858 9.8315486,9.8315486 0 0 1 -0.12609,-0.05013 9.8315486,9.8315486 0 0 1 -0.125055,-0.05219 9.8315486,9.8315486 0 0 1 -0.124542,-0.05323 9.8315486,9.8315486 0 0 1 -0.124024,-0.05581 9.8315486,9.8315486 0 0 1 -0.122989,-0.05685 9.8315486,9.8315486 0 0 1 -0.121957,-0.05891 9.8315486,9.8315486 0 0 1 -0.121438,-0.06046 9.8315486,9.8315486 0 0 1 -0.120407,-0.06201 9.8315486,9.8315486 0 0 1 -0.119891,-0.06408 9.8315486,9.8315486 0 0 1 -0.118853,-0.06511 9.8315486,9.8315486 0 0 1 -0.117824,-0.06718 9.8315486,9.8315486 0 0 1 -0.116787,-0.06873 9.8315486,9.8315486 0 0 1 -0.116274,-0.07028 9.8315486,9.8315486 0 0 1 -0.114721,-0.07183 9.8315486,9.8315486 0 0 1 -0.114205,-0.07338 9.8315486,9.8315486 0 0 1 -0.113172,-0.07493 9.8315486,9.8315486 0 0 1 -0.11162,-0.077 A 9.8315486,9.8315486 0 0 1 40.069955,31.18419 9.8315486,9.8315486 0 0 1 39.960402,31.10461 9.8315486,9.8315486 0 0 1 39.85188,31.02348 9.8315486,9.8315486 0 0 1 39.744393,30.9408 9.8315486,9.8315486 0 0 1 39.637941,30.85657 9.8315486,9.8315486 0 0 1 39.53252,30.7713 9.8315486,9.8315486 0 0 1 39.42865,30.68397 9.8315486,9.8315486 0 0 1 39.325814,30.5956 9.8315486,9.8315486 0 0 1 39.224011,30.50568 9.8315486,9.8315486 0 0 1 39.12376,30.41473 9.8315486,9.8315486 0 0 1 39.02454,30.32171 9.8315486,9.8315486 0 0 1 38.92687,30.22818 9.8315486,9.8315486 0 0 1 38.83023,30.13258 9.8315486,9.8315486 0 0 1 38.73515,30.03595 9.8315486,9.8315486 0 0 1 38.64161,29.93828 9.8315486,9.8315486 0 0 1 38.54911,29.83906 9.8315486,9.8315486 0 0 1 38.45816,29.73829 9.8315486,9.8315486 0 0 1 38.36824,29.636487 9.8315486,9.8315486 0 0 1 38.27987,29.533651 9.8315486,9.8315486 0 0 1 38.19305,29.429265 9.8315486,9.8315486 0 0 1 38.10778,29.323845 9.8315486,9.8315486 0 0 1 38.02406,29.217392 9.8315486,9.8315486 0 0 1 37.94138,29.109905 9.8315486,9.8315486 0 0 1 37.86025,29.000868 9.8315486,9.8315486 0 0 1 37.78119,28.891312 9.8315486,9.8315486 0 0 1 37.70316,28.780208 9.8315486,9.8315486 0 0 1 37.62668,28.668069 9.8315486,9.8315486 0 0 1 37.55175,28.554899 9.8315486,9.8315486 0 0 1 37.47889,28.440694 9.8315486,9.8315486 0 0 1 37.40706,28.325455 9.8315486,9.8315486 0 0 1 37.33678,28.2097 9.8315486,9.8315486 0 0 1 37.26857,28.092394 9.8315486,9.8315486 0 0 1 37.20139,27.974573 9.8315486,9.8315486 0 0 1 37.13628,27.855717 9.8315486,9.8315486 0 0 1 37.07272,27.735829 9.8315486,9.8315486 0 0 1 37.01071,27.614903 9.8315486,9.8315486 0 0 1 36.95077,27.493465 9.8315486,9.8315486 0 0 1 36.89186,27.371508 9.8315486,9.8315486 0 0 1 36.83502,27.248003 9.8315486,9.8315486 0 0 1 36.78024,27.124496 9.8315486,9.8315486 0 0 1 36.7265,26.999438 9.8315486,9.8315486 0 0 1 36.67483,26.874382 9.8315486,9.8315486 0 0 1 36.6247,26.74829 a 9.8315486,9.8315486 0 0 1 -0.04806,-0.126606 9.8315486,9.8315486 0 0 1 -0.04651,-0.12764 9.8315486,9.8315486 0 0 1 -0.04496,-0.12816 9.8315486,9.8315486 0 0 1 -0.04289,-0.128675 9.8315486,9.8315486 0 0 1 -0.04134,-0.12919 9.8315486,9.8315486 0 0 1 -0.03927,-0.129707 9.8315486,9.8315486 0 0 1 -0.03772,-0.130225 9.8315486,9.8315486 0 0 1 -0.03566,-0.130742 9.8315486,9.8315486 0 0 1 -0.03411,-0.131257 9.8315486,9.8315486 0 0 1 -0.03204,-0.131776 9.8315486,9.8315486 0 0 1 -0.03049,-0.132291 9.8315486,9.8315486 0 0 1 -0.02842,-0.132292 9.8315486,9.8315486 0 0 1 -0.02687,-0.133326 9.8315486,9.8315486 0 0 1 -0.02479,-0.133324 9.8315486,9.8315486 0 0 1 -0.02273,-0.133326 9.8315486,9.8315486 0 0 1 -0.02119,-0.134358 9.8315486,9.8315486 0 0 1 -0.01963,-0.133842 9.8315486,9.8315486 0 0 1 -0.01757,-0.134877 9.8315486,9.8315486 0 0 1 -0.01551,-0.134358 9.8315486,9.8315486 0 0 1 -0.01344,-0.134874 9.8315486,9.8315486 0 0 1 -0.01188,-0.135392 9.8315486,9.8315486 0 0 1 -0.01035,-0.135393 9.8315486,9.8315486 0 0 1 -0.0083,-0.135392 9.8315486,9.8315486 0 0 1 -0.0062,-0.135393 9.8315486,9.8315486 0 0 1 -0.0041,-0.135393 9.8315486,9.8315486 0 0 1 -0.0026,-0.135392 9.8315486,9.8315486 0 0 1 -0.0011,-0.118338 9.8315486,9.8315486 0 0 1 0.0011,-0.135392 9.8315486,9.8315486 0 0 1 0.0026,-0.135393 9.8315486,9.8315486 0 0 1 0.0052,-0.135908 9.8315486,9.8315486 0 0 1 0.0062,-0.135393 9.8315486,9.8315486 0 0 1 0.0083,-0.135393 9.8315486,9.8315486 0 0 1 0.01035,-0.134876 9.8315486,9.8315486 0 0 1 0.01241,-0.13539 9.8315486,9.8315486 0 0 1 0.01394,-0.134877 9.8315486,9.8315486 0 0 1 0.01601,-0.134876 9.8315486,9.8315486 0 0 1 0.01757,-0.134359 9.8315486,9.8315486 0 0 1 0.01963,-0.133842 9.8315486,9.8315486 0 0 1 0.02119,-0.134358 9.8315486,9.8315486 0 0 1 0.02326,-0.133326 9.8315486,9.8315486 0 0 1 0.02532,-0.133323 9.8315486,9.8315486 0 0 1 0.02687,-0.132811 9.8315486,9.8315486 0 0 1 0.02894,-0.132807 9.8315486,9.8315486 0 0 1 0.03049,-0.131776 9.8315486,9.8315486 0 0 1 0.03256,-0.131773 9.8315486,9.8315486 0 0 1 0.03411,-0.13126 9.8315486,9.8315486 0 0 1 0.03617,-0.130741 9.8315486,9.8315486 0 0 1 0.03772,-0.130223 9.8315486,9.8315486 0 0 1 0.03979,-0.129709 9.8315486,9.8315486 0 0 1 0.04134,-0.129191 9.8315486,9.8315486 0 0 1 0.04289,-0.128675 9.8315486,9.8315486 0 0 1 0.04496,-0.12764 9.8315486,9.8315486 0 0 1 0.04703,-0.12764 9.8315486,9.8315486 0 0 1 0.04857,-0.126609 9.8315486,9.8315486 0 0 1 0.05013,-0.126089 9.8315486,9.8315486 0 0 1 0.05168,-0.125057 9.8315486,9.8315486 0 0 1 0.05374,-0.124541 9.8315486,9.8315486 0 0 1 0.0553,-0.124023 9.8315486,9.8315486 0 0 1 0.05736,-0.12299 9.8315486,9.8315486 0 0 1 0.05891,-0.121956 9.8315486,9.8315486 0 0 1 0.06046,-0.12144 9.8315486,9.8315486 0 0 1 0.06201,-0.120923 9.8315486,9.8315486 0 0 1 0.06356,-0.119372 9.8315486,9.8315486 0 0 1 0.06563,-0.118856 9.8315486,9.8315486 0 0 1 0.06718,-0.117822 9.8315486,9.8315486 0 0 1 0.06873,-0.116789 9.8315486,9.8315486 0 0 1 0.07028,-0.116272 9.8315486,9.8315486 0 0 1 0.07183,-0.114722 9.8315486,9.8315486 0 0 1 0.07338,-0.114205 9.8315486,9.8315486 0 0 1 0.07493,-0.113171 9.8315486,9.8315486 0 0 1 0.07648,-0.111621 9.8315486,9.8315486 0 0 1 0.07855,-0.111104 9.8315486,9.8315486 0 0 1 0.07958,-0.109555 9.8315486,9.8315486 0 0 1 0.08113,-0.10852 9.8315486,9.8315486 0 0 1 0.08268,-0.107487 9.8315486,9.8315486 0 0 1 0.08423,-0.106454 9.8315486,9.8315486 0 0 1 0.08527,-0.105419 9.8315486,9.8315486 0 0 1 0.08733,-0.10387 9.8315486,9.8315486 0 0 1 0.08837,-0.102836 9.8315486,9.8315486 0 0 1 0.08992,-0.101803 9.8315486,9.8315486 0 0 1 0.09095,-0.100252 9.8315486,9.8315486 0 0 1 0.0925,-0.09922 9.8315486,9.8315486 0 0 1 0.09405,-0.09767 9.8315486,9.8315486 0 0 1 0.0956,-0.09664 9.8315486,9.8315486 0 0 1 0.09663,-0.09508 9.8315486,9.8315486 0 0 1 0.09767,-0.09353 9.8315486,9.8315486 0 0 1 0.09922,-0.0925 9.8315486,9.8315486 0 0 1 0.100769,-0.09095 9.8315486,9.8315486 0 0 1 0.101804,-0.08992 9.8315486,9.8315486 0 0 1 0.102835,-0.08837 9.8315486,9.8315486 0 0 1 0.104386,-0.08682 9.8315486,9.8315486 0 0 1 0.104905,-0.08527 9.8315486,9.8315486 0 0 1 0.106968,-0.08372 9.8315486,9.8315486 0 0 1 0.107487,-0.08268 9.8315486,9.8315486 0 0 1 0.109038,-0.08113 9.8315486,9.8315486 0 0 1 0.109556,-0.07906 9.8315486,9.8315486 0 0 1 0.111104,-0.07803 9.8315486,9.8315486 0 0 1 0.112138,-0.07648 9.8315486,9.8315486 0 0 1 0.11317,-0.07493 9.8315486,9.8315486 0 0 1 0.114205,-0.07286 9.8315486,9.8315486 0 0 1 0.114721,-0.07183 9.8315486,9.8315486 0 0 1 0.116274,-0.07028 9.8315486,9.8315486 0 0 1 0.117305,-0.06821 9.8315486,9.8315486 0 0 1 0.117822,-0.06718 9.8315486,9.8315486 0 0 1 0.118856,-0.06511 9.8315486,9.8315486 0 0 1 0.119888,-0.06356 9.8315486,9.8315486 0 0 1 0.120407,-0.06201 9.8315486,9.8315486 0 0 1 0.121957,-0.05994 9.8315486,9.8315486 0 0 1 0.121957,-0.05891 9.8315486,9.8315486 0 0 1 0.122989,-0.05684 9.8315486,9.8315486 0 0 1 0.124023,-0.05478 9.8315486,9.8315486 0 0 1 0.124539,-0.05374 9.8315486,9.8315486 0 0 1 0.125574,-0.05168 9.8315486,9.8315486 0 0 1 0.12609,-0.05013 9.8315486,9.8315486 0 0 1 0.126609,-0.04806 9.8315486,9.8315486 0 0 1 0.12764,-0.04651 9.8315486,9.8315486 0 0 1 0.128159,-0.04496 9.8315486,9.8315486 0 0 1 0.128156,-0.04289 9.8315486,9.8315486 0 0 1 0.129709,-0.04134 9.8315486,9.8315486 0 0 1 0.129707,-0.03927 9.8315486,9.8315486 0 0 1 0.130225,-0.03772 9.8315486,9.8315486 0 0 1 0.130741,-0.03566 9.8315486,9.8315486 0 0 1 0.131258,-0.03411 9.8315486,9.8315486 0 0 1 0.131775,-0.03204 9.8315486,9.8315486 0 0 1 0.132292,-0.03049 9.8315486,9.8315486 0 0 1 0.132292,-0.02842 9.8315486,9.8315486 0 0 1 0.133326,-0.02687 9.8315486,9.8315486 0 0 1 0.133323,-0.0248 9.8315486,9.8315486 0 0 1 0.133327,-0.02274 9.8315486,9.8315486 0 0 1 0.133842,-0.02119 9.8315486,9.8315486 0 0 1 0.134358,-0.01964 9.8315486,9.8315486 0 0 1 0.134358,-0.01757 9.8315486,9.8315486 0 0 1 0.134876,-0.0155 9.8315486,9.8315486 0 0 1 0.134874,-0.01343 9.8315486,9.8315486 0 0 1 0.135393,-0.01189 9.8315486,9.8315486 0 0 1 0.134877,-0.01033 9.8315486,9.8315486 0 0 1 0.135392,-0.0083 9.8315486,9.8315486 0 0 1 0.135909,-0.0062 9.8315486,9.8315486 0 0 1 0.135392,-0.0041 9.8315486,9.8315486 0 0 1 0.135393,-0.0026 9.8315486,9.8315486 0 0 1 0.117822,-10e-4 9.8315486,9.8315486 0 0 1 0.135908,10e-4 9.8315486,9.8315486 0 0 1 0.135393,0.0026 9.8315486,9.8315486 0 0 1 0.135908,0.0047 9.8315486,9.8315486 0 0 1 0.135393,0.0067 9.8315486,9.8315486 0 0 1 0.135392,0.0083 9.8315486,9.8315486 0 0 1 0.134877,0.01033 9.8315486,9.8315486 0 0 1 0.13539,0.0124 9.8315486,9.8315486 0 0 1 0.134877,0.01395 9.8315486,9.8315486 0 0 1 0.134358,0.01602 9.8315486,9.8315486 0 0 1 0.0036,5.29e-4 24.864681,24.864681 0 0 0 -4.715991,-6.2967727 z" />
    <path
       id="path910"
       style="display:inline;fill:#fffffe;fill-opacity:1;stroke:#000000;stroke-width:0.27064;stroke-opacity:1;paint-order:markers fill stroke"
       d="M 24.981464,0.13548153 A 24.864681,24.864681 0 0 0 7.7065507,7.1350543 H 42.293585 a 24.864681,24.864681 0 0 0 -17.293516,-6.99957277 24.864681,24.864681 0 0 0 -0.0186,0 z" />
    <circle
       style="display:inline;opacity:0.88141;mix-blend-mode:normal;fill:url(#radialGradient1561-9-13);fill-opacity:1;stroke:none;stroke-width:0.212909;stroke-opacity:1;paint-order:markers fill stroke"
       id="path1129-9-1"
       cx="25"
       cy="25"
       r="25" />
    <circle
       style="display:inline;opacity:0.88141;mix-blend-mode:normal;fill:url(#radialGradient1561-45);fill-opacity:1;stroke:none;stroke-width:0.212909;stroke-opacity:1;paint-order:markers fill stroke"
       id="path1129-80"
       cx="25"
       cy="25"
       r="25" />
  </g>
</svg>
