<?xml version="1.0" encoding="UTF-8" standalone="no"?>
<svg
   xmlns:dc="http://purl.org/dc/elements/1.1/"
   xmlns:cc="http://creativecommons.org/ns#"
   xmlns:rdf="http://www.w3.org/1999/02/22-rdf-syntax-ns#"
   xmlns:svg="http://www.w3.org/2000/svg"
   xmlns="http://www.w3.org/2000/svg"
   xmlns:xlink="http://www.w3.org/1999/xlink"
   xmlns:sodipodi="http://sodipodi.sourceforge.net/DTD/sodipodi-0.dtd"
   xmlns:inkscape="http://www.inkscape.org/namespaces/inkscape"
   width="50mm"
   height="50mm"
   viewBox="0 0 50 50"
   version="1.1"
   id="svg8"
   inkscape:version="1.0.1 (3bc2e813f5, 2020-09-07)"
   sodipodi:docname="13-6.svg">
  <defs
     id="defs2">
    <radialGradient
       inkscape:collect="always"
       xlink:href="#linearGradient1135"
       id="radialGradient1561-9-5-3"
       cx="41.903854"
       cy="30.091272"
       fx="41.903854"
       fy="30.091272"
       r="32.127975"
       gradientTransform="matrix(0.77813807,0,0,0.7781381,-46.238373,9.9267266)"
       gradientUnits="userSpaceOnUse" />
    <linearGradient
       inkscape:collect="always"
       id="linearGradient1135">
      <stop
         style="stop-color:#ffffff;stop-opacity:1;"
         offset="0"
         id="stop1131" />
      <stop
         style="stop-color:#ffffff;stop-opacity:0;"
         offset="1"
         id="stop1133" />
    </linearGradient>
    <radialGradient
       inkscape:collect="always"
       xlink:href="#linearGradient1135"
       id="radialGradient1561-9-6"
       cx="54.447247"
       cy="49.531189"
       fx="54.447247"
       fy="49.531189"
       r="32.127975"
       gradientTransform="matrix(0.77813809,0,0,0.77813812,-3.3823641,4.4120854)"
       gradientUnits="userSpaceOnUse" />
    <radialGradient
       inkscape:collect="always"
       xlink:href="#linearGradient1135"
       id="radialGradient1561-8"
       cx="26.274075"
       cy="14.800471"
       fx="26.274075"
       fy="14.800471"
       r="32.127975"
       gradientTransform="matrix(0.77813809,0,0,0.77813812,-2.967181,4.4120854)"
       gradientUnits="userSpaceOnUse" />
  </defs>
  <sodipodi:namedview
     id="base"
     pagecolor="#ffffff"
     bordercolor="#666666"
     borderopacity="1.0"
     inkscape:pageopacity="0.0"
     inkscape:pageshadow="2"
     inkscape:zoom="0.98994949"
     inkscape:cx="2.9247058"
     inkscape:cy="154.89275"
     inkscape:document-units="mm"
     inkscape:current-layer="layer1"
     inkscape:document-rotation="0"
     showgrid="false"
     inkscape:window-width="1920"
     inkscape:window-height="1017"
     inkscape:window-x="-8"
     inkscape:window-y="-8"
     inkscape:window-maximized="1" />
  <metadata
     id="metadata5">
    <rdf:RDF>
      <cc:Work
         rdf:about="">
        <dc:format>image/svg+xml</dc:format>
        <dc:type
           rdf:resource="http://purl.org/dc/dcmitype/StillImage" />
        <dc:title></dc:title>
      </cc:Work>
    </rdf:RDF>
  </metadata>
  <g
     inkscape:label="Layer 1"
     inkscape:groupmode="layer"
     id="layer1">
    <path
       id="path833-58"
       style="display:inline;fill:#ffffff;fill-opacity:1;stroke:#000000;stroke-width:0.27064;stroke-opacity:1;paint-order:markers fill stroke"
       d="m 0.5953578,23.515287 1.220597,0.163814 0.3503665,-0.03359 L 2.5006674,23.394879 2.6345095,23.127714 2.7177075,22.74324 2.6841185,22.40941 2.5843815,22.024938 2.3502888,21.707645 1.899153,21.474068 1.4650697,21.373815 0.8036114,21.468385 a 24.864677,24.864677 0 0 0 -0.105418,0.833025 24.864677,24.864677 0 0 0 -0.034623,0.33383 24.864677,24.864677 0 0 0 -0.03669,0.425812 24.864677,24.864677 0 0 0 -0.031522,0.454237 z" />
    <path
       id="path1653"
       style="display:inline;fill:#ffffff;fill-opacity:1;stroke:#000000;stroke-width:0.27064;stroke-opacity:1;paint-order:markers fill stroke"
       d="m 0.7529701,28.161514 0.5617236,0.244946 h 0.701765 L 2.651046,28.205957 3.0184649,27.905199 3.2355053,27.320221 3.2525713,26.836013 3.0184786,26.334753 2.3838913,25.983871 1.581873,25.950801 0.8470352,26.000931 H 0.5710823 a 24.864677,24.864677 0 0 0 0.011377,0.247531 24.864677,24.864677 0 0 0 0.1121384,1.421099 24.864676,24.864676 0 0 0 0.058393,0.491961 z" />
    <path
       id="path1651"
       style="display:inline;fill:#000000;fill-opacity:1;stroke:#000000;stroke-width:0.27064;stroke-opacity:1;paint-order:markers fill stroke"
       d="m 1.3518994,31.259515 0.012912,0.0031 0.4842087,0.05013 H 2.5673212 L 3.3021591,31.262615 3.9207285,31.0957 4.4886513,30.87866 5.0395218,30.544314 5.4906575,30.076637 5.84154,29.575376 6.0751168,28.9072 6.1588336,28.389403 6.2254954,27.638026 6.1924225,27.120228 6.0249915,26.485125 5.8580764,25.983865 5.5743743,25.499657 5.2570807,25.198899 4.9563235,24.94827 4.5889046,24.647513 4.9563235,24.363808 5.3904042,23.795885 5.6410361,23.177835 5.7748782,22.493122 5.84154,21.807894 5.8079511,21.15677 5.6244996,20.588329 5.3738678,20.070531 4.97286,19.619911 4.3883981,19.202367 3.7031696,18.834432 3.0349934,18.650981 2.0159348,18.550727 1.380313,18.630309 a 24.864676,24.864676 0 0 0 -0.064595,0.248562 24.864676,24.864676 0 0 0 -0.020664,0.0832 24.864676,24.864676 0 0 0 -0.059428,0.241845 24.864677,24.864677 0 0 0 -0.2537327,1.187524 24.864677,24.864677 0 0 0 -0.1436608,0.839743 24.864677,24.864677 0 0 0 -0.034623,0.237194 l 0.6614583,-0.09457 0.4340834,0.100254 0.4511357,0.233576 0.2340928,0.317294 0.099737,0.384471 0.033589,0.33383 -0.083198,0.384474 -0.1338421,0.267166 -0.334346,0.250632 -0.3503666,0.03359 -1.2205969,-0.163814 a 24.864677,24.864677 0 0 0 -0.044961,1.484664 24.864677,24.864677 0 0 0 5.291e-4,0.103352 24.864678,24.864678 0 0 0 0.019632,0.88987 24.864677,24.864677 0 0 0 5.292e-4,0.0078 h 0.275952 l 0.7348379,-0.05013 0.8020182,0.03307 0.6345873,0.350882 0.2340928,0.50126 -0.017066,0.484209 -0.2170403,0.584978 -0.367419,0.300757 -0.6345873,0.200504 H 1.3146964 L 0.7529728,28.161512 a 24.864676,24.864676 0 0 0 0.1777656,1.166852 24.864676,24.864676 0 0 0 0.1235074,0.647507 24.864677,24.864677 0 0 0 0.1343581,0.617532 24.864677,24.864677 0 0 0 0.1632982,0.66611 z" />
    <path
       id="path1649"
       style="display:inline;fill:#ffffff;fill-opacity:1;stroke:#000000;stroke-width:0.27064;stroke-opacity:1;paint-order:markers fill stroke"
       d="m 2.3952468,15.602076 a 24.864676,24.864676 0 0 0 -0.47439,1.258837 24.864676,24.864676 0 0 0 -0.4278815,1.359606 24.864676,24.864676 0 0 0 -0.1126543,0.409795 l 0.6356217,-0.07958 1.0190587,0.100253 0.6681761,0.183451 0.6852285,0.367935 0.5844619,0.417544 0.4010078,0.45062 0.2506319,0.517798 0.1834515,0.568441 0.033589,0.651124 -0.066662,0.685228 -0.1338422,0.684713 -0.2506318,0.618051 -0.4340807,0.567923 -0.367419,0.283704 0.367419,0.300758 0.3007571,0.250629 0.3172937,0.300757 0.2837021,0.484209 0.166915,0.501259 0.167431,0.635104 0.033073,0.517797 -0.066662,0.751377 -0.083717,0.517798 -0.2335768,0.668176 -0.3508825,0.501261 -0.4511357,0.467672 -0.5508704,0.334346 -0.5679229,0.21704 -0.6185693,0.166915 -0.734838,0.05013 h -0.718301 l -0.4842087,-0.05013 -0.012912,-0.0031 a 24.864677,24.864677 0 0 0 0.02585,0.09974 24.864677,24.864677 0 0 0 0.00516,0.01913 24.864677,24.864677 0 0 0 0.032554,0.121442 24.864676,24.864676 0 0 0 0.8878014,2.669603 9.8315486,9.8315486 0 0 0 0.1178243,-0.04134 9.8315486,9.8315486 0 0 0 0.1276403,-0.04599 9.8315486,9.8315486 0 0 0 0.1266058,-0.04857 9.8315486,9.8315486 0 0 0 0.1260925,-0.05013 9.8315486,9.8315486 0 0 0 0.1250553,-0.05168 9.8315486,9.8315486 0 0 0 0.1250579,-0.05323 9.8315486,9.8315486 0 0 0 0.1235075,-0.05529 9.8315486,9.8315486 0 0 0 0.1235049,-0.05685 9.8315486,9.8315486 0 0 0 0.121957,-0.05839 9.8315486,9.8315486 0 0 0 0.1214385,-0.06046 9.8315486,9.8315486 0 0 0 0.1209251,-0.06201 9.8315486,9.8315486 0 0 0 0.119888,-0.06356 9.8315486,9.8315486 0 0 0 0.1188562,-0.06511 9.8315486,9.8315486 0 0 0 0.1178216,-0.06666 9.8315486,9.8315486 0 0 0 0.1173056,-0.06873 9.8315486,9.8315486 0 0 0 0.1157553,-0.06976 9.8315486,9.8315486 0 0 0 0.1152392,-0.07183 9.8315486,9.8315486 0 0 0 0.1142048,-0.07338 9.8315486,9.8315486 0 0 0 0.1131702,-0.07493 9.8315486,9.8315486 0 0 0 0.1121384,-0.07648 9.8315486,9.8315486 0 0 0 0.1111038,-0.07751 9.8315486,9.8315486 0 0 0 0.109556,-0.07958 9.8315486,9.8315486 0 0 0 0.1090348,-0.08113 9.8315486,9.8315486 0 0 0 0.1074896,-0.08216 9.8315486,9.8315486 0 0 0 0.1064525,-0.08423 9.8315486,9.8315486 0 0 0 0.1054206,-0.08527 9.8315486,9.8315486 0 0 0 0.104386,-0.08682 9.8315486,9.8315486 0 0 0 0.1028356,-0.08837 9.8315486,9.8315486 0 0 0 0.1018011,-0.0894 9.8315486,9.8315486 0 0 0 0.1007692,-0.09147 9.8315486,9.8315486 0 0 0 0.099219,-0.09198 9.8315486,9.8315486 0 0 0 0.097668,-0.09405 9.8315486,9.8315486 0 0 0 0.096636,-0.09508 9.8315486,9.8315486 0 0 0 0.095602,-0.09663 9.8315486,9.8315486 0 0 0 0.093533,-0.09767 9.8315486,9.8315486 0 0 0 0.09302,-0.09922 9.8315486,9.8315486 0 0 0 0.09095,-0.100253 A 9.8315486,9.8315486 0 0 0 6.522654,31.332943 9.8315486,9.8315486 0 0 0 6.61102,31.230105 9.8315486,9.8315486 0 0 0 6.698354,31.125719 9.8315486,9.8315486 0 0 0 6.783621,31.020817 9.8315486,9.8315486 0 0 0 6.867854,30.914362 9.8315486,9.8315486 0 0 0 6.950536,30.806878 9.8315486,9.8315486 0 0 0 7.031668,30.69784 9.8315486,9.8315486 0 0 0 7.111249,30.588284 9.8315486,9.8315486 0 0 0 7.18928,30.477696 9.8315486,9.8315486 0 0 0 7.266279,30.365561 9.8315486,9.8315486 0 0 0 7.341209,30.252388 9.8315486,9.8315486 0 0 0 7.414588,30.138699 9.8315486,9.8315486 0 0 0 7.48642,30.023462 9.8315486,9.8315486 0 0 0 7.556699,29.907707 9.8315486,9.8315486 0 0 0 7.62543,29.790401 9.8315486,9.8315486 0 0 0 7.692608,29.67258 a 9.8315486,9.8315486 0 0 0 0.065114,-0.118856 9.8315486,9.8315486 0 0 0 0.064079,-0.119372 9.8315486,9.8315486 0 0 0 0.06201,-0.120407 9.8315486,9.8315486 0 0 0 0.060463,-0.121441 9.8315486,9.8315486 0 0 0 0.058909,-0.122473 9.8315486,9.8315486 0 0 0 0.056846,-0.122989 9.8315486,9.8315486 0 0 0 0.055809,-0.123507 9.8315486,9.8315486 0 0 0 0.053229,-0.12454 9.8315486,9.8315486 0 0 0 0.052192,-0.125574 9.8315486,9.8315486 0 0 0 0.050125,-0.12609 9.8315486,9.8315486 0 0 0 0.048578,-0.126608 9.8315486,9.8315486 0 0 0 0.046508,-0.127124 9.8315486,9.8315486 0 0 0 0.044958,-0.128157 9.8315486,9.8315486 0 0 0 0.043408,-0.128674 9.8315486,9.8315486 0 0 0 0.041341,-0.128675 9.8315486,9.8315486 0 0 0 0.039791,-0.129707 9.8315486,9.8315486 0 0 0 0.037724,-0.130225 9.8315486,9.8315486 0 0 0 0.036174,-0.130741 9.8315486,9.8315486 0 0 0 0.034108,-0.13126 9.8315486,9.8315486 0 0 0 0.032554,-0.131773 9.8315486,9.8315486 0 0 0 0.030491,-0.132292 9.8315486,9.8315486 0 0 0 0.028937,-0.132292 9.8315486,9.8315486 0 0 0 0.026874,-0.133326 9.8315486,9.8315486 0 0 0 0.024791,-0.133323 9.8315486,9.8315486 0 0 0 0.02376,-0.133326 9.8315486,9.8315486 0 0 0 0.021193,-0.133841 9.8315486,9.8315486 0 0 0 0.019632,-0.134358 9.8315486,9.8315486 0 0 0 0.017568,-0.134361 9.8315486,9.8315486 0 0 0 0.016007,-0.134874 9.8315486,9.8315486 0 0 0 0.013943,-0.134877 9.8315486,9.8315486 0 0 0 0.01188,-0.134874 9.8315486,9.8315486 0 0 0 0.010345,-0.135392 9.8315486,9.8315486 0 0 0 0.00878,-0.135393 9.8315486,9.8315486 0 0 0 0.00619,-0.135392 9.8315486,9.8315486 0 0 0 0.00466,-0.135393 9.8315486,9.8315486 0 0 0 0.0031,-0.135908 9.8315486,9.8315486 0 0 0 0.00106,-0.135393 A 9.8315486,9.8315486 0 0 0 8.944679,24.75195 9.8315486,9.8315486 0 0 0 8.942029,24.616042 9.8315486,9.8315486 0 0 0 8.937899,24.480649 9.8315486,9.8315486 0 0 0 8.931709,24.345257 9.8315486,9.8315486 0 0 0 8.923449,24.209864 9.8315486,9.8315486 0 0 0 8.913104,24.074471 9.8315486,9.8315486 0 0 0 8.901224,23.939597 9.8315486,9.8315486 0 0 0 8.8877911,23.804691 9.8315486,9.8315486 0 0 0 8.8717838,23.669817 9.8315486,9.8315486 0 0 0 8.8547182,23.535456 9.8315486,9.8315486 0 0 0 8.8350861,23.401098 9.8315486,9.8315486 0 0 0 8.813893,23.267256 9.8315486,9.8315486 0 0 0 8.7911653,23.133414 9.8315486,9.8315486 0 0 0 8.7658446,23.00009 9.8315486,9.8315486 0 0 0 8.7394921,22.86728 9.8315486,9.8315486 0 0 0 8.7110679,22.734472 9.8315486,9.8315486 0 0 0 8.68058,22.602181 9.8315486,9.8315486 0 0 0 8.6485416,22.470924 9.8315486,9.8315486 0 0 0 8.6144342,22.339148 9.8315486,9.8315486 0 0 0 8.5782603,22.208407 9.8315486,9.8315486 0 0 0 8.5410546,22.078181 9.8315486,9.8315486 0 0 0 8.5012639,21.948475 9.8315486,9.8315486 0 0 0 8.4604387,21.819281 9.8315486,9.8315486 0 0 0 8.4175471,21.690609 9.8315486,9.8315486 0 0 0 8.3725891,21.56245 9.8315486,9.8315486 0 0 0 8.3260807,21.435326 9.8315486,9.8315486 0 0 0 8.2780191,21.308202 9.8315486,9.8315486 0 0 0 8.2278938,21.18263 9.8315486,9.8315486 0 0 0 8.176218,21.057056 9.8315486,9.8315486 0 0 0 8.1224732,20.932514 9.8315486,9.8315486 0 0 0 8.0676965,20.808491 9.8315486,9.8315486 0 0 0 8.0103375,20.685502 9.8315486,9.8315486 0 0 0 7.9519413,20.563029 9.8315486,9.8315486 0 0 0 7.8919973,20.441588 9.8315486,9.8315486 0 0 0 7.8299873,20.320665 9.8315486,9.8315486 0 0 0 7.7664243,20.201293 9.8315486,9.8315486 0 0 0 7.7007943,20.081921 9.8315486,9.8315486 0 0 0 7.6341323,19.9641 9.8315486,9.8315486 0 0 0 7.5659203,19.84731 9.8315486,9.8315486 0 0 0 7.4956393,19.731039 9.8315486,9.8315486 0 0 0 7.4238103,19.6158 a 9.8315486,9.8315486 0 0 0 -0.07338,-0.114205 9.8315486,9.8315486 0 0 0 -0.074414,-0.113173 9.8315486,9.8315486 0 0 0 -0.076483,-0.11162 9.8315486,9.8315486 0 0 0 -0.078031,-0.111104 9.8315486,9.8315486 0 0 0 -0.079581,-0.110072 9.8315486,9.8315486 0 0 0 -0.080616,-0.109037 9.8315486,9.8315486 0 0 0 -0.082682,-0.107487 9.8315486,9.8315486 0 0 0 -0.083714,-0.106453 9.8315486,9.8315486 0 0 0 -0.085783,-0.10542 9.8315486,9.8315486 0 0 0 -0.086818,-0.104386 9.8315486,9.8315486 0 0 0 -0.08785,-0.102836 9.8315486,9.8315486 0 0 0 -0.089916,-0.101803 9.8315486,9.8315486 0 0 0 -0.09095,-0.100251 9.8315486,9.8315486 0 0 0 -0.092501,-0.09922 9.8315486,9.8315486 0 0 0 -0.094051,-0.09819 9.8315486,9.8315486 0 0 0 -0.095086,-0.09663 9.8315486,9.8315486 0 0 0 -0.096118,-0.09508 9.8315486,9.8315486 0 0 0 -0.098184,-0.09405 9.8315486,9.8315486 0 0 0 -0.098703,-0.0925 9.8315486,9.8315486 0 0 0 -0.1002506,-0.09147 9.8315486,9.8315486 0 0 0 -0.1018037,-0.08992 9.8315486,9.8315486 0 0 0 -0.1028356,-0.08837 9.8315486,9.8315486 0 0 0 -0.1038702,-0.08681 9.8315486,9.8315486 0 0 0 -0.1054206,-0.08578 9.8315486,9.8315486 0 0 0 -0.1064524,-0.08423 9.8315486,9.8315486 0 0 0 -0.107487,-0.08268 9.8315486,9.8315486 0 0 0 -0.1085215,-0.08113 9.8315486,9.8315486 0 0 0 -0.1095534,-0.07958 9.8315486,9.8315486 0 0 0 -0.1111038,-0.07803 9.8315486,9.8315486 0 0 0 -0.1121384,-0.07648 9.8315486,9.8315486 0 0 0 -0.1126542,-0.07493 9.8315486,9.8315486 0 0 0 -0.1142048,-0.0739 9.8315486,9.8315486 0 0 0 -0.1147207,-0.07183 9.8315486,9.8315486 0 0 0 -0.1162738,-0.07028 9.8315486,9.8315486 0 0 0 -0.1167871,-0.06873 9.8315486,9.8315486 0 0 0 -0.1178242,-0.06666 9.8315486,9.8315486 0 0 0 -0.1188561,-0.06563 9.8315486,9.8315486 0 0 0 -0.119888,-0.06408 9.8315486,9.8315486 0 0 0 -0.1204066,-0.06201 9.8315486,9.8315486 0 0 0 -0.1214385,-0.06046 9.8315486,9.8315486 0 0 0 -0.121957,-0.05891 9.8315486,9.8315486 0 0 0 -0.1229889,-0.05685 9.8315486,9.8315486 0 0 0 -0.1240235,-0.05529 9.8315486,9.8315486 0 0 0 -0.124542,-0.05374 9.8315486,9.8315486 0 0 0 -0.1250553,-0.05219 9.8315486,9.8315486 0 0 0 -0.1260925,-0.05013 9.8315486,9.8315486 0 0 0 -0.1266058,-0.04857 9.8315486,9.8315486 0 0 0 -0.1276403,-0.04651 9.8315486,9.8315486 0 0 0 -0.042376,-0.01498 z" />
    <path
       id="path1141"
       style="display:inline;fill:#ffffff;fill-opacity:1;stroke:#000000;stroke-width:0.27064;stroke-opacity:1;paint-order:markers fill stroke"
       d="M 42.680125,42.893432 H 8.1504503 a 24.864681,24.864681 0 0 0 17.2645807,6.971665 24.864681,24.864681 0 0 0 17.265094,-6.971665 z" />
    <path
       id="path987"
       style="display:inline;fill:#fd682b;fill-opacity:1;stroke:#000000;stroke-width:0.27064;stroke-opacity:1;paint-order:markers fill stroke"
       d="M 42.678059,7.1054372 H 8.1520007 a 24.864681,24.864681 0 0 0 -5.7567539,8.4966388 9.8315486,9.8315486 0 0 1 0.042376,0.01497 9.8315486,9.8315486 0 0 1 0.1276403,0.04651 9.8315486,9.8315486 0 0 1 0.1266059,0.04857 9.8315486,9.8315486 0 0 1 0.1260924,0.05013 9.8315486,9.8315486 0 0 1 0.1250553,0.05219 9.8315486,9.8315486 0 0 1 0.1245421,0.05375 9.8315486,9.8315486 0 0 1 0.1240234,0.05529 9.8315486,9.8315486 0 0 1 0.1229889,0.05685 9.8315486,9.8315486 0 0 1 0.1219571,0.05891 9.8315486,9.8315486 0 0 1 0.1214384,0.06046 9.8315486,9.8315486 0 0 1 0.1204066,0.06201 9.8315486,9.8315486 0 0 1 0.119888,0.06408 9.8315486,9.8315486 0 0 1 0.1188561,0.06563 9.8315486,9.8315486 0 0 1 0.1178243,0.06666 9.8315486,9.8315486 0 0 1 0.1167871,0.06873 9.8315486,9.8315486 0 0 1 0.1162738,0.07028 9.8315486,9.8315486 0 0 1 0.1147206,0.07183 9.8315486,9.8315486 0 0 1 0.1142048,0.0739 9.8315486,9.8315486 0 0 1 0.1126543,0.07493 9.8315486,9.8315486 0 0 1 0.1121383,0.07648 9.8315486,9.8315486 0 0 1 0.1111039,0.07803 9.8315486,9.8315486 0 0 1 0.1095533,0.07958 9.8315486,9.8315486 0 0 1 0.1085215,0.08113 9.8315486,9.8315486 0 0 1 0.107487,0.08268 9.8315486,9.8315486 0 0 1 0.1064525,0.08423 9.8315486,9.8315486 0 0 1 0.1054206,0.08578 9.8315486,9.8315486 0 0 1 0.1038701,0.08682 9.8315486,9.8315486 0 0 1 0.1028356,0.08837 9.8315486,9.8315486 0 0 1 0.1018037,0.08992 9.8315486,9.8315486 0 0 1 0.1002506,0.09147 9.8315486,9.8315486 0 0 1 0.098703,0.0925 9.8315486,9.8315486 0 0 1 0.098184,0.09405 9.8315486,9.8315486 0 0 1 0.096118,0.09509 9.8315486,9.8315486 0 0 1 0.095086,0.09663 9.8315486,9.8315486 0 0 1 0.094051,0.09819 9.8315486,9.8315486 0 0 1 0.092501,0.09922 9.8315486,9.8315486 0 0 1 0.09095,0.100251 9.8315486,9.8315486 0 0 1 0.089916,0.101804 9.8315486,9.8315486 0 0 1 0.08785,0.102835 9.8315486,9.8315486 0 0 1 0.086818,0.104386 9.8315486,9.8315486 0 0 1 0.085783,0.105421 9.8315486,9.8315486 0 0 1 0.083714,0.106452 9.8315486,9.8315486 0 0 1 0.082682,0.107487 9.8315486,9.8315486 0 0 1 0.080616,0.109038 9.8315486,9.8315486 0 0 1 0.079581,0.110072 9.8315486,9.8315486 0 0 1 0.078031,0.111104 9.8315486,9.8315486 0 0 1 0.076483,0.111619 9.8315486,9.8315486 0 0 1 0.074414,0.113173 9.8315486,9.8315486 0 0 1 0.073379,0.114205 9.8315486,9.8315486 0 0 1 0.071829,0.115239 9.8315486,9.8315486 0 0 1 0.070281,0.116272 9.8315486,9.8315486 0 0 1 0.068212,0.116789 9.8315486,9.8315486 0 0 1 0.066662,0.117822 9.8315486,9.8315486 0 0 1 0.06563,0.119372 9.8315486,9.8315486 0 0 1 0.063563,0.119372 9.8315486,9.8315486 0 0 1 0.06201,0.120922 9.8315486,9.8315486 0 0 1 0.059944,0.121442 9.8315486,9.8315486 0 0 1 0.058396,0.122473 9.8315486,9.8315486 0 0 1 0.057359,0.122988 9.8315486,9.8315486 0 0 1 0.054777,0.124024 9.8315486,9.8315486 0 0 1 0.053745,0.124542 9.8315486,9.8315486 0 0 1 0.051676,0.125574 9.8315486,9.8315486 0 0 1 0.050125,0.125571 9.8315486,9.8315486 0 0 1 0.048062,0.127124 9.8315486,9.8315486 0 0 1 0.046508,0.127125 9.8315486,9.8315486 0 0 1 0.044958,0.128159 9.8315486,9.8315486 0 0 1 0.042892,0.128672 9.8315486,9.8315486 0 0 1 0.040825,0.129193 9.8315486,9.8315486 0 0 1 0.039791,0.129707 9.8315486,9.8315486 0 0 1 0.037206,0.130225 9.8315486,9.8315486 0 0 1 0.036174,0.130741 9.8315486,9.8315486 0 0 1 0.034107,0.131776 9.8315486,9.8315486 0 0 1 0.032038,0.131257 9.8315486,9.8315486 0 0 1 0.030488,0.132292 9.8315486,9.8315486 0 0 1 0.028424,0.132808 9.8315486,9.8315486 0 0 1 0.026353,0.13281 9.8315486,9.8315486 0 0 1 0.025321,0.133323 9.8315486,9.8315486 0 0 1 0.022728,0.133842 9.8315486,9.8315486 0 0 1 0.021193,0.133843 9.8315486,9.8315486 0 0 1 0.019632,0.134358 9.8315486,9.8315486 0 0 1 0.017066,0.13436 9.8315486,9.8315486 0 0 1 0.016007,0.134874 9.8315486,9.8315486 0 0 1 0.013441,0.134877 9.8315486,9.8315486 0 0 1 0.01188,0.134874 9.8315486,9.8315486 0 0 1 0.010345,0.135393 9.8315486,9.8315486 0 0 1 0.00826,0.135392 9.8315486,9.8315486 0 0 1 0.00619,0.135393 9.8315486,9.8315486 0 0 1 0.00413,0.135392 9.8315486,9.8315486 0 0 1 0.00265,0.135909 9.8315486,9.8315486 0 0 1 0.00106,0.117821 9.8315486,9.8315486 0 0 1 -0.00106,0.135393 9.8315486,9.8315486 0 0 1 -0.0031,0.135909 9.8315486,9.8315486 0 0 1 -0.00466,0.135392 9.8315486,9.8315486 0 0 1 -0.00619,0.135393 9.8315486,9.8315486 0 0 1 -0.00878,0.135392 9.8315486,9.8315486 0 0 1 -0.010345,0.135393 9.8315486,9.8315486 0 0 1 -0.01188,0.134874 9.8315486,9.8315486 0 0 1 -0.013943,0.134877 9.8315486,9.8315486 0 0 1 -0.016007,0.134874 9.8315486,9.8315486 0 0 1 -0.017568,0.13436 9.8315486,9.8315486 0 0 1 -0.019632,0.134358 9.8315486,9.8315486 0 0 1 -0.021193,0.133841 9.8315486,9.8315486 0 0 1 -0.02376,0.133326 9.8315486,9.8315486 0 0 1 -0.024791,0.133324 9.8315486,9.8315486 0 0 1 -0.026874,0.133326 9.8315486,9.8315486 0 0 1 -0.028938,0.132292 9.8315486,9.8315486 0 0 1 -0.030491,0.132291 9.8315486,9.8315486 0 0 1 -0.032554,0.131773 9.8315486,9.8315486 0 0 1 -0.034107,0.13126 9.8315486,9.8315486 0 0 1 -0.036174,0.130741 9.8315486,9.8315486 0 0 1 -0.037724,0.130226 9.8315486,9.8315486 0 0 1 -0.039791,0.129706 9.8315486,9.8315486 0 0 1 -0.041341,0.128675 9.8315486,9.8315486 0 0 1 -0.043408,0.128675 9.8315486,9.8315486 0 0 1 -0.044958,0.128156 9.8315486,9.8315486 0 0 1 -0.046508,0.127125 9.8315486,9.8315486 0 0 1 -0.048578,0.126608 9.8315486,9.8315486 0 0 1 -0.050125,0.12609 9.8315486,9.8315486 0 0 1 -0.052192,0.125574 9.8315486,9.8315486 0 0 1 -0.053229,0.124539 9.8315486,9.8315486 0 0 1 -0.055809,0.123508 9.8315486,9.8315486 0 0 1 -0.056846,0.122989 9.8315486,9.8315486 0 0 1 -0.05891,0.122473 9.8315486,9.8315486 0 0 1 -0.060462,0.121441 9.8315486,9.8315486 0 0 1 -0.06201,0.120406 9.8315486,9.8315486 0 0 1 -0.06408,0.119372 9.8315486,9.8315486 0 0 1 -0.065114,0.118856 9.8315486,9.8315486 0 0 1 -0.067178,0.117822 9.8315486,9.8315486 0 0 1 -0.068731,0.117306 9.8315486,9.8315486 0 0 1 -0.070279,0.115755 9.8315486,9.8315486 0 0 1 -0.071832,0.115237 9.8315486,9.8315486 0 0 1 -0.07338,0.113688 9.8315486,9.8315486 0 0 1 -0.07493,0.113173 9.8315486,9.8315486 0 0 1 -0.076999,0.112136 9.8315486,9.8315486 0 0 1 -0.078031,0.110588 9.8315486,9.8315486 0 0 1 -0.079581,0.109556 9.8315486,9.8315486 0 0 1 -0.081132,0.109037 9.8315486,9.8315486 0 0 1 -0.082682,0.107485 9.8315486,9.8315486 0 0 1 -0.084233,0.106455 9.8315486,9.8315486 0 0 1 -0.085267,0.104902 9.8315486,9.8315486 0 0 1 -0.087334,0.104386 9.8315486,9.8315486 0 0 1 -0.088366,0.102838 9.8315486,9.8315486 0 0 1 -0.089916,0.101285 9.8315486,9.8315486 0 0 1 -0.090951,0.100253 9.8315486,9.8315486 0 0 1 -0.09302,0.09922 9.8315486,9.8315486 0 0 1 -0.093533,0.09767 9.8315486,9.8315486 0 0 1 -0.095602,0.09663 9.8315486,9.8315486 0 0 1 -0.096636,0.09508 9.8315486,9.8315486 0 0 1 -0.097668,0.09405 9.8315486,9.8315486 0 0 1 -0.099219,0.09199 9.8315486,9.8315486 0 0 1 -0.1007692,0.09147 9.8315486,9.8315486 0 0 1 -0.1018011,0.0894 9.8315486,9.8315486 0 0 1 -0.1028356,0.08837 9.8315486,9.8315486 0 0 1 -0.1043861,0.08682 9.8315486,9.8315486 0 0 1 -0.1054206,0.08527 9.8315486,9.8315486 0 0 1 -0.1064524,0.08423 9.8315486,9.8315486 0 0 1 -0.1074897,0.08216 9.8315486,9.8315486 0 0 1 -0.1090348,0.08113 9.8315486,9.8315486 0 0 1 -0.109556,0.07958 9.8315486,9.8315486 0 0 1 -0.1111038,0.07751 9.8315486,9.8315486 0 0 1 -0.1121384,0.07648 9.8315486,9.8315486 0 0 1 -0.1131702,0.07493 9.8315486,9.8315486 0 0 1 -0.1142047,0.07338 9.8315486,9.8315486 0 0 1 -0.1152393,0.07183 9.8315486,9.8315486 0 0 1 -0.1157552,0.06976 9.8315486,9.8315486 0 0 1 -0.1173057,0.06873 9.8315486,9.8315486 0 0 1 -0.1178216,0.06666 9.8315486,9.8315486 0 0 1 -0.1188561,0.06511 9.8315486,9.8315486 0 0 1 -0.119888,0.06356 9.8315486,9.8315486 0 0 1 -0.1209252,0.06201 9.8315486,9.8315486 0 0 1 -0.1214384,0.06046 9.8315486,9.8315486 0 0 1 -0.1219571,0.05839 9.8315486,9.8315486 0 0 1 -0.1235048,0.05685 9.8315486,9.8315486 0 0 1 -0.1235075,0.05529 9.8315486,9.8315486 0 0 1 -0.125058,0.05323 9.8315486,9.8315486 0 0 1 -0.1250553,0.05168 9.8315486,9.8315486 0 0 1 -0.1260925,0.05013 9.8315486,9.8315486 0 0 1 -0.1266058,0.04857 9.8315486,9.8315486 0 0 1 -0.1276403,0.04599 9.8315486,9.8315486 0 0 1 -0.1178243,0.04134 24.864681,24.864681 0 0 0 5.8471886,8.724016 H 42.680207 A 24.864681,24.864681 0 0 0 50.279744,24.999941 24.864681,24.864681 0 0 0 42.678141,7.1054266 Z" />
    <path
       id="path985"
       style="display:inline;fill:#ffffff;fill-opacity:1;stroke:#000000;stroke-width:0.27064;stroke-opacity:1;paint-order:markers fill stroke"
       d="M 25.396426,0.13531999 A 24.864681,24.864681 0 0 0 8.1520007,7.1054372 H 42.678059 a 24.864681,24.864681 0 0 0 -17.263028,-6.97011721 24.864681,24.864681 0 0 0 -0.0186,0 z" />
    <circle
       style="display:inline;opacity:0.88141;mix-blend-mode:normal;fill:url(#radialGradient1561-9-6);fill-opacity:1;stroke:none;stroke-width:0.212909;stroke-opacity:1;paint-order:markers fill stroke"
       id="path1129-9-74"
       cx="25"
       cy="25.000324"
       r="25" />
    <circle
       style="display:inline;opacity:0.88141;mix-blend-mode:normal;fill:url(#radialGradient1561-8);fill-opacity:1;stroke:none;stroke-width:0.212909;stroke-opacity:1;paint-order:markers fill stroke"
       id="path1129-2"
       cx="25.415184"
       cy="25.000324"
       r="25" />
  </g>
</svg>
