<?xml version="1.0" encoding="UTF-8" standalone="no"?>
<svg
   xmlns:dc="http://purl.org/dc/elements/1.1/"
   xmlns:cc="http://creativecommons.org/ns#"
   xmlns:rdf="http://www.w3.org/1999/02/22-rdf-syntax-ns#"
   xmlns:svg="http://www.w3.org/2000/svg"
   xmlns="http://www.w3.org/2000/svg"
   xmlns:xlink="http://www.w3.org/1999/xlink"
   xmlns:sodipodi="http://sodipodi.sourceforge.net/DTD/sodipodi-0.dtd"
   xmlns:inkscape="http://www.inkscape.org/namespaces/inkscape"
   width="50mm"
   height="50mm"
   viewBox="0 0 50 50"
   version="1.1"
   id="svg8"
   inkscape:version="1.0.1 (3bc2e813f5, 2020-09-07)"
   sodipodi:docname="13-7.svg">
  <defs
     id="defs2">
    <radialGradient
       inkscape:collect="always"
       xlink:href="#linearGradient1135"
       id="radialGradient1561-9-5-3"
       cx="41.903854"
       cy="30.091272"
       fx="41.903854"
       fy="30.091272"
       r="32.127975"
       gradientTransform="matrix(0.77813807,0,0,0.7781381,-46.238373,9.9267266)"
       gradientUnits="userSpaceOnUse" />
    <linearGradient
       inkscape:collect="always"
       id="linearGradient1135">
      <stop
         style="stop-color:#ffffff;stop-opacity:1;"
         offset="0"
         id="stop1131" />
      <stop
         style="stop-color:#ffffff;stop-opacity:0;"
         offset="1"
         id="stop1133" />
    </linearGradient>
    <radialGradient
       inkscape:collect="always"
       xlink:href="#linearGradient1135"
       id="radialGradient1561-9-67"
       cx="54.447247"
       cy="49.531189"
       fx="54.447247"
       fy="49.531189"
       r="32.127975"
       gradientTransform="matrix(0.77813809,0,0,0.77813812,-3.3823603,4.4117557)"
       gradientUnits="userSpaceOnUse" />
    <radialGradient
       inkscape:collect="always"
       xlink:href="#linearGradient1135"
       id="radialGradient1561-637"
       cx="26.274075"
       cy="14.800471"
       fx="26.274075"
       fy="14.800471"
       r="32.127975"
       gradientTransform="matrix(0.77813809,0,0,0.77813812,-3.3823616,4.4117563)"
       gradientUnits="userSpaceOnUse" />
  </defs>
  <sodipodi:namedview
     id="base"
     pagecolor="#ffffff"
     bordercolor="#666666"
     borderopacity="1.0"
     inkscape:pageopacity="0.0"
     inkscape:pageshadow="2"
     inkscape:zoom="0.98994949"
     inkscape:cx="2.9247058"
     inkscape:cy="154.89275"
     inkscape:document-units="mm"
     inkscape:current-layer="layer1"
     inkscape:document-rotation="0"
     showgrid="false"
     inkscape:window-width="1920"
     inkscape:window-height="1017"
     inkscape:window-x="-8"
     inkscape:window-y="-8"
     inkscape:window-maximized="1" />
  <metadata
     id="metadata5">
    <rdf:RDF>
      <cc:Work
         rdf:about="">
        <dc:format>image/svg+xml</dc:format>
        <dc:type
           rdf:resource="http://purl.org/dc/dcmitype/StillImage" />
        <dc:title />
      </cc:Work>
    </rdf:RDF>
  </metadata>
  <g
     inkscape:label="Layer 1"
     inkscape:groupmode="layer"
     id="layer1">
    <path
       id="path833-77"
       style="display:inline;fill:#fffffd;fill-opacity:1;stroke:#000000;stroke-width:0.27064;stroke-opacity:1;paint-order:markers fill stroke"
       d="m 7.0460796,15.600528 a 9.8315486,9.8315486 0 0 0 -0.1178216,0.0011 9.8315486,9.8315486 0 0 0 -0.1353926,0.0026 9.8315486,9.8315486 0 0 0 -0.1359085,0.0041 9.8315486,9.8315486 0 0 0 -0.1353926,0.0062 9.8315486,9.8315486 0 0 0 -0.1353926,0.0083 9.8315486,9.8315486 0 0 0 -0.1353926,0.01034 9.8315486,9.8315486 0 0 0 -0.1348766,0.01188 9.8315486,9.8315486 0 0 0 -0.134874,0.01344 9.8315486,9.8315486 0 0 0 -0.1348767,0.0155 9.8315486,9.8315486 0 0 0 -0.134358,0.01757 9.8315486,9.8315486 0 0 0 -0.1343581,0.01963 9.8315486,9.8315486 0 0 0 -0.1338421,0.02119 9.8315486,9.8315486 0 0 0 -0.1338421,0.02273 9.8315486,9.8315486 0 0 0 -0.1333262,0.02479 9.8315486,9.8315486 0 0 0 -0.1328076,0.02687 9.8315486,9.8315486 0 0 0 -0.1328076,0.02842 9.8315486,9.8315486 0 0 0 -0.1317758,0.03049 9.8315486,9.8315486 0 0 0 -0.1317757,0.03204 9.8315486,9.8315486 0 0 0 -0.1312571,0.03411 9.8315486,9.8315486 0 0 0 -0.1312572,0.03566 9.8315486,9.8315486 0 0 0 -0.1302253,0.03772 9.8315486,9.8315486 0 0 0 -0.1297093,0.03927 9.8315486,9.8315486 0 0 0 -0.1291907,0.04134 9.8315486,9.8315486 0 0 0 -0.1286749,0.04289 9.8315486,9.8315486 0 0 0 -0.1281562,0.04496 9.8315486,9.8315486 0 0 0 -0.1271243,0.04651 9.8315486,9.8315486 0 0 0 -0.1266058,0.04806 9.8315486,9.8315486 0 0 0 -0.1260925,0.05013 9.8315486,9.8315486 0 0 0 -0.1255739,0.05168 9.8315486,9.8315486 0 0 0 -0.1245394,0.05374 9.8315486,9.8315486 0 0 0 -0.1240234,0.05478 9.8315486,9.8315486 0 0 0 -0.1229889,0.05685 9.8315486,9.8315486 0 0 0 -0.122473,0.05891 9.8315486,9.8315486 0 0 0 -0.1214411,0.05995 9.8315486,9.8315486 0 0 0 -0.1204066,0.06201 9.8315486,9.8315486 0 0 0 -0.119888,0.06356 9.8315486,9.8315486 0 0 0 -0.1188562,0.06511 9.8315486,9.8315486 0 0 0 -0.1183401,0.06718 9.8315486,9.8315486 0 0 0 -0.1167871,0.06821 9.8315486,9.8315486 0 0 0 -0.1162738,0.07028 9.8315486,9.8315486 0 0 0 -0.1152366,0.07183 9.8315486,9.8315486 0 0 0 -0.1142048,0.07286 9.8315486,9.8315486 0 0 0 -0.1126543,0.07493 9.8315486,9.8315486 0 0 0 -0.1121383,0.07648 9.8315486,9.8315486 0 0 0 -0.1111039,0.07803 9.8315486,9.8315486 0 0 0 -0.031525,0.02273 24.86468,24.86468 0 0 0 -0.65732283,2.506824 24.86468,24.86468 0 0 0 -0.44648443,3.171383 24.864681,24.864681 0 0 0 -0.0713131,1.874822 24.864681,24.864681 0 0 0 0.46043585,4.761983 24.86468,24.86468 0 0 0 0.37878808,1.641242 24.86468,24.86468 0 0 0 0.72657223,2.279965 9.8315486,9.8315486 0 0 0 0.075965,0.04909 9.8315486,9.8315486 0 0 0 0.1152366,0.07183 9.8315486,9.8315486 0 0 0 0.1157552,0.07028 9.8315486,9.8315486 0 0 0 0.1173057,0.06873 9.8315486,9.8315486 0 0 0 0.1178242,0.06718 9.8315486,9.8315486 0 0 0 0.1188535,0.06511 9.8315486,9.8315486 0 0 0 0.1193747,0.06408 9.8315486,9.8315486 0 0 0 0.1204039,0.06201 9.8315486,9.8315486 0 0 0 0.1214412,0.06046 9.8315486,9.8315486 0 0 0 0.122473,0.05891 9.8315486,9.8315486 0 0 0 0.1229889,0.05685 9.8315486,9.8315486 0 0 0 0.1235075,0.05581 9.8315486,9.8315486 0 0 0 0.1250579,0.05374 9.8315486,9.8315486 0 0 0 0.1250554,0.05168 9.8315486,9.8315486 0 0 0 0.1260924,0.05013 9.8315486,9.8315486 0 0 0 0.1266058,0.04857 9.8315486,9.8315486 0 0 0 0.1271244,0.04651 9.8315486,9.8315486 0 0 0 0.1281562,0.04548 9.8315486,9.8315486 0 0 0 0.1286748,0.04289 9.8315486,9.8315486 0 0 0 0.1286748,0.04134 9.8315486,9.8315486 0 0 0 0.1297067,0.03979 9.8315486,9.8315486 0 0 0 0.1302253,0.03773 9.8315486,9.8315486 0 0 0 0.1307412,0.03617 9.8315486,9.8315486 0 0 0 0.1312598,0.03411 9.8315486,9.8315486 0 0 0 0.1317731,0.03256 9.8315486,9.8315486 0 0 0 0.1322916,0.03049 9.8315486,9.8315486 0 0 0 0.1322917,0.02894 9.8315486,9.8315486 0 0 0 0.1333262,0.02687 9.8315486,9.8315486 0 0 0 0.1333262,0.02532 9.8315486,9.8315486 0 0 0 0.1333235,0.02326 9.8315486,9.8315486 0 0 0 0.1338421,0.02119 9.8315486,9.8315486 0 0 0 0.1343581,0.01963 9.8315486,9.8315486 0 0 0 0.1343607,0.01757 9.8315486,9.8315486 0 0 0 0.134874,0.01601 9.8315486,9.8315486 0 0 0 0.1348766,0.01394 9.8315486,9.8315486 0 0 0 0.134874,0.01241 9.8315486,9.8315486 0 0 0 0.1353926,0.0098 9.8315486,9.8315486 0 0 0 0.1353926,0.0088 9.8315486,9.8315486 0 0 0 0.1353926,0.0062 9.8315486,9.8315486 0 0 0 0.1353926,0.0047 9.8315486,9.8315486 0 0 0 0.1359085,0.0031 9.8315486,9.8315486 0 0 0 0.1353926,0.0011 9.8315486,9.8315486 0 0 0 0.1178216,-0.0011 9.8315486,9.8315486 0 0 0 0.1359085,-0.0026 9.8315486,9.8315486 0 0 0 0.1353926,-0.0041 9.8315486,9.8315486 0 0 0 0.1353926,-0.0062 9.8315486,9.8315486 0 0 0 0.1353926,-0.0083 9.8315486,9.8315486 0 0 0 0.1353925,-0.01034 9.8315486,9.8315486 0 0 0 0.134874,-0.01188 9.8315486,9.8315486 0 0 0 0.1348767,-0.01344 9.8315486,9.8315486 0 0 0 0.1348766,-0.01601 9.8315486,9.8315486 0 0 0 0.1343581,-0.01707 9.8315486,9.8315486 0 0 0 0.1343581,-0.01963 9.8315486,9.8315486 0 0 0 0.1338421,-0.02119 9.8315486,9.8315486 0 0 0 0.1338421,-0.02273 9.8315486,9.8315486 0 0 0 0.1333262,-0.02479 9.8315486,9.8315486 0 0 0 0.1328076,-0.02687 9.8315486,9.8315486 0 0 0 0.1328076,-0.02842 9.8315486,9.8315486 0 0 0 0.1322917,-0.03049 9.8315486,9.8315486 0 0 0 0.1317757,-0.03204 9.8315486,9.8315486 0 0 0 0.1312571,-0.03411 9.8315486,9.8315486 0 0 0 0.130741,-0.03617 9.8315486,9.8315486 0 0 0 0.130226,-0.03721 9.8315486,9.8315486 0 0 0 0.129709,-0.03979 9.8315486,9.8315486 0 0 0 0.1291909,-0.04082 9.8315486,9.8315486 0 0 0 0.128672,-0.04289 9.8315486,9.8315486 0 0 0 0.128159,-0.04496 9.8315486,9.8315486 0 0 0 0.127124,-0.04651 9.8315486,9.8315486 0 0 0 0.127125,-0.04806 9.8315486,9.8315486 0 0 0 0.12609,-0.05013 9.8315486,9.8315486 0 0 0 0.125058,-0.05168 9.8315486,9.8315486 0 0 0 0.124539,-0.05374 9.8315486,9.8315486 0 0 0 0.124023,-0.05478 9.8315486,9.8315486 0 0 0 0.122989,-0.05685 9.8315486,9.8315486 0 0 0 0.122473,-0.05891 9.8315486,9.8315486 0 0 0 0.121441,-0.05995 9.8315486,9.8315486 0 0 0 0.120923,-0.06201 9.8315486,9.8315486 0 0 0 0.119372,-0.06356 9.8315486,9.8315486 0 0 0 0.119372,-0.06511 9.8315486,9.8315486 0 0 0 0.117824,-0.06718 9.8315486,9.8315486 0 0 0 0.116787,-0.06821 9.8315486,9.8315486 0 0 0 0.116271,-0.07028 9.8315486,9.8315486 0 0 0 0.11524,-0.07183 9.8315486,9.8315486 0 0 0 0.114205,-0.07286 9.8315486,9.8315486 0 0 0 0.113172,-0.07493 9.8315486,9.8315486 0 0 0 0.112136,-0.07648 9.8315486,9.8315486 0 0 0 0.110588,-0.07803 9.8315486,9.8315486 0 0 0 0.110072,-0.07958 9.8315486,9.8315486 0 0 0 0.109037,-0.08062 9.8315486,9.8315486 0 0 0 0.107487,-0.08268 9.8315486,9.8315486 0 0 0 0.106453,-0.08371 9.8315486,9.8315486 0 0 0 0.10542,-0.08527 9.8315486,9.8315486 0 0 0 0.104386,-0.08681 9.8315486,9.8315486 0 0 0 0.102836,-0.08837 9.8315486,9.8315486 0 0 0 0.101804,-0.08992 9.8315486,9.8315486 0 0 0 0.10025,-0.09095 9.8315486,9.8315486 0 0 0 0.09922,-0.0925 9.8315486,9.8315486 0 0 0 0.09819,-0.09354 9.8315486,9.8315486 0 0 0 0.09663,-0.0956 9.8315486,9.8315486 0 0 0 0.09509,-0.09612 9.8315486,9.8315486 0 0 0 0.09405,-0.09767 9.8315486,9.8315486 0 0 0 0.0925,-0.09922 9.8315486,9.8315486 0 0 0 0.09147,-0.100253 9.8315486,9.8315486 0 0 0 0.08992,-0.101804 9.8315486,9.8315486 0 0 0 0.08837,-0.102835 9.8315486,9.8315486 0 0 0 0.08681,-0.10387 9.8315486,9.8315486 0 0 0 0.08578,-0.105418 9.8315486,9.8315486 0 0 0 0.08423,-0.106456 9.8315486,9.8315486 0 0 0 0.08268,-0.107487 9.8315486,9.8315486 0 0 0 0.08113,-0.108518 9.8315486,9.8315486 0 0 0 0.07958,-0.109556 9.8315486,9.8315486 0 0 0 0.07803,-0.111104 9.8315486,9.8315486 0 0 0 0.07648,-0.112139 9.8315486,9.8315486 0 0 0 0.07493,-0.112654 9.8315486,9.8315486 0 0 0 0.0739,-0.114205 9.8315486,9.8315486 0 0 0 0.07183,-0.11472 9.8315486,9.8315486 0 0 0 0.07028,-0.116274 9.8315486,9.8315486 0 0 0 0.06873,-0.116787 9.8315486,9.8315486 0 0 0 0.06666,-0.117822 9.8315486,9.8315486 0 0 0 0.06563,-0.118856 9.8315486,9.8315486 0 0 0 0.06408,-0.119891 9.8315486,9.8315486 0 0 0 0.06201,-0.120406 9.8315486,9.8315486 0 0 0 0.06046,-0.121439 9.8315486,9.8315486 0 0 0 0.05891,-0.121957 9.8315486,9.8315486 0 0 0 0.05684,-0.122989 9.8315486,9.8315486 0 0 0 0.05529,-0.124023 9.8315486,9.8315486 0 0 0 0.05374,-0.124542 9.8315486,9.8315486 0 0 0 0.05219,-0.125055 9.8315486,9.8315486 0 0 0 0.05013,-0.12609 9.8315486,9.8315486 0 0 0 0.04857,-0.126609 9.8315486,9.8315486 0 0 0 0.04651,-0.12764 9.8315486,9.8315486 0 0 0 0.04496,-0.12764 9.8315486,9.8315486 0 0 0 0.04341,-0.128675 9.8315486,9.8315486 0 0 0 0.04134,-0.129191 9.8315486,9.8315486 0 0 0 0.03979,-0.129709 9.8315486,9.8315486 0 0 0 0.03772,-0.130223 9.8315486,9.8315486 0 0 0 0.03617,-0.130741 9.8315486,9.8315486 0 0 0 0.03411,-0.13126 9.8315486,9.8315486 0 0 0 0.03256,-0.131775 9.8315486,9.8315486 0 0 0 0.03049,-0.131773 9.8315486,9.8315486 0 0 0 0.02842,-0.132811 9.8315486,9.8315486 0 0 0 0.02739,-0.132807 9.8315486,9.8315486 0 0 0 0.02479,-0.133324 9.8315486,9.8315486 0 0 0 0.02326,-0.133842 9.8315486,9.8315486 0 0 0 0.0217,-0.133842 9.8315486,9.8315486 0 0 0 0.01963,-0.133842 9.8315486,9.8315486 0 0 0 0.01757,-0.134877 9.8315486,9.8315486 0 0 0 0.01601,-0.134358 9.8315486,9.8315486 0 0 0 0.01394,-0.134875 9.8315486,9.8315486 0 0 0 0.01188,-0.135393 9.8315486,9.8315486 0 0 0 0.01034,-0.134874 9.8315486,9.8315486 0 0 0 0.0078,-0.135392 9.8315486,9.8315486 0 0 0 0.0072,-0.135393 9.8315486,9.8315486 0 0 0 0.0052,-0.135909 9.8315486,9.8315486 0 0 0 0.0026,-0.135392 9.8315486,9.8315486 0 0 0 0.0011,-0.135909 9.8315486,9.8315486 0 0 0 -5.29e-4,-0.117821 9.8315486,9.8315486 0 0 0 -0.0026,-0.135393 9.8315486,9.8315486 0 0 0 -0.0052,-0.135392 9.8315486,9.8315486 0 0 0 -0.0062,-0.135909 9.8315486,9.8315486 0 0 0 -0.0078,-0.135393 A 9.8315486,9.8315486 0 0 0 16.84542,24.637267 9.8315486,9.8315486 0 0 0 16.83354,24.501874 9.8315486,9.8315486 0 0 0 16.8196,24.367 9.8315486,9.8315486 0 0 0 16.80409,24.232642 9.8315486,9.8315486 0 0 0 16.78652,24.097766 9.8315486,9.8315486 0 0 0 16.76739,23.963923 9.8315486,9.8315486 0 0 0 16.7462,23.829565 9.8315486,9.8315486 0 0 0 16.72294,23.696239 9.8315486,9.8315486 0 0 0 16.69815,23.562916 9.8315486,9.8315486 0 0 0 16.67128,23.429589 9.8315486,9.8315486 0 0 0 16.64286,23.297298 9.8315486,9.8315486 0 0 0 16.61237,23.165006 9.8315486,9.8315486 0 0 0 16.58033,23.03323 9.8315486,9.8315486 0 0 0 16.54622,22.901973 9.8315486,9.8315486 0 0 0 16.51056,22.771232 9.8315486,9.8315486 0 0 0 16.47284,22.641007 9.8315486,9.8315486 0 0 0 16.43357,22.5113 9.8315486,9.8315486 0 0 0 16.39223,22.382107 9.8315486,9.8315486 0 0 0 16.34934,22.253434 9.8315486,9.8315486 0 0 0 16.3049,22.125276 9.8315486,9.8315486 0 0 0 16.25839,21.997635 9.8315486,9.8315486 0 0 0 16.20981,21.871027 9.8315486,9.8315486 0 0 0 16.1602,21.744937 9.8315486,9.8315486 0 0 0 16.10801,21.619363 9.8315486,9.8315486 0 0 0 16.05478,21.494824 9.8315486,9.8315486 0 0 0 15.99948,21.371316 9.8315486,9.8315486 0 0 0 15.94264,21.247811 9.8315486,9.8315486 0 0 0 15.88425,21.125854 9.8315486,9.8315486 0 0 0 15.82379,21.003897 9.8315486,9.8315486 0 0 0 15.76178,20.883491 9.8315486,9.8315486 0 0 0 15.69822,20.763603 9.8315486,9.8315486 0 0 0 15.63311,20.644747 9.8315486,9.8315486 0 0 0 15.56644,20.526925 9.8315486,9.8315486 0 0 0 15.49771,20.409619 9.8315486,9.8315486 0 0 0 15.42795,20.293346 9.8315486,9.8315486 0 0 0 15.35612,20.178625 9.8315486,9.8315486 0 0 0 15.28274,20.06442 9.8315486,9.8315486 0 0 0 15.20781,19.951247 9.8315486,9.8315486 0 0 0 15.13185,19.839112 9.8315486,9.8315486 0 0 0 15.05382,19.728008 9.8315486,9.8315486 0 0 0 14.97424,19.618452 9.8315486,9.8315486 0 0 0 14.89311,19.509414 9.8315486,9.8315486 0 0 0 14.81095,19.401927 9.8315486,9.8315486 0 0 0 14.72672,19.294959 9.8315486,9.8315486 0 0 0 14.64145,19.190054 9.8315486,9.8315486 0 0 0 14.55463,19.085668 9.8315486,9.8315486 0 0 0 14.46626,18.982833 9.8315486,9.8315486 0 0 0 14.37686,18.881029 9.8315486,9.8315486 0 0 0 14.28591,18.78026 9.8315486,9.8315486 0 0 0 14.19341,18.68104 9.8315486,9.8315486 0 0 0 14.09936,18.58337 9.8315486,9.8315486 0 0 0 14.00428,18.48674 9.8315486,9.8315486 0 0 0 13.90764,18.39114 9.8315486,9.8315486 0 0 0 13.80997,18.29709 9.8315486,9.8315486 0 0 0 13.71075,18.20459 9.8315486,9.8315486 0 0 0 13.6105,18.11364 9.8315486,9.8315486 0 0 0 13.509212,18.02372 9.8315486,9.8315486 0 0 0 13.406376,17.93535 9.8315486,9.8315486 0 0 0 13.30199,17.84802 9.8315486,9.8315486 0 0 0 13.197088,17.76275 9.8315486,9.8315486 0 0 0 13.090633,17.67852 9.8315486,9.8315486 0 0 0 12.983146,17.59584 9.8315486,9.8315486 0 0 0 12.874627,17.51471 9.8315486,9.8315486 0 0 0 12.764555,17.43513 9.8315486,9.8315486 0 0 0 12.653967,17.3571 9.8315486,9.8315486 0 0 0 12.541829,17.2801 9.8315486,9.8315486 0 0 0 12.428659,17.20517 9.8315486,9.8315486 0 0 0 12.31497,17.13179 9.8315486,9.8315486 0 0 0 12.199733,17.05996 9.8315486,9.8315486 0 0 0 12.083978,16.98968 9.8315486,9.8315486 0 0 0 11.967188,16.92095 9.8315486,9.8315486 0 0 0 11.848848,16.85377 9.8315486,9.8315486 0 0 0 11.730511,16.78814 9.8315486,9.8315486 0 0 0 11.61062,16.72458 9.8315486,9.8315486 0 0 0 11.490213,16.66257 9.8315486,9.8315486 0 0 0 11.368775,16.60211 9.8315486,9.8315486 0 0 0 11.246302,16.5432 9.8315486,9.8315486 0 0 0 11.123313,16.48635 9.8315486,9.8315486 0 0 0 10.999806,16.43054 9.8315486,9.8315486 0 0 0 10.875266,16.3768 9.8315486,9.8315486 0 0 0 10.749692,16.32512 9.8315486,9.8315486 0 0 0 10.6236,16.27499 9.8315486,9.8315486 0 0 0 10.496994,16.22642 9.8315486,9.8315486 0 0 0 10.36987,16.1794 9.8315486,9.8315486 0 0 0 10.241711,16.13444 9.8315486,9.8315486 0 0 0 10.113555,16.09155 9.8315486,9.8315486 0 0 0 9.9843641,16.05021 9.8315486,9.8315486 0 0 0 9.8546541,16.01042 9.8315486,9.8315486 0 0 0 9.7244321,15.9727 9.8315486,9.8315486 0 0 0 9.5936904,15.93653 9.8315486,9.8315486 0 0 0 9.4624306,15.90242 9.8315486,9.8315486 0 0 0 9.3306549,15.86986 9.8315486,9.8315486 0 0 0 9.1983633,15.83937 9.8315486,9.8315486 0 0 0 9.0660716,15.81043 9.8315486,9.8315486 0 0 0 8.933264,15.78356 9.8315486,9.8315486 0 0 0 8.7999404,15.75824 9.8315486,9.8315486 0 0 0 8.6660983,15.73498 9.8315486,9.8315486 0 0 0 8.5322562,15.71379 9.8315486,9.8315486 0 0 0 8.3978955,15.69416 9.8315486,9.8315486 0 0 0 8.2635374,15.67659 9.8315486,9.8315486 0 0 0 8.1286634,15.66058 9.8315486,9.8315486 0 0 0 7.9937868,15.64664 9.8315486,9.8315486 0 0 0 7.8589101,15.63423 9.8315486,9.8315486 0 0 0 7.7235202,15.62443 9.8315486,9.8315486 0 0 0 7.5881276,15.61563 9.8315486,9.8315486 0 0 0 7.452735,15.60943 9.8315486,9.8315486 0 0 0 7.3173424,15.60473 9.8315486,9.8315486 0 0 0 7.1819499,15.60163 9.8315486,9.8315486 0 0 0 7.0460413,15.60053 Z" />
    <path
       id="path1219"
       style="display:inline;fill:#ffffff;fill-opacity:1;stroke:#000000;stroke-width:0.27064;stroke-opacity:1;paint-order:markers fill stroke"
       d="M 42.261501,42.897049 H 7.7390604 A 24.864681,24.864681 0 0 0 25.000022,49.8651 24.864681,24.864681 0 0 0 42.261501,42.897049 Z" />
    <path
       id="path993"
       style="display:inline;fill:#fd682b;fill-opacity:1;stroke:#000000;stroke-width:0.27064;stroke-opacity:1;paint-order:markers fill stroke"
       d="M 42.260982,7.1033708 H 7.7390604 a 24.864681,24.864681 0 0 0 -6.4285496,10.3440702 9.8315486,9.8315486 0 0 1 0.031525,-0.02273 9.8315486,9.8315486 0 0 1 0.1111039,-0.07803 9.8315486,9.8315486 0 0 1 0.1121383,-0.07648 9.8315486,9.8315486 0 0 1 0.1126543,-0.07493 9.8315486,9.8315486 0 0 1 0.1142048,-0.07286 9.8315486,9.8315486 0 0 1 0.1152366,-0.07183 9.8315486,9.8315486 0 0 1 0.1162738,-0.07028 9.8315486,9.8315486 0 0 1 0.1167871,-0.06821 9.8315486,9.8315486 0 0 1 0.1183401,-0.06718 9.8315486,9.8315486 0 0 1 0.1188562,-0.06511 9.8315486,9.8315486 0 0 1 0.119888,-0.06356 9.8315486,9.8315486 0 0 1 0.1204066,-0.06201 9.8315486,9.8315486 0 0 1 0.1214411,-0.05995 9.8315486,9.8315486 0 0 1 0.122473,-0.05891 9.8315486,9.8315486 0 0 1 0.1229889,-0.05685 9.8315486,9.8315486 0 0 1 0.1240234,-0.05478 9.8315486,9.8315486 0 0 1 0.1245394,-0.05374 9.8315486,9.8315486 0 0 1 0.1255739,-0.05168 9.8315486,9.8315486 0 0 1 0.1260925,-0.05013 9.8315486,9.8315486 0 0 1 0.1266058,-0.04806 9.8315486,9.8315486 0 0 1 0.1271243,-0.04651 9.8315486,9.8315486 0 0 1 0.1281562,-0.04496 9.8315486,9.8315486 0 0 1 0.1286749,-0.04289 9.8315486,9.8315486 0 0 1 0.1291907,-0.04134 9.8315486,9.8315486 0 0 1 0.1297093,-0.03927 9.8315486,9.8315486 0 0 1 0.1302253,-0.03772 9.8315486,9.8315486 0 0 1 0.1312572,-0.03565 9.8315486,9.8315486 0 0 1 0.1312571,-0.03411 9.8315486,9.8315486 0 0 1 0.1317757,-0.03204 9.8315486,9.8315486 0 0 1 0.1317758,-0.03049 9.8315486,9.8315486 0 0 1 0.1328076,-0.02842 9.8315486,9.8315486 0 0 1 0.1328076,-0.02687 9.8315486,9.8315486 0 0 1 0.1333262,-0.02479 9.8315486,9.8315486 0 0 1 0.1338421,-0.02273 9.8315486,9.8315486 0 0 1 0.1338421,-0.02119 9.8315486,9.8315486 0 0 1 0.1343581,-0.01963 9.8315486,9.8315486 0 0 1 0.134358,-0.01757 9.8315486,9.8315486 0 0 1 0.1348767,-0.0155 9.8315486,9.8315486 0 0 1 0.134874,-0.01344 9.8315486,9.8315486 0 0 1 0.1348766,-0.01188 9.8315486,9.8315486 0 0 1 0.1353926,-0.01035 9.8315486,9.8315486 0 0 1 0.1353926,-0.0083 9.8315486,9.8315486 0 0 1 0.1353926,-0.0062 9.8315486,9.8315486 0 0 1 0.1359085,-0.0041 9.8315486,9.8315486 0 0 1 0.1353926,-0.0026 9.8315486,9.8315486 0 0 1 0.1178216,-0.0011 9.8315486,9.8315486 0 0 1 0.1359085,0.0011 9.8315486,9.8315486 0 0 1 0.1353926,0.0031 9.8315486,9.8315486 0 0 1 0.1353926,0.0047 9.8315486,9.8315486 0 0 1 0.1353926,0.0062 9.8315486,9.8315486 0 0 1 0.1353925,0.0088 9.8315486,9.8315486 0 0 1 0.13539,0.0098 9.8315486,9.8315486 0 0 1 0.1348766,0.01241 9.8315486,9.8315486 0 0 1 0.1348767,0.01394 9.8315486,9.8315486 0 0 1 0.134874,0.01601 9.8315486,9.8315486 0 0 1 0.134358,0.01757 9.8315486,9.8315486 0 0 1 0.1343607,0.01963 9.8315486,9.8315486 0 0 1 0.1338422,0.02119 9.8315486,9.8315486 0 0 1 0.1338421,0.02326 9.8315486,9.8315486 0 0 1 0.1333235,0.02532 9.8315486,9.8315486 0 0 1 0.1328076,0.02687 9.8315486,9.8315486 0 0 1 0.1322917,0.02894 9.8315486,9.8315486 0 0 1 0.1322917,0.03049 9.8315486,9.8315486 0 0 1 0.1317757,0.03256 9.8315486,9.8315486 0 0 1 0.1312598,0.03411 9.8315486,9.8315486 0 0 1 0.1307415,0.03617 9.8315486,9.8315486 0 0 1 0.130222,0.03772 9.8315486,9.8315486 0 0 1 0.12971,0.03979 9.8315486,9.8315486 0 0 1 0.1291899,0.04134 9.8315486,9.8315486 0 0 1 0.128157,0.04289 9.8315486,9.8315486 0 0 1 0.128159,0.04496 9.8315486,9.8315486 0 0 1 0.127124,0.04702 9.8315486,9.8315486 0 0 1 0.126606,0.04857 9.8315486,9.8315486 0 0 1 0.126092,0.05013 9.8315486,9.8315486 0 0 1 0.125574,0.05168 9.8315486,9.8315486 0 0 1 0.124539,0.05374 9.8315486,9.8315486 0 0 1 0.123508,0.05581 9.8315486,9.8315486 0 0 1 0.122989,0.05685 9.8315486,9.8315486 0 0 1 0.122473,0.05891 9.8315486,9.8315486 0 0 1 0.121438,0.06046 9.8315486,9.8315486 0 0 1 0.120407,0.06201 9.8315486,9.8315486 0 0 1 0.11989,0.06356 9.8315486,9.8315486 0 0 1 0.118338,0.06563 9.8315486,9.8315486 0 0 1 0.11834,0.06718 9.8315486,9.8315486 0 0 1 0.11679,0.06873 9.8315486,9.8315486 0 0 1 0.115755,0.07028 9.8315486,9.8315486 0 0 1 0.115237,0.07183 9.8315486,9.8315486 0 0 1 0.113689,0.07338 9.8315486,9.8315486 0 0 1 0.11317,0.07493 9.8315486,9.8315486 0 0 1 0.112138,0.077 9.8315486,9.8315486 0 0 1 0.110588,0.07803 9.8315486,9.8315486 0 0 1 0.110072,0.07958 9.8315486,9.8315486 0 0 1 0.108519,0.08113 9.8315486,9.8315486 0 0 1 0.107487,0.08268 9.8315486,9.8315486 0 0 1 0.106455,0.08423 9.8315486,9.8315486 0 0 1 0.104902,0.08527 9.8315486,9.8315486 0 0 1 0.104386,0.08733 9.8315486,9.8315486 0 0 1 0.102836,0.08837 9.8315486,9.8315486 0 0 1 0.101287,0.08992 9.8315486,9.8315486 0 0 1 0.100251,0.09095 9.8315486,9.8315486 0 0 1 0.09922,0.0925 9.8315486,9.8315486 0 0 1 0.09767,0.09405 9.8315486,9.8315486 0 0 1 0.09664,0.0956 9.8315486,9.8315486 0 0 1 0.09508,0.09663 9.8315486,9.8315486 0 0 1 0.09405,0.09767 9.8315486,9.8315486 0 0 1 0.0925,0.09922 9.8315486,9.8315486 0 0 1 0.09095,0.100769 9.8315486,9.8315486 0 0 1 0.0894,0.101803 9.8315486,9.8315486 0 0 1 0.08837,0.102836 9.8315486,9.8315486 0 0 1 0.08681,0.104386 9.8315486,9.8315486 0 0 1 0.08527,0.104905 9.8315486,9.8315486 0 0 1 0.08423,0.106968 9.8315486,9.8315486 0 0 1 0.08216,0.107487 9.8315486,9.8315486 0 0 1 0.08113,0.109038 9.8315486,9.8315486 0 0 1 0.07958,0.109556 9.8315486,9.8315486 0 0 1 0.07803,0.111103 9.8315486,9.8315486 0 0 1 0.07596,0.112136 9.8315486,9.8315486 0 0 1 0.07493,0.113173 9.8315486,9.8315486 0 0 1 0.07338,0.114205 9.8315486,9.8315486 0 0 1 0.07183,0.11472 9.8315486,9.8315486 0 0 1 0.06976,0.116274 9.8315486,9.8315486 0 0 1 0.06873,0.117306 9.8315486,9.8315486 0 0 1 0.06666,0.117822 9.8315486,9.8315486 0 0 1 0.06511,0.118856 9.8315486,9.8315486 0 0 1 0.06356,0.119888 9.8315486,9.8315486 0 0 1 0.06201,0.120406 9.8315486,9.8315486 0 0 1 0.06046,0.121957 9.8315486,9.8315486 0 0 1 0.05839,0.121957 9.8315486,9.8315486 0 0 1 0.05684,0.123505 9.8315486,9.8315486 0 0 1 0.05529,0.123508 9.8315486,9.8315486 0 0 1 0.05323,0.124539 9.8315486,9.8315486 0 0 1 0.05219,0.125574 9.8315486,9.8315486 0 0 1 0.04961,0.12609 9.8315486,9.8315486 0 0 1 0.04858,0.126608 9.8315486,9.8315486 0 0 1 0.04651,0.127641 9.8315486,9.8315486 0 0 1 0.04444,0.128158 9.8315486,9.8315486 0 0 1 0.04289,0.128673 9.8315486,9.8315486 0 0 1 0.04134,0.129193 9.8315486,9.8315486 0 0 1 0.03927,0.129707 9.8315486,9.8315486 0 0 1 0.03772,0.130225 9.8315486,9.8315486 0 0 1 0.03566,0.130741 9.8315486,9.8315486 0 0 1 0.03411,0.131257 9.8315486,9.8315486 0 0 1 0.03204,0.131776 9.8315486,9.8315486 0 0 1 0.03049,0.132292 9.8315486,9.8315486 0 0 1 0.02843,0.132291 9.8315486,9.8315486 0 0 1 0.02687,0.133327 9.8315486,9.8315486 0 0 1 0.02479,0.133323 9.8315486,9.8315486 0 0 1 0.02326,0.133326 9.8315486,9.8315486 0 0 1 0.02119,0.134358 9.8315486,9.8315486 0 0 1 0.01913,0.133842 9.8315486,9.8315486 0 0 1 0.01757,0.134877 9.8315486,9.8315486 0 0 1 0.0155,0.134358 9.8315486,9.8315486 0 0 1 0.01394,0.134874 9.8315486,9.8315486 0 0 1 0.01188,0.135393 9.8315486,9.8315486 0 0 1 0.0098,0.134876 9.8315486,9.8315486 0 0 1 0.0083,0.135393 9.8315486,9.8315486 0 0 1 0.0062,0.135908 9.8315486,9.8315486 0 0 1 0.0047,0.135393 9.8315486,9.8315486 0 0 1 0.0031,0.135393 9.8315486,9.8315486 0 0 1 5.3e-4,0.117821 9.8315486,9.8315486 0 0 1 -0.0011,0.135909 9.8315486,9.8315486 0 0 1 -0.0031,0.135392 9.8315486,9.8315486 0 0 1 -0.0047,0.135909 9.8315486,9.8315486 0 0 1 -0.0072,0.135392 9.8315486,9.8315486 0 0 1 -0.0078,0.135393 9.8315486,9.8315486 0 0 1 -0.01035,0.134874 9.8315486,9.8315486 0 0 1 -0.01188,0.135393 9.8315486,9.8315486 0 0 1 -0.01394,0.134875 9.8315486,9.8315486 0 0 1 -0.01601,0.134358 9.8315486,9.8315486 0 0 1 -0.01757,0.134877 9.8315486,9.8315486 0 0 1 -0.01963,0.133842 9.8315486,9.8315486 0 0 1 -0.0217,0.133842 9.8315486,9.8315486 0 0 1 -0.02326,0.133842 9.8315486,9.8315486 0 0 1 -0.02479,0.133324 9.8315486,9.8315486 0 0 1 -0.02739,0.132807 9.8315486,9.8315486 0 0 1 -0.02842,0.13281 9.8315486,9.8315486 0 0 1 -0.03049,0.131774 9.8315486,9.8315486 0 0 1 -0.03256,0.131775 9.8315486,9.8315486 0 0 1 -0.03411,0.13126 9.8315486,9.8315486 0 0 1 -0.03617,0.130741 9.8315486,9.8315486 0 0 1 -0.03772,0.130223 9.8315486,9.8315486 0 0 1 -0.03979,0.129709 9.8315486,9.8315486 0 0 1 -0.04134,0.129191 9.8315486,9.8315486 0 0 1 -0.04341,0.128675 9.8315486,9.8315486 0 0 1 -0.04496,0.12764 9.8315486,9.8315486 0 0 1 -0.04651,0.12764 9.8315486,9.8315486 0 0 1 -0.04857,0.126609 9.8315486,9.8315486 0 0 1 -0.05013,0.12609 9.8315486,9.8315486 0 0 1 -0.05219,0.125055 9.8315486,9.8315486 0 0 1 -0.05374,0.124542 9.8315486,9.8315486 0 0 1 -0.05529,0.124023 9.8315486,9.8315486 0 0 1 -0.05684,0.122989 9.8315486,9.8315486 0 0 1 -0.05891,0.121957 9.8315486,9.8315486 0 0 1 -0.06046,0.121439 9.8315486,9.8315486 0 0 1 -0.06201,0.120406 9.8315486,9.8315486 0 0 1 -0.06408,0.119891 9.8315486,9.8315486 0 0 1 -0.06563,0.118856 9.8315486,9.8315486 0 0 1 -0.06666,0.117822 9.8315486,9.8315486 0 0 1 -0.06873,0.116787 9.8315486,9.8315486 0 0 1 -0.07028,0.116274 9.8315486,9.8315486 0 0 1 -0.07183,0.11472 9.8315486,9.8315486 0 0 1 -0.0739,0.114205 9.8315486,9.8315486 0 0 1 -0.07493,0.112654 9.8315486,9.8315486 0 0 1 -0.07648,0.112139 9.8315486,9.8315486 0 0 1 -0.07803,0.111104 9.8315486,9.8315486 0 0 1 -0.07958,0.109556 9.8315486,9.8315486 0 0 1 -0.08113,0.108518 9.8315486,9.8315486 0 0 1 -0.08268,0.107487 9.8315486,9.8315486 0 0 1 -0.08423,0.106455 9.8315486,9.8315486 0 0 1 -0.08578,0.105418 9.8315486,9.8315486 0 0 1 -0.08681,0.103871 9.8315486,9.8315486 0 0 1 -0.08837,0.102835 9.8315486,9.8315486 0 0 1 -0.08992,0.101804 9.8315486,9.8315486 0 0 1 -0.09147,0.100253 9.8315486,9.8315486 0 0 1 -0.0925,0.09922 9.8315486,9.8315486 0 0 1 -0.09405,0.09767 9.8315486,9.8315486 0 0 1 -0.09509,0.09612 9.8315486,9.8315486 0 0 1 -0.09663,0.0956 9.8315486,9.8315486 0 0 1 -0.09819,0.09354 9.8315486,9.8315486 0 0 1 -0.09922,0.0925 9.8315486,9.8315486 0 0 1 -0.100251,0.09095 9.8315486,9.8315486 0 0 1 -0.101804,0.08992 9.8315486,9.8315486 0 0 1 -0.102835,0.08837 9.8315486,9.8315486 0 0 1 -0.104386,0.08682 9.8315486,9.8315486 0 0 1 -0.105421,0.08527 9.8315486,9.8315486 0 0 1 -0.106452,0.08371 9.8315486,9.8315486 0 0 1 -0.107487,0.08268 9.8315486,9.8315486 0 0 1 -0.109038,0.08062 9.8315486,9.8315486 0 0 1 -0.110072,0.07958 9.8315486,9.8315486 0 0 1 -0.110588,0.07803 9.8315486,9.8315486 0 0 1 -0.112135,0.07648 9.8315486,9.8315486 0 0 1 -0.113173,0.07493 9.8315486,9.8315486 0 0 1 -0.114205,0.07286 9.8315486,9.8315486 0 0 1 -0.115239,0.07183 9.8315486,9.8315486 0 0 1 -0.116271,0.07028 9.8315486,9.8315486 0 0 1 -0.116787,0.06821 9.8315486,9.8315486 0 0 1 -0.117825,0.06718 9.8315486,9.8315486 0 0 1 -0.119372,0.06511 9.8315486,9.8315486 0 0 1 -0.119372,0.06356 9.8315486,9.8315486 0 0 1 -0.120922,0.06201 9.8315486,9.8315486 0 0 1 -0.121441,0.05995 9.8315486,9.8315486 0 0 1 -0.122473,0.05891 9.8315486,9.8315486 0 0 1 -0.122989,0.05685 9.8315486,9.8315486 0 0 1 -0.124024,0.05478 9.8315486,9.8315486 0 0 1 -0.124539,0.05374 9.8315486,9.8315486 0 0 1 -0.125058,0.05168 9.8315486,9.8315486 0 0 1 -0.12609,0.05013 9.8315486,9.8315486 0 0 1 -0.127124,0.04806 9.8315486,9.8315486 0 0 1 -0.127125,0.04651 9.8315486,9.8315486 0 0 1 -0.128159,0.04496 9.8315486,9.8315486 0 0 1 -0.128672,0.04289 9.8315486,9.8315486 0 0 1 -0.1291899,0.04082 9.8315486,9.8315486 0 0 1 -0.12971,0.03979 9.8315486,9.8315486 0 0 1 -0.130225,0.03721 9.8315486,9.8315486 0 0 1 -0.1307413,0.03617 9.8315486,9.8315486 0 0 1 -0.1312571,0.03411 9.8315486,9.8315486 0 0 1 -0.1317757,0.03204 9.8315486,9.8315486 0 0 1 -0.1322917,0.03049 9.8315486,9.8315486 0 0 1 -0.1328076,0.02842 9.8315486,9.8315486 0 0 1 -0.1328076,0.02687 9.8315486,9.8315486 0 0 1 -0.1333262,0.02479 9.8315486,9.8315486 0 0 1 -0.1338421,0.02273 9.8315486,9.8315486 0 0 1 -0.1338421,0.02119 9.8315486,9.8315486 0 0 1 -0.1343581,0.01963 9.8315486,9.8315486 0 0 1 -0.1343581,0.01706 9.8315486,9.8315486 0 0 1 -0.1348766,0.01601 9.8315486,9.8315486 0 0 1 -0.1348767,0.01344 9.8315486,9.8315486 0 0 1 -0.134874,0.01188 9.8315486,9.8315486 0 0 1 -0.1353925,0.01035 9.8315486,9.8315486 0 0 1 -0.1353926,0.0083 9.8315486,9.8315486 0 0 1 -0.1353926,0.0062 9.8315486,9.8315486 0 0 1 -0.1353926,0.0041 9.8315486,9.8315486 0 0 1 -0.1359085,0.0026 9.8315486,9.8315486 0 0 1 -0.1178216,0.0011 9.8315486,9.8315486 0 0 1 -0.1353926,-0.0011 9.8315486,9.8315486 0 0 1 -0.1359085,-0.0031 9.8315486,9.8315486 0 0 1 -0.1353926,-0.0047 9.8315486,9.8315486 0 0 1 -0.1353926,-0.0062 9.8315486,9.8315486 0 0 1 -0.1353926,-0.0088 9.8315486,9.8315486 0 0 1 -0.1353926,-0.0098 9.8315486,9.8315486 0 0 1 -0.134874,-0.01241 9.8315486,9.8315486 0 0 1 -0.1348766,-0.01394 9.8315486,9.8315486 0 0 1 -0.134874,-0.01601 A 9.8315486,9.8315486 0 0 1 5.6942281,35.170401 9.8315486,9.8315486 0 0 1 5.55987,35.150769 9.8315486,9.8315486 0 0 1 5.4260279,35.129576 9.8315486,9.8315486 0 0 1 5.2927044,35.106319 9.8315486,9.8315486 0 0 1 5.1593782,35.080998 9.8315486,9.8315486 0 0 1 5.026052,35.054127 9.8315486,9.8315486 0 0 1 4.8937603,35.025187 9.8315486,9.8315486 0 0 1 4.7614686,34.994699 9.8315486,9.8315486 0 0 1 4.6296956,34.962142 9.8315486,9.8315486 0 0 1 4.4984358,34.928035 9.8315486,9.8315486 0 0 1 4.3676946,34.891864 9.8315486,9.8315486 0 0 1 4.2374693,34.854139 9.8315486,9.8315486 0 0 1 4.1077626,34.814349 9.8315486,9.8315486 0 0 1 3.9790878,34.773007 9.8315486,9.8315486 0 0 1 3.850413,34.730116 9.8315486,9.8315486 0 0 1 3.7222568,34.684639 9.8315486,9.8315486 0 0 1 3.5951324,34.638131 9.8315486,9.8315486 0 0 1 3.4685266,34.589556 9.8315486,9.8315486 0 0 1 3.3424341,34.539428 9.8315486,9.8315486 0 0 1 3.2173788,34.487752 9.8315486,9.8315486 0 0 1 3.0923209,34.43401 9.8315486,9.8315486 0 0 1 2.9688134,34.378199 9.8315486,9.8315486 0 0 1 2.8458245,34.321353 9.8315486,9.8315486 0 0 1 2.7233515,34.262444 9.8315486,9.8315486 0 0 1 2.6019103,34.201981 9.8315486,9.8315486 0 0 1 2.4815064,34.139971 9.8315486,9.8315486 0 0 1 2.3621317,34.075891 9.8315486,9.8315486 0 0 1 2.2432782,34.01078 9.8315486,9.8315486 0 0 1 2.1254539,33.9436 9.8315486,9.8315486 0 0 1 2.0081483,33.874869 9.8315486,9.8315486 0 0 1 1.8923931,33.80459 9.8315486,9.8315486 0 0 1 1.7771564,33.732761 9.8315486,9.8315486 0 0 1 1.7011919,33.683668 24.864681,24.864681 0 0 0 7.7390657,42.897057 H 42.261506 A 24.864681,24.864681 0 0 0 49.864657,25.000478 24.864681,24.864681 0 0 0 42.260987,7.1033788 Z" />
    <path
       id="path991"
       style="display:inline;fill:#ffffff;fill-opacity:1;stroke:#000000;stroke-width:0.27064;stroke-opacity:1;paint-order:markers fill stroke"
       d="M 24.981419,0.13531999 A 24.864681,24.864681 0 0 0 7.7390604,7.1033708 H 42.260982 a 24.864681,24.864681 0 0 0 -17.26096,-6.96805081 24.864681,24.864681 0 0 0 -0.0186,0 z" />
    <g
       aria-label="13"
       transform="scale(0.86934871,1.1502864)"
       id="text1149-7"
       style="font-style:normal;font-variant:normal;font-weight:normal;font-stretch:normal;font-size:18.0465px;line-height:1.25;font-family:'Berlin Sans FB Demi';-inkscape-font-specification:'Berlin Sans FB Demi';display:inline;stroke-width:0.229406">
      <path
         d="m 5.5239293,26.667753 q 0,0.167424 -0.1498,0.308412 -0.1498001,0.140988 -0.3260354,0.140988 -0.4229648,0 -1.2688945,0.0088 -0.8459296,0.0088 -1.2688945,0.0088 -0.3260353,0 -0.3172236,-0.281977 l 0.00881,-0.09693 q 0.1233647,-3.366095 0.1233647,-4.079849 v -2.617094 q 0,-0.24673 -0.1145529,-0.24673 -0.1762354,0 -0.5375178,0.105741 -0.3524707,0.105742 -0.5375178,0.105742 -0.27316482,0 -0.27316482,-0.326036 0,-0.2996 -0.008812,-0.8988 -0.008812,-0.5992 -0.008812,-0.907612 0,-0.176235 0.22029416,-0.264353 1.2953298,-0.537518 2.0355182,-1.44513 0.1498001,-0.185047 0.2555413,-0.185047 0.017624,0 0.1057412,0.01762 0.3348472,0.0705 0.9957297,0.220295 0.3524707,0.04406 1.0309768,0.158611 0.1233647,0.03525 0.1233647,0.193859 0,0.05287 -0.017623,0.185047 -0.09693,0.775436 -0.09693,3.797872 0,1.013353 0.00881,3.048872 0.017624,2.035518 0.017624,3.048871 z"
         style="font-style:normal;font-variant:normal;font-weight:normal;font-stretch:normal;font-size:18.0465px;font-family:'Berlin Sans FB Demi';-inkscape-font-specification:'Berlin Sans FB Demi';stroke-width:0.229406"
         id="path844" />
      <path
         d="m 15.049449,24.103529 q 0,1.630177 -1.3482,2.511353 -1.14553,0.757812 -2.863824,0.757812 -1.3217653,0 -2.1765067,-0.185047 -1.8592829,-0.387717 -1.8592829,-0.687318 0,-0.05287 0.035247,-0.158611 0.1233648,-0.326036 0.3612825,-0.978107 0.070494,-0.326035 0.2467295,-0.969294 0.079306,-0.220294 0.264353,-0.220294 -0.026435,0 0.7842473,0.290788 0.8194943,0.290789 1.3393886,0.290789 1.7271067,0 1.7271067,-1.154342 0,-0.925236 -1.638989,-0.925236 -0.2202942,0 -0.5815767,0.01762 -0.3612824,0.01762 -0.4758354,0.01762 -0.5375178,0 -0.5903884,-0.0088 -0.3877178,-0.04406 -0.3877178,-0.2996 0,-1.348201 0.1057412,-1.69186 0.070494,-0.220294 0.2819766,-0.220294 0.2996001,0 0.8811767,0.07931 0.5903884,0.07049 0.8811768,0.07049 0.378906,0 0.625635,-0.246729 0.255542,-0.255541 0.255542,-0.643259 0,-1.039789 -1.5156243,-1.039789 -0.6344472,0 -1.7182946,0.343659 -0.044059,0.0088 -0.079306,0.0088 -0.114553,0 -0.1938589,-0.24673 -0.017624,-0.370094 -0.052871,-0.845929 -0.00881,-0.105741 -0.052871,-0.422965 -0.035247,-0.255541 -0.035247,-0.414153 0,-0.467024 1.4451299,-0.722565 0.9957296,-0.176235 1.9297771,-0.176235 1.498,0 2.625907,0.660882 1.365823,0.793059 1.365823,2.19413 0,1.612554 -1.462753,2.449672 0.863553,0.290788 1.365824,0.978106 0.511082,0.687318 0.511082,1.586118 z"
         style="font-style:normal;font-variant:normal;font-weight:normal;font-stretch:normal;font-size:18.0465px;font-family:'Berlin Sans FB Demi';-inkscape-font-specification:'Berlin Sans FB Demi';stroke-width:0.229406"
         id="path846" />
    </g>
    <circle
       style="display:inline;opacity:0.88141;mix-blend-mode:normal;fill:url(#radialGradient1561-9-67);fill-opacity:1;stroke:none;stroke-width:0.212909;stroke-opacity:1;paint-order:markers fill stroke"
       id="path1129-9-5"
       cx="25"
       cy="25"
       r="25" />
    <circle
       style="display:inline;opacity:0.88141;mix-blend-mode:normal;fill:url(#radialGradient1561-637);fill-opacity:1;stroke:none;stroke-width:0.212909;stroke-opacity:1;paint-order:markers fill stroke"
       id="path1129-41"
       cx="25"
       cy="25"
       r="25" />
  </g>
</svg>
