<?xml version="1.0" encoding="UTF-8" standalone="no"?>
<svg
   xmlns:dc="http://purl.org/dc/elements/1.1/"
   xmlns:cc="http://creativecommons.org/ns#"
   xmlns:rdf="http://www.w3.org/1999/02/22-rdf-syntax-ns#"
   xmlns:svg="http://www.w3.org/2000/svg"
   xmlns="http://www.w3.org/2000/svg"
   xmlns:xlink="http://www.w3.org/1999/xlink"
   xmlns:sodipodi="http://sodipodi.sourceforge.net/DTD/sodipodi-0.dtd"
   xmlns:inkscape="http://www.inkscape.org/namespaces/inkscape"
   width="50mm"
   height="50mm"
   viewBox="0 0 50 50"
   version="1.1"
   id="svg8"
   inkscape:version="1.0.1 (3bc2e813f5, 2020-09-07)"
   sodipodi:docname="3-1.svg">
  <defs
     id="defs2">
    <radialGradient
       inkscape:collect="always"
       xlink:href="#linearGradient1135"
       id="radialGradient1561-9"
       cx="54.447247"
       cy="49.531189"
       fx="54.447247"
       fy="49.531189"
       r="32.127975"
       gradientTransform="matrix(0.77813809,0,0,0.77813812,-3.3823602,4.4117541)"
       gradientUnits="userSpaceOnUse" />
    <linearGradient
       inkscape:collect="always"
       id="linearGradient1135">
      <stop
         style="stop-color:#ffffff;stop-opacity:1;"
         offset="0"
         id="stop1131" />
      <stop
         style="stop-color:#ffffff;stop-opacity:0;"
         offset="1"
         id="stop1133" />
    </linearGradient>
    <radialGradient
       inkscape:collect="always"
       xlink:href="#linearGradient1135"
       id="radialGradient1561"
       cx="26.274075"
       cy="14.800471"
       fx="26.274075"
       fy="14.800471"
       r="32.127975"
       gradientTransform="matrix(0.77813809,0,0,0.77813812,-3.3823606,4.411752)"
       gradientUnits="userSpaceOnUse" />
  </defs>
  <sodipodi:namedview
     id="base"
     pagecolor="#ffffff"
     bordercolor="#666666"
     borderopacity="1.0"
     inkscape:pageopacity="0.0"
     inkscape:pageshadow="2"
     inkscape:zoom="0.9899495"
     inkscape:cx="58.992838"
     inkscape:cy="180.83473"
     inkscape:document-units="mm"
     inkscape:current-layer="layer1"
     inkscape:document-rotation="0"
     showgrid="false"
     inkscape:window-width="1920"
     inkscape:window-height="1017"
     inkscape:window-x="-8"
     inkscape:window-y="-8"
     inkscape:window-maximized="1" />
  <metadata
     id="metadata5">
    <rdf:RDF>
      <cc:Work
         rdf:about="">
        <dc:format>image/svg+xml</dc:format>
        <dc:type
           rdf:resource="http://purl.org/dc/dcmitype/StillImage" />
        <dc:title />
      </cc:Work>
    </rdf:RDF>
  </metadata>
  <g
     inkscape:label="Layer 1"
     inkscape:groupmode="layer"
     id="layer1">
    <circle
       style="display:inline;fill:#cf330c;fill-opacity:1;stroke:#000000;stroke-width:0.27064;stroke-opacity:1;paint-order:markers fill stroke"
       id="path833"
       cx="25.000002"
       cy="25.000002"
       r="24.864681" />
    <circle
       style="display:inline;fill:#ffffff;fill-opacity:1;stroke:#000000;stroke-width:0.336905;stroke-opacity:1;paint-order:markers fill stroke"
       id="path891"
       cx="25.000002"
       cy="23.186996"
       r="9.8315496" />
    <g
       aria-label="3"
       id="text1149"
       style="font-style:normal;font-variant:normal;font-weight:normal;font-stretch:normal;font-size:20.8139px;line-height:1.25;font-family:'Berlin Sans FB Demi';-inkscape-font-specification:'Berlin Sans FB Demi';display:inline;stroke-width:0.264583">
      <path
         d="m 30.566976,25.996959 q 0,1.880161 -1.554944,2.896465 -1.321195,0.874021 -3.302987,0.874021 -1.524456,0 -2.510271,-0.213423 -2.1444,-0.447174 -2.1444,-0.792717 0,-0.06098 0.04065,-0.182935 0.142282,-0.376032 0.416684,-1.128097 0.08131,-0.376032 0.284565,-1.117934 0.09147,-0.254076 0.304891,-0.254076 -0.03049,0 0.904511,0.33538 0.945162,0.33538 1.544781,0.33538 1.991956,0 1.991956,-1.331358 0,-1.067118 -1.890325,-1.067118 -0.254076,0 -0.670761,0.02033 -0.416684,0.02033 -0.548804,0.02033 -0.619945,0 -0.680923,-0.01016 -0.447174,-0.05082 -0.447174,-0.345544 0,-1.554944 0.121957,-1.951303 0.0813,-0.254076 0.325217,-0.254076 0.345543,0 1.016303,0.09147 0.680924,0.0813 1.016304,0.0813 0.437011,0 0.721576,-0.284565 0.294728,-0.294728 0.294728,-0.741902 0,-1.199238 -1.748043,-1.199238 -0.731738,0 -1.981792,0.396358 -0.05082,0.01016 -0.09147,0.01016 -0.13212,0 -0.223587,-0.284565 -0.02033,-0.426847 -0.06098,-0.975651 -0.01016,-0.121957 -0.06098,-0.487826 -0.04065,-0.294728 -0.04065,-0.477663 0,-0.538641 1.666738,-0.833369 1.148423,-0.203261 2.225705,-0.203261 1.727716,0 3.028585,0.762228 1.575271,0.914674 1.575271,2.530596 0,1.859836 -1.687065,2.825325 0.995978,0.33538 1.575271,1.128097 0.589456,0.792717 0.589456,1.829347 z"
         style="font-style:normal;font-variant:normal;font-weight:normal;font-stretch:normal;font-size:20.8139px;font-family:'Berlin Sans FB Demi';-inkscape-font-specification:'Berlin Sans FB Demi';stroke-width:0.264583"
         id="path841" />
    </g>
    <circle
       style="display:inline;opacity:0.88141;mix-blend-mode:normal;fill:url(#radialGradient1561-9);fill-opacity:1;stroke:none;stroke-width:0.212909;stroke-opacity:1;paint-order:markers fill stroke"
       id="path1129-9"
       cx="25"
       cy="25"
       r="25" />
    <circle
       style="display:inline;opacity:0.88141;mix-blend-mode:normal;fill:url(#radialGradient1561);fill-opacity:1;stroke:none;stroke-width:0.212909;stroke-opacity:1;paint-order:markers fill stroke"
       id="path1129"
       cx="25"
       cy="25"
       r="25" />
  </g>
</svg>
