<?xml version="1.0" encoding="UTF-8" standalone="no"?>
<svg
   xmlns:dc="http://purl.org/dc/elements/1.1/"
   xmlns:cc="http://creativecommons.org/ns#"
   xmlns:rdf="http://www.w3.org/1999/02/22-rdf-syntax-ns#"
   xmlns:svg="http://www.w3.org/2000/svg"
   xmlns="http://www.w3.org/2000/svg"
   xmlns:xlink="http://www.w3.org/1999/xlink"
   xmlns:sodipodi="http://sodipodi.sourceforge.net/DTD/sodipodi-0.dtd"
   xmlns:inkscape="http://www.inkscape.org/namespaces/inkscape"
   width="50mm"
   height="50mm"
   viewBox="0 0 50 50"
   version="1.1"
   id="svg8"
   inkscape:version="1.0.1 (3bc2e813f5, 2020-09-07)"
   sodipodi:docname="4-6.svg">
  <defs
     id="defs2">
    <radialGradient
       inkscape:collect="always"
       xlink:href="#linearGradient1135"
       id="radialGradient1561-8"
       cx="26.274075"
       cy="14.800471"
       fx="26.274075"
       fy="14.800471"
       r="32.127975"
       gradientTransform="matrix(0.77813809,0,0,0.77813812,-2.9671816,4.4120696)"
       gradientUnits="userSpaceOnUse" />
    <linearGradient
       inkscape:collect="always"
       id="linearGradient1135">
      <stop
         style="stop-color:#ffffff;stop-opacity:1;"
         offset="0"
         id="stop1131" />
      <stop
         style="stop-color:#ffffff;stop-opacity:0;"
         offset="1"
         id="stop1133" />
    </linearGradient>
    <radialGradient
       inkscape:collect="always"
       xlink:href="#linearGradient1135"
       id="radialGradient1561-9-6"
       cx="54.447247"
       cy="49.531189"
       fx="54.447247"
       fy="49.531189"
       r="32.127975"
       gradientTransform="matrix(0.77813809,0,0,0.77813812,-3.3823634,4.4120696)"
       gradientUnits="userSpaceOnUse" />
  </defs>
  <sodipodi:namedview
     id="base"
     pagecolor="#ffffff"
     bordercolor="#666666"
     borderopacity="1.0"
     inkscape:pageopacity="0.0"
     inkscape:pageshadow="2"
     inkscape:zoom="0.98994949"
     inkscape:cx="2.9247058"
     inkscape:cy="154.89275"
     inkscape:document-units="mm"
     inkscape:current-layer="layer1"
     inkscape:document-rotation="0"
     showgrid="false"
     inkscape:window-width="1920"
     inkscape:window-height="1017"
     inkscape:window-x="-8"
     inkscape:window-y="-8"
     inkscape:window-maximized="1" />
  <metadata
     id="metadata5">
    <rdf:RDF>
      <cc:Work
         rdf:about="">
        <dc:format>image/svg+xml</dc:format>
        <dc:type
           rdf:resource="http://purl.org/dc/dcmitype/StillImage" />
        <dc:title></dc:title>
      </cc:Work>
    </rdf:RDF>
  </metadata>
  <g
     inkscape:label="Layer 1"
     inkscape:groupmode="layer"
     id="layer1">
    <path
       id="path833-58"
       style="display:inline;fill:#ffffff;fill-opacity:1;stroke:#000000;stroke-width:0.27064;stroke-opacity:1;paint-order:markers fill stroke"
       d="m 0.56279629,25.778229 1.24281941,-0.06149 0.02739,-1.110009 0.1379749,-1.841749 0.054777,-1.437637 -0.082166,-0.10077 -0.5508704,0.832507 -0.76222761,0.950846 a 24.86468,24.86468 0 0 0 -0.023257,0.31006 24.86468,24.86468 0 0 0 -0.056843,1.680001 24.86468,24.86468 0 0 0 0.00982,0.699698 24.86468,24.86468 0 0 0 0.00265,0.07855 z" />
    <path
       id="path1168"
       style="display:inline;fill:#ffffff;fill-opacity:1;stroke:#000000;stroke-width:0.27064;stroke-opacity:1;paint-order:markers fill stroke"
       d="M 0.93486659,29.352172 1.0382208,28.825588 0.81859549,28.605963 h -0.00466 a 24.86468,24.86468 0 0 0 0.1209225,0.746209 z" />
    <path
       id="path1166"
       style="display:inline;fill:#000000;fill-opacity:1;stroke:#000000;stroke-width:0.27064;stroke-opacity:1;paint-order:markers fill stroke"
       d="m 1.2371743,30.802729 h 3.4256318 l 0.241845,-0.131776 -0.043926,-1.362191 -0.066146,-0.439248 0.1979215,-0.241848 h 0.4392507 l 0.5710237,0.08785 0.351917,-0.24133 -0.043926,-1.406117 0.06563,-1.296042 -0.1979215,-0.131776 -1.3616729,0.153996 V 21.246721 L 4.926355,20.104671 5.036427,19.09388 4.992501,18.764186 4.7067299,18.676336 3.7620853,18.500634 2.4221163,18.171455 1.653171,17.973536 l -0.089919,0.0052 a 24.86468,24.86468 0 0 0 -0.083198,0.287319 24.86468,24.86468 0 0 0 -0.16433,0.612883 24.86468,24.86468 0 0 0 -0.51211431,2.584339 24.86468,24.86468 0 0 0 -0.1731169,1.546675 l 0.76222761,-0.950846 0.5508704,-0.832507 0.082166,0.10077 -0.054777,1.437637 -0.1379749,1.841749 -0.02739,1.110009 -1.24281941,0.06149 a 24.86468,24.86468 0 0 0 0.1741514,2.257226 24.86468,24.86468 0 0 0 0.076996,0.570508 h 0.00466 L 1.0382287,28.82558 0.93487449,29.352164 a 24.86468,24.86468 0 0 0 0.30230771,1.450557 z" />
    <path
       id="path1164"
       style="display:inline;fill:#ffffff;fill-opacity:1;stroke:#000000;stroke-width:0.27064;stroke-opacity:1;paint-order:markers fill stroke"
       d="m 2.395245,15.602108 a 24.86468,24.86468 0 0 0 -0.8319929,2.376599 l 0.089919,-0.0052 0.7689453,0.197919 1.339969,0.329179 0.9446446,0.175702 0.2857711,0.08785 0.043926,0.329695 -0.110072,1.01079 -0.1095534,1.142051 v 4.547526 l 1.3616729,-0.153996 0.1979215,0.131776 -0.06563,1.296042 0.043926,1.406117 -0.351917,0.241329 -0.5710237,-0.08785 H 4.9925007 l -0.1979215,0.241848 0.066146,0.439248 0.043926,1.362191 -0.241845,0.131776 H 1.2371743 a 24.86468,24.86468 0 0 0 0.061494,0.249079 24.86468,24.86468 0 0 0 0.079066,0.307475 24.86468,24.86468 0 0 0 0.9255257,2.810166 9.8315486,9.8315486 0 0 0 0.1178216,-0.04134 9.8315486,9.8315486 0 0 0 0.1276403,-0.04599 9.8315486,9.8315486 0 0 0 0.1266084,-0.04857 9.8315486,9.8315486 0 0 0 0.1260898,-0.05013 9.8315486,9.8315486 0 0 0 0.125058,-0.05167 9.8315486,9.8315486 0 0 0 0.1250553,-0.05323 9.8315486,9.8315486 0 0 0 0.1235075,-0.0553 9.8315486,9.8315486 0 0 0 0.1235075,-0.05684 9.8315486,9.8315486 0 0 0 0.121957,-0.05839 9.8315486,9.8315486 0 0 0 0.1214385,-0.06046 9.8315486,9.8315486 0 0 0 0.1209225,-0.06201 9.8315486,9.8315486 0 0 0 0.1198906,-0.06356 9.8315486,9.8315486 0 0 0 0.1188535,-0.06511 9.8315486,9.8315486 0 0 0 0.1178243,-0.06667 9.8315486,9.8315486 0 0 0 0.1173056,-0.06873 9.8315486,9.8315486 0 0 0 0.1157552,-0.06976 9.8315486,9.8315486 0 0 0 0.1152367,-0.07183 9.8315486,9.8315486 0 0 0 0.1142047,-0.07338 9.8315486,9.8315486 0 0 0 0.1131729,-0.07493 9.8315486,9.8315486 0 0 0 0.1121383,-0.07648 9.8315486,9.8315486 0 0 0 0.1111039,-0.07751 9.8315486,9.8315486 0 0 0 0.1095534,-0.07958 9.8315486,9.8315486 0 0 0 0.1090374,-0.08113 9.8315486,9.8315486 0 0 0 0.107487,-0.08216 9.8315486,9.8315486 0 0 0 0.1064524,-0.08423 9.8315486,9.8315486 0 0 0 0.1054206,-0.08527 9.8315486,9.8315486 0 0 0 0.1043861,-0.08682 9.8315486,9.8315486 0 0 0 0.1028356,-0.08837 9.8315486,9.8315486 0 0 0 0.1018037,-0.0894 9.8315486,9.8315486 0 0 0 0.1007692,-0.09147 9.8315486,9.8315486 0 0 0 0.099219,-0.09199 9.8315486,9.8315486 0 0 0 0.097668,-0.09405 9.8315486,9.8315486 0 0 0 0.096634,-0.09508 9.8315486,9.8315486 0 0 0 0.095602,-0.09664 9.8315486,9.8315486 0 0 0 0.093535,-0.09767 9.8315486,9.8315486 0 0 0 0.093017,-0.09922 9.8315486,9.8315486 0 0 0 0.090951,-0.100251 9.8315486,9.8315486 0 0 0 0.089916,-0.101287 9.8315486,9.8315486 0 0 0 0.088368,-0.102836 9.8315486,9.8315486 0 0 0 0.087334,-0.104386 9.8315486,9.8315486 0 0 0 0.085265,-0.104902 9.8315486,9.8315486 0 0 0 0.084233,-0.106455 9.8315486,9.8315486 0 0 0 0.082682,-0.107487 9.8315486,9.8315486 0 0 0 0.081132,-0.109038 9.8315486,9.8315486 0 0 0 0.079581,-0.109553 9.8315486,9.8315486 0 0 0 0.078034,-0.110588 9.8315486,9.8315486 0 0 0 0.076996,-0.112138 9.8315486,9.8315486 0 0 0 0.07493,-0.11317 9.8315486,9.8315486 0 0 0 0.073382,-0.113689 9.8315486,9.8315486 0 0 0 0.071829,-0.115239 9.8315486,9.8315486 0 0 0 0.070281,-0.115756 9.8315486,9.8315486 0 0 0 0.068728,-0.117303 9.8315486,9.8315486 0 0 0 0.06718,-0.117824 9.8315486,9.8315486 0 0 0 0.065111,-0.118856 9.8315486,9.8315486 0 0 0 0.06408,-0.119372 9.8315486,9.8315486 0 0 0 0.062013,-0.120407 9.8315486,9.8315486 0 0 0 0.06046,-0.121438 9.8315486,9.8315486 0 0 0 0.058912,-0.122473 9.8315486,9.8315486 0 0 0 0.056843,-0.122989 9.8315486,9.8315486 0 0 0 0.055811,-0.123508 9.8315486,9.8315486 0 0 0 0.053226,-0.124539 9.8315486,9.8315486 0 0 0 0.052194,-0.125574 9.8315486,9.8315486 0 0 0 0.050125,-0.126092 9.8315486,9.8315486 0 0 0 0.048575,-0.126606 9.8315486,9.8315486 0 0 0 0.046508,-0.127124 9.8315486,9.8315486 0 0 0 0.044961,-0.128159 9.8315486,9.8315486 0 0 0 0.043408,-0.128672 9.8315486,9.8315486 0 0 0 0.041341,-0.128675 9.8315486,9.8315486 0 0 0 0.039791,-0.12971 9.8315486,9.8315486 0 0 0 0.037724,-0.130222 9.8315486,9.8315486 0 0 0 0.036174,-0.130741 9.8315486,9.8315486 0 0 0 0.034105,-0.13126 9.8315486,9.8315486 0 0 0 0.032557,-0.131773 9.8315486,9.8315486 0 0 0 0.030488,-0.132292 9.8315486,9.8315486 0 0 0 0.02894,-0.132292 9.8315486,9.8315486 0 0 0 0.026871,-0.133326 9.8315486,9.8315486 0 0 0 0.024791,-0.133326 9.8315486,9.8315486 0 0 0 0.023786,-0.133324 9.8315486,9.8315486 0 0 0 0.021193,-0.133841 9.8315486,9.8315486 0 0 0 0.019632,-0.13436 9.8315486,9.8315486 0 0 0 0.017568,-0.134358 9.8315486,9.8315486 0 0 0 0.016007,-0.134874 9.8315486,9.8315486 0 0 0 0.013943,-0.134877 9.8315486,9.8315486 0 0 0 0.01188,-0.134874 9.8315486,9.8315486 0 0 0 0.010345,-0.135393 9.8315486,9.8315486 0 0 0 0.00878,-0.135392 9.8315486,9.8315486 0 0 0 0.00619,-0.135393 9.8315486,9.8315486 0 0 0 0.00466,-0.135392 9.8315486,9.8315486 0 0 0 0.0031,-0.135909 9.8315486,9.8315486 0 0 0 0.00106,-0.135393 9.8315486,9.8315486 0 0 0 -0.00106,-0.117821 9.8315486,9.8315486 0 0 0 -0.00265,-0.135911 9.8315486,9.8315486 0 0 0 -0.00413,-0.13539 9.8315486,9.8315486 0 0 0 -0.00619,-0.135393 9.8315486,9.8315486 0 0 0 -0.00825,-0.135392 9.8315486,9.8315486 0 0 0 -0.010345,-0.135393 9.8315486,9.8315486 0 0 0 -0.01188,-0.134877 9.8315486,9.8315486 0 0 0 -0.01344,-0.13485 A 9.8315486,9.8315486 0 0 0 8.8717951,23.669839 9.8315486,9.8315486 0 0 0 8.8547295,23.535481 9.8315486,9.8315486 0 0 0 8.8350974,23.401123 9.8315486,9.8315486 0 0 0 8.8139043,23.26728 9.8315486,9.8315486 0 0 0 8.7911766,23.133438 9.8315486,9.8315486 0 0 0 8.7658559,23.000112 9.8315486,9.8315486 0 0 0 8.7395034,22.867305 9.8315486,9.8315486 0 0 0 8.7110819,22.734497 9.8315486,9.8315486 0 0 0 8.6805913,22.602205 9.8315486,9.8315486 0 0 0 8.6485529,22.470945 9.8315486,9.8315486 0 0 0 8.6144455,22.339172 9.8315486,9.8315486 0 0 0 8.5782743,22.208431 9.8315486,9.8315486 0 0 0 8.5410659,22.078206 9.8315486,9.8315486 0 0 0 8.5012753,21.948497 9.8315486,9.8315486 0 0 0 8.46045,21.819306 9.8315486,9.8315486 0 0 0 8.4175584,21.690631 9.8315486,9.8315486 0 0 0 8.3726004,21.562475 9.8315486,9.8315486 0 0 0 8.326092,21.43535 9.8315486,9.8315486 0 0 0 8.2780331,21.308226 9.8315486,9.8315486 0 0 0 8.2279078,21.182652 9.8315486,9.8315486 0 0 0 8.1762293,21.057078 9.8315486,9.8315486 0 0 0 8.1224872,20.932539 9.8315486,9.8315486 0 0 0 8.0677105,20.808515 9.8315486,9.8315486 0 0 0 8.0103488,20.685527 9.8315486,9.8315486 0 0 0 7.9519553,20.563054 9.8315486,9.8315486 0 0 0 7.8920113,20.441612 9.8315486,9.8315486 0 0 0 7.8299983,20.32069 a 9.8315486,9.8315486 0 0 0 -0.063561,-0.119372 9.8315486,9.8315486 0 0 0 -0.06563,-0.119372 9.8315486,9.8315486 0 0 0 -0.066662,-0.117824 9.8315486,9.8315486 0 0 0 -0.068215,-0.116787 9.8315486,9.8315486 0 0 0 -0.070279,-0.116274 9.8315486,9.8315486 0 0 0 -0.071832,-0.115237 9.8315486,9.8315486 0 0 0 -0.07338,-0.114205 9.8315486,9.8315486 0 0 0 -0.074414,-0.113173 9.8315486,9.8315486 0 0 0 -0.07648,-0.111619 9.8315486,9.8315486 0 0 0 -0.078031,-0.111104 9.8315486,9.8315486 0 0 0 -0.079581,-0.110072 9.8315486,9.8315486 0 0 0 -0.080616,-0.109038 9.8315486,9.8315486 0 0 0 -0.082682,-0.107487 9.8315486,9.8315486 0 0 0 -0.083717,-0.106452 9.8315486,9.8315486 0 0 0 -0.085783,-0.105421 9.8315486,9.8315486 0 0 0 -0.086815,-0.104386 9.8315486,9.8315486 0 0 0 -0.08785,-0.102835 9.8315486,9.8315486 0 0 0 -0.089919,-0.101804 9.8315486,9.8315486 0 0 0 -0.09095,-0.100253 9.8315486,9.8315486 0 0 0 -0.092501,-0.09922 9.8315486,9.8315486 0 0 0 -0.094051,-0.09818 9.8315486,9.8315486 0 0 0 -0.095083,-0.09663 9.8315486,9.8315486 0 0 0 -0.096118,-0.09509 9.8315486,9.8315486 0 0 0 -0.098187,-0.09405 9.8315486,9.8315486 0 0 0 -0.0987,-0.0925 9.8315486,9.8315486 0 0 0 -0.1002533,-0.09147 9.8315486,9.8315486 0 0 0 -0.1018011,-0.08992 9.8315486,9.8315486 0 0 0 -0.1028382,-0.08837 9.8315486,9.8315486 0 0 0 -0.1038675,-0.08681 9.8315486,9.8315486 0 0 0 -0.1054206,-0.08578 9.8315486,9.8315486 0 0 0 -0.1064551,-0.08423 9.8315486,9.8315486 0 0 0 -0.107487,-0.08268 9.8315486,9.8315486 0 0 0 -0.1085188,-0.08113 9.8315486,9.8315486 0 0 0 -0.1095534,-0.07958 9.8315486,9.8315486 0 0 0 -0.1111065,-0.07803 9.8315486,9.8315486 0 0 0 -0.1121357,-0.07648 9.8315486,9.8315486 0 0 0 -0.1126569,-0.07493 9.8315486,9.8315486 0 0 0 -0.1142048,-0.0739 9.8315486,9.8315486 0 0 0 -0.1147207,-0.07183 9.8315486,9.8315486 0 0 0 -0.1162711,-0.07028 9.8315486,9.8315486 0 0 0 -0.1167898,-0.06873 9.8315486,9.8315486 0 0 0 -0.1178216,-0.06667 9.8315486,9.8315486 0 0 0 -0.1188561,-0.06563 9.8315486,9.8315486 0 0 0 -0.1198906,-0.06408 9.8315486,9.8315486 0 0 0 -0.120404,-0.06201 9.8315486,9.8315486 0 0 0 -0.1214411,-0.06046 9.8315486,9.8315486 0 0 0 -0.121957,-0.05891 9.8315486,9.8315486 0 0 0 -0.1229889,-0.05684 9.8315486,9.8315486 0 0 0 -0.1240235,-0.0553 9.8315486,9.8315486 0 0 0 -0.1245393,-0.05374 9.8315486,9.8315486 0 0 0 -0.125058,-0.05219 9.8315486,9.8315486 0 0 0 -0.1260898,-0.05013 9.8315486,9.8315486 0 0 0 -0.1266084,-0.04857 9.8315486,9.8315486 0 0 0 -0.1276403,-0.04651 9.8315486,9.8315486 0 0 0 -0.042373,-0.01497 z" />
    <path
       id="path1141"
       style="display:inline;fill:#383155;fill-opacity:1;stroke:#000000;stroke-width:0.27064;stroke-opacity:1;paint-order:markers fill stroke"
       d="M 25.396426,0.13546079 A 24.864681,24.864681 0 0 0 2.3952475,15.602221 a 9.8315486,9.8315486 0 0 1 0.04237,0.015 9.8315486,9.8315486 0 0 1 0.127641,0.0465 9.8315486,9.8315486 0 0 1 0.126606,0.0486 9.8315486,9.8315486 0 0 1 0.126092,0.0501 9.8315486,9.8315486 0 0 1 0.125055,0.0522 9.8315486,9.8315486 0 0 1 0.124542,0.0537 9.8315486,9.8315486 0 0 1 0.124024,0.0553 9.8315486,9.8315486 0 0 1 0.1229889,0.0568 9.8315486,9.8315486 0 0 1 0.1219571,0.0589 9.8315486,9.8315486 0 0 1 0.1214379,0.0605 9.8315486,9.8315486 0 0 1 0.1204071,0.062 9.8315486,9.8315486 0 0 1 0.119888,0.0641 9.8315486,9.8315486 0 0 1 0.1188561,0.0656 9.8315486,9.8315486 0 0 1 0.117824,0.0667 9.8315486,9.8315486 0 0 1 0.1167868,0.0687 9.8315486,9.8315486 0 0 1 0.1162741,0.0703 9.8315486,9.8315486 0 0 1 0.1147209,0.0718 9.8315486,9.8315486 0 0 1 0.114204,0.0739 9.8315486,9.8315486 0 0 1 0.1126551,0.0749 9.8315486,9.8315486 0 0 1 0.1121381,0.0765 9.8315486,9.8315486 0 0 1 0.1111038,0.078 9.8315486,9.8315486 0 0 1 0.1095531,0.0796 9.8315486,9.8315486 0 0 1 0.108522,0.0811 9.8315486,9.8315486 0 0 1 0.107487,0.0827 9.8315486,9.8315486 0 0 1 0.1064519,0.0842 9.8315486,9.8315486 0 0 1 0.1054212,0.0858 9.8315486,9.8315486 0 0 1 0.1038698,0.0868 9.8315486,9.8315486 0 0 1 0.1028362,0.0884 9.8315486,9.8315486 0 0 1 0.1018029,0.0899 9.8315486,9.8315486 0 0 1 0.1002511,0.0915 9.8315486,9.8315486 0 0 1 0.0987,0.0925 9.8315486,9.8315486 0 0 1 0.09818,0.094 9.8315486,9.8315486 0 0 1 0.09612,0.0951 9.8315486,9.8315486 0 0 1 0.09509,0.0966 9.8315486,9.8315486 0 0 1 0.09405,0.0982 9.8315486,9.8315486 0 0 1 0.0925,0.0992 9.8315486,9.8315486 0 0 1 0.09095,0.10025 9.8315486,9.8315486 0 0 1 0.08992,0.10181 9.8315486,9.8315486 0 0 1 0.08785,0.102831 9.8315486,9.8315486 0 0 1 0.08682,0.104389 9.8315486,9.8315486 0 0 1 0.08578,0.10542 9.8315486,9.8315486 0 0 1 0.08371,0.10645 9.8315486,9.8315486 0 0 1 0.08268,0.10749 9.8315486,9.8315486 0 0 1 0.08062,0.10904 9.8315486,9.8315486 0 0 1 0.07958,0.11007 9.8315486,9.8315486 0 0 1 0.07803,0.1111 9.8315486,9.8315486 0 0 1 0.07648,0.11162 9.8315486,9.8315486 0 0 1 0.07441,0.11317 9.8315486,9.8315486 0 0 1 0.07338,0.11421 9.8315486,9.8315486 0 0 1 0.07183,0.11524 9.8315486,9.8315486 0 0 1 0.07028,0.116271 9.8315486,9.8315486 0 0 1 0.06821,0.11679 9.8315486,9.8315486 0 0 1 0.06666,0.117819 9.8315486,9.8315486 0 0 1 0.06563,0.11937 9.8315486,9.8315486 0 0 1 0.06356,0.11938 9.8315486,9.8315486 0 0 1 0.06201,0.12092 9.8315486,9.8315486 0 0 1 0.05994,0.12144 9.8315486,9.8315486 0 0 1 0.0584,0.12247 9.8315486,9.8315486 0 0 1 0.05736,0.12299 9.8315486,9.8315486 0 0 1 0.05478,0.124031 9.8315486,9.8315486 0 0 1 0.05374,0.124529 9.8315486,9.8315486 0 0 1 0.05168,0.12558 9.8315486,9.8315486 0 0 1 0.05013,0.125571 9.8315486,9.8315486 0 0 1 0.04806,0.127129 9.8315486,9.8315486 0 0 1 0.04651,0.12712 9.8315486,9.8315486 0 0 1 0.04496,0.128161 9.8315486,9.8315486 0 0 1 0.04289,0.12867 9.8315486,9.8315486 0 0 1 0.04082,0.12919 9.8315486,9.8315486 0 0 1 0.03979,0.129709 9.8315486,9.8315486 0 0 1 0.03721,0.13022 9.8315486,9.8315486 0 0 1 0.03617,0.130751 9.8315486,9.8315486 0 0 1 0.03411,0.131769 9.8315486,9.8315486 0 0 1 0.03204,0.131261 9.8315486,9.8315486 0 0 1 0.03049,0.132289 9.8315486,9.8315486 0 0 1 0.02842,0.13281 9.8315486,9.8315486 0 0 1 0.02635,0.132811 9.8315486,9.8315486 0 0 1 0.025321,0.133319 9.8315486,9.8315486 0 0 1 0.02273,0.13385 9.8315486,9.8315486 0 0 1 0.02119,0.13384 9.8315486,9.8315486 0 0 1 0.019629,0.13436 9.8315486,9.8315486 0 0 1 0.017071,0.134351 9.8315486,9.8315486 0 0 1 0.01601,0.134879 9.8315486,9.8315486 0 0 1 0.013441,0.13488 9.8315486,9.8315486 0 0 1 0.01188,0.13487 9.8315486,9.8315486 0 0 1 0.01035,0.13539 9.8315486,9.8315486 0 0 1 0.0083,0.135391 9.8315486,9.8315486 0 0 1 0.0062,0.1354 9.8315486,9.8315486 0 0 1 0.0041,0.13539 9.8315486,9.8315486 0 0 1 0.00259,0.135909 9.8315486,9.8315486 0 0 1 0.00111,0.11782 9.8315486,9.8315486 0 0 1 -0.00111,0.1354 9.8315486,9.8315486 0 0 1 -0.0031,0.1359 9.8315486,9.8315486 0 0 1 -0.0047,0.1354 9.8315486,9.8315486 0 0 1 -0.0062,0.13539 9.8315486,9.8315486 0 0 1 -0.0088,0.135391 9.8315486,9.8315486 0 0 1 -0.010351,0.135389 9.8315486,9.8315486 0 0 1 -0.01188,0.134881 9.8315486,9.8315486 0 0 1 -0.013941,0.134869 9.8315486,9.8315486 0 0 1 -0.01601,0.13488 9.8315486,9.8315486 0 0 1 -0.017571,0.134361 9.8315486,9.8315486 0 0 1 -0.01963,0.134349 9.8315486,9.8315486 0 0 1 -0.02119,0.133852 9.8315486,9.8315486 0 0 1 -0.02376,0.133318 9.8315486,9.8315486 0 0 1 -0.024789,0.133332 9.8315486,9.8315486 0 0 1 -0.02687,0.133318 9.8315486,9.8315486 0 0 1 -0.02894,0.132292 9.8315486,9.8315486 0 0 1 -0.03049,0.132299 9.8315486,9.8315486 0 0 1 -0.03255,0.131771 9.8315486,9.8315486 0 0 1 -0.03411,0.13126 9.8315486,9.8315486 0 0 1 -0.03617,0.130738 9.8315486,9.8315486 0 0 1 -0.03772,0.130231 9.8315486,9.8315486 0 0 1 -0.03979,0.129701 9.8315486,9.8315486 0 0 1 -0.04134,0.12868 9.8315486,9.8315486 0 0 1 -0.04341,0.12867 9.8315486,9.8315486 0 0 1 -0.04496,0.128159 9.8315486,9.8315486 0 0 1 -0.04651,0.127129 9.8315486,9.8315486 0 0 1 -0.04858,0.126601 9.8315486,9.8315486 0 0 1 -0.05013,0.12609 9.8315486,9.8315486 0 0 1 -0.05219,0.125571 9.8315486,9.8315486 0 0 1 -0.05323,0.12455 9.8315486,9.8315486 0 0 1 -0.05581,0.123499 9.8315486,9.8315486 0 0 1 -0.05684,0.122989 9.8315486,9.8315486 0 0 1 -0.05891,0.122481 9.8315486,9.8315486 0 0 1 -0.06046,0.121431 9.8315486,9.8315486 0 0 1 -0.06201,0.120409 9.8315486,9.8315486 0 0 1 -0.06408,0.119369 9.8315486,9.8315486 0 0 1 -0.06511,0.118862 9.8315486,9.8315486 0 0 1 -0.06718,0.117819 9.8315486,9.8315486 0 0 1 -0.06873,0.117311 9.8315486,9.8315486 0 0 1 -0.07028,0.11575 9.8315486,9.8315486 0 0 1 -0.07183,0.115239 9.8315486,9.8315486 0 0 1 -0.07338,0.113691 9.8315486,9.8315486 0 0 1 -0.07493,0.113171 9.8315486,9.8315486 0 0 1 -0.077,0.112138 9.8315486,9.8315486 0 0 1 -0.07803,0.11059 9.8315486,9.8315486 0 0 1 -0.07958,0.109551 9.8315486,9.8315486 0 0 1 -0.08113,0.10904 9.8315486,9.8315486 0 0 1 -0.08268,0.107479 9.8315486,9.8315486 0 0 1 -0.08423,0.106461 9.8315486,9.8315486 0 0 1 -0.08527,0.104899 9.8315486,9.8315486 0 0 1 -0.08733,0.104391 9.8315486,9.8315486 0 0 1 -0.08836,0.102828 9.8315486,9.8315486 0 0 1 -0.08992,0.101291 9.8315486,9.8315486 0 0 1 -0.09095,0.10025 9.8315486,9.8315486 0 0 1 -0.09302,0.0992 9.8315486,9.8315486 0 0 1 -0.09353,0.0977 9.8315486,9.8315486 0 0 1 -0.0956,0.0966 9.8315486,9.8315486 0 0 1 -0.09664,0.0951 9.8315486,9.8315486 0 0 1 -0.09767,0.094 9.8315486,9.8315486 0 0 1 -0.09922,0.092 9.8315486,9.8315486 0 0 1 -0.1007689,0.0915 9.8315486,9.8315486 0 0 1 -0.1018011,0.0894 9.8315486,9.8315486 0 0 1 -0.1028359,0.0884 9.8315486,9.8315486 0 0 1 -0.1043861,0.0868 9.8315486,9.8315486 0 0 1 -0.10542,0.0853 9.8315486,9.8315486 0 0 1 -0.106453,0.0842 9.8315486,9.8315486 0 0 1 -0.1074891,0.0822 9.8315486,9.8315486 0 0 1 -0.1090348,0.0811 9.8315486,9.8315486 0 0 1 -0.109556,0.0796 9.8315486,9.8315486 0 0 1 -0.1111041,0.0775 9.8315486,9.8315486 0 0 1 -0.1121381,0.0765 9.8315486,9.8315486 0 0 1 -0.11317,0.0749 9.8315486,9.8315486 0 0 1 -0.114205,0.0734 9.8315486,9.8315486 0 0 1 -0.1152398,0.0718 9.8315486,9.8315486 0 0 1 -0.1157552,0.0698 9.8315486,9.8315486 0 0 1 -0.1173048,0.0687 9.8315486,9.8315486 0 0 1 -0.1178222,0.0667 9.8315486,9.8315486 0 0 1 -0.1188558,0.0651 9.8315486,9.8315486 0 0 1 -0.119888,0.0636 9.8315486,9.8315486 0 0 1 -0.1209252,0.062 9.8315486,9.8315486 0 0 1 -0.121439,0.0605 9.8315486,9.8315486 0 0 1 -0.1219568,0.0584 9.8315486,9.8315486 0 0 1 -0.1235051,0.0568 9.8315486,9.8315486 0 0 1 -0.123507,0.0553 9.8315486,9.8315486 0 0 1 -0.1250579,0.0532 9.8315486,9.8315486 0 0 1 -0.1250551,0.0517 9.8315486,9.8315486 0 0 1 -0.126093,0.0501 9.8315486,9.8315486 0 0 1 -0.126606,0.0486 9.8315486,9.8315486 0 0 1 -0.12764,0.046 9.8315486,9.8315486 0 0 1 -0.117824,0.0413 A 24.864681,24.864681 0 0 0 25.415023,49.865106 24.864681,24.864681 0 0 0 50.279651,24.999961 24.864681,24.864681 0 0 0 25.415023,0.13531999 a 24.864681,24.864681 0 0 0 -0.0186,0 z" />
    <circle
       style="display:inline;opacity:0.88141;mix-blend-mode:normal;fill:url(#radialGradient1561-8);fill-opacity:1;stroke:none;stroke-width:0.212909;stroke-opacity:1;paint-order:markers fill stroke"
       id="path1129-2"
       cx="25.415176"
       cy="25.000322"
       r="25" />
    <circle
       style="display:inline;opacity:0.88141;mix-blend-mode:normal;fill:url(#radialGradient1561-9-6);fill-opacity:1;stroke:none;stroke-width:0.212909;stroke-opacity:1;paint-order:markers fill stroke"
       id="path1129-9-74"
       cx="25"
       cy="25.000322"
       r="25" />
  </g>
</svg>
