<?xml version="1.0" encoding="UTF-8" standalone="no"?>
<svg
   xmlns:dc="http://purl.org/dc/elements/1.1/"
   xmlns:cc="http://creativecommons.org/ns#"
   xmlns:rdf="http://www.w3.org/1999/02/22-rdf-syntax-ns#"
   xmlns:svg="http://www.w3.org/2000/svg"
   xmlns="http://www.w3.org/2000/svg"
   xmlns:xlink="http://www.w3.org/1999/xlink"
   xmlns:sodipodi="http://sodipodi.sourceforge.net/DTD/sodipodi-0.dtd"
   xmlns:inkscape="http://www.inkscape.org/namespaces/inkscape"
   width="50mm"
   height="50mm"
   viewBox="0 0 50 50"
   version="1.1"
   id="svg8"
   sodipodi:docname="3-6.svg"
   inkscape:version="1.0.1 (3bc2e813f5, 2020-09-07)">
  <defs
     id="defs2">
    <radialGradient
       inkscape:collect="always"
       xlink:href="#linearGradient1135"
       id="radialGradient1561-9-5-3"
       cx="42.8922"
       cy="37.994221"
       fx="42.8922"
       fy="37.994221"
       r="32.127975"
       gradientTransform="matrix(0.83015365,0.05935269,-0.05549213,0.7761569,-49.936439,13.566387)"
       gradientUnits="userSpaceOnUse" />
    <linearGradient
       inkscape:collect="always"
       id="linearGradient1135">
      <stop
         style="stop-color:#ffffff;stop-opacity:1;"
         offset="0"
         id="stop1131" />
      <stop
         style="stop-color:#ffffff;stop-opacity:0;"
         offset="1"
         id="stop1133" />
    </linearGradient>
    <radialGradient
       inkscape:collect="always"
       xlink:href="#linearGradient1135"
       id="radialGradient1561-8"
       cx="26.274075"
       cy="14.800471"
       fx="26.274075"
       fy="14.800471"
       r="32.127975"
       gradientTransform="matrix(0.77813809,0,0,0.77813812,-2.9671814,4.4120696)"
       gradientUnits="userSpaceOnUse" />
    <radialGradient
       inkscape:collect="always"
       xlink:href="#linearGradient1135"
       id="radialGradient1561-9-6"
       cx="54.447247"
       cy="49.531189"
       fx="54.447247"
       fy="49.531189"
       r="32.127975"
       gradientTransform="matrix(0.77813809,0,0,0.77813812,-3.3823634,4.4120696)"
       gradientUnits="userSpaceOnUse" />
  </defs>
  <sodipodi:namedview
     id="base"
     pagecolor="#ffffff"
     bordercolor="#666666"
     borderopacity="1.0"
     inkscape:pageopacity="0.0"
     inkscape:pageshadow="2"
     inkscape:zoom="0.98994949"
     inkscape:cx="197.39069"
     inkscape:cy="244.55246"
     inkscape:document-units="mm"
     inkscape:current-layer="layer1"
     inkscape:document-rotation="0"
     showgrid="false"
     inkscape:window-width="1920"
     inkscape:window-height="1017"
     inkscape:window-x="-8"
     inkscape:window-y="-8"
     inkscape:window-maximized="1" />
  <metadata
     id="metadata5">
    <rdf:RDF>
      <cc:Work
         rdf:about="">
        <dc:format>image/svg+xml</dc:format>
        <dc:type
           rdf:resource="http://purl.org/dc/dcmitype/StillImage" />
        <dc:title></dc:title>
      </cc:Work>
    </rdf:RDF>
  </metadata>
  <g
     inkscape:label="Layer 1"
     inkscape:groupmode="layer"
     id="layer1">
    <path
       id="path833-58"
       style="display:inline;fill:#ffffff;fill-opacity:1;stroke:#000000;stroke-width:0.27064;stroke-opacity:1;paint-order:markers fill stroke"
       d="m 0.6072381,23.319982 h 0.031006 L 1.4459456,22.63682 1.3214062,21.642563 0.8036087,21.463247 a 24.864681,24.864681 0 0 0 -0.1963706,1.856735 z" />
    <path
       id="path1071"
       style="display:inline;fill:#ffffff;fill-opacity:1;stroke:#000000;stroke-width:0.27064;stroke-opacity:1;paint-order:markers fill stroke"
       d="m 0.7369475,28.035454 0.087334,0.0067 1.1808062,-0.497125 0.2485628,-0.994257 -0.9322435,-0.8077 -0.7611929,-0.04341 a 24.864681,24.864681 0 0 0 0.1767337,2.335772 z" />
    <path
       id="path1069"
       style="display:inline;fill:#000000;fill-opacity:1;stroke:#000000;stroke-width:0.27064;stroke-opacity:1;paint-order:markers fill stroke"
       d="M 1.2986684,31.051807 2.7507758,31.024417 4.6147469,30.279242 6.0436,28.725849 6.292163,26.923891 5.609001,25.3705 4.1176186,24.314233 4.6147469,24.003657 5.609001,22.698827 5.857564,20.958882 4.8633097,19.40549 2.8127889,18.349223 1.4800535,18.266023 a 24.864681,24.864681 0 0 0 -0.16433,0.612883 24.864681,24.864681 0 0 0 -0.5121143,2.584339 l 0.5177975,0.179316 0.1245394,0.994257 -0.8077014,0.683162 h -0.031007 a 24.864681,24.864681 0 0 0 -0.056843,1.680001 24.864681,24.864681 0 0 0 0.00982,0.699698 l 0.761193,0.04341 0.9322435,0.8077 -0.2485628,0.994257 -1.1808063,0.497125 -0.087334,-0.0067 a 24.864681,24.864681 0 0 0 0.5617209,3.016353 z" />
    <path
       id="path1067"
       style="display:inline;fill:#ffffff;fill-opacity:1;stroke:#000000;stroke-width:0.27064;stroke-opacity:1;paint-order:markers fill stroke"
       d="m 2.3952447,15.602107 a 24.864681,24.864681 0 0 0 -0.9151912,2.663918 l 1.3327353,0.0832 2.0505209,1.056267 0.9942543,1.553392 -0.248563,1.739945 -0.9942541,1.30483 -0.4971283,0.310576 1.4913824,1.056267 0.683162,1.553391 -0.248563,1.801958 -1.4288531,1.553393 -1.8639711,0.745175 -1.4521074,0.02739 a 24.864681,24.864681 0 0 0 0.079066,0.307475 24.864681,24.864681 0 0 0 0.9255257,2.810166 9.8315486,9.8315486 0 0 0 0.1178216,-0.04134 9.8315486,9.8315486 0 0 0 0.1276403,-0.04599 9.8315486,9.8315486 0 0 0 0.1266084,-0.04857 9.8315486,9.8315486 0 0 0 0.1260898,-0.05013 9.8315486,9.8315486 0 0 0 0.125058,-0.05167 9.8315486,9.8315486 0 0 0 0.1250553,-0.05323 9.8315486,9.8315486 0 0 0 0.1235075,-0.0553 9.8315486,9.8315486 0 0 0 0.1235075,-0.05684 9.8315486,9.8315486 0 0 0 0.121957,-0.05839 A 9.8315486,9.8315486 0 0 0 3.541944,33.64753 9.8315486,9.8315486 0 0 0 3.6628665,33.58552 9.8315486,9.8315486 0 0 0 3.7827571,33.52196 9.8315486,9.8315486 0 0 0 3.9016106,33.45685 9.8315486,9.8315486 0 0 0 4.0194349,33.39019 9.8315486,9.8315486 0 0 0 4.1367405,33.32146 9.8315486,9.8315486 0 0 0 4.2524957,33.2517 9.8315486,9.8315486 0 0 0 4.3677324,33.17987 9.8315486,9.8315486 0 0 0 4.4819371,33.10649 9.8315486,9.8315486 0 0 0 4.59511,33.03156 9.8315486,9.8315486 0 0 0 4.7072483,32.95508 9.8315486,9.8315486 0 0 0 4.8183522,32.87757 9.8315486,9.8315486 0 0 0 4.9279056,32.79799 9.8315486,9.8315486 0 0 0 5.036943,32.71686 9.8315486,9.8315486 0 0 0 5.14443,32.6347 9.8315486,9.8315486 0 0 0 5.250882,32.55047 9.8315486,9.8315486 0 0 0 5.356303,32.4652 a 9.8315486,9.8315486 0 0 0 0.104386,-0.08682 9.8315486,9.8315486 0 0 0 0.102836,-0.08837 9.8315486,9.8315486 0 0 0 0.101803,-0.0894 9.8315486,9.8315486 0 0 0 0.10077,-0.09147 9.8315486,9.8315486 0 0 0 0.09922,-0.09199 9.8315486,9.8315486 0 0 0 0.09767,-0.09405 9.8315486,9.8315486 0 0 0 0.09663,-0.09508 9.8315486,9.8315486 0 0 0 0.0956,-0.09664 9.8315486,9.8315486 0 0 0 0.09354,-0.09767 9.8315486,9.8315486 0 0 0 0.09302,-0.09922 9.8315486,9.8315486 0 0 0 0.09095,-0.100251 9.8315486,9.8315486 0 0 0 0.08992,-0.101287 9.8315486,9.8315486 0 0 0 0.08837,-0.102836 9.8315486,9.8315486 0 0 0 0.08733,-0.104386 9.8315486,9.8315486 0 0 0 0.08526,-0.104902 9.8315486,9.8315486 0 0 0 0.08423,-0.106455 9.8315486,9.8315486 0 0 0 0.08268,-0.107487 9.8315486,9.8315486 0 0 0 0.08113,-0.109037 9.8315486,9.8315486 0 0 0 0.07958,-0.109554 9.8315486,9.8315486 0 0 0 0.07803,-0.110588 9.8315486,9.8315486 0 0 0 0.077,-0.112138 9.8315486,9.8315486 0 0 0 0.07493,-0.11317 9.8315486,9.8315486 0 0 0 0.07338,-0.113689 9.8315486,9.8315486 0 0 0 0.07183,-0.115239 9.8315486,9.8315486 0 0 0 0.07028,-0.115756 9.8315486,9.8315486 0 0 0 0.06873,-0.117303 9.8315486,9.8315486 0 0 0 0.06718,-0.117824 9.8315486,9.8315486 0 0 0 0.06511,-0.118856 9.8315486,9.8315486 0 0 0 0.06408,-0.119372 9.8315486,9.8315486 0 0 0 0.06201,-0.120407 9.8315486,9.8315486 0 0 0 0.06046,-0.121438 9.8315486,9.8315486 0 0 0 0.05891,-0.122473 9.8315486,9.8315486 0 0 0 0.05684,-0.122989 9.8315486,9.8315486 0 0 0 0.05581,-0.123508 9.8315486,9.8315486 0 0 0 0.05323,-0.124539 9.8315486,9.8315486 0 0 0 0.05219,-0.125574 9.8315486,9.8315486 0 0 0 0.05012,-0.126092 9.8315486,9.8315486 0 0 0 0.04858,-0.126606 9.8315486,9.8315486 0 0 0 0.04651,-0.127124 9.8315486,9.8315486 0 0 0 0.04496,-0.128159 9.8315486,9.8315486 0 0 0 0.04341,-0.128672 9.8315486,9.8315486 0 0 0 0.04134,-0.128675 9.8315486,9.8315486 0 0 0 0.03979,-0.12971 9.8315486,9.8315486 0 0 0 0.03772,-0.130222 9.8315486,9.8315486 0 0 0 0.03617,-0.130741 9.8315486,9.8315486 0 0 0 0.03411,-0.13126 9.8315486,9.8315486 0 0 0 0.03256,-0.131773 9.8315486,9.8315486 0 0 0 0.03049,-0.132292 9.8315486,9.8315486 0 0 0 0.02894,-0.132292 9.8315486,9.8315486 0 0 0 0.02687,-0.133326 9.8315486,9.8315486 0 0 0 0.02479,-0.133326 9.8315486,9.8315486 0 0 0 0.02379,-0.133324 9.8315486,9.8315486 0 0 0 0.02119,-0.133841 9.8315486,9.8315486 0 0 0 0.01963,-0.13436 9.8315486,9.8315486 0 0 0 0.01757,-0.134358 9.8315486,9.8315486 0 0 0 0.01601,-0.134874 9.8315486,9.8315486 0 0 0 0.01394,-0.134877 9.8315486,9.8315486 0 0 0 0.01188,-0.134874 9.8315486,9.8315486 0 0 0 0.01035,-0.135393 9.8315486,9.8315486 0 0 0 0.0088,-0.135392 9.8315486,9.8315486 0 0 0 0.0062,-0.135393 9.8315486,9.8315486 0 0 0 0.0047,-0.135392 9.8315486,9.8315486 0 0 0 0.0031,-0.135909 9.8315486,9.8315486 0 0 0 0.0011,-0.135392 9.8315486,9.8315486 0 0 0 -0.0011,-0.117822 9.8315486,9.8315486 0 0 0 -0.0026,-0.135911 9.8315486,9.8315486 0 0 0 -0.0041,-0.13539 9.8315486,9.8315486 0 0 0 -0.0062,-0.135393 9.8315486,9.8315486 0 0 0 -0.0083,-0.135417 9.8315486,9.8315486 0 0 0 -0.01034,-0.135393 9.8315486,9.8315486 0 0 0 -0.01188,-0.134877 9.8315486,9.8315486 0 0 0 -0.01344,-0.134874 9.8315486,9.8315486 0 0 0 -0.01601,-0.134876 9.8315486,9.8315486 0 0 0 -0.01707,-0.134358 9.8315486,9.8315486 0 0 0 -0.01963,-0.134358 9.8315486,9.8315486 0 0 0 -0.02119,-0.133842 9.8315486,9.8315486 0 0 0 -0.02273,-0.133843 9.8315486,9.8315486 0 0 0 -0.02532,-0.133326 9.8315486,9.8315486 0 0 0 -0.02635,-0.132807 9.8315486,9.8315486 0 0 0 -0.02842,-0.132808 9.8315486,9.8315486 0 0 0 -0.03049,-0.132292 9.8315486,9.8315486 0 0 0 -0.03204,-0.131259 9.8315486,9.8315486 0 0 0 -0.03411,-0.131774 9.8315486,9.8315486 0 0 0 -0.03617,-0.130741 9.8315486,9.8315486 0 0 0 -0.03721,-0.130225 9.8315486,9.8315486 0 0 0 -0.03979,-0.129709 9.8315486,9.8315486 0 0 0 -0.04083,-0.129191 9.8315486,9.8315486 0 0 0 -0.04289,-0.128675 9.8315486,9.8315486 0 0 0 -0.04496,-0.128156 9.8315486,9.8315486 0 0 0 -0.04651,-0.127124 9.8315486,9.8315486 0 0 0 -0.04806,-0.127125 9.8315486,9.8315486 0 0 0 -0.05012,-0.125574 9.8315486,9.8315486 0 0 0 -0.05168,-0.125574 9.8315486,9.8315486 0 0 0 -0.05374,-0.124539 9.8315486,9.8315486 0 0 0 -0.05478,-0.124023 9.8315486,9.8315486 0 0 0 -0.05736,-0.122989 9.8315486,9.8315486 0 0 0 -0.05839,-0.122473 9.8315486,9.8315486 0 0 0 -0.05994,-0.121441 9.8315486,9.8315486 0 0 0 -0.06201,-0.120923 9.8315486,9.8315486 0 0 0 -0.06356,-0.119372 9.8315486,9.8315486 0 0 0 -0.06563,-0.119372 9.8315486,9.8315486 0 0 0 -0.06666,-0.117824 9.8315486,9.8315486 0 0 0 -0.06822,-0.116787 9.8315486,9.8315486 0 0 0 -0.07028,-0.116274 9.8315486,9.8315486 0 0 0 -0.07183,-0.115237 9.8315486,9.8315486 0 0 0 -0.07338,-0.114205 9.8315486,9.8315486 0 0 0 -0.07441,-0.113172 9.8315486,9.8315486 0 0 0 -0.07648,-0.11162 9.8315486,9.8315486 0 0 0 -0.07803,-0.111104 9.8315486,9.8315486 0 0 0 -0.07958,-0.110072 9.8315486,9.8315486 0 0 0 -0.08062,-0.109037 9.8315486,9.8315486 0 0 0 -0.08268,-0.107487 9.8315486,9.8315486 0 0 0 -0.08372,-0.106453 9.8315486,9.8315486 0 0 0 -0.08578,-0.10542 9.8315486,9.8315486 0 0 0 -0.08681,-0.104387 9.8315486,9.8315486 0 0 0 -0.08785,-0.102835 9.8315486,9.8315486 0 0 0 -0.08992,-0.101804 9.8315486,9.8315486 0 0 0 -0.09095,-0.100253 9.8315486,9.8315486 0 0 0 -0.0925,-0.09922 9.8315486,9.8315486 0 0 0 -0.09405,-0.09818 9.8315486,9.8315486 0 0 0 -0.09508,-0.09663 9.8315486,9.8315486 0 0 0 -0.09612,-0.09509 9.8315486,9.8315486 0 0 0 -0.09819,-0.09405 9.8315486,9.8315486 0 0 0 -0.0987,-0.0925 9.8315486,9.8315486 0 0 0 -0.100253,-0.09147 9.8315486,9.8315486 0 0 0 -0.101802,-0.08992 9.8315486,9.8315486 0 0 0 -0.102838,-0.08837 9.8315486,9.8315486 0 0 0 -0.103867,-0.08682 9.8315486,9.8315486 0 0 0 -0.105421,-0.08578 9.8315486,9.8315486 0 0 0 -0.106455,-0.08423 9.8315486,9.8315486 0 0 0 -0.107487,-0.08268 9.8315486,9.8315486 0 0 0 -0.1085188,-0.08113 9.8315486,9.8315486 0 0 0 -0.1095534,-0.07958 9.8315486,9.8315486 0 0 0 -0.1111065,-0.07803 9.8315486,9.8315486 0 0 0 -0.1121357,-0.07648 9.8315486,9.8315486 0 0 0 -0.1126569,-0.07493 9.8315486,9.8315486 0 0 0 -0.1142048,-0.0739 9.8315486,9.8315486 0 0 0 -0.1147207,-0.07183 9.8315486,9.8315486 0 0 0 -0.1162711,-0.07028 9.8315486,9.8315486 0 0 0 -0.1167898,-0.06873 9.8315486,9.8315486 0 0 0 -0.1178216,-0.06667 9.8315486,9.8315486 0 0 0 -0.1188561,-0.06563 9.8315486,9.8315486 0 0 0 -0.1198906,-0.06408 9.8315486,9.8315486 0 0 0 -0.120404,-0.06201 9.8315486,9.8315486 0 0 0 -0.1214411,-0.06046 9.8315486,9.8315486 0 0 0 -0.121957,-0.05891 9.8315486,9.8315486 0 0 0 -0.1229889,-0.05684 9.8315486,9.8315486 0 0 0 -0.1240235,-0.0553 9.8315486,9.8315486 0 0 0 -0.1245393,-0.05374 9.8315486,9.8315486 0 0 0 -0.125058,-0.05219 9.8315486,9.8315486 0 0 0 -0.1260898,-0.05013 9.8315486,9.8315486 0 0 0 -0.1266084,-0.04857 9.8315486,9.8315486 0 0 0 -0.1276403,-0.04651 9.8315486,9.8315486 0 0 0 -0.042373,-0.01497 z" />
    <path
       id="path1141"
       style="display:inline;fill:#cf330c;fill-opacity:1;stroke:#000000;stroke-width:0.27064;stroke-opacity:1;paint-order:markers fill stroke"
       d="M 25.396427,0.13546079 A 24.864681,24.864681 0 0 0 2.3952472,15.60222 a 9.8315486,9.8315486 0 0 1 0.04237,0.015 9.8315486,9.8315486 0 0 1 0.127641,0.0465 9.8315486,9.8315486 0 0 1 0.126606,0.0486 9.8315486,9.8315486 0 0 1 0.126092,0.0501 9.8315486,9.8315486 0 0 1 0.125055,0.0522 9.8315486,9.8315486 0 0 1 0.124542,0.0537 9.8315486,9.8315486 0 0 1 0.124024,0.0553 9.8315486,9.8315486 0 0 1 0.1229889,0.0568 9.8315486,9.8315486 0 0 1 0.1219571,0.0589 9.8315486,9.8315486 0 0 1 0.1214379,0.0605 9.8315486,9.8315486 0 0 1 0.1204071,0.062 9.8315486,9.8315486 0 0 1 0.119888,0.0641 9.8315486,9.8315486 0 0 1 0.1188561,0.0656 9.8315486,9.8315486 0 0 1 0.117824,0.0667 9.8315486,9.8315486 0 0 1 0.1167868,0.0687 9.8315486,9.8315486 0 0 1 0.1162741,0.0703 9.8315486,9.8315486 0 0 1 0.1147209,0.0718 9.8315486,9.8315486 0 0 1 0.114204,0.0739 9.8315486,9.8315486 0 0 1 0.1126551,0.0749 9.8315486,9.8315486 0 0 1 0.1121381,0.0765 9.8315486,9.8315486 0 0 1 0.1111038,0.078 9.8315486,9.8315486 0 0 1 0.1095531,0.0796 9.8315486,9.8315486 0 0 1 0.1085218,0.0811 9.8315486,9.8315486 0 0 1 0.107487,0.0827 9.8315486,9.8315486 0 0 1 0.106452,0.0842 9.8315486,9.8315486 0 0 1 0.105421,0.0858 9.8315486,9.8315486 0 0 1 0.10387,0.0868 9.8315486,9.8315486 0 0 1 0.102836,0.0884 9.8315486,9.8315486 0 0 1 0.101803,0.0899 9.8315486,9.8315486 0 0 1 0.100251,0.0915 9.8315486,9.8315486 0 0 1 0.0987,0.0925 9.8315486,9.8315486 0 0 1 0.09818,0.094 9.8315486,9.8315486 0 0 1 0.09612,0.0951 9.8315486,9.8315486 0 0 1 0.09509,0.0966 9.8315486,9.8315486 0 0 1 0.09405,0.0982 9.8315486,9.8315486 0 0 1 0.0925,0.0992 9.8315486,9.8315486 0 0 1 0.09095,0.10025 9.8315486,9.8315486 0 0 1 0.08992,0.10181 9.8315486,9.8315486 0 0 1 0.08785,0.102831 9.8315486,9.8315486 0 0 1 0.08682,0.104389 9.8315486,9.8315486 0 0 1 0.08578,0.10542 9.8315486,9.8315486 0 0 1 0.08371,0.10645 9.8315486,9.8315486 0 0 1 0.08268,0.10749 9.8315486,9.8315486 0 0 1 0.08062,0.10904 9.8315486,9.8315486 0 0 1 0.07958,0.11007 9.8315486,9.8315486 0 0 1 0.07803,0.1111 9.8315486,9.8315486 0 0 1 0.07648,0.11162 9.8315486,9.8315486 0 0 1 0.07441,0.11317 9.8315486,9.8315486 0 0 1 0.07338,0.11421 9.8315486,9.8315486 0 0 1 0.07183,0.11524 9.8315486,9.8315486 0 0 1 0.07028,0.116271 9.8315486,9.8315486 0 0 1 0.06821,0.11679 9.8315486,9.8315486 0 0 1 0.06666,0.117819 9.8315486,9.8315486 0 0 1 0.06563,0.11937 9.8315486,9.8315486 0 0 1 0.06356,0.11938 9.8315486,9.8315486 0 0 1 0.06201,0.12092 9.8315486,9.8315486 0 0 1 0.05994,0.12144 9.8315486,9.8315486 0 0 1 0.0584,0.12247 9.8315486,9.8315486 0 0 1 0.05736,0.12299 9.8315486,9.8315486 0 0 1 0.05478,0.124031 9.8315486,9.8315486 0 0 1 0.05374,0.124529 9.8315486,9.8315486 0 0 1 0.05168,0.12558 9.8315486,9.8315486 0 0 1 0.05013,0.125571 9.8315486,9.8315486 0 0 1 0.04806,0.127129 9.8315486,9.8315486 0 0 1 0.04651,0.12712 9.8315486,9.8315486 0 0 1 0.04496,0.128161 9.8315486,9.8315486 0 0 1 0.04289,0.12867 9.8315486,9.8315486 0 0 1 0.04082,0.12919 9.8315486,9.8315486 0 0 1 0.03979,0.129709 9.8315486,9.8315486 0 0 1 0.03721,0.13022 9.8315486,9.8315486 0 0 1 0.03617,0.130751 9.8315486,9.8315486 0 0 1 0.03411,0.131769 9.8315486,9.8315486 0 0 1 0.03204,0.131261 9.8315486,9.8315486 0 0 1 0.03049,0.132289 9.8315486,9.8315486 0 0 1 0.02842,0.13281 9.8315486,9.8315486 0 0 1 0.02635,0.132811 9.8315486,9.8315486 0 0 1 0.02532,0.133319 9.8315486,9.8315486 0 0 1 0.02273,0.13385 9.8315486,9.8315486 0 0 1 0.02119,0.13384 9.8315486,9.8315486 0 0 1 0.01963,0.13436 9.8315486,9.8315486 0 0 1 0.01707,0.134351 9.8315486,9.8315486 0 0 1 0.01601,0.134879 9.8315486,9.8315486 0 0 1 0.01344,0.13488 9.8315486,9.8315486 0 0 1 0.01188,0.13487 9.8315486,9.8315486 0 0 1 0.01035,0.13539 9.8315486,9.8315486 0 0 1 0.0083,0.135391 9.8315486,9.8315486 0 0 1 0.0062,0.1354 9.8315486,9.8315486 0 0 1 0.0041,0.13539 9.8315486,9.8315486 0 0 1 0.0026,0.135909 9.8315486,9.8315486 0 0 1 0.0011,0.11782 9.8315486,9.8315486 0 0 1 -0.0011,0.1354 9.8315486,9.8315486 0 0 1 -0.0031,0.1359 9.8315486,9.8315486 0 0 1 -0.0047,0.1354 9.8315486,9.8315486 0 0 1 -0.0062,0.13539 9.8315486,9.8315486 0 0 1 -0.0088,0.135391 9.8315486,9.8315486 0 0 1 -0.01035,0.135389 9.8315486,9.8315486 0 0 1 -0.01188,0.134881 9.8315486,9.8315486 0 0 1 -0.01394,0.134869 9.8315486,9.8315486 0 0 1 -0.01601,0.13488 9.8315486,9.8315486 0 0 1 -0.01757,0.134361 9.8315486,9.8315486 0 0 1 -0.01963,0.134349 9.8315486,9.8315486 0 0 1 -0.02119,0.133852 9.8315486,9.8315486 0 0 1 -0.02376,0.133318 9.8315486,9.8315486 0 0 1 -0.02479,0.133332 9.8315486,9.8315486 0 0 1 -0.02687,0.133318 9.8315486,9.8315486 0 0 1 -0.02894,0.132292 9.8315486,9.8315486 0 0 1 -0.03049,0.132299 9.8315486,9.8315486 0 0 1 -0.03255,0.131771 9.8315486,9.8315486 0 0 1 -0.03411,0.13126 9.8315486,9.8315486 0 0 1 -0.03617,0.130738 9.8315486,9.8315486 0 0 1 -0.03772,0.130231 9.8315486,9.8315486 0 0 1 -0.03979,0.129701 9.8315486,9.8315486 0 0 1 -0.04134,0.12868 9.8315486,9.8315486 0 0 1 -0.04341,0.12867 9.8315486,9.8315486 0 0 1 -0.04496,0.128159 9.8315486,9.8315486 0 0 1 -0.04651,0.127129 9.8315486,9.8315486 0 0 1 -0.04858,0.126601 9.8315486,9.8315486 0 0 1 -0.05013,0.12609 9.8315486,9.8315486 0 0 1 -0.05219,0.125571 9.8315486,9.8315486 0 0 1 -0.05323,0.12455 9.8315486,9.8315486 0 0 1 -0.05581,0.123499 9.8315486,9.8315486 0 0 1 -0.05684,0.122989 9.8315486,9.8315486 0 0 1 -0.05891,0.122481 9.8315486,9.8315486 0 0 1 -0.06046,0.121431 9.8315486,9.8315486 0 0 1 -0.06201,0.120409 9.8315486,9.8315486 0 0 1 -0.06408,0.119369 9.8315486,9.8315486 0 0 1 -0.06511,0.118862 9.8315486,9.8315486 0 0 1 -0.06718,0.117819 9.8315486,9.8315486 0 0 1 -0.06873,0.117311 9.8315486,9.8315486 0 0 1 -0.07028,0.11575 9.8315486,9.8315486 0 0 1 -0.07183,0.115239 9.8315486,9.8315486 0 0 1 -0.07338,0.113691 9.8315486,9.8315486 0 0 1 -0.07493,0.113171 9.8315486,9.8315486 0 0 1 -0.077,0.112138 9.8315486,9.8315486 0 0 1 -0.07803,0.11059 9.8315486,9.8315486 0 0 1 -0.07958,0.109551 9.8315486,9.8315486 0 0 1 -0.08113,0.10904 9.8315486,9.8315486 0 0 1 -0.08268,0.107479 9.8315486,9.8315486 0 0 1 -0.08423,0.106461 9.8315486,9.8315486 0 0 1 -0.08527,0.104899 9.8315486,9.8315486 0 0 1 -0.08733,0.104391 9.8315486,9.8315486 0 0 1 -0.08836,0.102828 9.8315486,9.8315486 0 0 1 -0.08992,0.101291 9.8315486,9.8315486 0 0 1 -0.09095,0.10025 9.8315486,9.8315486 0 0 1 -0.09302,0.0992 9.8315486,9.8315486 0 0 1 -0.09353,0.0977 9.8315486,9.8315486 0 0 1 -0.0956,0.0966 9.8315486,9.8315486 0 0 1 -0.09664,0.0951 9.8315486,9.8315486 0 0 1 -0.09767,0.094 9.8315486,9.8315486 0 0 1 -0.09922,0.092 9.8315486,9.8315486 0 0 1 -0.100769,0.0915 9.8315486,9.8315486 0 0 1 -0.101801,0.0894 9.8315486,9.8315486 0 0 1 -0.102836,0.0884 9.8315486,9.8315486 0 0 1 -0.104386,0.0868 9.8315486,9.8315486 0 0 1 -0.10542,0.0853 9.8315486,9.8315486 0 0 1 -0.106453,0.0842 9.8315486,9.8315486 0 0 1 -0.107489,0.0822 9.8315486,9.8315486 0 0 1 -0.1090346,0.0811 9.8315486,9.8315486 0 0 1 -0.109556,0.0796 9.8315486,9.8315486 0 0 1 -0.1111041,0.0775 9.8315486,9.8315486 0 0 1 -0.1121381,0.0765 9.8315486,9.8315486 0 0 1 -0.11317,0.0749 9.8315486,9.8315486 0 0 1 -0.114205,0.0734 9.8315486,9.8315486 0 0 1 -0.1152398,0.0718 9.8315486,9.8315486 0 0 1 -0.1157552,0.0698 9.8315486,9.8315486 0 0 1 -0.1173048,0.0687 9.8315486,9.8315486 0 0 1 -0.1178222,0.0667 9.8315486,9.8315486 0 0 1 -0.1188558,0.0651 9.8315486,9.8315486 0 0 1 -0.119888,0.0636 9.8315486,9.8315486 0 0 1 -0.1209252,0.062 9.8315486,9.8315486 0 0 1 -0.121439,0.0605 9.8315486,9.8315486 0 0 1 -0.1219568,0.0584 9.8315486,9.8315486 0 0 1 -0.1235051,0.0568 9.8315486,9.8315486 0 0 1 -0.123507,0.0553 9.8315486,9.8315486 0 0 1 -0.1250579,0.0532 9.8315486,9.8315486 0 0 1 -0.1250551,0.0517 9.8315486,9.8315486 0 0 1 -0.126093,0.0501 9.8315486,9.8315486 0 0 1 -0.126606,0.0486 9.8315486,9.8315486 0 0 1 -0.12764,0.046 9.8315486,9.8315486 0 0 1 -0.117824,0.0413 A 24.864681,24.864681 0 0 0 25.415034,49.865105 24.864681,24.864681 0 0 0 50.279662,24.99996 24.864681,24.864681 0 0 0 25.415034,0.13531999 a 24.864681,24.864681 0 0 0 -0.0186,0 z" />
    <circle
       style="display:inline;opacity:0.88141;mix-blend-mode:normal;fill:url(#radialGradient1561-8);fill-opacity:1;stroke:none;stroke-width:0.212909;stroke-opacity:1;paint-order:markers fill stroke"
       id="path1129-2"
       cx="25.415176"
       cy="25.00032"
       r="25" />
    <circle
       style="display:inline;opacity:0.88141;mix-blend-mode:normal;fill:url(#radialGradient1561-9-6);fill-opacity:1;stroke:none;stroke-width:0.212909;stroke-opacity:1;paint-order:markers fill stroke"
       id="path1129-9-74"
       cx="25"
       cy="25.00032"
       r="25" />
  </g>
</svg>
