<?xml version="1.0" encoding="UTF-8" standalone="no"?>
<svg
   xmlns:dc="http://purl.org/dc/elements/1.1/"
   xmlns:cc="http://creativecommons.org/ns#"
   xmlns:rdf="http://www.w3.org/1999/02/22-rdf-syntax-ns#"
   xmlns:svg="http://www.w3.org/2000/svg"
   xmlns="http://www.w3.org/2000/svg"
   xmlns:xlink="http://www.w3.org/1999/xlink"
   xmlns:sodipodi="http://sodipodi.sourceforge.net/DTD/sodipodi-0.dtd"
   xmlns:inkscape="http://www.inkscape.org/namespaces/inkscape"
   width="50mm"
   height="50mm"
   viewBox="0 0 50 50"
   version="1.1"
   id="svg8"
   inkscape:version="1.0.1 (3bc2e813f5, 2020-09-07)"
   sodipodi:docname="4-2.svg">
  <defs
     id="defs2">
    <radialGradient
       inkscape:collect="always"
       xlink:href="#linearGradient1135"
       id="radialGradient1561-45"
       cx="26.274075"
       cy="14.800471"
       fx="26.274075"
       fy="14.800471"
       r="32.127975"
       gradientTransform="matrix(0.77813809,0,0,0.77813812,-3.3823558,4.4117557)"
       gradientUnits="userSpaceOnUse" />
    <linearGradient
       inkscape:collect="always"
       id="linearGradient1135">
      <stop
         style="stop-color:#ffffff;stop-opacity:1;"
         offset="0"
         id="stop1131" />
      <stop
         style="stop-color:#ffffff;stop-opacity:0;"
         offset="1"
         id="stop1133" />
    </linearGradient>
    <radialGradient
       inkscape:collect="always"
       xlink:href="#linearGradient1135"
       id="radialGradient1561-9-13"
       cx="54.447247"
       cy="49.531189"
       fx="54.447247"
       fy="49.531189"
       r="32.127975"
       gradientTransform="matrix(0.77813809,0,0,0.77813812,-3.3823558,4.4117557)"
       gradientUnits="userSpaceOnUse" />
  </defs>
  <sodipodi:namedview
     id="base"
     pagecolor="#ffffff"
     bordercolor="#666666"
     borderopacity="1.0"
     inkscape:pageopacity="0.0"
     inkscape:pageshadow="2"
     inkscape:zoom="0.7"
     inkscape:cx="-49.119871"
     inkscape:cy="149.22686"
     inkscape:document-units="mm"
     inkscape:current-layer="layer1"
     inkscape:document-rotation="0"
     showgrid="false"
     inkscape:window-width="1920"
     inkscape:window-height="1017"
     inkscape:window-x="-8"
     inkscape:window-y="-8"
     inkscape:window-maximized="1" />
  <metadata
     id="metadata5">
    <rdf:RDF>
      <cc:Work
         rdf:about="">
        <dc:format>image/svg+xml</dc:format>
        <dc:type
           rdf:resource="http://purl.org/dc/dcmitype/StillImage" />
        <dc:title></dc:title>
      </cc:Work>
    </rdf:RDF>
  </metadata>
  <g
     inkscape:label="Layer 1"
     inkscape:groupmode="layer"
     id="layer1">
    <path
       id="path833-53"
       style="display:inline;fill:#ffffff;fill-opacity:1;stroke:#000000;stroke-width:0.27064;stroke-opacity:1;paint-order:markers fill stroke"
       d="m 49.731373,22.432712 -0.256315,0.160197 0.291455,0.206706 a 24.864681,24.864681 0 0 0 -0.03514,-0.366903 z" />
    <path
       id="path1024"
       style="display:inline;fill:#ffffff;fill-opacity:1;stroke:#000000;stroke-width:0.27064;stroke-opacity:1;paint-order:markers fill stroke"
       d="m 46.895887,20.146546 -0.550871,0.832508 -0.991153,1.236099 -0.550354,0.882634 -1.624709,1.715659 3.579112,-0.176734 0.02739,-1.110009 0.137977,-1.841749 0.05478,-1.437639 z" />
    <path
       id="path1122"
       style="display:inline;fill:#ffffff;fill-opacity:1;stroke:#000000;stroke-width:0.27064;stroke-opacity:1;paint-order:markers fill stroke"
       d="m 49.769098,22.828552 v 1.885675 l 0.09302,-0.01035 a 24.86468,24.86468 0 0 0 -0.09302,-1.875338 z" />
    <path
       id="path1120"
       style="display:inline;fill:#000000;fill-opacity:1;stroke:#000000;stroke-width:0.27064;stroke-opacity:1;paint-order:markers fill stroke"
       d="m 48.677691,17.41183 -1.303279,-0.320394 -0.768948,-0.197921 -0.373102,0.02222 -0.483174,0.746724 -1.318265,2.174544 -0.658876,1.142565 -0.856795,1.296046 -1.032495,1.186492 -0.790651,0.768427 -0.417544,0.681096 -0.02222,1.01079 -0.0217,1.076421 0.241329,0.395325 0.02222,0.08785 0.790649,0.08785 1.845365,-0.02223 1.471745,-0.02169 h 0.768946 l 0.219625,0.219625 -0.241329,1.2299 -0.08785,0.505394 0.263549,0.241845 h 3.486092 a 24.86468,24.86468 0 0 0 0.174149,-1.009756 24.86468,24.86468 0 0 0 0.279053,-3.71347 24.86468,24.86468 0 0 0 -0.0021,-0.29559 l -0.09302,0.01035 v -1.885675 a 24.86468,24.86468 0 0 0 -0.0026,-0.02894 l -0.291454,-0.206706 0.256315,-0.160197 a 24.86468,24.86468 0 0 0 -1.053682,-5.020882 z m -1.781804,2.734716 0.08217,0.100769 -0.05478,1.437639 -0.137977,1.841749 -0.02739,1.110009 -3.579112,0.176734 1.624709,-1.715659 0.550354,-0.882634 0.991153,-1.236099 z" />
    <path
       id="path1118"
       style="display:inline;fill:#ffffff;fill-opacity:1;stroke:#000000;stroke-width:0.27064;stroke-opacity:1;paint-order:markers fill stroke"
       d="m 45.787944,13.354714 a 9.8315486,9.8315486 0 0 0 -0.117822,0.001 9.8315486,9.8315486 0 0 0 -0.135392,0.0031 9.8315486,9.8315486 0 0 0 -0.135393,0.0036 9.8315486,9.8315486 0 0 0 -0.135908,0.0062 9.8315486,9.8315486 0 0 0 -0.135393,0.0078 9.8315486,9.8315486 0 0 0 -0.134874,0.01033 9.8315486,9.8315486 0 0 0 -0.135392,0.01188 9.8315486,9.8315486 0 0 0 -0.134877,0.01344 9.8315486,9.8315486 0 0 0 -0.134877,0.0155 9.8315486,9.8315486 0 0 0 -0.134358,0.01757 9.8315486,9.8315486 0 0 0 -0.134358,0.01964 9.8315486,9.8315486 0 0 0 -0.133842,0.02119 9.8315486,9.8315486 0 0 0 -0.133326,0.02274 9.8315486,9.8315486 0 0 0 -0.133324,0.0248 9.8315486,9.8315486 0 0 0 -0.133326,0.02687 9.8315486,9.8315486 0 0 0 -0.132292,0.02842 9.8315486,9.8315486 0 0 0 -0.132291,0.03049 9.8315486,9.8315486 0 0 0 -0.131773,0.03204 9.8315486,9.8315486 0 0 0 -0.13126,0.03411 9.8315486,9.8315486 0 0 0 -0.130741,0.03566 9.8315486,9.8315486 0 0 0 -0.130226,0.03772 9.8315486,9.8315486 0 0 0 -0.129706,0.03927 9.8315486,9.8315486 0 0 0 -0.12971,0.04134 9.8315486,9.8315486 0 0 0 -0.128156,0.04289 9.8315486,9.8315486 0 0 0 -0.128159,0.04496 9.8315486,9.8315486 0 0 0 -0.12764,0.04651 9.8315486,9.8315486 0 0 0 -0.126606,0.04806 9.8315486,9.8315486 0 0 0 -0.126092,0.05013 9.8315486,9.8315486 0 0 0 -0.125574,0.05168 9.8315486,9.8315486 0 0 0 -0.12454,0.05374 9.8315486,9.8315486 0 0 0 -0.124023,0.05478 9.8315486,9.8315486 0 0 0 -0.122989,0.05684 9.8315486,9.8315486 0 0 0 -0.121957,0.05891 9.8315486,9.8315486 0 0 0 -0.121957,0.05995 9.8315486,9.8315486 0 0 0 -0.120404,0.06201 9.8315486,9.8315486 0 0 0 -0.119891,0.06356 9.8315486,9.8315486 0 0 0 -0.118856,0.06511 9.8315486,9.8315486 0 0 0 -0.117821,0.06718 9.8315486,9.8315486 0 0 0 -0.117306,0.06821 9.8315486,9.8315486 0 0 0 -0.116271,0.07028 9.8315486,9.8315486 0 0 0 -0.114723,0.07183 9.8315486,9.8315486 0 0 0 -0.114205,0.07286 9.8315486,9.8315486 0 0 0 -0.11317,0.07493 9.8315486,9.8315486 0 0 0 -0.112139,0.07648 9.8315486,9.8315486 0 0 0 -0.111104,0.07803 9.8315486,9.8315486 0 0 0 -0.109556,0.07906 9.8315486,9.8315486 0 0 0 -0.109034,0.08113 9.8315486,9.8315486 0 0 0 -0.107487,0.08268 9.8315486,9.8315486 0 0 0 -0.106971,0.08372 9.8315486,9.8315486 0 0 0 -0.104905,0.08527 9.8315486,9.8315486 0 0 0 -0.104386,0.08682 9.8315486,9.8315486 0 0 0 -0.102836,0.08837 9.8315486,9.8315486 0 0 0 -0.101801,0.08992 9.8315486,9.8315486 0 0 0 -0.100769,0.09095 9.8315486,9.8315486 0 0 0 -0.09922,0.0925 9.8315486,9.8315486 0 0 0 -0.09767,0.09353 9.8315486,9.8315486 0 0 0 -0.09664,0.09508 9.8315486,9.8315486 0 0 0 -0.0956,0.09663 9.8315486,9.8315486 0 0 0 -0.09405,0.09767 9.8315486,9.8315486 0 0 0 -0.0925,0.09922 9.8315486,9.8315486 0 0 0 -0.09095,0.100252 9.8315486,9.8315486 0 0 0 -0.08992,0.101802 9.8315486,9.8315486 0 0 0 -0.08837,0.102837 9.8315486,9.8315486 0 0 0 -0.08733,0.103869 9.8315486,9.8315486 0 0 0 -0.08527,0.10542 9.8315486,9.8315486 0 0 0 -0.08423,0.106453 9.8315486,9.8315486 0 0 0 -0.08268,0.107487 9.8315486,9.8315486 0 0 0 -0.08113,0.108521 9.8315486,9.8315486 0 0 0 -0.07958,0.109554 9.8315486,9.8315486 0 0 0 -0.07855,0.111104 9.8315486,9.8315486 0 0 0 -0.07648,0.111622 9.8315486,9.8315486 0 0 0 -0.07493,0.113171 9.8315486,9.8315486 0 0 0 -0.07338,0.114205 9.8315486,9.8315486 0 0 0 -0.07183,0.114722 9.8315486,9.8315486 0 0 0 -0.07028,0.116272 9.8315486,9.8315486 0 0 0 -0.06873,0.116788 9.8315486,9.8315486 0 0 0 -0.06718,0.117822 9.8315486,9.8315486 0 0 0 -0.06563,0.118856 9.8315486,9.8315486 0 0 0 -0.06356,0.119373 9.8315486,9.8315486 0 0 0 -0.06201,0.120923 9.8315486,9.8315486 0 0 0 -0.06046,0.121439 9.8315486,9.8315486 0 0 0 -0.05891,0.121957 9.8315486,9.8315486 0 0 0 -0.05736,0.12299 9.8315486,9.8315486 0 0 0 -0.05529,0.124023 9.8315486,9.8315486 0 0 0 -0.05374,0.12454 9.8315486,9.8315486 0 0 0 -0.05168,0.125057 9.8315486,9.8315486 0 0 0 -0.05013,0.126091 9.8315486,9.8315486 0 0 0 -0.04858,0.126607 9.8315486,9.8315486 0 0 0 -0.04702,0.127641 9.8315486,9.8315486 0 0 0 -0.04496,0.12764 9.8315486,9.8315486 0 0 0 -0.04289,0.128675 9.8315486,9.8315486 0 0 0 -0.04134,0.129191 9.8315486,9.8315486 0 0 0 -0.03979,0.129708 9.8315486,9.8315486 0 0 0 -0.03772,0.130224 9.8315486,9.8315486 0 0 0 -0.03617,0.130742 9.8315486,9.8315486 0 0 0 -0.03411,0.131258 9.8315486,9.8315486 0 0 0 -0.03256,0.131775 9.8315486,9.8315486 0 0 0 -0.03049,0.131775 9.8315486,9.8315486 0 0 0 -0.02894,0.132808 9.8315486,9.8315486 0 0 0 -0.02687,0.132807 9.8315486,9.8315486 0 0 0 -0.02532,0.133327 9.8315486,9.8315486 0 0 0 -0.02326,0.133326 9.8315486,9.8315486 0 0 0 -0.02119,0.134358 9.8315486,9.8315486 0 0 0 -0.01963,0.133842 9.8315486,9.8315486 0 0 0 -0.01757,0.134358 9.8315486,9.8315486 0 0 0 -0.01601,0.134877 9.8315486,9.8315486 0 0 0 -0.01394,0.134874 9.8315486,9.8315486 0 0 0 -0.01241,0.135392 9.8315486,9.8315486 0 0 0 -0.01035,0.134877 9.8315486,9.8315486 0 0 0 -0.0078,0.13539 9.8315486,9.8315486 0 0 0 -0.0062,0.135393 9.8315486,9.8315486 0 0 0 -0.0047,0.135911 9.8315486,9.8315486 0 0 0 -0.0031,0.13539 9.8315486,9.8315486 0 0 0 -0.0011,0.135392 9.8315486,9.8315486 0 0 0 0.0011,0.11834 9.8315486,9.8315486 0 0 0 0.0031,0.135393 9.8315486,9.8315486 0 0 0 0.0036,0.135393 9.8315486,9.8315486 0 0 0 0.0062,0.135392 9.8315486,9.8315486 0 0 0 0.0083,0.13539 9.8315486,9.8315486 0 0 0 0.01034,0.135393 9.8315486,9.8315486 0 0 0 0.01188,0.135392 9.8315486,9.8315486 0 0 0 0.01344,0.134877 9.8315486,9.8315486 0 0 0 0.0155,0.134358 9.8315486,9.8315486 0 0 0 0.01757,0.134877 9.8315486,9.8315486 0 0 0 0.01963,0.133839 9.8315486,9.8315486 0 0 0 0.02119,0.134361 9.8315486,9.8315486 0 0 0 0.02273,0.133323 9.8315486,9.8315486 0 0 0 0.02479,0.133327 9.8315486,9.8315486 0 0 0 0.02687,0.133326 9.8315486,9.8315486 0 0 0 0.02842,0.132291 9.8315486,9.8315486 0 0 0 0.03049,0.132292 9.8315486,9.8315486 0 0 0 0.03152,0.131773 9.8315486,9.8315486 0 0 0 0.03411,0.13126 9.8315486,9.8315486 0 0 0 0.03617,0.130741 9.8315486,9.8315486 0 0 0 0.03721,0.130223 9.8315486,9.8315486 0 0 0 0.03979,0.129709 9.8315486,9.8315486 0 0 0 0.04082,0.129191 9.8315486,9.8315486 0 0 0 0.04289,0.128675 9.8315486,9.8315486 0 0 0 0.04548,0.128156 9.8315486,9.8315486 0 0 0 0.04651,0.127643 9.8315486,9.8315486 0 0 0 0.04806,0.126605 9.8315486,9.8315486 0 0 0 0.05013,0.12609 9.8315486,9.8315486 0 0 0 0.05168,0.125058 9.8315486,9.8315486 0 0 0 0.05374,0.125058 9.8315486,9.8315486 0 0 0 0.05478,0.123505 9.8315486,9.8315486 0 0 0 0.05633,0.123507 9.8315486,9.8315486 0 0 0 0.05891,0.121957 9.8315486,9.8315486 0 0 0 0.05994,0.121439 9.8315486,9.8315486 0 0 0 0.06201,0.120922 9.8315486,9.8315486 0 0 0 0.06356,0.119891 9.8315486,9.8315486 0 0 0 0.06511,0.118856 9.8315486,9.8315486 0 0 0 0.06718,0.117822 9.8315486,9.8315486 0 0 0 0.06821,0.117305 9.8315486,9.8315486 0 0 0 0.07028,0.115756 9.8315486,9.8315486 0 0 0 0.07183,0.115239 9.8315486,9.8315486 0 0 0 0.07286,0.114205 9.8315486,9.8315486 0 0 0 0.07493,0.11317 9.8315486,9.8315486 0 0 0 0.07648,0.112138 9.8315486,9.8315486 0 0 0 0.07803,0.111104 9.8315486,9.8315486 0 0 0 0.07907,0.109553 9.8315486,9.8315486 0 0 0 0.08113,0.109038 9.8315486,9.8315486 0 0 0 0.08268,0.107487 9.8315486,9.8315486 0 0 0 0.08371,0.106455 9.8315486,9.8315486 0 0 0 0.08527,0.105418 9.8315486,9.8315486 0 0 0 0.08682,0.104386 9.8315486,9.8315486 0 0 0 0.08837,0.102838 9.8315486,9.8315486 0 0 0 0.08992,0.101801 9.8315486,9.8315486 0 0 0 0.09147,0.10077 9.8315486,9.8315486 0 0 0 0.0925,0.09922 9.8315486,9.8315486 0 0 0 0.09302,0.09767 9.8315486,9.8315486 0 0 0 0.0956,0.09664 9.8315486,9.8315486 0 0 0 0.09612,0.0956 9.8315486,9.8315486 0 0 0 0.09819,0.09354 9.8315486,9.8315486 0 0 0 0.0987,0.09302 9.8315486,9.8315486 0 0 0 0.10025,0.09095 9.8315486,9.8315486 0 0 0 0.101804,0.08992 9.8315486,9.8315486 0 0 0 0.102835,0.08837 9.8315486,9.8315486 0 0 0 0.103871,0.08733 9.8315486,9.8315486 0 0 0 0.10542,0.08526 9.8315486,9.8315486 0 0 0 0.106453,0.08423 9.8315486,9.8315486 0 0 0 0.107487,0.08268 9.8315486,9.8315486 0 0 0 0.108521,0.08113 9.8315486,9.8315486 0 0 0 0.109554,0.07958 9.8315486,9.8315486 0 0 0 0.111103,0.07803 9.8315486,9.8315486 0 0 0 0.111623,0.077 9.8315486,9.8315486 0 0 0 0.11317,0.07493 9.8315486,9.8315486 0 0 0 0.114205,0.07338 9.8315486,9.8315486 0 0 0 0.114723,0.07183 9.8315486,9.8315486 0 0 0 0.116271,0.07028 9.8315486,9.8315486 0 0 0 0.116787,0.06873 9.8315486,9.8315486 0 0 0 0.117825,0.06718 9.8315486,9.8315486 0 0 0 0.118856,0.06511 9.8315486,9.8315486 0 0 0 0.119888,0.06408 9.8315486,9.8315486 0 0 0 0.120406,0.06201 9.8315486,9.8315486 0 0 0 0.121439,0.06046 9.8315486,9.8315486 0 0 0 0.121957,0.05891 9.8315486,9.8315486 0 0 0 0.122989,0.05684 9.8315486,9.8315486 0 0 0 0.124026,0.05581 9.8315486,9.8315486 0 0 0 0.124539,0.05323 9.8315486,9.8315486 0 0 0 0.125055,0.0522 9.8315486,9.8315486 0 0 0 0.126093,0.05013 9.8315486,9.8315486 0 0 0 0.126606,0.04858 9.8315486,9.8315486 0 0 0 0.12764,0.04651 9.8315486,9.8315486 0 0 0 0.127643,0.04496 9.8315486,9.8315486 0 0 0 0.128672,0.04341 9.8315486,9.8315486 0 0 0 0.129193,0.04134 9.8315486,9.8315486 0 0 0 0.129707,0.03979 9.8315486,9.8315486 0 0 0 0.130225,0.03773 9.8315486,9.8315486 0 0 0 0.130742,0.03617 9.8315486,9.8315486 0 0 0 0.131257,0.03411 9.8315486,9.8315486 0 0 0 0.131776,0.03256 9.8315486,9.8315486 0 0 0 0.131775,0.03049 9.8315486,9.8315486 0 0 0 0.132808,0.02894 9.8315486,9.8315486 0 0 0 0.132807,0.02687 9.8315486,9.8315486 0 0 0 0.133327,0.02532 9.8315486,9.8315486 0 0 0 0.133323,0.02326 9.8315486,9.8315486 0 0 0 0.134361,0.02119 9.8315486,9.8315486 0 0 0 0.133842,0.01963 9.8315486,9.8315486 0 0 0 0.134358,0.01757 9.8315486,9.8315486 0 0 0 0.134874,0.01603 9.8315486,9.8315486 0 0 0 0.134877,0.01394 9.8315486,9.8315486 0 0 0 0.135392,0.01188 9.8315486,9.8315486 0 0 0 0.134874,0.01035 9.8315486,9.8315486 0 0 0 0.135393,0.0088 9.8315486,9.8315486 0 0 0 0.135392,0.0062 9.8315486,9.8315486 0 0 0 0.135909,0.0047 9.8315486,9.8315486 0 0 0 0.135393,0.0031 9.8315486,9.8315486 0 0 0 0.135392,0.0011 9.8315486,9.8315486 0 0 0 0.11834,-0.0011 9.8315486,9.8315486 0 0 0 0.135393,-0.0031 9.8315486,9.8315486 0 0 0 0.13539,-0.0036 9.8315486,9.8315486 0 0 0 0.135392,-0.0062 9.8315486,9.8315486 0 0 0 0.135393,-0.0083 9.8315486,9.8315486 0 0 0 0.135393,-0.0098 9.8315486,9.8315486 0 0 0 0.135392,-0.01188 9.8315486,9.8315486 0 0 0 0.134874,-0.01344 9.8315486,9.8315486 0 0 0 0.134361,-0.01601 9.8315486,9.8315486 0 0 0 0.134874,-0.01707 9.8315486,9.8315486 0 0 0 0.133842,-0.01963 9.8315486,9.8315486 0 0 0 0.134361,-0.02119 9.8315486,9.8315486 0 0 0 0.133323,-0.02273 9.8315486,9.8315486 0 0 0 0.133326,-0.02532 9.8315486,9.8315486 0 0 0 0.133324,-0.02635 9.8315486,9.8315486 0 0 0 0.132292,-0.02842 9.8315486,9.8315486 0 0 0 0.132291,-0.03049 9.8315486,9.8315486 0 0 0 0.131776,-0.03204 9.8315486,9.8315486 0 0 0 0.131257,-0.03411 9.8315486,9.8315486 0 0 0 0.130744,-0.03617 9.8315486,9.8315486 0 0 0 0.130223,-0.03721 9.8315486,9.8315486 0 0 0 0.09974,-0.03049 24.86468,24.86468 0 0 0 0.731737,-2.860292 h -3.486092 l -0.263549,-0.241845 0.08785,-0.505394 0.241329,-1.229899 -0.219625,-0.219626 h -0.768946 l -1.471744,0.0217 -1.845366,0.02223 -0.790649,-0.08785 -0.02223,-0.08785 -0.241329,-0.395324 0.0217,-1.07642 0.02222,-1.010791 0.417544,-0.681095 0.790652,-0.768427 1.032494,-1.186492 0.856795,-1.296046 0.658876,-1.142565 1.318265,-2.174544 0.483174,-0.746725 0.373102,-0.02222 0.768948,0.19792 1.30328,0.320394 a 24.86468,24.86468 0 0 0 -0.210842,-0.630452 24.86468,24.86468 0 0 0 -1.457274,-3.349667 9.8315486,9.8315486 0 0 0 -5.29e-4,0 9.8315486,9.8315486 0 0 0 -0.0036,-5.29e-4 9.8315486,9.8315486 0 0 0 -0.134358,-0.01602 9.8315486,9.8315486 0 0 0 -0.134874,-0.01395 9.8315486,9.8315486 0 0 0 -0.135393,-0.0124 9.8315486,9.8315486 0 0 0 -0.134876,-0.01033 9.8315486,9.8315486 0 0 0 -0.135393,-0.0078 9.8315486,9.8315486 0 0 0 -0.135393,-0.0072 9.8315486,9.8315486 0 0 0 -0.135908,-0.0047 9.8315486,9.8315486 0 0 0 -0.135393,-0.0031 9.8315486,9.8315486 0 0 0 -0.135908,-0.001 z" />
    <path
       id="path1001"
       style="display:inline;fill:#383155;fill-opacity:1;stroke:#000000;stroke-width:0.27064;stroke-opacity:1;paint-order:markers fill stroke"
       d="M 24.981464,0.13547586 A 24.864681,24.864681 0 0 0 0.1354352,25.000105 24.864681,24.864681 0 0 0 25.000069,49.864746 24.864681,24.864681 0 0 0 48.679763,32.583625 a 9.8315486,9.8315486 0 0 1 -0.0997,0.0305 9.8315486,9.8315486 0 0 1 -0.13022,0.0372 9.8315486,9.8315486 0 0 1 -0.130739,0.0362 9.8315486,9.8315486 0 0 1 -0.13126,0.0341 9.8315486,9.8315486 0 0 1 -0.131781,0.032 9.8315486,9.8315486 0 0 1 -0.132289,0.0305 9.8315486,9.8315486 0 0 1 -0.132291,0.0284 9.8315486,9.8315486 0 0 1 -0.133318,0.02641 9.8315486,9.8315486 0 0 1 -0.133332,0.02529 9.8315486,9.8315486 0 0 1 -0.133329,0.0227 9.8315486,9.8315486 0 0 1 -0.134361,0.02119 9.8315486,9.8315486 0 0 1 -0.133839,0.01961 9.8315486,9.8315486 0 0 1 -0.134871,0.01709 9.8315486,9.8315486 0 0 1 -0.134358,0.01601 9.8315486,9.8315486 0 0 1 -0.134882,0.01339 9.8315486,9.8315486 0 0 1 -0.13539,0.01191 9.8315486,9.8315486 0 0 1 -0.13539,0.01029 9.8315486,9.8315486 0 0 1 -0.13539,0.008 9.8315486,9.8315486 0 0 1 -0.135401,0.006 9.8315486,9.8315486 0 0 1 -0.13539,0.004 9.8315486,9.8315486 0 0 1 -0.13539,0.003 9.8315486,9.8315486 0 0 1 -0.11834,0.0011 9.8315486,9.8315486 0 0 1 -0.13539,-0.0011 9.8315486,9.8315486 0 0 1 -0.13539,-0.003 9.8315486,9.8315486 0 0 1 -0.135908,-0.005 9.8315486,9.8315486 0 0 1 -0.135401,-0.006 9.8315486,9.8315486 0 0 1 -0.13539,-0.009 9.8315486,9.8315486 0 0 1 -0.134868,-0.01029 9.8315486,9.8315486 0 0 1 -0.13539,-0.01191 9.8315486,9.8315486 0 0 1 -0.134882,-0.01389 9.8315486,9.8315486 0 0 1 -0.134879,-0.01601 9.8315486,9.8315486 0 0 1 -0.134361,-0.01759 9.8315486,9.8315486 0 0 1 -0.13384,-0.01961 9.8315486,9.8315486 0 0 1 -0.13436,-0.02119 9.8315486,9.8315486 0 0 1 -0.133319,-0.02331 9.8315486,9.8315486 0 0 1 -0.133331,-0.02529 9.8315486,9.8315486 0 0 1 -0.1328,-0.0269 9.8315486,9.8315486 0 0 1 -0.13281,-0.0289 9.8315486,9.8315486 0 0 1 -0.131778,-0.0305 9.8315486,9.8315486 0 0 1 -0.131771,-0.0326 9.8315486,9.8315486 0 0 1 -0.13126,-0.0341 9.8315486,9.8315486 0 0 1 -0.130741,-0.0362 9.8315486,9.8315486 0 0 1 -0.13023,-0.0377 9.8315486,9.8315486 0 0 1 -0.12971,-0.0398 9.8315486,9.8315486 0 0 1 -0.12919,-0.0413 9.8315486,9.8315486 0 0 1 -0.12867,-0.0434 9.8315486,9.8315486 0 0 1 -0.12764,-0.045 9.8315486,9.8315486 0 0 1 -0.127641,-0.0465 9.8315486,9.8315486 0 0 1 -0.126608,-0.0486 9.8315486,9.8315486 0 0 1 -0.12609,-0.0501 9.8315486,9.8315486 0 0 1 -0.12506,-0.0522 9.8315486,9.8315486 0 0 1 -0.12454,-0.0532 9.8315486,9.8315486 0 0 1 -0.124021,-0.0558 9.8315486,9.8315486 0 0 1 -0.122989,-0.0568 9.8315486,9.8315486 0 0 1 -0.121962,-0.0589 9.8315486,9.8315486 0 0 1 -0.121428,-0.0605 9.8315486,9.8315486 0 0 1 -0.120412,-0.062 9.8315486,9.8315486 0 0 1 -0.119888,-0.0641 9.8315486,9.8315486 0 0 1 -0.118861,-0.0651 9.8315486,9.8315486 0 0 1 -0.117819,-0.0672 9.8315486,9.8315486 0 0 1 -0.11679,-0.0687 9.8315486,9.8315486 0 0 1 -0.116271,-0.0703 9.8315486,9.8315486 0 0 1 -0.114721,-0.0718 9.8315486,9.8315486 0 0 1 -0.11421,-0.0734 9.8315486,9.8315486 0 0 1 -0.11317,-0.0749 9.8315486,9.8315486 0 0 1 -0.11162,-0.077 9.8315486,9.8315486 0 0 1 -0.111098,-0.078 9.8315486,9.8315486 0 0 1 -0.109561,-0.0796 9.8315486,9.8315486 0 0 1 -0.108519,-0.0811 9.8315486,9.8315486 0 0 1 -0.107479,-0.0827 9.8315486,9.8315486 0 0 1 -0.106461,-0.0842 9.8315486,9.8315486 0 0 1 -0.10542,-0.0853 9.8315486,9.8315486 0 0 1 -0.10387,-0.0873 9.8315486,9.8315486 0 0 1 -0.102831,-0.0884 9.8315486,9.8315486 0 0 1 -0.101809,-0.0899 9.8315486,9.8315486 0 0 1 -0.10025,-0.0909 9.8315486,9.8315486 0 0 1 -0.0992,-0.093 9.8315486,9.8315486 0 0 1 -0.0977,-0.0935 9.8315486,9.8315486 0 0 1 -0.0966,-0.0956 9.8315486,9.8315486 0 0 1 -0.0951,-0.0966 9.8315486,9.8315486 0 0 1 -0.0935,-0.0977 9.8315486,9.8315486 0 0 1 -0.0925,-0.0992 9.8315486,9.8315486 0 0 1 -0.0909,-0.100769 9.8315486,9.8315486 0 0 1 -0.0899,-0.101801 9.8315486,9.8315486 0 0 1 -0.0884,-0.102838 9.8315486,9.8315486 0 0 1 -0.0868,-0.104381 9.8315486,9.8315486 0 0 1 -0.0853,-0.10542 9.8315486,9.8315486 0 0 1 -0.0837,-0.106461 9.8315486,9.8315486 0 0 1 -0.0827,-0.107479 9.8315486,9.8315486 0 0 1 -0.0811,-0.10904 9.8315486,9.8315486 0 0 1 -0.0791,-0.109559 9.8315486,9.8315486 0 0 1 -0.078,-0.111101 9.8315486,9.8315486 0 0 1 -0.0765,-0.112141 9.8315486,9.8315486 0 0 1 -0.0749,-0.11317 9.8315486,9.8315486 0 0 1 -0.0729,-0.114199 9.8315486,9.8315486 0 0 1 -0.0718,-0.11524 9.8315486,9.8315486 0 0 1 -0.0703,-0.11576 9.8315486,9.8315486 0 0 1 -0.0682,-0.117301 9.8315486,9.8315486 0 0 1 -0.0672,-0.117819 9.8315486,9.8315486 0 0 1 -0.0651,-0.118861 9.8315486,9.8315486 0 0 1 -0.0636,-0.119888 9.8315486,9.8315486 0 0 1 -0.062,-0.12092 9.8315486,9.8315486 0 0 1 -0.0599,-0.121441 9.8315486,9.8315486 0 0 1 -0.0589,-0.12196 9.8315486,9.8315486 0 0 1 -0.0568,-0.123499 9.8315486,9.8315486 0 0 1 -0.0548,-0.12351 9.8315486,9.8315486 0 0 1 -0.0537,-0.125061 9.8315486,9.8315486 0 0 1 -0.0517,-0.125061 9.8315486,9.8315486 0 0 1 -0.0501,-0.126089 9.8315486,9.8315486 0 0 1 -0.0481,-0.126601 9.8315486,9.8315486 0 0 1 -0.0465,-0.12764 9.8315486,9.8315486 0 0 1 -0.045,-0.128159 9.8315486,9.8315486 0 0 1 -0.0429,-0.12868 9.8315486,9.8315486 0 0 1 -0.0413,-0.12919 9.8315486,9.8315486 0 0 1 -0.0393,-0.12971 9.8315486,9.8315486 0 0 1 -0.0377,-0.13022 9.8315486,9.8315486 0 0 1 -0.0356,-0.13074 9.8315486,9.8315486 0 0 1 -0.0341,-0.13126 9.8315486,9.8315486 0 0 1 -0.032,-0.13178 9.8315486,9.8315486 0 0 1 -0.0305,-0.13229 9.8315486,9.8315486 0 0 1 -0.0284,-0.13229 9.8315486,9.8315486 0 0 1 -0.0269,-0.13332 9.8315486,9.8315486 0 0 1 -0.02479,-0.13333 9.8315486,9.8315486 0 0 1 -0.0227,-0.13332 9.8315486,9.8315486 0 0 1 -0.02119,-0.13436 9.8315486,9.8315486 0 0 1 -0.0196,-0.13384 9.8315486,9.8315486 0 0 1 -0.0176,-0.13488 9.8315486,9.8315486 0 0 1 -0.0155,-0.13436 9.8315486,9.8315486 0 0 1 -0.01339,-0.13487 9.8315486,9.8315486 0 0 1 -0.01191,-0.1354 9.8315486,9.8315486 0 0 1 -0.0104,-0.13539 9.8315486,9.8315486 0 0 1 -0.008,-0.13539 9.8315486,9.8315486 0 0 1 -0.006,-0.13539 9.8315486,9.8315486 0 0 1 -0.004,-0.1354 9.8315486,9.8315486 0 0 1 -0.003,-0.13539 9.8315486,9.8315486 0 0 1 -0.0011,-0.11834 9.8315486,9.8315486 0 0 1 0.0011,-0.13539 9.8315486,9.8315486 0 0 1 0.003,-0.13539 9.8315486,9.8315486 0 0 1 0.005,-0.13591 9.8315486,9.8315486 0 0 1 0.006,-0.13539 9.8315486,9.8315486 0 0 1 0.008,-0.1354 9.8315486,9.8315486 0 0 1 0.0104,-0.13487 9.8315486,9.8315486 0 0 1 0.01241,-0.13539 9.8315486,9.8315486 0 0 1 0.01389,-0.13488 9.8315486,9.8315486 0 0 1 0.01601,-0.13487 9.8315486,9.8315486 0 0 1 0.01759,-0.13436 9.8315486,9.8315486 0 0 1 0.01961,-0.13385 9.8315486,9.8315486 0 0 1 0.02119,-0.13435 9.8315486,9.8315486 0 0 1 0.02331,-0.13333 9.8315486,9.8315486 0 0 1 0.02529,-0.13332 9.8315486,9.8315486 0 0 1 0.0269,-0.13281 9.8315486,9.8315486 0 0 1 0.0289,-0.13281 9.8315486,9.8315486 0 0 1 0.0305,-0.13178 9.8315486,9.8315486 0 0 1 0.0326,-0.13177 9.8315486,9.8315486 0 0 1 0.0341,-0.13126 9.8315486,9.8315486 0 0 1 0.0362,-0.13074 9.8315486,9.8315486 0 0 1 0.0377,-0.13022 9.8315486,9.8315486 0 0 1 0.0398,-0.12971 9.8315486,9.8315486 0 0 1 0.0413,-0.12919 9.8315486,9.8315486 0 0 1 0.0429,-0.12868 9.8315486,9.8315486 0 0 1 0.045,-0.12764 9.8315486,9.8315486 0 0 1 0.047,-0.12764 9.8315486,9.8315486 0 0 1 0.0486,-0.12661 9.8315486,9.8315486 0 0 1 0.0501,-0.12609 9.8315486,9.8315486 0 0 1 0.0517,-0.12505 9.8315486,9.8315486 0 0 1 0.0537,-0.12454 9.8315486,9.8315486 0 0 1 0.0553,-0.12403 9.8315486,9.8315486 0 0 1 0.0574,-0.12299 9.8315486,9.8315486 0 0 1 0.0589,-0.12195 9.8315486,9.8315486 0 0 1 0.0605,-0.12144 9.8315486,9.8315486 0 0 1 0.062,-0.12093 9.8315486,9.8315486 0 0 1 0.0636,-0.11937 9.8315486,9.8315486 0 0 1 0.0656,-0.11885 9.8315486,9.8315486 0 0 1 0.0672,-0.11783 9.8315486,9.8315486 0 0 1 0.0687,-0.11679 9.8315486,9.8315486 0 0 1 0.0703,-0.11627 9.8315486,9.8315486 0 0 1 0.0718,-0.11472 9.8315486,9.8315486 0 0 1 0.0734,-0.1142 9.8315486,9.8315486 0 0 1 0.0749,-0.11318 9.8315486,9.8315486 0 0 1 0.0765,-0.11162 9.8315486,9.8315486 0 0 1 0.0785,-0.1111 9.8315486,9.8315486 0 0 1 0.0796,-0.10956 9.8315486,9.8315486 0 0 1 0.0811,-0.10852 9.8315486,9.8315486 0 0 1 0.0827,-0.10748 9.8315486,9.8315486 0 0 1 0.0842,-0.10646 9.8315486,9.8315486 0 0 1 0.0853,-0.10542 9.8315486,9.8315486 0 0 1 0.0873,-0.10387 9.8315486,9.8315486 0 0 1 0.0884,-0.10283 9.8315486,9.8315486 0 0 1 0.0899,-0.1018 9.8315486,9.8315486 0 0 1 0.091,-0.10026 9.8315486,9.8315486 0 0 1 0.0925,-0.0992 9.8315486,9.8315486 0 0 1 0.0941,-0.0977 9.8315486,9.8315486 0 0 1 0.0956,-0.0966 9.8315486,9.8315486 0 0 1 0.0966,-0.0951 9.8315486,9.8315486 0 0 1 0.0977,-0.0935 9.8315486,9.8315486 0 0 1 0.0992,-0.0925 9.8315486,9.8315486 0 0 1 0.10077,-0.0909 9.8315486,9.8315486 0 0 1 0.101801,-0.0899 9.8315486,9.8315486 0 0 1 0.102838,-0.0884 9.8315486,9.8315486 0 0 1 0.104381,-0.0868 9.8315486,9.8315486 0 0 1 0.10491,-0.0853 9.8315486,9.8315486 0 0 1 0.10696,-0.0837 9.8315486,9.8315486 0 0 1 0.10749,-0.0827 9.8315486,9.8315486 0 0 1 0.10904,-0.0811 9.8315486,9.8315486 0 0 1 0.109561,-0.0791 9.8315486,9.8315486 0 0 1 0.111099,-0.078 9.8315486,9.8315486 0 0 1 0.112141,-0.0765 9.8315486,9.8315486 0 0 1 0.11317,-0.0749 9.8315486,9.8315486 0 0 1 0.114199,-0.0729 9.8315486,9.8315486 0 0 1 0.114721,-0.0718 9.8315486,9.8315486 0 0 1 0.116279,-0.0703 9.8315486,9.8315486 0 0 1 0.117301,-0.0682 9.8315486,9.8315486 0 0 1 0.117819,-0.0672 9.8315486,9.8315486 0 0 1 0.118861,-0.0651 9.8315486,9.8315486 0 0 1 0.119888,-0.0636 9.8315486,9.8315486 0 0 1 0.120401,-0.062 9.8315486,9.8315486 0 0 1 0.12196,-0.0599 9.8315486,9.8315486 0 0 1 0.12196,-0.0589 9.8315486,9.8315486 0 0 1 0.122991,-0.0568 9.8315486,9.8315486 0 0 1 0.124018,-0.0548 9.8315486,9.8315486 0 0 1 0.124542,-0.0537 9.8315486,9.8315486 0 0 1 0.125569,-0.0517 9.8315486,9.8315486 0 0 1 0.12609,-0.0501 9.8315486,9.8315486 0 0 1 0.126611,-0.0481 9.8315486,9.8315486 0 0 1 0.12764,-0.0465 9.8315486,9.8315486 0 0 1 0.128159,-0.045 9.8315486,9.8315486 0 0 1 0.128162,-0.0429 9.8315486,9.8315486 0 0 1 0.129709,-0.0413 9.8315486,9.8315486 0 0 1 0.129699,-0.0393 9.8315486,9.8315486 0 0 1 0.13023,-0.0377 9.8315486,9.8315486 0 0 1 0.130741,-0.0357 9.8315486,9.8315486 0 0 1 0.13126,-0.0341 9.8315486,9.8315486 0 0 1 0.131768,-0.032 9.8315486,9.8315486 0 0 1 0.132302,-0.0305 9.8315486,9.8315486 0 0 1 0.132289,-0.0284 9.8315486,9.8315486 0 0 1 0.133321,-0.0269 9.8315486,9.8315486 0 0 1 0.133329,-0.0248 9.8315486,9.8315486 0 0 1 0.133321,-0.0227 9.8315486,9.8315486 0 0 1 0.13385,-0.0212 9.8315486,9.8315486 0 0 1 0.13435,-0.0196 9.8315486,9.8315486 0 0 1 0.134358,-0.0176 9.8315486,9.8315486 0 0 1 0.134882,-0.0155 9.8315486,9.8315486 0 0 1 0.134869,-0.0134 9.8315486,9.8315486 0 0 1 0.13539,-0.0119 9.8315486,9.8315486 0 0 1 0.134879,-0.0103 9.8315486,9.8315486 0 0 1 0.13539,-0.008 9.8315486,9.8315486 0 0 1 0.135911,-0.006 9.8315486,9.8315486 0 0 1 0.13539,-0.004 9.8315486,9.8315486 0 0 1 0.135401,-0.003 9.8315486,9.8315486 0 0 1 0.117819,-10e-4 9.8315486,9.8315486 0 0 1 0.135911,10e-4 9.8315486,9.8315486 0 0 1 0.13539,0.003 9.8315486,9.8315486 0 0 1 0.135908,0.005 9.8315486,9.8315486 0 0 1 0.13539,0.007 9.8315486,9.8315486 0 0 1 0.13539,0.008 9.8315486,9.8315486 0 0 1 0.134882,0.0103 9.8315486,9.8315486 0 0 1 0.13539,0.0124 9.8315486,9.8315486 0 0 1 0.134879,0.014 9.8315486,9.8315486 0 0 1 0.13435,0.016 9.8315486,9.8315486 0 0 1 0.004,5.29e-4 24.864681,24.864681 0 0 0 -22.009509,-13.29633974 24.864681,24.864681 0 0 0 -0.0186,0 z" />
    <circle
       style="display:inline;opacity:0.88141;mix-blend-mode:normal;fill:url(#radialGradient1561-45);fill-opacity:1;stroke:none;stroke-width:0.212909;stroke-opacity:1;paint-order:markers fill stroke"
       id="path1129-80"
       cx="25"
       cy="25"
       r="25" />
    <circle
       style="display:inline;opacity:0.88141;mix-blend-mode:normal;fill:url(#radialGradient1561-9-13);fill-opacity:1;stroke:none;stroke-width:0.212909;stroke-opacity:1;paint-order:markers fill stroke"
       id="path1129-9-1"
       cx="25"
       cy="25"
       r="25" />
  </g>
</svg>
