<?xml version="1.0" encoding="UTF-8" standalone="no"?>
<svg
   xmlns:dc="http://purl.org/dc/elements/1.1/"
   xmlns:cc="http://creativecommons.org/ns#"
   xmlns:rdf="http://www.w3.org/1999/02/22-rdf-syntax-ns#"
   xmlns:svg="http://www.w3.org/2000/svg"
   xmlns="http://www.w3.org/2000/svg"
   xmlns:xlink="http://www.w3.org/1999/xlink"
   xmlns:sodipodi="http://sodipodi.sourceforge.net/DTD/sodipodi-0.dtd"
   xmlns:inkscape="http://www.inkscape.org/namespaces/inkscape"
   width="50mm"
   height="50mm"
   viewBox="0 0 50 50"
   version="1.1"
   id="svg8"
   inkscape:version="1.0.1 (3bc2e813f5, 2020-09-07)"
   sodipodi:docname="6-7.svg">
  <defs
     id="defs2">
    <radialGradient
       inkscape:collect="always"
       xlink:href="#linearGradient1135"
       id="radialGradient1561-637"
       cx="26.274075"
       cy="14.800471"
       fx="26.274075"
       fy="14.800471"
       r="32.127975"
       gradientTransform="matrix(0.77813809,0,0,0.77813812,-3.3823645,4.4121704)"
       gradientUnits="userSpaceOnUse" />
    <linearGradient
       inkscape:collect="always"
       id="linearGradient1135">
      <stop
         style="stop-color:#ffffff;stop-opacity:1;"
         offset="0"
         id="stop1131" />
      <stop
         style="stop-color:#ffffff;stop-opacity:0;"
         offset="1"
         id="stop1133" />
    </linearGradient>
    <radialGradient
       inkscape:collect="always"
       xlink:href="#linearGradient1135"
       id="radialGradient1561-9-67"
       cx="54.447247"
       cy="49.531189"
       fx="54.447247"
       fy="49.531189"
       r="32.127975"
       gradientTransform="matrix(0.77813809,0,0,0.77813812,-3.3823645,4.4121704)"
       gradientUnits="userSpaceOnUse" />
  </defs>
  <sodipodi:namedview
     id="base"
     pagecolor="#ffffff"
     bordercolor="#666666"
     borderopacity="1.0"
     inkscape:pageopacity="0.0"
     inkscape:pageshadow="2"
     inkscape:zoom="0.98994949"
     inkscape:cx="2.9247058"
     inkscape:cy="154.89275"
     inkscape:document-units="mm"
     inkscape:current-layer="layer1"
     inkscape:document-rotation="0"
     showgrid="false"
     inkscape:window-width="1920"
     inkscape:window-height="1017"
     inkscape:window-x="-8"
     inkscape:window-y="-8"
     inkscape:window-maximized="1" />
  <metadata
     id="metadata5">
    <rdf:RDF>
      <cc:Work
         rdf:about="">
        <dc:format>image/svg+xml</dc:format>
        <dc:type
           rdf:resource="http://purl.org/dc/dcmitype/StillImage" />
        <dc:title></dc:title>
      </cc:Work>
    </rdf:RDF>
  </metadata>
  <g
     inkscape:label="Layer 1"
     inkscape:groupmode="layer"
     id="layer1">
    <path
       id="path833-77"
       style="display:inline;fill:#fffffd;fill-opacity:1;stroke:#000000;stroke-width:0.27064;stroke-opacity:1;paint-order:markers fill stroke"
       d="m 1.7011859,33.683861 a 9.8315486,9.8315486 0 0 0 0.076,0.0491 9.8315486,9.8315486 0 0 0 0.11524,0.0718 9.8315486,9.8315486 0 0 0 0.11575,0.0703 9.8315486,9.8315486 0 0 0 0.11731,0.0687 9.8315486,9.8315486 0 0 0 0.11782,0.0672 9.8315486,9.8315486 0 0 0 0.11885,0.0651 9.8315486,9.8315486 0 0 0 0.11938,0.0641 9.8315486,9.8315486 0 0 0 0.1204,0.062 9.8315486,9.8315486 0 0 0 0.12144,0.0605 9.8315486,9.8315486 0 0 0 0.1224801,0.0589 9.8315486,9.8315486 0 0 0 0.12299,0.0568 9.8315486,9.8315486 0 0 0 0.1234998,0.0558 9.8315486,9.8315486 0 0 0 0.1250601,0.0537 9.8315486,9.8315486 0 0 0 0.12506,0.0517 9.8315486,9.8315486 0 0 0 0.1260899,0.0501 9.8315486,9.8315486 0 0 0 0.12661,0.0486 9.8315486,9.8315486 0 0 0 0.1271201,0.0465 9.8315486,9.8315486 0 0 0 0.1281599,0.0455 9.8315486,9.8315486 0 0 0 0.1286701,0.0429 9.8315486,9.8315486 0 0 0 0.1286801,0.0413 9.8315486,9.8315486 0 0 0 0.1296998,0.0398 9.8315486,9.8315486 0 0 0 0.13023,0.0377 9.8315486,9.8315486 0 0 0 0.1307402,0.0362 9.8315486,9.8315486 0 0 0 0.1312598,0.0341 9.8315486,9.8315486 0 0 0 0.1317701,0.0326 9.8315486,9.8315486 0 0 0 0.1322901,0.0305 9.8315486,9.8315486 0 0 0 0.1322999,0.0289 9.8315486,9.8315486 0 0 0 0.1333201,0.0269 9.8315486,9.8315486 0 0 0 0.1333299,0.02529 9.8315486,9.8315486 0 0 0 0.1333201,0.02331 9.8315486,9.8315486 0 0 0 0.13384,0.02119 9.8315486,9.8315486 0 0 0 0.1343599,0.0196 9.8315486,9.8315486 0 0 0 0.1343599,0.0176 9.8315486,9.8315486 0 0 0 0.1348801,0.01601 9.8315486,9.8315486 0 0 0 0.13487,0.01389 9.8315486,9.8315486 0 0 0 0.1348801,0.01241 9.8315486,9.8315486 0 0 0 0.13539,0.01 9.8315486,9.8315486 0 0 0 0.1353899,0.009 9.8315486,9.8315486 0 0 0 0.1353899,0.006 9.8315486,9.8315486 0 0 0 0.1354,0.005 9.8315486,9.8315486 0 0 0 0.1359101,0.003 9.8315486,9.8315486 0 0 0 0.13539,0.0011 9.8315486,9.8315486 0 0 0 0.11782,-0.0011 9.8315486,9.8315486 0 0 0 0.1359101,-0.003 9.8315486,9.8315486 0 0 0 0.1353899,-0.004 9.8315486,9.8315486 0 0 0 0.13539,-0.006 9.8315486,9.8315486 0 0 0 0.1354,-0.008 9.8315486,9.8315486 0 0 0 0.1353899,-0.0104 9.8315486,9.8315486 0 0 0 0.13487,-0.01191 9.8315486,9.8315486 0 0 0 0.1348801,-0.01339 9.8315486,9.8315486 0 0 0 0.1348801,-0.01601 9.8315486,9.8315486 0 0 0 0.1343499,-0.01709 9.8315486,9.8315486 0 0 0 0.1343601,-0.01961 9.8315486,9.8315486 0 0 0 0.13384,-0.02119 9.8315486,9.8315486 0 0 0 0.1338498,-0.0227 9.8315486,9.8315486 0 0 0 0.1333201,-0.02479 9.8315486,9.8315486 0 0 0 0.13281,-0.0269 9.8315486,9.8315486 0 0 0 0.13281,-0.0284 9.8315486,9.8315486 0 0 0 0.1322901,-0.0305 9.8315486,9.8315486 0 0 0 0.13178,-0.032 9.8315486,9.8315486 0 0 0 0.13125,-0.0341 9.8315486,9.8315486 0 0 0 0.1307398,-0.0362 9.8315486,9.8315486 0 0 0 0.1302301,-0.0372 9.8315486,9.8315486 0 0 0 0.1297101,-0.0398 9.8315486,9.8315486 0 0 0 0.129189,-0.0408 9.8315486,9.8315486 0 0 0 0.128671,-0.0429 9.8315486,9.8315486 0 0 0 0.128159,-0.045 9.8315486,9.8315486 0 0 0 0.127121,-0.0465 9.8315486,9.8315486 0 0 0 0.127129,-0.0481 9.8315486,9.8315486 0 0 0 0.126091,-0.0501 9.8315486,9.8315486 0 0 0 0.125059,-0.0517 9.8315486,9.8315486 0 0 0 0.124541,-0.0537 9.8315486,9.8315486 0 0 0 0.12402,-0.0548 9.8315486,9.8315486 0 0 0 0.12299,-0.0568 9.8315486,9.8315486 0 0 0 0.122469,-0.0589 9.8315486,9.8315486 0 0 0 0.12144,-0.0599 9.8315486,9.8315486 0 0 0 0.120921,-0.062 9.8315486,9.8315486 0 0 0 0.11938,-0.0636 9.8315486,9.8315486 0 0 0 0.119369,-0.0651 9.8315486,9.8315486 0 0 0 0.11782,-0.0672 9.8315486,9.8315486 0 0 0 0.11679,-0.0682 9.8315486,9.8315486 0 0 0 0.116271,-0.0703 9.8315486,9.8315486 0 0 0 0.115239,-0.0718 9.8315486,9.8315486 0 0 0 0.11421,-0.0729 9.8315486,9.8315486 0 0 0 0.11317,-0.0749 9.8315486,9.8315486 0 0 0 0.112131,-0.0765 9.8315486,9.8315486 0 0 0 0.11059,-0.078 9.8315486,9.8315486 0 0 0 0.110069,-0.0796 9.8315486,9.8315486 0 0 0 0.10904,-0.0806 9.8315486,9.8315486 0 0 0 0.10749,-0.0827 9.8315486,9.8315486 0 0 0 0.10645,-0.0837 9.8315486,9.8315486 0 0 0 0.10542,-0.0853 9.8315486,9.8315486 0 0 0 0.104391,-0.0868 9.8315486,9.8315486 0 0 0 0.10283,-0.0884 9.8315486,9.8315486 0 0 0 0.101809,-0.0899 9.8315486,9.8315486 0 0 0 0.10025,-0.0909 9.8315486,9.8315486 0 0 0 0.0992,-0.0925 9.8315486,9.8315486 0 0 0 0.0982,-0.0935 9.8315486,9.8315486 0 0 0 0.0966,-0.0956 9.8315486,9.8315486 0 0 0 0.0951,-0.0961 9.8315486,9.8315486 0 0 0 0.094,-0.0977 9.8315486,9.8315486 0 0 0 0.0925,-0.0992 9.8315486,9.8315486 0 0 0 0.0915,-0.100258 9.8315486,9.8315486 0 0 0 0.0899,-0.101802 9.8315486,9.8315486 0 0 0 0.0884,-0.10283 9.8315486,9.8315486 0 0 0 0.0868,-0.10387 9.8315486,9.8315486 0 0 0 0.0858,-0.105418 9.8315486,9.8315486 0 0 0 0.0842,-0.10646 9.8315486,9.8315486 0 0 0 0.0827,-0.107482 9.8315486,9.8315486 0 0 0 0.0811,-0.108519 9.8315486,9.8315486 0 0 0 0.0796,-0.109561 9.8315486,9.8315486 0 0 0 0.078,-0.111099 9.8315486,9.8315486 0 0 0 0.0765,-0.112141 9.8315486,9.8315486 0 0 0 0.0749,-0.112649 9.8315486,9.8315486 0 0 0 0.0739,-0.11421 9.8315486,9.8315486 0 0 0 0.0718,-0.11472 9.8315486,9.8315486 0 0 0 0.0703,-0.116269 9.8315486,9.8315486 0 0 0 0.0687,-0.11679 9.8315486,9.8315486 0 0 0 0.0667,-0.117832 9.8315486,9.8315486 0 0 0 0.0656,-0.118848 9.8315486,9.8315486 0 0 0 0.0641,-0.119891 9.8315486,9.8315486 0 0 0 0.062,-0.120409 9.8315486,9.8315486 0 0 0 0.0605,-0.121441 9.8315486,9.8315486 0 0 0 0.0589,-0.121949 9.8315486,9.8315486 0 0 0 0.0568,-0.122992 9.8315486,9.8315486 0 0 0 0.0553,-0.124028 9.8315486,9.8315486 0 0 0 0.0537,-0.12454 9.8315486,9.8315486 0 0 0 0.0522,-0.12505 9.8315486,9.8315486 0 0 0 0.0501,-0.12609 9.8315486,9.8315486 0 0 0 0.0486,-0.126611 9.8315486,9.8315486 0 0 0 0.0465,-0.12764 9.8315486,9.8315486 0 0 0 0.045,-0.12764 9.8315486,9.8315486 0 0 0 0.0434,-0.12868 9.8315486,9.8315486 0 0 0 0.0413,-0.129191 9.8315486,9.8315486 0 0 0 0.0398,-0.129699 9.8315486,9.8315486 0 0 0 0.0377,-0.13023 9.8315486,9.8315486 0 0 0 0.0362,-0.130739 9.8315486,9.8315486 0 0 0 0.0341,-0.13126 9.8315486,9.8315486 0 0 0 0.0326,-0.13177 9.8315486,9.8315486 0 0 0 0.0305,-0.131781 9.8315486,9.8315486 0 0 0 0.0284,-0.132811 9.8315486,9.8315486 0 0 0 0.0274,-0.13281 9.8315486,9.8315486 0 0 0 0.0248,-0.133318 9.8315486,9.8315486 0 0 0 0.0233,-0.133842 9.8315486,9.8315486 0 0 0 0.0217,-0.13385 9.8315486,9.8315486 0 0 0 0.0196,-0.13384 9.8315486,9.8315486 0 0 0 0.0176,-0.134868 9.8315486,9.8315486 0 0 0 0.016,-0.134361 9.8315486,9.8315486 0 0 0 0.0139,-0.13488 9.8315486,9.8315486 0 0 0 0.0119,-0.13539 9.8315486,9.8315486 0 0 0 0.0103,-0.13488 9.8315486,9.8315486 0 0 0 0.008,-0.13539 9.8315486,9.8315486 0 0 0 0.007,-0.13539 9.8315486,9.8315486 0 0 0 0.005,-0.13591 9.8315486,9.8315486 0 0 0 0.003,-0.13539 9.8315486,9.8315486 0 0 0 0.001,-0.13591 9.8315486,9.8315486 0 0 0 -5.29e-4,-0.11782 9.8315486,9.8315486 0 0 0 -0.003,-0.13539 9.8315486,9.8315486 0 0 0 -0.005,-0.1354 9.8315486,9.8315486 0 0 0 -0.006,-0.13591 9.8315486,9.8315486 0 0 0 -0.008,-0.13539 9.8315486,9.8315486 0 0 0 -0.01,-0.13487 9.8315486,9.8315486 0 0 0 -0.0119,-0.13539 9.8315486,9.8315486 0 0 0 -0.0139,-0.13488 9.8315486,9.8315486 0 0 0 -0.0155,-0.13436 9.8315486,9.8315486 0 0 0 -0.0176,-0.13488 9.8315486,9.8315486 0 0 0 -0.0191,-0.13384 9.8315486,9.8315486 0 0 0 -0.0212,-0.13436 9.8315486,9.8315486 0 0 0 -0.0233,-0.13332 9.8315486,9.8315486 0 0 0 -0.0248,-0.13333 9.8315486,9.8315486 0 0 0 -0.0269,-0.133352 9.8315486,9.8315486 0 0 0 -0.0284,-0.13229 9.8315486,9.8315486 0 0 0 -0.0305,-0.1323 9.8315486,9.8315486 0 0 0 -0.032,-0.13177 9.8315486,9.8315486 0 0 0 -0.0341,-0.13126 9.8315486,9.8315486 0 0 0 -0.0357,-0.13074 9.8315486,9.8315486 0 0 0 -0.0377,-0.13022 9.8315486,9.8315486 0 0 0 -0.0393,-0.12971 9.8315486,9.8315486 0 0 0 -0.0413,-0.12919 9.8315486,9.8315486 0 0 0 -0.0429,-0.12868 9.8315486,9.8315486 0 0 0 -0.0444,-0.12815 9.8315486,9.8315486 0 0 0 -0.0465,-0.12765 9.8315486,9.8315486 0 0 0 -0.0486,-0.1266 9.8315486,9.8315486 0 0 0 -0.0496,-0.12609 9.8315486,9.8315486 0 0 0 -0.0522,-0.12558 9.8315486,9.8315486 0 0 0 -0.0532,-0.12454 9.8315486,9.8315486 0 0 0 -0.0553,-0.1235 9.8315486,9.8315486 0 0 0 -0.0568,-0.12351 9.8315486,9.8315486 0 0 0 -0.0584,-0.12196 9.8315486,9.8315486 0 0 0 -0.0605,-0.12195 9.8315486,9.8315486 0 0 0 -0.062,-0.12041 9.8315486,9.8315486 0 0 0 -0.0636,-0.11989 9.8315486,9.8315486 0 0 0 -0.0651,-0.11886 9.8315486,9.8315486 0 0 0 -0.0667,-0.11782 9.8315486,9.8315486 0 0 0 -0.0687,-0.1173 9.8315486,9.8315486 0 0 0 -0.0698,-0.11627 9.8315486,9.8315486 0 0 0 -0.0718,-0.11473 9.8315486,9.8315486 0 0 0 -0.0734,-0.1142 9.8315486,9.8315486 0 0 0 -0.0749,-0.11317 9.8315486,9.8315486 0 0 0 -0.076,-0.11214 9.8315486,9.8315486 0 0 0 -0.078,-0.1111 9.8315486,9.8315486 0 0 0 -0.0796,-0.10956 9.8315486,9.8315486 0 0 0 -0.0811,-0.10903 9.8315486,9.8315486 0 0 0 -0.0822,-0.10749 9.8315486,9.8315486 0 0 0 -0.0842,-0.10697 9.8315486,9.8315486 0 0 0 -0.0853,-0.1049 9.8315486,9.8315486 0 0 0 -0.0868,-0.10439 9.8315486,9.8315486 0 0 0 -0.0884,-0.10284 9.8315486,9.8315486 0 0 0 -0.0894,-0.1018 9.8315486,9.8315486 0 0 0 -0.0909,-0.10077 9.8315486,9.8315486 0 0 0 -0.0925,-0.0992 9.8315486,9.8315486 0 0 0 -0.0941,-0.0977 9.8315486,9.8315486 0 0 0 -0.0951,-0.0966 9.8315486,9.8315486 0 0 0 -0.0966,-0.0956 9.8315486,9.8315486 0 0 0 -0.0977,-0.0941 9.8315486,9.8315486 0 0 0 -0.0992,-0.0925 9.8315486,9.8315486 0 0 0 -0.10025,-0.0909 9.8315486,9.8315486 0 0 0 -0.10129,-0.0899 9.8315486,9.8315486 0 0 0 -0.10283,-0.0884 9.8315486,9.8315486 0 0 0 -0.10439,-0.0873 9.8315486,9.8315486 0 0 0 -0.104901,-0.0853 9.8315486,9.8315486 0 0 0 -0.106459,-0.0842 9.8315486,9.8315486 0 0 0 -0.107481,-0.0827 9.8315486,9.8315486 0 0 0 -0.10852,-0.0811 9.8315486,9.8315486 0 0 0 -0.11007,-0.0796 9.8315486,9.8315486 0 0 0 -0.11059,-0.078 9.8315486,9.8315486 0 0 0 -0.11214,-0.077 9.8315486,9.8315486 0 0 0 -0.11317,-0.0749 9.8315486,9.8315486 0 0 0 -0.113689,-0.0734 9.8315486,9.8315486 0 0 0 -0.11524,-0.0718 9.8315486,9.8315486 0 0 0 -0.115751,-0.0703 9.8315486,9.8315486 0 0 0 -0.11679,-0.0687 9.8315486,9.8315486 0 0 0 -0.11834,-0.0672 9.8315486,9.8315486 0 0 0 -0.118339,-0.0656 9.8315486,9.8315486 0 0 0 -0.119891,-0.0636 9.8315486,9.8315486 0 0 0 -0.12041,-0.062 9.8315486,9.8315486 0 0 0 -0.12143,-0.0605 9.8315486,9.8315486 0 0 0 -0.122479,-0.0589 9.8315486,9.8315486 0 0 0 -0.12299,-0.0568 9.8315486,9.8315486 0 0 0 -0.123501,-0.0558 9.8315486,9.8315486 0 0 0 -0.124539,-0.0537 9.8315486,9.8315486 0 0 0 -0.12558,-0.0517 9.8315486,9.8315486 0 0 0 -0.126091,-0.0501 9.8315486,9.8315486 0 0 0 -0.126599,-0.0486 9.8315486,9.8315486 0 0 0 -0.127131,-0.047 9.8315486,9.8315486 0 0 0 -0.12816,-0.045 9.8315486,9.8315486 0 0 0 -0.128149,-0.0429 9.8315486,9.8315486 0 0 0 -0.1291902,-0.0413 9.8315486,9.8315486 0 0 0 -0.1297098,-0.0398 9.8315486,9.8315486 0 0 0 -0.1302301,-0.0377 9.8315486,9.8315486 0 0 0 -0.1307399,-0.0362 9.8315486,9.8315486 0 0 0 -0.13126,-0.0341 9.8315486,9.8315486 0 0 0 -0.1317702,-0.0326 9.8315486,9.8315486 0 0 0 -0.1322999,-0.0305 9.8315486,9.8315486 0 0 0 -0.13229,-0.0289 9.8315486,9.8315486 0 0 0 -0.1328,-0.0269 9.8315486,9.8315486 0 0 0 -0.1333299,-0.0253 9.8315486,9.8315486 0 0 0 -0.13384,-0.0233 9.8315486,9.8315486 0 0 0 -0.13384,-0.0212 9.8315486,9.8315486 0 0 0 -0.1343602,-0.0196 9.8315486,9.8315486 0 0 0 -0.1343599,-0.0176 9.8315486,9.8315486 0 0 0 -0.1348801,-0.016 9.8315486,9.8315486 0 0 0 -0.13487,-0.0139 9.8315486,9.8315486 0 0 0 -0.1348798,-0.0124 9.8315486,9.8315486 0 0 0 -0.1353899,-0.01 9.8315486,9.8315486 0 0 0 -0.1353903,-0.009 9.8315486,9.8315486 0 0 0 -0.1353899,-0.006 9.8315486,9.8315486 0 0 0 -0.1354,-0.005 9.8315486,9.8315486 0 0 0 -0.1353899,-0.003 9.8315486,9.8315486 0 0 0 -0.1359101,-10e-4 9.8315486,9.8315486 0 0 0 -0.11782,10e-4 9.8315486,9.8315486 0 0 0 -0.13539,0.003 9.8315486,9.8315486 0 0 0 -0.1359101,0.004 9.8315486,9.8315486 0 0 0 -0.1353899,0.006 9.8315486,9.8315486 0 0 0 -0.1354,0.008 9.8315486,9.8315486 0 0 0 -0.13539,0.0104 9.8315486,9.8315486 0 0 0 -0.13487,0.0119 9.8315486,9.8315486 0 0 0 -0.1348801,0.0134 9.8315486,9.8315486 0 0 0 -0.13487,0.0155 9.8315486,9.8315486 0 0 0 -0.1343599,0.0176 9.8315486,9.8315486 0 0 0 -0.1343599,0.0196 9.8315486,9.8315486 0 0 0 -0.13384,0.0212 9.8315486,9.8315486 0 0 0 -0.1338501,0.0227 9.8315486,9.8315486 0 0 0 -0.1333201,0.0248 9.8315486,9.8315486 0 0 0 -0.13281,0.0269 9.8315486,9.8315486 0 0 0 -0.13281,0.0284 9.8315486,9.8315486 0 0 0 -0.1317699,0.0305 9.8315486,9.8315486 0 0 0 -0.1317799,0.032 9.8315486,9.8315486 0 0 0 -0.1312601,0.0341 9.8315486,9.8315486 0 0 0 -0.13125,0.0357 9.8315486,9.8315486 0 0 0 -0.13023,0.0377 9.8315486,9.8315486 0 0 0 -0.1297099,0.0393 9.8315486,9.8315486 0 0 0 -0.1291902,0.0413 9.8315486,9.8315486 0 0 0 -0.1286698,0.0429 9.8315486,9.8315486 0 0 0 -0.1281602,0.045 9.8315486,9.8315486 0 0 0 -0.1271199,0.0465 9.8315486,9.8315486 0 0 0 -0.12661,0.0481 9.8315486,9.8315486 0 0 0 -0.1260901,0.0501 9.8315486,9.8315486 0 0 0 -0.1255799,0.0517 9.8315486,9.8315486 0 0 0 -0.1245302,0.0538 9.8315486,9.8315486 0 0 0 -0.1240297,0.0548 9.8315486,9.8315486 0 0 0 -0.12299,0.0568 9.8315486,9.8315486 0 0 0 -0.1224701,0.0589 9.8315486,9.8315486 0 0 0 -0.12144,0.0599 9.8315486,9.8315486 0 0 0 -0.12041,0.062 9.8315486,9.8315486 0 0 0 -0.11989,0.0636 9.8315486,9.8315486 0 0 0 -0.11885,0.0651 9.8315486,9.8315486 0 0 0 -0.11834,0.0672 9.8315486,9.8315486 0 0 0 -0.1167901,0.0682 9.8315486,9.8315486 0 0 0 -0.1162699,0.0703 9.8315486,9.8315486 0 0 0 -0.11524,0.0718 9.8315486,9.8315486 0 0 0 -0.1142,0.0729 9.8315486,9.8315486 0 0 0 -0.11266,0.0749 9.8315486,9.8315486 0 0 0 -0.11214,0.0765 9.8315486,9.8315486 0 0 0 -0.1111001,0.078 9.8315486,9.8315486 0 0 0 -0.0315,0.0227 24.864681,24.864681 0 0 0 -1.17512,7.55303 24.864681,24.864681 0 0 0 1.5658001,8.683189 z" />
    <path
       id="path1219"
       style="display:inline;fill:#164d2b;fill-opacity:1;stroke:#000000;stroke-width:0.27064;stroke-opacity:1;paint-order:markers fill stroke"
       d="M 24.981416,0.13551999 A 24.864681,24.864681 0 0 0 1.3105059,17.44764 a 9.8315486,9.8315486 0 0 1 0.0315,-0.0227 9.8315486,9.8315486 0 0 1 0.11111,-0.078 9.8315486,9.8315486 0 0 1 0.1121399,-0.0765 9.8315486,9.8315486 0 0 1 0.1126501,-0.0749 9.8315486,9.8315486 0 0 1 0.11421,-0.0729 9.8315486,9.8315486 0 0 1 0.11523,-0.0718 9.8315486,9.8315486 0 0 1 0.11628,-0.0703 9.8315486,9.8315486 0 0 1 0.11678,-0.0682 9.8315486,9.8315486 0 0 1 0.11834,-0.0672 9.8315486,9.8315486 0 0 1 0.11886,-0.0651 9.8315486,9.8315486 0 0 1 0.11989,-0.0636 9.8315486,9.8315486 0 0 1 0.1204,-0.062 9.8315486,9.8315486 0 0 1 0.1214499,-0.0599 9.8315486,9.8315486 0 0 1 0.1224701,-0.0589 9.8315486,9.8315486 0 0 1 0.12299,-0.0568 9.8315486,9.8315486 0 0 1 0.12402,-0.0548 9.8315486,9.8315486 0 0 1 0.1245399,-0.0538 9.8315486,9.8315486 0 0 1 0.1255702,-0.0517 9.8315486,9.8315486 0 0 1 0.1260999,-0.0501 9.8315486,9.8315486 0 0 1 0.1265999,-0.0481 9.8315486,9.8315486 0 0 1 0.1271302,-0.0465 9.8315486,9.8315486 0 0 1 0.1281499,-0.045 9.8315486,9.8315486 0 0 1 0.1286801,-0.0429 9.8315486,9.8315486 0 0 1 0.1291899,-0.0413 9.8315486,9.8315486 0 0 1 0.1297099,-0.0393 9.8315486,9.8315486 0 0 1 0.13022,-0.0377 9.8315486,9.8315486 0 0 1 0.13126,-0.0357 9.8315486,9.8315486 0 0 1 0.1312601,-0.0341 9.8315486,9.8315486 0 0 1 0.1317699,-0.032 9.8315486,9.8315486 0 0 1 0.1317802,-0.0305 9.8315486,9.8315486 0 0 1 0.13281,-0.0284 9.8315486,9.8315486 0 0 1 0.1327999,-0.0269 9.8315486,9.8315486 0 0 1 0.1333299,-0.0248 9.8315486,9.8315486 0 0 1 0.13384,-0.0227 9.8315486,9.8315486 0 0 1 0.13384,-0.0212 9.8315486,9.8315486 0 0 1 0.1343602,-0.0196 9.8315486,9.8315486 0 0 1 0.1343599,-0.0176 9.8315486,9.8315486 0 0 1 0.1348801,-0.0155 9.8315486,9.8315486 0 0 1 0.1348698,-0.0134 9.8315486,9.8315486 0 0 1 0.1348801,-0.0119 9.8315486,9.8315486 0 0 1 0.1353899,-0.0103 9.8315486,9.8315486 0 0 1 0.1353902,-0.008 9.8315486,9.8315486 0 0 1 0.1354,-0.006 9.8315486,9.8315486 0 0 1 0.1358998,-0.004 9.8315486,9.8315486 0 0 1 0.1354,-0.003 9.8315486,9.8315486 0 0 1 0.11782,-0.001 9.8315486,9.8315486 0 0 1 0.1359101,0.001 9.8315486,9.8315486 0 0 1 0.13539,0.003 9.8315486,9.8315486 0 0 1 0.1353899,0.005 9.8315486,9.8315486 0 0 1 0.1353902,0.006 9.8315486,9.8315486 0 0 1 0.1354,0.009 9.8315486,9.8315486 0 0 1 0.1353899,0.01 9.8315486,9.8315486 0 0 1 0.1348701,0.0124 9.8315486,9.8315486 0 0 1 0.13488,0.0139 9.8315486,9.8315486 0 0 1 0.1348698,0.016 9.8315486,9.8315486 0 0 1 0.1343602,0.0176 9.8315486,9.8315486 0 0 1 0.1343599,0.0196 9.8315486,9.8315486 0 0 1 0.1338501,0.0212 9.8315486,9.8315486 0 0 1 0.13384,0.0233 9.8315486,9.8315486 0 0 1 0.1333198,0.0253 9.8315486,9.8315486 0 0 1 0.1328103,0.0269 9.8315486,9.8315486 0 0 1 0.1322898,0.0289 9.8315486,9.8315486 0 0 1 0.1322901,0.0305 9.8315486,9.8315486 0 0 1 0.1317799,0.0326 9.8315486,9.8315486 0 0 1 0.1312601,0.0341 9.8315486,9.8315486 0 0 1 0.1307399,0.0362 9.8315486,9.8315486 0 0 1 0.1302199,0.0377 9.8315486,9.8315486 0 0 1 0.1297102,0.0398 9.8315486,9.8315486 0 0 1 0.129189,0.0413 9.8315486,9.8315486 0 0 1 0.12816,0.0429 9.8315486,9.8315486 0 0 1 0.128161,0.045 9.8315486,9.8315486 0 0 1 0.127119,0.047 9.8315486,9.8315486 0 0 1 0.12661,0.0486 9.8315486,9.8315486 0 0 1 0.126091,0.0501 9.8315486,9.8315486 0 0 1 0.125569,0.0517 9.8315486,9.8315486 0 0 1 0.12454,0.0537 9.8315486,9.8315486 0 0 1 0.12351,0.0558 9.8315486,9.8315486 0 0 1 0.12299,0.0568 9.8315486,9.8315486 0 0 1 0.122471,0.0589 9.8315486,9.8315486 0 0 1 0.12144,0.0605 9.8315486,9.8315486 0 0 1 0.120409,0.062 9.8315486,9.8315486 0 0 1 0.11989,0.0636 9.8315486,9.8315486 0 0 1 0.118331,0.0656 9.8315486,9.8315486 0 0 1 0.11834,0.0672 9.8315486,9.8315486 0 0 1 0.11679,0.0687 9.8315486,9.8315486 0 0 1 0.115759,0.0703 9.8315486,9.8315486 0 0 1 0.115241,0.0718 9.8315486,9.8315486 0 0 1 0.113689,0.0734 9.8315486,9.8315486 0 0 1 0.11317,0.0749 9.8315486,9.8315486 0 0 1 0.112131,0.077 9.8315486,9.8315486 0 0 1 0.11059,0.078 9.8315486,9.8315486 0 0 1 0.110069,0.0796 9.8315486,9.8315486 0 0 1 0.108521,0.0811 9.8315486,9.8315486 0 0 1 0.107489,0.0827 9.8315486,9.8315486 0 0 1 0.106451,0.0842 9.8315486,9.8315486 0 0 1 0.104909,0.0853 9.8315486,9.8315486 0 0 1 0.10438,0.0873 9.8315486,9.8315486 0 0 1 0.102841,0.0884 9.8315486,9.8315486 0 0 1 0.101289,0.0899 9.8315486,9.8315486 0 0 1 0.100251,0.0909 9.8315486,9.8315486 0 0 1 0.0992,0.0925 9.8315486,9.8315486 0 0 1 0.0977,0.094 9.8315486,9.8315486 0 0 1 0.0966,0.0956 9.8315486,9.8315486 0 0 1 0.0951,0.0966 9.8315486,9.8315486 0 0 1 0.0941,0.0977 9.8315486,9.8315486 0 0 1 0.0925,0.0992 9.8315486,9.8315486 0 0 1 0.0909,0.10077 9.8315486,9.8315486 0 0 1 0.0894,0.1018 9.8315486,9.8315486 0 0 1 0.0884,0.10284 9.8315486,9.8315486 0 0 1 0.0868,0.10438 9.8315486,9.8315486 0 0 1 0.0853,0.10491 9.8315486,9.8315486 0 0 1 0.0842,0.10697 9.8315486,9.8315486 0 0 1 0.0822,0.10748 9.8315486,9.8315486 0 0 1 0.0811,0.10904 9.8315486,9.8315486 0 0 1 0.0796,0.10956 9.8315486,9.8315486 0 0 1 0.078,0.1111 9.8315486,9.8315486 0 0 1 0.076,0.11214 9.8315486,9.8315486 0 0 1 0.0749,0.11317 9.8315486,9.8315486 0 0 1 0.0734,0.1142 9.8315486,9.8315486 0 0 1 0.0718,0.11473 9.8315486,9.8315486 0 0 1 0.0698,0.11627 9.8315486,9.8315486 0 0 1 0.0687,0.1173 9.8315486,9.8315486 0 0 1 0.0667,0.11782 9.8315486,9.8315486 0 0 1 0.0651,0.11886 9.8315486,9.8315486 0 0 1 0.0636,0.11989 9.8315486,9.8315486 0 0 1 0.062,0.12041 9.8315486,9.8315486 0 0 1 0.0605,0.12195 9.8315486,9.8315486 0 0 1 0.0584,0.12196 9.8315486,9.8315486 0 0 1 0.0568,0.12351 9.8315486,9.8315486 0 0 1 0.0553,0.1235 9.8315486,9.8315486 0 0 1 0.0532,0.12454 9.8315486,9.8315486 0 0 1 0.0522,0.12558 9.8315486,9.8315486 0 0 1 0.0496,0.12609 9.8315486,9.8315486 0 0 1 0.0486,0.1266 9.8315486,9.8315486 0 0 1 0.0465,0.12765 9.8315486,9.8315486 0 0 1 0.0445,0.12815 9.8315486,9.8315486 0 0 1 0.0429,0.12868 9.8315486,9.8315486 0 0 1 0.0413,0.12919 9.8315486,9.8315486 0 0 1 0.0393,0.12971 9.8315486,9.8315486 0 0 1 0.0377,0.13022 9.8315486,9.8315486 0 0 1 0.0357,0.13074 9.8315486,9.8315486 0 0 1 0.0341,0.13126 9.8315486,9.8315486 0 0 1 0.032,0.13177 9.8315486,9.8315486 0 0 1 0.0305,0.1323 9.8315486,9.8315486 0 0 1 0.0284,0.13229 9.8315486,9.8315486 0 0 1 0.0269,0.13332 9.8315486,9.8315486 0 0 1 0.0248,0.13333 9.8315486,9.8315486 0 0 1 0.0233,0.13332 9.8315486,9.8315486 0 0 1 0.0212,0.13436 9.8315486,9.8315486 0 0 1 0.0191,0.13384 9.8315486,9.8315486 0 0 1 0.0176,0.13488 9.8315486,9.8315486 0 0 1 0.0155,0.13436 9.8315486,9.8315486 0 0 1 0.0139,0.13487 9.8315486,9.8315486 0 0 1 0.0119,0.1354 9.8315486,9.8315486 0 0 1 0.01,0.13487 9.8315486,9.8315486 0 0 1 0.008,0.13539 9.8315486,9.8315486 0 0 1 0.006,0.13591 9.8315486,9.8315486 0 0 1 0.005,0.13539 9.8315486,9.8315486 0 0 1 0.003,0.1354 9.8315486,9.8315486 0 0 1 5.29e-4,0.11782 9.8315486,9.8315486 0 0 1 -10e-4,0.13591 9.8315486,9.8315486 0 0 1 -0.003,0.13539 9.8315486,9.8315486 0 0 1 -0.005,0.13591 9.8315486,9.8315486 0 0 1 -0.007,0.13539 9.8315486,9.8315486 0 0 1 -0.008,0.13539 9.8315486,9.8315486 0 0 1 -0.0103,0.13488 9.8315486,9.8315486 0 0 1 -0.0119,0.13539 9.8315486,9.8315486 0 0 1 -0.0139,0.134879 9.8315486,9.8315486 0 0 1 -0.016,0.134361 9.8315486,9.8315486 0 0 1 -0.0176,0.134871 9.8315486,9.8315486 0 0 1 -0.0196,0.13384 9.8315486,9.8315486 0 0 1 -0.0217,0.13385 9.8315486,9.8315486 0 0 1 -0.0233,0.133839 9.8315486,9.8315486 0 0 1 -0.0248,0.133321 9.8315486,9.8315486 0 0 1 -0.0274,0.13281 9.8315486,9.8315486 0 0 1 -0.0284,0.132811 9.8315486,9.8315486 0 0 1 -0.0305,0.131767 9.8315486,9.8315486 0 0 1 -0.0326,0.131781 9.8315486,9.8315486 0 0 1 -0.0341,0.13126 9.8315486,9.8315486 0 0 1 -0.0362,0.130741 9.8315486,9.8315486 0 0 1 -0.0377,0.13022 9.8315486,9.8315486 0 0 1 -0.0398,0.12971 9.8315486,9.8315486 0 0 1 -0.0413,0.12919 9.8315486,9.8315486 0 0 1 -0.0434,0.128681 9.8315486,9.8315486 0 0 1 -0.045,0.127637 9.8315486,9.8315486 0 0 1 -0.0465,0.12764 9.8315486,9.8315486 0 0 1 -0.0486,0.126612 9.8315486,9.8315486 0 0 1 -0.0501,0.126089 9.8315486,9.8315486 0 0 1 -0.0522,0.12505 9.8315486,9.8315486 0 0 1 -0.0537,0.12454 9.8315486,9.8315486 0 0 1 -0.0553,0.124031 9.8315486,9.8315486 0 0 1 -0.0568,0.122989 9.8315486,9.8315486 0 0 1 -0.0589,0.121949 9.8315486,9.8315486 0 0 1 -0.0605,0.121441 9.8315486,9.8315486 0 0 1 -0.062,0.120409 9.8315486,9.8315486 0 0 1 -0.0641,0.119891 9.8315486,9.8315486 0 0 1 -0.0656,0.118851 9.8315486,9.8315486 0 0 1 -0.0667,0.11783 9.8315486,9.8315486 0 0 1 -0.0687,0.116789 9.8315486,9.8315486 0 0 1 -0.0703,0.116271 9.8315486,9.8315486 0 0 1 -0.0718,0.114718 9.8315486,9.8315486 0 0 1 -0.0739,0.114203 9.8315486,9.8315486 0 0 1 -0.0749,0.112659 9.8315486,9.8315486 0 0 1 -0.0765,0.112138 9.8315486,9.8315486 0 0 1 -0.078,0.111102 9.8315486,9.8315486 0 0 1 -0.0796,0.10955 9.8315486,9.8315486 0 0 1 -0.0811,0.10853 9.8315486,9.8315486 0 0 1 -0.0827,0.107479 9.8315486,9.8315486 0 0 1 -0.0842,0.10646 9.8315486,9.8315486 0 0 1 -0.0858,0.105421 9.8315486,9.8315486 0 0 1 -0.0868,0.10387 9.8315486,9.8315486 0 0 1 -0.0884,0.10283 9.8315486,9.8315486 0 0 1 -0.0899,0.101799 9.8315486,9.8315486 0 0 1 -0.0915,0.100261 9.8315486,9.8315486 0 0 1 -0.0925,0.0992 9.8315486,9.8315486 0 0 1 -0.0941,0.0977 9.8315486,9.8315486 0 0 1 -0.0951,0.0961 9.8315486,9.8315486 0 0 1 -0.0966,0.0956 9.8315486,9.8315486 0 0 1 -0.0982,0.0935 9.8315486,9.8315486 0 0 1 -0.0992,0.0925 9.8315486,9.8315486 0 0 1 -0.10025,0.091 9.8315486,9.8315486 0 0 1 -0.1018,0.0899 9.8315486,9.8315486 0 0 1 -0.10284,0.0884 9.8315486,9.8315486 0 0 1 -0.10438,0.0868 9.8315486,9.8315486 0 0 1 -0.10542,0.0853 9.8315486,9.8315486 0 0 1 -0.10646,0.0837 9.8315486,9.8315486 0 0 1 -0.10748,0.0827 9.8315486,9.8315486 0 0 1 -0.10904,0.0806 9.8315486,9.8315486 0 0 1 -0.11007,0.0796 9.8315486,9.8315486 0 0 1 -0.11059,0.078 9.8315486,9.8315486 0 0 1 -0.11214,0.0765 9.8315486,9.8315486 0 0 1 -0.11317,0.0749 9.8315486,9.8315486 0 0 1 -0.1142,0.0729 9.8315486,9.8315486 0 0 1 -0.11524,0.0718 9.8315486,9.8315486 0 0 1 -0.11627,0.0703 9.8315486,9.8315486 0 0 1 -0.11679,0.0682 9.8315486,9.8315486 0 0 1 -0.11783,0.0672 9.8315486,9.8315486 0 0 1 -0.11937,0.0651 9.8315486,9.8315486 0 0 1 -0.11937,0.0636 9.8315486,9.8315486 0 0 1 -0.12092,0.062 9.8315486,9.8315486 0 0 1 -0.12144,0.0599 9.8315486,9.8315486 0 0 1 -0.12248,0.0589 9.8315486,9.8315486 0 0 1 -0.12299,0.0568 9.8315486,9.8315486 0 0 1 -0.12402,0.0548 9.8315486,9.8315486 0 0 1 -0.12454,0.0537 9.8315486,9.8315486 0 0 1 -0.12506,0.0517 9.8315486,9.8315486 0 0 1 -0.12609,0.0501 9.8315486,9.8315486 0 0 1 -0.12712,0.0481 9.8315486,9.8315486 0 0 1 -0.12712,0.0465 9.8315486,9.8315486 0 0 1 -0.12816,0.045 9.8315486,9.8315486 0 0 1 -0.12868,0.0429 9.8315486,9.8315486 0 0 1 -0.1291893,0.0408 9.8315486,9.8315486 0 0 1 -0.1297101,0.0398 9.8315486,9.8315486 0 0 1 -0.13022,0.0372 9.8315486,9.8315486 0 0 1 -0.1307399,0.0362 9.8315486,9.8315486 0 0 1 -0.13126,0.0341 9.8315486,9.8315486 0 0 1 -0.13178,0.032 9.8315486,9.8315486 0 0 1 -0.1322901,0.0305 9.8315486,9.8315486 0 0 1 -0.1327999,0.0284 9.8315486,9.8315486 0 0 1 -0.13281,0.0269 9.8315486,9.8315486 0 0 1 -0.1333299,0.02479 9.8315486,9.8315486 0 0 1 -0.13384,0.0227 9.8315486,9.8315486 0 0 1 -0.13384,0.02119 9.8315486,9.8315486 0 0 1 -0.1343602,0.0196 9.8315486,9.8315486 0 0 1 -0.1343599,0.01709 9.8315486,9.8315486 0 0 1 -0.1348801,0.01601 9.8315486,9.8315486 0 0 1 -0.13487,0.01341 9.8315486,9.8315486 0 0 1 -0.1348798,0.01191 9.8315486,9.8315486 0 0 1 -0.1353902,0.01029 9.8315486,9.8315486 0 0 1 -0.1353899,0.008 9.8315486,9.8315486 0 0 1 -0.13539,0.006 9.8315486,9.8315486 0 0 1 -0.1354,0.004 9.8315486,9.8315486 0 0 1 -0.1359,0.003 9.8315486,9.8315486 0 0 1 -0.1178301,0.0011 9.8315486,9.8315486 0 0 1 -0.1353899,-0.0011 9.8315486,9.8315486 0 0 1 -0.1359099,-0.003 9.8315486,9.8315486 0 0 1 -0.1353902,-0.005 9.8315486,9.8315486 0 0 1 -0.1353899,-0.006 9.8315486,9.8315486 0 0 1 -0.1354,-0.009 9.8315486,9.8315486 0 0 1 -0.13539,-0.01 9.8315486,9.8315486 0 0 1 -0.13487,-0.01241 9.8315486,9.8315486 0 0 1 -0.1348801,-0.01389 9.8315486,9.8315486 0 0 1 -0.13487,-0.01601 9.8315486,9.8315486 0 0 1 -0.1343599,-0.0176 9.8315486,9.8315486 0 0 1 -0.1343599,-0.01961 9.8315486,9.8315486 0 0 1 -0.13384,-0.02119 9.8315486,9.8315486 0 0 1 -0.1333302,-0.02331 9.8315486,9.8315486 0 0 1 -0.1333198,-0.02529 9.8315486,9.8315486 0 0 1 -0.1333302,-0.0269 9.8315486,9.8315486 0 0 1 -0.1322898,-0.0289 9.8315486,9.8315486 0 0 1 -0.1322901,-0.0305 9.8315486,9.8315486 0 0 1 -0.1317799,-0.0326 9.8315486,9.8315486 0 0 1 -0.1312601,-0.0341 9.8315486,9.8315486 0 0 1 -0.1307401,-0.0362 9.8315486,9.8315486 0 0 1 -0.13022,-0.0377 9.8315486,9.8315486 0 0 1 -0.1297099,-0.0398 9.8315486,9.8315486 0 0 1 -0.12867,-0.0413 9.8315486,9.8315486 0 0 1 -0.1286801,-0.0429 9.8315486,9.8315486 0 0 1 -0.1281499,-0.0455 9.8315486,9.8315486 0 0 1 -0.1271299,-0.0465 9.8315486,9.8315486 0 0 1 -0.1266002,-0.0486 9.8315486,9.8315486 0 0 1 -0.1260999,-0.0501 9.8315486,9.8315486 0 0 1 -0.1250501,-0.0517 9.8315486,9.8315486 0 0 1 -0.12506,-0.0537 9.8315486,9.8315486 0 0 1 -0.1235099,-0.0558 9.8315486,9.8315486 0 0 1 -0.12299,-0.0568 9.8315486,9.8315486 0 0 1 -0.1224701,-0.0589 9.8315486,9.8315486 0 0 1 -0.1214399,-0.0605 9.8315486,9.8315486 0 0 1 -0.12041,-0.062 9.8315486,9.8315486 0 0 1 -0.11937,-0.0641 9.8315486,9.8315486 0 0 1 -0.11885,-0.0651 9.8315486,9.8315486 0 0 1 -0.11783,-0.0672 9.8315486,9.8315486 0 0 1 -0.1173001,-0.0687 9.8315486,9.8315486 0 0 1 -0.11576,-0.0703 9.8315486,9.8315486 0 0 1 -0.1152217,-0.07179 9.8315486,9.8315486 0 0 1 -0.076,-0.0491 A 24.864681,24.864681 0 0 0 24.999926,49.865095 24.864681,24.864681 0 0 0 49.864557,25.00046 24.864681,24.864681 0 0 0 24.999926,0.13531999 a 24.864681,24.864681 0 0 0 -0.0186,0 z" />
    <text
       xml:space="preserve"
       style="font-style:normal;font-variant:normal;font-weight:normal;font-stretch:normal;font-size:20.8139px;line-height:1.25;font-family:'Berlin Sans FB Demi';-inkscape-font-specification:'Berlin Sans FB Demi';display:inline;stroke-width:0.264583"
       x="0.79450941"
       y="29.88455"
       id="text1149-4"><tspan
         sodipodi:role="line"
         id="tspan1147-8"
         x="0.79450941"
         y="29.88455"
         style="font-style:normal;font-variant:normal;font-weight:normal;font-stretch:normal;font-size:20.8139px;font-family:'Berlin Sans FB Demi';-inkscape-font-specification:'Berlin Sans FB Demi';stroke-width:0.264583">6</tspan></text>
    <rect
       style="opacity:1;fill:#000000;fill-opacity:1;stroke:#000000;stroke-width:0.272;stroke-opacity:1;paint-order:markers fill stroke"
       id="rect1293-7"
       width="8.611249"
       height="1.493788"
       x="2.4277949"
       y="30.620108" />
    <circle
       style="display:inline;opacity:0.88141;mix-blend-mode:normal;fill:url(#radialGradient1561-637);fill-opacity:1;stroke:none;stroke-width:0.212909;stroke-opacity:1;paint-order:markers fill stroke"
       id="path1129-41"
       cx="25"
       cy="25.000418"
       r="25" />
    <circle
       style="display:inline;opacity:0.88141;mix-blend-mode:normal;fill:url(#radialGradient1561-9-67);fill-opacity:1;stroke:none;stroke-width:0.212909;stroke-opacity:1;paint-order:markers fill stroke"
       id="path1129-9-5"
       cx="25"
       cy="25.000418"
       r="25" />
  </g>
</svg>
