<?xml version="1.0" encoding="UTF-8" standalone="no"?>
<svg
   xmlns:dc="http://purl.org/dc/elements/1.1/"
   xmlns:cc="http://creativecommons.org/ns#"
   xmlns:rdf="http://www.w3.org/1999/02/22-rdf-syntax-ns#"
   xmlns:svg="http://www.w3.org/2000/svg"
   xmlns="http://www.w3.org/2000/svg"
   xmlns:sodipodi="http://sodipodi.sourceforge.net/DTD/sodipodi-0.dtd"
   xmlns:inkscape="http://www.inkscape.org/namespaces/inkscape"
   version="1.1"
   id="svg2"
   xml:space="preserve"
   width="793.33331"
   height="1122.6667"
   viewBox="0 0 793.33331 1122.6667"
   sodipodi:docname="Anime-Vector-4_vectormadness.ai"><metadata
     id="metadata8"><rdf:RDF><cc:Work
         rdf:about=""><dc:format>image/svg+xml</dc:format><dc:type
           rdf:resource="http://purl.org/dc/dcmitype/StillImage" /></cc:Work></rdf:RDF></metadata><defs
     id="defs6"><clipPath
       clipPathUnits="userSpaceOnUse"
       id="clipPath18"><path
         d="M 0,842 H 595 V 0 H 0 Z"
         id="path16" /></clipPath></defs><sodipodi:namedview
     pagecolor="#ffffff"
     bordercolor="#666666"
     borderopacity="1"
     objecttolerance="10"
     gridtolerance="10"
     guidetolerance="10"
     inkscape:pageopacity="0"
     inkscape:pageshadow="2"
     inkscape:window-width="640"
     inkscape:window-height="480"
     id="namedview4" /><g
     id="g10"
     inkscape:groupmode="layer"
     inkscape:label="Anime-Vector-4_vectormadness"
     transform="matrix(1.3333333,0,0,-1.3333333,0,1122.6667)"><g
       id="g12"><g
         id="g14"
         clip-path="url(#clipPath18)"><path
           d="m 333.428,572.389 0.122,-3.626 c 12.92,7.802 25.84,10.826 38.762,8.609 l -1.13,2.065 c -11.463,1.22 -24.013,-1.017 -37.754,-7.048"
           style="fill:#231f20;fill-opacity:1;fill-rule:evenodd;stroke:none"
           id="path20" /><path
           d="m 333.428,572.389 0.122,-3.626 c 12.92,7.802 25.84,10.826 38.762,8.609 l -1.13,2.065 c -11.463,1.22 -24.013,-1.017 -37.754,-7.048 z"
           style="fill:none;stroke:#231f20;stroke-width:0.216;stroke-linecap:butt;stroke-linejoin:miter;stroke-miterlimit:22.926;stroke-dasharray:none;stroke-opacity:1"
           id="path22" /><path
           d="m 282.887,588.687 c -7.312,-35.606 0.502,-57.037 18.67,-68.769 l -11.647,6.522 c 5.023,-19.032 15.365,-31.891 29.349,-40.528 l 46.007,-7.98 16.244,13.047 c 0.292,3.678 1.571,7.242 2.751,11.034 -2.491,-3.518 -6.066,-6.254 -11.216,-7.85 3.748,2.407 6.213,5.476 7.395,9.204 -5.777,-4.567 -11.616,-6.83 -17.49,-7.803 21.779,9.006 39.732,44.612 19.908,72.06 -5.701,3.532 -11.402,11.963 -17.103,17.945 l 5.29,-16.608 c -4.849,12.656 -12.221,24.077 -22.113,34.273 3.961,-17.077 12.139,-30.713 26.774,-39.754 -21.669,9.51 -33.437,25.693 -42.196,44.24 -4.19,-30.212 -0.309,-54.462 14.86,-70.378 -16.959,10.842 -23.061,34.846 -22.431,67.013 l -5.046,-8.411 c -9.264,-0.841 -17.741,1.964 -25.858,6.429 -1.24,-18.192 2.14,-33.908 9.001,-47.76 -5.804,8.151 -10.117,18.283 -13.194,30.057 0.471,-12.867 3.852,-24.644 8.864,-35.807 -8.052,9.015 -13.371,22.791 -16.819,39.824"
           style="fill:#fbca8e;fill-opacity:1;fill-rule:evenodd;stroke:none"
           id="path24" /><path
           d="m 282.887,588.687 c -7.312,-35.606 0.502,-57.037 18.67,-68.769 l -11.647,6.522 c 5.023,-19.032 15.365,-31.891 29.349,-40.528 l 46.007,-7.98 16.244,13.047 c 0.292,3.678 1.571,7.242 2.751,11.034 -2.491,-3.518 -6.066,-6.254 -11.216,-7.85 3.748,2.407 6.213,5.476 7.395,9.204 -5.777,-4.567 -11.616,-6.83 -17.49,-7.803 21.779,9.006 39.732,44.612 19.908,72.06 -5.701,3.532 -11.402,11.963 -17.103,17.945 l 5.29,-16.608 c -4.849,12.656 -12.221,24.077 -22.113,34.273 3.961,-17.077 12.139,-30.713 26.774,-39.754 -21.669,9.51 -33.437,25.693 -42.196,44.24 -4.19,-30.212 -0.309,-54.462 14.86,-70.378 -16.959,10.842 -23.061,34.846 -22.431,67.013 l -5.046,-8.411 c -9.264,-0.841 -17.741,1.964 -25.858,6.429 -1.24,-18.192 2.14,-33.908 9.001,-47.76 -5.804,8.151 -10.117,18.283 -13.194,30.057 0.471,-12.867 3.852,-24.644 8.864,-35.807 -8.052,9.015 -13.371,22.791 -16.819,39.824 z"
           style="fill:none;stroke:#231f20;stroke-width:0.216;stroke-linecap:butt;stroke-linejoin:miter;stroke-miterlimit:22.926;stroke-dasharray:none;stroke-opacity:1"
           id="path26" /><path
           d="m 233.18,418.299 c -5.064,-12.846 -17.279,-12.395 -20.247,-40.208 -3.608,-5.953 -0.011,-9.066 -0.017,-13.6 l 1.416,-31.763 c -0.405,-6.639 0.74,-12.77 2.944,-18.551 4.925,-7.196 0.077,-15.971 0.115,-23.957 -3.755,-30.15 1.457,-57.272 12.803,-82.321 3.155,-19.509 9.088,-33.211 19.975,-36.561 l 2.999,-4.134 193.726,0.409 c 45.498,25.506 34.84,48.399 44.577,68.707 1.849,7.931 9.101,12.324 11.167,19.482 l -2.635,12.043 8.731,27.807 4.827,11.02 c -3.546,4.232 -5.433,7.061 -4.173,13.547 l -3.377,32.216 c 0.748,4.4 0.315,7.4 -1.836,8.351 2.416,2.234 1.853,5.257 -0.745,8.818 1.277,8.674 -8.906,19.052 -17.168,29.515 -4.416,5.741 -8.972,7.937 -14.148,4.951 l -15.25,-8.212 c -15.374,-5.176 -22.623,-42.153 -58.602,-47.972 0.274,-7.878 -3.385,-15.03 -5.078,-22.544 -1.968,-3.84 -4.79,-5.7 -8.467,-5.581 -9.235,1.077 -18.102,4.365 -26.663,9.484 -1.716,1.84 -2.424,3.791 -2.124,5.853 -2.775,0.745 -4.133,2.774 -4.076,6.087 l 4.312,9.864 c -1.508,3.882 -1.398,8.277 0.051,13.097 -0.777,3.266 -0.005,7.245 0.921,10.517 -1.863,0.293 -4.865,-4.155 -7.809,-4.777 -19.236,-1.029 -35.509,4.5 -49.463,15.154 l -5.205,6.613 -0.266,-7.525 7.082,-15.97 -18.227,-14.53 c -18.59,6.725 -22.68,35.584 -34.019,53.375 -5.351,3.766 -10.07,11.483 -16.051,11.296"
           style="fill:#e8f065;fill-opacity:1;fill-rule:evenodd;stroke:none"
           id="path28" /><path
           d="m 233.18,418.299 c -5.064,-12.846 -17.279,-12.395 -20.247,-40.208 -3.608,-5.953 -0.011,-9.066 -0.017,-13.6 l 1.416,-31.763 c -0.405,-6.639 0.74,-12.77 2.944,-18.551 4.925,-7.196 0.077,-15.971 0.115,-23.957 -3.755,-30.15 1.457,-57.272 12.803,-82.321 3.155,-19.509 9.088,-33.211 19.975,-36.561 l 2.999,-4.134 193.726,0.409 c 45.498,25.506 34.84,48.399 44.577,68.707 1.849,7.931 9.101,12.324 11.167,19.482 l -2.635,12.043 8.731,27.807 4.827,11.02 c -3.546,4.232 -5.433,7.061 -4.173,13.547 l -3.377,32.216 c 0.748,4.4 0.315,7.4 -1.836,8.351 2.416,2.234 1.853,5.257 -0.745,8.818 1.277,8.674 -8.906,19.052 -17.168,29.515 -4.416,5.741 -8.972,7.937 -14.148,4.951 l -15.25,-8.212 c -15.374,-5.176 -22.623,-42.153 -58.602,-47.972 0.274,-7.878 -3.385,-15.03 -5.078,-22.544 -1.968,-3.84 -4.79,-5.7 -8.467,-5.581 -9.235,1.077 -18.102,4.365 -26.663,9.484 -1.716,1.84 -2.424,3.791 -2.124,5.853 -2.775,0.745 -4.133,2.774 -4.076,6.087 l 4.312,9.864 c -1.508,3.882 -1.398,8.277 0.051,13.097 -0.777,3.266 -0.005,7.245 0.921,10.517 -1.863,0.293 -4.865,-4.155 -7.809,-4.777 -19.236,-1.029 -35.509,4.5 -49.463,15.154 l -5.205,6.613 -0.266,-7.525 7.082,-15.97 -18.227,-14.53 c -18.59,6.725 -22.68,35.584 -34.019,53.375 -5.351,3.766 -10.07,11.483 -16.051,11.296 z"
           style="fill:none;stroke:#231f20;stroke-width:1.84;stroke-linecap:round;stroke-linejoin:round;stroke-miterlimit:22.926;stroke-dasharray:none;stroke-opacity:1"
           id="path30" /><path
           d="m 424.801,377.021 24.561,13.557 c 2.461,3.132 4.97,4.586 7.502,5.28 l 15.25,8.212 c 4.31,2.821 8.661,1.617 13.058,-3.611 0.513,3.684 -1.802,6.738 -4.52,9.705 l -13.19,9.15 c -22.215,-5.033 -38.89,3.709 -51.774,21.877 -6.893,4.572 -11.85,17.998 -16.531,20.771 0.383,-7.988 5.194,-19.296 7.789,-28.943 l -3.503,-3.956 c 2.488,-11.929 8.848,-22.474 13.272,-33.71 z"
           style="fill:#2e3192;fill-opacity:1;fill-rule:evenodd;stroke:none"
           id="path32" /><path
           d="m 424.801,377.021 24.561,13.557 c 2.461,3.132 4.97,4.586 7.502,5.28 l 15.25,8.212 c 4.31,2.821 8.661,1.617 13.058,-3.611 0.513,3.684 -1.802,6.738 -4.52,9.705 l -13.19,9.15 c -22.215,-5.033 -38.89,3.709 -51.774,21.877 -6.893,4.572 -11.85,17.998 -16.531,20.771 0.383,-7.988 5.194,-19.296 7.789,-28.943 l -3.503,-3.956 c 2.488,-11.929 8.848,-22.474 13.272,-33.71 z"
           style="fill:none;stroke:#231f20;stroke-width:1.84;stroke-linecap:round;stroke-linejoin:round;stroke-miterlimit:22.926;stroke-dasharray:none;stroke-opacity:1"
           id="path34" /><path
           d="m 418.654,390.953 2.586,-6.788 c 17.155,9.108 34.212,20.285 50.262,32.347 l -4.04,2.802 c -1.624,-0.593 -3.248,-0.929 -4.869,-0.807 -14.215,-11.133 -28.988,-19.746 -43.939,-27.554"
           style="fill:#ffffff;fill-opacity:1;fill-rule:evenodd;stroke:none"
           id="path36" /><path
           d="m 418.654,390.953 2.586,-6.788 c 17.155,9.108 34.212,20.285 50.262,32.347 l -4.04,2.802 c -1.624,-0.593 -3.248,-0.929 -4.869,-0.807 -14.215,-11.133 -28.988,-19.746 -43.939,-27.554 z"
           style="fill:none;stroke:#231f20;stroke-width:1.84;stroke-linecap:round;stroke-linejoin:round;stroke-miterlimit:22.926;stroke-dasharray:none;stroke-opacity:1"
           id="path38" /><path
           d="m 320.893,595.944 5.046,8.411 c -1.329,-32.138 5.87,-54.787 22.431,-67.013 -13.667,15.36 -19.476,38.022 -14.86,70.378 10.826,-23.633 25.31,-37.971 42.826,-44.61 -13.817,8.006 -22.953,21.382 -27.404,40.124 8.625,-8.487 16.163,-19.52 22.113,-34.273 l -5.29,16.608 c 5.701,-5.982 10.733,-13.305 17.103,-17.945 16.837,-20.664 8.014,-58.942 -19.908,-72.06 6.784,0.991 13.779,4.378 21.029,10.655 -3.043,-4.847 -6.651,-8.919 -10.934,-12.056 4.086,0.692 7.747,3.736 11.216,7.85 -4.878,-13.992 -3.74,-28.412 -5.609,-42.619 -1.18,-20.824 1.346,-40.413 10.483,-57.8 8.457,-21.688 12.176,-43.169 7.453,-64.286 4.908,5.48 6.413,15.382 5.591,28.309 4.56,-12.326 4.249,-25.8 -0.932,-40.421 7.974,10.681 9.072,25.659 3.296,44.934 l 22.791,-29.562 c 3.931,-34.238 -26.057,-53.345 -48.913,-34.005 11.533,-11.734 24.624,-14.379 39.597,-6.057 -10.298,-10.292 -24.142,-8.764 -39.597,-1.863 10.247,-6.627 20.496,-9.529 30.745,-6.988 -7.337,-11.705 -8.854,-22.012 -1.863,-30.28 -4.888,14.519 0.273,25.687 12.578,34.473 10.006,8.817 14.999,20.14 15.839,33.541 11.372,-20.356 14.093,-37.62 1.397,-49.38 14.865,13.479 15.044,30.996 6.987,50.777 l -8.85,14.907 c 0.116,16.054 -15.455,38.124 -17.702,47.516 -4.815,12.889 -13.281,24.702 -14.442,38.665 10.555,-27.476 23.669,-51.461 40.529,-70.342 -19.618,26.215 -32.626,56.1 -41.926,88.044 -9.3,31.945 8.027,-7.095 13.975,-8.385 12.673,-19.039 29.93,-26.33 51.774,-21.877 -19.407,22.081 -27.152,55.393 -25.52,91.42 l 1.877,87.97 c -6.287,32.125 -19.368,45.422 -37.098,45.838 4.159,7.483 5.031,13.212 1.096,16.379 -0.176,-6.727 -1.373,-9.864 -3.587,-9.414 -1.154,9.889 -4.061,16.438 -8.168,20.705 l 5.525,-20.537 c -24.66,40.976 -108.41,18.004 -126.459,-14.105 -11.698,-12.482 -22.071,-32.058 -35.097,-37.445 l 14.316,4.482 c -3.707,-12.794 -11.207,-23.878 -24.248,-32.462 5.775,-0.453 11.487,1.672 17.135,6.371 -4.365,-17.63 -4.061,-33.918 0.91,-48.865 -4.067,15.728 -3.619,31.49 2.275,47.295 l 5.209,-30.528 c -5.158,-20.911 0.167,-35.546 14.179,-44.981 -7.866,13.683 -9.614,29.854 -5.246,48.511 2.202,-12.099 5.518,-22.791 10.462,-31.43 4.609,-37.793 -18.294,-72.815 -33.362,-92.4 10.916,1.27 18.881,11.586 25.776,25.173 -0.558,-6.953 -2.832,-13.925 -6.823,-20.915 l 16.259,4.572 3.446,-9.314 14.716,26.737 c 3.915,5.715 9.152,4.456 16.304,2.329 l -8.851,9.783 c -1.871,1.949 -1.549,3.898 0.965,5.846 l 15.806,15.583 c -14.066,8.768 -24.734,21.296 -29.349,40.528 l 11.647,-6.522 c -18.398,10.942 -26.098,32.993 -18.168,71.274 2.715,-18.204 7.59,-33.161 16.317,-42.329 -5.096,11.019 -8.493,22.766 -8.864,35.807 2.606,-10.914 7.215,-20.828 13.194,-30.057 -6.636,15.22 -11.146,30.851 -9.001,47.76 7.986,-4.834 16.522,-7.334 25.858,-6.429"
           style="fill:#fff200;fill-opacity:1;fill-rule:evenodd;stroke:none"
           id="path40" /><path
           d="m 320.893,595.944 5.046,8.411 c -1.329,-32.138 5.87,-54.787 22.431,-67.013 -13.667,15.36 -19.476,38.022 -14.86,70.378 10.826,-23.633 25.31,-37.971 42.826,-44.61 -13.817,8.006 -22.953,21.382 -27.404,40.124 8.625,-8.487 16.163,-19.52 22.113,-34.273 l -5.29,16.608 c 5.701,-5.982 10.733,-13.305 17.103,-17.945 16.837,-20.664 8.014,-58.942 -19.908,-72.06 6.784,0.991 13.779,4.378 21.029,10.655 -3.043,-4.847 -6.651,-8.919 -10.934,-12.056 4.086,0.692 7.747,3.736 11.216,7.85 -4.878,-13.992 -3.74,-28.412 -5.609,-42.619 -1.18,-20.824 1.346,-40.413 10.483,-57.8 8.457,-21.688 12.176,-43.169 7.453,-64.286 4.908,5.48 6.413,15.382 5.591,28.309 4.56,-12.326 4.249,-25.8 -0.932,-40.421 7.974,10.681 9.072,25.659 3.296,44.934 l 22.791,-29.562 c 3.931,-34.238 -26.057,-53.345 -48.913,-34.005 11.533,-11.734 24.624,-14.379 39.597,-6.057 -10.298,-10.292 -24.142,-8.764 -39.597,-1.863 10.247,-6.627 20.496,-9.529 30.745,-6.988 -7.337,-11.705 -8.854,-22.012 -1.863,-30.28 -4.888,14.519 0.273,25.687 12.578,34.473 10.006,8.817 14.999,20.14 15.839,33.541 11.372,-20.356 14.093,-37.62 1.397,-49.38 14.865,13.479 15.044,30.996 6.987,50.777 l -8.85,14.907 c 0.116,16.054 -15.455,38.124 -17.702,47.516 -4.815,12.889 -13.281,24.702 -14.442,38.665 10.555,-27.476 23.669,-51.461 40.529,-70.342 -19.618,26.215 -32.626,56.1 -41.926,88.044 -9.3,31.945 8.027,-7.095 13.975,-8.385 12.673,-19.039 29.93,-26.33 51.774,-21.877 -19.407,22.081 -27.152,55.393 -25.52,91.42 l 1.877,87.97 c -6.287,32.125 -19.368,45.422 -37.098,45.838 4.159,7.483 5.031,13.212 1.096,16.379 -0.176,-6.727 -1.373,-9.864 -3.587,-9.414 -1.154,9.889 -4.061,16.438 -8.168,20.705 l 5.525,-20.537 c -24.66,40.976 -108.41,18.004 -126.459,-14.105 -11.698,-12.482 -22.071,-32.058 -35.097,-37.445 l 14.316,4.482 c -3.707,-12.794 -11.207,-23.878 -24.248,-32.462 5.775,-0.453 11.487,1.672 17.135,6.371 -4.365,-17.63 -4.061,-33.918 0.91,-48.865 -4.067,15.728 -3.619,31.49 2.275,47.295 l 5.209,-30.528 c -5.158,-20.911 0.167,-35.546 14.179,-44.981 -7.866,13.683 -9.614,29.854 -5.246,48.511 2.202,-12.099 5.518,-22.791 10.462,-31.43 4.609,-37.793 -18.294,-72.815 -33.362,-92.4 10.916,1.27 18.881,11.586 25.776,25.173 -0.558,-6.953 -2.832,-13.925 -6.823,-20.915 l 16.259,4.572 3.446,-9.314 14.716,26.737 c 3.915,5.715 9.152,4.456 16.304,2.329 l -8.851,9.783 c -1.871,1.949 -1.549,3.898 0.965,5.846 l 15.806,15.583 c -14.066,8.768 -24.734,21.296 -29.349,40.528 l 11.647,-6.522 c -18.398,10.942 -26.098,32.993 -18.168,71.274 2.715,-18.204 7.59,-33.161 16.317,-42.329 -5.096,11.019 -8.493,22.766 -8.864,35.807 2.606,-10.914 7.215,-20.828 13.194,-30.057 -6.636,15.22 -11.146,30.851 -9.001,47.76 7.986,-4.834 16.522,-7.334 25.858,-6.429 z"
           style="fill:none;stroke:#231f20;stroke-width:1.84;stroke-linecap:round;stroke-linejoin:round;stroke-miterlimit:22.926;stroke-dasharray:none;stroke-opacity:1"
           id="path42" /><path
           d="m 317.722,606.411 c -13.357,18.458 -26.956,29.631 -41.092,24.771 -15.342,-11.886 -23.301,-30.692 -26.211,-54.236"
           style="fill:none;stroke:#231f20;stroke-width:1.84;stroke-linecap:butt;stroke-linejoin:miter;stroke-miterlimit:22.926;stroke-dasharray:none;stroke-opacity:1"
           id="path44" /><path
           d="M 272.259,610.491 C 266.85,577.738 271.228,549.09 289.91,526.44"
           style="fill:none;stroke:#231f20;stroke-width:1.84;stroke-linecap:round;stroke-linejoin:round;stroke-miterlimit:22.926;stroke-dasharray:none;stroke-opacity:1"
           id="path46" /><path
           d="m 267.596,581.931 c -0.129,-10.955 -5.409,-20.881 -3.035,-31.984"
           style="fill:none;stroke:#231f20;stroke-width:1.84;stroke-linecap:butt;stroke-linejoin:miter;stroke-miterlimit:22.926;stroke-dasharray:none;stroke-opacity:1"
           id="path48" /><path
           d="m 255.628,546.418 c 5.391,11.814 3.423,27.457 5.136,41.186"
           style="fill:none;stroke:#231f20;stroke-width:1.84;stroke-linecap:butt;stroke-linejoin:miter;stroke-miterlimit:22.926;stroke-dasharray:none;stroke-opacity:1"
           id="path50" /><path
           d="m 289.91,526.44 c 3.862,-31.558 -14.866,-72.107 -2.233,-87.438 -7.592,20.476 9.161,45.117 10.124,68.004"
           style="fill:none;stroke:#231f20;stroke-width:1.84;stroke-linecap:butt;stroke-linejoin:miter;stroke-miterlimit:22.926;stroke-dasharray:none;stroke-opacity:1"
           id="path52" /><path
           d="m 289.511,472.032 c 0.668,-7.721 2.668,-14.034 7.046,-17.842 -3.464,8.009 -4.599,16.836 -4.557,26.078"
           style="fill:none;stroke:#231f20;stroke-width:1.84;stroke-linecap:round;stroke-linejoin:round;stroke-miterlimit:22.926;stroke-dasharray:none;stroke-opacity:1"
           id="path54" /><path
           d="m 300.361,503.17 c 2.853,-16.646 1.903,-32.706 -2.848,-48.183"
           style="fill:none;stroke:#231f20;stroke-width:1.84;stroke-linecap:butt;stroke-linejoin:miter;stroke-miterlimit:22.926;stroke-dasharray:none;stroke-opacity:1"
           id="path56" /><path
           d="m 276.873,434.948 c -3.943,20.814 6.149,34.61 9.225,51.914 -4.914,-17.822 -14.214,-29.723 -14.742,-53.466"
           style="fill:none;stroke:#231f20;stroke-width:1.84;stroke-linecap:round;stroke-linejoin:round;stroke-miterlimit:22.926;stroke-dasharray:none;stroke-opacity:1"
           id="path58" /><path
           d="m 267.437,451.291 c 9.364,18.948 13.171,44.328 11.423,76.143"
           style="fill:none;stroke:#231f20;stroke-width:1.84;stroke-linecap:round;stroke-linejoin:round;stroke-miterlimit:22.926;stroke-dasharray:none;stroke-opacity:1"
           id="path60" /><path
           d="m 288.405,617.011 c -3.88,-8.076 -5.552,-16.683 -5.016,-25.819"
           style="fill:none;stroke:#231f20;stroke-width:1.84;stroke-linecap:butt;stroke-linejoin:miter;stroke-miterlimit:22.926;stroke-dasharray:none;stroke-opacity:1"
           id="path62" /><path
           d="m 315.605,602.381 -17.927,11.952 c -3.914,2.059 -6.455,1.097 -7.624,-2.885 -3.512,-12.417 -3.503,-26.948 -1.521,-42.665"
           style="fill:none;stroke:#231f20;stroke-width:1.84;stroke-linecap:round;stroke-linejoin:round;stroke-miterlimit:22.926;stroke-dasharray:none;stroke-opacity:1"
           id="path64" /><path
           d="m 320.893,595.944 -22.391,12.412 c -1.785,1.1 -3.777,-0.687 -4.739,-2.884 -1.863,-8.139 -2.008,-15.931 1.624,-22.971"
           style="fill:none;stroke:#231f20;stroke-width:1.84;stroke-linecap:round;stroke-linejoin:round;stroke-miterlimit:22.926;stroke-dasharray:none;stroke-opacity:1"
           id="path66" /><path
           d="m 337.448,610.417 c 3.347,-11.023 9.632,-20.09 17.927,-27.818"
           style="fill:none;stroke:#231f20;stroke-width:1.84;stroke-linecap:butt;stroke-linejoin:miter;stroke-miterlimit:22.926;stroke-dasharray:none;stroke-opacity:1"
           id="path68" /><path
           d="m 323.229,618.453 c 17.789,21.379 33.174,27.732 46.57,21.637 17.283,-7.487 31.827,-20.95 43.067,-41.624 10.881,-22.27 23.823,-42.993 41.303,-60.317 -9.939,10.296 -22.488,14.592 -35.121,18.692"
           style="fill:none;stroke:#231f20;stroke-width:1.84;stroke-linecap:round;stroke-linejoin:round;stroke-miterlimit:22.926;stroke-dasharray:none;stroke-opacity:1"
           id="path70" /><path
           d="m 339.921,664.817 c 23.066,0.542 43.846,-3.606 56.46,-24.521 -4.223,12.296 -14.87,21.569 -28.437,29.467 12.88,-3.399 23.869,-10.404 30.703,-25.346"
           style="fill:none;stroke:#231f20;stroke-width:1.84;stroke-linecap:round;stroke-linejoin:round;stroke-miterlimit:22.926;stroke-dasharray:none;stroke-opacity:1"
           id="path72" /><path
           d="m 350.636,658.223 c 11.041,1.872 21.584,0.258 31.526,-5.563"
           style="fill:none;stroke:#231f20;stroke-width:1.84;stroke-linecap:butt;stroke-linejoin:miter;stroke-miterlimit:22.926;stroke-dasharray:none;stroke-opacity:1"
           id="path74" /><path
           d="m 407.714,633.908 c 23.14,-13.325 34.077,-36.609 30.291,-71.915 3.61,26.861 0.373,48.765 -11.951,64.085"
           style="fill:none;stroke:#231f20;stroke-width:1.84;stroke-linecap:round;stroke-linejoin:round;stroke-miterlimit:22.926;stroke-dasharray:none;stroke-opacity:1"
           id="path76" /><path
           d="m 383.399,607.532 c 18.962,-20.526 32.937,-47.832 59.394,-56.908"
           style="fill:none;stroke:#231f20;stroke-width:1.84;stroke-linecap:butt;stroke-linejoin:miter;stroke-miterlimit:22.926;stroke-dasharray:none;stroke-opacity:1"
           id="path78" /><path
           d="m 424.203,551.711 c 10.069,-11.323 15.407,-24.139 15.038,-38.76 -0.889,12.313 -8.241,23.818 -17.927,35.03"
           style="fill:none;stroke:#231f20;stroke-width:1.84;stroke-linecap:round;stroke-linejoin:round;stroke-miterlimit:22.926;stroke-dasharray:none;stroke-opacity:1"
           id="path80" /><path
           d="m 402.563,540.975 c 2.232,-24.35 8.413,-43.169 21.636,-52.133 -9.927,2.096 -17.894,12.673 -24.521,29.054 -3.157,-16.647 -9.478,-31.912 -21.43,-44.715 16.854,25.073 22.516,54.555 21.233,86.771"
           style="fill:none;stroke:#231f20;stroke-width:1.84;stroke-linecap:round;stroke-linejoin:round;stroke-miterlimit:22.926;stroke-dasharray:none;stroke-opacity:1"
           id="path82" /><path
           d="m 382.978,504.682 c 6.399,8.781 9.767,18.575 11.434,28.936"
           style="fill:none;stroke:#231f20;stroke-width:1.84;stroke-linecap:butt;stroke-linejoin:miter;stroke-miterlimit:22.926;stroke-dasharray:none;stroke-opacity:1"
           id="path84" /><path
           d="m 400.804,515.198 c -3.336,-27.434 2.599,-51.778 14.884,-74.007"
           style="fill:none;stroke:#231f20;stroke-width:1.84;stroke-linecap:butt;stroke-linejoin:miter;stroke-miterlimit:22.926;stroke-dasharray:none;stroke-opacity:1"
           id="path86" /><path
           d="m 404.202,508.05 c 1.736,-52.835 21.693,-82.614 59.873,-89.337 -24.736,26.556 -35.877,60.366 -27.142,104.772"
           style="fill:none;stroke:#231f20;stroke-width:1.84;stroke-linecap:round;stroke-linejoin:round;stroke-miterlimit:22.926;stroke-dasharray:none;stroke-opacity:1"
           id="path88" /><path
           d="m 433.891,530.293 c -6.668,-21.856 -11.243,-44.641 -11.217,-69.474 -5.322,21.511 2.742,53.62 4.112,80.43"
           style="fill:none;stroke:#231f20;stroke-width:1.84;stroke-linecap:round;stroke-linejoin:round;stroke-miterlimit:22.926;stroke-dasharray:none;stroke-opacity:1"
           id="path90" /><path
           d="m 436.933,523.485 c -13.802,-37.119 -12.434,-70.192 7.236,-98.386 -7.287,17.283 -10.1,35.377 -9.204,54.145"
           style="fill:none;stroke:#231f20;stroke-width:1.84;stroke-linecap:round;stroke-linejoin:round;stroke-miterlimit:22.926;stroke-dasharray:none;stroke-opacity:1"
           id="path92" /><path
           d="m 418.212,538.079 c -9.076,-41.718 -2.031,-77.073 17.157,-107.637"
           style="fill:none;stroke:#231f20;stroke-width:1.84;stroke-linecap:butt;stroke-linejoin:miter;stroke-miterlimit:22.926;stroke-dasharray:none;stroke-opacity:1"
           id="path94" /><path
           d="m 400.129,507.916 -0.972,-45.954"
           style="fill:none;stroke:#231f20;stroke-width:1.84;stroke-linecap:butt;stroke-linejoin:miter;stroke-miterlimit:22.926;stroke-dasharray:none;stroke-opacity:1"
           id="path96" /><path
           d="m 388.368,403.089 c -6.47,31.497 -7.125,62.762 5.005,93.516 -9.798,-30.739 -7.294,-58.508 4.478,-84.039 8.367,-20.546 25.102,-37.747 30.96,-59.13"
           style="fill:none;stroke:#231f20;stroke-width:1.84;stroke-linecap:round;stroke-linejoin:round;stroke-miterlimit:22.926;stroke-dasharray:none;stroke-opacity:1"
           id="path98" /><path
           d="m 391.371,430.061 c -3.503,-35.638 16.85,-61.387 43.883,-84.368"
           style="fill:none;stroke:#231f20;stroke-width:1.84;stroke-linecap:round;stroke-linejoin:round;stroke-miterlimit:22.926;stroke-dasharray:none;stroke-opacity:1"
           id="path100" /><path
           d="m 427.066,340.915 8.917,-12.003"
           style="fill:none;stroke:#231f20;stroke-width:1.84;stroke-linecap:butt;stroke-linejoin:miter;stroke-miterlimit:22.926;stroke-dasharray:none;stroke-opacity:1"
           id="path102" /><path
           d="m 391.371,430.061 c -1.947,-18.059 2.911,-33.425 10.865,-47.569 l 9.383,5.043 c -8.937,13.184 -15.98,27.227 -20.248,42.526"
           style="fill:#2e3192;fill-opacity:1;fill-rule:evenodd;stroke:none"
           id="path104" /><path
           d="m 391.371,430.061 c -1.947,-18.059 2.911,-33.425 10.865,-47.569 l 9.383,5.043 c -8.937,13.184 -15.98,27.227 -20.248,42.526 z"
           style="fill:none;stroke:#231f20;stroke-width:1.84;stroke-linecap:round;stroke-linejoin:round;stroke-miterlimit:22.926;stroke-dasharray:none;stroke-opacity:1"
           id="path106" /><path
           d="m 402.236,382.492 9.15,5.388 4.091,-6.505 -9.221,-5.103 z"
           style="fill:#ffffff;fill-opacity:1;fill-rule:evenodd;stroke:none"
           id="path108" /><path
           d="m 402.236,382.492 9.15,5.388 4.091,-6.505 -9.221,-5.103 z"
           style="fill:none;stroke:#231f20;stroke-width:1.84;stroke-linecap:butt;stroke-linejoin:miter;stroke-miterlimit:22.926;stroke-dasharray:none;stroke-opacity:1"
           id="path110" /><path
           d="m 406.256,376.272 9.221,5.103 4.076,-6.813 -8.657,-4.47 z"
           style="fill:#2e3192;fill-opacity:1;fill-rule:evenodd;stroke:none"
           id="path112" /><path
           d="m 406.256,376.272 9.221,5.103 4.076,-6.813 -8.657,-4.47 z"
           style="fill:none;stroke:#231f20;stroke-width:1.84;stroke-linecap:butt;stroke-linejoin:miter;stroke-miterlimit:22.926;stroke-dasharray:none;stroke-opacity:1"
           id="path114" /><path
           d="m 410.896,370.092 8.657,4.47 6.13,-12.179 -3.98,-4.27 z"
           style="fill:#ed1c24;fill-opacity:1;fill-rule:evenodd;stroke:none"
           id="path116" /><path
           d="m 410.896,370.092 8.657,4.47 6.13,-12.179 -3.98,-4.27 z"
           style="fill:none;stroke:#231f20;stroke-width:1.84;stroke-linecap:butt;stroke-linejoin:miter;stroke-miterlimit:22.926;stroke-dasharray:none;stroke-opacity:1"
           id="path118" /><path
           d="m 421.703,358.113 3.98,4.27 3.194,-11.095 z"
           style="fill:#fff200;fill-opacity:1;fill-rule:evenodd;stroke:none"
           id="path120" /><path
           d="m 421.703,358.113 3.98,4.27 3.194,-11.095 z"
           style="fill:none;stroke:#231f20;stroke-width:1.84;stroke-linecap:butt;stroke-linejoin:miter;stroke-miterlimit:22.926;stroke-dasharray:none;stroke-opacity:1"
           id="path122" /><path
           d="m 402.563,540.975 0.89,16.795 c 2.385,10.906 10.844,12.582 15.595,-0.929 2.913,-8.956 1.39,-15.687 -2.621,-21.169 l -11.018,-13.645 z"
           style="fill:#fbca8e;fill-opacity:1;fill-rule:evenodd;stroke:none"
           id="path124" /><path
           d="m 402.563,540.975 0.89,16.795 c 2.385,10.906 10.844,12.582 15.595,-0.929 2.913,-8.956 1.39,-15.687 -2.621,-21.169 l -11.018,-13.645 z"
           style="fill:none;stroke:#231f20;stroke-width:1.84;stroke-linecap:round;stroke-linejoin:round;stroke-miterlimit:22.926;stroke-dasharray:none;stroke-opacity:1"
           id="path126" /><path
           d="m 411.232,541.752 c -5.145,2.147 -7.887,5.377 -5.337,11 0.047,3.908 1.828,6.079 5.337,6.513 5.232,-4.644 5.207,-11.809 1.588,-20.697"
           style="fill:none;stroke:#231f20;stroke-width:1.84;stroke-linecap:round;stroke-linejoin:round;stroke-miterlimit:22.926;stroke-dasharray:none;stroke-opacity:1"
           id="path128" /><path
           d="m 405.28,546.801 c -0.227,-2.503 0.385,-5.819 -0.684,-7.51 1.456,0.091 2.467,-0.513 3.175,-1.592"
           style="fill:none;stroke:#231f20;stroke-width:1.84;stroke-linecap:round;stroke-linejoin:round;stroke-miterlimit:22.926;stroke-dasharray:none;stroke-opacity:1"
           id="path130" /><path
           d="m 404.359,527.294 5.293,5.852"
           style="fill:none;stroke:#231f20;stroke-width:1.84;stroke-linecap:round;stroke-linejoin:round;stroke-miterlimit:22.926;stroke-dasharray:none;stroke-opacity:1"
           id="path132" /><path
           d="m 347.751,627.108 c 13.874,-12.913 19.3,-34.893 31.733,-50.484 16.93,-18.617 34.24,-25.141 51.721,-26.17 -23.028,2.756 -40.578,17.713 -51.515,47.394"
           style="fill:none;stroke:#231f20;stroke-width:1.84;stroke-linecap:round;stroke-linejoin:round;stroke-miterlimit:22.926;stroke-dasharray:none;stroke-opacity:1"
           id="path134" /><path
           d="m 287.241,537.117 c 6.141,12.069 18.096,16.571 29.655,8.328 -6.449,-4.893 -14.337,-8.683 -25.389,-10.054 -1.86,0.17 -2.844,1.083 -4.266,1.726"
           style="fill:#ffffff;fill-opacity:1;fill-rule:evenodd;stroke:none"
           id="path136" /><path
           d="m 287.241,537.117 c 6.141,12.069 18.096,16.571 29.655,8.328 -6.449,-4.893 -14.337,-8.683 -25.389,-10.054 -1.86,0.17 -2.844,1.083 -4.266,1.726 z"
           style="fill:none;stroke:#ffffff;stroke-width:1.84;stroke-linecap:round;stroke-linejoin:round;stroke-miterlimit:22.926;stroke-dasharray:none;stroke-opacity:1"
           id="path138" /><path
           d="m 295.62,541.546 2.046,-5.635 15.287,6.103 c -7.034,7.06 -13.072,8.396 -17.333,-0.468"
           style="fill:#00adef;fill-opacity:1;fill-rule:evenodd;stroke:none"
           id="path140" /><path
           d="m 295.62,541.546 2.046,-5.635 15.287,6.103 c -7.034,7.06 -13.072,8.396 -17.333,-0.468 z"
           style="fill:none;stroke:#231f20;stroke-width:0.216;stroke-linecap:butt;stroke-linejoin:miter;stroke-miterlimit:22.926;stroke-dasharray:none;stroke-opacity:1"
           id="path142" /><path
           d="m 287.241,537.117 -1.32,1.016 c 4.371,14.084 22.079,19.875 30.379,7.725 -9.397,7.107 -22.241,4.703 -29.059,-8.741"
           style="fill:#231f20;fill-opacity:1;fill-rule:evenodd;stroke:none"
           id="path144" /><path
           d="m 287.241,537.117 -1.32,1.016 c 4.371,14.084 22.079,19.875 30.379,7.725 -9.397,7.107 -22.241,4.703 -29.059,-8.741 z"
           style="fill:none;stroke:#231f20;stroke-width:0.216;stroke-linecap:butt;stroke-linejoin:miter;stroke-miterlimit:22.926;stroke-dasharray:none;stroke-opacity:1"
           id="path146" /><path
           d="m 292.909,535.58 -0.59,-1.103 c 4.5,-0.237 11.696,2.328 20.921,7.007 l -0.573,1.061 c -6.942,-3.782 -13.617,-6.462 -19.758,-6.965"
           style="fill:#231f20;fill-opacity:1;fill-rule:evenodd;stroke:none"
           id="path148" /><path
           d="m 292.909,535.58 -0.59,-1.103 c 4.5,-0.237 11.696,2.328 20.921,7.007 l -0.573,1.061 c -6.942,-3.782 -13.617,-6.462 -19.758,-6.965 z"
           style="fill:none;stroke:#231f20;stroke-width:0.216;stroke-linecap:butt;stroke-linejoin:miter;stroke-miterlimit:22.926;stroke-dasharray:none;stroke-opacity:1"
           id="path150" /><path
           d="m 295.639,548.235 c -0.826,-5.1 0.153,-9.339 2.382,-12.92"
           style="fill:none;stroke:#231f20;stroke-width:1.84;stroke-linecap:round;stroke-linejoin:round;stroke-miterlimit:22.926;stroke-dasharray:none;stroke-opacity:1"
           id="path152" /><path
           d="m 295.777,540.759 c 3.628,9.174 8.901,8.941 17.176,1.255"
           style="fill:none;stroke:#231f20;stroke-width:1.84;stroke-linecap:round;stroke-linejoin:round;stroke-miterlimit:22.926;stroke-dasharray:none;stroke-opacity:1"
           id="path154" /><path
           d="m 303.682,540.499 c 1.736,0 3.152,1.454 3.152,3.238 0,1.783 -1.416,3.238 -3.152,3.238 -1.736,0 -3.152,-1.455 -3.152,-3.238 0,-1.784 1.416,-3.238 3.152,-3.238"
           style="fill:#231f20;fill-opacity:1;fill-rule:evenodd;stroke:none"
           id="path156" /><path
           d="m 303.682,540.499 c 1.736,0 3.152,1.454 3.152,3.238 0,1.783 -1.416,3.238 -3.152,3.238 -1.736,0 -3.152,-1.455 -3.152,-3.238 0,-1.784 1.416,-3.238 3.152,-3.238 z"
           style="fill:none;stroke:#231f20;stroke-width:0.216;stroke-linecap:butt;stroke-linejoin:miter;stroke-miterlimit:22.926;stroke-dasharray:none;stroke-opacity:1"
           id="path158" /><path
           d="m 380.847,557.566 c -10.52,8.526 -23.272,7.775 -30.478,-4.456 7.881,-1.847 16.629,-2.1 27.283,1.143 1.629,0.912 2.158,2.147 3.195,3.313"
           style="fill:#ffffff;fill-opacity:1;fill-rule:evenodd;stroke:none"
           id="path160" /><path
           d="m 380.847,557.566 c -10.52,8.526 -23.272,7.775 -30.478,-4.456 7.881,-1.847 16.629,-2.1 27.283,1.143 1.629,0.912 2.158,2.147 3.195,3.313 z"
           style="fill:none;stroke:#ffffff;stroke-width:1.84;stroke-linecap:round;stroke-linejoin:round;stroke-miterlimit:22.926;stroke-dasharray:none;stroke-opacity:1"
           id="path162" /><path
           d="m 371.39,558.204 0.424,-5.981 -16.448,-0.643 c 3.554,9.31 8.527,12.987 16.024,6.624"
           style="fill:#00adef;fill-opacity:1;fill-rule:evenodd;stroke:none"
           id="path164" /><path
           d="m 371.39,558.204 0.424,-5.981 -16.448,-0.643 c 3.554,9.31 8.527,12.987 16.024,6.624 z"
           style="fill:none;stroke:#231f20;stroke-width:0.216;stroke-linecap:butt;stroke-linejoin:miter;stroke-miterlimit:22.926;stroke-dasharray:none;stroke-opacity:1"
           id="path166" /><path
           d="m 376.294,553.856 0.988,-0.768 c -4.014,-2.046 -11.631,-2.631 -21.962,-2.109 l 0.092,1.202 c 7.88,-0.631 15.068,-0.364 20.882,1.675"
           style="fill:#231f20;fill-opacity:1;fill-rule:evenodd;stroke:none"
           id="path168" /><path
           d="m 376.294,553.856 0.988,-0.768 c -4.014,-2.046 -11.631,-2.631 -21.962,-2.109 l 0.092,1.202 c 7.88,-0.631 15.068,-0.364 20.882,1.675 z"
           style="fill:none;stroke:#231f20;stroke-width:0.216;stroke-linecap:butt;stroke-linejoin:miter;stroke-miterlimit:22.926;stroke-dasharray:none;stroke-opacity:1"
           id="path170" /><path
           d="m 368.652,564.307 c 2.83,-4.324 3.661,-8.594 3.079,-12.773"
           style="fill:none;stroke:#231f20;stroke-width:1.84;stroke-linecap:round;stroke-linejoin:round;stroke-miterlimit:22.926;stroke-dasharray:none;stroke-opacity:1"
           id="path172" /><path
           d="m 371.567,557.42 c -7.046,6.905 -11.768,4.547 -16.201,-5.84"
           style="fill:none;stroke:#231f20;stroke-width:1.84;stroke-linecap:round;stroke-linejoin:round;stroke-miterlimit:22.926;stroke-dasharray:none;stroke-opacity:1"
           id="path174" /><path
           d="m 361.817,559.883 c -1.589,-0.708 -2.289,-2.607 -1.561,-4.24 0.727,-1.634 2.606,-2.385 4.196,-1.677 1.59,0.708 2.289,2.607 1.562,4.241 -0.728,1.633 -2.607,2.384 -4.197,1.676"
           style="fill:#231f20;fill-opacity:1;fill-rule:evenodd;stroke:none"
           id="path176" /><path
           d="m 361.817,559.883 c -1.589,-0.708 -2.289,-2.607 -1.561,-4.24 0.727,-1.634 2.606,-2.385 4.196,-1.677 1.59,0.708 2.289,2.607 1.562,4.241 -0.728,1.633 -2.607,2.384 -4.197,1.676 z"
           style="fill:none;stroke:#231f20;stroke-width:0.216;stroke-linecap:butt;stroke-linejoin:miter;stroke-miterlimit:22.926;stroke-dasharray:none;stroke-opacity:1"
           id="path178" /><path
           d="m 282.203,557.269 c 13.8,13.039 28.148,7.875 36.607,-11.647 -2.883,7.993 -7.19,15.128 -13.575,21.018 -11.947,0.379 -20.193,-2.278 -23.032,-9.371"
           style="fill:#231f20;fill-opacity:1;fill-rule:evenodd;stroke:none"
           id="path180" /><path
           d="m 282.203,557.269 c 13.8,13.039 28.148,7.875 36.607,-11.647 -2.883,7.993 -7.19,15.128 -13.575,21.018 -11.947,0.379 -20.193,-2.278 -23.032,-9.371 z"
           style="fill:none;stroke:#231f20;stroke-width:0.216;stroke-linecap:butt;stroke-linejoin:miter;stroke-miterlimit:22.926;stroke-dasharray:none;stroke-opacity:1"
           id="path182" /><path
           d="m 286.781,546.129 c 5.083,5.241 10.875,7.922 17.255,8.484"
           style="fill:none;stroke:#231f20;stroke-width:1.298;stroke-linecap:round;stroke-linejoin:round;stroke-miterlimit:22.926;stroke-dasharray:none;stroke-opacity:1"
           id="path184" /><path
           d="m 342.898,551.355 c 0.267,0.802 7.302,7.658 7.302,7.658 l -7.213,-1.692 c 11.084,8.569 25.245,12.716 42.921,0.624 l -2.137,-4.007 c -10.087,13.648 -23.927,11.908 -40.873,-2.583"
           style="fill:#231f20;fill-opacity:1;fill-rule:evenodd;stroke:none"
           id="path186" /><path
           d="m 342.898,551.355 c 0.267,0.802 7.302,7.658 7.302,7.658 l -7.213,-1.692 c 11.084,8.569 25.245,12.716 42.921,0.624 l -2.137,-4.007 c -10.087,13.648 -23.927,11.908 -40.873,-2.583 z"
           style="fill:none;stroke:#231f20;stroke-width:0.216;stroke-linecap:butt;stroke-linejoin:miter;stroke-miterlimit:22.926;stroke-dasharray:none;stroke-opacity:1"
           id="path188" /><path
           d="m 357.509,566.569 c 8.293,1.415 16.173,0.833 23.638,-1.747"
           style="fill:none;stroke:#231f20;stroke-width:1.84;stroke-linecap:butt;stroke-linejoin:miter;stroke-miterlimit:22.926;stroke-dasharray:none;stroke-opacity:1"
           id="path190" /><path
           d="m 321.551,521.815 c -0.184,-0.231 -0.967,-1.618 -0.967,-1.618 0,0 0.046,-1.109 0.046,-1.34 0,-0.231 0.092,-1.386 0.092,-1.386 l -0.553,-0.879 v -1.617 c 0,-0.416 1.244,-1.988 1.244,-1.988 0,0 0.874,-0.739 1.197,-1.016 0.324,-0.278 1.015,-0.833 1.476,-1.017 0.46,-0.185 1.151,-0.509 1.658,-0.74 0.507,-0.232 1.245,-0.417 1.705,-0.509 0.461,-0.092 0.6,-0.555 1.06,-0.924 0.461,-0.369 0.783,-0.832 1.152,-0.832 0.368,0 0.646,-0.047 0.646,0.323 0,0.371 0.091,0.555 -0.231,1.064 -0.323,0.508 -0.737,1.202 -1.014,1.433 -0.277,0.231 -0.644,0.601 -0.875,0.97 -0.231,0.37 -0.046,0.463 -0.599,0.694 -0.554,0.231 -1.659,0.508 -1.659,0.508 0,0 -0.829,0.462 -1.106,0.601 -0.277,0.138 -0.507,0.184 -0.922,0.508 -0.415,0.324 -1.198,1.248 -1.198,1.248 0,0 -0.507,0.971 -0.507,1.202 0,0.231 -0.046,0.879 0,1.202 0.047,0.323 0.368,1.017 0.184,1.617 -0.184,0.601 -0.553,1.757 -0.553,1.757 z"
           style="fill:#231f20;fill-opacity:1;fill-rule:evenodd;stroke:none"
           id="path192" /><path
           d="m 333.993,513.357 0.552,0.323 c 0,0 0.277,0.369 0.6,0.278 0.322,-0.093 0.967,-0.371 1.197,-0.278 0.231,0.093 0.554,0.694 0.554,0.694 l -0.6,0.601 -0.921,0.092 -1.06,-0.693 -0.645,-0.277 z"
           style="fill:#231f20;fill-opacity:1;fill-rule:evenodd;stroke:none"
           id="path194" /><path
           d="m 333.993,513.357 0.552,0.323 c 0,0 0.277,0.369 0.6,0.278 0.322,-0.093 0.967,-0.371 1.197,-0.278 0.231,0.093 0.554,0.694 0.554,0.694 l -0.6,0.601 -0.921,0.092 -1.06,-0.693 -0.645,-0.277 z"
           style="fill:none;stroke:#231f20;stroke-width:0.216;stroke-linecap:butt;stroke-linejoin:miter;stroke-miterlimit:22.926;stroke-dasharray:none;stroke-opacity:1"
           id="path196" /><path
           d="m 330.582,502.594 c 2.165,-1.656 4.756,-1.817 7.774,-0.481"
           style="fill:none;stroke:#231f20;stroke-width:0.709;stroke-linecap:butt;stroke-linejoin:miter;stroke-miterlimit:22.926;stroke-dasharray:none;stroke-opacity:1"
           id="path198" /><path
           d="m 329.859,498.265 c 5.416,-2.34 12.05,1.486 16.432,-0.977 2.877,0.509 5.7,0.896 8.276,2.992"
           style="fill:none;stroke:#231f20;stroke-width:1.472;stroke-linecap:round;stroke-linejoin:round;stroke-miterlimit:22.926;stroke-dasharray:none;stroke-opacity:1"
           id="path200" /><path
           d="m 348.902,493.667 c 1.423,-0.937 2.846,-0.546 4.272,0.446"
           style="fill:none;stroke:#231f20;stroke-width:1.472;stroke-linecap:butt;stroke-linejoin:miter;stroke-miterlimit:22.926;stroke-dasharray:none;stroke-opacity:1"
           id="path202" /><path
           d="m 327.09,577.869 c 0.261,-14.03 3.514,-24.879 9.249,-33.096"
           style="fill:none;stroke:#231f20;stroke-width:1.84;stroke-linecap:butt;stroke-linejoin:miter;stroke-miterlimit:22.926;stroke-dasharray:none;stroke-opacity:1"
           id="path204" /><path
           d="m 302.467,469.448 c -1.42,-1.559 -1.244,-3.225 0.021,-4.965 l 7.962,-9.521 17.074,-4.152 8.686,-1.902 c 3.727,-1.954 0.86,-7.591 -3.07,-6.922 l -9.306,0.322 12.033,-11.071 c 1.78,-1.678 3.599,-1.624 5.454,0.161 l 33.37,30.643 c 1.702,1.994 1.488,4.08 -0.641,6.256 l -28.863,29.471 c -2.973,1.015 -8.43,-0.731 -12.205,-0.249 z"
           style="fill:#fbc707;fill-opacity:1;fill-rule:evenodd;stroke:none"
           id="path206" /><path
           d="m 302.467,469.448 c -1.42,-1.559 -1.244,-3.225 0.021,-4.965 l 7.962,-9.521 17.074,-4.152 8.686,-1.902 c 3.727,-1.954 0.86,-7.591 -3.07,-6.922 l -9.306,0.322 12.033,-11.071 c 1.78,-1.678 3.599,-1.624 5.454,0.161 l 33.37,30.643 c 1.702,1.994 1.488,4.08 -0.641,6.256 l -28.863,29.471 c -2.973,1.015 -8.43,-0.731 -12.205,-0.249 z"
           style="fill:none;stroke:#231f20;stroke-width:1.84;stroke-linecap:round;stroke-linejoin:round;stroke-miterlimit:22.926;stroke-dasharray:none;stroke-opacity:1"
           id="path208" /><path
           d="m 319.663,454.821 -7.38,8.663 c -1.82,2.25 -2.099,4.864 0.482,7.541 l 20.695,19.091 c 2.924,2.416 5.812,2.672 8.664,0.321 l 22.46,-20.696 c 2.223,-2.091 2.589,-4.951 0.963,-7.059 l -22.621,-20.856 c -3.263,-2.83 -6.526,-2.777 -9.786,0.16"
           style="fill:none;stroke:#231f20;stroke-width:1.84;stroke-linecap:round;stroke-linejoin:round;stroke-miterlimit:22.926;stroke-dasharray:none;stroke-opacity:1"
           id="path210" /><path
           d="m 333.3,454.821 c 13.423,-4.452 24.812,12.472 11.712,21.177"
           style="fill:none;stroke:#231f20;stroke-width:1.472;stroke-linecap:butt;stroke-linejoin:miter;stroke-miterlimit:22.926;stroke-dasharray:none;stroke-opacity:1"
           id="path212" /><path
           d="m 344.399,446.737 c 1.939,6.268 8.9,6.477 10.485,11.988"
           style="fill:none;stroke:#231f20;stroke-width:1.472;stroke-linecap:butt;stroke-linejoin:miter;stroke-miterlimit:22.926;stroke-dasharray:none;stroke-opacity:1"
           id="path214" /><path
           d="m 316.793,467.415 c 6.749,0.85 5.2,6.684 9.232,8.821"
           style="fill:none;stroke:#231f20;stroke-width:1.472;stroke-linecap:butt;stroke-linejoin:miter;stroke-miterlimit:22.926;stroke-dasharray:none;stroke-opacity:1"
           id="path216" /><path
           d="m 321.629,473.976 c 3.346,4.213 7.814,7.222 13.213,9.233"
           style="fill:none;stroke:#231f20;stroke-width:1.472;stroke-linecap:butt;stroke-linejoin:miter;stroke-miterlimit:22.926;stroke-dasharray:none;stroke-opacity:1"
           id="path218" /><path
           d="m 331,478.521 c -0.577,1.272 9.391,5.807 9.987,4.7 0.596,-1.108 -0.176,3.29 -0.176,3.29"
           style="fill:none;stroke:#231f20;stroke-width:0.567;stroke-linecap:butt;stroke-linejoin:miter;stroke-miterlimit:22.926;stroke-dasharray:none;stroke-opacity:1"
           id="path220" /><path
           d="m 351.1,478.924 c 2.07,-4.154 7.656,-6.661 6.212,-12.462"
           style="fill:none;stroke:#231f20;stroke-width:1.472;stroke-linecap:butt;stroke-linejoin:miter;stroke-miterlimit:22.926;stroke-dasharray:none;stroke-opacity:1"
           id="path222" /><path
           d="m 326.025,476.236 c -2.255,-13.379 0.169,-20.516 7.275,-21.415"
           style="fill:none;stroke:#ffffff;stroke-width:1.84;stroke-linecap:butt;stroke-linejoin:miter;stroke-miterlimit:22.926;stroke-dasharray:none;stroke-opacity:1"
           id="path224" /><path
           d="m 344.834,451.967 c 10.943,7.208 12.02,15.277 8.609,23.736"
           style="fill:none;stroke:#ffffff;stroke-width:1.84;stroke-linecap:butt;stroke-linejoin:miter;stroke-miterlimit:22.926;stroke-dasharray:none;stroke-opacity:1"
           id="path226" /><path
           d="m 347.174,462.732 c 1.638,13.538 -18.05,17.755 -16.616,0.703"
           style="fill:none;stroke:#ffffff;stroke-width:1.84;stroke-linecap:butt;stroke-linejoin:miter;stroke-miterlimit:22.926;stroke-dasharray:none;stroke-opacity:1"
           id="path228" /><path
           d="m 323.834,442.308 11.215,-0.158 c 3.137,1.376 4.397,5.138 1.161,6.758 l -30.939,7.33 c -4.099,0.778 -7.708,0.08 -10.236,-3.867 l -14.937,-26.139 2.644,-7.21 c -4.447,-8.877 2.393,-13.032 5.28,-20.435 4.736,-3.596 8.42,-9.644 12.629,-14.465 15.359,-10.824 31.685,-14.854 48.678,-14.236 3.586,0.483 8.529,7.464 11.94,12.619 3.837,-0.118 7.5,2.915 11.251,4.372 l -0.828,-1.482 c 1.022,-3.848 4.322,-5.944 6.482,-8.916 -6.648,0.309 -13.455,0.217 -21.036,-1.816 -1.629,-1.439 -1.631,-6.704 -0.921,-10.517 -1.488,-4.411 -1.413,-9.212 -0.459,-14.236 l -3.904,-8.725 c 0.042,-3.443 1.244,-5.56 4.133,-5.741 -0.429,-2.27 0.259,-4.337 2.067,-6.199 7.245,-3.903 14.592,-6.889 22.042,-8.955 5.84,-1.477 10.297,0.003 13.088,5.052 l 3.749,13.581 c 2.486,13.773 2.491,27.543 -1.503,41.306 l -16.711,17.44 c -6.703,0.451 -13.5,-0.616 -20.436,-3.903 -2.8,-1.059 -4.797,-3.723 -6.429,-7.119 1.084,4.156 1.018,8.694 0,13.547 l -2.066,3.674 c 6.275,-1.208 12.552,-1.131 18.828,0.23 l 11.94,16.072 c 0,0 -1.542,42.293 -1.497,42.747 0.045,0.454 2.451,28.062 2.451,28.062 l -16.244,-13.047 8.784,-9.635 -0.163,-6.995 -32.566,-29.904 c -1.828,-1.676 -3.646,-1.73 -5.454,-0.161 z"
           style="fill:#fbca8e;fill-opacity:1;fill-rule:evenodd;stroke:none"
           id="path230" /><path
           d="m 323.834,442.308 11.215,-0.158 c 3.137,1.376 4.397,5.138 1.161,6.758 l -30.939,7.33 c -4.099,0.778 -7.708,0.08 -10.236,-3.867 l -14.937,-26.139 2.644,-7.21 c -4.447,-8.877 2.393,-13.032 5.28,-20.435 4.736,-3.596 8.42,-9.644 12.629,-14.465 15.359,-10.824 31.685,-14.854 48.678,-14.236 3.586,0.483 8.529,7.464 11.94,12.619 3.837,-0.118 7.5,2.915 11.251,4.372 l -0.828,-1.482 c 1.022,-3.848 4.322,-5.944 6.482,-8.916 -6.648,0.309 -13.455,0.217 -21.036,-1.816 -1.629,-1.439 -1.631,-6.704 -0.921,-10.517 -1.488,-4.411 -1.413,-9.212 -0.459,-14.236 l -3.904,-8.725 c 0.042,-3.443 1.244,-5.56 4.133,-5.741 -0.429,-2.27 0.259,-4.337 2.067,-6.199 7.245,-3.903 14.592,-6.889 22.042,-8.955 5.84,-1.477 10.297,0.003 13.088,5.052 l 3.749,13.581 c 2.486,13.773 2.491,27.543 -1.503,41.306 l -16.711,17.44 c -6.703,0.451 -13.5,-0.616 -20.436,-3.903 -2.8,-1.059 -4.797,-3.723 -6.429,-7.119 1.084,4.156 1.018,8.694 0,13.547 l -2.066,3.674 c 6.275,-1.208 12.552,-1.131 18.828,0.23 l 11.94,16.072 c 0,0 -1.542,42.293 -1.497,42.747 0.045,0.454 2.451,28.062 2.451,28.062 l -16.244,-13.047 8.784,-9.635 -0.163,-6.995 -32.566,-29.904 c -1.828,-1.676 -3.646,-1.73 -5.454,-0.161 z"
           style="fill:none;stroke:#231f20;stroke-width:1.84;stroke-linecap:round;stroke-linejoin:round;stroke-miterlimit:22.926;stroke-dasharray:none;stroke-opacity:1"
           id="path232" /><path
           d="m 295.339,414.183 c -4.817,-1.763 -7.694,-4.841 -6.305,-10.809"
           style="fill:none;stroke:#231f20;stroke-width:1.84;stroke-linecap:butt;stroke-linejoin:miter;stroke-miterlimit:22.926;stroke-dasharray:none;stroke-opacity:1"
           id="path234" /><path
           d="m 299.618,402.473 c -2.447,-4.516 -1.683,-8.794 1.277,-12.911"
           style="fill:none;stroke:#231f20;stroke-width:1.84;stroke-linecap:butt;stroke-linejoin:miter;stroke-miterlimit:22.926;stroke-dasharray:none;stroke-opacity:1"
           id="path236" /><path
           d="m 356.217,364.146 c 8.494,-1.026 22.249,1.849 25.482,-3.079"
           style="fill:none;stroke:#231f20;stroke-width:1.84;stroke-linecap:butt;stroke-linejoin:miter;stroke-miterlimit:22.926;stroke-dasharray:none;stroke-opacity:1"
           id="path238" /><path
           d="m 376.623,363.67 c 2.643,0.095 4.255,1.536 6.068,2.446"
           style="fill:none;stroke:#231f20;stroke-width:1.84;stroke-linecap:butt;stroke-linejoin:miter;stroke-miterlimit:22.926;stroke-dasharray:none;stroke-opacity:1"
           id="path240" /><path
           d="m 355.758,349.91 c 0.55,5.02 12.817,1.712 23.502,-0.469"
           style="fill:none;stroke:#231f20;stroke-width:1.84;stroke-linecap:butt;stroke-linejoin:miter;stroke-miterlimit:22.926;stroke-dasharray:none;stroke-opacity:1"
           id="path242" /><path
           d="m 327.524,450.81 c -3.851,-3.159 0.223,-4.809 9.723,-5.427 1.097,1.243 0.751,2.419 -1.037,3.525 z"
           style="fill:none;stroke:#231f20;stroke-width:1.472;stroke-linecap:butt;stroke-linejoin:miter;stroke-miterlimit:22.926;stroke-dasharray:none;stroke-opacity:1"
           id="path244" /><path
           d="m 324.769,442.275 -17.406,2.155 c -3.576,-10.26 -8.98,-17.32 -17.645,-18.678 8.16,0.954 15.446,9.14 23.288,11.922 4.001,1.802 7.524,1.696 10.809,-0.795 l 12.241,-14.068 c 2.874,-4.133 1.84,-8.823 -1.114,-11.445 -3.709,4.583 -8.053,7.577 -12.081,11.365 -2.41,1.431 -5.245,1.59 -8.504,0.477 -5.351,-1.218 -10.624,-5.695 -16.055,-3.655"
           style="fill:none;stroke:#231f20;stroke-width:1.84;stroke-linecap:round;stroke-linejoin:round;stroke-miterlimit:22.926;stroke-dasharray:none;stroke-opacity:1"
           id="path246" /><path
           d="m 319.841,430.441 c -0.774,-2.18 -0.277,-6.108 -2.323,-6.54"
           style="fill:none;stroke:#231f20;stroke-width:1.84;stroke-linecap:butt;stroke-linejoin:miter;stroke-miterlimit:22.926;stroke-dasharray:none;stroke-opacity:1"
           id="path248" /><path
           d="m 302.492,448.561 4.871,-4.131"
           style="fill:none;stroke:#231f20;stroke-width:1.84;stroke-linecap:butt;stroke-linejoin:miter;stroke-miterlimit:22.926;stroke-dasharray:none;stroke-opacity:1"
           id="path250" /><path
           d="m 306.807,406.24 15.463,5.558 c 2.245,0.704 4.037,0.345 5.622,-0.498 l 8.516,-10.036 c 1.351,-2.238 1.268,-4.257 -0.248,-6.055 -3.252,-2.211 -7.001,-3.097 -10.5,-4.645 4.485,-0.062 9.238,-1.292 14.387,-4.231 3.913,-3.096 6.283,-7.187 7.11,-12.275"
           style="fill:none;stroke:#231f20;stroke-width:1.84;stroke-linecap:round;stroke-linejoin:round;stroke-miterlimit:22.926;stroke-dasharray:none;stroke-opacity:1"
           id="path252" /><path
           d="m 324.667,404.333 c -0.316,-4.548 1.694,-7.478 7.111,-8.047"
           style="fill:none;stroke:#231f20;stroke-width:1.84;stroke-linecap:butt;stroke-linejoin:miter;stroke-miterlimit:22.926;stroke-dasharray:none;stroke-opacity:1"
           id="path254" /><path
           d="m 313.836,396.204 c 8.212,1.522 12.457,-2.487 12.733,-12.027"
           style="fill:none;stroke:#231f20;stroke-width:1.84;stroke-linecap:butt;stroke-linejoin:miter;stroke-miterlimit:22.926;stroke-dasharray:none;stroke-opacity:1"
           id="path256" /><path
           d="m 319.22,396.314 c 2.791,0.454 4.699,2.014 5.726,4.681"
           style="fill:none;stroke:#231f20;stroke-width:1.84;stroke-linecap:butt;stroke-linejoin:miter;stroke-miterlimit:22.926;stroke-dasharray:none;stroke-opacity:1"
           id="path258" /><path
           d="m 334.942,411.366 0.063,-8.449"
           style="fill:none;stroke:#231f20;stroke-width:1.84;stroke-linecap:round;stroke-linejoin:round;stroke-miterlimit:22.926;stroke-dasharray:none;stroke-opacity:1"
           id="path260" /><path
           d="m 337.122,430.343 c 0.793,-9.511 8.992,-17.65 12.666,-26.475"
           style="fill:none;stroke:#231f20;stroke-width:1.84;stroke-linecap:butt;stroke-linejoin:miter;stroke-miterlimit:22.926;stroke-dasharray:none;stroke-opacity:1"
           id="path262" /><path
           d="m 352.163,387.997 c -2.213,-6.178 -3.518,-12.255 -2.834,-18.111"
           style="fill:none;stroke:#231f20;stroke-width:1.84;stroke-linecap:butt;stroke-linejoin:miter;stroke-miterlimit:22.926;stroke-dasharray:none;stroke-opacity:1"
           id="path264" /><path
           d="m 351.29,385.411 c 3.558,-2.332 3.583,-6.305 -1.556,-12.678 -0.591,3.681 -0.072,7.908 1.556,12.678 z"
           style="fill:none;stroke:#231f20;stroke-width:1.417;stroke-linecap:butt;stroke-linejoin:miter;stroke-miterlimit:22.926;stroke-dasharray:none;stroke-opacity:1"
           id="path266" /><path
           d="m 377.07,376.525 c 2.67,-0.354 5.123,0.822 7.685,1.233"
           style="fill:none;stroke:#231f20;stroke-width:1.417;stroke-linecap:butt;stroke-linejoin:miter;stroke-miterlimit:22.926;stroke-dasharray:none;stroke-opacity:1"
           id="path268" /><path
           d="m 391.262,371.805 c 4.296,-2.476 5.484,-7.153 3.566,-14.034"
           style="fill:none;stroke:#231f20;stroke-width:1.84;stroke-linecap:butt;stroke-linejoin:miter;stroke-miterlimit:22.926;stroke-dasharray:none;stroke-opacity:1"
           id="path270" /><path
           d="m 391.125,356.808 c 2.309,-3.371 2.444,-7.177 1.098,-11.282"
           style="fill:none;stroke:#231f20;stroke-width:1.417;stroke-linecap:butt;stroke-linejoin:miter;stroke-miterlimit:22.926;stroke-dasharray:none;stroke-opacity:1"
           id="path272" /><path
           d="m 386.324,343.738 c 3.612,-1.237 4.479,-4.127 2.607,-8.668"
           style="fill:none;stroke:#231f20;stroke-width:1.84;stroke-linecap:butt;stroke-linejoin:miter;stroke-miterlimit:22.926;stroke-dasharray:none;stroke-opacity:1"
           id="path274" /><path
           d="m 355.987,335.444 c 4.373,-5.064 7.925,-2.707 11.306,1.191 0.567,2.642 -0.495,3.724 -3.183,3.247 l -3.925,-2.023"
           style="fill:none;stroke:#231f20;stroke-width:1.417;stroke-linecap:butt;stroke-linejoin:miter;stroke-miterlimit:22.926;stroke-dasharray:none;stroke-opacity:1"
           id="path276" /><path
           d="m 358.911,342.543 c 4.61,-1.878 9.357,-3.459 14.272,-4.684"
           style="fill:none;stroke:#231f20;stroke-width:1.417;stroke-linecap:butt;stroke-linejoin:miter;stroke-miterlimit:22.926;stroke-dasharray:none;stroke-opacity:1"
           id="path278" /><path
           d="m 367.135,340.041 c 0.618,-4.32 2.262,-8.45 5.146,-12.348"
           style="fill:none;stroke:#231f20;stroke-width:1.84;stroke-linecap:butt;stroke-linejoin:miter;stroke-miterlimit:22.926;stroke-dasharray:none;stroke-opacity:1"
           id="path280" /><path
           d="m 356.102,375.324 5.167,7.181 c 2.546,0.253 5.163,1.237 7.826,2.727 1.928,-0.695 0.876,-5.919 2.402,-8.634 -4.508,0.038 -9.006,-0.406 -13.488,-1.709 l -1.408,-0.936 z"
           style="fill:#fbca8e;fill-opacity:1;fill-rule:evenodd;stroke:none"
           id="path282" /><path
           d="m 356.102,375.324 5.167,7.181 c 2.546,0.253 5.163,1.237 7.826,2.727 1.928,-0.695 0.876,-5.919 2.402,-8.634 -4.508,0.038 -9.006,-0.406 -13.488,-1.709 l -1.408,-0.936 z"
           style="fill:none;stroke:#231f20;stroke-width:1.84;stroke-linecap:round;stroke-linejoin:round;stroke-miterlimit:22.926;stroke-dasharray:none;stroke-opacity:1"
           id="path284" /><path
           d="m 214.27,328.828 c 1.332,5.892 6.309,10.808 8.735,17.675"
           style="fill:none;stroke:#231f20;stroke-width:1.84;stroke-linecap:butt;stroke-linejoin:miter;stroke-miterlimit:22.926;stroke-dasharray:none;stroke-opacity:1"
           id="path286" /><path
           d="m 228.959,347.844 c 13.04,-2.534 28.152,-12.697 44.109,-25.963"
           style="fill:none;stroke:#231f20;stroke-width:1.84;stroke-linecap:butt;stroke-linejoin:miter;stroke-miterlimit:22.926;stroke-dasharray:none;stroke-opacity:1"
           id="path288" /><path
           d="m 218.752,326.878 c 4.742,9.23 8.226,14.105 10.45,14.628 18.203,-6.629 32.87,-17.066 47.269,-27.793 -13.782,9.557 -27.793,18.61 -43.259,24.502 -2.254,1.268 -3.865,1.049 -5.104,0.121 -3.276,-2.45 -6.237,-7.639 -9.356,-11.458"
           style="fill:#231f20;fill-opacity:1;fill-rule:evenodd;stroke:none"
           id="path290" /><path
           d="m 218.752,326.878 c 4.742,9.23 8.226,14.105 10.45,14.628 18.203,-6.629 32.87,-17.066 47.269,-27.793 -13.782,9.557 -27.793,18.61 -43.259,24.502 -2.254,1.268 -3.865,1.049 -5.104,0.121 -3.276,-2.45 -6.237,-7.639 -9.356,-11.458 z"
           style="fill:none;stroke:#231f20;stroke-width:0.561;stroke-linecap:round;stroke-linejoin:round;stroke-miterlimit:22.926;stroke-dasharray:none;stroke-opacity:1"
           id="path292" /><path
           d="m 211.458,371.364 c 1.882,5.826 7.687,11.032 14.588,16.067"
           style="fill:none;stroke:#231f20;stroke-width:1.84;stroke-linecap:butt;stroke-linejoin:miter;stroke-miterlimit:22.926;stroke-dasharray:none;stroke-opacity:1"
           id="path294" /><path
           d="m 213.789,369.879 c 5.931,12.017 13.343,18.165 24.021,11.403 l 12.456,-13.09 c 9.819,-6.313 16.278,-15.006 24.418,-22.51 9.119,-9.288 13.088,-18.444 11.862,-24.296 -5.47,-11.337 -15.389,-15.337 -16.41,-34.014 -5.43,-11.802 -14.607,-9.783 -20.167,-14.081 -5.515,-3.255 -9.511,-11.254 -12.653,-21.915"
           style="fill:none;stroke:#231f20;stroke-width:1.84;stroke-linecap:round;stroke-linejoin:round;stroke-miterlimit:22.926;stroke-dasharray:none;stroke-opacity:1"
           id="path296" /><path
           d="m 252.312,370.922 c 10.492,-11.078 23.192,-20.127 31.477,-33.237"
           style="fill:none;stroke:#231f20;stroke-width:1.84;stroke-linecap:butt;stroke-linejoin:miter;stroke-miterlimit:22.926;stroke-dasharray:none;stroke-opacity:1"
           id="path298" /><path
           d="m 283.25,353.628 c -2.171,-10.058 2.15,-26.99 8.822,-46.411"
           style="fill:none;stroke:#231f20;stroke-width:1.84;stroke-linecap:round;stroke-linejoin:miter;stroke-miterlimit:22.926;stroke-dasharray:none;stroke-opacity:1"
           id="path300" /><path
           d="m 232.969,235.025 c -2.32,-13.178 -2.567,-26.17 -0.314,-38.933"
           style="fill:none;stroke:#231f20;stroke-width:1.84;stroke-linecap:round;stroke-linejoin:round;stroke-miterlimit:22.926;stroke-dasharray:none;stroke-opacity:1"
           id="path302" /><path
           d="m 238.898,243.763 c 3.483,4.212 7.072,6.239 10.765,6.084 -5.643,-8.685 -7.828,-19.345 -7.645,-31.36"
           style="fill:none;stroke:#231f20;stroke-width:1.843;stroke-linecap:round;stroke-linejoin:round;stroke-miterlimit:22.926;stroke-dasharray:none;stroke-opacity:1"
           id="path304" /><path
           d="m 270.275,289.279 c 0.322,-7.774 -1.86,-14.105 -3.328,-21.176"
           style="fill:none;stroke:#231f20;stroke-width:1.418;stroke-linecap:butt;stroke-linejoin:miter;stroke-miterlimit:22.926;stroke-dasharray:none;stroke-opacity:1"
           id="path306" /><path
           d="m 294.666,285.628 c 3.1,-15.857 7.63,-31.713 9.299,-47.569 1.042,-8.882 3.426,-14.486 8.763,-12.876"
           style="fill:none;stroke:#231f20;stroke-width:1.84;stroke-linecap:butt;stroke-linejoin:miter;stroke-miterlimit:22.926;stroke-dasharray:none;stroke-opacity:1"
           id="path308" /><path
           d="m 300.567,295.105 c 6.448,-20.829 11.662,-52.982 20.923,-47.925"
           style="fill:none;stroke:#231f20;stroke-width:1.84;stroke-linecap:butt;stroke-linejoin:miter;stroke-miterlimit:22.926;stroke-dasharray:none;stroke-opacity:1"
           id="path310" /><path
           d="m 301.477,368.158 c 2.361,-6.783 7.983,-10.64 11.975,-15.962 4.242,-5.752 7.197,-12.967 12.211,-18.549 6.804,-3.265 14.122,-8.856 20.411,-9.799"
           style="fill:none;stroke:#231f20;stroke-width:1.84;stroke-linecap:butt;stroke-linejoin:miter;stroke-miterlimit:22.926;stroke-dasharray:none;stroke-opacity:1"
           id="path312" /><path
           d="m 300.651,384.122 c -0.491,-6.757 4.639,-14.171 3.305,-20.834"
           style="fill:none;stroke:#231f20;stroke-width:1.472;stroke-linecap:butt;stroke-linejoin:miter;stroke-miterlimit:22.926;stroke-dasharray:none;stroke-opacity:1"
           id="path314" /><path
           d="m 303.18,382.405 c -0.159,-6.499 3.616,-15.254 4.019,-23.164"
           style="fill:none;stroke:#231f20;stroke-width:1.472;stroke-linecap:butt;stroke-linejoin:miter;stroke-miterlimit:22.926;stroke-dasharray:none;stroke-opacity:1"
           id="path316" /><path
           d="m 309.004,378.941 3.095,-18.932"
           style="fill:none;stroke:#231f20;stroke-width:1.472;stroke-linecap:butt;stroke-linejoin:miter;stroke-miterlimit:22.926;stroke-dasharray:none;stroke-opacity:1"
           id="path318" /><path
           d="m 311.521,377.645 c 0.643,-8.483 2.692,-17.812 1.931,-25.449"
           style="fill:none;stroke:#231f20;stroke-width:1.472;stroke-linecap:butt;stroke-linejoin:miter;stroke-miterlimit:22.926;stroke-dasharray:none;stroke-opacity:1"
           id="path320" /><path
           d="m 319.036,374.314 c 0.985,-10.672 1.197,-20.907 0.289,-31.553"
           style="fill:none;stroke:#231f20;stroke-width:1.472;stroke-linecap:butt;stroke-linejoin:miter;stroke-miterlimit:22.926;stroke-dasharray:none;stroke-opacity:1"
           id="path322" /><path
           d="m 321.551,373.426 c -0.312,-10.939 0.876,-21.783 -0.934,-32.816"
           style="fill:none;stroke:#231f20;stroke-width:1.472;stroke-linecap:butt;stroke-linejoin:miter;stroke-miterlimit:22.926;stroke-dasharray:none;stroke-opacity:1"
           id="path324" /><path
           d="m 329.055,371.559 c -0.242,-12.913 -1.44,-25.344 -4.18,-37.002 4.309,9.389 6.128,22.109 6.689,36.511"
           style="fill:none;stroke:#231f20;stroke-width:1.472;stroke-linecap:round;stroke-linejoin:round;stroke-miterlimit:22.926;stroke-dasharray:none;stroke-opacity:1"
           id="path326" /><path
           d="m 341.405,369.836 c -2.474,-13.588 -5.579,-26.815 -9.805,-39.403"
           style="fill:none;stroke:#231f20;stroke-width:1.472;stroke-linecap:butt;stroke-linejoin:miter;stroke-miterlimit:22.926;stroke-dasharray:none;stroke-opacity:1"
           id="path328" /><path
           d="m 343.796,369.562 c -2.476,-13.589 -5.58,-26.817 -9.807,-39.404"
           style="fill:none;stroke:#231f20;stroke-width:1.472;stroke-linecap:butt;stroke-linejoin:miter;stroke-miterlimit:22.926;stroke-dasharray:none;stroke-opacity:1"
           id="path330" /><path
           d="m 351.753,370.981 c -3.647,-14.778 -7.684,-28.93 -12.579,-41.703"
           style="fill:none;stroke:#231f20;stroke-width:1.472;stroke-linecap:butt;stroke-linejoin:miter;stroke-miterlimit:22.926;stroke-dasharray:none;stroke-opacity:1"
           id="path332" /><path
           d="M 353.847,372.795 C 350.668,358.746 347.07,344.613 342.64,330.313"
           style="fill:none;stroke:#231f20;stroke-width:1.472;stroke-linecap:butt;stroke-linejoin:miter;stroke-miterlimit:22.926;stroke-dasharray:none;stroke-opacity:1"
           id="path334" /><path
           d="m 333.637,329.254 c 8.088,-0.736 14.293,2.708 18.228,11.2 0.004,-4.092 -4.277,-8.129 -4.329,-12.109"
           style="fill:none;stroke:#231f20;stroke-width:1.84;stroke-linecap:round;stroke-linejoin:round;stroke-miterlimit:22.926;stroke-dasharray:none;stroke-opacity:1"
           id="path336" /><path
           d="m 351.444,338.074 c 1.973,-4.144 3.238,-9 5.921,-12.432 0.882,-2.07 1.389,-6.037 0.282,-7.63 l -9.325,-12.859 c 4.615,-12.281 18.886,-16.355 38.574,-15.825 -7.017,10.692 6.594,16.862 9.891,25.293 1.72,6.507 -0.518,13.579 -0.777,20.368"
           style="fill:none;stroke:#231f20;stroke-width:1.417;stroke-linecap:round;stroke-linejoin:round;stroke-miterlimit:22.926;stroke-dasharray:none;stroke-opacity:1"
           id="path338" /><path
           d="m 352.222,298.734 c 3.698,9.213 9.939,18.569 12.79,26.793"
           style="fill:none;stroke:#231f20;stroke-width:1.472;stroke-linecap:butt;stroke-linejoin:miter;stroke-miterlimit:22.926;stroke-dasharray:none;stroke-opacity:1"
           id="path340" /><path
           d="m 354.107,296.914 c 3.688,9.498 8.33,18.59 13.763,27.342"
           style="fill:none;stroke:#231f20;stroke-width:1.472;stroke-linecap:butt;stroke-linejoin:miter;stroke-miterlimit:22.926;stroke-dasharray:none;stroke-opacity:1"
           id="path342" /><path
           d="m 359.87,293.305 c 3.816,10.58 10.248,18.916 14.812,28.654"
           style="fill:none;stroke:#231f20;stroke-width:1.472;stroke-linecap:butt;stroke-linejoin:miter;stroke-miterlimit:22.926;stroke-dasharray:none;stroke-opacity:1"
           id="path344" /><path
           d="m 361.831,292.484 c 3.983,10.118 9.332,19.608 15.426,28.639"
           style="fill:none;stroke:#231f20;stroke-width:1.472;stroke-linecap:butt;stroke-linejoin:miter;stroke-miterlimit:22.926;stroke-dasharray:none;stroke-opacity:1"
           id="path346" /><path
           d="m 368.443,290.607 c 4.715,10.959 9.927,20.671 15.641,29.139"
           style="fill:none;stroke:#231f20;stroke-width:1.472;stroke-linecap:butt;stroke-linejoin:miter;stroke-miterlimit:22.926;stroke-dasharray:none;stroke-opacity:1"
           id="path348" /><path
           d="m 370.873,290.172 c 3.824,10.685 9.579,20.473 15.618,29.818"
           style="fill:none;stroke:#231f20;stroke-width:1.472;stroke-linecap:butt;stroke-linejoin:miter;stroke-miterlimit:22.926;stroke-dasharray:none;stroke-opacity:1"
           id="path350" /><path
           d="m 375.565,289.608 c 3.148,7.99 7.385,15.026 12.527,21.273 3.089,5.28 4.106,9.226 3.709,12.265"
           style="fill:none;stroke:#231f20;stroke-width:1.472;stroke-linecap:butt;stroke-linejoin:miter;stroke-miterlimit:22.926;stroke-dasharray:none;stroke-opacity:1"
           id="path352" /><path
           d="m 377.687,289.453 c 2.782,7.711 7.34,15.274 13.116,22.736 2.736,3.485 3.729,8.589 2.978,15.316"
           style="fill:none;stroke:#231f20;stroke-width:1.472;stroke-linecap:butt;stroke-linejoin:miter;stroke-miterlimit:22.926;stroke-dasharray:none;stroke-opacity:1"
           id="path354" /><path
           d="m 356.31,287.648 c 4.4,-4.721 10.52,-8.426 18.068,-11.293 8.286,-2.52 19.973,-11.306 23.817,-9.65"
           style="fill:none;stroke:#231f20;stroke-width:1.84;stroke-linecap:round;stroke-linejoin:round;stroke-miterlimit:22.926;stroke-dasharray:none;stroke-opacity:1"
           id="path356" /><path
           d="m 348.322,305.153 -0.225,-10.113 -5.133,-8.213 c -3.819,-7.735 -4.749,-16.558 -3.285,-26.282 l -0.206,-10.266 -17.247,-14.783 c -4.175,-7.666 -3.217,-17.385 -6.366,-26.076 0.695,-2.751 -0.127,-4.462 -2.464,-5.134 -3.444,-1.256 -6.545,-3.143 -9.034,-6.159 L 286.5,178.826 c -4.716,-4.143 -9.192,-7.088 -13.142,-7.391 -7.608,-1.46 -14.979,-1.461 -23.189,-0.097"
           style="fill:none;stroke:#231f20;stroke-width:1.84;stroke-linecap:round;stroke-linejoin:round;stroke-miterlimit:22.926;stroke-dasharray:none;stroke-opacity:1"
           id="path358" /><path
           d="m 287.772,175.446 c 10.411,4.208 23.503,4.929 38.821,2.76 l 13.614,5.151"
           style="fill:none;stroke:#231f20;stroke-width:1.472;stroke-linecap:butt;stroke-linejoin:miter;stroke-miterlimit:22.926;stroke-dasharray:none;stroke-opacity:1"
           id="path360" /><path
           d="m 305.435,192.557 c 7.878,1.752 15.643,2.34 23.329,2.133"
           style="fill:none;stroke:#231f20;stroke-width:1.472;stroke-linecap:butt;stroke-linejoin:miter;stroke-miterlimit:22.926;stroke-dasharray:none;stroke-opacity:1"
           id="path362" /><path
           d="m 340.392,167.388 c 3.901,8.151 1.089,17.637 -4.416,23.881 -5.568,0.488 -10.873,4.527 -11.775,12.878 -0.362,10.384 4.98,24.531 5.476,37.736"
           style="fill:none;stroke:#231f20;stroke-width:1.84;stroke-linecap:round;stroke-linejoin:round;stroke-miterlimit:22.926;stroke-dasharray:none;stroke-opacity:1"
           id="path364" /><path
           d="m 350.143,257.502 c 13.705,-18.551 30.325,-31.858 48.939,-41.579"
           style="fill:none;stroke:#231f20;stroke-width:1.472;stroke-linecap:butt;stroke-linejoin:miter;stroke-miterlimit:22.926;stroke-dasharray:none;stroke-opacity:1"
           id="path366" /><path
           d="m 381.419,205.251 -7.175,6.808 c -1.387,1.504 -1.079,2.606 0.92,3.311 8.756,6.323 23.907,-5.606 35.509,-15.27"
           style="fill:none;stroke:#231f20;stroke-width:1.84;stroke-linecap:butt;stroke-linejoin:miter;stroke-miterlimit:22.926;stroke-dasharray:none;stroke-opacity:1"
           id="path368" /><path
           d="m 339.679,260.545 c 25.398,-33.456 15.253,-33.285 21.598,-43.578 0.588,-6.084 3.464,-10.931 8.629,-14.545 14.791,-11.626 29.98,-17.294 44.375,-34.878"
           style="fill:none;stroke:#231f20;stroke-width:1.84;stroke-linecap:butt;stroke-linejoin:miter;stroke-miterlimit:22.926;stroke-dasharray:none;stroke-opacity:1"
           id="path370" /><path
           d="m 339.473,250.279 8.068,-0.646"
           style="fill:none;stroke:#231f20;stroke-width:1.472;stroke-linecap:butt;stroke-linejoin:miter;stroke-miterlimit:22.926;stroke-dasharray:none;stroke-opacity:1"
           id="path372" /><path
           d="m 337.224,248.351 11.468,-0.85"
           style="fill:none;stroke:#231f20;stroke-width:1.472;stroke-linecap:butt;stroke-linejoin:miter;stroke-miterlimit:22.926;stroke-dasharray:none;stroke-opacity:1"
           id="path374" /><path
           d="m 330.157,242.294 c 7.75,-0.73 15.568,-0.716 23.25,-2.189"
           style="fill:none;stroke:#231f20;stroke-width:1.472;stroke-linecap:butt;stroke-linejoin:miter;stroke-miterlimit:22.926;stroke-dasharray:none;stroke-opacity:1"
           id="path376" /><path
           d="m 329.565,239.877 c 8.102,0.181 16.204,-0.988 24.306,-1.483"
           style="fill:none;stroke:#231f20;stroke-width:1.472;stroke-linecap:butt;stroke-linejoin:miter;stroke-miterlimit:22.926;stroke-dasharray:none;stroke-opacity:1"
           id="path378" /><path
           d="m 328.589,232.04 c 7.822,-0.198 16.25,0.952 23.467,-0.596"
           style="fill:none;stroke:#231f20;stroke-width:1.472;stroke-linecap:butt;stroke-linejoin:miter;stroke-miterlimit:22.926;stroke-dasharray:none;stroke-opacity:1"
           id="path380" /><path
           d="m 328.233,230.02 c 7.873,-0.358 16.083,0.567 23.621,-1.072"
           style="fill:none;stroke:#231f20;stroke-width:1.472;stroke-linecap:butt;stroke-linejoin:miter;stroke-miterlimit:22.926;stroke-dasharray:none;stroke-opacity:1"
           id="path382" /><path
           d="m 326.563,221.7 c 8.135,-0.161 17.109,0.839 23.676,-0.982"
           style="fill:none;stroke:#231f20;stroke-width:1.472;stroke-linecap:butt;stroke-linejoin:miter;stroke-miterlimit:22.926;stroke-dasharray:none;stroke-opacity:1"
           id="path384" /><path
           d="m 325.758,219.503 c 7.868,-0.45 18.831,0.72 23.606,-1.35"
           style="fill:none;stroke:#231f20;stroke-width:1.472;stroke-linecap:butt;stroke-linejoin:miter;stroke-miterlimit:22.926;stroke-dasharray:none;stroke-opacity:1"
           id="path386" /><path
           d="m 324.543,210.468 c 7.197,-1.645 16.076,-0.386 23.409,-1.895 l -0.201,-1.619 c -7.427,1.057 -15.728,-0.181 -23.491,0.538"
           style="fill:none;stroke:#231f20;stroke-width:1.472;stroke-linecap:butt;stroke-linejoin:miter;stroke-miterlimit:22.926;stroke-dasharray:none;stroke-opacity:1"
           id="path388" /><path
           d="m 324.618,201.689 c 6.523,-6.925 16.273,-3.461 24.41,-5.193 l 0.874,-2.225 c -8.061,2.29 -18.006,-1.021 -24.184,4.237"
           style="fill:none;stroke:#231f20;stroke-width:1.472;stroke-linecap:butt;stroke-linejoin:miter;stroke-miterlimit:22.926;stroke-dasharray:none;stroke-opacity:1"
           id="path390" /><path
           d="m 335.976,191.269 c 6.499,-0.471 12.989,-2.25 19.307,-2.125 -5.429,-0.7 -13.146,0.019 -16.289,-2.097"
           style="fill:none;stroke:#231f20;stroke-width:1.472;stroke-linecap:round;stroke-linejoin:round;stroke-miterlimit:22.926;stroke-dasharray:none;stroke-opacity:1"
           id="path392" /><path
           d="m 341.633,180.391 c 9.082,1.508 17.971,1.935 26.698,1.465 l 0.808,-2.631 c -10.024,1.014 -19.496,1.121 -27.003,-2.012"
           style="fill:none;stroke:#231f20;stroke-width:1.472;stroke-linecap:butt;stroke-linejoin:miter;stroke-miterlimit:22.926;stroke-dasharray:none;stroke-opacity:1"
           id="path394" /><path
           d="m 366.738,185.831 c 4.545,-6.284 1.881,-12.254 2.822,-18.382"
           style="fill:none;stroke:#231f20;stroke-width:1.84;stroke-linecap:butt;stroke-linejoin:miter;stroke-miterlimit:22.926;stroke-dasharray:none;stroke-opacity:1"
           id="path396" /><path
           d="m 379.358,181.821 -24.075,7.323 c -5.814,2.295 -7.862,9.263 -7.331,19.429 -0.844,6.205 2.936,11.468 3.345,17.909 0.079,5.099 2.174,9.725 1.38,14.941"
           style="fill:none;stroke:#231f20;stroke-width:1.84;stroke-linecap:round;stroke-linejoin:round;stroke-miterlimit:22.926;stroke-dasharray:none;stroke-opacity:1"
           id="path398" /><path
           d="m 409.01,268.966 c 7.053,-9.897 11.886,-23.801 21.161,-29.689"
           style="fill:none;stroke:#231f20;stroke-width:1.472;stroke-linecap:butt;stroke-linejoin:miter;stroke-miterlimit:22.926;stroke-dasharray:none;stroke-opacity:1"
           id="path400" /><path
           d="m 427.359,248.629 c 14.532,4.911 26.369,-9.788 37.736,-27.908"
           style="fill:none;stroke:#231f20;stroke-width:1.84;stroke-linecap:round;stroke-linejoin:round;stroke-miterlimit:22.926;stroke-dasharray:none;stroke-opacity:1"
           id="path402" /><path
           d="m 459.915,240.761 c -6.362,4.503 -11.099,12.419 -19.09,13.509 -8.586,-1.839 -16.852,-1.266 -24.652,2.834"
           style="fill:none;stroke:#231f20;stroke-width:1.472;stroke-linecap:butt;stroke-linejoin:miter;stroke-miterlimit:22.926;stroke-dasharray:none;stroke-opacity:1"
           id="path404" /><path
           d="m 446.795,252.025 c 14.239,-2.219 35.877,6.692 42.716,-6.662"
           style="fill:none;stroke:#231f20;stroke-width:1.472;stroke-linecap:butt;stroke-linejoin:miter;stroke-miterlimit:22.926;stroke-dasharray:none;stroke-opacity:1"
           id="path406" /><path
           d="m 495.135,267.333 c -1.085,-3.513 -3.946,-5.441 -8.583,-5.79 l -40.991,-3.265 c -6.338,0.224 -11.073,2.698 -13.466,8.461 l -9.324,25.236"
           style="fill:none;stroke:#231f20;stroke-width:1.84;stroke-linecap:round;stroke-linejoin:round;stroke-miterlimit:22.926;stroke-dasharray:none;stroke-opacity:1"
           id="path408" /><path
           d="m 413.929,261.082 c 0.957,27.233 11.756,45.157 27.958,55.37"
           style="fill:none;stroke:#231f20;stroke-width:1.472;stroke-linecap:butt;stroke-linejoin:miter;stroke-miterlimit:22.926;stroke-dasharray:none;stroke-opacity:1"
           id="path410" /><path
           d="m 411.971,264.422 c -0.166,6.063 1.478,8.868 2.218,13.303 1.338,4.557 0.342,7.909 -2.986,10.053"
           style="fill:none;stroke:#231f20;stroke-width:1.472;stroke-linecap:butt;stroke-linejoin:miter;stroke-miterlimit:22.926;stroke-dasharray:none;stroke-opacity:1"
           id="path412" /><path
           d="m 393.476,309.353 9.399,-10.048"
           style="fill:none;stroke:#231f20;stroke-width:1.472;stroke-linecap:butt;stroke-linejoin:miter;stroke-miterlimit:22.926;stroke-dasharray:none;stroke-opacity:1"
           id="path414" /><path
           d="m 478.413,332.798 c -10.294,-2.509 -20.588,-6.291 -30.885,-12.127 11.191,9.723 22.491,15.631 33.845,19.697"
           style="fill:none;stroke:#231f20;stroke-width:1.472;stroke-linecap:round;stroke-linejoin:round;stroke-miterlimit:22.926;stroke-dasharray:none;stroke-opacity:1"
           id="path416" /><path
           d="m 481.239,343.496 c -12.036,-4.89 -23.607,-11.34 -34.153,-21.221"
           style="fill:none;stroke:#231f20;stroke-width:1.472;stroke-linecap:butt;stroke-linejoin:miter;stroke-miterlimit:22.926;stroke-dasharray:none;stroke-opacity:1"
           id="path418" /><path
           d="m 461.543,374.956 c -6.333,-13.846 -9.412,-28.435 -19.001,-41.539 7.123,8.898 14.838,10.969 22.256,16.452 10.951,6.383 18.794,18.556 32.852,19.15"
           style="fill:none;stroke:#231f20;stroke-width:1.84;stroke-linecap:round;stroke-linejoin:round;stroke-miterlimit:22.926;stroke-dasharray:none;stroke-opacity:1"
           id="path420" /><path
           d="m 457.399,356.846 c -3.188,-6 -2.96,-13.386 -9.565,-17.998"
           style="fill:none;stroke:#231f20;stroke-width:1.84;stroke-linecap:round;stroke-linejoin:round;stroke-miterlimit:22.926;stroke-dasharray:none;stroke-opacity:1"
           id="path422" /><path
           d="m 500.191,364.131 c -12.248,5.182 -21.273,-7.993 -31.911,-11.991"
           style="fill:none;stroke:#231f20;stroke-width:1.84;stroke-linecap:round;stroke-linejoin:round;stroke-miterlimit:22.926;stroke-dasharray:none;stroke-opacity:1"
           id="path424" /><path
           d="m 249.231,407.003 47.625,-42.528 -13.606,-10.847 c -20.006,9.803 -22.68,35.584 -34.019,53.375"
           style="fill:#ed1c24;fill-opacity:1;fill-rule:evenodd;stroke:none"
           id="path426" /><path
           d="m 249.231,407.003 47.625,-42.528 -13.606,-10.847 c -20.006,9.803 -22.68,35.584 -34.019,53.375 z"
           style="fill:none;stroke:#231f20;stroke-width:1.84;stroke-linecap:round;stroke-linejoin:round;stroke-miterlimit:22.926;stroke-dasharray:none;stroke-opacity:1"
           id="path428" /><path
           d="m 233.18,418.299 c 1.743,4.773 5.653,5.212 8.481,7.819 l 3.258,0.666 55.336,-55.874 1.222,-2.752 -4.621,-3.683 -46.891,41.872 c -5.731,3.849 -10.784,11.625 -16.785,11.952"
           style="fill:#2e3192;fill-opacity:1;fill-rule:evenodd;stroke:none"
           id="path430" /><path
           d="m 233.18,418.299 c 1.743,4.773 5.653,5.212 8.481,7.819 l 3.258,0.666 55.336,-55.874 1.222,-2.752 -4.621,-3.683 -46.891,41.872 c -5.731,3.849 -10.784,11.625 -16.785,11.952 z"
           style="fill:none;stroke:#231f20;stroke-width:1.84;stroke-linecap:round;stroke-linejoin:round;stroke-miterlimit:22.926;stroke-dasharray:none;stroke-opacity:1"
           id="path432" /><path
           d="m 244.919,426.784 8.096,2.13 41.38,-44.786 5.169,-11.659 z"
           style="fill:#ffffff;fill-opacity:1;fill-rule:evenodd;stroke:none"
           id="path434" /><path
           d="m 244.919,426.784 8.096,2.13 41.38,-44.786 5.169,-11.659 z"
           style="fill:none;stroke:#231f20;stroke-width:1.84;stroke-linecap:round;stroke-linejoin:round;stroke-miterlimit:22.926;stroke-dasharray:none;stroke-opacity:1"
           id="path436" /><path
           d="m 253.015,428.914 c 2.795,0.628 5.862,0.039 8.387,1.886 l 15.471,4.148 5.869,-15.926 c -4.74,-9.249 3.52,-13.623 5.28,-20.435 l 6.639,-6.934 -0.266,-7.525 z"
           style="fill:#2e3192;fill-opacity:1;fill-rule:evenodd;stroke:none"
           id="path438" /><path
           d="m 253.015,428.914 c 2.795,0.628 5.862,0.039 8.387,1.886 l 15.471,4.148 5.869,-15.926 c -4.74,-9.249 3.52,-13.623 5.28,-20.435 l 6.639,-6.934 -0.266,-7.525 z"
           style="fill:none;stroke:#231f20;stroke-width:1.84;stroke-linecap:round;stroke-linejoin:round;stroke-miterlimit:22.926;stroke-dasharray:none;stroke-opacity:1"
           id="path440" /><path
           d="m 369.192,385.59 2.375,1.089 c 0.811,-5.069 4.405,-6.8 6.607,-10.2 l -6.98,0.12 c -0.938,2.93 -0.486,7.016 -2.002,8.991"
           style="fill:#2e3192;fill-opacity:1;fill-rule:evenodd;stroke:none"
           id="path442" /><path
           d="m 369.192,385.59 2.375,1.089 c 0.811,-5.069 4.405,-6.8 6.607,-10.2 l -6.98,0.12 c -0.938,2.93 -0.486,7.016 -2.002,8.991 z"
           style="fill:none;stroke:#231f20;stroke-width:1.472;stroke-linecap:round;stroke-linejoin:round;stroke-miterlimit:22.926;stroke-dasharray:none;stroke-opacity:1"
           id="path444" /><path
           d="m 351.854,400.194 -2.066,3.674 c 6.279,-1.238 12.555,-1.337 18.828,0.23 l 12.862,17.993 c 1.531,-6.946 3.955,-13.534 7.275,-19.763 3.046,-7.772 5.636,-15.424 7.226,-22.813 l -17.26,18.154 c -11.426,0.129 -20.559,-2.284 -26.341,-8.415 0.52,3.588 0.304,7.238 -0.524,10.94"
           style="fill:#2e3192;fill-opacity:1;fill-rule:evenodd;stroke:none"
           id="path446" /><path
           d="m 351.854,400.194 -2.066,3.674 c 6.279,-1.238 12.555,-1.337 18.828,0.23 l 12.862,17.993 c 1.531,-6.946 3.955,-13.534 7.275,-19.763 3.046,-7.772 5.636,-15.424 7.226,-22.813 l -17.26,18.154 c -11.426,0.129 -20.559,-2.284 -26.341,-8.415 0.52,3.588 0.304,7.238 -0.524,10.94 z"
           style="fill:none;stroke:#231f20;stroke-width:1.472;stroke-linecap:round;stroke-linejoin:round;stroke-miterlimit:22.926;stroke-dasharray:none;stroke-opacity:1"
           id="path448" /><path
           d="m 401.501,348.51 3.844,1.015 c -0.169,5.572 -1.154,10.726 -3.124,15.38 0.416,-5.366 0.218,-10.826 -0.72,-16.395"
           style="fill:#ed1c24;fill-opacity:1;fill-rule:evenodd;stroke:none"
           id="path450" /><path
           d="m 401.501,348.51 3.844,1.015 c -0.169,5.572 -1.154,10.726 -3.124,15.38 0.416,-5.366 0.218,-10.826 -0.72,-16.395 z"
           style="fill:none;stroke:#231f20;stroke-width:1.84;stroke-linecap:round;stroke-linejoin:round;stroke-miterlimit:22.926;stroke-dasharray:none;stroke-opacity:1"
           id="path452" /><path
           d="m 408.132,350.467 c 2.933,1.104 5.73,2.489 8.434,4.066 l -11.756,14.691 c 1.867,-6.073 3.024,-12.313 3.322,-18.757"
           style="fill:#ed1c24;fill-opacity:1;fill-rule:evenodd;stroke:none"
           id="path454" /><path
           d="m 408.132,350.467 c 2.933,1.104 5.73,2.489 8.434,4.066 l -11.756,14.691 c 1.867,-6.073 3.024,-12.313 3.322,-18.757 z"
           style="fill:none;stroke:#231f20;stroke-width:1.84;stroke-linecap:round;stroke-linejoin:round;stroke-miterlimit:22.926;stroke-dasharray:none;stroke-opacity:1"
           id="path456" /><path
           d="m 424.801,377.021 5.481,3.037 c 1.244,-3.22 3.503,-5.083 5.255,-7.624 l -5.475,-6.578 z"
           style="fill:#ed1c24;fill-opacity:1;fill-rule:evenodd;stroke:none"
           id="path458" /><path
           d="m 424.801,377.021 5.481,3.037 c 1.244,-3.22 3.503,-5.083 5.255,-7.624 l -5.475,-6.578 z"
           style="fill:none;stroke:#231f20;stroke-width:1.84;stroke-linecap:round;stroke-linejoin:round;stroke-miterlimit:22.926;stroke-dasharray:none;stroke-opacity:1"
           id="path460" /><path
           d="m 430.965,380.434 4.814,-7.681 c 4.609,6.049 8.54,12.866 13.583,17.825 z"
           style="fill:#ed1c24;fill-opacity:1;fill-rule:evenodd;stroke:none"
           id="path462" /><path
           d="m 430.965,380.434 4.814,-7.681 c 4.609,6.049 8.54,12.866 13.583,17.825 z"
           style="fill:none;stroke:#231f20;stroke-width:1.84;stroke-linecap:round;stroke-linejoin:round;stroke-miterlimit:22.926;stroke-dasharray:none;stroke-opacity:1"
           id="path464" /></g></g></g></svg>
