<?xml version="1.0" encoding="UTF-8" standalone="no"?>
<svg
   xmlns:dc="http://purl.org/dc/elements/1.1/"
   xmlns:cc="http://creativecommons.org/ns#"
   xmlns:rdf="http://www.w3.org/1999/02/22-rdf-syntax-ns#"
   xmlns:svg="http://www.w3.org/2000/svg"
   xmlns="http://www.w3.org/2000/svg"
   xmlns:xlink="http://www.w3.org/1999/xlink"
   xmlns:sodipodi="http://sodipodi.sourceforge.net/DTD/sodipodi-0.dtd"
   xmlns:inkscape="http://www.inkscape.org/namespaces/inkscape"
   width="50mm"
   height="50mm"
   viewBox="0 0 50 50"
   version="1.1"
   id="svg8"
   inkscape:version="1.0.1 (3bc2e813f5, 2020-09-07)"
   sodipodi:docname="5-6.svg">
  <defs
     id="defs2">
    <radialGradient
       inkscape:collect="always"
       xlink:href="#linearGradient1135"
       id="radialGradient1561-8"
       cx="26.274075"
       cy="14.800471"
       fx="26.274075"
       fy="14.800471"
       r="32.127975"
       gradientTransform="matrix(0.77813809,0,0,0.77813812,-2.9671815,4.4120696)"
       gradientUnits="userSpaceOnUse" />
    <linearGradient
       inkscape:collect="always"
       id="linearGradient1135">
      <stop
         style="stop-color:#ffffff;stop-opacity:1;"
         offset="0"
         id="stop1131" />
      <stop
         style="stop-color:#ffffff;stop-opacity:0;"
         offset="1"
         id="stop1133" />
    </linearGradient>
    <radialGradient
       inkscape:collect="always"
       xlink:href="#linearGradient1135"
       id="radialGradient1561-9-6"
       cx="54.447247"
       cy="49.531189"
       fx="54.447247"
       fy="49.531189"
       r="32.127975"
       gradientTransform="matrix(0.77813809,0,0,0.77813812,-3.3823633,4.4120696)"
       gradientUnits="userSpaceOnUse" />
  </defs>
  <sodipodi:namedview
     id="base"
     pagecolor="#ffffff"
     bordercolor="#666666"
     borderopacity="1.0"
     inkscape:pageopacity="0.0"
     inkscape:pageshadow="2"
     inkscape:zoom="0.98994949"
     inkscape:cx="2.9247058"
     inkscape:cy="154.89275"
     inkscape:document-units="mm"
     inkscape:current-layer="layer1"
     inkscape:document-rotation="0"
     showgrid="false"
     inkscape:window-width="1920"
     inkscape:window-height="1017"
     inkscape:window-x="-8"
     inkscape:window-y="-8"
     inkscape:window-maximized="1" />
  <metadata
     id="metadata5">
    <rdf:RDF>
      <cc:Work
         rdf:about="">
        <dc:format>image/svg+xml</dc:format>
        <dc:type
           rdf:resource="http://purl.org/dc/dcmitype/StillImage" />
        <dc:title></dc:title>
      </cc:Work>
    </rdf:RDF>
  </metadata>
  <g
     inkscape:label="Layer 1"
     inkscape:groupmode="layer"
     id="layer1">
    <path
       id="path833-58"
       style="display:inline;fill:#ffffff;fill-opacity:1;stroke:#000000;stroke-width:0.27064;stroke-opacity:1;paint-order:markers fill stroke"
       d="M 0.80619453,28.553771 1.1808472,28.532578 2.2572675,28.202883 2.7848836,27.851482 2.9383631,27.434454 3.004509,27.038613 2.894437,26.467587 2.4102311,25.735332 1.8180168,25.391168 1.0490715,25.32554 0.55349633,25.38445 a 24.864679,24.864679 0 0 0 0.00672,0.315227 24.86468,24.86468 0 0 0 0.00265,0.07855 24.864679,24.864679 0 0 0 0.1741514,2.257225 24.864679,24.864679 0 0 0 0.069247,0.518317 z" />
    <path
       id="path1256"
       style="display:inline;fill:#000000;fill-opacity:1;stroke:#000000;stroke-width:0.27064;stroke-opacity:1;paint-order:markers fill stroke"
       d="m 1.3854866,31.387707 0.037206,5.29e-4 1.252122,-0.04393 0.9007184,-0.175699 0.9446445,-0.263549 0.8785014,-0.5271 0.54932,-0.461471 0.5053965,-0.746725 0.3513984,-0.966864 0.1095534,-0.922425 0.022225,-0.637172 -0.1317758,-0.746722 -0.241845,-0.7028 L 6.0580705,24.468761 5.3769775,23.831592 4.3444807,23.260568 3.0262154,22.997017 H 1.7084661 l -0.85679497,0.131775 -0.022225,-0.54932 0.1100693,-0.702799 L 1.0712912,21.657047 1.88416,21.546978 5.2451964,21.766601 5.4425994,21.195577 5.640521,18.998813 5.5087452,18.691338 1.3679129,18.677898 a 24.864679,24.864679 0 0 0 -0.052192,0.20102 24.864679,24.864679 0 0 0 -0.51211427,2.584339 24.864679,24.864679 0 0 0 -0.1731169,1.546675 24.86468,24.86468 0 0 0 -0.023257,0.31006 24.864679,24.864679 0 0 0 -0.056843,1.680001 24.864679,24.864679 0 0 0 0.0031,0.384471 l 0.49557517,-0.05891 0.7689453,0.06563 0.5922143,0.344165 0.4842059,0.732254 0.110072,0.571026 -0.066146,0.395841 -0.1534795,0.417028 -0.5276162,0.351401 -1.0764202,0.329695 -0.37465267,0.02119 a 24.864679,24.864679 0 0 0 0.00775,0.05219 h 0.00466 l 0.21962547,0.219627 -0.10335417,0.526584 a 24.864679,24.864679 0 0 0 0.30230757,1.450557 24.864679,24.864679 0 0 0 0.061495,0.249079 24.864679,24.864679 0 0 0 0.079065,0.307475 24.864679,24.864679 0 0 0 0.00775,0.02842 z" />
    <path
       id="path1254"
       style="display:inline;fill:#ffffff;fill-opacity:1;stroke:#000000;stroke-width:0.27064;stroke-opacity:1;paint-order:markers fill stroke"
       d="m 2.3952451,15.602108 a 24.864679,24.864679 0 0 0 -0.8319929,2.376599 24.864679,24.864679 0 0 0 -0.083198,0.287319 24.864679,24.864679 0 0 0 -0.1121383,0.411863 l 4.1408323,0.01344 0.1317757,0.307475 -0.1979215,2.196764 -0.197403,0.571024 -3.3610364,-0.219623 -0.8128688,0.11007 -0.13177577,0.219625 -0.1100693,0.702799 0.022225,0.54932 0.85679487,-0.131775 h 1.3177493 l 1.3182653,0.263551 1.0324968,0.571024 0.6810931,0.637169 0.5048805,0.725022 0.2418451,0.7028 0.1317757,0.746722 -0.022225,0.637172 -0.1095534,0.922425 -0.3513984,0.966864 -0.5053965,0.746725 -0.54932,0.461471 -0.8785013,0.5271 -0.9446445,0.263549 -0.9007184,0.175699 -1.2521221,0.04393 -0.037206,-5.29e-4 a 24.864679,24.864679 0 0 0 0.9177735,2.781742 9.8315486,9.8315486 0 0 0 0.1178216,-0.04134 9.8315486,9.8315486 0 0 0 0.1276403,-0.04599 9.8315486,9.8315486 0 0 0 0.1266083,-0.04857 9.8315486,9.8315486 0 0 0 0.1260898,-0.05013 9.8315486,9.8315486 0 0 0 0.125058,-0.05168 9.8315486,9.8315486 0 0 0 0.1250553,-0.05323 9.8315486,9.8315486 0 0 0 0.1235075,-0.0553 9.8315486,9.8315486 0 0 0 0.1235075,-0.05684 9.8315486,9.8315486 0 0 0 0.1219571,-0.05839 9.8315486,9.8315486 0 0 0 0.1214384,-0.06046 9.8315486,9.8315486 0 0 0 0.1209225,-0.06201 9.8315486,9.8315486 0 0 0 0.1198907,-0.06356 9.8315486,9.8315486 0 0 0 0.1188535,-0.06511 9.8315486,9.8315486 0 0 0 0.1178242,-0.06667 9.8315486,9.8315486 0 0 0 0.1173057,-0.06873 9.8315486,9.8315486 0 0 0 0.1157552,-0.06976 9.8315486,9.8315486 0 0 0 0.1152366,-0.07183 9.8315486,9.8315486 0 0 0 0.1142048,-0.07338 9.8315486,9.8315486 0 0 0 0.1131728,-0.07493 9.8315486,9.8315486 0 0 0 0.1121384,-0.07648 9.8315486,9.8315486 0 0 0 0.1111038,-0.07751 9.8315486,9.8315486 0 0 0 0.1095534,-0.07958 9.8315486,9.8315486 0 0 0 0.1090374,-0.08113 9.8315486,9.8315486 0 0 0 0.107487,-0.08216 9.8315486,9.8315486 0 0 0 0.1064525,-0.08423 9.8315486,9.8315486 0 0 0 0.1054206,-0.08527 9.8315486,9.8315486 0 0 0 0.104386,-0.08682 9.8315486,9.8315486 0 0 0 0.1028356,-0.08837 9.8315486,9.8315486 0 0 0 0.1018038,-0.0894 9.8315486,9.8315486 0 0 0 0.1007692,-0.09147 9.8315486,9.8315486 0 0 0 0.099219,-0.09199 9.8315486,9.8315486 0 0 0 0.097668,-0.09405 9.8315486,9.8315486 0 0 0 0.096634,-0.09508 9.8315486,9.8315486 0 0 0 0.095602,-0.09664 9.8315486,9.8315486 0 0 0 0.093535,-0.09767 9.8315486,9.8315486 0 0 0 0.093017,-0.09922 9.8315486,9.8315486 0 0 0 0.09095,-0.10025 9.8315486,9.8315486 0 0 0 0.089916,-0.101288 9.8315486,9.8315486 0 0 0 0.088368,-0.102836 9.8315486,9.8315486 0 0 0 0.087334,-0.104386 9.8315486,9.8315486 0 0 0 0.085265,-0.104902 9.8315486,9.8315486 0 0 0 0.084233,-0.106455 9.8315486,9.8315486 0 0 0 0.082682,-0.107487 9.8315486,9.8315486 0 0 0 0.081132,-0.109037 9.8315486,9.8315486 0 0 0 0.079581,-0.109554 9.8315486,9.8315486 0 0 0 0.078034,-0.110588 9.8315486,9.8315486 0 0 0 0.076996,-0.112138 9.8315486,9.8315486 0 0 0 0.07493,-0.11317 9.8315486,9.8315486 0 0 0 0.073382,-0.113689 9.8315486,9.8315486 0 0 0 0.071829,-0.115239 9.8315486,9.8315486 0 0 0 0.070281,-0.115756 9.8315486,9.8315486 0 0 0 0.068728,-0.117303 9.8315486,9.8315486 0 0 0 0.06718,-0.117824 9.8315486,9.8315486 0 0 0 0.065111,-0.118856 9.8315486,9.8315486 0 0 0 0.064079,-0.119372 9.8315486,9.8315486 0 0 0 0.062013,-0.120407 9.8315486,9.8315486 0 0 0 0.06046,-0.121438 9.8315486,9.8315486 0 0 0 0.058912,-0.122473 9.8315486,9.8315486 0 0 0 0.056843,-0.122989 9.8315486,9.8315486 0 0 0 0.055811,-0.123507 9.8315486,9.8315486 0 0 0 0.053226,-0.12454 9.8315486,9.8315486 0 0 0 0.052194,-0.125574 9.8315486,9.8315486 0 0 0 0.050125,-0.126092 9.8315486,9.8315486 0 0 0 0.048575,-0.126606 9.8315486,9.8315486 0 0 0 0.046508,-0.127124 9.8315486,9.8315486 0 0 0 0.044961,-0.128159 9.8315486,9.8315486 0 0 0 0.043408,-0.128672 9.8315486,9.8315486 0 0 0 0.041341,-0.128675 9.8315486,9.8315486 0 0 0 0.039791,-0.12971 9.8315486,9.8315486 0 0 0 0.037724,-0.130222 9.8315486,9.8315486 0 0 0 0.036174,-0.130741 9.8315486,9.8315486 0 0 0 0.034105,-0.13126 9.8315486,9.8315486 0 0 0 0.032557,-0.131773 9.8315486,9.8315486 0 0 0 0.030488,-0.132292 9.8315486,9.8315486 0 0 0 0.02894,-0.132292 9.8315486,9.8315486 0 0 0 0.026871,-0.133326 9.8315486,9.8315486 0 0 0 0.024791,-0.133326 9.8315486,9.8315486 0 0 0 0.023786,-0.133323 9.8315486,9.8315486 0 0 0 0.021193,-0.133842 9.8315486,9.8315486 0 0 0 0.019632,-0.13436 9.8315486,9.8315486 0 0 0 0.017568,-0.134358 9.8315486,9.8315486 0 0 0 0.016007,-0.134874 9.8315486,9.8315486 0 0 0 0.013944,-0.134877 9.8315486,9.8315486 0 0 0 0.01188,-0.134874 9.8315486,9.8315486 0 0 0 0.010345,-0.135393 9.8315486,9.8315486 0 0 0 0.00878,-0.135392 9.8315486,9.8315486 0 0 0 0.00619,-0.135393 9.8315486,9.8315486 0 0 0 0.00466,-0.135392 9.8315486,9.8315486 0 0 0 0.0031,-0.135909 9.8315486,9.8315486 0 0 0 0.00106,-0.135392 9.8315486,9.8315486 0 0 0 -0.00106,-0.117822 9.8315486,9.8315486 0 0 0 -0.00265,-0.135911 9.8315486,9.8315486 0 0 0 -0.00413,-0.13539 9.8315486,9.8315486 0 0 0 -0.00619,-0.135393 9.8315486,9.8315486 0 0 0 -0.00826,-0.135392 9.8315486,9.8315486 0 0 0 -0.010345,-0.135393 9.8315486,9.8315486 0 0 0 -0.01188,-0.134877 9.8315486,9.8315486 0 0 0 -0.013429,-0.13488 A 9.8315486,9.8315486 0 0 0 8.8717979,23.669823 9.8315486,9.8315486 0 0 0 8.8547322,23.535465 9.8315486,9.8315486 0 0 0 8.8351001,23.401107 9.8315486,9.8315486 0 0 0 8.813907,23.267265 9.8315486,9.8315486 0 0 0 8.7911793,23.133422 9.8315486,9.8315486 0 0 0 8.7658587,23.000096 9.8315486,9.8315486 0 0 0 8.7395062,22.867289 9.8315486,9.8315486 0 0 0 8.7110846,22.734481 9.8315486,9.8315486 0 0 0 8.6805941,22.602189 9.8315486,9.8315486 0 0 0 8.6485557,22.47093 9.8315486,9.8315486 0 0 0 8.6144482,22.339157 9.8315486,9.8315486 0 0 0 8.578277,22.208415 9.8315486,9.8315486 0 0 0 8.5410687,22.07819 9.8315486,9.8315486 0 0 0 8.501278,21.948481 9.8315486,9.8315486 0 0 0 8.4604528,21.81929 9.8315486,9.8315486 0 0 0 8.4175612,21.690615 9.8315486,9.8315486 0 0 0 8.3726032,21.562459 9.8315486,9.8315486 0 0 0 8.3260947,21.435335 9.8315486,9.8315486 0 0 0 8.2780358,21.30821 9.8315486,9.8315486 0 0 0 8.2279105,21.182636 9.8315486,9.8315486 0 0 0 8.1762321,21.057062 9.8315486,9.8315486 0 0 0 8.1224899,20.932523 9.8315486,9.8315486 0 0 0 8.0677132,20.8085 9.8315486,9.8315486 0 0 0 8.0103516,20.685511 9.8315486,9.8315486 0 0 0 7.951958,20.563038 9.8315486,9.8315486 0 0 0 7.892014,20.441597 9.8315486,9.8315486 0 0 0 7.830001,20.320674 9.8315486,9.8315486 0 0 0 7.76644,20.201302 9.8315486,9.8315486 0 0 0 7.70081,20.08193 9.8315486,9.8315486 0 0 0 7.634148,19.964106 9.8315486,9.8315486 0 0 0 7.565933,19.847319 9.8315486,9.8315486 0 0 0 7.495654,19.731045 9.8315486,9.8315486 0 0 0 7.423822,19.615808 9.8315486,9.8315486 0 0 0 7.350442,19.501603 9.8315486,9.8315486 0 0 0 7.276028,19.388431 9.8315486,9.8315486 0 0 0 7.199548,19.276811 9.8315486,9.8315486 0 0 0 7.121517,19.165707 9.8315486,9.8315486 0 0 0 7.041936,19.055635 9.8315486,9.8315486 0 0 0 6.96132,18.946598 9.8315486,9.8315486 0 0 0 6.878638,18.839111 9.8315486,9.8315486 0 0 0 6.794921,18.732658 9.8315486,9.8315486 0 0 0 6.709138,18.627238 9.8315486,9.8315486 0 0 0 6.622323,18.522852 9.8315486,9.8315486 0 0 0 6.534473,18.420016 9.8315486,9.8315486 0 0 0 6.444554,18.318212 9.8315486,9.8315486 0 0 0 6.353603,18.217959 9.8315486,9.8315486 0 0 0 6.261102,18.118739 9.8315486,9.8315486 0 0 0 6.167051,18.020559 9.8315486,9.8315486 0 0 0 6.071968,17.923929 9.8315486,9.8315486 0 0 0 5.97585,17.828839 a 9.8315486,9.8315486 0 0 0 -0.098187,-0.09405 9.8315486,9.8315486 0 0 0 -0.0987,-0.0925 9.8315486,9.8315486 0 0 0 -0.1002537,-0.09147 9.8315486,9.8315486 0 0 0 -0.101801,-0.08992 9.8315486,9.8315486 0 0 0 -0.1028367,-0.08837 9.8315486,9.8315486 0 0 0 -0.1038675,-0.08682 9.8315486,9.8315486 0 0 0 -0.1054206,-0.08578 9.8315486,9.8315486 0 0 0 -0.1064551,-0.08423 9.8315486,9.8315486 0 0 0 -0.1074869,-0.08268 9.8315486,9.8315486 0 0 0 -0.1085189,-0.08113 9.8315486,9.8315486 0 0 0 -0.1095534,-0.07958 9.8315486,9.8315486 0 0 0 -0.1111064,-0.07803 9.8315486,9.8315486 0 0 0 -0.1121358,-0.07648 9.8315486,9.8315486 0 0 0 -0.1126569,-0.07493 9.8315486,9.8315486 0 0 0 -0.1142047,-0.0739 9.8315486,9.8315486 0 0 0 -0.1147207,-0.07183 9.8315486,9.8315486 0 0 0 -0.1162712,-0.07028 9.8315486,9.8315486 0 0 0 -0.1167897,-0.06873 9.8315486,9.8315486 0 0 0 -0.1178216,-0.06666 9.8315486,9.8315486 0 0 0 -0.1188561,-0.06563 9.8315486,9.8315486 0 0 0 -0.1198907,-0.06408 9.8315486,9.8315486 0 0 0 -0.1204039,-0.06201 9.8315486,9.8315486 0 0 0 -0.1214411,-0.06046 9.8315486,9.8315486 0 0 0 -0.1219571,-0.05891 9.8315486,9.8315486 0 0 0 -0.1229889,-0.05684 9.8315486,9.8315486 0 0 0 -0.1240234,-0.0553 9.8315486,9.8315486 0 0 0 -0.1245394,-0.05374 9.8315486,9.8315486 0 0 0 -0.125058,-0.05219 9.8315486,9.8315486 0 0 0 -0.1260898,-0.05012 9.8315486,9.8315486 0 0 0 -0.1266084,-0.04857 9.8315486,9.8315486 0 0 0 -0.1276402,-0.04651 9.8315486,9.8315486 0 0 0 -0.042373,-0.01497 z" />
    <path
       id="path1168"
       style="display:inline;fill:#ffffff;fill-opacity:1;stroke:#000000;stroke-width:0.27064;stroke-opacity:1;paint-order:markers fill stroke"
       d="M 0.93486673,29.352172 1.0382209,28.825588 0.81859563,28.605963 h -0.00466 a 24.86468,24.86468 0 0 0 0.1209225,0.746209 z" />
    <path
       id="path1141"
       style="display:inline;fill:#fd682b;fill-opacity:1;stroke:#000000;stroke-width:0.27064;stroke-opacity:1;paint-order:markers fill stroke"
       d="M 25.396426,0.13546079 A 24.864681,24.864681 0 0 0 2.3952476,15.602221 a 9.8315486,9.8315486 0 0 1 0.04237,0.015 9.8315486,9.8315486 0 0 1 0.127641,0.0465 9.8315486,9.8315486 0 0 1 0.126606,0.0486 9.8315486,9.8315486 0 0 1 0.126092,0.0501 9.8315486,9.8315486 0 0 1 0.125055,0.0522 9.8315486,9.8315486 0 0 1 0.124542,0.0537 9.8315486,9.8315486 0 0 1 0.124024,0.0553 9.8315486,9.8315486 0 0 1 0.1229889,0.0568 9.8315486,9.8315486 0 0 1 0.1219571,0.0589 9.8315486,9.8315486 0 0 1 0.1214379,0.0605 9.8315486,9.8315486 0 0 1 0.1204071,0.062 9.8315486,9.8315486 0 0 1 0.119888,0.0641 9.8315486,9.8315486 0 0 1 0.1188561,0.0656 9.8315486,9.8315486 0 0 1 0.117824,0.0667 9.8315486,9.8315486 0 0 1 0.1167868,0.0687 9.8315486,9.8315486 0 0 1 0.1162741,0.0703 9.8315486,9.8315486 0 0 1 0.1147209,0.0718 9.8315486,9.8315486 0 0 1 0.114204,0.0739 9.8315486,9.8315486 0 0 1 0.1126551,0.0749 9.8315486,9.8315486 0 0 1 0.1121381,0.0765 9.8315486,9.8315486 0 0 1 0.1111038,0.078 9.8315486,9.8315486 0 0 1 0.1095531,0.0796 9.8315486,9.8315486 0 0 1 0.108522,0.0811 9.8315486,9.8315486 0 0 1 0.107487,0.0827 9.8315486,9.8315486 0 0 1 0.1064519,0.0842 9.8315486,9.8315486 0 0 1 0.1054212,0.0858 9.8315486,9.8315486 0 0 1 0.1038698,0.0868 9.8315486,9.8315486 0 0 1 0.1028362,0.0884 9.8315486,9.8315486 0 0 1 0.1018029,0.0899 9.8315486,9.8315486 0 0 1 0.1002511,0.0915 9.8315486,9.8315486 0 0 1 0.0987,0.0925 9.8315486,9.8315486 0 0 1 0.09818,0.094 9.8315486,9.8315486 0 0 1 0.09612,0.0951 9.8315486,9.8315486 0 0 1 0.09509,0.0966 9.8315486,9.8315486 0 0 1 0.09405,0.0982 9.8315486,9.8315486 0 0 1 0.0925,0.0992 9.8315486,9.8315486 0 0 1 0.09095,0.10025 9.8315486,9.8315486 0 0 1 0.08992,0.10181 9.8315486,9.8315486 0 0 1 0.08785,0.102831 9.8315486,9.8315486 0 0 1 0.08682,0.104389 9.8315486,9.8315486 0 0 1 0.08578,0.10542 9.8315486,9.8315486 0 0 1 0.08371,0.10645 9.8315486,9.8315486 0 0 1 0.08268,0.10749 9.8315486,9.8315486 0 0 1 0.08062,0.10904 9.8315486,9.8315486 0 0 1 0.07958,0.11007 9.8315486,9.8315486 0 0 1 0.07803,0.1111 9.8315486,9.8315486 0 0 1 0.07648,0.11162 9.8315486,9.8315486 0 0 1 0.07441,0.11317 9.8315486,9.8315486 0 0 1 0.07338,0.11421 9.8315486,9.8315486 0 0 1 0.07183,0.11524 9.8315486,9.8315486 0 0 1 0.07028,0.116271 9.8315486,9.8315486 0 0 1 0.06821,0.11679 9.8315486,9.8315486 0 0 1 0.06666,0.117819 9.8315486,9.8315486 0 0 1 0.06563,0.11937 9.8315486,9.8315486 0 0 1 0.06356,0.11938 9.8315486,9.8315486 0 0 1 0.06201,0.12092 9.8315486,9.8315486 0 0 1 0.05994,0.12144 9.8315486,9.8315486 0 0 1 0.0584,0.12247 9.8315486,9.8315486 0 0 1 0.05736,0.12299 9.8315486,9.8315486 0 0 1 0.05478,0.124031 9.8315486,9.8315486 0 0 1 0.05374,0.124529 9.8315486,9.8315486 0 0 1 0.05168,0.12558 9.8315486,9.8315486 0 0 1 0.05013,0.125571 9.8315486,9.8315486 0 0 1 0.04806,0.127129 9.8315486,9.8315486 0 0 1 0.04651,0.12712 9.8315486,9.8315486 0 0 1 0.04496,0.128161 9.8315486,9.8315486 0 0 1 0.04289,0.12867 9.8315486,9.8315486 0 0 1 0.04082,0.12919 9.8315486,9.8315486 0 0 1 0.03979,0.129709 9.8315486,9.8315486 0 0 1 0.03721,0.13022 9.8315486,9.8315486 0 0 1 0.03617,0.130751 9.8315486,9.8315486 0 0 1 0.03411,0.131769 9.8315486,9.8315486 0 0 1 0.03204,0.131261 9.8315486,9.8315486 0 0 1 0.03049,0.132289 9.8315486,9.8315486 0 0 1 0.02842,0.13281 9.8315486,9.8315486 0 0 1 0.02635,0.132811 9.8315486,9.8315486 0 0 1 0.025321,0.133319 9.8315486,9.8315486 0 0 1 0.02273,0.13385 9.8315486,9.8315486 0 0 1 0.02119,0.13384 9.8315486,9.8315486 0 0 1 0.019629,0.13436 9.8315486,9.8315486 0 0 1 0.017071,0.134351 9.8315486,9.8315486 0 0 1 0.01601,0.134879 9.8315486,9.8315486 0 0 1 0.013441,0.13488 9.8315486,9.8315486 0 0 1 0.01188,0.13487 9.8315486,9.8315486 0 0 1 0.01035,0.13539 9.8315486,9.8315486 0 0 1 0.0083,0.135391 9.8315486,9.8315486 0 0 1 0.0062,0.1354 9.8315486,9.8315486 0 0 1 0.0041,0.13539 9.8315486,9.8315486 0 0 1 0.00259,0.135909 9.8315486,9.8315486 0 0 1 0.00111,0.11782 9.8315486,9.8315486 0 0 1 -0.00111,0.1354 9.8315486,9.8315486 0 0 1 -0.0031,0.1359 9.8315486,9.8315486 0 0 1 -0.0047,0.1354 9.8315486,9.8315486 0 0 1 -0.0062,0.13539 9.8315486,9.8315486 0 0 1 -0.0088,0.135391 9.8315486,9.8315486 0 0 1 -0.010351,0.135389 9.8315486,9.8315486 0 0 1 -0.01188,0.134881 9.8315486,9.8315486 0 0 1 -0.013941,0.134869 9.8315486,9.8315486 0 0 1 -0.01601,0.13488 9.8315486,9.8315486 0 0 1 -0.017571,0.134361 9.8315486,9.8315486 0 0 1 -0.01963,0.134349 9.8315486,9.8315486 0 0 1 -0.02119,0.133852 9.8315486,9.8315486 0 0 1 -0.02376,0.133318 9.8315486,9.8315486 0 0 1 -0.024789,0.133332 9.8315486,9.8315486 0 0 1 -0.02687,0.133318 9.8315486,9.8315486 0 0 1 -0.02894,0.132292 9.8315486,9.8315486 0 0 1 -0.03049,0.132299 9.8315486,9.8315486 0 0 1 -0.03255,0.131771 9.8315486,9.8315486 0 0 1 -0.03411,0.13126 9.8315486,9.8315486 0 0 1 -0.03617,0.130738 9.8315486,9.8315486 0 0 1 -0.03772,0.130231 9.8315486,9.8315486 0 0 1 -0.03979,0.129701 9.8315486,9.8315486 0 0 1 -0.04134,0.12868 9.8315486,9.8315486 0 0 1 -0.04341,0.12867 9.8315486,9.8315486 0 0 1 -0.04496,0.128159 9.8315486,9.8315486 0 0 1 -0.04651,0.127129 9.8315486,9.8315486 0 0 1 -0.04858,0.126601 9.8315486,9.8315486 0 0 1 -0.05013,0.12609 9.8315486,9.8315486 0 0 1 -0.05219,0.125571 9.8315486,9.8315486 0 0 1 -0.05323,0.12455 9.8315486,9.8315486 0 0 1 -0.05581,0.123499 9.8315486,9.8315486 0 0 1 -0.05684,0.122989 9.8315486,9.8315486 0 0 1 -0.05891,0.122481 9.8315486,9.8315486 0 0 1 -0.06046,0.121431 9.8315486,9.8315486 0 0 1 -0.06201,0.120409 9.8315486,9.8315486 0 0 1 -0.06408,0.119369 9.8315486,9.8315486 0 0 1 -0.06511,0.118862 9.8315486,9.8315486 0 0 1 -0.06718,0.117819 9.8315486,9.8315486 0 0 1 -0.06873,0.117311 9.8315486,9.8315486 0 0 1 -0.07028,0.11575 9.8315486,9.8315486 0 0 1 -0.07183,0.115239 9.8315486,9.8315486 0 0 1 -0.07338,0.113691 9.8315486,9.8315486 0 0 1 -0.07493,0.113171 9.8315486,9.8315486 0 0 1 -0.077,0.112138 9.8315486,9.8315486 0 0 1 -0.07803,0.11059 9.8315486,9.8315486 0 0 1 -0.07958,0.109551 9.8315486,9.8315486 0 0 1 -0.08113,0.10904 9.8315486,9.8315486 0 0 1 -0.08268,0.107479 9.8315486,9.8315486 0 0 1 -0.08423,0.106461 9.8315486,9.8315486 0 0 1 -0.08527,0.104899 9.8315486,9.8315486 0 0 1 -0.08733,0.104391 9.8315486,9.8315486 0 0 1 -0.08836,0.102828 9.8315486,9.8315486 0 0 1 -0.08992,0.101291 9.8315486,9.8315486 0 0 1 -0.09095,0.10025 9.8315486,9.8315486 0 0 1 -0.09302,0.0992 9.8315486,9.8315486 0 0 1 -0.09353,0.0977 9.8315486,9.8315486 0 0 1 -0.0956,0.0966 9.8315486,9.8315486 0 0 1 -0.09664,0.0951 9.8315486,9.8315486 0 0 1 -0.09767,0.094 9.8315486,9.8315486 0 0 1 -0.09922,0.092 9.8315486,9.8315486 0 0 1 -0.1007689,0.0915 9.8315486,9.8315486 0 0 1 -0.1018011,0.0894 9.8315486,9.8315486 0 0 1 -0.1028359,0.0884 9.8315486,9.8315486 0 0 1 -0.1043861,0.0868 9.8315486,9.8315486 0 0 1 -0.10542,0.0853 9.8315486,9.8315486 0 0 1 -0.106453,0.0842 9.8315486,9.8315486 0 0 1 -0.1074891,0.0822 9.8315486,9.8315486 0 0 1 -0.1090348,0.0811 9.8315486,9.8315486 0 0 1 -0.109556,0.0796 9.8315486,9.8315486 0 0 1 -0.1111041,0.0775 9.8315486,9.8315486 0 0 1 -0.1121381,0.0765 9.8315486,9.8315486 0 0 1 -0.11317,0.0749 9.8315486,9.8315486 0 0 1 -0.114205,0.0734 9.8315486,9.8315486 0 0 1 -0.1152398,0.0718 9.8315486,9.8315486 0 0 1 -0.1157552,0.0698 9.8315486,9.8315486 0 0 1 -0.1173048,0.0687 9.8315486,9.8315486 0 0 1 -0.1178222,0.0667 9.8315486,9.8315486 0 0 1 -0.1188558,0.0651 9.8315486,9.8315486 0 0 1 -0.119888,0.0636 9.8315486,9.8315486 0 0 1 -0.1209252,0.062 9.8315486,9.8315486 0 0 1 -0.121439,0.0605 9.8315486,9.8315486 0 0 1 -0.1219568,0.0584 9.8315486,9.8315486 0 0 1 -0.1235051,0.0568 9.8315486,9.8315486 0 0 1 -0.123507,0.0553 9.8315486,9.8315486 0 0 1 -0.1250579,0.0532 9.8315486,9.8315486 0 0 1 -0.1250551,0.0517 9.8315486,9.8315486 0 0 1 -0.126093,0.0501 9.8315486,9.8315486 0 0 1 -0.126606,0.0486 9.8315486,9.8315486 0 0 1 -0.12764,0.046 9.8315486,9.8315486 0 0 1 -0.117824,0.0413 A 24.864681,24.864681 0 0 0 25.415023,49.865106 24.864681,24.864681 0 0 0 50.279651,24.999961 24.864681,24.864681 0 0 0 25.415023,0.13531999 a 24.864681,24.864681 0 0 0 -0.0186,0 z" />
    <circle
       style="display:inline;opacity:0.88141;mix-blend-mode:normal;fill:url(#radialGradient1561-8);fill-opacity:1;stroke:none;stroke-width:0.212909;stroke-opacity:1;paint-order:markers fill stroke"
       id="path1129-2"
       cx="25.415176"
       cy="25.00032"
       r="25" />
    <circle
       style="display:inline;opacity:0.88141;mix-blend-mode:normal;fill:url(#radialGradient1561-9-6);fill-opacity:1;stroke:none;stroke-width:0.212909;stroke-opacity:1;paint-order:markers fill stroke"
       id="path1129-9-74"
       cx="25"
       cy="25.00032"
       r="25" />
  </g>
</svg>
