<?xml version="1.0" encoding="UTF-8" standalone="no"?>
<svg
   xmlns:dc="http://purl.org/dc/elements/1.1/"
   xmlns:cc="http://creativecommons.org/ns#"
   xmlns:rdf="http://www.w3.org/1999/02/22-rdf-syntax-ns#"
   xmlns:svg="http://www.w3.org/2000/svg"
   xmlns="http://www.w3.org/2000/svg"
   xmlns:xlink="http://www.w3.org/1999/xlink"
   xmlns:sodipodi="http://sodipodi.sourceforge.net/DTD/sodipodi-0.dtd"
   xmlns:inkscape="http://www.inkscape.org/namespaces/inkscape"
   width="50mm"
   height="50mm"
   viewBox="0 0 50 50"
   version="1.1"
   id="svg8"
   inkscape:version="1.0.1 (3bc2e813f5, 2020-09-07)"
   sodipodi:docname="9-1.svg">
  <defs
     id="defs2">
    <radialGradient
       inkscape:collect="always"
       xlink:href="#linearGradient1135"
       id="radialGradient1561"
       cx="26.274075"
       cy="14.800471"
       fx="26.274075"
       fy="14.800471"
       r="32.127975"
       gradientTransform="matrix(0.77813809,0,0,0.77813812,-3.3823611,4.4117587)"
       gradientUnits="userSpaceOnUse" />
    <linearGradient
       inkscape:collect="always"
       id="linearGradient1135">
      <stop
         style="stop-color:#ffffff;stop-opacity:1;"
         offset="0"
         id="stop1131" />
      <stop
         style="stop-color:#ffffff;stop-opacity:0;"
         offset="1"
         id="stop1133" />
    </linearGradient>
    <radialGradient
       inkscape:collect="always"
       xlink:href="#linearGradient1135"
       id="radialGradient1561-9"
       cx="54.447247"
       cy="49.531189"
       fx="54.447247"
       fy="49.531189"
       r="32.127975"
       gradientTransform="matrix(0.77813809,0,0,0.77813812,-3.3823588,4.4117587)"
       gradientUnits="userSpaceOnUse" />
  </defs>
  <sodipodi:namedview
     id="base"
     pagecolor="#ffffff"
     bordercolor="#666666"
     borderopacity="1.0"
     inkscape:pageopacity="0.0"
     inkscape:pageshadow="2"
     inkscape:zoom="0.98994949"
     inkscape:cx="2.9247058"
     inkscape:cy="154.89275"
     inkscape:document-units="mm"
     inkscape:current-layer="layer1"
     inkscape:document-rotation="0"
     showgrid="false"
     inkscape:window-width="1920"
     inkscape:window-height="1017"
     inkscape:window-x="-8"
     inkscape:window-y="-8"
     inkscape:window-maximized="1" />
  <metadata
     id="metadata5">
    <rdf:RDF>
      <cc:Work
         rdf:about="">
        <dc:format>image/svg+xml</dc:format>
        <dc:type
           rdf:resource="http://purl.org/dc/dcmitype/StillImage" />
        <dc:title />
      </cc:Work>
    </rdf:RDF>
  </metadata>
  <g
     inkscape:label="Layer 1"
     inkscape:groupmode="layer"
     id="layer1">
    <path
       id="path833"
       style="display:inline;fill:#ffffff;fill-opacity:1;stroke:#000000;stroke-width:0.27064;stroke-opacity:1;paint-order:markers fill stroke"
       d="M 42.294148,42.864655 H 7.7055618 a 24.864679,24.864679 0 0 0 17.2945502,7.000092 24.864679,24.864679 0 0 0 17.294036,-7.000092 z" />
    <path
       id="path904"
       style="display:inline;fill:#e6b242;fill-opacity:1;stroke:#000000;stroke-width:0.27064;stroke-opacity:1;paint-order:markers fill stroke"
       d="M 42.294666,7.1355707 H 7.705045 A 24.864679,24.864679 0 0 0 0.13548123,25.000112 24.864679,24.864679 0 0 0 7.7055618,42.864655 H 42.294148 A 24.864679,24.864679 0 0 0 49.864747,25.000112 24.864679,24.864679 0 0 0 42.294666,7.1355707 Z" />
    <path
       id="path902"
       style="display:inline;fill:#ffffff;fill-opacity:1;stroke:#000000;stroke-width:0.27064;stroke-opacity:1;paint-order:markers fill stroke"
       d="M 24.980993,0.13548123 A 24.864679,24.864679 0 0 0 7.705045,7.1355707 h 34.589621 a 24.864679,24.864679 0 0 0 -17.294554,-7.00008947 24.864679,24.864679 0 0 0 -0.01913,0 z" />
    <circle
       style="display:inline;fill:#ffffff;fill-opacity:1;stroke:#000000;stroke-width:0.336905;stroke-opacity:1;paint-order:markers fill stroke"
       id="path891"
       cx="25"
       cy="23.887001"
       r="9.8315487" />
    <g
       aria-label="9"
       id="text1149"
       style="font-style:normal;font-variant:normal;font-weight:normal;font-stretch:normal;font-size:20.8139px;line-height:1.25;font-family:'Berlin Sans FB Demi';-inkscape-font-specification:'Berlin Sans FB Demi';display:inline;stroke-width:0.264583">
      <path
         d="m 30.998842,21.560948 q 0,3.333476 -2.479781,5.376247 -2.317172,1.910651 -5.72179,1.910651 -0.203261,0 -0.315054,-0.274402 -0.721576,-1.768369 -0.721576,-2.296847 0,-0.325217 0.477663,-0.325217 3.252172,0 4.217661,-1.666738 0.132119,-0.223587 0.132119,-0.325217 0,-0.06098 -0.06098,-0.06098 -0.05082,0 -0.23375,0.0813 -0.853695,0.396358 -1.930977,0.396358 -1.778532,0 -2.906629,-1.056956 -1.158586,-1.067119 -1.158586,-2.835487 0,-2.296846 1.534619,-3.526574 1.402499,-1.13826 3.75016,-1.13826 2.530597,0 4.004237,1.626086 1.412662,1.565108 1.412662,4.11603 z m -3.811139,-0.975652 q 0,-0.77239 -0.43701,-1.321194 -0.477663,-0.59962 -1.229728,-0.59962 -1.687064,0 -1.687064,1.768369 0,0.721575 0.457337,1.209401 0.457336,0.477663 1.168749,0.477663 0.721576,0 1.209401,-0.396358 0.518315,-0.437011 0.518315,-1.138261 z"
         style="font-style:normal;font-variant:normal;font-weight:normal;font-stretch:normal;font-size:20.8139px;font-family:'Berlin Sans FB Demi';-inkscape-font-specification:'Berlin Sans FB Demi';stroke-width:0.264583"
         id="path844" />
    </g>
    <rect
       style="display:inline;opacity:1;fill:#000101;fill-opacity:1;stroke:#000000;stroke-width:0.260045;stroke-opacity:1;paint-order:markers fill stroke"
       id="rect1007"
       width="9.0833836"
       height="1.5238602"
       x="20.586285"
       y="29.468727" />
    <circle
       style="display:inline;opacity:0.88141;mix-blend-mode:normal;fill:url(#radialGradient1561);fill-opacity:1;stroke:none;stroke-width:0.212909;stroke-opacity:1;paint-order:markers fill stroke"
       id="path1129"
       cx="25"
       cy="25"
       r="25" />
    <circle
       style="display:inline;opacity:0.88141;mix-blend-mode:normal;fill:url(#radialGradient1561-9);fill-opacity:1;stroke:none;stroke-width:0.212909;stroke-opacity:1;paint-order:markers fill stroke"
       id="path1129-9"
       cx="25"
       cy="25"
       r="25" />
  </g>
</svg>
