<?xml version="1.0" encoding="UTF-8" standalone="no"?>
<svg
   xmlns:dc="http://purl.org/dc/elements/1.1/"
   xmlns:cc="http://creativecommons.org/ns#"
   xmlns:rdf="http://www.w3.org/1999/02/22-rdf-syntax-ns#"
   xmlns:svg="http://www.w3.org/2000/svg"
   xmlns="http://www.w3.org/2000/svg"
   xmlns:xlink="http://www.w3.org/1999/xlink"
   xmlns:sodipodi="http://sodipodi.sourceforge.net/DTD/sodipodi-0.dtd"
   xmlns:inkscape="http://www.inkscape.org/namespaces/inkscape"
   width="50mm"
   height="50mm"
   viewBox="0 0 50 50"
   version="1.1"
   id="svg8"
   inkscape:version="1.0.1 (3bc2e813f5, 2020-09-07)"
   sodipodi:docname="9-2.svg">
  <defs
     id="defs2">
    <radialGradient
       inkscape:collect="always"
       xlink:href="#linearGradient1135"
       id="radialGradient1561-9-13"
       cx="54.447247"
       cy="49.531189"
       fx="54.447247"
       fy="49.531189"
       r="32.127975"
       gradientTransform="matrix(0.77813809,0,0,0.77813812,-3.3823561,4.4117581)"
       gradientUnits="userSpaceOnUse" />
    <linearGradient
       inkscape:collect="always"
       id="linearGradient1135">
      <stop
         style="stop-color:#ffffff;stop-opacity:1;"
         offset="0"
         id="stop1131" />
      <stop
         style="stop-color:#ffffff;stop-opacity:0;"
         offset="1"
         id="stop1133" />
    </linearGradient>
    <radialGradient
       inkscape:collect="always"
       xlink:href="#linearGradient1135"
       id="radialGradient1561-45"
       cx="26.274075"
       cy="14.800471"
       fx="26.274075"
       fy="14.800471"
       r="32.127975"
       gradientTransform="matrix(0.77813809,0,0,0.77813812,-3.3823572,4.4117581)"
       gradientUnits="userSpaceOnUse" />
  </defs>
  <sodipodi:namedview
     id="base"
     pagecolor="#ffffff"
     bordercolor="#666666"
     borderopacity="1.0"
     inkscape:pageopacity="0.0"
     inkscape:pageshadow="2"
     inkscape:zoom="0.98994949"
     inkscape:cx="2.9247058"
     inkscape:cy="154.89275"
     inkscape:document-units="mm"
     inkscape:current-layer="layer1"
     inkscape:document-rotation="0"
     showgrid="false"
     inkscape:window-width="1920"
     inkscape:window-height="1017"
     inkscape:window-x="-8"
     inkscape:window-y="-8"
     inkscape:window-maximized="1" />
  <metadata
     id="metadata5">
    <rdf:RDF>
      <cc:Work
         rdf:about="">
        <dc:format>image/svg+xml</dc:format>
        <dc:type
           rdf:resource="http://purl.org/dc/dcmitype/StillImage" />
        <dc:title></dc:title>
      </cc:Work>
    </rdf:RDF>
  </metadata>
  <g
     inkscape:label="Layer 1"
     inkscape:groupmode="layer"
     id="layer1">
    <path
       id="path833-53"
       style="display:inline;fill:#ffffff;fill-opacity:1;stroke:#000000;stroke-width:0.27064;stroke-opacity:1;paint-order:markers fill stroke"
       d="m 46.109373,16.576338 -1.086755,0.472322 -0.236162,0.708484 -0.09457,0.945162 0.14211,0.661458 0.519348,0.614432 0.47284,0.519348 h 0.992187 l 0.992188,-0.425296 0.613915,-0.661458 c 0,0 0.0472,-1.039359 0,-1.228349 -0.04724,-0.188986 -0.425296,-0.897619 -0.425296,-0.897619 l -0.708486,-0.566891 z" />
    <path
       id="path1116"
       style="display:inline;fill:#000000;fill-opacity:1;stroke:#000000;stroke-width:0.27064;stroke-opacity:1;paint-order:markers fill stroke"
       d="m 47.56148,14.548554 -0.459919,-0.05116 h -1.559079 l -1.27589,0.283187 -1.180806,0.709 -0.89762,0.850594 -0.519867,1.133781 -0.236159,1.369942 v 1.322916 l 0.330729,0.850596 0.897618,1.086755 0.992187,0.708482 0.944648,0.236162 1.181322,0.09457 0.89762,-0.188619 0.992188,-0.330729 v 0.330729 l -0.566891,0.708485 -0.756026,0.472321 -0.850077,0.330729 -0.992188,0.142111 -0.945163,-0.04754 -0.614431,0.236159 v 0.614434 l 0.09457,0.661459 0.378272,0.992188 0.377754,0.472324 0.803053,0.04754 0.803568,-0.142111 1.086755,-0.141591 1.322917,-0.330729 0.89762,-0.566892 1.150834,-0.895554 a 24.864681,24.864681 0 0 0 0.0057,-0.507979 A 24.864681,24.864681 0 0 0 47.5615,14.548556 Z m -1.452107,2.027784 1.181322,0.141593 0.708486,0.566891 c 0,0 0.378058,0.708633 0.425296,0.897619 0.0472,0.18899 0,1.228349 0,1.228349 l -0.613915,0.661458 -0.992188,0.425296 h -0.992187 l -0.47284,-0.519348 -0.519348,-0.614432 -0.14211,-0.661458 0.09457,-0.945162 0.236162,-0.708484 z" />
    <path
       id="path1114"
       style="display:inline;fill:#000000;fill-opacity:1;stroke:#000000;stroke-width:0.27064;stroke-opacity:1;paint-order:markers fill stroke"
       d="m 49.652308,28.240227 h -7.706506 v 1.523936 h 7.457427 a 24.86468,24.86468 0 0 0 0.249079,-1.523936 z" />
    <path
       id="path1120"
       style="display:inline;fill:#ffffff;fill-opacity:1;stroke:#000000;stroke-width:0.27064;stroke-opacity:1;paint-order:markers fill stroke"
       d="m 45.788463,13.355346 a 9.8315486,9.8315486 0 0 0 -0.117822,10e-4 9.8315486,9.8315486 0 0 0 -0.135393,0.0026 9.8315486,9.8315486 0 0 0 -0.135392,0.0041 9.8315486,9.8315486 0 0 0 -0.135909,0.0062 9.8315486,9.8315486 0 0 0 -0.135392,0.0083 9.8315486,9.8315486 0 0 0 -0.134877,0.01033 9.8315486,9.8315486 0 0 0 -0.135393,0.01188 9.8315486,9.8315486 0 0 0 -0.134874,0.01344 9.8315486,9.8315486 0 0 0 -0.134876,0.0155 9.8315486,9.8315486 0 0 0 -0.134358,0.01757 9.8315486,9.8315486 0 0 0 -0.134358,0.01964 9.8315486,9.8315486 0 0 0 -0.133842,0.02119 9.8315486,9.8315486 0 0 0 -0.133327,0.02274 9.8315486,9.8315486 0 0 0 -0.133323,0.0248 9.8315486,9.8315486 0 0 0 -0.133326,0.02687 9.8315486,9.8315486 0 0 0 -0.132292,0.02842 9.8315486,9.8315486 0 0 0 -0.132292,0.03049 9.8315486,9.8315486 0 0 0 -0.131775,0.03204 9.8315486,9.8315486 0 0 0 -0.131258,0.03411 9.8315486,9.8315486 0 0 0 -0.130741,0.03566 9.8315486,9.8315486 0 0 0 -0.130225,0.03772 9.8315486,9.8315486 0 0 0 -0.129707,0.03927 9.8315486,9.8315486 0 0 0 -0.129709,0.04134 9.8315486,9.8315486 0 0 0 -0.128156,0.04289 9.8315486,9.8315486 0 0 0 -0.128159,0.04496 9.8315486,9.8315486 0 0 0 -0.12764,0.04651 9.8315486,9.8315486 0 0 0 -0.126609,0.04806 9.8315486,9.8315486 0 0 0 -0.12609,0.05013 9.8315486,9.8315486 0 0 0 -0.125574,0.05168 9.8315486,9.8315486 0 0 0 -0.124539,0.05374 9.8315486,9.8315486 0 0 0 -0.124023,0.05478 9.8315486,9.8315486 0 0 0 -0.122989,0.05684 9.8315486,9.8315486 0 0 0 -0.121957,0.05891 9.8315486,9.8315486 0 0 0 -0.121957,0.05995 9.8315486,9.8315486 0 0 0 -0.120407,0.06201 9.8315486,9.8315486 0 0 0 -0.119888,0.06356 9.8315486,9.8315486 0 0 0 -0.118856,0.06511 9.8315486,9.8315486 0 0 0 -0.117822,0.06718 9.8315486,9.8315486 0 0 0 -0.117305,0.06821 9.8315486,9.8315486 0 0 0 -0.116274,0.07028 9.8315486,9.8315486 0 0 0 -0.114721,0.07183 9.8315486,9.8315486 0 0 0 -0.114205,0.07286 9.8315486,9.8315486 0 0 0 -0.11317,0.07493 9.8315486,9.8315486 0 0 0 -0.112138,0.07648 9.8315486,9.8315486 0 0 0 -0.111104,0.07803 9.8315486,9.8315486 0 0 0 -0.109556,0.07906 9.8315486,9.8315486 0 0 0 -0.109037,0.08113 9.8315486,9.8315486 0 0 0 -0.107487,0.08268 9.8315486,9.8315486 0 0 0 -0.106969,0.08371 9.8315486,9.8315486 0 0 0 -0.104905,0.08527 9.8315486,9.8315486 0 0 0 -0.104386,0.08682 9.8315486,9.8315486 0 0 0 -0.102835,0.08837 9.8315486,9.8315486 0 0 0 -0.101804,0.08992 9.8315486,9.8315486 0 0 0 -0.100769,0.09095 9.8315486,9.8315486 0 0 0 -0.09922,0.0925 9.8315486,9.8315486 0 0 0 -0.09767,0.09353 9.8315486,9.8315486 0 0 0 -0.09663,0.09509 9.8315486,9.8315486 0 0 0 -0.0956,0.09663 9.8315486,9.8315486 0 0 0 -0.09405,0.09767 9.8315486,9.8315486 0 0 0 -0.0925,0.09922 9.8315486,9.8315486 0 0 0 -0.09095,0.100252 9.8315486,9.8315486 0 0 0 -0.08992,0.101803 9.8315486,9.8315486 0 0 0 -0.08837,0.102836 9.8315486,9.8315486 0 0 0 -0.08733,0.10387 9.8315486,9.8315486 0 0 0 -0.08527,0.105419 9.8315486,9.8315486 0 0 0 -0.08423,0.106454 9.8315486,9.8315486 0 0 0 -0.08268,0.107487 9.8315486,9.8315486 0 0 0 -0.08113,0.10852 9.8315486,9.8315486 0 0 0 -0.07958,0.109555 9.8315486,9.8315486 0 0 0 -0.07855,0.111104 9.8315486,9.8315486 0 0 0 -0.07648,0.111621 9.8315486,9.8315486 0 0 0 -0.07493,0.113171 9.8315486,9.8315486 0 0 0 -0.07338,0.114205 9.8315486,9.8315486 0 0 0 -0.07183,0.114722 9.8315486,9.8315486 0 0 0 -0.07028,0.116272 9.8315486,9.8315486 0 0 0 -0.06873,0.116789 9.8315486,9.8315486 0 0 0 -0.06718,0.117822 9.8315486,9.8315486 0 0 0 -0.06563,0.118856 9.8315486,9.8315486 0 0 0 -0.06356,0.119372 9.8315486,9.8315486 0 0 0 -0.06201,0.120923 9.8315486,9.8315486 0 0 0 -0.06046,0.12144 9.8315486,9.8315486 0 0 0 -0.05891,0.121956 9.8315486,9.8315486 0 0 0 -0.05736,0.12299 9.8315486,9.8315486 0 0 0 -0.0553,0.124023 9.8315486,9.8315486 0 0 0 -0.05374,0.124541 9.8315486,9.8315486 0 0 0 -0.05168,0.125057 9.8315486,9.8315486 0 0 0 -0.05013,0.126089 9.8315486,9.8315486 0 0 0 -0.04857,0.126609 9.8315486,9.8315486 0 0 0 -0.04703,0.12764 9.8315486,9.8315486 0 0 0 -0.04496,0.12764 9.8315486,9.8315486 0 0 0 -0.04289,0.128675 9.8315486,9.8315486 0 0 0 -0.04134,0.129191 9.8315486,9.8315486 0 0 0 -0.03979,0.129709 9.8315486,9.8315486 0 0 0 -0.03772,0.130223 9.8315486,9.8315486 0 0 0 -0.03617,0.130741 9.8315486,9.8315486 0 0 0 -0.03411,0.13126 9.8315486,9.8315486 0 0 0 -0.03256,0.131773 9.8315486,9.8315486 0 0 0 -0.03049,0.131776 9.8315486,9.8315486 0 0 0 -0.02894,0.132807 9.8315486,9.8315486 0 0 0 -0.02687,0.132811 9.8315486,9.8315486 0 0 0 -0.02532,0.133323 9.8315486,9.8315486 0 0 0 -0.02326,0.133326 9.8315486,9.8315486 0 0 0 -0.02119,0.134358 9.8315486,9.8315486 0 0 0 -0.01963,0.133842 9.8315486,9.8315486 0 0 0 -0.01757,0.134359 9.8315486,9.8315486 0 0 0 -0.01601,0.134876 9.8315486,9.8315486 0 0 0 -0.01394,0.134877 9.8315486,9.8315486 0 0 0 -0.01241,0.13539 9.8315486,9.8315486 0 0 0 -0.01035,0.134876 9.8315486,9.8315486 0 0 0 -0.0083,0.135393 9.8315486,9.8315486 0 0 0 -0.0062,0.135393 9.8315486,9.8315486 0 0 0 -0.0052,0.135908 9.8315486,9.8315486 0 0 0 -0.0026,0.135393 9.8315486,9.8315486 0 0 0 -0.0011,0.135392 9.8315486,9.8315486 0 0 0 0.0011,0.118338 9.8315486,9.8315486 0 0 0 0.0026,0.135392 9.8315486,9.8315486 0 0 0 0.0041,0.135393 9.8315486,9.8315486 0 0 0 0.0062,0.135393 9.8315486,9.8315486 0 0 0 0.0083,0.135392 9.8315486,9.8315486 0 0 0 0.01035,0.135393 9.8315486,9.8315486 0 0 0 0.01188,0.135392 9.8315486,9.8315486 0 0 0 0.01344,0.134874 9.8315486,9.8315486 0 0 0 0.01551,0.134358 9.8315486,9.8315486 0 0 0 0.01757,0.134877 9.8315486,9.8315486 0 0 0 0.01963,0.133842 9.8315486,9.8315486 0 0 0 0.02119,0.134358 9.8315486,9.8315486 0 0 0 0.02273,0.133326 9.8315486,9.8315486 0 0 0 0.02479,0.133324 9.8315486,9.8315486 0 0 0 0.02687,0.133326 9.8315486,9.8315486 0 0 0 0.02842,0.132292 9.8315486,9.8315486 0 0 0 0.03049,0.132291 9.8315486,9.8315486 0 0 0 0.03204,0.131776 9.8315486,9.8315486 0 0 0 0.03411,0.131257 9.8315486,9.8315486 0 0 0 0.03566,0.130742 9.8315486,9.8315486 0 0 0 0.03772,0.130225 9.8315486,9.8315486 0 0 0 0.03927,0.129706 9.8315486,9.8315486 0 0 0 0.04134,0.129191 9.8315486,9.8315486 0 0 0 0.04289,0.128675 9.8315486,9.8315486 0 0 0 0.04496,0.128158 9.8315486,9.8315486 0 0 0 0.04651,0.12764 9.8315486,9.8315486 0 0 0 0.04806,0.126606 9.8315486,9.8315486 0 0 0 0.05013,0.126093 9.8315486,9.8315486 0 0 0 0.05167,0.125055 9.8315486,9.8315486 0 0 0 0.05374,0.125058 9.8315486,9.8315486 0 0 0 0.05478,0.123507 9.8315486,9.8315486 0 0 0 0.05684,0.123505 9.8315486,9.8315486 0 0 0 0.05891,0.121957 9.8315486,9.8315486 0 0 0 0.05994,0.121439 9.8315486,9.8315486 0 0 0 0.06201,0.120925 9.8315486,9.8315486 0 0 0 0.06356,0.119888 9.8315486,9.8315486 0 0 0 0.06511,0.118856 9.8315486,9.8315486 0 0 0 0.06718,0.117822 9.8315486,9.8315486 0 0 0 0.06821,0.117305 9.8315486,9.8315486 0 0 0 0.07028,0.115756 9.8315486,9.8315486 0 0 0 0.07183,0.115239 9.8315486,9.8315486 0 0 0 0.07286,0.114205 9.8315486,9.8315486 0 0 0 0.07493,0.11317 9.8315486,9.8315486 0 0 0 0.07648,0.112138 9.8315486,9.8315486 0 0 0 0.07803,0.111104 9.8315486,9.8315486 0 0 0 0.07906,0.109556 9.8315486,9.8315486 0 0 0 0.08113,0.109037 9.8315486,9.8315486 0 0 0 0.08268,0.107487 9.8315486,9.8315486 0 0 0 0.08371,0.106453 9.8315486,9.8315486 0 0 0 0.08527,0.10542 9.8315486,9.8315486 0 0 0 0.08682,0.104387 9.8315486,9.8315486 0 0 0 0.08837,0.102835 9.8315486,9.8315486 0 0 0 0.08992,0.101804 9.8315486,9.8315486 0 0 0 0.09095,0.100769 9.8315486,9.8315486 0 0 0 0.0925,0.09922 9.8315486,9.8315486 0 0 0 0.09354,0.09767 9.8315486,9.8315486 0 0 0 0.09508,0.09663 9.8315486,9.8315486 0 0 0 0.09664,0.0956 9.8315486,9.8315486 0 0 0 0.09767,0.09353 9.8315486,9.8315486 0 0 0 0.09922,0.09302 9.8315486,9.8315486 0 0 0 0.100251,0.09095 9.8315486,9.8315486 0 0 0 0.101803,0.08992 9.8315486,9.8315486 0 0 0 0.102836,0.08836 9.8315486,9.8315486 0 0 0 0.10387,0.08733 9.8315486,9.8315486 0 0 0 0.105421,0.08527 9.8315486,9.8315486 0 0 0 0.106452,0.08423 9.8315486,9.8315486 0 0 0 0.107487,0.08268 9.8315486,9.8315486 0 0 0 0.108522,0.08113 9.8315486,9.8315486 0 0 0 0.109553,0.07958 9.8315486,9.8315486 0 0 0 0.111104,0.07803 9.8315486,9.8315486 0 0 0 0.11162,0.077 9.8315486,9.8315486 0 0 0 0.113172,0.07493 9.8315486,9.8315486 0 0 0 0.114205,0.07338 9.8315486,9.8315486 0 0 0 0.114721,0.07183 9.8315486,9.8315486 0 0 0 0.116274,0.07028 9.8315486,9.8315486 0 0 0 0.116787,0.06873 9.8315486,9.8315486 0 0 0 0.117824,0.06718 9.8315486,9.8315486 0 0 0 0.118853,0.06511 9.8315486,9.8315486 0 0 0 0.119891,0.06408 9.8315486,9.8315486 0 0 0 0.120407,0.06201 9.8315486,9.8315486 0 0 0 0.121438,0.06046 9.8315486,9.8315486 0 0 0 0.121957,0.05891 9.8315486,9.8315486 0 0 0 0.122989,0.05685 9.8315486,9.8315486 0 0 0 0.124024,0.05581 9.8315486,9.8315486 0 0 0 0.124542,0.05323 9.8315486,9.8315486 0 0 0 0.125055,0.05219 9.8315486,9.8315486 0 0 0 0.12609,0.05012 9.8315486,9.8315486 0 0 0 0.126608,0.04858 9.8315486,9.8315486 0 0 0 0.12764,0.04651 9.8315486,9.8315486 0 0 0 0.127641,0.04496 9.8315486,9.8315486 0 0 0 0.128675,0.04341 9.8315486,9.8315486 0 0 0 0.12919,0.04134 9.8315486,9.8315486 0 0 0 0.12971,0.03979 9.8315486,9.8315486 0 0 0 0.130225,0.03772 9.8315486,9.8315486 0 0 0 0.130741,0.03617 9.8315486,9.8315486 0 0 0 0.131257,0.03411 9.8315486,9.8315486 0 0 0 0.131776,0.03256 9.8315486,9.8315486 0 0 0 0.131773,0.03049 9.8315486,9.8315486 0 0 0 0.13281,0.02894 9.8315486,9.8315486 0 0 0 0.132808,0.02687 9.8315486,9.8315486 0 0 0 0.133326,0.02532 9.8315486,9.8315486 0 0 0 0.133324,0.02326 9.8315486,9.8315486 0 0 0 0.13436,0.02119 9.8315486,9.8315486 0 0 0 0.13384,0.01963 9.8315486,9.8315486 0 0 0 0.134361,0.01757 9.8315486,9.8315486 0 0 0 0.134874,0.01601 9.8315486,9.8315486 0 0 0 0.134876,0.01394 9.8315486,9.8315486 0 0 0 0.135393,0.01188 9.8315486,9.8315486 0 0 0 0.134874,0.01035 9.8315486,9.8315486 0 0 0 0.135392,0.0088 9.8315486,9.8315486 0 0 0 0.135393,0.0062 9.8315486,9.8315486 0 0 0 0.135908,0.0047 9.8315486,9.8315486 0 0 0 0.135393,0.0031 9.8315486,9.8315486 0 0 0 0.135393,0.0011 9.8315486,9.8315486 0 0 0 0.11834,-0.0011 9.8315486,9.8315486 0 0 0 0.13539,-0.0026 9.8315486,9.8315486 0 0 0 0.135392,-0.0041 9.8315486,9.8315486 0 0 0 0.135393,-0.0062 9.8315486,9.8315486 0 0 0 0.135393,-0.0083 9.8315486,9.8315486 0 0 0 0.135392,-0.01035 9.8315486,9.8315486 0 0 0 0.135393,-0.01188 9.8315486,9.8315486 0 0 0 0.134874,-0.01344 9.8315486,9.8315486 0 0 0 0.13436,-0.01601 9.8315486,9.8315486 0 0 0 0.134874,-0.01707 9.8315486,9.8315486 0 0 0 0.133843,-0.01963 9.8315486,9.8315486 0 0 0 0.134358,-0.02119 9.8315486,9.8315486 0 0 0 0.133326,-0.02273 9.8315486,9.8315486 0 0 0 0.133326,-0.02532 9.8315486,9.8315486 0 0 0 0.133323,-0.02635 9.8315486,9.8315486 0 0 0 0.132292,-0.02842 9.8315486,9.8315486 0 0 0 0.132292,-0.03049 9.8315486,9.8315486 0 0 0 0.131776,-0.03204 9.8315486,9.8315486 0 0 0 0.131257,-0.03411 9.8315486,9.8315486 0 0 0 0.130741,-0.03617 9.8315486,9.8315486 0 0 0 0.130225,-0.03721 9.8315486,9.8315486 0 0 0 0.09974,-0.03049 24.86468,24.86468 0 0 0 0.723471,-2.819466 H 41.945794 V 28.240179 H 49.6523 a 24.86468,24.86468 0 0 0 0.206708,-2.732134 l -1.150834,0.895554 -0.89762,0.56689 -1.322917,0.330729 -1.086755,0.141592 -0.803568,0.14211 -0.803053,-0.04754 -0.377754,-0.472324 -0.378272,-0.992186 -0.09457,-0.661459 v -0.614434 l 0.614431,-0.236159 0.945163,0.04754 0.992188,-0.142111 0.850077,-0.330729 0.756026,-0.472321 0.566891,-0.708485 v -0.330729 l -0.992188,0.330729 -0.89762,0.188619 -1.181322,-0.09457 -0.944647,-0.236162 -0.992188,-0.708482 -0.897617,-1.086755 -0.33073,-0.850596 v -1.322867 l 0.236167,-1.369942 0.519867,-1.133781 0.89762,-0.850594 1.180806,-0.709 1.27589,-0.283187 h 1.559079 l 0.459919,0.05116 a 24.86468,24.86468 0 0 0 -0.551904,-1.116727 9.8315486,9.8315486 0 0 0 -0.0036,-5.29e-4 9.8315486,9.8315486 0 0 0 -0.134358,-0.01602 9.8315486,9.8315486 0 0 0 -0.134877,-0.01395 9.8315486,9.8315486 0 0 0 -0.13539,-0.0124 9.8315486,9.8315486 0 0 0 -0.134877,-0.01033 9.8315486,9.8315486 0 0 0 -0.135392,-0.0083 9.8315486,9.8315486 0 0 0 -0.135393,-0.0067 9.8315486,9.8315486 0 0 0 -0.135908,-0.0047 9.8315486,9.8315486 0 0 0 -0.135393,-0.0026 9.8315486,9.8315486 0 0 0 -0.135908,-10e-4 z" />
    <path
       id="path1001"
       style="display:inline;fill:#fffffe;fill-opacity:1;stroke:#000000;stroke-width:0.27064;stroke-opacity:1;paint-order:markers fill stroke"
       d="M 42.293584,42.865174 H 7.7065499 a 24.864681,24.864681 0 0 0 17.2935181,6.999573 24.864681,24.864681 0 0 0 17.293516,-6.999573 z" />
    <path
       id="path912"
       style="display:inline;fill:#e6b242;fill-opacity:1;stroke:#000000;stroke-width:0.27064;stroke-opacity:1;paint-order:markers fill stroke"
       d="M 42.293584,7.1350536 H 7.7065499 A 24.864681,24.864681 0 0 0 0.13543428,25.000112 24.864681,24.864681 0 0 0 7.7065499,42.865174 H 42.293584 a 24.864681,24.864681 0 0 0 6.386174,-10.281544 9.8315486,9.8315486 0 0 1 -0.09973,0.03049 9.8315486,9.8315486 0 0 1 -0.130225,0.03721 9.8315486,9.8315486 0 0 1 -0.130741,0.03617 9.8315486,9.8315486 0 0 1 -0.131258,0.03411 9.8315486,9.8315486 0 0 1 -0.131775,0.03204 9.8315486,9.8315486 0 0 1 -0.132292,0.03049 9.8315486,9.8315486 0 0 1 -0.132292,0.02842 9.8315486,9.8315486 0 0 1 -0.133323,0.02635 9.8315486,9.8315486 0 0 1 -0.133326,0.02532 9.8315486,9.8315486 0 0 1 -0.133326,0.02273 9.8315486,9.8315486 0 0 1 -0.134359,0.02119 9.8315486,9.8315486 0 0 1 -0.133842,0.01963 9.8315486,9.8315486 0 0 1 -0.134874,0.01707 9.8315486,9.8315486 0 0 1 -0.13436,0.01601 9.8315486,9.8315486 0 0 1 -0.134874,0.01344 9.8315486,9.8315486 0 0 1 -0.135393,0.01188 9.8315486,9.8315486 0 0 1 -0.135393,0.01035 9.8315486,9.8315486 0 0 1 -0.135392,0.0083 9.8315486,9.8315486 0 0 1 -0.135393,0.0062 9.8315486,9.8315486 0 0 1 -0.135392,0.0041 9.8315486,9.8315486 0 0 1 -0.13539,0.0026 9.8315486,9.8315486 0 0 1 -0.11834,0.0011 9.8315486,9.8315486 0 0 1 -0.135393,-0.0011 9.8315486,9.8315486 0 0 1 -0.135393,-0.0031 9.8315486,9.8315486 0 0 1 -0.135908,-0.0047 9.8315486,9.8315486 0 0 1 -0.135393,-0.0062 9.8315486,9.8315486 0 0 1 -0.135392,-0.0088 9.8315486,9.8315486 0 0 1 -0.134874,-0.01035 9.8315486,9.8315486 0 0 1 -0.135393,-0.01188 9.8315486,9.8315486 0 0 1 -0.134876,-0.01394 9.8315486,9.8315486 0 0 1 -0.134874,-0.01601 9.8315486,9.8315486 0 0 1 -0.134361,-0.01757 9.8315486,9.8315486 0 0 1 -0.13384,-0.01963 9.8315486,9.8315486 0 0 1 -0.13436,-0.02119 9.8315486,9.8315486 0 0 1 -0.133324,-0.02326 9.8315486,9.8315486 0 0 1 -0.133326,-0.02532 9.8315486,9.8315486 0 0 1 -0.132808,-0.02687 9.8315486,9.8315486 0 0 1 -0.13281,-0.02894 9.8315486,9.8315486 0 0 1 -0.131773,-0.03049 9.8315486,9.8315486 0 0 1 -0.131776,-0.03256 9.8315486,9.8315486 0 0 1 -0.131257,-0.03411 9.8315486,9.8315486 0 0 1 -0.130741,-0.03617 9.8315486,9.8315486 0 0 1 -0.130225,-0.03772 9.8315486,9.8315486 0 0 1 -0.12971,-0.03979 9.8315486,9.8315486 0 0 1 -0.12919,-0.04134 9.8315486,9.8315486 0 0 1 -0.128675,-0.04341 9.8315486,9.8315486 0 0 1 -0.127641,-0.04496 9.8315486,9.8315486 0 0 1 -0.12764,-0.04651 A 9.8315486,9.8315486 0 0 1 42.210907,32.34433 9.8315486,9.8315486 0 0 1 42.084817,32.2942 9.8315486,9.8315486 0 0 1 41.959762,32.24201 9.8315486,9.8315486 0 0 1 41.83522,32.18878 9.8315486,9.8315486 0 0 1 41.711196,32.13297 9.8315486,9.8315486 0 0 1 41.588207,32.07612 9.8315486,9.8315486 0 0 1 41.46625,32.01721 9.8315486,9.8315486 0 0 1 41.344812,31.95675 9.8315486,9.8315486 0 0 1 41.224405,31.89474 9.8315486,9.8315486 0 0 1 41.104514,31.83066 9.8315486,9.8315486 0 0 1 40.985661,31.76555 9.8315486,9.8315486 0 0 1 40.867837,31.69837 9.8315486,9.8315486 0 0 1 40.75105,31.62964 9.8315486,9.8315486 0 0 1 40.634776,31.55936 9.8315486,9.8315486 0 0 1 40.520055,31.48753 9.8315486,9.8315486 0 0 1 40.40585,31.41415 9.8315486,9.8315486 0 0 1 40.292678,31.33922 9.8315486,9.8315486 0 0 1 40.181058,31.26222 9.8315486,9.8315486 0 0 1 40.069954,31.18419 9.8315486,9.8315486 0 0 1 39.960401,31.10461 9.8315486,9.8315486 0 0 1 39.851879,31.02348 9.8315486,9.8315486 0 0 1 39.744392,30.9408 9.8315486,9.8315486 0 0 1 39.63794,30.85657 9.8315486,9.8315486 0 0 1 39.532519,30.7713 9.8315486,9.8315486 0 0 1 39.428649,30.68397 9.8315486,9.8315486 0 0 1 39.325813,30.5956 9.8315486,9.8315486 0 0 1 39.22401,30.50568 a 9.8315486,9.8315486 0 0 1 -0.100251,-0.09095 9.8315486,9.8315486 0 0 1 -0.09922,-0.09302 9.8315486,9.8315486 0 0 1 -0.09767,-0.09353 9.8315486,9.8315486 0 0 1 -0.09664,-0.0956 9.8315486,9.8315486 0 0 1 -0.09508,-0.09663 9.8315486,9.8315486 0 0 1 -0.09354,-0.09767 9.8315486,9.8315486 0 0 1 -0.0925,-0.09922 9.8315486,9.8315486 0 0 1 -0.09095,-0.10077 9.8315486,9.8315486 0 0 1 -0.08992,-0.101803 9.8315486,9.8315486 0 0 1 -0.08837,-0.102836 9.8315486,9.8315486 0 0 1 -0.08682,-0.104386 9.8315486,9.8315486 0 0 1 -0.08527,-0.10542 9.8315486,9.8315486 0 0 1 -0.08372,-0.106453 9.8315486,9.8315486 0 0 1 -0.08268,-0.107487 9.8315486,9.8315486 0 0 1 -0.08113,-0.109037 9.8315486,9.8315486 0 0 1 -0.07906,-0.109556 9.8315486,9.8315486 0 0 1 -0.07803,-0.111104 9.8315486,9.8315486 0 0 1 -0.07648,-0.112139 9.8315486,9.8315486 0 0 1 -0.07493,-0.11317 9.8315486,9.8315486 0 0 1 -0.07286,-0.114205 9.8315486,9.8315486 0 0 1 -0.07183,-0.115239 9.8315486,9.8315486 0 0 1 -0.07028,-0.115755 9.8315486,9.8315486 0 0 1 -0.06821,-0.117306 9.8315486,9.8315486 0 0 1 -0.06718,-0.117821 9.8315486,9.8315486 0 0 1 -0.06511,-0.118856 9.8315486,9.8315486 0 0 1 -0.06356,-0.119888 9.8315486,9.8315486 0 0 1 -0.06201,-0.120926 9.8315486,9.8315486 0 0 1 -0.05994,-0.121438 9.8315486,9.8315486 0 0 1 -0.05891,-0.121957 9.8315486,9.8315486 0 0 1 -0.05684,-0.123505 9.8315486,9.8315486 0 0 1 -0.05478,-0.123507 9.8315486,9.8315486 0 0 1 -0.05374,-0.125058 9.8315486,9.8315486 0 0 1 -0.05167,-0.125056 9.8315486,9.8315486 0 0 1 -0.05013,-0.126092 9.8315486,9.8315486 0 0 1 -0.04806,-0.126606 9.8315486,9.8315486 0 0 1 -0.04651,-0.12764 9.8315486,9.8315486 0 0 1 -0.04496,-0.12816 9.8315486,9.8315486 0 0 1 -0.04289,-0.128675 9.8315486,9.8315486 0 0 1 -0.04134,-0.12919 9.8315486,9.8315486 0 0 1 -0.03927,-0.129707 9.8315486,9.8315486 0 0 1 -0.03772,-0.130225 9.8315486,9.8315486 0 0 1 -0.03566,-0.130742 9.8315486,9.8315486 0 0 1 -0.03411,-0.131257 9.8315486,9.8315486 0 0 1 -0.03204,-0.131776 9.8315486,9.8315486 0 0 1 -0.03049,-0.132291 9.8315486,9.8315486 0 0 1 -0.02842,-0.132292 9.8315486,9.8315486 0 0 1 -0.02687,-0.133326 9.8315486,9.8315486 0 0 1 -0.02479,-0.133324 9.8315486,9.8315486 0 0 1 -0.02273,-0.133326 9.8315486,9.8315486 0 0 1 -0.02119,-0.134358 9.8315486,9.8315486 0 0 1 -0.01963,-0.133842 9.8315486,9.8315486 0 0 1 -0.01757,-0.134877 9.8315486,9.8315486 0 0 1 -0.01551,-0.134358 9.8315486,9.8315486 0 0 1 -0.01344,-0.134874 9.8315486,9.8315486 0 0 1 -0.01188,-0.135392 9.8315486,9.8315486 0 0 1 -0.01035,-0.135393 9.8315486,9.8315486 0 0 1 -0.0083,-0.135392 9.8315486,9.8315486 0 0 1 -0.0062,-0.135393 9.8315486,9.8315486 0 0 1 -0.0041,-0.135393 9.8315486,9.8315486 0 0 1 -0.0026,-0.135392 9.8315486,9.8315486 0 0 1 -0.0011,-0.118338 9.8315486,9.8315486 0 0 1 0.0011,-0.135392 9.8315486,9.8315486 0 0 1 0.0026,-0.135393 9.8315486,9.8315486 0 0 1 0.0052,-0.135908 9.8315486,9.8315486 0 0 1 0.0062,-0.135393 9.8315486,9.8315486 0 0 1 0.0083,-0.135393 9.8315486,9.8315486 0 0 1 0.01035,-0.134876 9.8315486,9.8315486 0 0 1 0.01241,-0.13539 9.8315486,9.8315486 0 0 1 0.01394,-0.134877 9.8315486,9.8315486 0 0 1 0.01601,-0.134876 9.8315486,9.8315486 0 0 1 0.01757,-0.134359 9.8315486,9.8315486 0 0 1 0.01963,-0.133842 9.8315486,9.8315486 0 0 1 0.02119,-0.134358 9.8315486,9.8315486 0 0 1 0.02326,-0.133326 9.8315486,9.8315486 0 0 1 0.02532,-0.133323 9.8315486,9.8315486 0 0 1 0.02687,-0.132811 9.8315486,9.8315486 0 0 1 0.02894,-0.132807 9.8315486,9.8315486 0 0 1 0.03049,-0.131776 9.8315486,9.8315486 0 0 1 0.03256,-0.131773 9.8315486,9.8315486 0 0 1 0.03411,-0.13126 9.8315486,9.8315486 0 0 1 0.03617,-0.130741 9.8315486,9.8315486 0 0 1 0.03772,-0.130223 9.8315486,9.8315486 0 0 1 0.03979,-0.129709 9.8315486,9.8315486 0 0 1 0.04134,-0.129191 9.8315486,9.8315486 0 0 1 0.04289,-0.128675 9.8315486,9.8315486 0 0 1 0.04496,-0.12764 9.8315486,9.8315486 0 0 1 0.04703,-0.12764 9.8315486,9.8315486 0 0 1 0.04857,-0.126609 9.8315486,9.8315486 0 0 1 0.05013,-0.126089 9.8315486,9.8315486 0 0 1 0.05168,-0.125057 9.8315486,9.8315486 0 0 1 0.05374,-0.124541 9.8315486,9.8315486 0 0 1 0.0553,-0.124023 9.8315486,9.8315486 0 0 1 0.05736,-0.12299 9.8315486,9.8315486 0 0 1 0.05891,-0.121956 9.8315486,9.8315486 0 0 1 0.06046,-0.12144 9.8315486,9.8315486 0 0 1 0.06201,-0.120923 9.8315486,9.8315486 0 0 1 0.06356,-0.119372 9.8315486,9.8315486 0 0 1 0.06563,-0.118856 9.8315486,9.8315486 0 0 1 0.06718,-0.117822 9.8315486,9.8315486 0 0 1 0.06873,-0.116789 9.8315486,9.8315486 0 0 1 0.07028,-0.116272 9.8315486,9.8315486 0 0 1 0.07183,-0.114722 9.8315486,9.8315486 0 0 1 0.07338,-0.114205 9.8315486,9.8315486 0 0 1 0.07493,-0.113171 9.8315486,9.8315486 0 0 1 0.07648,-0.111621 9.8315486,9.8315486 0 0 1 0.07855,-0.111104 9.8315486,9.8315486 0 0 1 0.07958,-0.109555 9.8315486,9.8315486 0 0 1 0.08113,-0.10852 9.8315486,9.8315486 0 0 1 0.08268,-0.107487 9.8315486,9.8315486 0 0 1 0.08423,-0.106454 9.8315486,9.8315486 0 0 1 0.08527,-0.105419 9.8315486,9.8315486 0 0 1 0.08733,-0.10387 9.8315486,9.8315486 0 0 1 0.08837,-0.102836 9.8315486,9.8315486 0 0 1 0.08992,-0.101803 9.8315486,9.8315486 0 0 1 0.09095,-0.100252 9.8315486,9.8315486 0 0 1 0.0925,-0.09922 9.8315486,9.8315486 0 0 1 0.09405,-0.09767 9.8315486,9.8315486 0 0 1 0.0956,-0.09664 9.8315486,9.8315486 0 0 1 0.09663,-0.09508 9.8315486,9.8315486 0 0 1 0.09767,-0.09353 9.8315486,9.8315486 0 0 1 0.09922,-0.0925 9.8315486,9.8315486 0 0 1 0.100769,-0.09095 9.8315486,9.8315486 0 0 1 0.101804,-0.08992 9.8315486,9.8315486 0 0 1 0.102835,-0.08837 9.8315486,9.8315486 0 0 1 0.104386,-0.08682 9.8315486,9.8315486 0 0 1 0.104905,-0.08527 9.8315486,9.8315486 0 0 1 0.106968,-0.08372 9.8315486,9.8315486 0 0 1 0.107487,-0.08268 9.8315486,9.8315486 0 0 1 0.109038,-0.08113 9.8315486,9.8315486 0 0 1 0.109556,-0.07906 9.8315486,9.8315486 0 0 1 0.111104,-0.07803 9.8315486,9.8315486 0 0 1 0.112138,-0.07648 9.8315486,9.8315486 0 0 1 0.11317,-0.07493 9.8315486,9.8315486 0 0 1 0.114205,-0.07286 9.8315486,9.8315486 0 0 1 0.114721,-0.07183 9.8315486,9.8315486 0 0 1 0.116274,-0.07028 9.8315486,9.8315486 0 0 1 0.117305,-0.06821 9.8315486,9.8315486 0 0 1 0.117822,-0.06718 9.8315486,9.8315486 0 0 1 0.118856,-0.06511 9.8315486,9.8315486 0 0 1 0.119888,-0.06356 9.8315486,9.8315486 0 0 1 0.120407,-0.06201 9.8315486,9.8315486 0 0 1 0.121957,-0.05994 9.8315486,9.8315486 0 0 1 0.121957,-0.05891 9.8315486,9.8315486 0 0 1 0.122989,-0.05684 9.8315486,9.8315486 0 0 1 0.124023,-0.05478 9.8315486,9.8315486 0 0 1 0.124539,-0.05374 9.8315486,9.8315486 0 0 1 0.125574,-0.05168 9.8315486,9.8315486 0 0 1 0.12609,-0.05013 9.8315486,9.8315486 0 0 1 0.126609,-0.04806 9.8315486,9.8315486 0 0 1 0.12764,-0.04651 9.8315486,9.8315486 0 0 1 0.128159,-0.04496 9.8315486,9.8315486 0 0 1 0.128156,-0.04289 9.8315486,9.8315486 0 0 1 0.129709,-0.04134 9.8315486,9.8315486 0 0 1 0.129707,-0.03927 9.8315486,9.8315486 0 0 1 0.130225,-0.03772 9.8315486,9.8315486 0 0 1 0.130741,-0.03566 9.8315486,9.8315486 0 0 1 0.131258,-0.03411 9.8315486,9.8315486 0 0 1 0.131775,-0.03204 9.8315486,9.8315486 0 0 1 0.132292,-0.03049 9.8315486,9.8315486 0 0 1 0.132292,-0.02842 9.8315486,9.8315486 0 0 1 0.133326,-0.02687 9.8315486,9.8315486 0 0 1 0.133323,-0.0248 9.8315486,9.8315486 0 0 1 0.133327,-0.02274 9.8315486,9.8315486 0 0 1 0.133842,-0.02119 9.8315486,9.8315486 0 0 1 0.134358,-0.01964 9.8315486,9.8315486 0 0 1 0.134358,-0.01757 9.8315486,9.8315486 0 0 1 0.134876,-0.0155 9.8315486,9.8315486 0 0 1 0.134874,-0.01343 9.8315486,9.8315486 0 0 1 0.135393,-0.01189 9.8315486,9.8315486 0 0 1 0.134877,-0.01033 9.8315486,9.8315486 0 0 1 0.135392,-0.0083 9.8315486,9.8315486 0 0 1 0.135909,-0.0062 9.8315486,9.8315486 0 0 1 0.135392,-0.0041 9.8315486,9.8315486 0 0 1 0.135393,-0.0026 9.8315486,9.8315486 0 0 1 0.117822,-10e-4 9.8315486,9.8315486 0 0 1 0.135908,10e-4 9.8315486,9.8315486 0 0 1 0.135393,0.0026 9.8315486,9.8315486 0 0 1 0.135908,0.0047 9.8315486,9.8315486 0 0 1 0.135393,0.0067 9.8315486,9.8315486 0 0 1 0.135392,0.0083 9.8315486,9.8315486 0 0 1 0.134877,0.01033 9.8315486,9.8315486 0 0 1 0.13539,0.0124 9.8315486,9.8315486 0 0 1 0.134877,0.01395 9.8315486,9.8315486 0 0 1 0.134358,0.01602 9.8315486,9.8315486 0 0 1 0.0036,5.29e-4 24.864681,24.864681 0 0 0 -4.715991,-6.2967734 z" />
    <path
       id="path910"
       style="display:inline;fill:#fffffe;fill-opacity:1;stroke:#000000;stroke-width:0.27064;stroke-opacity:1;paint-order:markers fill stroke"
       d="M 24.981463,0.13548082 A 24.864681,24.864681 0 0 0 7.7065499,7.1350536 H 42.293584 a 24.864681,24.864681 0 0 0 -17.293516,-6.99957278 24.864681,24.864681 0 0 0 -0.0186,0 z" />
    <circle
       style="display:inline;opacity:0.88141;mix-blend-mode:normal;fill:url(#radialGradient1561-9-13);fill-opacity:1;stroke:none;stroke-width:0.212909;stroke-opacity:1;paint-order:markers fill stroke"
       id="path1129-9-1"
       cx="25"
       cy="25"
       r="25" />
    <circle
       style="display:inline;opacity:0.88141;mix-blend-mode:normal;fill:url(#radialGradient1561-45);fill-opacity:1;stroke:none;stroke-width:0.212909;stroke-opacity:1;paint-order:markers fill stroke"
       id="path1129-80"
       cx="25"
       cy="25"
       r="25" />
  </g>
</svg>
