<?xml version="1.0" encoding="UTF-8" standalone="no"?>
<svg
   xmlns:dc="http://purl.org/dc/elements/1.1/"
   xmlns:cc="http://creativecommons.org/ns#"
   xmlns:rdf="http://www.w3.org/1999/02/22-rdf-syntax-ns#"
   xmlns:svg="http://www.w3.org/2000/svg"
   xmlns="http://www.w3.org/2000/svg"
   xmlns:xlink="http://www.w3.org/1999/xlink"
   xmlns:sodipodi="http://sodipodi.sourceforge.net/DTD/sodipodi-0.dtd"
   xmlns:inkscape="http://www.inkscape.org/namespaces/inkscape"
   width="50mm"
   height="50mm"
   viewBox="0 0 50 50"
   version="1.1"
   id="svg8"
   inkscape:version="1.0.1 (3bc2e813f5, 2020-09-07)"
   sodipodi:docname="10-6.svg">
  <defs
     id="defs2">
    <radialGradient
       inkscape:collect="always"
       xlink:href="#linearGradient1135"
       id="radialGradient1561-9-5-3"
       cx="41.903854"
       cy="30.091272"
       fx="41.903854"
       fy="30.091272"
       r="32.127975"
       gradientTransform="matrix(0.77813807,0,0,0.7781381,-46.238373,9.9267266)"
       gradientUnits="userSpaceOnUse" />
    <linearGradient
       inkscape:collect="always"
       id="linearGradient1135">
      <stop
         style="stop-color:#ffffff;stop-opacity:1;"
         offset="0"
         id="stop1131" />
      <stop
         style="stop-color:#ffffff;stop-opacity:0;"
         offset="1"
         id="stop1133" />
    </linearGradient>
    <radialGradient
       inkscape:collect="always"
       xlink:href="#linearGradient1135"
       id="radialGradient1561-9-6"
       cx="54.447247"
       cy="49.531189"
       fx="54.447247"
       fy="49.531189"
       r="32.127975"
       gradientTransform="matrix(0.77813809,0,0,0.77813812,-3.3823646,4.4120854)"
       gradientUnits="userSpaceOnUse" />
    <radialGradient
       inkscape:collect="always"
       xlink:href="#linearGradient1135"
       id="radialGradient1561-8"
       cx="26.274075"
       cy="14.800471"
       fx="26.274075"
       fy="14.800471"
       r="32.127975"
       gradientTransform="matrix(0.77813809,0,0,0.77813812,-2.9671806,4.4120854)"
       gradientUnits="userSpaceOnUse" />
  </defs>
  <sodipodi:namedview
     id="base"
     pagecolor="#ffffff"
     bordercolor="#666666"
     borderopacity="1.0"
     inkscape:pageopacity="0.0"
     inkscape:pageshadow="2"
     inkscape:zoom="0.98994949"
     inkscape:cx="2.9247058"
     inkscape:cy="154.89275"
     inkscape:document-units="mm"
     inkscape:current-layer="layer1"
     inkscape:document-rotation="0"
     showgrid="false"
     inkscape:window-width="1920"
     inkscape:window-height="1017"
     inkscape:window-x="-8"
     inkscape:window-y="-8"
     inkscape:window-maximized="1" />
  <metadata
     id="metadata5">
    <rdf:RDF>
      <cc:Work
         rdf:about="">
        <dc:format>image/svg+xml</dc:format>
        <dc:type
           rdf:resource="http://purl.org/dc/dcmitype/StillImage" />
        <dc:title></dc:title>
      </cc:Work>
    </rdf:RDF>
  </metadata>
  <g
     inkscape:label="Layer 1"
     inkscape:groupmode="layer"
     id="layer1">
    <path
       id="path833-58"
       style="display:inline;fill:#ffffff;fill-opacity:1;stroke:#000000;stroke-width:0.27064;stroke-opacity:1;paint-order:markers fill stroke"
       d="m 0.69457643,27.669554 0.46302097,0.396875 1.086755,-0.377753 0.708483,-0.519864 0.283704,-1.086756 0.188619,-0.945161 -0.09457,-0.992187 -0.377756,-1.086239 -0.519864,-0.661458 -0.803053,-0.378273 -0.75602597,0.141595 -0.175699,0.141076 a 24.864679,24.864679 0 0 0 -0.03462,0.33383 24.864678,24.864678 0 0 0 -0.113173,2.364713 24.864678,24.864678 0 0 0 5.29e-4,0.103352 24.864679,24.864679 0 0 0 0.01963,0.88987 24.864678,24.864678 0 0 0 0.124023,1.67638 z" />
    <path
       id="path1339"
       style="display:inline;fill:#000000;fill-opacity:1;stroke:#000000;stroke-width:0.27064;stroke-opacity:1;paint-order:markers fill stroke"
       d="m 1.3829064,31.378373 0.865579,-0.03462 1.436605,-0.601514 0.968933,-1.20251 0.76843,-1.169437 0.434596,-1.503268 0.166915,-1.77095 -0.234092,-1.670186 -0.367419,-1.302763 -0.801503,-1.570445 -1.236101,-1.035598 -1.470194,-0.601512 -0.619599,0.04651 a 24.864678,24.864678 0 0 0 -0.05943,0.241845 24.864679,24.864679 0 0 0 -0.53743497,3.097485 l 0.175699,-0.141076 0.75602597,-0.141595 0.803053,0.378273 0.519864,0.661458 0.377756,1.086239 0.09457,0.992187 -0.188619,0.945161 -0.283705,1.086756 -0.708483,0.519864 -1.086754,0.377753 -0.46302097,-0.396875 a 24.864678,24.864678 0 0 0 0.236159,1.658814 24.864678,24.864678 0 0 0 0.12350697,0.647506 24.864679,24.864679 0 0 0 0.323496,1.38338 24.864679,24.864679 0 0 0 0.0052,0.01913 z" />
    <path
       id="path1337"
       style="display:inline;fill:#ffffff;fill-opacity:1;stroke:#000000;stroke-width:0.27064;stroke-opacity:1;paint-order:markers fill stroke"
       d="m 2.3952464,15.602077 a 24.864678,24.864678 0 0 0 -0.47439,1.258837 24.864678,24.864678 0 0 0 -0.605131,2.017964 24.864678,24.864678 0 0 0 -0.02066,0.0832 l 0.619599,-0.04651 1.470194,0.601512 1.236102,1.035598 0.801502,1.570445 0.367419,1.302763 0.234093,1.670182 -0.166915,1.77095 -0.434597,1.503268 -0.768429,1.169437 -0.968934,1.20251 -1.436605,0.601514 -0.865579,0.03462 a 24.864679,24.864679 0 0 0 0.03255,0.121441 24.864678,24.864678 0 0 0 0.887801,2.669603 9.8315486,9.8315486 0 0 0 0.117824,-0.04134 9.8315486,9.8315486 0 0 0 0.127641,-0.04599 9.8315486,9.8315486 0 0 0 0.126606,-0.04857 9.8315486,9.8315486 0 0 0 0.126092,-0.05013 9.8315486,9.8315486 0 0 0 0.125055,-0.05168 9.8315486,9.8315486 0 0 0 0.125058,-0.05323 9.8315486,9.8315486 0 0 0 0.123508,-0.05529 9.8315486,9.8315486 0 0 0 0.123505,-0.05685 9.8315486,9.8315486 0 0 0 0.121957,-0.05839 9.8315486,9.8315486 0 0 0 0.121438,-0.06046 9.8315486,9.8315486 0 0 0 0.120925,-0.06201 9.8315486,9.8315486 0 0 0 0.119888,-0.06356 9.8315486,9.8315486 0 0 0 0.118856,-0.06511 9.8315486,9.8315486 0 0 0 0.117822,-0.06666 9.8315486,9.8315486 0 0 0 0.117306,-0.06873 9.8315486,9.8315486 0 0 0 0.115755,-0.06976 9.8315486,9.8315486 0 0 0 0.115239,-0.07183 9.8315486,9.8315486 0 0 0 0.114205,-0.07338 9.8315486,9.8315486 0 0 0 0.11317,-0.07493 9.8315486,9.8315486 0 0 0 0.112139,-0.07648 9.8315486,9.8315486 0 0 0 0.111103,-0.07752 9.8315486,9.8315486 0 0 0 0.109556,-0.07958 9.8315486,9.8315486 0 0 0 0.109035,-0.08113 9.8315486,9.8315486 0 0 0 0.10749,-0.08216 9.8315486,9.8315486 0 0 0 0.106452,-0.08423 9.8315486,9.8315486 0 0 0 0.105421,-0.08527 9.8315486,9.8315486 0 0 0 0.104386,-0.08682 9.8315486,9.8315486 0 0 0 0.102835,-0.08837 9.8315486,9.8315486 0 0 0 0.101802,-0.0894 9.8315486,9.8315486 0 0 0 0.100769,-0.09147 9.8315486,9.8315486 0 0 0 0.09922,-0.09199 9.8315486,9.8315486 0 0 0 0.09767,-0.09405 9.8315486,9.8315486 0 0 0 0.09664,-0.09508 9.8315486,9.8315486 0 0 0 0.0956,-0.09663 9.8315486,9.8315486 0 0 0 0.09353,-0.09767 9.8315486,9.8315486 0 0 0 0.09302,-0.09922 9.8315486,9.8315486 0 0 0 0.09095,-0.100253 9.8315486,9.8315486 0 0 0 0.08992,-0.101285 9.8315486,9.8315486 0 0 0 0.08837,-0.102839 9.8315486,9.8315486 0 0 0 0.08733,-0.104386 9.8315486,9.8315486 0 0 0 0.08527,-0.104902 9.8315486,9.8315486 0 0 0 0.08423,-0.106455 9.8315486,9.8315486 0 0 0 0.08268,-0.107484 9.8315486,9.8315486 0 0 0 0.08113,-0.109038 9.8315486,9.8315486 0 0 0 0.07958,-0.109556 9.8315486,9.8315486 0 0 0 0.07803,-0.110588 9.8315486,9.8315486 0 0 0 0.077,-0.112135 9.8315486,9.8315486 0 0 0 0.07493,-0.113173 9.8315486,9.8315486 0 0 0 0.07338,-0.113689 9.8315486,9.8315486 0 0 0 0.07183,-0.115237 9.8315486,9.8315486 0 0 0 0.07028,-0.115755 9.8315486,9.8315486 0 0 0 0.06873,-0.117305 9.8315486,9.8315486 0 0 0 0.06718,-0.117822 9.8315486,9.8315486 0 0 0 0.06511,-0.118856 9.8315486,9.8315486 0 0 0 0.06408,-0.119372 9.8315486,9.8315486 0 0 0 0.06201,-0.120407 9.8315486,9.8315486 0 0 0 0.06046,-0.121441 9.8315486,9.8315486 0 0 0 0.05891,-0.122473 9.8315486,9.8315486 0 0 0 0.05685,-0.122989 9.8315486,9.8315486 0 0 0 0.05581,-0.123507 9.8315486,9.8315486 0 0 0 0.05323,-0.12454 9.8315486,9.8315486 0 0 0 0.05219,-0.125574 9.8315486,9.8315486 0 0 0 0.05013,-0.126089 9.8315486,9.8315486 0 0 0 0.04858,-0.126609 9.8315486,9.8315486 0 0 0 0.04651,-0.127124 9.8315486,9.8315486 0 0 0 0.04496,-0.128156 9.8315486,9.8315486 0 0 0 0.04341,-0.128675 9.8315486,9.8315486 0 0 0 0.04134,-0.128675 9.8315486,9.8315486 0 0 0 0.03979,-0.129707 9.8315486,9.8315486 0 0 0 0.03772,-0.130225 9.8315486,9.8315486 0 0 0 0.03617,-0.130741 9.8315486,9.8315486 0 0 0 0.03411,-0.13126 9.8315486,9.8315486 0 0 0 0.03255,-0.131773 9.8315486,9.8315486 0 0 0 0.03049,-0.132292 9.8315486,9.8315486 0 0 0 0.02894,-0.132291 9.8315486,9.8315486 0 0 0 0.02687,-0.133327 9.8315486,9.8315486 0 0 0 0.02479,-0.133323 9.8315486,9.8315486 0 0 0 0.02376,-0.133326 9.8315486,9.8315486 0 0 0 0.02119,-0.133841 9.8315486,9.8315486 0 0 0 0.01963,-0.134358 9.8315486,9.8315486 0 0 0 0.01757,-0.134361 9.8315486,9.8315486 0 0 0 0.01601,-0.134874 9.8315486,9.8315486 0 0 0 0.01394,-0.134877 9.8315486,9.8315486 0 0 0 0.01188,-0.134874 9.8315486,9.8315486 0 0 0 0.01035,-0.135392 9.8315486,9.8315486 0 0 0 0.0088,-0.135393 9.8315486,9.8315486 0 0 0 0.0062,-0.135392 9.8315486,9.8315486 0 0 0 0.0047,-0.135393 9.8315486,9.8315486 0 0 0 0.0031,-0.135908 9.8315486,9.8315486 0 0 0 0.0011,-0.135393 9.8315486,9.8315486 0 0 0 -0.0011,-0.117822 9.8315486,9.8315486 0 0 0 -0.0026,-0.135908 9.8315486,9.8315486 0 0 0 -0.0041,-0.135393 9.8315486,9.8315486 0 0 0 -0.0062,-0.135392 9.8315486,9.8315486 0 0 0 -0.0083,-0.135393 9.8315486,9.8315486 0 0 0 -0.01035,-0.135392 9.8315486,9.8315486 0 0 0 -0.01188,-0.134874 9.8315486,9.8315486 0 0 0 -0.01344,-0.134877 9.8315486,9.8315486 0 0 0 -0.01601,-0.134874 9.8315486,9.8315486 0 0 0 -0.01707,-0.134361 9.8315486,9.8315486 0 0 0 -0.01963,-0.134358 9.8315486,9.8315486 0 0 0 -0.02119,-0.133842 9.8315486,9.8315486 0 0 0 -0.02273,-0.133842 9.8315486,9.8315486 0 0 0 -0.02532,-0.133324 9.8315486,9.8315486 0 0 0 -0.02635,-0.13281 9.8315486,9.8315486 0 0 0 -0.02842,-0.132807 9.8315486,9.8315486 0 0 0 -0.03049,-0.132292 9.8315486,9.8315486 0 0 0 -0.03204,-0.131257 9.8315486,9.8315486 0 0 0 -0.03411,-0.131776 9.8315486,9.8315486 0 0 0 -0.03617,-0.130741 9.8315486,9.8315486 0 0 0 -0.03721,-0.130225 9.8315486,9.8315486 0 0 0 -0.03979,-0.129707 9.8315486,9.8315486 0 0 0 -0.04082,-0.129194 9.8315486,9.8315486 0 0 0 -0.04289,-0.128672 9.8315486,9.8315486 0 0 0 -0.04496,-0.128159 9.8315486,9.8315486 0 0 0 -0.04651,-0.127124 9.8315486,9.8315486 0 0 0 -0.04806,-0.127124 9.8315486,9.8315486 0 0 0 -0.05012,-0.125572 9.8315486,9.8315486 0 0 0 -0.05168,-0.125573 9.8315486,9.8315486 0 0 0 -0.05374,-0.124542 9.8315486,9.8315486 0 0 0 -0.05478,-0.124024 9.8315486,9.8315486 0 0 0 -0.05736,-0.122989 9.8315486,9.8315486 0 0 0 -0.0584,-0.122473 9.8315486,9.8315486 0 0 0 -0.05994,-0.121441 9.8315486,9.8315486 0 0 0 -0.06201,-0.120922 9.8315486,9.8315486 0 0 0 -0.06356,-0.119373 9.8315486,9.8315486 0 0 0 -0.06563,-0.119372 9.8315486,9.8315486 0 0 0 -0.06666,-0.117821 9.8315486,9.8315486 0 0 0 -0.06821,-0.11679 9.8315486,9.8315486 0 0 0 -0.07028,-0.116271 9.8315486,9.8315486 0 0 0 -0.07183,-0.115239 9.8315486,9.8315486 0 0 0 -0.07338,-0.114205 9.8315486,9.8315486 0 0 0 -0.07441,-0.113173 9.8315486,9.8315486 0 0 0 -0.07648,-0.11162 9.8315486,9.8315486 0 0 0 -0.07803,-0.111104 9.8315486,9.8315486 0 0 0 -0.07958,-0.110072 9.8315486,9.8315486 0 0 0 -0.08062,-0.109037 9.8315486,9.8315486 0 0 0 -0.08268,-0.107487 9.8315486,9.8315486 0 0 0 -0.08371,-0.106452 9.8315486,9.8315486 0 0 0 -0.08578,-0.105421 9.8315486,9.8315486 0 0 0 -0.08682,-0.104386 9.8315486,9.8315486 0 0 0 -0.08785,-0.102836 9.8315486,9.8315486 0 0 0 -0.08992,-0.101803 9.8315486,9.8315486 0 0 0 -0.09095,-0.100251 9.8315486,9.8315486 0 0 0 -0.0925,-0.09922 9.8315486,9.8315486 0 0 0 -0.09405,-0.09819 9.8315486,9.8315486 0 0 0 -0.09509,-0.09663 9.8315486,9.8315486 0 0 0 -0.09612,-0.09509 9.8315486,9.8315486 0 0 0 -0.09818,-0.09405 9.8315486,9.8315486 0 0 0 -0.0987,-0.0925 9.8315486,9.8315486 0 0 0 -0.100246,-0.09147 9.8315486,9.8315486 0 0 0 -0.101804,-0.08992 9.8315486,9.8315486 0 0 0 -0.102835,-0.08837 9.8315486,9.8315486 0 0 0 -0.10387,-0.08681 9.8315486,9.8315486 0 0 0 -0.105421,-0.08578 9.8315486,9.8315486 0 0 0 -0.106452,-0.08423 9.8315486,9.8315486 0 0 0 -0.107487,-0.08268 9.8315486,9.8315486 0 0 0 -0.108522,-0.08113 9.8315486,9.8315486 0 0 0 -0.109553,-0.07958 9.8315486,9.8315486 0 0 0 -0.111104,-0.07803 9.8315486,9.8315486 0 0 0 -0.112138,-0.07648 9.8315486,9.8315486 0 0 0 -0.112655,-0.07493 9.8315486,9.8315486 0 0 0 -0.114204,-0.0739 9.8315486,9.8315486 0 0 0 -0.114721,-0.07183 9.8315486,9.8315486 0 0 0 -0.116274,-0.07028 9.8315486,9.8315486 0 0 0 -0.116787,-0.06873 9.8315486,9.8315486 0 0 0 -0.117824,-0.06666 9.8315486,9.8315486 0 0 0 -0.118856,-0.06563 9.8315486,9.8315486 0 0 0 -0.119888,-0.06408 9.8315486,9.8315486 0 0 0 -0.120407,-0.06201 9.8315486,9.8315486 0 0 0 -0.121438,-0.06046 9.8315486,9.8315486 0 0 0 -0.121957,-0.05891 9.8315486,9.8315486 0 0 0 -0.122989,-0.05685 9.8315486,9.8315486 0 0 0 -0.124024,-0.05529 9.8315486,9.8315486 0 0 0 -0.124542,-0.05374 9.8315486,9.8315486 0 0 0 -0.125055,-0.05219 9.8315486,9.8315486 0 0 0 -0.126093,-0.05013 9.8315486,9.8315486 0 0 0 -0.126605,-0.04857 9.8315486,9.8315486 0 0 0 -0.127641,-0.04651 9.8315486,9.8315486 0 0 0 -0.04237,-0.01498 z" />
    <path
       id="path1141"
       style="display:inline;fill:#ffffff;fill-opacity:1;stroke:#000000;stroke-width:0.27064;stroke-opacity:1;paint-order:markers fill stroke"
       d="M 42.680125,42.893433 H 8.1504504 a 24.864681,24.864681 0 0 0 17.2645806,6.971665 24.864681,24.864681 0 0 0 17.265094,-6.971665 z" />
    <path
       id="path987"
       style="display:inline;fill:#1c2c71;fill-opacity:1;stroke:#000000;stroke-width:0.27064;stroke-opacity:1;paint-order:markers fill stroke"
       d="M 42.678059,7.1054377 H 8.1520004 a 24.864681,24.864681 0 0 0 -5.756754,8.4966393 9.8315486,9.8315486 0 0 1 0.04238,0.01497 9.8315486,9.8315486 0 0 1 0.127641,0.04651 9.8315486,9.8315486 0 0 1 0.126606,0.04857 9.8315486,9.8315486 0 0 1 0.126092,0.05013 9.8315486,9.8315486 0 0 1 0.125055,0.05219 9.8315486,9.8315486 0 0 1 0.124542,0.05375 9.8315486,9.8315486 0 0 1 0.124024,0.05529 9.8315486,9.8315486 0 0 1 0.122989,0.05685 9.8315486,9.8315486 0 0 1 0.121957,0.05891 9.8315486,9.8315486 0 0 1 0.121438,0.06046 9.8315486,9.8315486 0 0 1 0.120407,0.06201 9.8315486,9.8315486 0 0 1 0.119888,0.06408 9.8315486,9.8315486 0 0 1 0.118856,0.06563 9.8315486,9.8315486 0 0 1 0.117824,0.06666 9.8315486,9.8315486 0 0 1 0.116787,0.06873 9.8315486,9.8315486 0 0 1 0.116274,0.07028 9.8315486,9.8315486 0 0 1 0.114721,0.07183 9.8315486,9.8315486 0 0 1 0.114204,0.0739 9.8315486,9.8315486 0 0 1 0.112655,0.07493 9.8315486,9.8315486 0 0 1 0.112138,0.07648 9.8315486,9.8315486 0 0 1 0.111104,0.07803 9.8315486,9.8315486 0 0 1 0.109553,0.07958 9.8315486,9.8315486 0 0 1 0.108522,0.08113 9.8315486,9.8315486 0 0 1 0.107487,0.08268 9.8315486,9.8315486 0 0 1 0.106452,0.08423 9.8315486,9.8315486 0 0 1 0.105421,0.08578 9.8315486,9.8315486 0 0 1 0.10387,0.08682 9.8315486,9.8315486 0 0 1 0.102836,0.08837 9.8315486,9.8315486 0 0 1 0.101803,0.08992 9.8315486,9.8315486 0 0 1 0.100251,0.09147 9.8315486,9.8315486 0 0 1 0.0987,0.0925 9.8315486,9.8315486 0 0 1 0.09818,0.09405 9.8315486,9.8315486 0 0 1 0.09612,0.09509 9.8315486,9.8315486 0 0 1 0.09509,0.09663 9.8315486,9.8315486 0 0 1 0.09405,0.09819 9.8315486,9.8315486 0 0 1 0.0925,0.09922 9.8315486,9.8315486 0 0 1 0.09095,0.100251 9.8315486,9.8315486 0 0 1 0.08992,0.101804 9.8315486,9.8315486 0 0 1 0.08785,0.102835 9.8315486,9.8315486 0 0 1 0.08682,0.104386 9.8315486,9.8315486 0 0 1 0.08578,0.105421 9.8315486,9.8315486 0 0 1 0.08371,0.106452 9.8315486,9.8315486 0 0 1 0.08268,0.107487 9.8315486,9.8315486 0 0 1 0.08062,0.109038 9.8315486,9.8315486 0 0 1 0.07958,0.110072 9.8315486,9.8315486 0 0 1 0.07803,0.111104 9.8315486,9.8315486 0 0 1 0.07648,0.111619 9.8315486,9.8315486 0 0 1 0.07441,0.113173 9.8315486,9.8315486 0 0 1 0.07338,0.114205 9.8315486,9.8315486 0 0 1 0.07183,0.115239 9.8315486,9.8315486 0 0 1 0.07028,0.116272 9.8315486,9.8315486 0 0 1 0.06821,0.116789 9.8315486,9.8315486 0 0 1 0.06666,0.117822 9.8315486,9.8315486 0 0 1 0.06563,0.119372 9.8315486,9.8315486 0 0 1 0.06356,0.119372 9.8315486,9.8315486 0 0 1 0.06201,0.120922 9.8315486,9.8315486 0 0 1 0.05994,0.121442 9.8315486,9.8315486 0 0 1 0.0584,0.122473 9.8315486,9.8315486 0 0 1 0.05736,0.122988 9.8315486,9.8315486 0 0 1 0.05478,0.124024 9.8315486,9.8315486 0 0 1 0.05374,0.124542 9.8315486,9.8315486 0 0 1 0.05168,0.125574 9.8315486,9.8315486 0 0 1 0.05012,0.125571 9.8315486,9.8315486 0 0 1 0.04806,0.127124 9.8315486,9.8315486 0 0 1 0.04651,0.127125 9.8315486,9.8315486 0 0 1 0.04496,0.128159 9.8315486,9.8315486 0 0 1 0.04289,0.128672 9.8315486,9.8315486 0 0 1 0.04082,0.129193 9.8315486,9.8315486 0 0 1 0.03979,0.129707 9.8315486,9.8315486 0 0 1 0.03721,0.130225 9.8315486,9.8315486 0 0 1 0.03617,0.130741 9.8315486,9.8315486 0 0 1 0.03411,0.131776 9.8315486,9.8315486 0 0 1 0.03204,0.131257 9.8315486,9.8315486 0 0 1 0.03049,0.132292 9.8315486,9.8315486 0 0 1 0.02842,0.132808 9.8315486,9.8315486 0 0 1 0.02635,0.13281 9.8315486,9.8315486 0 0 1 0.02532,0.133323 9.8315486,9.8315486 0 0 1 0.02273,0.133842 9.8315486,9.8315486 0 0 1 0.02119,0.133843 9.8315486,9.8315486 0 0 1 0.01963,0.134358 9.8315486,9.8315486 0 0 1 0.01707,0.13436 9.8315486,9.8315486 0 0 1 0.01601,0.134874 9.8315486,9.8315486 0 0 1 0.01344,0.134877 9.8315486,9.8315486 0 0 1 0.01188,0.134874 9.8315486,9.8315486 0 0 1 0.01034,0.135393 9.8315486,9.8315486 0 0 1 0.0083,0.135392 9.8315486,9.8315486 0 0 1 0.0062,0.135393 9.8315486,9.8315486 0 0 1 0.0041,0.135392 9.8315486,9.8315486 0 0 1 0.0027,0.135909 9.8315486,9.8315486 0 0 1 0.0011,0.117821 9.8315486,9.8315486 0 0 1 -0.0011,0.135393 9.8315486,9.8315486 0 0 1 -0.0031,0.135909 9.8315486,9.8315486 0 0 1 -0.0047,0.135392 9.8315486,9.8315486 0 0 1 -0.0062,0.135393 9.8315486,9.8315486 0 0 1 -0.0088,0.135392 9.8315486,9.8315486 0 0 1 -0.01034,0.135393 9.8315486,9.8315486 0 0 1 -0.01188,0.134874 9.8315486,9.8315486 0 0 1 -0.01394,0.134877 9.8315486,9.8315486 0 0 1 -0.01601,0.134874 9.8315486,9.8315486 0 0 1 -0.01757,0.13436 9.8315486,9.8315486 0 0 1 -0.01963,0.134358 9.8315486,9.8315486 0 0 1 -0.02119,0.133841 9.8315486,9.8315486 0 0 1 -0.02376,0.133326 9.8315486,9.8315486 0 0 1 -0.02479,0.133324 9.8315486,9.8315486 0 0 1 -0.02687,0.133326 9.8315486,9.8315486 0 0 1 -0.02894,0.132292 9.8315486,9.8315486 0 0 1 -0.03049,0.132291 9.8315486,9.8315486 0 0 1 -0.03255,0.131773 9.8315486,9.8315486 0 0 1 -0.03411,0.13126 9.8315486,9.8315486 0 0 1 -0.03617,0.130741 9.8315486,9.8315486 0 0 1 -0.03772,0.130226 9.8315486,9.8315486 0 0 1 -0.03979,0.129706 9.8315486,9.8315486 0 0 1 -0.04134,0.128675 9.8315486,9.8315486 0 0 1 -0.04341,0.128675 9.8315486,9.8315486 0 0 1 -0.04496,0.128156 9.8315486,9.8315486 0 0 1 -0.04651,0.127125 9.8315486,9.8315486 0 0 1 -0.04858,0.126608 9.8315486,9.8315486 0 0 1 -0.05013,0.12609 9.8315486,9.8315486 0 0 1 -0.05219,0.125574 9.8315486,9.8315486 0 0 1 -0.05323,0.124539 9.8315486,9.8315486 0 0 1 -0.05581,0.123508 9.8315486,9.8315486 0 0 1 -0.05685,0.122989 9.8315486,9.8315486 0 0 1 -0.05891,0.122473 9.8315486,9.8315486 0 0 1 -0.06046,0.121441 9.8315486,9.8315486 0 0 1 -0.06201,0.120406 9.8315486,9.8315486 0 0 1 -0.06408,0.119372 9.8315486,9.8315486 0 0 1 -0.06511,0.118856 9.8315486,9.8315486 0 0 1 -0.06718,0.117822 9.8315486,9.8315486 0 0 1 -0.06873,0.117306 9.8315486,9.8315486 0 0 1 -0.07028,0.115755 9.8315486,9.8315486 0 0 1 -0.07183,0.115237 9.8315486,9.8315486 0 0 1 -0.07338,0.113688 9.8315486,9.8315486 0 0 1 -0.07493,0.113173 9.8315486,9.8315486 0 0 1 -0.077,0.112136 9.8315486,9.8315486 0 0 1 -0.07803,0.110588 9.8315486,9.8315486 0 0 1 -0.07958,0.109556 9.8315486,9.8315486 0 0 1 -0.08113,0.109037 9.8315486,9.8315486 0 0 1 -0.08268,0.107485 9.8315486,9.8315486 0 0 1 -0.08423,0.106455 9.8315486,9.8315486 0 0 1 -0.08527,0.104902 9.8315486,9.8315486 0 0 1 -0.08733,0.104386 9.8315486,9.8315486 0 0 1 -0.08837,0.102838 9.8315486,9.8315486 0 0 1 -0.08992,0.101285 9.8315486,9.8315486 0 0 1 -0.09095,0.100253 9.8315486,9.8315486 0 0 1 -0.09302,0.09922 9.8315486,9.8315486 0 0 1 -0.09353,0.09767 9.8315486,9.8315486 0 0 1 -0.0956,0.09663 9.8315486,9.8315486 0 0 1 -0.09664,0.09508 9.8315486,9.8315486 0 0 1 -0.09767,0.09405 9.8315486,9.8315486 0 0 1 -0.09922,0.09199 9.8315486,9.8315486 0 0 1 -0.100769,0.09147 9.8315486,9.8315486 0 0 1 -0.101801,0.0894 9.8315486,9.8315486 0 0 1 -0.102836,0.08837 9.8315486,9.8315486 0 0 1 -0.104386,0.08682 9.8315486,9.8315486 0 0 1 -0.105421,0.08527 9.8315486,9.8315486 0 0 1 -0.106452,0.08423 9.8315486,9.8315486 0 0 1 -0.10749,0.08216 9.8315486,9.8315486 0 0 1 -0.109035,0.08113 9.8315486,9.8315486 0 0 1 -0.109556,0.07958 9.8315486,9.8315486 0 0 1 -0.111103,0.07751 9.8315486,9.8315486 0 0 1 -0.112139,0.07648 9.8315486,9.8315486 0 0 1 -0.11317,0.07493 9.8315486,9.8315486 0 0 1 -0.114205,0.07338 9.8315486,9.8315486 0 0 1 -0.115239,0.07183 9.8315486,9.8315486 0 0 1 -0.115755,0.06976 9.8315486,9.8315486 0 0 1 -0.117306,0.06873 9.8315486,9.8315486 0 0 1 -0.117822,0.06666 9.8315486,9.8315486 0 0 1 -0.118856,0.06511 9.8315486,9.8315486 0 0 1 -0.119888,0.06356 9.8315486,9.8315486 0 0 1 -0.120925,0.06201 9.8315486,9.8315486 0 0 1 -0.121438,0.06046 9.8315486,9.8315486 0 0 1 -0.121957,0.05839 9.8315486,9.8315486 0 0 1 -0.123505,0.05685 9.8315486,9.8315486 0 0 1 -0.123508,0.05529 9.8315486,9.8315486 0 0 1 -0.125058,0.05323 9.8315486,9.8315486 0 0 1 -0.125055,0.05168 9.8315486,9.8315486 0 0 1 -0.126092,0.05013 9.8315486,9.8315486 0 0 1 -0.126606,0.04857 9.8315486,9.8315486 0 0 1 -0.127641,0.04599 9.8315486,9.8315486 0 0 1 -0.117824,0.04134 24.864681,24.864681 0 0 0 5.847189,8.724016 H 42.680207 A 24.864681,24.864681 0 0 0 50.279744,24.999942 24.864681,24.864681 0 0 0 42.678141,7.1054267 Z" />
    <path
       id="path985"
       style="display:inline;fill:#ffffff;fill-opacity:1;stroke:#000000;stroke-width:0.27064;stroke-opacity:1;paint-order:markers fill stroke"
       d="M 25.396426,0.13531999 A 24.864681,24.864681 0 0 0 8.1520004,7.1054377 H 42.678059 a 24.864681,24.864681 0 0 0 -17.263028,-6.97011771 24.864681,24.864681 0 0 0 -0.0186,0 z" />
    <circle
       style="display:inline;opacity:0.88141;mix-blend-mode:normal;fill:url(#radialGradient1561-9-6);fill-opacity:1;stroke:none;stroke-width:0.212909;stroke-opacity:1;paint-order:markers fill stroke"
       id="path1129-9-74"
       cx="25"
       cy="25.000326"
       r="25" />
    <circle
       style="display:inline;opacity:0.88141;mix-blend-mode:normal;fill:url(#radialGradient1561-8);fill-opacity:1;stroke:none;stroke-width:0.212909;stroke-opacity:1;paint-order:markers fill stroke"
       id="path1129-2"
       cx="25.415184"
       cy="25.000326"
       r="25" />
  </g>
</svg>
