<?xml version="1.0" encoding="utf-8"?>
<!-- Generator: Adobe Illustrator 16.0.0, SVG Export Plug-In . SVG Version: 6.00 Build 0)  -->
<!DOCTYPE svg PUBLIC "-//W3C//DTD SVG 1.1//EN" "http://www.w3.org/Graphics/SVG/1.1/DTD/svg11.dtd" [
	<!ENTITY ns_flows "http://ns.adobe.com/Flows/1.0/">
	<!ENTITY ns_extend "http://ns.adobe.com/Extensibility/1.0/">
	<!ENTITY ns_ai "http://ns.adobe.com/AdobeIllustrator/10.0/">
	<!ENTITY ns_graphs "http://ns.adobe.com/Graphs/1.0/">
]>
<svg version="1.1" id="Layer_1" xmlns:x="&ns_extend;" xmlns:i="&ns_ai;" xmlns:graph="&ns_graphs;"
	 xmlns="http://www.w3.org/2000/svg" xmlns:xlink="http://www.w3.org/1999/xlink" xmlns:a="http://ns.adobe.com/AdobeSVGViewerExtensions/3.0/"
	 x="0px" y="0px" width="258.135px" height="258.491px" viewBox="0 0 258.135 258.491" enable-background="new 0 0 258.135 258.491"
	 xml:space="preserve">
<symbol  id="New_Symbol_1_1_" viewBox="-111.953 -42.942 223.906 85.885">
	<text transform="matrix(1 0 0 -1 -111.9531 -24.3564)"><tspan x="0" y="0" fill="#FFFFFF" font-family="'FuturaBT-Bold'" font-size="78.4827">PO</tspan><tspan x="116.919" y="0" fill="#FFFFFF" font-family="'FuturaBT-Bold'" font-size="78.4827" letter-spacing="-1">O</tspan><tspan x="182.135" y="0" fill="#FFFFFF" font-family="'FuturaBT-Bold'" font-size="78.4827">L</tspan></text>
</symbol>
<symbol  id="New_Symbol_8" viewBox="-71.229 -71.229 142.458 142.457">
	<path fill="#FFFFFF" d="M71.229,0c0-39.339-31.89-71.229-71.229-71.229S-71.229-39.339-71.229,0S-39.339,71.229,0,71.229
		S71.229,39.339,71.229,0z"/>
</symbol>
<g>
	<path fill="#0082B3" d="M129.078,258.513c-7.129,0-14.123-0.58-20.941-1.695c-6.817-1.115-13.457-2.765-19.875-4.906
		c-6.417-2.141-12.612-4.771-18.541-7.849c-5.928-3.077-11.589-6.6-16.938-10.523c-4.665-3.704-10.699-8.882-15.068-12.93
		c-4.681-4.682-9.006-9.72-12.931-15.068c-3.924-5.35-7.446-11.011-10.523-16.939c-3.076-5.928-5.707-12.123-7.848-18.541
		c-2.142-6.417-3.791-13.057-4.906-19.874s-1.695-13.813-1.695-20.94c0-7.127,0.58-14.122,1.695-20.938
		c1.115-6.817,2.765-13.456,4.906-19.874c2.141-6.417,4.771-12.612,7.848-18.54c3.077-5.928,6.6-11.59,10.524-16.938
		c3.923-5.35,8.249-10.388,12.93-15.069c4.682-4.682,9.72-9.007,15.068-12.931c4.956-3.352,11.626-7.773,16.938-10.524
		c5.364-2.778,12.801-5.971,18.541-7.851c5.837-1.91,13.813-3.926,19.875-4.906c6.223-1.006,14.644-1.439,20.941-1.695
		c71.27,0,129.246,57.996,129.246,129.268C258.324,200.525,200.348,258.513,129.078,258.513"/>
	<path fill="#0082B3" d="M258.324,129.246c0,71.279-57.977,129.267-129.246,129.267c-7.129,0-14.123-0.58-20.941-1.695
		c-6.817-1.115-13.457-2.765-19.875-4.906c-6.417-2.141-12.612-4.771-18.541-7.849c-5.928-3.077-11.589-6.6-16.938-10.523
		c-2.335-1.854-5.449-4.326-7.784-6.181l-7.284-6.749c-4.681-4.682-9.006-9.72-12.931-15.068
		c-3.924-5.35-7.446-11.011-10.523-16.939c-3.076-5.928-5.707-12.123-7.848-18.541c-2.142-6.417-3.791-13.057-4.906-19.874
		s-1.695-13.813-1.695-20.94c0-7.127,0.58-14.122,1.695-20.938c1.115-6.817,2.765-13.456,4.906-19.874
		c2.141-6.417,4.771-12.612,7.848-18.54c3.077-5.928,6.6-11.59,10.524-16.938c3.923-5.35,8.249-10.388,12.93-15.069
		c0.309-0.309,0.619-0.616,0.931-0.922c-60.604,62.97-27.998,130.56,62.299,129.146c95.461-1.494,167.522-75.947,103.346-138.323
		c-9.275-9.015-30.283-24.579-66.761-27.534C204.874,4.62,258.324,60.813,258.324,129.246"/>
	<path fill="#007CAA" d="M258.324,129.246c0,71.279-57.977,129.267-129.246,129.267c-7.129,0-14.123-0.58-20.941-1.695
		c-6.817-1.115-13.457-2.765-19.875-4.906c-6.417-2.141-12.612-4.771-18.541-7.849c-5.928-3.077-11.589-6.6-16.938-10.523
		c-2.335-1.854-5.449-4.326-7.784-6.181l-7.284-6.749c-4.681-4.682-9.006-9.72-12.931-15.068
		c-3.924-5.35-7.446-11.011-10.523-16.939c-3.076-5.928-5.707-12.123-7.848-18.541c-2.142-6.417-3.791-13.057-4.906-19.874
		s-1.695-13.813-1.695-20.94c0-7.127,0.58-14.122,1.695-20.938c1.115-6.817,2.765-13.456,4.906-19.874
		c2.141-6.417,4.771-12.612,7.848-18.54c3.077-5.928,6.6-11.59,10.524-16.938c0.499-0.682,1.005-1.357,1.518-2.028
		c-57.006,81.29,14.489,134.916,109.46,115.612c103.472-21.032,123.703-104.186,59.937-146.854
		c-8.282-5.541-20.154-12.441-38.604-16.648C214.938,15.872,258.324,67.592,258.324,129.246"/>
	<path fill="#0076A2" d="M258.324,129.246c0,71.279-57.977,129.267-129.246,129.267c-7.129,0-14.123-0.58-20.941-1.695
		c-6.817-1.115-13.457-2.765-19.875-4.906c-6.417-2.141-12.612-4.771-18.541-7.849c-5.928-3.077-11.589-6.6-16.938-10.523
		c-2.335-1.854-5.449-4.326-7.784-6.181l-7.284-6.749c-4.681-4.682-9.006-9.72-12.931-15.068
		c-3.924-5.35-7.446-11.011-10.523-16.939c-3.076-5.928-5.707-12.123-7.848-18.541c-2.142-6.417-3.791-13.057-4.906-19.874
		s-1.695-13.813-1.695-20.94c0-7.127,0.58-14.122,1.695-20.938c1.115-6.817,2.765-13.456,4.906-19.874
		c2.141-6.417,4.771-12.612,7.848-18.54c0.996-1.918,2.038-3.808,3.125-5.668c-49.348,91.533,48.164,128.096,135.559,102.55
		c100.583-29.401,105.551-111.854,35.846-151.937c-5.874-3.377-12.971-6.092-16.002-7.252
		C222.611,25.549,258.324,73.309,258.324,129.246"/>
	<path fill="#006F9A" d="M258.324,129.246c0,71.279-57.977,129.267-129.246,129.267c-7.129,0-14.123-0.58-20.941-1.695
		c-6.817-1.115-13.457-2.765-19.875-4.906c-6.417-2.141-12.612-4.771-18.541-7.849c-5.928-3.077-11.589-6.6-16.938-10.523
		c-2.335-1.854-5.449-4.326-7.784-6.181l-7.284-6.749c-4.681-4.682-9.006-9.72-12.931-15.068
		c-3.924-5.35-7.446-11.011-10.523-16.939c-3.076-5.928-5.707-12.123-7.848-18.541c-2.142-6.417-3.791-13.057-4.906-19.874
		s-1.695-13.813-1.695-20.94c0-7.127,0.58-14.122,1.695-20.938c1.115-6.817,2.765-13.456,4.906-19.874
		c1.208-3.623,2.573-7.176,4.087-10.649c-37.741,91.598,71.604,121.82,158.913,88.164c97.732-37.675,80.307-120.318,17.567-152.257
		C229.254,34.968,258.324,78.778,258.324,129.246"/>
	<path fill="#006992" d="M258.324,129.246c0,71.279-57.977,129.267-129.246,129.267c-7.129,0-14.123-0.58-20.941-1.695
		c-6.817-1.115-13.457-2.765-19.875-4.906c-6.417-2.141-12.612-4.771-18.541-7.849c-5.928-3.077-11.589-6.6-16.938-10.523
		c-2.335-1.854-5.449-4.326-7.784-6.181l-7.284-6.749c-4.681-4.682-9.006-9.72-12.931-15.068
		c-3.924-5.35-7.446-11.011-10.523-16.939c-3.076-5.928-5.707-12.123-7.848-18.541c-2.142-6.417-3.791-13.057-4.906-19.874
		s-1.695-13.813-1.695-20.94c0-7.127,0.58-14.122,1.695-20.938c0.921-5.632,2.207-11.142,3.833-16.505
		c-26.042,105.756,117.436,110.824,195.247,64.276c48.869-29.234,62.721-88.986-0.115-134.542
		C235.316,44.718,258.324,84.348,258.324,129.246"/>
	<path fill="#00638A" d="M258.324,129.246c0,71.279-57.977,129.267-129.246,129.267c-7.129,0-14.123-0.58-20.941-1.695
		c-6.817-1.115-13.457-2.765-19.875-4.906c-6.417-2.141-12.612-4.771-18.541-7.849c-5.928-3.077-11.589-6.6-16.938-10.523
		c-2.335-1.854-5.449-4.326-7.784-6.181l-7.284-6.749c-4.681-4.682-9.006-9.72-12.931-15.068
		c-3.924-5.35-7.446-11.011-10.523-16.939c-3.076-5.928-5.707-12.123-7.848-18.541c-2.142-6.417-3.791-13.057-4.906-19.874
		s-1.695-13.813-1.695-20.94c0-7.127,0.58-14.122,1.695-20.938c0.135-0.829,0.278-1.654,0.43-2.478
		c-0.34,2.545-0.793,5.938-1.133,8.483c-6.911,99.315,163.264,83.997,219.958,33.268c35.886-32.11,33.013-79.771-6.985-115.9
		C241.053,55.4,258.324,90.346,258.324,129.246"/>
	<path fill="#005D82" d="M258.324,129.246c0,71.279-57.977,129.267-129.246,129.267c-7.129,0-14.123-0.58-20.941-1.695
		c-6.817-1.115-13.457-2.765-19.875-4.906c-6.417-2.141-12.612-4.771-18.541-7.849c-5.928-3.077-11.589-6.6-16.938-10.523
		c-2.335-1.854-5.449-4.326-7.784-6.181l-7.284-6.749c-4.681-4.682-9.006-9.72-12.931-15.068
		c-3.924-5.35-7.446-11.011-10.523-16.939c-3.076-5.928-5.707-12.123-7.848-18.541c-2.142-6.417-3.791-13.057-4.906-19.874
		s-1.695-13.813-1.695-20.94c0-3.188,0.116-6.35,0.344-9.48c-2.37,108.146,179.051,77.688,226.203,31.015
		c11.092-10.979,43.941-51.034,0.94-105.468C246.634,67.914,258.324,97.241,258.324,129.246"/>
	<path fill="#005779" d="M258.324,129.246c0,71.279-57.977,129.267-129.246,129.267c-7.129,0-14.123-0.58-20.941-1.695
		c-6.817-1.115-13.457-2.765-19.875-4.906c-6.417-2.141-12.612-4.771-18.541-7.849c-5.928-3.077-11.589-6.6-16.938-10.523
		c-2.335-1.854-5.449-4.326-7.784-6.181l-7.284-6.749c-4.681-4.682-9.006-9.72-12.931-15.068
		c-3.924-5.35-7.446-11.011-10.523-16.939c-3.076-5.928-5.707-12.123-7.848-18.541c-2.142-6.417-3.791-13.057-4.906-19.874
		c-0.857-5.244-1.398-10.592-1.604-16.025C9.08,240.31,199.813,195.81,236.85,148.109c9.164-11.801,27.689-43.928,1.865-87.254
		C251.138,80.705,258.324,104.152,258.324,129.246"/>
	<path fill="#005071" d="M258.324,129.246c0,71.279-57.977,129.267-129.246,129.267c-7.129,0-14.123-0.58-20.941-1.695
		c-6.817-1.115-13.457-2.765-19.875-4.906c-6.417-2.141-12.612-4.771-18.541-7.849c-5.928-3.077-11.589-6.6-16.938-10.523
		c-2.335-1.854-5.449-4.326-7.784-6.181l-7.284-6.749c-4.681-4.682-9.006-9.72-12.931-15.068
		c-3.924-5.35-7.446-11.011-10.523-16.939c-3.076-5.928-5.707-12.123-7.848-18.541c-2.142-6.417-3.791-13.057-4.906-19.874
		c-0.07-0.431-0.139-0.861-0.205-1.293c0.277,1.465,0.646,3.42,0.923,4.885c25.312,87.246,209.432,52.323,243.301-8.834
		c7.681-13.868,14.224-36.906,1.786-67.906C254.39,93.013,258.324,110.679,258.324,129.246"/>
	<path fill="#004A69" d="M258.324,129.246c0,71.279-57.977,129.267-129.246,129.267c-7.129,0-14.123-0.58-20.941-1.695
		c-6.817-1.115-13.457-2.765-19.875-4.906c-6.417-2.141-12.612-4.771-18.541-7.849c-5.928-3.077-11.589-6.6-16.938-10.523
		c-2.335-1.854-5.449-4.326-7.784-6.181l-7.284-6.749c-4.681-4.682-9.006-9.72-12.931-15.068
		c-3.924-5.35-7.446-11.011-10.523-16.939c-3.076-5.928-5.707-12.123-7.848-18.541c-0.606-1.815-1.173-3.648-1.699-5.499
		c0.082,0.28,0.191,0.653,0.273,0.934C18.985,203.919,48.027,215,120.077,209.407c105.915-8.223,124.21-49.418,130.222-62.955
		c6.984-15.727,8.138-33.029,3.429-51.428C256.725,105.929,258.324,117.404,258.324,129.246"/>
	<path fill="#004360" d="M258.324,129.246c0,71.279-57.977,129.267-129.246,129.267c-7.129,0-14.123-0.58-20.941-1.695
		c-6.817-1.115-13.457-2.765-19.875-4.906c-6.417-2.141-12.612-4.771-18.541-7.849c-5.928-3.077-11.589-6.6-16.938-10.523
		c-2.335-1.854-5.449-4.326-7.784-6.181l-7.284-6.749c-4.681-4.682-9.006-9.72-12.931-15.068
		c-3.924-5.35-7.446-11.011-10.523-16.939c-0.953-1.838-1.864-3.701-2.731-5.589c21.169,41.551,63.286,42.694,149.687,29.542
		c64.261-9.782,86.575-41.636,93.979-66.635c3.635-12.274,2.83-24.73,2.564-28.823C258.133,121.097,258.324,125.149,258.324,129.246
		"/>
	<path fill="#0088BB" d="M173.83,9.028c76.291,34.349,64.75,116.518-20.243,144.133C64.848,181.994-19.524,140.199,19.419,62.936
		c11.228-22.274,30.965-36.201,39.394-42.147l8.574-5.116l2.334-1.241l9.088-4.276l9.453-3.574l9.788-2.838l10.087-2.068
		c2.548-0.396,5.965-0.792,8.523-1.103C143.635-1.567,162.638,3.989,173.83,9.028"/>
	<path fill="#008EC4" d="M181.896,13.892c68.784,40.804,42.579,120.544-45.965,139.873C43.326,173.979-16.192,119.354,26.131,52.991
		C57.406,3.949,133.105-15.052,181.896,13.892"/>
	<path fill="#0094CC" d="M188.725,19.686c55.458,42.696,27.072,121.581-70.936,133.204C31.962,163.068-13.554,103.892,33.82,43.719
		C69.925-2.14,145.205-13.818,188.725,19.686"/>
	<path fill="#009AD4" d="M194.09,26.356c46.322,47.218,3.992,122.005-93.967,124.095C29.08,151.967-12.726,92.606,42.481,35.178
		C82.512-6.462,157.606-10.832,194.09,26.356"/>
	<path fill="#00A0DC" d="M191.129,26.356c40.665,42.245,10.977,117.677-91.133,120.392C32.275,148.549-8.318,91.171,43.615,35.217
		C81.557-5.662,156.002-10.134,191.129,26.356"/>
	<path fill="#00A6E4" d="M193.057,33.849c28.391,44.147-6.219,79.124-10.258,82.967c-29.666,28.22-93.877,26.954-103.096,24.862
		C6.782,125.132,8.412,54.841,64.521,19.686C112.464-10.353,172.984,2.634,193.057,33.849"/>
	<path fill="#00ADEF" d="M191.77,60.709c11.592,42.883-15.201,58.9-20.689,61.676c-34.707,17.551-91.195,24.214-114.846,6.861
		C45.629,121.464,39.227,116.767,35.342,93c-0.546-3.339-0.433-7.938,0.121-11.275c2.224-13.397,7.384-34.059,7.419-34.162
		C43.717,45.07,63.235,15.939,96.5,9.028c2.867-0.596,43.131-0.771,47.869-0.208c3.736,0.444,21.014,8.328,21.152,8.403
		C169.501,19.382,186.454,41.044,191.77,60.709"/>
	<path fill="#00B8F1" d="M187.885,93c-6.99,30.63-37.274,35.937-51.828,38.487c-59.762,10.473-72.09,0.99-84.076-14.672
		c-17.65-23.062,6.113-77.404,82.38-71.962C168.176,47.267,193.187,69.766,187.885,93"/>
	<path fill="#00BDF2" d="M183.547,93c-2.328,26.731-33.976,32.696-47.489,35.243c-0.337,0.063-37.296,5.82-53.273,3.506
		c-0.181-0.026-18.308-2.958-25.6-14.934c-0.181-0.297-17.659-29.998,19.083-55.706c24.848-17.385,72.428-8.744,72.863-8.625
		C171.645,58.647,185.154,74.55,183.547,93"/>
	<path fill="#00C1F3" d="M180.467,93c-2.694,24.069-30.871,29.744-44.412,32.472c-0.288,0.058-36.008,4.945-53.277,2.921
		c-0.133-0.016-15.646-4.831-20.564-11.577C46.088,94.691,61.6,47.151,134.724,53.321C172.285,56.49,181.762,81.423,180.467,93"/>
	<path fill="#27C4F4" d="M177.34,93c-2.914,21.402-28.834,27.017-41.291,29.714c-0.245,0.054-28.027,5.012-53.254,2.845
		c-5.297-0.455-11.578-5.062-15.414-8.743c-16.256-15.605-8.653-58.856,52.261-61.125c24.672-0.918,29.765,2.375,46.639,13.286
		C166.412,69.062,179.227,79.138,177.34,93"/>
	<path fill="#44C8F5" d="M170.192,101.92c-3.587,7.753-16.193,14.031-16.308,14.066c-18.484,5.714-53.812,7.701-54.13,7.71
		c-7.483,0.195-30.257,0.789-36.677-18.981C51.18,68.066,115.687,47.906,150.354,61.88C165.104,67.826,180.52,79.599,170.192,101.92
		"/>
	<path fill="#56CAF5" d="M169.71,95.797c-4.491,9.923-8.733,19.296-33.683,21.448c-46.02,3.971-46.02,3.971-53.133,2.691
		c-5.106-0.918-15.594-12.501-16.558-15.222c-8.463-23.896,21.182-38.492,22.447-39.103c9.169-4.415,46.289-7.789,61.83-1.479
		C171.899,72.777,172.053,90.62,169.71,95.797"/>
	<path fill="#64CDF6" d="M162.275,104.715c-4.24,4.975-6.176,7.244-26.26,10.394l-36.19,3.552
		c-5.071,0.195-11.812-0.888-16.849-1.511c-0.743-0.092-13.507-12.317-13.581-12.435c-1.911-2.999-2.25-8.187-1.806-11.715
		c1.007-8.004,11.521-26.497,36.199-29.309c17.035-1.941,52.48-5.979,62.762,18.033C169.951,89.665,168.512,97.4,162.275,104.715"/>
	<path fill="#6FD0F6" d="M158.906,104.715c-5.032,5.528-17.693,7.698-22.902,8.374c-32.297,4.191-45.214,2.487-52.932,1.469
		c-0.15-0.021-14.543-6.843-12.937-21.558c1.407-12.896,16.71-25.484,33.414-27.489c15.058-1.807,50.32-6.037,60.568,16.214
		C165.832,85.445,169.398,93.189,158.906,104.715"/>
	<path fill="#7AD2F7" d="M155.502,104.715c-2.95,3.049-19.365,6.349-19.514,6.364c-34.609,3.488-34.609,3.488-52.803,0.926
		c-2.129-0.301-11.761-8.679-10.848-19.005c1.375-15.536,20.854-24.372,30.979-25.65c19.096-2.41,31.775-1.252,31.851-1.234
		c4.828,1.189,11.572,2.304,15.856,4.827c3.916,2.307,8.642,6.7,10.64,10.782C163.944,86.383,167.068,92.762,155.502,104.715"/>
	<path fill="#83D5F7" d="M153.508,103.251c-2.293,1.977-17.401,5.806-17.535,5.827l-35.988,3.057
		C83.469,109.99,73.5,108.695,74.566,93c1.854-27.266,72.238-36.645,84.621-11.275C160.898,85.228,164.903,93.433,153.508,103.251"
		/>
	<path fill="#8CD7F8" d="M153.367,99.909c-0.057,0.05-7.699,5.326-17.412,7.179l-35.905,2.994
		C87.202,108.922,76.106,107.921,76.82,93c0.723-15.089,21.055-21.203,26.049-21.908c19.471-2.749,32.309-1.407,32.402-1.389
		c0.172,0.034,17.65,4.313,21.42,12.021C161.329,91.205,157.613,96.237,153.367,99.909"/>
	<path fill="#94D9F8" d="M153.209,96.6c-0.073,0.064-14.988,8.017-17.273,8.509l-35.813,2.931
		c-0.119-0.006-15.055-2.834-16.475-3.85C80.701,102.081,78.986,96.622,79.1,93c0.002-0.071,2.053-8.651,7.162-12.961
		c4.074-3.438,11.105-6.106,16.377-6.898c21.6-3.244,32.579-1.495,32.688-1.477c0.151,0.025,17.015,6.297,18.85,10.061
		C154.373,82.128,158.932,91.667,153.209,96.6"/>
	<path fill="#9BDCF9" d="M153.035,93.324c-4.379,3.845-11.463,7.795-17.128,9.155l-35.704,3.528
		c-0.191-0.001-19.098-2.068-18.8-13.008c0.104-3.838,3.124-8.795,6.054-11.275c3.736-3.163,10.128-5.733,14.96-6.515
		c17.747-2.87,32.831-1.275,32.97-1.257c5.222,0.698,12.521,3.606,15.748,7.771C151.196,81.803,153.813,92.643,153.035,93.324"/>
	<path fill="#A2DEF9" d="M135.874,99.708l-35.555,3.654c-0.168-0.021-16.666-6.91-16.589-10.362
		c0.038-1.703,5.752-13.417,18.473-15.701c1.594-0.287,16.066-2.747,33.241-1.032c3.683,0.368,8.849,2.492,11.063,5.458
		c2.055,2.75,3.468,8.193,1.955,11.275C146.577,96.842,139.984,98.519,135.874,99.708"/>
	<path fill="#A9E0FA" d="M135.837,96.958c-1.257,0.37-33.617,2.828-35.333,2.685C96.446,99.302,89.55,96.976,88.666,93
		c-0.898-4.045,5.078-8.317,7.979-11.275c1.226-1.25,3.64-1.955,5.352-2.318c0.331-0.07,34.669-4.854,39.827,2.318
		c1.993,2.771,3.086,8.244,1.517,11.275C142.17,95.26,138.279,96.24,135.837,96.958"/>
	<path fill="#AFE2FA" d="M135.797,94.232c-0.085,0.025-13.058,2.402-35.083,1.731c-1.839-0.057-4.843-1.201-5.367-2.964
		c-0.026-0.09,5.349-11.168,6.453-11.467c0.296-0.08,33.088-2.999,35.288,0.191c1.93,2.797,2.693,8.291,1.068,11.275
		C137.774,93.701,136.563,94.006,135.797,94.232"/>
	<path fill="#B6E4FA" d="M118.047,93.344c-2.184,0.056-5.092-0.24-7.273-0.344c2.213-1.001,4.983-3.765,7.374-3.338
		c1.404,0.251,2.37,2.337,3.386,3.338C120.487,93.104,119.098,93.317,118.047,93.344"/>
	<g>
		<defs>
			<path id="SVGID_75_" d="M229.018,153.45c1.95-8.119-1.603-22.463-12.739-15.956c-0.795,0.465-1.788,1.193-2.528,1.74
				c-12.244,10.444-7.44,27.443,0.193,28.114C218.63,167.761,226.832,162.551,229.018,153.45 M213.804,109.027
				c0.03-5.159-5.448-21.082-17.901-12.017c-10.238,8.86-1.585,23.876,5.869,24.501C206.645,121.92,213.755,117.26,213.804,109.027
				 M244.292,152.102c-4.019,19.176-17.805,28.457-22.995,31.952c-39.01,22.776-38.549-19.922-36.961-26.47
				c2.328-9.601,8.913-16.67,12.048-19.592c-23.507,6.086-35.979-24.163-23.585-43.635c15.011-23.582,48.172-30.57,55.647,3.866
				c2.319,10.687-2.091,17.434-3.751,19.974C242.988,110.187,247.287,137.813,244.292,152.102 M255.656,129.862
				c0.756-44.753-35.986-104.114-88.242-67.696C99.7,118.5,139.193,201.433,186.624,207.555
				C218.521,211.671,254.819,179.32,255.656,129.862"/>
		</defs>
		<clipPath id="SVGID_2_">
			<use xlink:href="#SVGID_75_"  overflow="visible"/>
		</clipPath>
		<path clip-path="url(#SVGID_2_)" fill="#B9BBBD" d="M129.078,258.513c-7.129,0-14.123-0.58-20.941-1.695
			c-6.817-1.115-13.457-2.765-19.875-4.906c-6.417-2.141-12.612-4.771-18.541-7.849c-5.928-3.077-11.589-6.6-16.938-10.523
			c-4.665-3.704-10.699-8.882-15.068-12.93c-4.681-4.682-9.006-9.72-12.931-15.068c-3.924-5.35-7.446-11.011-10.523-16.939
			c-3.076-5.928-5.707-12.123-7.848-18.541c-2.142-6.417-3.791-13.057-4.906-19.874s-1.695-13.813-1.695-20.94
			c0-7.127,0.58-14.122,1.695-20.938c1.115-6.817,2.765-13.456,4.906-19.874c2.141-6.417,4.771-12.612,7.848-18.54
			c3.077-5.928,6.6-11.59,10.524-16.938c3.923-5.35,8.249-10.388,12.93-15.069c4.682-4.682,9.72-9.007,15.068-12.931
			c4.956-3.352,11.626-7.773,16.938-10.524c5.364-2.778,12.801-5.971,18.541-7.851c5.837-1.91,13.813-3.926,19.875-4.906
			c6.223-1.006,14.644-1.439,20.941-1.695c71.27,0,129.246,57.996,129.246,129.268C258.324,200.525,200.348,258.513,129.078,258.513
			"/>
		<path clip-path="url(#SVGID_2_)" fill="#B9BBBD" d="M258.324,129.246c0,71.279-57.977,129.267-129.246,129.267
			c-7.129,0-14.123-0.58-20.941-1.695c-6.817-1.115-13.457-2.765-19.875-4.906c-6.417-2.141-12.612-4.771-18.541-7.849
			c-5.928-3.077-11.589-6.6-16.938-10.523c-2.335-1.854-5.449-4.326-7.784-6.181l-7.284-6.749
			c-4.681-4.682-9.006-9.72-12.931-15.068c-3.924-5.35-7.446-11.011-10.523-16.939c-3.076-5.928-5.707-12.123-7.848-18.541
			c-2.142-6.417-3.791-13.057-4.906-19.874s-1.695-13.813-1.695-20.94c0-7.127,0.58-14.122,1.695-20.938
			c1.115-6.817,2.765-13.456,4.906-19.874c2.141-6.417,4.771-12.612,7.848-18.54c3.077-5.928,6.6-11.59,10.524-16.938
			c3.923-5.35,8.249-10.388,12.93-15.069c0.309-0.309,0.619-0.616,0.931-0.922c-60.604,62.97-27.998,130.56,62.299,129.146
			c95.461-1.494,167.522-75.947,103.346-138.323c-9.275-9.015-30.283-24.579-66.761-27.534
			C204.874,4.62,258.324,60.813,258.324,129.246"/>
		<path clip-path="url(#SVGID_2_)" fill="#AFB1B4" d="M258.324,129.246c0,71.279-57.977,129.267-129.246,129.267
			c-7.129,0-14.123-0.58-20.941-1.695c-6.817-1.115-13.457-2.765-19.875-4.906c-6.417-2.141-12.612-4.771-18.541-7.849
			c-5.928-3.077-11.589-6.6-16.938-10.523c-2.335-1.854-5.449-4.326-7.784-6.181l-7.284-6.749
			c-4.681-4.682-9.006-9.72-12.931-15.068c-3.924-5.35-7.446-11.011-10.523-16.939c-3.076-5.928-5.707-12.123-7.848-18.541
			c-2.142-6.417-3.791-13.057-4.906-19.874s-1.695-13.813-1.695-20.94c0-7.127,0.58-14.122,1.695-20.938
			c1.115-6.817,2.765-13.456,4.906-19.874c2.141-6.417,4.771-12.612,7.848-18.54c3.077-5.928,6.6-11.59,10.524-16.938
			c0.499-0.682,1.005-1.357,1.518-2.028c-57.006,81.29,14.489,134.916,109.46,115.612
			c103.472-21.032,123.703-104.186,59.937-146.854c-8.282-5.541-20.154-12.441-38.604-16.648
			C214.938,15.872,258.324,67.592,258.324,129.246"/>
		<path clip-path="url(#SVGID_2_)" fill="#A6A8AB" d="M258.324,129.246c0,71.279-57.977,129.267-129.246,129.267
			c-7.129,0-14.123-0.58-20.941-1.695c-6.817-1.115-13.457-2.765-19.875-4.906c-6.417-2.141-12.612-4.771-18.541-7.849
			c-5.928-3.077-11.589-6.6-16.938-10.523c-2.335-1.854-5.449-4.326-7.784-6.181l-7.284-6.749
			c-4.681-4.682-9.006-9.72-12.931-15.068c-3.924-5.35-7.446-11.011-10.523-16.939c-3.076-5.928-5.707-12.123-7.848-18.541
			c-2.142-6.417-3.791-13.057-4.906-19.874s-1.695-13.813-1.695-20.94c0-7.127,0.58-14.122,1.695-20.938
			c1.115-6.817,2.765-13.456,4.906-19.874c2.141-6.417,4.771-12.612,7.848-18.54c0.996-1.918,2.038-3.808,3.125-5.668
			c-49.348,91.533,48.164,128.096,135.559,102.55c100.583-29.401,105.551-111.854,35.846-151.937
			c-5.874-3.377-12.971-6.092-16.002-7.252C222.611,25.549,258.324,73.309,258.324,129.246"/>
		<path clip-path="url(#SVGID_2_)" fill="#9D9FA2" d="M258.324,129.246c0,71.279-57.977,129.267-129.246,129.267
			c-7.129,0-14.123-0.58-20.941-1.695c-6.817-1.115-13.457-2.765-19.875-4.906c-6.417-2.141-12.612-4.771-18.541-7.849
			c-5.928-3.077-11.589-6.6-16.938-10.523c-2.335-1.854-5.449-4.326-7.784-6.181l-7.284-6.749
			c-4.681-4.682-9.006-9.72-12.931-15.068c-3.924-5.35-7.446-11.011-10.523-16.939c-3.076-5.928-5.707-12.123-7.848-18.541
			c-2.142-6.417-3.791-13.057-4.906-19.874s-1.695-13.813-1.695-20.94c0-7.127,0.58-14.122,1.695-20.938
			c1.115-6.817,2.765-13.456,4.906-19.874c1.208-3.623,2.573-7.176,4.087-10.649c-37.741,91.598,71.604,121.82,158.913,88.164
			c97.732-37.675,80.307-120.318,17.567-152.257C229.254,34.968,258.324,78.778,258.324,129.246"/>
		<path clip-path="url(#SVGID_2_)" fill="#949699" d="M258.324,129.246c0,71.279-57.977,129.267-129.246,129.267
			c-7.129,0-14.123-0.58-20.941-1.695c-6.817-1.115-13.457-2.765-19.875-4.906c-6.417-2.141-12.612-4.771-18.541-7.849
			c-5.928-3.077-11.589-6.6-16.938-10.523c-2.335-1.854-5.449-4.326-7.784-6.181l-7.284-6.749
			c-4.681-4.682-9.006-9.72-12.931-15.068c-3.924-5.35-7.446-11.011-10.523-16.939c-3.076-5.928-5.707-12.123-7.848-18.541
			c-2.142-6.417-3.791-13.057-4.906-19.874s-1.695-13.813-1.695-20.94c0-7.127,0.58-14.122,1.695-20.938
			c0.921-5.632,2.207-11.142,3.833-16.505c-26.042,105.756,117.436,110.824,195.247,64.276
			c48.869-29.234,62.721-88.986-0.115-134.542C235.316,44.718,258.324,84.348,258.324,129.246"/>
		<path clip-path="url(#SVGID_2_)" fill="#8C8E90" d="M258.324,129.246c0,71.279-57.977,129.267-129.246,129.267
			c-7.129,0-14.123-0.58-20.941-1.695c-6.817-1.115-13.457-2.765-19.875-4.906c-6.417-2.141-12.612-4.771-18.541-7.849
			c-5.928-3.077-11.589-6.6-16.938-10.523c-2.335-1.854-5.449-4.326-7.784-6.181l-7.284-6.749
			c-4.681-4.682-9.006-9.72-12.931-15.068c-3.924-5.35-7.446-11.011-10.523-16.939c-3.076-5.928-5.707-12.123-7.848-18.541
			c-2.142-6.417-3.791-13.057-4.906-19.874s-1.695-13.813-1.695-20.94c0-7.127,0.58-14.122,1.695-20.938
			c0.135-0.829,0.278-1.654,0.43-2.478c-0.34,2.545-0.793,5.938-1.133,8.483c-6.911,99.315,163.264,83.997,219.958,33.268
			c35.886-32.11,33.013-79.771-6.985-115.9C241.053,55.4,258.324,90.346,258.324,129.246"/>
		<path clip-path="url(#SVGID_2_)" fill="#838588" d="M258.324,129.246c0,71.279-57.977,129.267-129.246,129.267
			c-7.129,0-14.123-0.58-20.941-1.695c-6.817-1.115-13.457-2.765-19.875-4.906c-6.417-2.141-12.612-4.771-18.541-7.849
			c-5.928-3.077-11.589-6.6-16.938-10.523c-2.335-1.854-5.449-4.326-7.784-6.181l-7.284-6.749
			c-4.681-4.682-9.006-9.72-12.931-15.068c-3.924-5.35-7.446-11.011-10.523-16.939c-3.076-5.928-5.707-12.123-7.848-18.541
			c-2.142-6.417-3.791-13.057-4.906-19.874s-1.695-13.813-1.695-20.94c0-3.188,0.116-6.35,0.344-9.48
			c-2.37,108.146,179.051,77.688,226.203,31.015c11.092-10.979,43.941-51.034,0.94-105.468
			C246.634,67.914,258.324,97.241,258.324,129.246"/>
		<path clip-path="url(#SVGID_2_)" fill="#7B7C7F" d="M258.324,129.246c0,71.279-57.977,129.267-129.246,129.267
			c-7.129,0-14.123-0.58-20.941-1.695c-6.817-1.115-13.457-2.765-19.875-4.906c-6.417-2.141-12.612-4.771-18.541-7.849
			c-5.928-3.077-11.589-6.6-16.938-10.523c-2.335-1.854-5.449-4.326-7.784-6.181l-7.284-6.749
			c-4.681-4.682-9.006-9.72-12.931-15.068c-3.924-5.35-7.446-11.011-10.523-16.939c-3.076-5.928-5.707-12.123-7.848-18.541
			c-2.142-6.417-3.791-13.057-4.906-19.874c-0.857-5.244-1.398-10.592-1.604-16.025C9.08,240.31,199.813,195.81,236.85,148.109
			c9.164-11.801,27.689-43.928,1.865-87.254C251.138,80.705,258.324,104.152,258.324,129.246"/>
		<path clip-path="url(#SVGID_2_)" fill="#727376" d="M258.324,129.246c0,71.279-57.977,129.267-129.246,129.267
			c-7.129,0-14.123-0.58-20.941-1.695c-6.817-1.115-13.457-2.765-19.875-4.906c-6.417-2.141-12.612-4.771-18.541-7.849
			c-5.928-3.077-11.589-6.6-16.938-10.523c-2.335-1.854-5.449-4.326-7.784-6.181l-7.284-6.749
			c-4.681-4.682-9.006-9.72-12.931-15.068c-3.924-5.35-7.446-11.011-10.523-16.939c-3.076-5.928-5.707-12.123-7.848-18.541
			c-2.142-6.417-3.791-13.057-4.906-19.874c-0.07-0.431-0.139-0.861-0.205-1.293c0.277,1.465,0.646,3.42,0.923,4.885
			c25.312,87.246,209.432,52.323,243.301-8.834c7.681-13.868,14.224-36.906,1.786-67.906
			C254.39,93.013,258.324,110.679,258.324,129.246"/>
		<path clip-path="url(#SVGID_2_)" fill="#696A6D" d="M258.324,129.246c0,71.279-57.977,129.267-129.246,129.267
			c-7.129,0-14.123-0.58-20.941-1.695c-6.817-1.115-13.457-2.765-19.875-4.906c-6.417-2.141-12.612-4.771-18.541-7.849
			c-5.928-3.077-11.589-6.6-16.938-10.523c-2.335-1.854-5.449-4.326-7.784-6.181l-7.284-6.749
			c-4.681-4.682-9.006-9.72-12.931-15.068c-3.924-5.35-7.446-11.011-10.523-16.939c-3.076-5.928-5.707-12.123-7.848-18.541
			c-0.606-1.815-1.173-3.648-1.699-5.499c0.082,0.28,0.191,0.653,0.273,0.934C18.985,203.919,48.027,215,120.077,209.407
			c105.915-8.223,124.21-49.418,130.222-62.955c6.984-15.727,8.138-33.029,3.429-51.428
			C256.725,105.929,258.324,117.404,258.324,129.246"/>
		<path clip-path="url(#SVGID_2_)" fill="#606163" d="M258.324,129.246c0,71.279-57.977,129.267-129.246,129.267
			c-7.129,0-14.123-0.58-20.941-1.695c-6.817-1.115-13.457-2.765-19.875-4.906c-6.417-2.141-12.612-4.771-18.541-7.849
			c-5.928-3.077-11.589-6.6-16.938-10.523c-2.335-1.854-5.449-4.326-7.784-6.181l-7.284-6.749
			c-4.681-4.682-9.006-9.72-12.931-15.068c-3.924-5.35-7.446-11.011-10.523-16.939c-0.953-1.838-1.864-3.701-2.731-5.589
			c21.169,41.551,63.286,42.694,149.687,29.542c64.261-9.782,86.575-41.636,93.979-66.635c3.635-12.274,2.83-24.73,2.564-28.823
			C258.133,121.097,258.324,125.149,258.324,129.246"/>
		<path clip-path="url(#SVGID_2_)" fill="#C2C4C6" d="M173.83,9.028c76.291,34.349,64.75,116.518-20.243,144.133
			C64.848,181.994-19.524,140.199,19.419,62.936c11.228-22.274,30.965-36.201,39.394-42.147l8.574-5.116l2.334-1.241l9.088-4.276
			l9.453-3.574l9.788-2.838l10.087-2.068c2.548-0.396,5.965-0.792,8.523-1.103C143.635-1.567,162.638,3.989,173.83,9.028"/>
		<path clip-path="url(#SVGID_2_)" fill="#CCCDCF" d="M181.896,13.892c68.784,40.804,42.579,120.544-45.965,139.873
			C43.326,173.979-16.192,119.354,26.131,52.991C57.406,3.949,133.105-15.052,181.896,13.892"/>
		<path clip-path="url(#SVGID_2_)" fill="#D5D7D8" d="M188.725,19.686c55.458,42.696,27.072,121.581-70.936,133.204
			C31.962,163.068-13.554,103.892,33.82,43.719C69.925-2.14,145.205-13.818,188.725,19.686"/>
		<path clip-path="url(#SVGID_2_)" fill="#DFE0E1" d="M194.09,26.356c46.322,47.218,3.992,122.005-93.967,124.095
			C29.08,151.967-12.726,92.606,42.481,35.178C82.512-6.462,157.606-10.832,194.09,26.356"/>
		<path clip-path="url(#SVGID_2_)" fill="#E8E9EA" d="M191.129,26.356c40.665,42.245,10.977,117.677-91.133,120.392
			C32.275,148.549-8.318,91.171,43.615,35.217C81.557-5.662,156.002-10.134,191.129,26.356"/>
		<path clip-path="url(#SVGID_2_)" fill="#F2F2F3" d="M193.057,33.849c28.391,44.147-6.219,79.124-10.258,82.967
			c-29.666,28.22-93.877,26.954-103.096,24.862C6.782,125.132,8.412,54.841,64.521,19.686
			C112.464-10.353,172.984,2.634,193.057,33.849"/>
		<path clip-path="url(#SVGID_2_)" fill="#FFFFFF" d="M191.77,60.709c11.592,42.883-15.201,58.9-20.689,61.676
			c-34.707,17.551-91.195,24.214-114.846,6.861C45.629,121.464,39.227,116.767,35.342,93c-0.546-3.339-0.433-7.938,0.121-11.275
			c2.224-13.397,7.384-34.059,7.419-34.162C43.717,45.07,63.235,15.939,96.5,9.028c2.867-0.596,43.131-0.771,47.869-0.208
			c3.736,0.444,21.014,8.328,21.152,8.403C169.501,19.382,186.454,41.044,191.77,60.709"/>
		<path clip-path="url(#SVGID_2_)" fill="#FFFFFF" d="M187.885,93c-6.99,30.63-37.274,35.937-51.828,38.487
			c-59.762,10.473-72.09,0.99-84.076-14.672c-17.65-23.062,6.113-77.404,82.38-71.962C168.176,47.267,193.187,69.766,187.885,93"/>
		<path clip-path="url(#SVGID_2_)" fill="#FFFFFF" d="M183.547,93c-2.328,26.731-33.976,32.696-47.489,35.243
			c-0.337,0.063-37.296,5.82-53.273,3.506c-0.181-0.026-18.308-2.958-25.6-14.934c-0.181-0.297-17.659-29.998,19.083-55.706
			c24.848-17.385,72.428-8.744,72.863-8.625C171.645,58.647,185.154,74.55,183.547,93"/>
		<path clip-path="url(#SVGID_2_)" fill="#FFFFFF" d="M180.467,93c-2.694,24.069-30.871,29.744-44.412,32.472
			c-0.288,0.058-36.008,4.945-53.277,2.921c-0.133-0.016-15.646-4.831-20.564-11.577C46.088,94.691,61.6,47.151,134.724,53.321
			C172.285,56.49,181.762,81.423,180.467,93"/>
		<path clip-path="url(#SVGID_2_)" fill="#FFFFFF" d="M177.34,93c-2.914,21.402-28.834,27.017-41.291,29.714
			c-0.245,0.054-28.027,5.012-53.254,2.845c-5.297-0.455-11.578-5.062-15.414-8.743c-16.256-15.605-8.653-58.856,52.261-61.125
			c24.672-0.918,29.765,2.375,46.639,13.286C166.412,69.062,179.227,79.138,177.34,93"/>
		<path clip-path="url(#SVGID_2_)" fill="#FFFFFF" d="M170.192,101.92c-3.587,7.753-16.193,14.031-16.308,14.066
			c-18.484,5.714-53.812,7.701-54.13,7.71c-7.483,0.195-30.257,0.789-36.677-18.981C51.18,68.066,115.687,47.906,150.354,61.88
			C165.104,67.826,180.52,79.599,170.192,101.92"/>
		<path clip-path="url(#SVGID_2_)" fill="#FFFFFF" d="M169.71,95.797c-4.491,9.923-8.733,19.296-33.683,21.448
			c-46.02,3.971-46.02,3.971-53.133,2.691c-5.106-0.918-15.594-12.501-16.558-15.222c-8.463-23.896,21.182-38.492,22.447-39.103
			c9.169-4.415,46.289-7.789,61.83-1.479C171.899,72.777,172.053,90.62,169.71,95.797"/>
		<path clip-path="url(#SVGID_2_)" fill="#FFFFFF" d="M162.275,104.715c-4.24,4.975-6.176,7.244-26.26,10.394l-36.19,3.552
			c-5.071,0.195-11.812-0.888-16.849-1.511c-0.743-0.092-13.507-12.317-13.581-12.435c-1.911-2.999-2.25-8.187-1.806-11.715
			c1.007-8.004,11.521-26.497,36.199-29.309c17.035-1.941,52.48-5.979,62.762,18.033C169.951,89.665,168.512,97.4,162.275,104.715"
			/>
		<path clip-path="url(#SVGID_2_)" fill="#FFFFFF" d="M158.906,104.715c-5.032,5.528-17.693,7.698-22.902,8.374
			c-32.297,4.191-45.214,2.487-52.932,1.469c-0.15-0.021-14.543-6.843-12.937-21.558c1.407-12.896,16.71-25.484,33.414-27.489
			c15.058-1.807,50.32-6.037,60.568,16.214C165.832,85.445,169.398,93.189,158.906,104.715"/>
		<path clip-path="url(#SVGID_2_)" fill="#FFFFFF" d="M155.502,104.715c-2.95,3.049-19.365,6.349-19.514,6.364
			c-34.609,3.488-34.609,3.488-52.803,0.926c-2.129-0.301-11.761-8.679-10.848-19.005c1.375-15.536,20.854-24.372,30.979-25.65
			c19.096-2.41,31.775-1.252,31.851-1.234c4.828,1.189,11.572,2.304,15.856,4.827c3.916,2.307,8.642,6.7,10.64,10.782
			C163.944,86.383,167.068,92.762,155.502,104.715"/>
		<path clip-path="url(#SVGID_2_)" fill="#FFFFFF" d="M153.508,103.251c-2.293,1.977-17.401,5.806-17.535,5.827l-35.988,3.057
			C83.469,109.99,73.5,108.695,74.566,93c1.854-27.266,72.238-36.645,84.621-11.275C160.898,85.228,164.903,93.433,153.508,103.251"
			/>
		<path clip-path="url(#SVGID_2_)" fill="#FFFFFF" d="M153.367,99.909c-0.057,0.05-7.699,5.326-17.412,7.179l-35.905,2.994
			C87.202,108.922,76.106,107.921,76.82,93c0.723-15.089,21.055-21.203,26.049-21.908c19.471-2.749,32.309-1.407,32.402-1.389
			c0.172,0.034,17.65,4.313,21.42,12.021C161.329,91.205,157.613,96.237,153.367,99.909"/>
		<path clip-path="url(#SVGID_2_)" fill="#FFFFFF" d="M153.209,96.6c-0.073,0.064-14.988,8.017-17.273,8.509l-35.813,2.931
			c-0.119-0.006-15.055-2.834-16.475-3.85C80.701,102.081,78.986,96.622,79.1,93c0.002-0.071,2.053-8.651,7.162-12.961
			c4.074-3.438,11.105-6.106,16.377-6.898c21.6-3.244,32.579-1.495,32.688-1.477c0.151,0.025,17.015,6.297,18.85,10.061
			C154.373,82.128,158.932,91.667,153.209,96.6"/>
		<path clip-path="url(#SVGID_2_)" fill="#FFFFFF" d="M153.035,93.324c-4.379,3.845-11.463,7.795-17.128,9.155l-35.704,3.528
			c-0.191-0.001-19.098-2.068-18.8-13.008c0.104-3.838,3.124-8.795,6.054-11.275c3.736-3.163,10.128-5.733,14.96-6.515
			c17.747-2.87,32.831-1.275,32.97-1.257c5.222,0.698,12.521,3.606,15.748,7.771C151.196,81.803,153.813,92.643,153.035,93.324"/>
		<path clip-path="url(#SVGID_2_)" fill="#FFFFFF" d="M135.874,99.708l-35.555,3.654c-0.168-0.021-16.666-6.91-16.589-10.362
			c0.038-1.703,5.752-13.417,18.473-15.701c1.594-0.287,16.066-2.747,33.241-1.032c3.683,0.368,8.849,2.492,11.063,5.458
			c2.055,2.75,3.468,8.193,1.955,11.275C146.577,96.842,139.984,98.519,135.874,99.708"/>
		<path clip-path="url(#SVGID_2_)" fill="#FFFFFF" d="M135.837,96.958c-1.257,0.37-33.617,2.828-35.333,2.685
			C96.446,99.302,89.55,96.976,88.666,93c-0.898-4.045,5.078-8.317,7.979-11.275c1.226-1.25,3.64-1.955,5.352-2.318
			c0.331-0.07,34.669-4.854,39.827,2.318c1.993,2.771,3.086,8.244,1.517,11.275C142.17,95.26,138.279,96.24,135.837,96.958"/>
		<path clip-path="url(#SVGID_2_)" fill="#FFFFFF" d="M135.797,94.232c-0.085,0.025-13.058,2.402-35.083,1.731
			c-1.839-0.057-4.843-1.201-5.367-2.964c-0.026-0.09,5.349-11.168,6.453-11.467c0.296-0.08,33.088-2.999,35.288,0.191
			c1.93,2.797,2.693,8.291,1.068,11.275C137.774,93.701,136.563,94.006,135.797,94.232"/>
	</g>
	<g>
		<defs>
			<path id="SVGID_77_" d="M229.018,153.45c-1.702,7.088-6.296,10.329-8.258,11.714c-13.729,8.255-15.231-9.299-14.027-14.785
				c2.346-10.686,15.142-19.322,20.405-11.242C228.699,141.533,230.489,147.323,229.018,153.45 M213.804,109.027
				c-0.037,6.297-3.911,9.231-5.565,10.485c-11.715,7.355-18.576-7.76-16.753-15.638c1.872-8.091,13.027-14.887,19.603-3.903
				C212.111,101.683,213.827,105.135,213.804,109.027 M244.292,152.102c2.995-14.289-1.304-41.915-19.597-33.904
				c12.555-19.207-3.975-47.573-23.597-43.872c-6.525,1.23-12.732,4.764-16.977,7.698c-31.668,24.7-11.673,54.561,2.731,56.788
				c3.985,0.616,7.456-0.283,9.53-0.819c-21.794,20.316-13.298,50.998,3.837,52.683
				C212.652,191.897,238.826,178.182,244.292,152.102"/>
		</defs>
		<clipPath id="SVGID_4_">
			<use xlink:href="#SVGID_77_"  overflow="visible"/>
		</clipPath>
		<path clip-path="url(#SVGID_4_)" d="M129.078,258.513c-7.129,0-14.123-0.58-20.941-1.695c-6.817-1.115-13.457-2.765-19.875-4.906
			c-6.417-2.141-12.612-4.771-18.541-7.849c-5.928-3.077-11.589-6.6-16.938-10.523c-4.665-3.704-10.699-8.882-15.068-12.93
			c-4.681-4.682-9.006-9.72-12.931-15.068c-3.924-5.35-7.446-11.011-10.523-16.939c-3.076-5.928-5.707-12.123-7.848-18.541
			c-2.142-6.417-3.791-13.057-4.906-19.874s-1.695-13.813-1.695-20.94c0-7.127,0.58-14.122,1.695-20.938
			c1.115-6.817,2.765-13.456,4.906-19.874c2.141-6.417,4.771-12.612,7.848-18.54c3.077-5.928,6.6-11.59,10.524-16.938
			c3.923-5.35,8.249-10.388,12.93-15.069c4.682-4.682,9.72-9.007,15.068-12.931c4.956-3.352,11.626-7.773,16.938-10.524
			c5.364-2.778,12.801-5.971,18.541-7.851c5.837-1.91,13.813-3.926,19.875-4.906c6.223-1.006,14.644-1.439,20.941-1.695
			c71.27,0,129.246,57.996,129.246,129.268C258.324,200.525,200.348,258.513,129.078,258.513"/>
		<path clip-path="url(#SVGID_4_)" d="M258.324,129.246c0,71.279-57.977,129.267-129.246,129.267c-7.129,0-14.123-0.58-20.941-1.695
			c-6.817-1.115-13.457-2.765-19.875-4.906c-6.417-2.141-12.612-4.771-18.541-7.849c-5.928-3.077-11.589-6.6-16.938-10.523
			c-2.335-1.854-5.449-4.326-7.784-6.181l-7.284-6.749c-4.681-4.682-9.006-9.72-12.931-15.068
			c-3.924-5.35-7.446-11.011-10.523-16.939c-3.076-5.928-5.707-12.123-7.848-18.541c-2.142-6.417-3.791-13.057-4.906-19.874
			s-1.695-13.813-1.695-20.94c0-7.127,0.58-14.122,1.695-20.938c1.115-6.817,2.765-13.456,4.906-19.874
			c2.141-6.417,4.771-12.612,7.848-18.54c3.077-5.928,6.6-11.59,10.524-16.938c3.923-5.35,8.249-10.388,12.93-15.069
			c0.309-0.309,0.619-0.616,0.931-0.922c-60.604,62.97-27.998,130.56,62.299,129.146c95.461-1.494,167.522-75.947,103.346-138.323
			c-9.275-9.015-30.283-24.579-66.761-27.534C204.874,4.62,258.324,60.813,258.324,129.246"/>
		<path clip-path="url(#SVGID_4_)" d="M258.324,129.246c0,71.279-57.977,129.267-129.246,129.267c-7.129,0-14.123-0.58-20.941-1.695
			c-6.817-1.115-13.457-2.765-19.875-4.906c-6.417-2.141-12.612-4.771-18.541-7.849c-5.928-3.077-11.589-6.6-16.938-10.523
			c-2.335-1.854-5.449-4.326-7.784-6.181l-7.284-6.749c-4.681-4.682-9.006-9.72-12.931-15.068
			c-3.924-5.35-7.446-11.011-10.523-16.939c-3.076-5.928-5.707-12.123-7.848-18.541c-2.142-6.417-3.791-13.057-4.906-19.874
			s-1.695-13.813-1.695-20.94c0-7.127,0.58-14.122,1.695-20.938c1.115-6.817,2.765-13.456,4.906-19.874
			c2.141-6.417,4.771-12.612,7.848-18.54c3.077-5.928,6.6-11.59,10.524-16.938c0.499-0.682,1.005-1.357,1.518-2.028
			c-57.006,81.29,14.489,134.916,109.46,115.612c103.472-21.032,123.703-104.186,59.937-146.854
			c-8.282-5.541-20.154-12.441-38.604-16.648C214.938,15.872,258.324,67.592,258.324,129.246"/>
		<path clip-path="url(#SVGID_4_)" d="M258.324,129.246c0,71.279-57.977,129.267-129.246,129.267c-7.129,0-14.123-0.58-20.941-1.695
			c-6.817-1.115-13.457-2.765-19.875-4.906c-6.417-2.141-12.612-4.771-18.541-7.849c-5.928-3.077-11.589-6.6-16.938-10.523
			c-2.335-1.854-5.449-4.326-7.784-6.181l-7.284-6.749c-4.681-4.682-9.006-9.72-12.931-15.068
			c-3.924-5.35-7.446-11.011-10.523-16.939c-3.076-5.928-5.707-12.123-7.848-18.541c-2.142-6.417-3.791-13.057-4.906-19.874
			s-1.695-13.813-1.695-20.94c0-7.127,0.58-14.122,1.695-20.938c1.115-6.817,2.765-13.456,4.906-19.874
			c2.141-6.417,4.771-12.612,7.848-18.54c0.996-1.918,2.038-3.808,3.125-5.668c-49.348,91.533,48.164,128.096,135.559,102.55
			c100.583-29.401,105.551-111.854,35.846-151.937c-5.874-3.377-12.971-6.092-16.002-7.252
			C222.611,25.549,258.324,73.309,258.324,129.246"/>
		<path clip-path="url(#SVGID_4_)" d="M258.324,129.246c0,71.279-57.977,129.267-129.246,129.267c-7.129,0-14.123-0.58-20.941-1.695
			c-6.817-1.115-13.457-2.765-19.875-4.906c-6.417-2.141-12.612-4.771-18.541-7.849c-5.928-3.077-11.589-6.6-16.938-10.523
			c-2.335-1.854-5.449-4.326-7.784-6.181l-7.284-6.749c-4.681-4.682-9.006-9.72-12.931-15.068
			c-3.924-5.35-7.446-11.011-10.523-16.939c-3.076-5.928-5.707-12.123-7.848-18.541c-2.142-6.417-3.791-13.057-4.906-19.874
			s-1.695-13.813-1.695-20.94c0-7.127,0.58-14.122,1.695-20.938c1.115-6.817,2.765-13.456,4.906-19.874
			c1.208-3.623,2.573-7.176,4.087-10.649c-37.741,91.598,71.604,121.82,158.913,88.164c97.732-37.675,80.307-120.318,17.567-152.257
			C229.254,34.968,258.324,78.778,258.324,129.246"/>
		<path clip-path="url(#SVGID_4_)" d="M258.324,129.246c0,71.279-57.977,129.267-129.246,129.267c-7.129,0-14.123-0.58-20.941-1.695
			c-6.817-1.115-13.457-2.765-19.875-4.906c-6.417-2.141-12.612-4.771-18.541-7.849c-5.928-3.077-11.589-6.6-16.938-10.523
			c-2.335-1.854-5.449-4.326-7.784-6.181l-7.284-6.749c-4.681-4.682-9.006-9.72-12.931-15.068
			c-3.924-5.35-7.446-11.011-10.523-16.939c-3.076-5.928-5.707-12.123-7.848-18.541c-2.142-6.417-3.791-13.057-4.906-19.874
			s-1.695-13.813-1.695-20.94c0-7.127,0.58-14.122,1.695-20.938c0.921-5.632,2.207-11.142,3.833-16.505
			c-26.042,105.756,117.436,110.824,195.247,64.276c48.869-29.234,62.721-88.986-0.115-134.542
			C235.316,44.718,258.324,84.348,258.324,129.246"/>
		<path clip-path="url(#SVGID_4_)" d="M258.324,129.246c0,71.279-57.977,129.267-129.246,129.267c-7.129,0-14.123-0.58-20.941-1.695
			c-6.817-1.115-13.457-2.765-19.875-4.906c-6.417-2.141-12.612-4.771-18.541-7.849c-5.928-3.077-11.589-6.6-16.938-10.523
			c-2.335-1.854-5.449-4.326-7.784-6.181l-7.284-6.749c-4.681-4.682-9.006-9.72-12.931-15.068
			c-3.924-5.35-7.446-11.011-10.523-16.939c-3.076-5.928-5.707-12.123-7.848-18.541c-2.142-6.417-3.791-13.057-4.906-19.874
			s-1.695-13.813-1.695-20.94c0-7.127,0.58-14.122,1.695-20.938c0.135-0.829,0.278-1.654,0.43-2.478
			c-0.34,2.545-0.793,5.938-1.133,8.483c-6.911,99.315,163.264,83.997,219.958,33.268c35.886-32.11,33.013-79.771-6.985-115.9
			C241.053,55.4,258.324,90.346,258.324,129.246"/>
		<path clip-path="url(#SVGID_4_)" d="M258.324,129.246c0,71.279-57.977,129.267-129.246,129.267c-7.129,0-14.123-0.58-20.941-1.695
			c-6.817-1.115-13.457-2.765-19.875-4.906c-6.417-2.141-12.612-4.771-18.541-7.849c-5.928-3.077-11.589-6.6-16.938-10.523
			c-2.335-1.854-5.449-4.326-7.784-6.181l-7.284-6.749c-4.681-4.682-9.006-9.72-12.931-15.068
			c-3.924-5.35-7.446-11.011-10.523-16.939c-3.076-5.928-5.707-12.123-7.848-18.541c-2.142-6.417-3.791-13.057-4.906-19.874
			s-1.695-13.813-1.695-20.94c0-3.188,0.116-6.35,0.344-9.48c-2.37,108.146,179.051,77.688,226.203,31.015
			c11.092-10.979,43.941-51.034,0.94-105.468C246.634,67.914,258.324,97.241,258.324,129.246"/>
		<path clip-path="url(#SVGID_4_)" d="M258.324,129.246c0,71.279-57.977,129.267-129.246,129.267c-7.129,0-14.123-0.58-20.941-1.695
			c-6.817-1.115-13.457-2.765-19.875-4.906c-6.417-2.141-12.612-4.771-18.541-7.849c-5.928-3.077-11.589-6.6-16.938-10.523
			c-2.335-1.854-5.449-4.326-7.784-6.181l-7.284-6.749c-4.681-4.682-9.006-9.72-12.931-15.068
			c-3.924-5.35-7.446-11.011-10.523-16.939c-3.076-5.928-5.707-12.123-7.848-18.541c-2.142-6.417-3.791-13.057-4.906-19.874
			c-0.857-5.244-1.398-10.592-1.604-16.025C9.08,240.31,199.813,195.81,236.85,148.109c9.164-11.801,27.689-43.928,1.865-87.254
			C251.138,80.705,258.324,104.152,258.324,129.246"/>
		<path clip-path="url(#SVGID_4_)" d="M258.324,129.246c0,71.279-57.977,129.267-129.246,129.267c-7.129,0-14.123-0.58-20.941-1.695
			c-6.817-1.115-13.457-2.765-19.875-4.906c-6.417-2.141-12.612-4.771-18.541-7.849c-5.928-3.077-11.589-6.6-16.938-10.523
			c-2.335-1.854-5.449-4.326-7.784-6.181l-7.284-6.749c-4.681-4.682-9.006-9.72-12.931-15.068
			c-3.924-5.35-7.446-11.011-10.523-16.939c-3.076-5.928-5.707-12.123-7.848-18.541c-2.142-6.417-3.791-13.057-4.906-19.874
			c-0.07-0.431-0.139-0.861-0.205-1.293c0.277,1.465,0.646,3.42,0.923,4.885c25.312,87.246,209.432,52.323,243.301-8.834
			c7.681-13.868,14.224-36.906,1.786-67.906C254.39,93.013,258.324,110.679,258.324,129.246"/>
		<path clip-path="url(#SVGID_4_)" d="M258.324,129.246c0,71.279-57.977,129.267-129.246,129.267c-7.129,0-14.123-0.58-20.941-1.695
			c-6.817-1.115-13.457-2.765-19.875-4.906c-6.417-2.141-12.612-4.771-18.541-7.849c-5.928-3.077-11.589-6.6-16.938-10.523
			c-2.335-1.854-5.449-4.326-7.784-6.181l-7.284-6.749c-4.681-4.682-9.006-9.72-12.931-15.068
			c-3.924-5.35-7.446-11.011-10.523-16.939c-3.076-5.928-5.707-12.123-7.848-18.541c-0.606-1.815-1.173-3.648-1.699-5.499
			c0.082,0.28,0.191,0.653,0.273,0.934C18.985,203.919,48.027,215,120.077,209.407c105.915-8.223,124.21-49.418,130.222-62.955
			c6.984-15.727,8.138-33.029,3.429-51.428C256.725,105.929,258.324,117.404,258.324,129.246"/>
		<path clip-path="url(#SVGID_4_)" d="M258.324,129.246c0,71.279-57.977,129.267-129.246,129.267c-7.129,0-14.123-0.58-20.941-1.695
			c-6.817-1.115-13.457-2.765-19.875-4.906c-6.417-2.141-12.612-4.771-18.541-7.849c-5.928-3.077-11.589-6.6-16.938-10.523
			c-2.335-1.854-5.449-4.326-7.784-6.181l-7.284-6.749c-4.681-4.682-9.006-9.72-12.931-15.068
			c-3.924-5.35-7.446-11.011-10.523-16.939c-0.953-1.838-1.864-3.701-2.731-5.589c21.169,41.551,63.286,42.694,149.687,29.542
			c64.261-9.782,86.575-41.636,93.979-66.635c3.635-12.274,2.83-24.73,2.564-28.823
			C258.133,121.097,258.324,125.149,258.324,129.246"/>
		<path clip-path="url(#SVGID_4_)" d="M173.83,9.028c76.291,34.349,64.75,116.518-20.243,144.133
			C64.848,181.994-19.524,140.199,19.419,62.936c11.228-22.274,30.965-36.201,39.394-42.147l8.574-5.116l2.334-1.241l9.088-4.276
			l9.453-3.574l9.788-2.838l10.087-2.068c2.548-0.396,5.965-0.792,8.523-1.103C143.635-1.567,162.638,3.989,173.83,9.028"/>
		<path clip-path="url(#SVGID_4_)" d="M181.896,13.892c68.784,40.804,42.579,120.544-45.965,139.873
			C43.326,173.979-16.192,119.354,26.131,52.991C57.406,3.949,133.105-15.052,181.896,13.892"/>
		<path clip-path="url(#SVGID_4_)" d="M188.725,19.686c55.458,42.696,27.072,121.581-70.936,133.204
			C31.962,163.068-13.554,103.892,33.82,43.719C69.925-2.14,145.205-13.818,188.725,19.686"/>
		<path clip-path="url(#SVGID_4_)" d="M194.09,26.356c46.322,47.218,3.992,122.005-93.967,124.095
			C29.08,151.967-12.726,92.606,42.481,35.178C82.512-6.462,157.606-10.832,194.09,26.356"/>
		<path clip-path="url(#SVGID_4_)" d="M191.129,26.356c40.665,42.245,10.977,117.677-91.133,120.392
			C32.275,148.549-8.318,91.171,43.615,35.217C81.557-5.662,156.002-10.134,191.129,26.356"/>
		<path clip-path="url(#SVGID_4_)" d="M193.057,33.849c28.391,44.147-6.219,79.124-10.258,82.967
			c-29.666,28.22-93.877,26.954-103.096,24.862C6.782,125.132,8.412,54.841,64.521,19.686
			C112.464-10.353,172.984,2.634,193.057,33.849"/>
		<path clip-path="url(#SVGID_4_)" d="M191.77,60.709c11.592,42.883-15.201,58.9-20.689,61.676
			c-34.707,17.551-91.195,24.214-114.846,6.861C45.629,121.464,39.227,116.767,35.342,93c-0.546-3.339-0.433-7.938,0.121-11.275
			c2.224-13.397,7.384-34.059,7.419-34.162C43.717,45.07,63.235,15.939,96.5,9.028c2.867-0.596,43.131-0.771,47.869-0.208
			c3.736,0.444,21.014,8.328,21.152,8.403C169.501,19.382,186.454,41.044,191.77,60.709"/>
		<path clip-path="url(#SVGID_4_)" fill="#49494B" d="M187.885,93c-6.99,30.63-37.274,35.937-51.828,38.487
			c-59.762,10.473-72.09,0.99-84.076-14.672c-17.65-23.062,6.113-77.404,82.38-71.962C168.176,47.267,193.187,69.766,187.885,93"/>
		<path clip-path="url(#SVGID_4_)" fill="#565759" d="M183.547,93c-2.328,26.731-33.976,32.696-47.489,35.243
			c-0.337,0.063-37.296,5.82-53.273,3.506c-0.181-0.026-18.308-2.958-25.6-14.934c-0.181-0.297-17.659-29.998,19.083-55.706
			c24.848-17.385,72.428-8.744,72.863-8.625C171.645,58.647,185.154,74.55,183.547,93"/>
		<path clip-path="url(#SVGID_4_)" fill="#606163" d="M180.467,93c-2.694,24.069-30.871,29.744-44.412,32.472
			c-0.288,0.058-36.008,4.945-53.277,2.921c-0.133-0.016-15.646-4.831-20.564-11.577C46.088,94.691,61.6,47.151,134.724,53.321
			C172.285,56.49,181.762,81.423,180.467,93"/>
		<path clip-path="url(#SVGID_4_)" fill="#67696B" d="M177.34,93c-2.914,21.402-28.834,27.017-41.291,29.714
			c-0.245,0.054-28.027,5.012-53.254,2.845c-5.297-0.455-11.578-5.062-15.414-8.743c-16.256-15.605-8.653-58.856,52.261-61.125
			c24.672-0.918,29.765,2.375,46.639,13.286C166.412,69.062,179.227,79.138,177.34,93"/>
		<path clip-path="url(#SVGID_4_)" fill="#6E6F72" d="M170.192,101.92c-3.587,7.753-16.193,14.031-16.308,14.066
			c-18.484,5.714-53.812,7.701-54.13,7.71c-7.483,0.195-30.257,0.789-36.677-18.981C51.18,68.066,115.687,47.906,150.354,61.88
			C165.104,67.826,180.52,79.599,170.192,101.92"/>
		<path clip-path="url(#SVGID_4_)" fill="#737578" d="M169.71,95.797c-4.491,9.923-8.733,19.296-33.683,21.448
			c-46.02,3.971-46.02,3.971-53.133,2.691c-5.106-0.918-15.594-12.501-16.558-15.222c-8.463-23.896,21.182-38.492,22.447-39.103
			c9.169-4.415,46.289-7.789,61.83-1.479C171.899,72.777,172.053,90.62,169.71,95.797"/>
		<path clip-path="url(#SVGID_4_)" fill="#797A7D" d="M162.275,104.715c-4.24,4.975-6.176,7.244-26.26,10.394l-36.19,3.552
			c-5.071,0.195-11.812-0.888-16.849-1.511c-0.743-0.092-13.507-12.317-13.581-12.435c-1.911-2.999-2.25-8.187-1.806-11.715
			c1.007-8.004,11.521-26.497,36.199-29.309c17.035-1.941,52.48-5.979,62.762,18.033C169.951,89.665,168.512,97.4,162.275,104.715"
			/>
		<path clip-path="url(#SVGID_4_)" fill="#7D7F82" d="M158.906,104.715c-5.032,5.528-17.693,7.698-22.902,8.374
			c-32.297,4.191-45.214,2.487-52.932,1.469c-0.15-0.021-14.543-6.843-12.937-21.558c1.407-12.896,16.71-25.484,33.414-27.489
			c15.058-1.807,50.32-6.037,60.568,16.214C165.832,85.445,169.398,93.189,158.906,104.715"/>
	</g>
</g>
<g id="New_Symbol">
	<g id="New_Symbol_4">
		<g id="New_Symbol_1">
		</g>
	</g>
</g>
</svg>
