<?xml version="1.0" encoding="utf-8"?>
<!-- Generator: Adobe Illustrator 16.0.0, SVG Export Plug-In . SVG Version: 6.00 Build 0)  -->
<!DOCTYPE svg PUBLIC "-//W3C//DTD SVG 1.1//EN" "http://www.w3.org/Graphics/SVG/1.1/DTD/svg11.dtd" [
	<!ENTITY ns_flows "http://ns.adobe.com/Flows/1.0/">
	<!ENTITY ns_extend "http://ns.adobe.com/Extensibility/1.0/">
	<!ENTITY ns_ai "http://ns.adobe.com/AdobeIllustrator/10.0/">
	<!ENTITY ns_graphs "http://ns.adobe.com/Graphs/1.0/">
]>
<svg version="1.1" id="Layer_1" xmlns:x="&ns_extend;" xmlns:i="&ns_ai;" xmlns:graph="&ns_graphs;"
	 xmlns="http://www.w3.org/2000/svg" xmlns:xlink="http://www.w3.org/1999/xlink" xmlns:a="http://ns.adobe.com/AdobeSVGViewerExtensions/3.0/"
	 x="0px" y="0px" width="258.135px" height="258.491px" viewBox="0 0 258.135 258.491" enable-background="new 0 0 258.135 258.491"
	 xml:space="preserve">
<symbol  id="New_Symbol_1_1_" viewBox="-111.953 -42.942 223.906 85.885">
	<text transform="matrix(1 0 0 -1 -111.9531 -24.3564)"><tspan x="0" y="0" fill="#FFFFFF" font-family="'FuturaBT-Bold'" font-size="78.4827">PO</tspan><tspan x="116.919" y="0" fill="#FFFFFF" font-family="'FuturaBT-Bold'" font-size="78.4827" letter-spacing="-1">O</tspan><tspan x="182.135" y="0" fill="#FFFFFF" font-family="'FuturaBT-Bold'" font-size="78.4827">L</tspan></text>
</symbol>
<symbol  id="New_Symbol_8" viewBox="-71.229 -71.229 142.458 142.457">
	<path fill="#FFFFFF" d="M71.229,0c0-39.339-31.89-71.229-71.229-71.229S-71.229-39.339-71.229,0S-39.339,71.229,0,71.229
		S71.229,39.339,71.229,0z"/>
</symbol>
<path fill="#00AEEF" d="M129.067,0.978c3.154,0,7.373,0.047,10.504,0.426c6.12,0.743,14.354,1.619,20.282,3.309
	c5.806,1.655,13.53,4.014,19.092,6.362c5.491,2.319,12.669,5.854,17.636,9.149c4.934,3.272,11.42,7.815,15.914,11.67
	c4.483,3.847,10.081,9.438,13.925,13.925c3.851,4.497,8.548,10.884,11.67,15.914c3.143,5.064,6.869,12.129,9.149,17.636
	c2.31,5.578,4.922,13.229,6.361,19.092c1.471,5.987,2.58,14.16,3.309,20.282c0.834,7.004,0.46,22.52-1.256,31.283
	c-1.171,5.98-2.947,13.938-4.868,19.721c-1.889,5.688-5.048,13.067-7.789,18.397c-4.098,7.97-11.462,19.949-23.273,31.76
	c-11.812,11.812-23.791,19.175-31.761,23.272c-5.33,2.74-12.709,5.899-18.397,7.788c-5.783,1.92-13.698,3.931-19.72,4.868
	c-6.18,0.961-14.523,1.682-20.777,1.682c-6.253,0-14.601-0.701-20.776-1.682c-6.019-0.956-13.938-2.948-19.721-4.868
	c-5.688-1.889-12.974-5.236-18.397-7.788c-5.882-3.053-11.499-6.549-16.808-10.442c-5.308-3.894-10.307-8.185-14.952-12.83
	c-4.646-4.645-8.938-9.644-12.831-14.951c-3.894-5.309-7.39-10.926-10.442-16.809c-3.054-5.882-5.665-12.029-7.789-18.397
	c-2.125-6.368-3.763-12.956-4.869-19.721C1.375,143.26,0.8,136.319,0.8,129.246c0-7.072,0.575-14.013,1.682-20.777
	s2.744-13.353,4.869-19.72c2.124-6.368,4.735-12.516,7.789-18.397c3.053-5.883,6.549-11.5,10.442-16.808
	c3.894-5.309,8.186-10.308,12.831-14.953s9.645-8.937,14.952-12.831c5.309-3.894,10.926-7.39,16.808-10.442
	c5.883-3.054,12.03-5.665,18.397-7.789c6.368-2.124,12.956-3.762,19.721-4.868C114.498,1.9,122.814,0.978,129.067,0.978z"/>
<g>
	<defs>
		<path id="SVGID_79_" d="M129.077,258.513c-7.127,0-14.121-0.58-20.938-1.695c-6.817-1.115-13.457-2.766-19.874-4.906
			s-12.612-4.771-18.54-7.849s-11.59-6.6-16.939-10.523s-10.387-8.249-15.068-12.93c-4.049-4.37-9.227-10.403-12.932-15.069
			c-3.924-5.349-7.447-11.01-10.524-16.938c-3.077-5.928-5.708-12.123-7.85-18.541c-2.141-6.417-3.792-13.057-4.906-19.874
			c-1.115-6.817-1.695-13.813-1.695-20.94s0.58-14.123,1.695-20.94c1.115-6.818,2.766-13.458,4.906-19.875
			c2.142-6.418,4.772-12.613,7.85-18.541c3.077-5.929,6.601-11.59,10.524-16.938c3.924-5.35,8.25-10.388,12.932-15.069
			c4.369-4.048,10.403-9.226,15.068-12.93c5.35-3.924,11.012-7.446,16.939-10.523c5.465-2.571,12.889-5.717,18.54-7.85
			c2.86-1.078,6.816-2.114,9.787-2.837c6.036-1.47,14.271-2.586,20.439-3.334c3.155-0.383,7.409-0.301,10.585-0.43
			c71.26,0,129.247,57.987,129.247,129.268C258.324,200.525,200.337,258.513,129.077,258.513z"/>
	</defs>
	<clipPath id="SVGID_2_">
		<use xlink:href="#SVGID_79_"  overflow="visible"/>
	</clipPath>
	<path clip-path="url(#SVGID_2_)" fill="#FFFFFF" d="M214.999,138.311c-13.482,9.615-9.152,27.727-1.559,28.975
		c10.699,1.759,21.84-17.204,13.364-28.63C224.907,136.098,221.319,133.961,214.999,138.311 M196.931,96.258
		c-11.351,7.92-3.439,24.021,4.313,25.19c8.235,1.242,18.152-10.854,8.722-23.143C207.925,95.647,203.519,91.847,196.931,96.258
		 M172.695,58.479c-73.099,50.947-34.893,142.772,13.927,149.074c53.962,6.966,96.283-81.54,49.434-136.827
		C229.294,62.747,204.742,38.283,172.695,58.479"/>
	<path clip-path="url(#SVGID_2_)" d="M220.759,165.163c-12.928,8.111-15.521-7.976-14.027-14.785
		c2.35-10.702,15.147-19.341,20.406-11.242C230.716,144.646,231.645,158.056,220.759,165.163 M208.238,119.511
		c-11.205,7.395-18.311-7.164-16.877-15.041c1.405-7.719,12.179-15.303,18.987-5.642
		C214.874,105.251,215.603,114.418,208.238,119.511 M187.447,80.258c-34.459,23.153-16.118,55.372-1.483,58.393
		c4.64,0.957,8.689-0.176,10.42-0.659c-22.393,20.249-12.705,52.234,5.111,52.764c31.781,0.943,57.954-49.427,36.848-70.915
		c-5.398-5.496-11.18-2.797-13.647-1.645c12.486-18.313-4.467-48.086-24.849-43.639C196.19,75.354,192.019,77.272,187.447,80.258"/>
</g>
<g id="New_Symbol">
	<g id="New_Symbol_4">
		<g id="New_Symbol_1">
		</g>
	</g>
</g>
</svg>
