<?xml version="1.0" encoding="UTF-8" standalone="no"?>
<svg
   xmlns:dc="http://purl.org/dc/elements/1.1/"
   xmlns:cc="http://creativecommons.org/ns#"
   xmlns:rdf="http://www.w3.org/1999/02/22-rdf-syntax-ns#"
   xmlns:svg="http://www.w3.org/2000/svg"
   xmlns="http://www.w3.org/2000/svg"
   xmlns:xlink="http://www.w3.org/1999/xlink"
   xmlns:sodipodi="http://sodipodi.sourceforge.net/DTD/sodipodi-0.dtd"
   xmlns:inkscape="http://www.inkscape.org/namespaces/inkscape"
   width="50mm"
   height="50mm"
   viewBox="0 0 50 50"
   version="1.1"
   id="svg8"
   inkscape:version="1.0.1 (3bc2e813f5, 2020-09-07)"
   sodipodi:docname="15-6.svg">
  <defs
     id="defs2">
    <radialGradient
       inkscape:collect="always"
       xlink:href="#linearGradient1135"
       id="radialGradient1561-9-5-3"
       cx="41.987331"
       cy="30.699482"
       fx="41.987331"
       fy="30.699482"
       r="32.127975"
       gradientTransform="matrix(0.77813807,0,0,0.7781381,-46.373355,10.157955)"
       gradientUnits="userSpaceOnUse" />
    <linearGradient
       inkscape:collect="always"
       id="linearGradient1135">
      <stop
         style="stop-color:#ffffff;stop-opacity:1;"
         offset="0"
         id="stop1131" />
      <stop
         style="stop-color:#ffffff;stop-opacity:0;"
         offset="1"
         id="stop1133" />
    </linearGradient>
    <radialGradient
       inkscape:collect="always"
       xlink:href="#linearGradient1135"
       id="radialGradient1561-9-6"
       cx="54.447247"
       cy="49.531189"
       fx="54.447247"
       fy="49.531189"
       r="32.127975"
       gradientTransform="matrix(0.77813809,0,0,0.77813812,-3.3823651,4.4120853)"
       gradientUnits="userSpaceOnUse" />
    <radialGradient
       inkscape:collect="always"
       xlink:href="#linearGradient1135"
       id="radialGradient1561-8"
       cx="26.274075"
       cy="14.800471"
       fx="26.274075"
       fy="14.800471"
       r="32.127975"
       gradientTransform="matrix(0.77813809,0,0,0.77813812,-2.967182,4.4120853)"
       gradientUnits="userSpaceOnUse" />
  </defs>
  <sodipodi:namedview
     id="base"
     pagecolor="#ffffff"
     bordercolor="#666666"
     borderopacity="1.0"
     inkscape:pageopacity="0.0"
     inkscape:pageshadow="2"
     inkscape:zoom="0.7"
     inkscape:cx="237.87095"
     inkscape:cy="149.48217"
     inkscape:document-units="mm"
     inkscape:current-layer="layer1"
     inkscape:document-rotation="0"
     showgrid="false"
     inkscape:window-width="1920"
     inkscape:window-height="1017"
     inkscape:window-x="-8"
     inkscape:window-y="-8"
     inkscape:window-maximized="1" />
  <metadata
     id="metadata5">
    <rdf:RDF>
      <cc:Work
         rdf:about="">
        <dc:format>image/svg+xml</dc:format>
        <dc:type
           rdf:resource="http://purl.org/dc/dcmitype/StillImage" />
        <dc:title></dc:title>
      </cc:Work>
    </rdf:RDF>
  </metadata>
  <g
     inkscape:label="Layer 1"
     inkscape:groupmode="layer"
     id="layer1">
    <path
       id="path833-58"
       style="display:inline;fill:#ffffff;fill-opacity:1;stroke:#000000;stroke-width:0.27064;stroke-opacity:1;paint-order:markers fill stroke"
       d="M 0.77208787,28.306726 1.0997188,28.370287 2.3694066,28.236444 3.1042471,27.501607 3.137836,26.699588 3.0039939,26.065002 2.4696598,25.530668 1.8350726,25.229911 H 1.0666459 l -0.51366478,0.06718 a 24.864676,24.864676 0 0 0 0.012409,0.542083 24.864676,24.864676 0 0 0 0.005159,0.153998 24.864675,24.864675 0 0 0 5.2916e-4,0.0078 24.864675,24.864675 0 0 0 0.0113771,0.247531 24.864675,24.864675 0 0 0 0.11213835,1.421099 24.864675,24.864675 0 0 0 0.0583935,0.491961 24.864675,24.864675 0 0 0 0.0191294,0.145211 z" />
    <path
       id="path1804"
       style="display:inline;fill:#000000;fill-opacity:1;stroke:#000000;stroke-width:0.27064;stroke-opacity:1;paint-order:markers fill stroke"
       d="m 1.3415638,31.219209 0.3596667,0.05736 1.1358483,-0.06666 1.0691866,-0.367419 0.9689332,-0.501261 0.6681761,-0.935344 0.3338301,-0.86868 0.1338421,-0.86868 0.066662,-1.002007 -0.066662,-1.00252 L 5.7438786,24.929154 5.2762064,24.160725 4.8085342,23.559213 4.2400954,23.191791 3.304751,22.857964 2.5363216,22.891037 1.5343154,22.991288 1.3674004,22.824373 v -0.668177 l 0.1333262,-0.768426 0.8350911,-0.100254 1.1363643,0.100254 0.6681761,0.133839 0.6681761,-0.03359 0.2671683,-2.706293 -0.033589,-0.233579 -0.2005066,-0.03359 -3.4235628,-0.02223 a 24.864675,24.864675 0 0 0 -0.037724,0.137975 24.864675,24.864675 0 0 0 -0.064595,0.248562 24.864675,24.864675 0 0 0 -0.020664,0.0832 24.864675,24.864675 0 0 0 -0.059428,0.241845 24.864675,24.864675 0 0 0 -0.25373276,1.187524 24.864675,24.864675 0 0 0 -0.14366084,0.839743 24.864675,24.864675 0 0 0 -0.0211931,0.147278 24.864675,24.864675 0 0 0 -0.0134408,0.08992 24.864675,24.864675 0 0 0 -0.10541794,0.833024 24.864676,24.864676 0 0 0 -0.0346234,0.33383 24.864675,24.864675 0 0 0 -0.0366898,0.425813 24.864675,24.864675 0 0 0 -0.0315225,0.454237 24.864675,24.864675 0 0 0 -0.0449607,1.484664 24.864675,24.864675 0 0 0 5.2917e-4,0.07597 24.864676,24.864676 0 0 0 0,0.02739 24.864676,24.864676 0 0 0 0.002117,0.193788 L 1.0667012,25.2299 h 0.7684267 l 0.6345873,0.300757 0.534334,0.534334 0.1338422,0.634586 -0.033589,0.802024 -0.7348406,0.734838 -1.2696878,0.133842 -0.32763086,-0.06356 a 24.864675,24.864675 0 0 0 0.0521944,0.367935 24.864675,24.864675 0 0 0 0.1064525,0.653706 24.864675,24.864675 0 0 0 0.12350736,0.647507 24.864675,24.864675 0 0 0 0.1343581,0.617532 24.864675,24.864675 0 0 0 0.1529636,0.625803 z" />
    <path
       id="path1802"
       style="display:inline;fill:#ffffff;fill-opacity:1;stroke:#000000;stroke-width:0.27064;stroke-opacity:1;paint-order:markers fill stroke"
       d="m 2.3952458,15.602076 a 24.864675,24.864675 0 0 0 -0.47439,1.258837 24.864675,24.864675 0 0 0 -0.4278815,1.359606 24.864675,24.864675 0 0 0 -0.07493,0.27182 l 3.4235628,0.02222 0.2005066,0.03359 0.033589,0.233579 -0.2671683,2.706294 -0.6681761,0.03359 L 3.4721822,21.387773 2.3358179,21.28752 1.5007268,21.387773 1.3674006,22.1562 v 0.668176 l 0.166915,0.166915 1.0020062,-0.100251 0.7684294,-0.03307 0.9353444,0.333828 0.5684388,0.367421 0.4676722,0.601512 0.4676722,0.768429 0.2671683,0.734841 0.066662,1.002521 -0.066662,1.002006 -0.1338421,0.86868 -0.3338301,0.86868 -0.6681761,0.935344 -0.9689332,0.501261 -1.0691866,0.367419 -1.1358483,0.06666 -0.3596667,-0.05736 a 24.864675,24.864675 0 0 0 0.010345,0.04031 24.864675,24.864675 0 0 0 0.02585,0.09974 24.864675,24.864675 0 0 0 0.00516,0.01913 24.864675,24.864675 0 0 0 0.032554,0.121442 24.864675,24.864675 0 0 0 0.8878015,2.669603 9.8315486,9.8315486 0 0 0 0.1178242,-0.04134 9.8315486,9.8315486 0 0 0 0.1276403,-0.04599 9.8315486,9.8315486 0 0 0 0.1266058,-0.04857 9.8315486,9.8315486 0 0 0 0.1260925,-0.05013 9.8315486,9.8315486 0 0 0 0.1250553,-0.05168 9.8315486,9.8315486 0 0 0 0.125058,-0.05323 9.8315486,9.8315486 0 0 0 0.1235075,-0.05529 9.8315486,9.8315486 0 0 0 0.1235048,-0.05685 9.8315486,9.8315486 0 0 0 0.1219571,-0.05839 9.8315486,9.8315486 0 0 0 0.1214384,-0.06046 9.8315486,9.8315486 0 0 0 0.1209252,-0.06201 9.8315486,9.8315486 0 0 0 0.119888,-0.06356 9.8315486,9.8315486 0 0 0 0.1188561,-0.06511 9.8315486,9.8315486 0 0 0 0.1178216,-0.06666 9.8315486,9.8315486 0 0 0 0.1173057,-0.06873 9.8315486,9.8315486 0 0 0 0.1157552,-0.06976 9.8315486,9.8315486 0 0 0 0.1152393,-0.07183 9.8315486,9.8315486 0 0 0 0.1142047,-0.07338 9.8315486,9.8315486 0 0 0 0.1131702,-0.07493 9.8315486,9.8315486 0 0 0 0.1121384,-0.07648 9.8315486,9.8315486 0 0 0 0.1111038,-0.07751 9.8315486,9.8315486 0 0 0 0.1095561,-0.07958 9.8315486,9.8315486 0 0 0 0.1090347,-0.08113 9.8315486,9.8315486 0 0 0 0.1074897,-0.08216 9.8315486,9.8315486 0 0 0 0.1064524,-0.08423 9.8315486,9.8315486 0 0 0 0.1054206,-0.08527 9.8315486,9.8315486 0 0 0 0.1043861,-0.08682 9.8315486,9.8315486 0 0 0 0.1028356,-0.08837 9.8315486,9.8315486 0 0 0 0.1018011,-0.0894 9.8315486,9.8315486 0 0 0 0.1007692,-0.09147 9.8315486,9.8315486 0 0 0 0.099219,-0.09198 9.8315486,9.8315486 0 0 0 0.097668,-0.09405 9.8315486,9.8315486 0 0 0 0.096636,-0.09508 9.8315486,9.8315486 0 0 0 0.095602,-0.09663 9.8315486,9.8315486 0 0 0 0.093533,-0.09767 9.8315486,9.8315486 0 0 0 0.09302,-0.09922 9.8315486,9.8315486 0 0 0 0.090951,-0.100253 9.8315486,9.8315486 0 0 0 0.089916,-0.101286 9.8315486,9.8315486 0 0 0 0.088366,-0.102838 9.8315486,9.8315486 0 0 0 0.087334,-0.104386 9.8315486,9.8315486 0 0 0 0.085267,-0.104902 9.8315486,9.8315486 0 0 0 0.084233,-0.106455 9.8315486,9.8315486 0 0 0 0.082682,-0.107484 9.8315486,9.8315486 0 0 0 0.081132,-0.109038 9.8315486,9.8315486 0 0 0 0.079581,-0.109556 9.8315486,9.8315486 0 0 0 0.078031,-0.110588 9.8315486,9.8315486 0 0 0 0.076999,-0.112135 9.8315486,9.8315486 0 0 0 0.07493,-0.113173 9.8315486,9.8315486 0 0 0 0.073379,-0.113689 9.8315486,9.8315486 0 0 0 0.071832,-0.115237 9.8315486,9.8315486 0 0 0 0.070279,-0.115755 9.8315486,9.8315486 0 0 0 0.068731,-0.117306 9.8315486,9.8315486 0 0 0 0.067178,-0.117821 9.8315486,9.8315486 0 0 0 0.065114,-0.118856 9.8315486,9.8315486 0 0 0 0.06408,-0.119372 9.8315486,9.8315486 0 0 0 0.06201,-0.120407 9.8315486,9.8315486 0 0 0 0.060462,-0.121441 9.8315486,9.8315486 0 0 0 0.058909,-0.122473 9.8315486,9.8315486 0 0 0 0.056846,-0.122989 9.8315486,9.8315486 0 0 0 0.055809,-0.123507 9.8315486,9.8315486 0 0 0 0.053229,-0.12454 9.8315486,9.8315486 0 0 0 0.052192,-0.125574 9.8315486,9.8315486 0 0 0 0.050125,-0.12609 9.8315486,9.8315486 0 0 0 0.048578,-0.126608 9.8315486,9.8315486 0 0 0 0.046508,-0.127124 9.8315486,9.8315486 0 0 0 0.044958,-0.128157 9.8315486,9.8315486 0 0 0 0.043408,-0.128674 9.8315486,9.8315486 0 0 0 0.041341,-0.128675 9.8315486,9.8315486 0 0 0 0.039791,-0.129707 9.8315486,9.8315486 0 0 0 0.037724,-0.130225 9.8315486,9.8315486 0 0 0 0.036174,-0.130741 9.8315486,9.8315486 0 0 0 0.034107,-0.13126 9.8315486,9.8315486 0 0 0 0.032554,-0.131773 9.8315486,9.8315486 0 0 0 0.030491,-0.132292 9.8315486,9.8315486 0 0 0 0.028937,-0.132292 9.8315486,9.8315486 0 0 0 0.026874,-0.133326 9.8315486,9.8315486 0 0 0 0.024791,-0.133323 9.8315486,9.8315486 0 0 0 0.02376,-0.133326 9.8315486,9.8315486 0 0 0 0.021193,-0.133841 9.8315486,9.8315486 0 0 0 0.019632,-0.134358 9.8315486,9.8315486 0 0 0 0.017568,-0.134361 9.8315486,9.8315486 0 0 0 0.016007,-0.134874 9.8315486,9.8315486 0 0 0 0.013943,-0.134877 9.8315486,9.8315486 0 0 0 0.01188,-0.134874 9.8315486,9.8315486 0 0 0 0.010345,-0.135392 9.8315486,9.8315486 0 0 0 0.00878,-0.135393 9.8315486,9.8315486 0 0 0 0.00619,-0.135392 9.8315486,9.8315486 0 0 0 0.00466,-0.135393 9.8315486,9.8315486 0 0 0 0.0031,-0.135908 9.8315486,9.8315486 0 0 0 0.00106,-0.135393 9.8315486,9.8315486 0 0 0 -0.00106,-0.117822 9.8315486,9.8315486 0 0 0 -0.00265,-0.135908 9.8315486,9.8315486 0 0 0 -0.00413,-0.135393 9.8315486,9.8315486 0 0 0 -0.00619,-0.135392 9.8315486,9.8315486 0 0 0 -0.00826,-0.135393 9.8315486,9.8315486 0 0 0 -0.010345,-0.135393 9.8315486,9.8315486 0 0 0 -0.01188,-0.134874 A 9.8315486,9.8315486 0 0 0 8.8877927,23.804691 9.8315486,9.8315486 0 0 0 8.8717854,23.669817 9.8315486,9.8315486 0 0 0 8.8547198,23.535456 9.8315486,9.8315486 0 0 0 8.8350877,23.401098 9.8315486,9.8315486 0 0 0 8.8138946,23.267256 9.8315486,9.8315486 0 0 0 8.7911669,23.133414 9.8315486,9.8315486 0 0 0 8.7658463,23.00009 9.8315486,9.8315486 0 0 0 8.7394938,22.86728 9.8315486,9.8315486 0 0 0 8.7110696,22.734472 9.8315486,9.8315486 0 0 0 8.6805817,22.602181 9.8315486,9.8315486 0 0 0 8.6485433,22.470924 9.8315486,9.8315486 0 0 0 8.6144358,22.339148 9.8315486,9.8315486 0 0 0 8.578262,22.208407 9.8315486,9.8315486 0 0 0 8.5410563,22.078181 9.8315486,9.8315486 0 0 0 8.5012656,21.948475 9.8315486,9.8315486 0 0 0 8.4604404,21.819281 9.8315486,9.8315486 0 0 0 8.4175488,21.690609 9.8315486,9.8315486 0 0 0 8.3725908,21.56245 9.8315486,9.8315486 0 0 0 8.3260823,21.435326 9.8315486,9.8315486 0 0 0 8.2780208,21.308202 9.8315486,9.8315486 0 0 0 8.2278954,21.18263 9.8315486,9.8315486 0 0 0 8.1762197,21.057056 9.8315486,9.8315486 0 0 0 8.1224749,20.932514 9.8315486,9.8315486 0 0 0 8.0676982,20.808491 9.8315486,9.8315486 0 0 0 8.0103392,20.685502 9.8315486,9.8315486 0 0 0 7.9519432,20.563029 9.8315486,9.8315486 0 0 0 7.8919992,20.441588 9.8315486,9.8315486 0 0 0 7.8299892,20.320665 9.8315486,9.8315486 0 0 0 7.7664262,20.201293 9.8315486,9.8315486 0 0 0 7.7007962,20.081921 9.8315486,9.8315486 0 0 0 7.6341342,19.9641 9.8315486,9.8315486 0 0 0 7.5659222,19.84731 9.8315486,9.8315486 0 0 0 7.4956412,19.731039 9.8315486,9.8315486 0 0 0 7.4238122,19.6158 a 9.8315486,9.8315486 0 0 0 -0.073379,-0.114205 9.8315486,9.8315486 0 0 0 -0.074414,-0.113173 9.8315486,9.8315486 0 0 0 -0.076483,-0.11162 9.8315486,9.8315486 0 0 0 -0.078031,-0.111104 9.8315486,9.8315486 0 0 0 -0.079581,-0.110072 9.8315486,9.8315486 0 0 0 -0.080616,-0.109037 9.8315486,9.8315486 0 0 0 -0.082682,-0.107487 9.8315486,9.8315486 0 0 0 -0.083714,-0.106453 9.8315486,9.8315486 0 0 0 -0.085783,-0.10542 9.8315486,9.8315486 0 0 0 -0.086818,-0.104386 9.8315486,9.8315486 0 0 0 -0.08785,-0.102836 9.8315486,9.8315486 0 0 0 -0.089916,-0.101803 9.8315486,9.8315486 0 0 0 -0.09095,-0.100251 9.8315486,9.8315486 0 0 0 -0.092501,-0.09922 9.8315486,9.8315486 0 0 0 -0.094051,-0.09819 9.8315486,9.8315486 0 0 0 -0.095086,-0.09663 9.8315486,9.8315486 0 0 0 -0.096118,-0.09508 9.8315486,9.8315486 0 0 0 -0.098184,-0.09405 9.8315486,9.8315486 0 0 0 -0.098703,-0.0925 9.8315486,9.8315486 0 0 0 -0.1002507,-0.09147 9.8315486,9.8315486 0 0 0 -0.1018037,-0.08992 9.8315486,9.8315486 0 0 0 -0.1028356,-0.08837 9.8315486,9.8315486 0 0 0 -0.1038701,-0.08681 9.8315486,9.8315486 0 0 0 -0.1054206,-0.08578 9.8315486,9.8315486 0 0 0 -0.1064525,-0.08423 9.8315486,9.8315486 0 0 0 -0.1074869,-0.08268 9.8315486,9.8315486 0 0 0 -0.1085215,-0.08113 9.8315486,9.8315486 0 0 0 -0.1095534,-0.07958 9.8315486,9.8315486 0 0 0 -0.1111039,-0.07803 9.8315486,9.8315486 0 0 0 -0.1121383,-0.07648 9.8315486,9.8315486 0 0 0 -0.1126543,-0.07493 9.8315486,9.8315486 0 0 0 -0.1142048,-0.0739 9.8315486,9.8315486 0 0 0 -0.1147206,-0.07183 9.8315486,9.8315486 0 0 0 -0.1162738,-0.07028 9.8315486,9.8315486 0 0 0 -0.1167871,-0.06873 9.8315486,9.8315486 0 0 0 -0.1178243,-0.06666 9.8315486,9.8315486 0 0 0 -0.1188561,-0.06563 9.8315486,9.8315486 0 0 0 -0.119888,-0.06408 9.8315486,9.8315486 0 0 0 -0.1204066,-0.06201 9.8315486,9.8315486 0 0 0 -0.1214384,-0.06046 9.8315486,9.8315486 0 0 0 -0.1219571,-0.05891 9.8315486,9.8315486 0 0 0 -0.1229889,-0.05685 9.8315486,9.8315486 0 0 0 -0.1240234,-0.05529 9.8315486,9.8315486 0 0 0 -0.124542,-0.05374 9.8315486,9.8315486 0 0 0 -0.1250554,-0.05219 9.8315486,9.8315486 0 0 0 -0.1260924,-0.05013 9.8315486,9.8315486 0 0 0 -0.1266059,-0.04857 9.8315486,9.8315486 0 0 0 -0.1276403,-0.04651 9.8315486,9.8315486 0 0 0 -0.042376,-0.01498 z" />
    <path
       id="path1141"
       style="display:inline;fill:#ffffff;fill-opacity:1;stroke:#000000;stroke-width:0.27064;stroke-opacity:1;paint-order:markers fill stroke"
       d="M 42.680124,42.893432 H 8.1504493 A 24.864681,24.864681 0 0 0 25.41503,49.865097 24.864681,24.864681 0 0 0 42.680124,42.893432 Z" />
    <path
       id="path987"
       style="display:inline;fill:#642b2a;fill-opacity:1;stroke:#000000;stroke-width:0.27064;stroke-opacity:1;paint-order:markers fill stroke"
       d="M 42.678058,7.1054371 H 8.1519997 a 24.864681,24.864681 0 0 0 -5.7567539,8.4966389 9.8315486,9.8315486 0 0 1 0.042376,0.01497 9.8315486,9.8315486 0 0 1 0.1276403,0.04651 9.8315486,9.8315486 0 0 1 0.1266059,0.04857 9.8315486,9.8315486 0 0 1 0.1260924,0.05013 9.8315486,9.8315486 0 0 1 0.1250553,0.05219 9.8315486,9.8315486 0 0 1 0.1245421,0.05375 9.8315486,9.8315486 0 0 1 0.1240234,0.05529 9.8315486,9.8315486 0 0 1 0.1229889,0.05685 9.8315486,9.8315486 0 0 1 0.1219571,0.05891 9.8315486,9.8315486 0 0 1 0.1214384,0.06046 9.8315486,9.8315486 0 0 1 0.1204066,0.06201 9.8315486,9.8315486 0 0 1 0.119888,0.06408 9.8315486,9.8315486 0 0 1 0.1188561,0.06563 9.8315486,9.8315486 0 0 1 0.1178243,0.06666 9.8315486,9.8315486 0 0 1 0.1167871,0.06873 9.8315486,9.8315486 0 0 1 0.1162738,0.07028 9.8315486,9.8315486 0 0 1 0.1147206,0.07183 9.8315486,9.8315486 0 0 1 0.1142048,0.0739 9.8315486,9.8315486 0 0 1 0.1126543,0.07493 9.8315486,9.8315486 0 0 1 0.1121383,0.07648 9.8315486,9.8315486 0 0 1 0.1111039,0.07803 9.8315486,9.8315486 0 0 1 0.1095533,0.07958 9.8315486,9.8315486 0 0 1 0.1085215,0.08113 9.8315486,9.8315486 0 0 1 0.107487,0.08268 9.8315486,9.8315486 0 0 1 0.1064525,0.08423 9.8315486,9.8315486 0 0 1 0.1054206,0.08578 9.8315486,9.8315486 0 0 1 0.1038701,0.08682 9.8315486,9.8315486 0 0 1 0.1028356,0.08837 9.8315486,9.8315486 0 0 1 0.1018037,0.08992 9.8315486,9.8315486 0 0 1 0.1002506,0.09147 9.8315486,9.8315486 0 0 1 0.098703,0.0925 9.8315486,9.8315486 0 0 1 0.098184,0.09405 9.8315486,9.8315486 0 0 1 0.096118,0.09509 9.8315486,9.8315486 0 0 1 0.095086,0.09663 9.8315486,9.8315486 0 0 1 0.094051,0.09819 9.8315486,9.8315486 0 0 1 0.092501,0.09922 9.8315486,9.8315486 0 0 1 0.09095,0.100251 9.8315486,9.8315486 0 0 1 0.089916,0.101804 9.8315486,9.8315486 0 0 1 0.08785,0.102835 9.8315486,9.8315486 0 0 1 0.086818,0.104386 9.8315486,9.8315486 0 0 1 0.085783,0.105421 9.8315486,9.8315486 0 0 1 0.083714,0.106452 9.8315486,9.8315486 0 0 1 0.082682,0.107487 9.8315486,9.8315486 0 0 1 0.080616,0.109038 9.8315486,9.8315486 0 0 1 0.079581,0.110072 9.8315486,9.8315486 0 0 1 0.078031,0.111104 9.8315486,9.8315486 0 0 1 0.076483,0.111619 9.8315486,9.8315486 0 0 1 0.074414,0.113173 9.8315486,9.8315486 0 0 1 0.073379,0.114205 9.8315486,9.8315486 0 0 1 0.071829,0.115239 9.8315486,9.8315486 0 0 1 0.070281,0.116272 9.8315486,9.8315486 0 0 1 0.068212,0.116789 9.8315486,9.8315486 0 0 1 0.066662,0.117822 9.8315486,9.8315486 0 0 1 0.06563,0.119372 9.8315486,9.8315486 0 0 1 0.063563,0.119372 9.8315486,9.8315486 0 0 1 0.06201,0.120922 9.8315486,9.8315486 0 0 1 0.059944,0.121442 9.8315486,9.8315486 0 0 1 0.058396,0.122473 9.8315486,9.8315486 0 0 1 0.057359,0.122988 9.8315486,9.8315486 0 0 1 0.054777,0.124024 9.8315486,9.8315486 0 0 1 0.053745,0.124542 9.8315486,9.8315486 0 0 1 0.051676,0.125574 9.8315486,9.8315486 0 0 1 0.050125,0.125571 9.8315486,9.8315486 0 0 1 0.048062,0.127124 9.8315486,9.8315486 0 0 1 0.046508,0.127125 9.8315486,9.8315486 0 0 1 0.044958,0.128159 9.8315486,9.8315486 0 0 1 0.042892,0.128672 9.8315486,9.8315486 0 0 1 0.040825,0.129193 9.8315486,9.8315486 0 0 1 0.039791,0.129707 9.8315486,9.8315486 0 0 1 0.037206,0.130225 9.8315486,9.8315486 0 0 1 0.036174,0.130741 9.8315486,9.8315486 0 0 1 0.034107,0.131776 9.8315486,9.8315486 0 0 1 0.032038,0.131257 9.8315486,9.8315486 0 0 1 0.030488,0.132292 9.8315486,9.8315486 0 0 1 0.028424,0.132808 9.8315486,9.8315486 0 0 1 0.026353,0.13281 9.8315486,9.8315486 0 0 1 0.025321,0.133323 9.8315486,9.8315486 0 0 1 0.022728,0.133842 9.8315486,9.8315486 0 0 1 0.021193,0.133843 9.8315486,9.8315486 0 0 1 0.019632,0.134358 9.8315486,9.8315486 0 0 1 0.017066,0.13436 9.8315486,9.8315486 0 0 1 0.016007,0.134874 9.8315486,9.8315486 0 0 1 0.013441,0.134877 9.8315486,9.8315486 0 0 1 0.01188,0.134874 9.8315486,9.8315486 0 0 1 0.010345,0.135393 9.8315486,9.8315486 0 0 1 0.00826,0.135392 9.8315486,9.8315486 0 0 1 0.00619,0.135393 9.8315486,9.8315486 0 0 1 0.00413,0.135392 9.8315486,9.8315486 0 0 1 0.00265,0.135909 9.8315486,9.8315486 0 0 1 0.00106,0.117821 9.8315486,9.8315486 0 0 1 -0.00106,0.135393 9.8315486,9.8315486 0 0 1 -0.0031,0.135909 9.8315486,9.8315486 0 0 1 -0.00466,0.135392 9.8315486,9.8315486 0 0 1 -0.00619,0.135393 9.8315486,9.8315486 0 0 1 -0.00878,0.135392 9.8315486,9.8315486 0 0 1 -0.010345,0.135393 9.8315486,9.8315486 0 0 1 -0.01188,0.134874 9.8315486,9.8315486 0 0 1 -0.013943,0.134877 9.8315486,9.8315486 0 0 1 -0.016007,0.134874 9.8315486,9.8315486 0 0 1 -0.017568,0.13436 9.8315486,9.8315486 0 0 1 -0.019632,0.134358 9.8315486,9.8315486 0 0 1 -0.021193,0.133841 9.8315486,9.8315486 0 0 1 -0.02376,0.133326 9.8315486,9.8315486 0 0 1 -0.024791,0.133324 9.8315486,9.8315486 0 0 1 -0.026874,0.133326 9.8315486,9.8315486 0 0 1 -0.028938,0.132292 9.8315486,9.8315486 0 0 1 -0.030491,0.132291 9.8315486,9.8315486 0 0 1 -0.032554,0.131773 9.8315486,9.8315486 0 0 1 -0.034107,0.13126 9.8315486,9.8315486 0 0 1 -0.036174,0.130741 9.8315486,9.8315486 0 0 1 -0.037724,0.130226 9.8315486,9.8315486 0 0 1 -0.039791,0.129706 9.8315486,9.8315486 0 0 1 -0.041341,0.128675 9.8315486,9.8315486 0 0 1 -0.043408,0.128675 9.8315486,9.8315486 0 0 1 -0.044958,0.128156 9.8315486,9.8315486 0 0 1 -0.046508,0.127125 9.8315486,9.8315486 0 0 1 -0.048578,0.126608 9.8315486,9.8315486 0 0 1 -0.050125,0.12609 9.8315486,9.8315486 0 0 1 -0.052192,0.125574 9.8315486,9.8315486 0 0 1 -0.053229,0.124539 9.8315486,9.8315486 0 0 1 -0.055809,0.123508 9.8315486,9.8315486 0 0 1 -0.056846,0.122989 9.8315486,9.8315486 0 0 1 -0.05891,0.122473 9.8315486,9.8315486 0 0 1 -0.060462,0.121441 9.8315486,9.8315486 0 0 1 -0.06201,0.120406 9.8315486,9.8315486 0 0 1 -0.06408,0.119372 9.8315486,9.8315486 0 0 1 -0.065114,0.118856 9.8315486,9.8315486 0 0 1 -0.067178,0.117822 9.8315486,9.8315486 0 0 1 -0.068731,0.117306 9.8315486,9.8315486 0 0 1 -0.070279,0.115755 9.8315486,9.8315486 0 0 1 -0.071832,0.115237 9.8315486,9.8315486 0 0 1 -0.07338,0.113688 9.8315486,9.8315486 0 0 1 -0.07493,0.113173 9.8315486,9.8315486 0 0 1 -0.076999,0.112136 9.8315486,9.8315486 0 0 1 -0.078031,0.110588 9.8315486,9.8315486 0 0 1 -0.079581,0.109556 9.8315486,9.8315486 0 0 1 -0.081132,0.109037 9.8315486,9.8315486 0 0 1 -0.082682,0.107485 9.8315486,9.8315486 0 0 1 -0.084233,0.106455 9.8315486,9.8315486 0 0 1 -0.085267,0.104902 9.8315486,9.8315486 0 0 1 -0.087334,0.104386 9.8315486,9.8315486 0 0 1 -0.088366,0.102838 9.8315486,9.8315486 0 0 1 -0.089916,0.101285 9.8315486,9.8315486 0 0 1 -0.090951,0.100253 9.8315486,9.8315486 0 0 1 -0.09302,0.09922 9.8315486,9.8315486 0 0 1 -0.093533,0.09767 9.8315486,9.8315486 0 0 1 -0.095602,0.09663 9.8315486,9.8315486 0 0 1 -0.096636,0.09508 9.8315486,9.8315486 0 0 1 -0.097668,0.09405 9.8315486,9.8315486 0 0 1 -0.099219,0.09199 9.8315486,9.8315486 0 0 1 -0.1007692,0.09147 9.8315486,9.8315486 0 0 1 -0.1018011,0.0894 9.8315486,9.8315486 0 0 1 -0.1028356,0.08837 9.8315486,9.8315486 0 0 1 -0.1043861,0.08682 9.8315486,9.8315486 0 0 1 -0.1054206,0.08527 9.8315486,9.8315486 0 0 1 -0.1064524,0.08423 9.8315486,9.8315486 0 0 1 -0.1074897,0.08216 9.8315486,9.8315486 0 0 1 -0.1090348,0.08113 9.8315486,9.8315486 0 0 1 -0.109556,0.07958 9.8315486,9.8315486 0 0 1 -0.1111038,0.07751 9.8315486,9.8315486 0 0 1 -0.1121384,0.07648 9.8315486,9.8315486 0 0 1 -0.1131702,0.07493 9.8315486,9.8315486 0 0 1 -0.1142047,0.07338 9.8315486,9.8315486 0 0 1 -0.1152393,0.07183 9.8315486,9.8315486 0 0 1 -0.1157552,0.06976 9.8315486,9.8315486 0 0 1 -0.1173057,0.06873 9.8315486,9.8315486 0 0 1 -0.1178216,0.06666 9.8315486,9.8315486 0 0 1 -0.1188561,0.06511 9.8315486,9.8315486 0 0 1 -0.119888,0.06356 9.8315486,9.8315486 0 0 1 -0.1209252,0.06201 9.8315486,9.8315486 0 0 1 -0.1214384,0.06046 9.8315486,9.8315486 0 0 1 -0.1219571,0.05839 9.8315486,9.8315486 0 0 1 -0.1235048,0.05685 9.8315486,9.8315486 0 0 1 -0.1235075,0.05529 9.8315486,9.8315486 0 0 1 -0.125058,0.05323 9.8315486,9.8315486 0 0 1 -0.1250553,0.05168 9.8315486,9.8315486 0 0 1 -0.1260925,0.05013 9.8315486,9.8315486 0 0 1 -0.1266058,0.04857 9.8315486,9.8315486 0 0 1 -0.1276403,0.04599 9.8315486,9.8315486 0 0 1 -0.1178243,0.04134 24.864681,24.864681 0 0 0 5.8471886,8.724016 H 42.680206 A 24.864681,24.864681 0 0 0 50.279743,24.999941 24.864681,24.864681 0 0 0 42.67814,7.1054265 Z" />
    <path
       id="path985"
       style="display:inline;fill:#ffffff;fill-opacity:1;stroke:#000000;stroke-width:0.27064;stroke-opacity:1;paint-order:markers fill stroke"
       d="M 25.396425,0.13531999 A 24.864681,24.864681 0 0 0 8.1519997,7.1054371 H 42.678058 A 24.864681,24.864681 0 0 0 25.41503,0.13531999 a 24.864681,24.864681 0 0 0 -0.0186,0 z" />
    <circle
       style="display:inline;opacity:0.88141;mix-blend-mode:normal;fill:url(#radialGradient1561-9-6);fill-opacity:1;stroke:none;stroke-width:0.212909;stroke-opacity:1;paint-order:markers fill stroke"
       id="path1129-9-74"
       cx="25"
       cy="25.000324"
       r="25" />
    <circle
       style="display:inline;opacity:0.88141;mix-blend-mode:normal;fill:url(#radialGradient1561-8);fill-opacity:1;stroke:none;stroke-width:0.212909;stroke-opacity:1;paint-order:markers fill stroke"
       id="path1129-2"
       cx="25.415184"
       cy="25.000324"
       r="25" />
  </g>
</svg>
